<?xml version="1.0" standalone="no"?>
<!DOCTYPE svg PUBLIC "-//W3C//DTD SVG 1.1//EN" "http://www.w3.org/Graphics/SVG/1.1/DTD/svg11.dtd" >
<svg xmlns="http://www.w3.org/2000/svg" xmlns:xlink="http://www.w3.org/1999/xlink" version="1.1">
<metadata>
Created by FontForge 20170731 at Thu Jul  2 18:18:23 2015
 By Aleksey,,,
Copyright 2015 Dalton Maag Ltd. All rights reserved. This font may not be altered in any way without prior permission of Dalton Maag Ltd.
</metadata>
<defs>
<font id="AktivGroteskTrial-HairItalic" horiz-adv-x="412" >
  <font-face 
    font-family="Aktiv Grotesk Trial Hair"
    font-weight="250"
    font-style="italic"
    font-stretch="normal"
    units-per-em="1000"
    panose-1="2 11 3 4 2 2 2 9 2 4"
    ascent="714"
    descent="-286"
    x-height="511"
    cap-height="714"
    bbox="-205 -213 1221 905"
    underline-thickness="68"
    underline-position="-201"
    slope="-11.94"
    unicode-range="U+0008-FEFF"
  />
<missing-glyph horiz-adv-x="500" 
d="M50 0v750h400v-750h-400zM400 700h-300v-650h300v650z" />
    <glyph glyph-name="f_i" unicode="fi" horiz-adv-x="482" 
d="M61 0l104 491h-79l4 20h79l16 74q15 70 51.5 103.5t97.5 33.5q35 0 64 -11l-7 -19q-24 10 -58 10q-53 0 -83 -28t-44 -91l-16 -72h159l-4 -20h-159l-104 -491h-21zM347 0l108 511h21l-108 -511h-21zM479 622l19 92h21l-19 -92h-21z" />
    <glyph glyph-name="f_l" unicode="fl" horiz-adv-x="485" 
d="M61 0l104 491h-79l4 20h79l16 74q15 70 51.5 103.5t97.5 33.5q35 0 64 -11l-7 -19q-24 10 -58 10q-53 0 -83 -28t-44 -91l-16 -72h159l-4 -20h-159l-104 -491h-21zM350 0l151 714h21l-151 -714h-21z" />
    <glyph glyph-name="f_f" unicode="ff" horiz-adv-x="602" 
d="M61 0l104 491h-79l4 20h79l16 74q15 70 51.5 103.5t97.5 33.5q35 0 64 -11l-7 -19q-24 10 -58 10q-53 0 -83 -28t-44 -91l-16 -72h159l-4 -20h-159l-104 -491h-21zM362 0l104 491h-79l4 20h79l16 74q15 70 51.5 103.5t97.5 33.5q35 0 64 -11l-7 -19q-24 10 -58 10
q-53 0 -83 -28t-44 -91l-16 -72h159l-4 -20h-159l-104 -491h-21z" />
    <glyph glyph-name="f_f_i" unicode="ffi" horiz-adv-x="783" 
d="M61 0l104 491h-79l4 20h79l16 74q15 70 51.5 103.5t97.5 33.5q35 0 64 -11l-7 -19q-24 10 -58 10q-53 0 -83 -28t-44 -91l-16 -72h159l-4 -20h-159l-104 -491h-21zM648 0l108 511h21l-108 -511h-21zM780 622l19 92h21l-19 -92h-21zM362 0l104 491h-79l4 20h79l16 74
q15 70 51.5 103.5t97.5 33.5q35 0 64 -11l-7 -19q-24 10 -58 10q-53 0 -83 -28t-44 -91l-16 -72h159l-4 -20h-159l-104 -491h-21z" />
    <glyph glyph-name="f_f_l" unicode="ffl" horiz-adv-x="786" 
d="M61 0l104 491h-79l4 20h79l16 74q15 70 51.5 103.5t97.5 33.5q35 0 64 -11l-7 -19q-24 10 -58 10q-53 0 -83 -28t-44 -91l-16 -72h159l-4 -20h-159l-104 -491h-21zM362 0l104 491h-79l4 20h79l16 74q15 70 51.5 103.5t97.5 33.5q35 0 64 -11l-7 -19q-24 10 -58 10
q-53 0 -83 -28t-44 -91l-16 -72h159l-4 -20h-159l-104 -491h-21zM651 0l151 714h21l-151 -714h-21z" />
    <glyph glyph-name=".notdef" horiz-adv-x="500" 
d="M50 0v750h400v-750h-400zM400 700h-300v-650h300v650z" />
    <glyph glyph-name=".null" horiz-adv-x="0" 
 />
    <glyph glyph-name=".null" horiz-adv-x="0" 
 />
    <glyph glyph-name=".null" horiz-adv-x="0" 
 />
    <glyph glyph-name="nonmarkingreturn" unicode="&#x9;" horiz-adv-x="225" 
 />
    <glyph glyph-name="nonmarkingreturn" unicode="&#xd;" horiz-adv-x="225" 
 />
    <glyph glyph-name="space" unicode=" " horiz-adv-x="225" 
 />
    <glyph glyph-name="exclam" unicode="!" horiz-adv-x="192" 
d="M84 178l113 536h22l-115 -536h-20zM46 0l21 97h22l-21 -97h-22z" />
    <glyph glyph-name="quotedbl" unicode="&#x22;" horiz-adv-x="248" 
d="M109 486l47 228h23l-51 -228h-19zM244 486l47 228h23l-51 -228h-19z" />
    <glyph glyph-name="numbersign" unicode="#" horiz-adv-x="592" 
d="M306 0l75 196h-225l-75 -196h-22l75 196h-124l4 20h128l98 259h-123l4 20h126l70 183h22l-70 -183h225l70 183h22l-70 -183h124l-4 -20h-127l-98 -259h121l-4 -20h-125l-75 -196h-22zM487 475h-225l-98 -259h225z" />
    <glyph glyph-name="dollar" unicode="$" horiz-adv-x="592" 
d="M211 -105l19 89q-173 18 -179 182h21q6 -74 46 -113t117 -46l72 342l-21 5q-82 19 -118.5 57t-36.5 104q0 91 60.5 143.5t164.5 52.5q18 0 28 -1l16 73h20l-16 -76q69 -10 110.5 -50t60.5 -116l-20 -5q-20 73 -56.5 108t-99.5 43l-68 -322l26 -6q84 -19 121 -58.5
t37 -110.5q0 -98 -64 -153t-179 -55h-23l-18 -87h-20zM326 344l-72 -339h20q104 0 161 47.5t57 134.5q0 64 -33.5 100.5t-107.5 51.5zM380 689q-8 1 -25 1q-95 0 -148.5 -46t-53.5 -128q0 -59 32.5 -92t105.5 -50l21 -5z" />
    <glyph glyph-name="percent" unicode="%" horiz-adv-x="855" 
d="M198 0l500 691h25l-500 -691h-25zM634 -26q-64 0 -103.5 43t-39.5 115q0 74 24.5 134.5t69 97t101.5 36.5q64 0 103.5 -43t39.5 -115q0 -74 -24.5 -134.5t-69 -97t-101.5 -36.5zM634 -6q48 0 87 30.5t62.5 87t23.5 129.5q0 63 -33 101t-88 38q-48 0 -87 -30.5t-62.5 -87
t-23.5 -129.5q0 -63 33 -101t88 -38zM233 281q-64 0 -103.5 43t-39.5 115q0 74 24.5 134.5t69 97t101.5 36.5q64 0 103.5 -43t39.5 -115q0 -74 -24.5 -134.5t-69 -97t-101.5 -36.5zM233 301q48 0 87 30.5t62.5 87t23.5 129.5q0 63 -33 101t-88 38q-48 0 -87 -30.5t-62.5 -87
t-23.5 -129.5q0 -63 33 -101t88 -38z" />
    <glyph glyph-name="ampersand" unicode="&#x26;" horiz-adv-x="606" 
d="M528 0l-47 71q-84 -87 -224 -87q-100 0 -156.5 45t-56.5 125q0 52 21.5 91.5t69 76t130.5 81.5q-57 85 -57 161q0 67 42 108t110 41q57 0 91 -32.5t34 -87.5q0 -40 -18 -69.5t-58.5 -59t-114.5 -68.5l190 -291q64 81 76 218h21q-12 -148 -85 -236l57 -87h-25zM275 386
q-83 -44 -127.5 -79.5t-63 -71.5t-18.5 -81q0 -70 51 -109.5t142 -39.5q133 0 211 83zM283 413q80 42 116.5 68.5t50 51t13.5 58.5q0 48 -27.5 74.5t-78.5 26.5q-60 0 -93.5 -36t-33.5 -100q0 -33 12.5 -67t40.5 -76z" />
    <glyph glyph-name="quotesingle" unicode="'" horiz-adv-x="113" 
d="M109 486l47 228h23l-51 -228h-19z" />
    <glyph glyph-name="parenleft" unicode="(" horiz-adv-x="216" 
d="M111 -124q-42 112 -42 239q0 164 58.5 326t164.5 293h22q-108 -141 -165 -301t-57 -322q0 -124 39 -235h-20z" />
    <glyph glyph-name="parenright" unicode=")" horiz-adv-x="216" 
d="M-47 -124q108 141 165 301t57 322q0 124 -39 235h20q42 -112 42 -239q0 -164 -58.5 -326t-164.5 -293h-22z" />
    <glyph glyph-name="asterisk" unicode="*" horiz-adv-x="337" 
d="M303 436l-57 114l-104 -116l-15 14l107 113l-110 47l7 17l111 -49l28 138h20l-31 -138l127 47l6 -16l-133 -47l62 -114z" />
    <glyph glyph-name="plus" unicode="+" horiz-adv-x="592" 
d="M268 103l48 227h-213l5 20h213l48 226h21l-48 -226h212l-5 -20h-212l-48 -227h-21z" />
    <glyph glyph-name="comma" unicode="," horiz-adv-x="162" 
d="M-8 -86l73 183h24l-77 -183h-20z" />
    <glyph glyph-name="hyphen" unicode="-" horiz-adv-x="387" 
d="M70 278l4 20h287l-4 -20h-287z" />
    <glyph glyph-name="period" unicode="." horiz-adv-x="162" 
d="M30 0l21 97h22l-21 -97h-22z" />
    <glyph glyph-name="slash" unicode="/" horiz-adv-x="275" 
d="M-25 0l379 734h23l-379 -734h-23z" />
    <glyph glyph-name="zero" unicode="0" horiz-adv-x="592" 
d="M269 -18q-98 0 -150.5 63.5t-52.5 181.5q0 130 41 239.5t115.5 176.5t167.5 67q98 0 150.5 -63.5t52.5 -181.5q0 -130 -41 -239.5t-115.5 -176.5t-167.5 -67zM268 3q81 0 149.5 58t110.5 164t42 238q0 110 -46 168t-133 58q-81 0 -149.5 -58t-110.5 -164t-42 -238
q0 -110 46 -168t133 -58z" />
    <glyph glyph-name="one" unicode="1" horiz-adv-x="592" 
d="M282 0l143 667l-207 -110l-8 17l217 117h23l-146 -691h-22z" />
    <glyph glyph-name="two" unicode="2" horiz-adv-x="592" 
d="M49 0l5 22l227 170q122 91 177.5 144t76 95.5t20.5 95.5q0 75 -45 118.5t-122 43.5q-78 0 -134 -43t-76 -117l-21 4q20 80 83.5 128.5t148.5 48.5q86 0 137.5 -49.5t51.5 -132.5q0 -60 -27 -110t-88 -107t-173 -140l-201 -150h400l-9 -21h-431z" />
    <glyph glyph-name="three" unicode="3" horiz-adv-x="592" 
d="M258 352l4 21h79q94 0 148 45t54 124q0 70 -44 108.5t-125 38.5q-80 0 -133.5 -39.5t-75.5 -114.5l-21 5q21 81 82 125.5t149 44.5q90 0 140.5 -44.5t50.5 -123.5q0 -68 -42.5 -118t-108.5 -60q49 -13 75.5 -54.5t26.5 -104.5t-28.5 -113.5t-81 -80t-121.5 -29.5
q-97 0 -154.5 49.5t-57.5 131.5v12h21v-4q0 -78 52 -123t141 -45q93 0 149 56.5t56 148.5q0 69 -33.5 106.5t-95.5 37.5h-106z" />
    <glyph glyph-name="four" unicode="4" horiz-adv-x="592" 
d="M370 0l42 196h-354l4 21l451 474h25l-100 -474h104l-9 -21h-99l-42 -196h-22zM509 659l-420 -442h327z" />
    <glyph glyph-name="five" unicode="5" horiz-adv-x="592" 
d="M80 163h21q2 -77 49 -118.5t134 -41.5q101 0 162 64.5t61 171.5q0 85 -44 129.5t-127 44.5q-50 0 -93 -18t-87 -57h-24l98 353h349l-5 -21h-329l-85 -306q43 37 85 53.5t93 16.5q91 0 141.5 -51t50.5 -143q0 -75 -30 -133t-85.5 -91.5t-129.5 -33.5q-96 0 -150.5 46.5
t-54.5 128.5v6z" />
    <glyph glyph-name="six" unicode="6" horiz-adv-x="592" 
d="M566 559q-11 67 -48 98.5t-105 31.5q-116 0 -196 -106.5t-105 -294.5q28 70 88 108.5t142 38.5q91 0 142 -52t51 -144q0 -73 -30 -131t-85 -92t-127 -34q-80 0 -133 44q-37 30 -54.5 76.5t-17.5 115.5q0 134 41.5 245.5t116.5 179t170 67.5q73 0 116.5 -37.5t53.5 -109.5
zM295 3q62 0 111 29t77.5 82.5t28.5 123.5q0 85 -44.5 130.5t-128.5 45.5q-64 0 -116 -28t-82 -79t-30 -118q0 -86 49.5 -136t134.5 -50z" />
    <glyph glyph-name="seven" unicode="7" horiz-adv-x="592" 
d="M156 0q185 369 417 670h-424l4 21h450l-4 -21q-255 -332 -417 -670h-26z" />
    <glyph glyph-name="eight" unicode="8" horiz-adv-x="592" 
d="M401 344q67 -15 101.5 -55.5t34.5 -104.5q0 -94 -71 -148t-195 -54q-109 0 -166.5 44t-57.5 127t55 135t153 63q-58 16 -89.5 57t-31.5 102q0 91 66 145.5t176 54.5q97 0 151 -45t54 -127q0 -77 -48 -128.5t-132 -65.5zM514 182q0 75 -51.5 115t-148.5 40
q-115 0 -179.5 -48t-64.5 -134q0 -75 50.5 -113.5t149.5 -38.5q115 0 179.5 47.5t64.5 131.5zM558 538q0 72 -47.5 111.5t-136.5 39.5q-100 0 -158.5 -48t-58.5 -130q0 -73 48 -113.5t136 -40.5q100 0 158.5 49t58.5 132z" />
    <glyph glyph-name="nine" unicode="9" horiz-adv-x="592" 
d="M98 140q9 -66 51.5 -101.5t113.5 -35.5q124 0 197 105.5t86 304.5q-27 -74 -88 -115t-145 -41q-91 0 -142 52t-51 144q0 73 30 131t85 92t127 34q80 0 133 -44q27 -22 42.5 -50t22.5 -66t7 -91q0 -142 -36 -249.5t-105 -167.5t-164 -60q-81 0 -129 41.5t-56 116.5h21z
M316 278q64 0 116 28t82 79t30 118q0 86 -49.5 136t-134.5 50q-62 0 -111 -29t-77.5 -82.5t-28.5 -123.5q0 -85 44.5 -130.5t128.5 -45.5z" />
    <glyph glyph-name="colon" unicode=":" horiz-adv-x="162" 
d="M31 0l21 97h22l-21 -97h-22zM119 414l21 97h22l-21 -97h-22z" />
    <glyph glyph-name="semicolon" unicode=";" horiz-adv-x="162" 
d="M-13 -86l73 183h24l-77 -183h-20zM118 414l21 97h22l-21 -97h-22z" />
    <glyph glyph-name="less" unicode="&#x3c;" horiz-adv-x="592" 
d="M107 330l4 17l485 227l-5 -24l-454 -213l364 -212l-5 -21z" />
    <glyph glyph-name="equal" unicode="=" horiz-adv-x="592" 
d="M89 217l4 20h426l-4 -20h-426zM137 443l4 20h426l-4 -20h-426z" />
    <glyph glyph-name="greater" unicode="&#x3e;" horiz-adv-x="592" 
d="M59 104l5 24l454 213l-364 212l5 21l389 -226l-4 -17z" />
    <glyph glyph-name="question" unicode="?" horiz-adv-x="489" 
d="M212 176l1 6q6 40 21.5 68.5t45.5 57.5t85 70q64 48 94 94t30 98q0 64 -41.5 98.5t-116.5 34.5q-76 0 -124.5 -38.5t-75.5 -119.5l-20 5q53 174 222 174q83 0 130.5 -41.5t47.5 -113.5q0 -57 -32.5 -106t-107.5 -105q-53 -40 -78.5 -65.5t-37.5 -49.5t-19 -57l-2 -10h-22
zM173 0l21 97h22l-21 -97h-22z" />
    <glyph glyph-name="at" unicode="@" horiz-adv-x="901" 
d="M750 -66q-50 -73 -125 -108.5t-181 -35.5q-184 0 -284.5 98t-100.5 278q0 137 55 249.5t156.5 179t231.5 66.5q108 0 191 -43t129.5 -125t46.5 -193q0 -85 -24.5 -154t-70 -109.5t-104.5 -40.5q-43 0 -67.5 21t-24.5 60q0 11 1 20q-56 -107 -171 -107q-76 0 -117 45.5
t-41 128.5q0 74 29.5 138t83.5 104t119 40q58 0 96 -31t48 -88l23 107h21l-70 -328q-3 -13 -3 -25q0 -31 19 -48t54 -17q49 0 89 34.5t64 99t24 148.5q0 103 -41 180t-119 120t-186 43q-118 0 -213 -59t-151 -167.5t-56 -249.5q0 -172 93 -263.5t269 -91.5q97 0 165.5 29.5
t119.5 94.5h22zM610 249q4 21 4 41q0 60 -37.5 98.5t-95.5 38.5q-55 0 -102.5 -34t-77 -94.5t-29.5 -133.5q0 -77 35 -116.5t101 -39.5q74 0 124 50.5t69 146.5z" />
    <glyph glyph-name="A" unicode="A" horiz-adv-x="637" 
d="M548 0l-42 236h-353l-141 -236h-26l431 714h25l130 -714h-24zM425 689l-260 -432h337z" />
    <glyph glyph-name="B" unicode="B" horiz-adv-x="611" 
d="M46 0l151 714h210q94 0 142.5 -38t48.5 -113q0 -77 -48 -126t-137 -62q68 -12 104.5 -55t36.5 -112q0 -100 -72.5 -154t-206.5 -54h-229zM277 21q123 0 188.5 47.5t65.5 137.5q0 158 -188 158h-198l-73 -343h205zM331 385q118 0 181.5 45.5t63.5 131.5q0 68 -43.5 99.5
t-138.5 31.5h-179l-66 -308h182z" />
    <glyph glyph-name="C" unicode="C" horiz-adv-x="685" 
d="M650 230q-24 -118 -102.5 -182t-196.5 -64q-129 0 -198.5 77t-69.5 220q0 90 25 171t73 144t115.5 99.5t147.5 36.5q68 0 120 -26t83.5 -76.5t38.5 -122.5l-21 -3q-11 100 -68 153.5t-153 53.5q-94 0 -170.5 -53t-122 -151t-45.5 -223q0 -137 62.5 -208t182.5 -71
q109 0 181.5 58t96.5 167h21z" />
    <glyph glyph-name="D" unicode="D" horiz-adv-x="687" 
d="M46 0l151 714h192q137 0 211.5 -76.5t74.5 -216.5q0 -122 -49 -217t-140.5 -149.5t-213.5 -54.5h-226zM277 21q107 0 192 48.5t134 139t49 210.5q0 134 -68 204t-199 70h-171l-142 -672h205z" />
    <glyph glyph-name="E" unicode="E" horiz-adv-x="573" 
d="M46 0l151 714h435l-4 -21h-413l-67 -314h393l-4 -21h-393l-72 -337h420l-8 -21h-438z" />
    <glyph glyph-name="F" unicode="F" horiz-adv-x="539" 
d="M141 350l-74 -350h-21l151 714h409l-4 -21h-388l-69 -322h366l-4 -21h-366z" />
    <glyph glyph-name="G" unicode="G" horiz-adv-x="687" 
d="M626 311h-217l4 21h239l-56 -264q-44 -39 -109 -61.5t-131 -22.5q-128 0 -200 79.5t-72 221.5q0 124 45 225t127.5 161.5t188.5 60.5q95 0 154 -48.5t77 -141.5l-21 -5q-16 85 -69 129.5t-142 44.5q-94 0 -170.5 -52.5t-121.5 -149t-45 -221.5q0 -136 65.5 -209.5
t186.5 -73.5q61 0 118 19t99 54z" />
    <glyph glyph-name="H" unicode="H" horiz-adv-x="673" 
d="M525 0l76 360h-457l-76 -360h-22l151 714h22l-70 -333h457l70 333h22l-151 -714h-22z" />
    <glyph glyph-name="I" unicode="I" horiz-adv-x="194" 
d="M46 0l151 714h22l-151 -714h-22z" />
    <glyph glyph-name="J" unicode="J" horiz-adv-x="564" 
d="M572 714h22l-106 -498q-26 -121 -87 -176.5t-166 -55.5q-98 0 -151 48.5t-53 138.5v27h21v-21q0 -172 184 -172q98 0 153.5 52.5t79.5 167.5z" />
    <glyph glyph-name="K" unicode="K" horiz-adv-x="623" 
d="M536 0l-208 431l-204 -160l-57 -271h-21l151 714h21l-87 -413l525 413h30l-342 -270l215 -444h-23z" />
    <glyph glyph-name="L" unicode="L" horiz-adv-x="547" 
d="M46 0l151 714h22l-147 -693h408l-8 -21h-426z" />
    <glyph glyph-name="M" unicode="M" horiz-adv-x="812" 
d="M665 0l144 677l-433 -677h-20l-145 677l-144 -677h-21l151 714h26l148 -686l439 686h27l-151 -714h-21z" />
    <glyph glyph-name="N" unicode="N" horiz-adv-x="674" 
d="M522 0l-309 684l-145 -684h-22l151 714h25l310 -687l145 687h22l-151 -714h-26z" />
    <glyph glyph-name="O" unicode="O" horiz-adv-x="736" 
d="M345 -16q-123 0 -193 80t-70 221q0 88 26.5 167.5t77 142.5t121.5 100t154 37q123 0 193 -80t70 -221q0 -88 -26.5 -167.5t-77 -142.5t-121.5 -100t-154 -37zM347 5q95 0 175.5 54t129.5 152t49 220q0 131 -64.5 205.5t-177.5 74.5q-95 0 -175.5 -54t-129.5 -152
t-49 -220q0 -131 64.5 -205.5t177.5 -74.5z" />
    <glyph glyph-name="P" unicode="P" horiz-adv-x="598" 
d="M46 0l151 714h198q106 0 160.5 -46.5t54.5 -136.5q0 -104 -75.5 -165.5t-203.5 -61.5h-199l-64 -304h-22zM334 325q117 0 185 55t68 150q0 163 -196 163h-176l-78 -368h197z" />
    <glyph glyph-name="Q" unicode="Q" horiz-adv-x="736" 
d="M596 -69l-64 107q-83 -54 -187 -54q-123 0 -193 80t-70 221q0 88 26.5 167.5t77 142.5t121.5 100t154 37q123 0 193 -80t70 -221q0 -116 -46.5 -218t-127.5 -163l65 -108zM442 190l19 11l78 -132q75 57 118.5 154.5t43.5 207.5q0 131 -64.5 205.5t-177.5 74.5
q-95 0 -175.5 -54t-129.5 -152t-49 -220q0 -131 64.5 -205.5t177.5 -74.5q98 0 174 51z" />
    <glyph glyph-name="R" unicode="R" horiz-adv-x="613" 
d="M500 0l-83 333q-27 -3 -55 -3h-224l-70 -330h-22l151 714h224q100 0 151.5 -43.5t51.5 -127.5q0 -82 -48 -135.5t-138 -70.5l85 -337h-23zM367 351q110 0 172 50.5t62 140.5q0 151 -182 151h-204l-73 -342h225z" />
    <glyph glyph-name="S" unicode="S" horiz-adv-x="604" 
d="M295 366q-83 18 -122.5 59t-39.5 109q0 92 64 145t176 53q97 0 152.5 -42t72.5 -129l-21 -4q-18 81 -67 117.5t-138 36.5q-103 0 -160 -46t-57 -129q0 -60 34.5 -96t108.5 -52l90 -19q79 -17 117 -59.5t38 -112.5q0 -100 -69.5 -156.5t-192.5 -56.5q-110 0 -169.5 47
t-61.5 137h20q4 -81 57.5 -122t154.5 -41q113 0 175.5 50t62.5 141q0 63 -33 99.5t-103 51.5z" />
    <glyph glyph-name="T" unicode="T" horiz-adv-x="570" 
d="M234 0l147 693h-254l4 21h530l-4 -21h-254l-147 -693h-22z" />
    <glyph glyph-name="U" unicode="U" horiz-adv-x="670" 
d="M673 714h22l-95 -448q-23 -108 -58.5 -168.5t-90.5 -87t-138 -26.5q-220 0 -220 195q0 47 12 101l92 434h22l-93 -439q-11 -53 -11 -94q0 -176 200 -176q80 0 130.5 27t82 85.5t52.5 157.5z" />
    <glyph glyph-name="V" unicode="V" horiz-adv-x="613" 
d="M253 0l-116 714h23l111 -688l402 688h26l-419 -714h-27z" />
    <glyph glyph-name="W" unicode="W" horiz-adv-x="868" 
d="M580 0l-42 681l-330 -681h-26l-41 714h22l37 -682l332 679h25l41 -681l328 684h23l-343 -714h-26z" />
    <glyph glyph-name="X" unicode="X" horiz-adv-x="599" 
d="M512 0l-179 354l-324 -354h-29l343 374l-173 340h26l162 -323l296 323h29l-315 -343l190 -371h-26z" />
    <glyph glyph-name="Y" unicode="Y" horiz-adv-x="557" 
d="M228 0l65 309l-157 405h24l147 -381l310 381h26l-327 -403l-66 -311h-22z" />
    <glyph glyph-name="Z" unicode="Z" horiz-adv-x="579" 
d="M3 0l4 19l595 674h-450l4 21h479l-4 -19l-595 -674h462l-11 -21h-484z" />
    <glyph glyph-name="bracketleft" unicode="[" horiz-adv-x="253" 
d="M14 -124l182 858h158l-5 -20h-137l-173 -818h137l-5 -20h-157z" />
    <glyph glyph-name="backslash" unicode="\" horiz-adv-x="275" 
d="M200 0l-69 734h20l69 -734h-20z" />
    <glyph glyph-name="bracketright" unicode="]" horiz-adv-x="253" 
d="M-51 -124l5 20h137l173 818h-137l5 20h157l-182 -858h-158z" />
    <glyph glyph-name="asciicircum" unicode="^" horiz-adv-x="592" 
d="M520 311l-116 371l-274 -371h-24l290 392h21l124 -392h-21z" />
    <glyph glyph-name="underscore" unicode="_" horiz-adv-x="500" 
d="M-70 -143l4 20h500l-4 -20h-500z" />
    <glyph glyph-name="grave" unicode="`" horiz-adv-x="542" 
d="M390 585l-90 129h24l87 -129h-21z" />
    <glyph glyph-name="a" unicode="a" horiz-adv-x="511" 
d="M379 0l22 104q-34 -56 -90 -86t-125 -30q-74 0 -112 34.5t-38 100.5q0 90 72.5 136.5t222.5 51.5l115 4l3 15q8 40 8 63q0 59 -36 86.5t-116 27.5q-71 0 -113 -23t-63 -75l-20 3q21 59 69.5 87t128.5 28q86 0 128 -32.5t42 -99.5q0 -25 -8 -67l-69 -328h-21zM442 296
l-112 -4q-142 -5 -206.5 -45.5t-64.5 -123.5q0 -58 32 -86.5t98 -28.5q88 0 150 49.5t81 136.5z" />
    <glyph glyph-name="b" unicode="b" horiz-adv-x="567" 
d="M35 0l151 714h21l-69 -326q41 71 94 105t122 34q88 0 136 -53.5t48 -151.5q0 -90 -35.5 -166.5t-100 -124t-144.5 -47.5q-73 0 -119.5 36t-57.5 101l-25 -121h-21zM105 233q-8 -35 -8 -71q0 -43 14 -76q17 -40 55.5 -61t93.5 -21q68 0 126 40.5t94 113.5t36 163
q0 91 -41.5 138.5t-121.5 47.5q-97 0 -165 -77q-53 -61 -73 -153z" />
    <glyph glyph-name="c" unicode="c" horiz-adv-x="533" 
d="M482 168q-27 -93 -81 -138.5t-139 -45.5q-97 0 -149 56.5t-52 162.5q0 88 34 161.5t96 118t140 44.5q76 0 122 -44t53 -121l-20 -3q-7 72 -47.5 110t-108.5 38q-67 0 -123 -38t-90 -108t-34 -159q0 -97 45.5 -147.5t133.5 -50.5q78 0 126 40t73 124h21z" />
    <glyph glyph-name="d" unicode="d" horiz-adv-x="567" 
d="M432 0l26 123q-41 -71 -94 -105t-122 -34q-88 0 -136 53.5t-48 151.5q0 90 35.5 166.5t100 124t144.5 47.5q73 0 119.5 -36t57.5 -101l68 324h21l-151 -714h-21zM491 278q8 35 8 71q0 43 -14 76q-17 40 -55.5 61t-93.5 21q-68 0 -126 -40.5t-94 -113.5t-36 -163
q0 -91 41.5 -138.5t121.5 -47.5q97 0 164 77q54 62 74 153z" />
    <glyph glyph-name="e" unicode="e" horiz-adv-x="533" 
d="M467 122q-53 -138 -206 -138q-99 0 -150.5 56t-51.5 165q0 87 33 160.5t94 117.5t137 44q83 0 133 -56t50 -150q0 -35 -5 -65l-1 -6h-418q-2 -24 -2 -45q0 -100 46 -150.5t137 -50.5q132 0 183 118h21zM482 269q4 24 4 51q0 85 -45 136t-120 51q-58 0 -107.5 -29t-84 -83
t-45.5 -126h398z" />
    <glyph glyph-name="f" unicode="f" horiz-adv-x="301" 
d="M61 0l104 491h-79l4 20h79l16 74q15 70 51.5 103.5t97.5 33.5q35 0 64 -11l-7 -19q-24 10 -58 10q-53 0 -83 -28t-44 -91l-16 -72h159l-4 -20h-159l-104 -491h-21z" />
    <glyph glyph-name="g" unicode="g" horiz-adv-x="567" 
d="M463 148q-41 -71 -94 -105.5t-123 -34.5q-88 0 -136 51t-48 145q0 85 35 158.5t99 119t142 45.5q74 0 120.5 -36t56.5 -100l25 120h21l-108 -511q-23 -108 -81 -156.5t-164 -48.5q-180 0 -183 139h19q5 -62 44 -90.5t122 -28.5q67 0 111 19.5t71 60.5t41 108zM491 279
q8 37 8 71q0 45 -14 76q-36 81 -147 81q-67 0 -125 -38.5t-93.5 -107.5t-35.5 -155q0 -87 42 -132.5t121 -45.5q96 0 165 78q57 65 74 148z" />
    <glyph glyph-name="h" unicode="h" horiz-adv-x="542" 
d="M410 0l68 321q7 31 7 60q0 61 -32 93.5t-93 32.5q-42 0 -85.5 -16t-78.5 -45q-29 -24 -41 -40.5t-20 -40t-17 -68.5l-63 -297h-21l151 714h21l-62 -295q44 52 101.5 80t118.5 28q68 0 105 -37.5t37 -106.5q0 -32 -7 -63l-68 -320h-21z" />
    <glyph glyph-name="i" unicode="i" horiz-adv-x="169" 
d="M34 0l108 511h21l-108 -511h-21zM166 622l19 92h21l-19 -92h-21z" />
    <glyph glyph-name="j" unicode="j" horiz-adv-x="169" 
d="M142 511h21l-120 -567q-15 -69 -44 -99.5t-81 -30.5q-22 0 -45 6t-39 15l9 18q35 -19 75 -19q42 0 66.5 24.5t36.5 81.5zM166 622l19 92h21l-19 -92h-21z" />
    <glyph glyph-name="k" unicode="k" horiz-adv-x="477" 
d="M404 0l-138 326l-169 -128l-42 -198h-21l151 714h21l-103 -488l380 286h31l-232 -174l145 -338h-23z" />
    <glyph glyph-name="l" unicode="l" horiz-adv-x="169" 
d="M34 0l151 714h21l-151 -714h-21z" />
    <glyph glyph-name="m" unicode="m" horiz-adv-x="842" 
d="M710 0l68 321q7 31 7 64q0 59 -29 90.5t-83 31.5q-80 0 -147 -64q-29 -27 -42.5 -55t-26.5 -87l-64 -301h-21l68 321q7 29 7 64q0 59 -29 90.5t-83 31.5q-80 0 -147 -64q-29 -27 -42.5 -55t-26.5 -87l-64 -301h-21l108 511h21l-19 -92q40 52 90.5 80t104.5 28
q57 0 91 -33.5t38 -94.5q35 57 92.5 92.5t116.5 35.5q61 0 95 -38t34 -105q0 -33 -7 -64l-68 -320h-21z" />
    <glyph glyph-name="n" unicode="n" horiz-adv-x="542" 
d="M410 0l68 321q7 31 7 60q0 61 -32 93.5t-93 32.5q-42 0 -85.5 -16t-78.5 -45q-29 -24 -41 -40.5t-20 -40t-17 -68.5l-63 -297h-21l108 511h21l-19 -92q44 52 101.5 80t118.5 28q68 0 105 -37.5t37 -106.5q0 -32 -7 -63l-68 -320h-21z" />
    <glyph glyph-name="o" unicode="o" horiz-adv-x="565" 
d="M256 -16q-94 0 -145 57.5t-51 163.5q0 89 34.5 162t98 116.5t143.5 43.5q94 0 145 -57.5t51 -163.5q0 -89 -34.5 -162t-98 -116.5t-143.5 -43.5zM257 4q70 0 127.5 37.5t91.5 106.5t34 158q0 97 -45 149t-130 52q-70 0 -127.5 -37.5t-91.5 -106.5t-34 -158q0 -97 45 -149
t130 -52z" />
    <glyph glyph-name="p" unicode="p" horiz-adv-x="567" 
d="M-7 -194l149 705h21l-26 -123q41 71 94 105t122 34q88 0 136 -54t48 -152q0 -89 -35.5 -165.5t-100 -124t-144.5 -47.5q-73 0 -119.5 36t-57.5 101l-66 -315h-21zM104 233q-8 -35 -8 -71q0 -43 14 -76q17 -40 55.5 -61t93.5 -21q68 0 126 40.5t94 113.5t36 163
q0 91 -41.5 138.5t-121.5 47.5q-95 0 -164 -77q-54 -62 -74 -153z" />
    <glyph glyph-name="q" unicode="q" horiz-adv-x="567" 
d="M391 -194l67 317q-41 -71 -94 -105t-122 -34q-88 0 -136 53.5t-48 151.5q0 90 35.5 166.5t100 124t144.5 47.5q73 0 119.5 -36t57.5 -101l25 121h21l-149 -705h-21zM491 278q8 35 8 71q0 43 -14 76q-17 40 -55.5 61t-93.5 21q-68 0 -126 -40.5t-94 -113.5t-36 -163
q0 -91 41.5 -138.5t121.5 -47.5q97 0 164 77q54 62 74 153z" />
    <glyph glyph-name="r" unicode="r" horiz-adv-x="330" 
d="M34 0l108 511h21l-19 -90q44 47 95.5 72.5t102.5 25.5q27 0 39 -4l-6 -20q-16 3 -34 3q-34 0 -65 -10.5t-66 -33.5q-34 -22 -49 -39.5t-24 -42.5t-18 -71l-64 -301h-21z" />
    <glyph glyph-name="s" unicode="s" horiz-adv-x="497" 
d="M457 399q-11 56 -50 82t-113 26q-81 0 -124.5 -31.5t-43.5 -90.5q0 -44 27.5 -68.5t91.5 -36.5l67 -13q60 -12 91.5 -44.5t31.5 -83.5q0 -71 -53.5 -113t-143.5 -42q-93 0 -144.5 39.5t-51.5 110.5h20q2 -63 47 -96.5t127 -33.5q83 0 130 35.5t47 98.5q0 88 -106 109
l-62 12q-74 14 -107.5 44t-33.5 81q0 67 51 105t141 38q158 0 181 -125z" />
    <glyph glyph-name="t" unicode="t" horiz-adv-x="318" 
d="M259 7q-49 -18 -86 -18q-47 0 -73.5 25t-26.5 71q0 14 5 39l78 367h-79l4 20h79l30 144h21l-30 -144h173l-4 -20h-173l-77 -364q-5 -28 -5 -40q0 -38 20.5 -58t60.5 -20q32 0 77 18z" />
    <glyph glyph-name="u" unicode="u" horiz-adv-x="532" 
d="M397 0l19 92q-42 -52 -98 -80t-116 -28q-66 0 -102 37.5t-36 105.5q0 33 7 64l68 320h21l-68 -321q-7 -29 -7 -61q0 -61 31.5 -93t90.5 -32q41 0 83 16t76 45q27 24 39 40.5t19.5 40t17.5 68.5l63 297h21l-108 -511h-21z" />
    <glyph glyph-name="v" unicode="v" horiz-adv-x="467" 
d="M179 0l-101 511h22l95 -484l308 484h22l-324 -511h-22z" />
    <glyph glyph-name="w" unicode="w" horiz-adv-x="679" 
d="M451 0l-49 486l-255 -486h-24l-42 511h21l39 -486l254 484h23l50 -485l245 487h21l-258 -511h-25z" />
    <glyph glyph-name="x" unicode="x" horiz-adv-x="441" 
d="M376 0l-139 253l-242 -253h-25l258 269l-133 242h22l125 -228l218 228h25l-234 -244l147 -267h-22z" />
    <glyph glyph-name="y" unicode="y" horiz-adv-x="467" 
d="M195 8l-117 503h22l109 -479l294 479h22l-369 -603q-37 -61 -62 -81.5t-64 -20.5q-27 0 -59 12l6 17q29 -10 55 -10q31 0 51.5 17.5t55.5 74.5z" />
    <glyph glyph-name="z" unicode="z" horiz-adv-x="440" 
d="M-9 0l4 16l429 475h-328l4 20h356l-4 -16l-429 -475h350l-8 -20h-374z" />
    <glyph glyph-name="braceleft" unicode="{" horiz-adv-x="259" 
d="M119 -124q-30 0 -47.5 17t-17.5 47q0 11 3 25l55 260q2 11 2 22q0 48 -56 48h-5l5 20h5q36 0 56 16.5t28 53.5l55 260q10 47 34 68t66 21h59l-5 -20h-62q-57 0 -71 -66l-55 -261q-8 -38 -23.5 -57.5t-43.5 -26.5q16 -4 25.5 -19t9.5 -37q0 -10 -3 -24l-55 -261
q-2 -12 -2 -18q0 -22 12 -35t33 -13h62l-5 -20h-59z" />
    <glyph glyph-name="bar" unicode="|" horiz-adv-x="193" 
d="M21 -124l183 858h20l-183 -858h-20z" />
    <glyph glyph-name="braceright" unicode="}" horiz-adv-x="259" 
d="M-51 -124l5 20h62q57 0 71 66l55 261q8 38 23.5 57.5t43.5 26.5q-16 4 -25.5 19t-9.5 37q0 11 3 24l55 261q2 12 2 18q0 22 -12 35t-33 13h-62l5 20h59q30 0 47.5 -17t17.5 -47q0 -11 -3 -25l-55 -260q-2 -11 -2 -22q0 -48 56 -48h5l-5 -20h-5q-36 0 -56 -16.5t-28 -53.5
l-55 -260q-10 -47 -34 -68t-66 -21h-59z" />
    <glyph glyph-name="asciitilde" unicode="~" horiz-adv-x="592" 
d="M568 403q-12 -68 -45.5 -104t-83.5 -36q-29 0 -54 13.5t-57 46.5q-46 47 -67 60.5t-48 13.5q-42 0 -69.5 -31t-37.5 -89h-21q12 68 45.5 104t83.5 36q29 0 54 -13.5t57 -46.5q46 -47 67 -60.5t48 -13.5q42 0 69.5 31t37.5 89h21z" />
    <glyph glyph-name="uni00A0" unicode="&#xa0;" horiz-adv-x="225" 
 />
    <glyph glyph-name="exclamdown" unicode="&#xa1;" horiz-adv-x="192" 
d="M2 -203l115 536h20l-113 -536h-22zM132 414l21 97h22l-21 -97h-22z" />
    <glyph glyph-name="cent" unicode="&#xa2;" horiz-adv-x="592" 
d="M249 -9l17 79q-81 10 -124.5 65.5t-43.5 150.5q0 87 35.5 160.5t100.5 118.5t146 45l18 81h20l-18 -82q71 -6 114 -50t49 -114l-20 -3q-7 67 -44.5 105t-102.5 43l-107 -504h19q77 0 127.5 36t76.5 111h21q-55 -166 -225 -166h-23l-16 -76h-20zM376 591
q-70 -1 -128 -39.5t-93 -108.5t-35 -157t38.5 -138t111.5 -60z" />
    <glyph glyph-name="sterling" unicode="&#xa3;" horiz-adv-x="592" 
d="M49 0l3 21q86 73 122.5 136t36.5 142q0 26 -1 35h-96l4 19h90q0 12 -8 68q-5 33 -5 72q0 102 55 159.5t153 57.5q75 0 116.5 -36t59.5 -117l-22 -5q-17 76 -52 106.5t-103 30.5q-88 0 -136 -51t-48 -145q0 -32 5 -72q7 -51 8 -68h227l-4 -19h-221q1 -13 1 -34
q0 -80 -34.5 -144t-116.5 -135h413l-8 -21h-439z" />
    <glyph glyph-name="currency" unicode="&#xa4;" horiz-adv-x="592" 
d="M468 97l-38 58q-58 -42 -134 -42q-91 0 -138 56l-67 -62l-13 16l68 62q-30 47 -30 120q0 64 23 120.5t63 93.5l-35 56l17 12l33 -55q61 46 139 46q48 0 85.5 -17t59.5 -49l73 67l13 -16l-75 -69q24 -46 24 -108q0 -65 -23.5 -123t-65.5 -95l38 -59zM297 133q62 0 111 31
t77.5 88.5t28.5 133.5q0 83 -41.5 127.5t-117.5 44.5q-62 0 -111 -31t-77.5 -88.5t-28.5 -133.5q0 -83 41.5 -127.5t117.5 -44.5z" />
    <glyph glyph-name="yen" unicode="&#xa5;" horiz-adv-x="592" 
d="M306 189l-40 -189h-22l40 189h-198l4 19h198l22 103l-16 38h-174l4 19h162l-138 323h23l153 -359l305 359h26l-276 -323h168l-4 -19h-180l-30 -36l-23 -105h203l-4 -19h-203z" />
    <glyph glyph-name="brokenbar" unicode="&#xa6;" horiz-adv-x="193" 
d="M21 -124l75 353h20l-75 -353h-20zM133 398l71 336h20l-71 -336h-20z" />
    <glyph glyph-name="section" unicode="&#xa7;" horiz-adv-x="488" 
d="M209 175q-70 22 -101.5 55.5t-31.5 83.5q0 63 37.5 103t101.5 45q-87 39 -87 124q0 69 49.5 107.5t137.5 38.5q171 0 198 -143l-20 -4q-14 65 -58 96t-121 31q-80 0 -122 -32.5t-42 -91.5q0 -85 93 -115l82 -27q70 -23 101 -56t31 -83q0 -59 -37 -99.5t-98 -48.5
q43 -16 66 -50t23 -82q0 -72 -48.5 -110t-139.5 -38q-88 0 -138.5 37.5t-62.5 110.5h20q13 -65 58 -96.5t123 -31.5q166 0 166 127q0 91 -90 120zM243 185q24 -10 58 -10q59 0 96.5 36t37.5 94q0 45 -27 73.5t-91 49.5l-27 9q-29 10 -58 10q-59 0 -96.5 -36t-37.5 -94
q0 -45 27 -73.5t91 -49.5z" />
    <glyph glyph-name="dieresis" unicode="&#xa8;" horiz-adv-x="542" 
d="M277 622l19 92h21l-19 -92h-21zM425 622l19 92h21l-19 -92h-21z" />
    <glyph glyph-name="copyright" unicode="&#xa9;" horiz-adv-x="780" 
d="M426 20q88 0 160 41.5t114.5 119t42.5 176.5q0 98 -38.5 174t-110.5 119.5t-168 43.5q-89 0 -161 -42t-115 -119t-43 -176q0 -98 39 -174t111.5 -119.5t168.5 -43.5zM426 0q-99 0 -176 43.5t-121 124.5t-44 189q0 99 42 180t120 129t179 48q99 0 175.5 -43.5t120 -124.5
t43.5 -189q0 -100 -42 -181t-119.5 -128.5t-177.5 -47.5zM589 288q-9 -65 -50.5 -101.5t-106.5 -36.5q-82 0 -129.5 55.5t-47.5 150.5q0 97 48 152.5t132 55.5q59 0 97 -31.5t52 -92.5l-20 -4q-13 54 -45 81t-84 27q-75 0 -116.5 -49.5t-41.5 -138.5q0 -88 41 -137t114 -49
q56 0 92.5 31t44.5 87h20z" />
    <glyph glyph-name="ordfeminine" unicode="&#xaa;" horiz-adv-x="409" 
d="M362 343l15 73q-64 -82 -160 -82q-55 0 -83.5 25.5t-28.5 74.5q0 68 53.5 102t167.5 39l86 3l2 11q5 33 5 45q0 42 -26 60.5t-85 18.5q-55 0 -85.5 -16.5t-45.5 -53.5l-19 3q17 44 54 65t96 21q67 0 98.5 -24t31.5 -74q0 -22 -6 -49l-50 -242h-20zM408 560l-83 -3
q-103 -4 -151 -33.5t-48 -88.5q0 -82 92 -82q69 0 114 36t61 103z" />
    <glyph glyph-name="guillemotleft" unicode="&#xab;" horiz-adv-x="433" 
d="M152 34l-99 222l194 222h25l-196 -224l98 -220h-22zM325 34l-99 222l194 222h25l-196 -224l98 -220h-22z" />
    <glyph glyph-name="logicalnot" unicode="&#xac;" horiz-adv-x="592" 
d="M477 161l51 238h-427l4 20h448l-55 -258h-21z" />
    <glyph glyph-name="uni00AD" unicode="&#xad;" horiz-adv-x="387" 
d="M70 278l4 20h287l-4 -20h-287z" />
    <glyph glyph-name="registered" unicode="&#xae;" horiz-adv-x="468" 
d="M304 314q-88 0 -141 56t-53 148q0 57 24 103t68 73.5t102 27.5q88 0 141 -56t53 -148q0 -57 -24 -103t-68 -73.5t-102 -27.5zM304 333q49 0 88.5 22.5t62.5 64.5t23 98q0 84 -47.5 134.5t-126.5 50.5q-49 0 -88.5 -22.5t-62.5 -64.5t-23 -98q0 -84 47.5 -134.5
t126.5 -50.5zM369 421l-43 86h-72v-86h-20v202h87q30 0 47.5 -15.5t17.5 -41.5q0 -20 -10.5 -34.5t-29.5 -20.5l46 -90h-23zM319 526q46 0 46 39t-46 39h-65v-78h65z" />
    <glyph glyph-name="macron" unicode="&#xaf;" horiz-adv-x="542" 
d="M256 633l4 19h232l-4 -19h-232z" />
    <glyph glyph-name="degree" unicode="&#xb0;" horiz-adv-x="306" 
d="M364 583q0 -55 -36.5 -91t-91.5 -36t-91.5 36t-36.5 91t36.5 91t91.5 36t91.5 -36t36.5 -91zM344 583q0 47 -30.5 77.5t-77.5 30.5q-46 0 -77 -30.5t-31 -77.5q0 -46 31 -77t77 -31q47 0 77.5 31t30.5 77z" />
    <glyph glyph-name="plusminus" unicode="&#xb1;" horiz-adv-x="592" 
d="M32 0l5 20h446l-5 -20h-446zM267 103l48 227h-213l5 20h213l48 226h21l-48 -226h212l-5 -20h-212l-48 -227h-21z" />
    <glyph glyph-name="uni00B2" unicode="&#xb2;" 
d="M98 294l5 21l137 98q66 47 97.5 76.5t43.5 53.5t12 54q0 43 -24 66.5t-68 23.5t-75.5 -22.5t-45.5 -64.5l-19 5q13 47 51.5 74.5t89.5 27.5q53 0 83 -29t30 -79q0 -37 -15.5 -65t-51.5 -60.5t-104 -81.5l-108 -78h228l-9 -20h-257z" />
    <glyph glyph-name="uni00B3" unicode="&#xb3;" 
d="M217 493l4 20h46q56 0 87.5 25t31.5 68q0 39 -25 60t-71 21q-90 0 -118 -82l-21 3q14 47 50.5 73t90.5 26t85 -26t31 -72q0 -40 -25 -69.5t-63 -35.5q28 -7 43.5 -31t15.5 -60q0 -59 -38.5 -95.5t-100.5 -36.5q-59 0 -94.5 29t-35.5 77v7h20q0 -42 29.5 -67.5t79.5 -25.5
q54 0 86 30.5t32 82.5q0 38 -19.5 58.5t-56.5 20.5h-64z" />
    <glyph glyph-name="acute" unicode="&#xb4;" horiz-adv-x="542" 
d="M247 585l141 129h29l-144 -129h-26z" />
    <glyph glyph-name="mu" unicode="&#xb5;" horiz-adv-x="536" 
d="M401 0l19 92q-42 -52 -98 -80t-115 -28q-56 0 -90 27.5t-42 79.5l-60 -285h-21l149 705h21l-68 -321q-7 -29 -7 -61q0 -61 31.5 -93t90.5 -32q41 0 83 16t76 45q27 24 39 40.5t19.5 40t17.5 68.5l63 297h21l-108 -511h-21z" />
    <glyph glyph-name="paragraph" unicode="&#xb6;" horiz-adv-x="510" 
d="M341 -139l177 833h-137l-177 -833h-20l101 478h-11q-86 0 -131 41t-45 120q0 103 77 158.5t220 55.5h147l-181 -853h-20z" />
    <glyph glyph-name="periodcentered" unicode="&#xb7;" horiz-adv-x="162" 
d="M116 325l21 97h22l-21 -97h-22z" />
    <glyph glyph-name="cedilla" unicode="&#xb8;" horiz-adv-x="542" 
d="M148 -158q32 -5 59 -5q48 0 69 10.5t21 33.5t-20 34t-63 11h-14l41 76l17 -2l-29 -57q88 -4 88 -61q0 -64 -110 -64q-38 0 -63 6z" />
    <glyph glyph-name="uni00B9" unicode="&#xb9;" 
d="M235 294l79 375l-121 -56l-8 18l135 63h21l-85 -400h-21z" />
    <glyph glyph-name="ordmasculine" unicode="&#xba;" horiz-adv-x="435" 
d="M259 334q-71 0 -110.5 42.5t-39.5 119.5q0 65 26.5 118.5t75 85.5t110.5 32q71 0 110.5 -42.5t39.5 -119.5q0 -65 -26.5 -118.5t-75 -85.5t-110.5 -32zM260 353q53 0 96 26.5t68.5 76t25.5 113.5q0 71 -33.5 107.5t-96.5 36.5q-53 0 -96 -26.5t-68.5 -76t-25.5 -113.5
q0 -71 33.5 -107.5t96.5 -36.5z" />
    <glyph glyph-name="guillemotright" unicode="&#xbb;" horiz-adv-x="433" 
d="M17 34l196 224l-98 220h22l99 -222l-194 -222h-25zM190 34l196 224l-98 220h22l99 -222l-194 -222h-25z" />
    <glyph glyph-name="onequarter" unicode="&#xbc;" horiz-adv-x="879" 
d="M198 0l500 691h25l-500 -691h-25zM711 0l24 113h-209l3 16l266 271h22l-57 -267h49l-9 -20h-44l-24 -113h-21zM789 367l-230 -234h180zM189 291l79 375l-121 -56l-8 18l135 63h21l-85 -400h-21z" />
    <glyph glyph-name="onehalf" unicode="&#xbd;" horiz-adv-x="879" 
d="M164 0l500 691h25l-500 -691h-25zM506 0l5 21l137 98q66 47 97.5 76.5t43.5 53.5t12 54q0 43 -24 66.5t-68 23.5t-75.5 -22.5t-45.5 -64.5l-19 5q13 47 51.5 74.5t89.5 27.5q53 0 83 -29t30 -79q0 -37 -15.5 -65t-51.5 -60.5t-104 -81.5l-108 -78h228l-9 -20h-257z
M189 291l79 375l-121 -56l-8 18l135 63h21l-85 -400h-21z" />
    <glyph glyph-name="threequarters" unicode="&#xbe;" horiz-adv-x="879" 
d="M251 0l500 691h25l-500 -691h-25zM711 0l24 113h-209l3 16l266 271h22l-57 -267h49l-9 -20h-44l-24 -113h-21zM789 367l-230 -234h180zM213 490l4 20h46q56 0 87.5 25t31.5 68q0 39 -25 60t-71 21q-90 0 -118 -82l-21 3q14 47 50.5 73t90.5 26t85 -26t31 -72
q0 -40 -25 -69.5t-63 -35.5q28 -7 43.5 -31t15.5 -60q0 -59 -38.5 -95.5t-100.5 -36.5q-59 0 -94.5 29t-35.5 77v7h20q0 -42 29.5 -67.5t79.5 -25.5q54 0 86 30.5t32 82.5q0 38 -19.5 58.5t-56.5 20.5h-64z" />
    <glyph glyph-name="questiondown" unicode="&#xbf;" horiz-adv-x="489" 
d="M411 -39q-52 -174 -222 -174q-83 0 -130.5 41.5t-47.5 113.5q0 57 32.5 106t107.5 105q53 40 78.5 65.5t37.5 49.5t19 57l2 10h22l-1 -6q-6 -40 -21.5 -68.5t-45.5 -57.5t-85 -70q-64 -48 -94 -94t-30 -98q0 -64 41.5 -98.5t116.5 -34.5q76 0 124.5 38.5t75.5 119.5z
M306 414l21 97h22l-21 -97h-22z" />
    <glyph glyph-name="Agrave" unicode="&#xc0;" horiz-adv-x="637" 
d="M548 0l-42 236h-353l-141 -236h-26l431 714h25l130 -714h-24zM425 689l-260 -432h337zM460 774l-89 123h25l86 -123h-22z" />
    <glyph glyph-name="Aacute" unicode="&#xc1;" horiz-adv-x="637" 
d="M548 0l-42 236h-353l-141 -236h-26l431 714h25l130 -714h-24zM425 689l-260 -432h337zM425 774h-28l140 123h31z" />
    <glyph glyph-name="Acircumflex" unicode="&#xc2;" horiz-adv-x="637" 
d="M548 0l-42 236h-353l-141 -236h-26l431 714h25l130 -714h-24zM425 689l-260 -432h337zM539 774l-73 105l-119 -105h-27l137 123h22l83 -123h-23z" />
    <glyph glyph-name="Atilde" unicode="&#xc3;" horiz-adv-x="637" 
d="M548 0l-42 236h-353l-141 -236h-26l431 714h25l130 -714h-24zM425 689l-260 -432h337zM614 865q-7 -40 -31.5 -62.5t-61.5 -22.5q-19 0 -34.5 7t-37.5 24q-30 23 -42.5 29.5t-28.5 6.5q-58 0 -73 -65h-21q7 40 31.5 62.5t61.5 22.5q19 0 34.5 -7t37.5 -24
q30 -23 42.5 -29.5t28.5 -6.5q58 0 73 65h21z" />
    <glyph glyph-name="Adieresis" unicode="&#xc4;" horiz-adv-x="637" 
d="M548 0l-42 236h-353l-141 -236h-26l431 714h25l130 -714h-24zM425 689l-260 -432h337zM354 790l19 92h22l-19 -92h-22zM513 790l19 92h22l-19 -92h-22z" />
    <glyph glyph-name="Aring" unicode="&#xc5;" horiz-adv-x="637" 
d="M548 0l-42 236h-353l-141 -236h-26l421 699q-25 8 -39 29t-14 51q0 39 22.5 62t60.5 23t60.5 -23t22.5 -62q0 -37 -20.5 -60t-55.5 -25l128 -694h-24zM425 689l-260 -432h337zM437 714q29 0 45.5 17t16.5 48q0 30 -16.5 47.5t-45.5 17.5t-45.5 -17t-16.5 -48
q0 -30 16.5 -47.5t45.5 -17.5z" />
    <glyph glyph-name="AE" unicode="&#xc6;" horiz-adv-x="1002" 
d="M501 0l56 267h-328l-215 -267h-28l576 714h499l-4 -21h-387l-67 -314h367l-4 -21h-367l-72 -337h394l-8 -21h-412zM648 693h-76l-326 -405h316z" />
    <glyph glyph-name="Ccedilla" unicode="&#xc7;" horiz-adv-x="685" 
d="M650 230q-24 -118 -102.5 -182t-196.5 -64q-129 0 -198.5 77t-69.5 220q0 90 25 171t73 144t115.5 99.5t147.5 36.5q68 0 120 -26t83.5 -76.5t38.5 -122.5l-21 -3q-11 100 -68 153.5t-153 53.5q-94 0 -170.5 -53t-122 -151t-45.5 -223q0 -137 62.5 -208t182.5 -71
q109 0 181.5 58t96.5 167h21zM251 -173q32 -5 61 -5q49 0 70.5 10.5t21.5 34.5t-22.5 35.5t-69.5 11.5h-15l51 89l18 -3l-38 -69q96 -4 96 -62q0 -34 -27.5 -50t-85.5 -16q-37 0 -64 6z" />
    <glyph glyph-name="Egrave" unicode="&#xc8;" horiz-adv-x="573" 
d="M46 0l151 714h435l-4 -21h-413l-67 -314h393l-4 -21h-393l-72 -337h420l-8 -21h-438zM445 774l-89 123h25l86 -123h-22z" />
    <glyph glyph-name="Eacute" unicode="&#xc9;" horiz-adv-x="573" 
d="M46 0l151 714h435l-4 -21h-413l-67 -314h393l-4 -21h-393l-72 -337h420l-8 -21h-438zM410 774h-28l140 123h31z" />
    <glyph glyph-name="Ecircumflex" unicode="&#xca;" horiz-adv-x="573" 
d="M46 0l151 714h435l-4 -21h-413l-67 -314h393l-4 -21h-393l-72 -337h420l-8 -21h-438zM524 774l-73 105l-119 -105h-27l137 123h22l83 -123h-23z" />
    <glyph glyph-name="Edieresis" unicode="&#xcb;" horiz-adv-x="573" 
d="M46 0l151 714h435l-4 -21h-413l-67 -314h393l-4 -21h-393l-72 -337h420l-8 -21h-438zM339 790l19 92h22l-19 -92h-22zM498 790l19 92h22l-19 -92h-22z" />
    <glyph glyph-name="Igrave" unicode="&#xcc;" horiz-adv-x="194" 
d="M46 0l151 714h22l-151 -714h-22zM239 774l-89 123h25l86 -123h-22z" />
    <glyph glyph-name="Iacute" unicode="&#xcd;" horiz-adv-x="194" 
d="M46 0l151 714h22l-151 -714h-22zM204 774h-28l140 123h31z" />
    <glyph glyph-name="Icircumflex" unicode="&#xce;" horiz-adv-x="194" 
d="M46 0l151 714h22l-151 -714h-22zM318 774l-73 105l-119 -105h-27l137 123h22l83 -123h-23z" />
    <glyph glyph-name="Idieresis" unicode="&#xcf;" horiz-adv-x="194" 
d="M46 0l151 714h22l-151 -714h-22zM133 790l19 92h22l-19 -92h-22zM292 790l19 92h22l-19 -92h-22z" />
    <glyph glyph-name="Eth" unicode="&#xd0;" horiz-adv-x="693" 
d="M52 0l75 358h-81l4 21h82l71 335h192q137 0 211.5 -76.5t74.5 -216.5q0 -122 -49 -217t-140.5 -149.5t-213.5 -54.5h-226zM283 21q107 0 192 48.5t134 139t49 210.5q0 134 -68 204t-199 70h-171l-67 -314h227l-4 -21h-227l-71 -337h205z" />
    <glyph glyph-name="Ntilde" unicode="&#xd1;" horiz-adv-x="674" 
d="M522 0l-309 684l-145 -684h-22l151 714h25l310 -687l145 687h22l-151 -714h-26zM634 865q-7 -40 -31.5 -62.5t-61.5 -22.5q-19 0 -34.5 7t-37.5 24q-30 23 -42.5 29.5t-28.5 6.5q-58 0 -73 -65h-21q7 40 31.5 62.5t61.5 22.5q19 0 34.5 -7t37.5 -24q30 -23 42.5 -29.5
t28.5 -6.5q58 0 73 65h21z" />
    <glyph glyph-name="Ograve" unicode="&#xd2;" horiz-adv-x="736" 
d="M345 -16q-123 0 -193 80t-70 221q0 88 26.5 167.5t77 142.5t121.5 100t154 37q123 0 193 -80t70 -221q0 -88 -26.5 -167.5t-77 -142.5t-121.5 -100t-154 -37zM347 5q95 0 175.5 54t129.5 152t49 220q0 131 -64.5 205.5t-177.5 74.5q-95 0 -175.5 -54t-129.5 -152
t-49 -220q0 -131 64.5 -205.5t177.5 -74.5zM489 774l-89 123h25l86 -123h-22z" />
    <glyph glyph-name="Oacute" unicode="&#xd3;" horiz-adv-x="736" 
d="M345 -16q-123 0 -193 80t-70 221q0 88 26.5 167.5t77 142.5t121.5 100t154 37q123 0 193 -80t70 -221q0 -88 -26.5 -167.5t-77 -142.5t-121.5 -100t-154 -37zM347 5q95 0 175.5 54t129.5 152t49 220q0 131 -64.5 205.5t-177.5 74.5q-95 0 -175.5 -54t-129.5 -152
t-49 -220q0 -131 64.5 -205.5t177.5 -74.5zM454 774h-28l140 123h31z" />
    <glyph glyph-name="Ocircumflex" unicode="&#xd4;" horiz-adv-x="736" 
d="M345 -16q-123 0 -193 80t-70 221q0 88 26.5 167.5t77 142.5t121.5 100t154 37q123 0 193 -80t70 -221q0 -88 -26.5 -167.5t-77 -142.5t-121.5 -100t-154 -37zM347 5q95 0 175.5 54t129.5 152t49 220q0 131 -64.5 205.5t-177.5 74.5q-95 0 -175.5 -54t-129.5 -152
t-49 -220q0 -131 64.5 -205.5t177.5 -74.5zM568 774l-73 105l-119 -105h-27l137 123h22l83 -123h-23z" />
    <glyph glyph-name="Otilde" unicode="&#xd5;" horiz-adv-x="736" 
d="M345 -16q-123 0 -193 80t-70 221q0 88 26.5 167.5t77 142.5t121.5 100t154 37q123 0 193 -80t70 -221q0 -88 -26.5 -167.5t-77 -142.5t-121.5 -100t-154 -37zM347 5q95 0 175.5 54t129.5 152t49 220q0 131 -64.5 205.5t-177.5 74.5q-95 0 -175.5 -54t-129.5 -152
t-49 -220q0 -131 64.5 -205.5t177.5 -74.5zM643 865q-7 -40 -31.5 -62.5t-61.5 -22.5q-19 0 -34.5 7t-37.5 24q-30 23 -42.5 29.5t-28.5 6.5q-58 0 -73 -65h-21q7 40 31.5 62.5t61.5 22.5q19 0 34.5 -7t37.5 -24q30 -23 42.5 -29.5t28.5 -6.5q58 0 73 65h21z" />
    <glyph glyph-name="Odieresis" unicode="&#xd6;" horiz-adv-x="736" 
d="M345 -16q-123 0 -193 80t-70 221q0 88 26.5 167.5t77 142.5t121.5 100t154 37q123 0 193 -80t70 -221q0 -88 -26.5 -167.5t-77 -142.5t-121.5 -100t-154 -37zM347 5q95 0 175.5 54t129.5 152t49 220q0 131 -64.5 205.5t-177.5 74.5q-95 0 -175.5 -54t-129.5 -152
t-49 -220q0 -131 64.5 -205.5t177.5 -74.5zM383 790l19 92h22l-19 -92h-22zM542 790l19 92h22l-19 -92h-22z" />
    <glyph glyph-name="multiply" unicode="&#xd7;" horiz-adv-x="592" 
d="M328 325l-216 -178l-12 16l216 178l-142 181l15 13l142 -181l223 183l12 -16l-222 -183l139 -177l-15 -13z" />
    <glyph glyph-name="Oslash" unicode="&#xd8;" horiz-adv-x="736" 
d="M67 -22l79 93q-64 78 -64 214q0 88 26.5 167.5t77 142.5t121.5 100t154 37q116 0 186 -73l77 91l15 -14l-79 -92q64 -81 64 -213q0 -88 -26.5 -167.5t-77 -142.5t-121.5 -100t-154 -37q-116 0 -185 71l-78 -91zM631 641q-64 70 -172 70q-95 0 -175.5 -54t-129.5 -152
t-49 -220q0 -121 56 -196zM175 73q63 -68 172 -68q95 0 175.5 54t129.5 152t49 220q0 121 -56 194z" />
    <glyph glyph-name="Ugrave" unicode="&#xd9;" horiz-adv-x="670" 
d="M673 714h22l-95 -448q-23 -108 -58.5 -168.5t-90.5 -87t-138 -26.5q-220 0 -220 195q0 47 12 101l92 434h22l-93 -439q-11 -53 -11 -94q0 -176 200 -176q80 0 130.5 27t82 85.5t52.5 157.5zM477 774l-89 123h25l86 -123h-22z" />
    <glyph glyph-name="Uacute" unicode="&#xda;" horiz-adv-x="670" 
d="M673 714h22l-95 -448q-23 -108 -58.5 -168.5t-90.5 -87t-138 -26.5q-220 0 -220 195q0 47 12 101l92 434h22l-93 -439q-11 -53 -11 -94q0 -176 200 -176q80 0 130.5 27t82 85.5t52.5 157.5zM442 774h-28l140 123h31z" />
    <glyph glyph-name="Ucircumflex" unicode="&#xdb;" horiz-adv-x="670" 
d="M673 714h22l-95 -448q-23 -108 -58.5 -168.5t-90.5 -87t-138 -26.5q-220 0 -220 195q0 47 12 101l92 434h22l-93 -439q-11 -53 -11 -94q0 -176 200 -176q80 0 130.5 27t82 85.5t52.5 157.5zM556 774l-73 105l-119 -105h-27l137 123h22l83 -123h-23z" />
    <glyph glyph-name="Udieresis" unicode="&#xdc;" horiz-adv-x="670" 
d="M673 714h22l-95 -448q-23 -108 -58.5 -168.5t-90.5 -87t-138 -26.5q-220 0 -220 195q0 47 12 101l92 434h22l-93 -439q-11 -53 -11 -94q0 -176 200 -176q80 0 130.5 27t82 85.5t52.5 157.5zM371 790l19 92h22l-19 -92h-22zM530 790l19 92h22l-19 -92h-22z" />
    <glyph glyph-name="Yacute" unicode="&#xdd;" horiz-adv-x="557" 
d="M228 0l65 309l-157 405h24l147 -381l310 381h26l-327 -403l-66 -311h-22zM385 774h-28l140 123h31z" />
    <glyph glyph-name="Thorn" unicode="&#xde;" horiz-adv-x="598" 
d="M101 158l-33 -158h-22l151 714h22l-31 -146h176q106 0 160.5 -46.5t54.5 -136.5q0 -104 -75.5 -165.5t-203.5 -61.5h-199zM303 179q117 0 185 55t68 150q0 163 -196 163h-176l-78 -368h197z" />
    <glyph glyph-name="germandbls" unicode="&#xdf;" horiz-adv-x="551" 
d="M145 38q56 -32 133 -32q61 0 108.5 24.5t75 71t27.5 108.5q0 79 -49.5 121t-141.5 42h-63l4 20h41q104 0 162.5 47t58.5 129q0 64 -37 98.5t-107 34.5q-154 0 -191 -173l-112 -529h-20l114 540q19 89 73 135.5t138 46.5q78 0 121 -40t43 -113q0 -70 -40.5 -119.5
t-112.5 -67.5q64 -8 102.5 -54.5t38.5 -115.5q0 -65 -28.5 -116t-81.5 -80.5t-122 -29.5q-39 0 -77 9t-67 26z" />
    <glyph glyph-name="agrave" unicode="&#xe0;" horiz-adv-x="511" 
d="M379 0l22 104q-34 -56 -90 -86t-125 -30q-74 0 -112 34.5t-38 100.5q0 90 72.5 136.5t222.5 51.5l115 4l3 15q8 40 8 63q0 59 -36 86.5t-116 27.5q-71 0 -113 -23t-63 -75l-20 3q21 59 69.5 87t128.5 28q86 0 128 -32.5t42 -99.5q0 -25 -8 -67l-69 -328h-21zM442 296
l-112 -4q-142 -5 -206.5 -45.5t-64.5 -123.5q0 -58 32 -86.5t98 -28.5q88 0 150 49.5t81 136.5zM353 585l-90 129h24l87 -129h-21z" />
    <glyph glyph-name="aacute" unicode="&#xe1;" horiz-adv-x="511" 
d="M379 0l22 104q-34 -56 -90 -86t-125 -30q-74 0 -112 34.5t-38 100.5q0 90 72.5 136.5t222.5 51.5l115 4l3 15q8 40 8 63q0 59 -36 86.5t-116 27.5q-71 0 -113 -23t-63 -75l-20 3q21 59 69.5 87t128.5 28q86 0 128 -32.5t42 -99.5q0 -25 -8 -67l-69 -328h-21zM442 296
l-112 -4q-142 -5 -206.5 -45.5t-64.5 -123.5q0 -58 32 -86.5t98 -28.5q88 0 150 49.5t81 136.5zM291 585l141 129h29l-144 -129h-26z" />
    <glyph glyph-name="acircumflex" unicode="&#xe2;" horiz-adv-x="511" 
d="M379 0l22 104q-34 -56 -90 -86t-125 -30q-74 0 -112 34.5t-38 100.5q0 90 72.5 136.5t222.5 51.5l115 4l3 15q8 40 8 63q0 59 -36 86.5t-116 27.5q-71 0 -113 -23t-63 -75l-20 3q21 59 69.5 87t128.5 28q86 0 128 -32.5t42 -99.5q0 -25 -8 -67l-69 -328h-21zM442 296
l-112 -4q-142 -5 -206.5 -45.5t-64.5 -123.5q0 -58 32 -86.5t98 -28.5q88 0 150 49.5t81 136.5zM433 585l-74 111l-120 -111h-26l138 129h20l84 -129h-22z" />
    <glyph glyph-name="atilde" unicode="&#xe3;" horiz-adv-x="511" 
d="M379 0l22 104q-34 -56 -90 -86t-125 -30q-74 0 -112 34.5t-38 100.5q0 90 72.5 136.5t222.5 51.5l115 4l3 15q8 40 8 63q0 59 -36 86.5t-116 27.5q-71 0 -113 -23t-63 -75l-20 3q21 59 69.5 87t128.5 28q86 0 128 -32.5t42 -99.5q0 -25 -8 -67l-69 -328h-21zM442 296
l-112 -4q-142 -5 -206.5 -45.5t-64.5 -123.5q0 -58 32 -86.5t98 -28.5q88 0 150 49.5t81 136.5zM506 689q-7 -39 -31 -62t-58 -23q-19 0 -35 7.5t-38 26.5q-25 21 -38.5 27.5t-28.5 6.5q-26 0 -45 -18t-24 -48h-20q7 39 31 62t58 23q19 0 35 -7.5t38 -26.5
q25 -21 38.5 -27.5t28.5 -6.5q26 0 45 18t24 48h20z" />
    <glyph glyph-name="adieresis" unicode="&#xe4;" horiz-adv-x="511" 
d="M379 0l22 104q-34 -56 -90 -86t-125 -30q-74 0 -112 34.5t-38 100.5q0 90 72.5 136.5t222.5 51.5l115 4l3 15q8 40 8 63q0 59 -36 86.5t-116 27.5q-71 0 -113 -23t-63 -75l-20 3q21 59 69.5 87t128.5 28q86 0 128 -32.5t42 -99.5q0 -25 -8 -67l-69 -328h-21zM442 296
l-112 -4q-142 -5 -206.5 -45.5t-64.5 -123.5q0 -58 32 -86.5t98 -28.5q88 0 150 49.5t81 136.5zM256 622l19 92h21l-19 -92h-21zM404 622l19 92h21l-19 -92h-21z" />
    <glyph glyph-name="aring" unicode="&#xe5;" horiz-adv-x="511" 
d="M379 0l22 104q-34 -56 -90 -86t-125 -30q-74 0 -112 34.5t-38 100.5q0 90 72.5 136.5t222.5 51.5l115 4l3 15q8 40 8 63q0 59 -36 86.5t-116 27.5q-71 0 -113 -23t-63 -75l-20 3q21 59 69.5 87t128.5 28q86 0 128 -32.5t42 -99.5q0 -25 -8 -67l-69 -328h-21zM442 296
l-112 -4q-142 -5 -206.5 -45.5t-64.5 -123.5q0 -58 32 -86.5t98 -28.5q88 0 150 49.5t81 136.5zM418 675q0 -39 -22.5 -62t-60.5 -23t-60.5 23t-22.5 62t22.5 62t60.5 23t60.5 -23t22.5 -62zM398 675q0 31 -17 48.5t-46 17.5q-30 0 -46.5 -17.5t-16.5 -48.5t17 -48.5
t46 -17.5q30 0 46.5 17.5t16.5 48.5z" />
    <glyph glyph-name="ae" unicode="&#xe6;" horiz-adv-x="893" 
d="M827 122q-26 -70 -75.5 -104t-125.5 -34q-93 0 -143 51.5t-54 151.5q-20 -93 -86 -146t-161 -53q-72 0 -109 34.5t-37 100.5q0 91 71 137t218 51l113 4l3 15q7 35 7 64q0 59 -35.5 86t-112.5 27q-69 0 -109.5 -23.5t-61.5 -74.5l-20 3q21 59 68 87t125 28q165 0 165 -133
q0 -4 -0.5 -8.5t-0.5 -9.5q34 70 93 110.5t128 40.5q81 0 130 -56t49 -150q0 -35 -5 -65l-1 -6h-411q-2 -16 -2 -45q0 -99 46 -150t135 -51q66 0 108 28t70 90h21zM434 296l-110 -4q-139 -5 -202 -45.5t-63 -123.5q0 -115 125 -115q88 0 148.5 49.5t79.5 136.5zM842 269
q4 24 4 51q0 85 -43.5 136t-117.5 51q-56 0 -105 -29t-83 -83t-45 -126h390z" />
    <glyph glyph-name="ccedilla" unicode="&#xe7;" horiz-adv-x="533" 
d="M482 168q-27 -93 -81 -138.5t-139 -45.5q-97 0 -149 56.5t-52 162.5q0 88 34 161.5t96 118t140 44.5q76 0 122 -44t53 -121l-20 -3q-7 72 -47.5 110t-108.5 38q-67 0 -123 -38t-90 -108t-34 -159q0 -97 45.5 -147.5t133.5 -50.5q78 0 126 40t73 124h21zM154 -158
q32 -5 59 -5q48 0 69 10.5t21 33.5t-20 34t-63 11h-14l41 76l17 -2l-29 -57q88 -4 88 -61q0 -64 -110 -64q-38 0 -63 6z" />
    <glyph glyph-name="egrave" unicode="&#xe8;" horiz-adv-x="533" 
d="M467 122q-53 -138 -206 -138q-99 0 -150.5 56t-51.5 165q0 87 33 160.5t94 117.5t137 44q83 0 133 -56t50 -150q0 -35 -5 -65l-1 -6h-418q-2 -24 -2 -45q0 -100 46 -150.5t137 -50.5q132 0 183 118h21zM482 269q4 24 4 51q0 85 -45 136t-120 51q-58 0 -107.5 -29t-84 -83
t-45.5 -126h398zM355 585l-90 129h24l87 -129h-21z" />
    <glyph glyph-name="eacute" unicode="&#xe9;" horiz-adv-x="533" 
d="M467 122q-53 -138 -206 -138q-99 0 -150.5 56t-51.5 165q0 87 33 160.5t94 117.5t137 44q83 0 133 -56t50 -150q0 -35 -5 -65l-1 -6h-418q-2 -24 -2 -45q0 -100 46 -150.5t137 -50.5q132 0 183 118h21zM482 269q4 24 4 51q0 85 -45 136t-120 51q-58 0 -107.5 -29t-84 -83
t-45.5 -126h398zM293 585l141 129h29l-144 -129h-26z" />
    <glyph glyph-name="ecircumflex" unicode="&#xea;" horiz-adv-x="533" 
d="M467 122q-53 -138 -206 -138q-99 0 -150.5 56t-51.5 165q0 87 33 160.5t94 117.5t137 44q83 0 133 -56t50 -150q0 -35 -5 -65l-1 -6h-418q-2 -24 -2 -45q0 -100 46 -150.5t137 -50.5q132 0 183 118h21zM482 269q4 24 4 51q0 85 -45 136t-120 51q-58 0 -107.5 -29t-84 -83
t-45.5 -126h398zM435 585l-74 111l-120 -111h-26l138 129h20l84 -129h-22z" />
    <glyph glyph-name="edieresis" unicode="&#xeb;" horiz-adv-x="533" 
d="M467 122q-53 -138 -206 -138q-99 0 -150.5 56t-51.5 165q0 87 33 160.5t94 117.5t137 44q83 0 133 -56t50 -150q0 -35 -5 -65l-1 -6h-418q-2 -24 -2 -45q0 -100 46 -150.5t137 -50.5q132 0 183 118h21zM482 269q4 24 4 51q0 85 -45 136t-120 51q-58 0 -107.5 -29t-84 -83
t-45.5 -126h398zM258 622l19 92h21l-19 -92h-21zM406 622l19 92h21l-19 -92h-21z" />
    <glyph glyph-name="igrave" unicode="&#xec;" horiz-adv-x="169" 
d="M34 0l108 511h21l-108 -511h-21zM188 585l-90 129h24l87 -129h-21z" />
    <glyph glyph-name="iacute" unicode="&#xed;" horiz-adv-x="169" 
d="M34 0l108 511h21l-108 -511h-21zM126 585l141 129h29l-144 -129h-26z" />
    <glyph glyph-name="icircumflex" unicode="&#xee;" horiz-adv-x="169" 
d="M34 0l108 511h21l-108 -511h-21zM268 585l-74 111l-120 -111h-26l138 129h20l84 -129h-22z" />
    <glyph glyph-name="idieresis" unicode="&#xef;" horiz-adv-x="169" 
d="M34 0l108 511h21l-108 -511h-21zM91 622l19 92h21l-19 -92h-21zM239 622l19 92h21l-19 -92h-21z" />
    <glyph glyph-name="eth" unicode="&#xf0;" horiz-adv-x="565" 
d="M395 654q67 -50 103 -139t36 -202q0 -132 -57 -217q-37 -54 -92.5 -83t-121.5 -29q-94 0 -148.5 55t-54.5 149q0 78 35 146.5t98 112t138 43.5q65 0 112 -29t68 -82q-21 184 -130 263l-87 -75l-13 15l83 72q-64 37 -146 46l1 17q92 -7 159 -51l87 75l13 -15zM513 280
q0 89 -47 139.5t-131 50.5q-67 0 -124.5 -35.5t-93 -100.5t-35.5 -144q0 -86 48.5 -136t133.5 -50q67 0 123.5 34.5t91 98t34.5 143.5z" />
    <glyph glyph-name="ntilde" unicode="&#xf1;" horiz-adv-x="542" 
d="M410 0l68 321q7 31 7 60q0 61 -32 93.5t-93 32.5q-42 0 -85.5 -16t-78.5 -45q-29 -24 -41 -40.5t-20 -40t-17 -68.5l-63 -297h-21l108 511h21l-19 -92q44 52 101.5 80t118.5 28q68 0 105 -37.5t37 -106.5q0 -32 -7 -63l-68 -320h-21zM551 689q-7 -39 -31 -62t-58 -23
q-19 0 -35 7.5t-38 26.5q-25 21 -38.5 27.5t-28.5 6.5q-26 0 -45 -18t-24 -48h-20q7 39 31 62t58 23q19 0 35 -7.5t38 -26.5q25 -21 38.5 -27.5t28.5 -6.5q26 0 45 18t24 48h20z" />
    <glyph glyph-name="ograve" unicode="&#xf2;" horiz-adv-x="565" 
d="M256 -16q-94 0 -145 57.5t-51 163.5q0 89 34.5 162t98 116.5t143.5 43.5q94 0 145 -57.5t51 -163.5q0 -89 -34.5 -162t-98 -116.5t-143.5 -43.5zM257 4q70 0 127.5 37.5t91.5 106.5t34 158q0 97 -45 149t-130 52q-70 0 -127.5 -37.5t-91.5 -106.5t-34 -158q0 -97 45 -149
t130 -52zM368 585l-90 129h24l87 -129h-21z" />
    <glyph glyph-name="oacute" unicode="&#xf3;" horiz-adv-x="565" 
d="M256 -16q-94 0 -145 57.5t-51 163.5q0 89 34.5 162t98 116.5t143.5 43.5q94 0 145 -57.5t51 -163.5q0 -89 -34.5 -162t-98 -116.5t-143.5 -43.5zM257 4q70 0 127.5 37.5t91.5 106.5t34 158q0 97 -45 149t-130 52q-70 0 -127.5 -37.5t-91.5 -106.5t-34 -158q0 -97 45 -149
t130 -52zM306 585l141 129h29l-144 -129h-26z" />
    <glyph glyph-name="ocircumflex" unicode="&#xf4;" horiz-adv-x="565" 
d="M256 -16q-94 0 -145 57.5t-51 163.5q0 89 34.5 162t98 116.5t143.5 43.5q94 0 145 -57.5t51 -163.5q0 -89 -34.5 -162t-98 -116.5t-143.5 -43.5zM257 4q70 0 127.5 37.5t91.5 106.5t34 158q0 97 -45 149t-130 52q-70 0 -127.5 -37.5t-91.5 -106.5t-34 -158q0 -97 45 -149
t130 -52zM448 585l-74 111l-120 -111h-26l138 129h20l84 -129h-22z" />
    <glyph glyph-name="otilde" unicode="&#xf5;" horiz-adv-x="565" 
d="M256 -16q-94 0 -145 57.5t-51 163.5q0 89 34.5 162t98 116.5t143.5 43.5q94 0 145 -57.5t51 -163.5q0 -89 -34.5 -162t-98 -116.5t-143.5 -43.5zM257 4q70 0 127.5 37.5t91.5 106.5t34 158q0 97 -45 149t-130 52q-70 0 -127.5 -37.5t-91.5 -106.5t-34 -158q0 -97 45 -149
t130 -52zM521 689q-7 -39 -31 -62t-58 -23q-19 0 -35 7.5t-38 26.5q-25 21 -38.5 27.5t-28.5 6.5q-26 0 -45 -18t-24 -48h-20q7 39 31 62t58 23q19 0 35 -7.5t38 -26.5q25 -21 38.5 -27.5t28.5 -6.5q26 0 45 18t24 48h20z" />
    <glyph glyph-name="odieresis" unicode="&#xf6;" horiz-adv-x="565" 
d="M256 -16q-94 0 -145 57.5t-51 163.5q0 89 34.5 162t98 116.5t143.5 43.5q94 0 145 -57.5t51 -163.5q0 -89 -34.5 -162t-98 -116.5t-143.5 -43.5zM257 4q70 0 127.5 37.5t91.5 106.5t34 158q0 97 -45 149t-130 52q-70 0 -127.5 -37.5t-91.5 -106.5t-34 -158q0 -97 45 -149
t130 -52zM271 622l19 92h21l-19 -92h-21zM419 622l19 92h21l-19 -92h-21z" />
    <glyph glyph-name="divide" unicode="&#xf7;" horiz-adv-x="592" 
d="M113 330l5 20h426l-5 -20h-426zM347 480l19 87h22l-19 -87h-22zM269 113l19 87h22l-19 -87h-22z" />
    <glyph glyph-name="oslash" unicode="&#xf8;" horiz-adv-x="565" 
d="M40 -27l65 75q-45 56 -45 157q0 89 34.5 162t98 116.5t143.5 43.5q90 0 142 -55l68 78l14 -13l-70 -79q42 -55 42 -152q0 -89 -34.5 -162t-98 -116.5t-143.5 -43.5q-87 0 -138 49l-64 -73zM464 456q-45 51 -129 51q-70 0 -127.5 -37.5t-91.5 -106.5t-34 -158
q0 -90 38 -140zM133 50q44 -46 124 -46q70 0 127.5 37.5t91.5 106.5t34 158q0 83 -35 135z" />
    <glyph glyph-name="ugrave" unicode="&#xf9;" horiz-adv-x="532" 
d="M397 0l19 92q-42 -52 -98 -80t-116 -28q-66 0 -102 37.5t-36 105.5q0 33 7 64l68 320h21l-68 -321q-7 -29 -7 -61q0 -61 31.5 -93t90.5 -32q41 0 83 16t76 45q27 24 39 40.5t19.5 40t17.5 68.5l63 297h21l-108 -511h-21zM367 585l-90 129h24l87 -129h-21z" />
    <glyph glyph-name="uacute" unicode="&#xfa;" horiz-adv-x="532" 
d="M397 0l19 92q-42 -52 -98 -80t-116 -28q-66 0 -102 37.5t-36 105.5q0 33 7 64l68 320h21l-68 -321q-7 -29 -7 -61q0 -61 31.5 -93t90.5 -32q41 0 83 16t76 45q27 24 39 40.5t19.5 40t17.5 68.5l63 297h21l-108 -511h-21zM305 585l141 129h29l-144 -129h-26z" />
    <glyph glyph-name="ucircumflex" unicode="&#xfb;" horiz-adv-x="532" 
d="M397 0l19 92q-42 -52 -98 -80t-116 -28q-66 0 -102 37.5t-36 105.5q0 33 7 64l68 320h21l-68 -321q-7 -29 -7 -61q0 -61 31.5 -93t90.5 -32q41 0 83 16t76 45q27 24 39 40.5t19.5 40t17.5 68.5l63 297h21l-108 -511h-21zM447 585l-74 111l-120 -111h-26l138 129h20
l84 -129h-22z" />
    <glyph glyph-name="udieresis" unicode="&#xfc;" horiz-adv-x="532" 
d="M397 0l19 92q-42 -52 -98 -80t-116 -28q-66 0 -102 37.5t-36 105.5q0 33 7 64l68 320h21l-68 -321q-7 -29 -7 -61q0 -61 31.5 -93t90.5 -32q41 0 83 16t76 45q27 24 39 40.5t19.5 40t17.5 68.5l63 297h21l-108 -511h-21zM270 622l19 92h21l-19 -92h-21zM418 622l19 92h21
l-19 -92h-21z" />
    <glyph glyph-name="yacute" unicode="&#xfd;" horiz-adv-x="467" 
d="M195 8l-117 503h22l109 -479l294 479h22l-369 -603q-37 -61 -62 -81.5t-64 -20.5q-27 0 -59 12l6 17q29 -10 55 -10q31 0 51.5 17.5t55.5 74.5zM274 585l141 129h29l-144 -129h-26z" />
    <glyph glyph-name="thorn" unicode="&#xfe;" horiz-adv-x="567" 
d="M-7 -194l192 908h21l-69 -326q41 71 94 105t122 34q88 0 136 -54t48 -152q0 -89 -35.5 -165.5t-100 -124t-144.5 -47.5q-73 0 -119.5 36t-57.5 101l-66 -315h-21zM104 233q-8 -35 -8 -71q0 -43 14 -76q17 -40 55.5 -61t93.5 -21q68 0 126 40.5t94 113.5t36 163
q0 91 -41.5 138.5t-121.5 47.5q-95 0 -164 -77q-54 -62 -74 -153z" />
    <glyph glyph-name="ydieresis" unicode="&#xff;" horiz-adv-x="467" 
d="M195 8l-117 503h22l109 -479l294 479h22l-369 -603q-37 -61 -62 -81.5t-64 -20.5q-27 0 -59 12l6 17q29 -10 55 -10q31 0 51.5 17.5t55.5 74.5zM239 622l19 92h21l-19 -92h-21zM387 622l19 92h21l-19 -92h-21z" />
    <glyph glyph-name="Amacron" unicode="&#x100;" horiz-adv-x="637" 
d="M548 0l-42 236h-353l-141 -236h-26l431 714h25l130 -714h-24zM425 689l-260 -432h337zM312 798l5 20h268l-5 -20h-268z" />
    <glyph glyph-name="amacron" unicode="&#x101;" horiz-adv-x="511" 
d="M379 0l22 104q-34 -56 -90 -86t-125 -30q-74 0 -112 34.5t-38 100.5q0 90 72.5 136.5t222.5 51.5l115 4l3 15q8 40 8 63q0 59 -36 86.5t-116 27.5q-71 0 -113 -23t-63 -75l-20 3q21 59 69.5 87t128.5 28q86 0 128 -32.5t42 -99.5q0 -25 -8 -67l-69 -328h-21zM442 296
l-112 -4q-142 -5 -206.5 -45.5t-64.5 -123.5q0 -58 32 -86.5t98 -28.5q88 0 150 49.5t81 136.5zM227 633l4 19h232l-4 -19h-232z" />
    <glyph glyph-name="Abreve" unicode="&#x102;" horiz-adv-x="637" 
d="M548 0l-42 236h-353l-141 -236h-26l431 714h25l130 -714h-24zM425 689l-260 -432h337zM566 882q-10 -53 -41.5 -80.5t-82.5 -27.5q-47 0 -74.5 22.5t-27.5 60.5q0 12 3 25h21q-2 -10 -2 -22q0 -32 21 -49t59 -17q42 0 67.5 21.5t35.5 66.5h21z" />
    <glyph glyph-name="abreve" unicode="&#x103;" horiz-adv-x="511" 
d="M379 0l22 104q-34 -56 -90 -86t-125 -30q-74 0 -112 34.5t-38 100.5q0 90 72.5 136.5t222.5 51.5l115 4l3 15q8 40 8 63q0 59 -36 86.5t-116 27.5q-71 0 -113 -23t-63 -75l-20 3q21 59 69.5 87t128.5 28q86 0 128 -32.5t42 -99.5q0 -25 -8 -67l-69 -328h-21zM442 296
l-112 -4q-142 -5 -206.5 -45.5t-64.5 -123.5q0 -58 32 -86.5t98 -28.5q88 0 150 49.5t81 136.5zM460 708q-21 -113 -124 -113q-47 0 -74.5 23.5t-27.5 63.5q0 13 3 26h20q-2 -12 -2 -24q0 -33 21.5 -51.5t60.5 -18.5q42 0 67.5 23t35.5 71h20z" />
    <glyph glyph-name="Aogonek" unicode="&#x104;" horiz-adv-x="637" 
d="M548 0l-42 236h-353l-141 -236h-26l431 714h25l130 -714h-24zM425 689l-260 -432h337zM552 -166q-12 -2 -24 -2q-33 0 -51 16.5t-18 45.5q0 64 97 116l16 -10q-48 -26 -70 -51.5t-22 -54.5q0 -42 50 -42q12 0 26 2z" />
    <glyph glyph-name="aogonek" unicode="&#x105;" horiz-adv-x="511" 
d="M379 0l22 104q-34 -56 -90 -86t-125 -30q-74 0 -112 34.5t-38 100.5q0 90 72.5 136.5t222.5 51.5l115 4l3 15q8 40 8 63q0 59 -36 86.5t-116 27.5q-71 0 -113 -23t-63 -75l-20 3q21 59 69.5 87t128.5 28q86 0 128 -32.5t42 -99.5q0 -25 -8 -67l-69 -328h-21zM442 296
l-112 -4q-142 -5 -206.5 -45.5t-64.5 -123.5q0 -58 32 -86.5t98 -28.5q88 0 150 49.5t81 136.5zM382 -161q-10 -2 -24 -2q-31 0 -48.5 15.5t-17.5 44.5q0 31 22.5 58t70.5 53l15 -8q-46 -26 -66.5 -50.5t-20.5 -51.5q0 -42 49 -42q14 0 24 2z" />
    <glyph glyph-name="Cacute" unicode="&#x106;" horiz-adv-x="685" 
d="M650 230q-24 -118 -102.5 -182t-196.5 -64q-129 0 -198.5 77t-69.5 220q0 90 25 171t73 144t115.5 99.5t147.5 36.5q68 0 120 -26t83.5 -76.5t38.5 -122.5l-21 -3q-11 100 -68 153.5t-153 53.5q-94 0 -170.5 -53t-122 -151t-45.5 -223q0 -137 62.5 -208t182.5 -71
q109 0 181.5 58t96.5 167h21zM437 774h-28l140 123h31z" />
    <glyph glyph-name="cacute" unicode="&#x107;" horiz-adv-x="533" 
d="M482 168q-27 -93 -81 -138.5t-139 -45.5q-97 0 -149 56.5t-52 162.5q0 88 34 161.5t96 118t140 44.5q76 0 122 -44t53 -121l-20 -3q-7 72 -47.5 110t-108.5 38q-67 0 -123 -38t-90 -108t-34 -159q0 -97 45.5 -147.5t133.5 -50.5q78 0 126 40t73 124h21zM301 585l141 129
h29l-144 -129h-26z" />
    <glyph glyph-name="Ccircumflex" unicode="&#x108;" horiz-adv-x="685" 
d="M650 230q-24 -118 -102.5 -182t-196.5 -64q-129 0 -198.5 77t-69.5 220q0 90 25 171t73 144t115.5 99.5t147.5 36.5q68 0 120 -26t83.5 -76.5t38.5 -122.5l-21 -3q-11 100 -68 153.5t-153 53.5q-94 0 -170.5 -53t-122 -151t-45.5 -223q0 -137 62.5 -208t182.5 -71
q109 0 181.5 58t96.5 167h21zM551 774l-73 105l-119 -105h-27l137 123h22l83 -123h-23z" />
    <glyph glyph-name="ccircumflex" unicode="&#x109;" horiz-adv-x="533" 
d="M482 168q-27 -93 -81 -138.5t-139 -45.5q-97 0 -149 56.5t-52 162.5q0 88 34 161.5t96 118t140 44.5q76 0 122 -44t53 -121l-20 -3q-7 72 -47.5 110t-108.5 38q-67 0 -123 -38t-90 -108t-34 -159q0 -97 45.5 -147.5t133.5 -50.5q78 0 126 40t73 124h21zM443 585l-74 111
l-120 -111h-26l138 129h20l84 -129h-22z" />
    <glyph glyph-name="Cdotaccent" unicode="&#x10a;" horiz-adv-x="685" 
d="M650 230q-24 -118 -102.5 -182t-196.5 -64q-129 0 -198.5 77t-69.5 220q0 90 25 171t73 144t115.5 99.5t147.5 36.5q68 0 120 -26t83.5 -76.5t38.5 -122.5l-21 -3q-11 100 -68 153.5t-153 53.5q-94 0 -170.5 -53t-122 -151t-45.5 -223q0 -137 62.5 -208t182.5 -71
q109 0 181.5 58t96.5 167h21zM446 790l19 92h22l-19 -92h-22z" />
    <glyph glyph-name="cdotaccent" unicode="&#x10b;" horiz-adv-x="533" 
d="M482 168q-27 -93 -81 -138.5t-139 -45.5q-97 0 -149 56.5t-52 162.5q0 88 34 161.5t96 118t140 44.5q76 0 122 -44t53 -121l-20 -3q-7 72 -47.5 110t-108.5 38q-67 0 -123 -38t-90 -108t-34 -159q0 -97 45.5 -147.5t133.5 -50.5q78 0 126 40t73 124h21zM340 622l19 92h21
l-19 -92h-21z" />
    <glyph glyph-name="Ccaron" unicode="&#x10c;" horiz-adv-x="685" 
d="M650 230q-24 -118 -102.5 -182t-196.5 -64q-129 0 -198.5 77t-69.5 220q0 90 25 171t73 144t115.5 99.5t147.5 36.5q68 0 120 -26t83.5 -76.5t38.5 -122.5l-21 -3q-11 100 -68 153.5t-153 53.5q-94 0 -170.5 -53t-122 -151t-45.5 -223q0 -137 62.5 -208t182.5 -71
q109 0 181.5 58t96.5 167h21zM464 774h-22l-83 123h23l73 -105l119 105h27z" />
    <glyph glyph-name="ccaron" unicode="&#x10d;" horiz-adv-x="533" 
d="M482 168q-27 -93 -81 -138.5t-139 -45.5q-97 0 -149 56.5t-52 162.5q0 88 34 161.5t96 118t140 44.5q76 0 122 -44t53 -121l-20 -3q-7 72 -47.5 110t-108.5 38q-67 0 -123 -38t-90 -108t-34 -159q0 -97 45.5 -147.5t133.5 -50.5q78 0 126 40t73 124h21zM334 585l-84 129
h22l74 -111l120 111h26l-138 -129h-20z" />
    <glyph glyph-name="Dcaron" unicode="&#x10e;" horiz-adv-x="687" 
d="M46 0l151 714h192q137 0 211.5 -76.5t74.5 -216.5q0 -122 -49 -217t-140.5 -149.5t-213.5 -54.5h-226zM277 21q107 0 192 48.5t134 139t49 210.5q0 134 -68 204t-199 70h-171l-142 -672h205zM433 774h-22l-83 123h23l73 -105l119 105h27z" />
    <glyph glyph-name="dcaron" unicode="&#x10f;" horiz-adv-x="567" 
d="M432 0l26 123q-41 -71 -94 -105t-122 -34q-88 0 -136 53.5t-48 151.5q0 90 35.5 166.5t100 124t144.5 47.5q73 0 119.5 -36t57.5 -101l68 324h21l-151 -714h-21zM491 278q8 35 8 71q0 43 -14 76q-17 40 -55.5 61t-93.5 21q-68 0 -126 -40.5t-94 -113.5t-36 -163
q0 -91 41.5 -138.5t121.5 -47.5q97 0 164 77q54 62 74 153zM635 560l59 154h20l-61 -154h-18z" />
    <glyph glyph-name="Dcroat" unicode="&#x110;" horiz-adv-x="693" 
d="M52 0l75 358h-81l4 21h82l71 335h192q137 0 211.5 -76.5t74.5 -216.5q0 -122 -49 -217t-140.5 -149.5t-213.5 -54.5h-226zM283 21q107 0 192 48.5t134 139t49 210.5q0 134 -68 204t-199 70h-171l-67 -314h227l-4 -21h-227l-71 -337h205z" />
    <glyph glyph-name="dcroat" unicode="&#x111;" horiz-adv-x="577" 
d="M435 0l26 123q-41 -71 -94 -105t-122 -34q-88 0 -136 53.5t-48 151.5q0 86 35.5 159.5t99 118.5t141.5 45q71 0 118 -38t59 -104l49 237h-183l4 19h183l19 88h21l-19 -88h74l-4 -19h-74l-128 -607h-21zM490 258q8 35 8 71q0 43 -14 76q-18 41 -57 64t-92 23
q-66 0 -123.5 -38.5t-93 -108.5t-35.5 -155q0 -91 41.5 -138.5t121.5 -47.5q94 0 164 77q53 57 74 153z" />
    <glyph glyph-name="Emacron" unicode="&#x112;" horiz-adv-x="573" 
d="M46 0l151 714h435l-4 -21h-413l-67 -314h393l-4 -21h-393l-72 -337h420l-8 -21h-438zM297 798l5 20h268l-5 -20h-268z" />
    <glyph glyph-name="emacron" unicode="&#x113;" horiz-adv-x="533" 
d="M467 122q-53 -138 -206 -138q-99 0 -150.5 56t-51.5 165q0 87 33 160.5t94 117.5t137 44q83 0 133 -56t50 -150q0 -35 -5 -65l-1 -6h-418q-2 -24 -2 -45q0 -100 46 -150.5t137 -50.5q132 0 183 118h21zM482 269q4 24 4 51q0 85 -45 136t-120 51q-58 0 -107.5 -29t-84 -83
t-45.5 -126h398zM229 633l4 19h232l-4 -19h-232z" />
    <glyph glyph-name="Ebreve" unicode="&#x114;" horiz-adv-x="573" 
d="M46 0l151 714h435l-4 -21h-413l-67 -314h393l-4 -21h-393l-72 -337h420l-8 -21h-438zM551 882q-10 -53 -41.5 -80.5t-82.5 -27.5q-47 0 -74.5 22.5t-27.5 60.5q0 12 3 25h21q-2 -10 -2 -22q0 -32 21 -49t59 -17q42 0 67.5 21.5t35.5 66.5h21z" />
    <glyph glyph-name="ebreve" unicode="&#x115;" horiz-adv-x="533" 
d="M467 122q-53 -138 -206 -138q-99 0 -150.5 56t-51.5 165q0 87 33 160.5t94 117.5t137 44q83 0 133 -56t50 -150q0 -35 -5 -65l-1 -6h-418q-2 -24 -2 -45q0 -100 46 -150.5t137 -50.5q132 0 183 118h21zM482 269q4 24 4 51q0 85 -45 136t-120 51q-58 0 -107.5 -29t-84 -83
t-45.5 -126h398zM462 708q-21 -113 -124 -113q-47 0 -74.5 23.5t-27.5 63.5q0 13 3 26h20q-2 -12 -2 -24q0 -33 21.5 -51.5t60.5 -18.5q42 0 67.5 23t35.5 71h20z" />
    <glyph glyph-name="Edotaccent" unicode="&#x116;" horiz-adv-x="573" 
d="M46 0l151 714h435l-4 -21h-413l-67 -314h393l-4 -21h-393l-72 -337h420l-8 -21h-438zM419 790l19 92h22l-19 -92h-22z" />
    <glyph glyph-name="edotaccent" unicode="&#x117;" horiz-adv-x="533" 
d="M467 122q-53 -138 -206 -138q-99 0 -150.5 56t-51.5 165q0 87 33 160.5t94 117.5t137 44q83 0 133 -56t50 -150q0 -35 -5 -65l-1 -6h-418q-2 -24 -2 -45q0 -100 46 -150.5t137 -50.5q132 0 183 118h21zM482 269q4 24 4 51q0 85 -45 136t-120 51q-58 0 -107.5 -29t-84 -83
t-45.5 -126h398zM332 622l19 92h21l-19 -92h-21z" />
    <glyph glyph-name="Eogonek" unicode="&#x118;" horiz-adv-x="573" 
d="M46 0l151 714h435l-4 -21h-413l-67 -314h393l-4 -21h-393l-72 -337h420l-8 -21h-438zM464 -166q-12 -2 -24 -2q-33 0 -51 16.5t-18 45.5q0 64 97 116l16 -10q-48 -26 -70 -51.5t-22 -54.5q0 -42 50 -42q12 0 26 2z" />
    <glyph glyph-name="eogonek" unicode="&#x119;" horiz-adv-x="533" 
d="M467 122q-53 -138 -206 -138q-99 0 -150.5 56t-51.5 165q0 87 33 160.5t94 117.5t137 44q83 0 133 -56t50 -150q0 -35 -5 -65l-1 -6h-418q-2 -24 -2 -45q0 -100 46 -150.5t137 -50.5q132 0 183 118h21zM482 269q4 24 4 51q0 85 -45 136t-120 51q-58 0 -107.5 -29t-84 -83
t-45.5 -126h398zM349 -161q-10 -2 -24 -2q-32 0 -49 16t-17 45q0 27 16 52t51 54l26 -4q-72 -47 -72 -100q0 -44 49 -44q14 0 24 2z" />
    <glyph glyph-name="Ecaron" unicode="&#x11a;" horiz-adv-x="573" 
d="M46 0l151 714h435l-4 -21h-413l-67 -314h393l-4 -21h-393l-72 -337h420l-8 -21h-438zM437 774h-22l-83 123h23l73 -105l119 105h27z" />
    <glyph glyph-name="ecaron" unicode="&#x11b;" horiz-adv-x="533" 
d="M467 122q-53 -138 -206 -138q-99 0 -150.5 56t-51.5 165q0 87 33 160.5t94 117.5t137 44q83 0 133 -56t50 -150q0 -35 -5 -65l-1 -6h-418q-2 -24 -2 -45q0 -100 46 -150.5t137 -50.5q132 0 183 118h21zM482 269q4 24 4 51q0 85 -45 136t-120 51q-58 0 -107.5 -29t-84 -83
t-45.5 -126h398zM326 585l-84 129h22l74 -111l120 111h26l-138 -129h-20z" />
    <glyph glyph-name="Gcircumflex" unicode="&#x11c;" horiz-adv-x="687" 
d="M626 311h-217l4 21h239l-56 -264q-44 -39 -109 -61.5t-131 -22.5q-128 0 -200 79.5t-72 221.5q0 124 45 225t127.5 161.5t188.5 60.5q95 0 154 -48.5t77 -141.5l-21 -5q-16 85 -69 129.5t-142 44.5q-94 0 -170.5 -52.5t-121.5 -149t-45 -221.5q0 -136 65.5 -209.5
t186.5 -73.5q61 0 118 19t99 54zM552 774l-73 105l-119 -105h-27l137 123h22l83 -123h-23z" />
    <glyph glyph-name="gcircumflex" unicode="&#x11d;" horiz-adv-x="567" 
d="M463 148q-41 -71 -94 -105.5t-123 -34.5q-88 0 -136 51t-48 145q0 85 35 158.5t99 119t142 45.5q74 0 120.5 -36t56.5 -100l25 120h21l-108 -511q-23 -108 -81 -156.5t-164 -48.5q-180 0 -183 139h19q5 -62 44 -90.5t122 -28.5q67 0 111 19.5t71 60.5t41 108zM491 279
q8 37 8 71q0 45 -14 76q-36 81 -147 81q-67 0 -125 -38.5t-93.5 -107.5t-35.5 -155q0 -87 42 -132.5t121 -45.5q96 0 165 78q57 65 74 148zM454 585l-74 111l-120 -111h-26l138 129h20l84 -129h-22z" />
    <glyph glyph-name="Gbreve" unicode="&#x11e;" horiz-adv-x="687" 
d="M626 311h-217l4 21h239l-56 -264q-44 -39 -109 -61.5t-131 -22.5q-128 0 -200 79.5t-72 221.5q0 124 45 225t127.5 161.5t188.5 60.5q95 0 154 -48.5t77 -141.5l-21 -5q-16 85 -69 129.5t-142 44.5q-94 0 -170.5 -52.5t-121.5 -149t-45 -221.5q0 -136 65.5 -209.5
t186.5 -73.5q61 0 118 19t99 54zM579 882q-10 -53 -41.5 -80.5t-82.5 -27.5q-47 0 -74.5 22.5t-27.5 60.5q0 12 3 25h21q-2 -10 -2 -22q0 -32 21 -49t59 -17q42 0 67.5 21.5t35.5 66.5h21z" />
    <glyph glyph-name="gbreve" unicode="&#x11f;" horiz-adv-x="567" 
d="M463 148q-41 -71 -94 -105.5t-123 -34.5q-88 0 -136 51t-48 145q0 85 35 158.5t99 119t142 45.5q74 0 120.5 -36t56.5 -100l25 120h21l-108 -511q-23 -108 -81 -156.5t-164 -48.5q-180 0 -183 139h19q5 -62 44 -90.5t122 -28.5q67 0 111 19.5t71 60.5t41 108zM491 279
q8 37 8 71q0 45 -14 76q-36 81 -147 81q-67 0 -125 -38.5t-93.5 -107.5t-35.5 -155q0 -87 42 -132.5t121 -45.5q96 0 165 78q57 65 74 148zM481 708q-21 -113 -124 -113q-47 0 -74.5 23.5t-27.5 63.5q0 13 3 26h20q-2 -12 -2 -24q0 -33 21.5 -51.5t60.5 -18.5q42 0 67.5 23
t35.5 71h20z" />
    <glyph glyph-name="Gdotaccent" unicode="&#x120;" horiz-adv-x="687" 
d="M626 311h-217l4 21h239l-56 -264q-44 -39 -109 -61.5t-131 -22.5q-128 0 -200 79.5t-72 221.5q0 124 45 225t127.5 161.5t188.5 60.5q95 0 154 -48.5t77 -141.5l-21 -5q-16 85 -69 129.5t-142 44.5q-94 0 -170.5 -52.5t-121.5 -149t-45 -221.5q0 -136 65.5 -209.5
t186.5 -73.5q61 0 118 19t99 54zM447 790l19 92h22l-19 -92h-22z" />
    <glyph glyph-name="gdotaccent" unicode="&#x121;" horiz-adv-x="567" 
d="M463 148q-41 -71 -94 -105.5t-123 -34.5q-88 0 -136 51t-48 145q0 85 35 158.5t99 119t142 45.5q74 0 120.5 -36t56.5 -100l25 120h21l-108 -511q-23 -108 -81 -156.5t-164 -48.5q-180 0 -183 139h19q5 -62 44 -90.5t122 -28.5q67 0 111 19.5t71 60.5t41 108zM491 279
q8 37 8 71q0 45 -14 76q-36 81 -147 81q-67 0 -125 -38.5t-93.5 -107.5t-35.5 -155q0 -87 42 -132.5t121 -45.5q96 0 165 78q57 65 74 148zM351 622l19 92h21l-19 -92h-21z" />
    <glyph glyph-name="uni0122" unicode="&#x122;" horiz-adv-x="687" 
d="M626 311h-217l4 21h239l-56 -264q-44 -39 -109 -61.5t-131 -22.5q-128 0 -200 79.5t-72 221.5q0 124 45 225t127.5 161.5t188.5 60.5q95 0 154 -48.5t77 -141.5l-21 -5q-16 85 -69 129.5t-142 44.5q-94 0 -170.5 -52.5t-121.5 -149t-45 -221.5q0 -136 65.5 -209.5
t186.5 -73.5q61 0 118 19t99 54zM232 -207l100 133h26l-103 -133h-23z" />
    <glyph glyph-name="uni0123" unicode="&#x123;" horiz-adv-x="567" 
d="M463 148q-41 -71 -94 -105.5t-123 -34.5q-88 0 -136 51t-48 145q0 85 35 158.5t99 119t142 45.5q74 0 120.5 -36t56.5 -100l25 120h21l-108 -511q-23 -108 -81 -156.5t-164 -48.5q-180 0 -183 139h19q5 -62 44 -90.5t122 -28.5q67 0 111 19.5t71 60.5t41 108zM491 279
q8 37 8 71q0 45 -14 76q-36 81 -147 81q-67 0 -125 -38.5t-93.5 -107.5t-35.5 -155q0 -87 42 -132.5t121 -45.5q96 0 165 78q57 65 74 148zM342 584l97 130h21l-94 -130h-24z" />
    <glyph glyph-name="Hcircumflex" unicode="&#x124;" horiz-adv-x="673" 
d="M525 0l76 360h-457l-76 -360h-22l151 714h22l-70 -333h457l70 333h22l-151 -714h-22zM557 774l-73 105l-119 -105h-27l137 123h22l83 -123h-23z" />
    <glyph glyph-name="hcircumflex" unicode="&#x125;" horiz-adv-x="542" 
d="M410 0l68 321q7 31 7 60q0 61 -32 93.5t-93 32.5q-42 0 -85.5 -16t-78.5 -45q-29 -24 -41 -40.5t-20 -40t-17 -68.5l-63 -297h-21l151 714h21l-62 -295q44 52 101.5 80t118.5 28q68 0 105 -37.5t37 -106.5q0 -32 -7 -63l-68 -320h-21zM413 774l-73 105l-119 -105h-27
l137 123h22l83 -123h-23z" />
    <glyph glyph-name="Hbar" unicode="&#x126;" horiz-adv-x="685" 
d="M531 0l75 355h-457l-75 -355h-22l114 538h-82l4 20h82l33 156h22l-33 -156h457l33 156h22l-33 -156h82l-4 -20h-82l-114 -538h-22zM645 538h-457l-34 -162h457z" />
    <glyph glyph-name="hbar" unicode="&#x127;" horiz-adv-x="552" 
d="M420 0l65 306q7 31 7 60q0 61 -32 93.5t-93 32.5q-42 0 -85.5 -16t-78.5 -45q-29 -24 -41 -40.5t-20 -40t-17 -68.5l-60 -282h-21l128 607h-72l4 19h72l19 88h21l-19 -88h185l-4 -19h-185l-42 -203q44 52 101.5 80t118.5 28q68 0 105 -37.5t37 -106.5q0 -32 -7 -63
l-65 -305h-21z" />
    <glyph glyph-name="Itilde" unicode="&#x128;" horiz-adv-x="194" 
d="M46 0l151 714h22l-151 -714h-22zM393 865q-7 -40 -31.5 -62.5t-61.5 -22.5q-19 0 -34.5 7t-37.5 24q-30 23 -42.5 29.5t-28.5 6.5q-58 0 -73 -65h-21q7 40 31.5 62.5t61.5 22.5q19 0 34.5 -7t37.5 -24q30 -23 42.5 -29.5t28.5 -6.5q58 0 73 65h21z" />
    <glyph glyph-name="itilde" unicode="&#x129;" horiz-adv-x="169" 
d="M34 0l108 511h21l-108 -511h-21zM341 689q-7 -39 -31 -62t-58 -23q-19 0 -35 7.5t-38 26.5q-25 21 -38.5 27.5t-28.5 6.5q-26 0 -45 -18t-24 -48h-20q7 39 31 62t58 23q19 0 35 -7.5t38 -26.5q25 -21 38.5 -27.5t28.5 -6.5q26 0 45 18t24 48h20z" />
    <glyph glyph-name="Imacron" unicode="&#x12a;" horiz-adv-x="194" 
d="M46 0l151 714h22l-151 -714h-22zM91 798l5 20h268l-5 -20h-268z" />
    <glyph glyph-name="imacron" unicode="&#x12b;" horiz-adv-x="169" 
d="M34 0l108 511h21l-108 -511h-21zM62 633l4 19h232l-4 -19h-232z" />
    <glyph glyph-name="Ibreve" unicode="&#x12c;" horiz-adv-x="194" 
d="M46 0l151 714h22l-151 -714h-22zM345 882q-10 -53 -41.5 -80.5t-82.5 -27.5q-47 0 -74.5 22.5t-27.5 60.5q0 12 3 25h21q-2 -10 -2 -22q0 -32 21 -49t59 -17q42 0 67.5 21.5t35.5 66.5h21z" />
    <glyph glyph-name="ibreve" unicode="&#x12d;" horiz-adv-x="169" 
d="M34 0l108 511h21l-108 -511h-21zM295 708q-21 -113 -124 -113q-47 0 -74.5 23.5t-27.5 63.5q0 13 3 26h20q-2 -12 -2 -24q0 -33 21.5 -51.5t60.5 -18.5q42 0 67.5 23t35.5 71h20z" />
    <glyph glyph-name="Iogonek" unicode="&#x12e;" horiz-adv-x="194" 
d="M46 0l151 714h22l-151 -714h-22zM48 -166q-12 -2 -24 -2q-33 0 -51 16.5t-18 45.5q0 64 97 116l16 -10q-48 -26 -70 -51.5t-22 -54.5q0 -42 50 -42q12 0 26 2z" />
    <glyph glyph-name="iogonek" unicode="&#x12f;" horiz-adv-x="169" 
d="M34 0l108 511h21l-108 -511h-21zM166 622l19 92h21l-19 -92h-21zM37 -161q-10 -2 -24 -2q-31 0 -48.5 15.5t-17.5 44.5q0 31 22.5 58t70.5 53l15 -8q-46 -26 -66.5 -50.5t-20.5 -51.5q0 -42 49 -42q14 0 24 2z" />
    <glyph glyph-name="Idotaccent" unicode="&#x130;" horiz-adv-x="194" 
d="M46 0l151 714h22l-151 -714h-22zM213 790l19 92h22l-19 -92h-22z" />
    <glyph glyph-name="dotlessi" unicode="&#x131;" horiz-adv-x="169" 
d="M34 0l108 511h21l-108 -511h-21z" />
    <glyph glyph-name="IJ" unicode="&#x132;" horiz-adv-x="758" 
d="M46 0l151 714h22l-151 -714h-22zM766 714h22l-106 -498q-26 -121 -87 -176.5t-166 -55.5q-98 0 -151 48.5t-53 138.5v27h21v-21q0 -172 184 -172q98 0 153.5 52.5t79.5 167.5z" />
    <glyph glyph-name="ij" unicode="&#x133;" horiz-adv-x="340" 
d="M34 0l108 511h21l-108 -511h-21zM166 622l19 92h21l-19 -92h-21zM313 511h21l-120 -567q-15 -69 -44 -99.5t-81 -30.5q-22 0 -45 6t-39 15l9 18q35 -19 75 -19q42 0 66.5 24.5t36.5 81.5zM337 622l19 92h21l-19 -92h-21z" />
    <glyph glyph-name="Jcircumflex" unicode="&#x134;" horiz-adv-x="564" 
d="M572 714h22l-106 -498q-26 -121 -87 -176.5t-166 -55.5q-98 0 -151 48.5t-53 138.5v27h21v-21q0 -172 184 -172q98 0 153.5 52.5t79.5 167.5zM693 774l-73 105l-119 -105h-27l137 123h22l83 -123h-23z" />
    <glyph glyph-name="jcircumflex" unicode="&#x135;" horiz-adv-x="169" 
d="M142 511h21l-120 -567q-15 -69 -44 -99.5t-81 -30.5q-22 0 -45 6t-39 15l9 18q35 -19 75 -19q42 0 66.5 24.5t36.5 81.5zM276 585l-74 111l-120 -111h-26l138 129h20l84 -129h-22z" />
    <glyph glyph-name="uni0136" unicode="&#x136;" horiz-adv-x="623" 
d="M536 0l-208 431l-204 -160l-57 -271h-21l151 714h21l-87 -413l525 413h30l-342 -270l215 -444h-23zM175 -207l100 133h26l-103 -133h-23z" />
    <glyph glyph-name="uni0137" unicode="&#x137;" horiz-adv-x="477" 
d="M404 0l-138 326l-169 -128l-42 -198h-21l151 714h21l-103 -488l380 286h31l-232 -174l145 -338h-23zM104 -202l98 128h25l-101 -128h-22z" />
    <glyph glyph-name="kgreenlandic" unicode="&#x138;" horiz-adv-x="477" 
d="M404 0l-138 311l-176 -142l-35 -169h-21l108 511h21l-67 -316l387 317h31l-232 -188l145 -324h-23z" />
    <glyph glyph-name="Lacute" unicode="&#x139;" horiz-adv-x="547" 
d="M46 0l151 714h22l-147 -693h408l-8 -21h-426zM204 774h-28l140 123h31z" />
    <glyph glyph-name="lacute" unicode="&#x13a;" horiz-adv-x="169" 
d="M34 0l151 714h21l-151 -714h-21zM192 774h-28l140 123h31z" />
    <glyph glyph-name="uni013B" unicode="&#x13b;" horiz-adv-x="547" 
d="M46 0l151 714h22l-147 -693h408l-8 -21h-426zM133 -207l100 133h26l-103 -133h-23z" />
    <glyph glyph-name="uni013C" unicode="&#x13c;" horiz-adv-x="169" 
d="M34 0l151 714h21l-151 -714h-21zM-82 -202l98 128h25l-101 -128h-22z" />
    <glyph glyph-name="Lcaron" unicode="&#x13d;" horiz-adv-x="547" 
d="M46 0l151 714h22l-147 -693h408l-8 -21h-426zM419 560l59 154h20l-61 -154h-18z" />
    <glyph glyph-name="lcaron" unicode="&#x13e;" horiz-adv-x="169" 
d="M34 0l151 714h21l-151 -714h-21zM237 560l59 154h20l-61 -154h-18z" />
    <glyph glyph-name="Ldot" unicode="&#x13f;" horiz-adv-x="547" 
d="M46 0l151 714h22l-147 -693h408l-8 -21h-426zM377 345l21 97h22l-21 -97h-22z" />
    <glyph glyph-name="ldot" unicode="&#x140;" horiz-adv-x="244" 
d="M34 0l151 714h21l-151 -714h-21zM223 325l21 97h22l-21 -97h-22z" />
    <glyph glyph-name="Lslash" unicode="&#x141;" horiz-adv-x="553" 
d="M52 0l58 274l-93 -58l5 28l94 59l87 411h22l-84 -396l290 182l-6 -28l-290 -182l-57 -269h408l-8 -21h-426z" />
    <glyph glyph-name="lslash" unicode="&#x142;" horiz-adv-x="184" 
d="M41 0l78 369l-92 -59l5 26l92 59l68 319h21l-64 -303l95 62l-5 -26l-96 -62l-81 -385h-21z" />
    <glyph glyph-name="Nacute" unicode="&#x143;" horiz-adv-x="674" 
d="M522 0l-309 684l-145 -684h-22l151 714h25l310 -687l145 687h22l-151 -714h-26zM445 774h-28l140 123h31z" />
    <glyph glyph-name="nacute" unicode="&#x144;" horiz-adv-x="542" 
d="M410 0l68 321q7 31 7 60q0 61 -32 93.5t-93 32.5q-42 0 -85.5 -16t-78.5 -45q-29 -24 -41 -40.5t-20 -40t-17 -68.5l-63 -297h-21l108 511h21l-19 -92q44 52 101.5 80t118.5 28q68 0 105 -37.5t37 -106.5q0 -32 -7 -63l-68 -320h-21zM336 585l141 129h29l-144 -129h-26z
" />
    <glyph glyph-name="uni0145" unicode="&#x145;" horiz-adv-x="674" 
d="M522 0l-309 684l-145 -684h-22l151 714h25l310 -687l145 687h22l-151 -714h-26zM168 -207l100 133h26l-103 -133h-23z" />
    <glyph glyph-name="uni0146" unicode="&#x146;" horiz-adv-x="542" 
d="M410 0l68 321q7 31 7 60q0 61 -32 93.5t-93 32.5q-42 0 -85.5 -16t-78.5 -45q-29 -24 -41 -40.5t-20 -40t-17 -68.5l-63 -297h-21l108 511h21l-19 -92q44 52 101.5 80t118.5 28q68 0 105 -37.5t37 -106.5q0 -32 -7 -63l-68 -320h-21zM106 -202l98 128h25l-101 -128h-22z
" />
    <glyph glyph-name="Ncaron" unicode="&#x147;" horiz-adv-x="674" 
d="M522 0l-309 684l-145 -684h-22l151 714h25l310 -687l145 687h22l-151 -714h-26zM472 774h-22l-83 123h23l73 -105l119 105h27z" />
    <glyph glyph-name="ncaron" unicode="&#x148;" horiz-adv-x="542" 
d="M410 0l68 321q7 31 7 60q0 61 -32 93.5t-93 32.5q-42 0 -85.5 -16t-78.5 -45q-29 -24 -41 -40.5t-20 -40t-17 -68.5l-63 -297h-21l108 511h21l-19 -92q44 52 101.5 80t118.5 28q68 0 105 -37.5t37 -106.5q0 -32 -7 -63l-68 -320h-21zM369 585l-84 129h22l74 -111l120 111
h26l-138 -129h-20z" />
    <glyph glyph-name="napostrophe" unicode="&#x149;" horiz-adv-x="542" 
d="M410 0l68 321q7 31 7 60q0 61 -32 93.5t-93 32.5q-42 0 -85.5 -16t-78.5 -45q-29 -24 -41 -40.5t-20 -40t-17 -68.5l-63 -297h-21l108 511h21l-19 -92q44 52 101.5 80t118.5 28q68 0 105 -37.5t37 -106.5q0 -32 -7 -63l-68 -320h-21zM73 531l73 183h24l-77 -183h-20z" />
    <glyph glyph-name="Eng" unicode="&#x14a;" horiz-adv-x="674" 
d="M213 684l-145 -684h-22l151 714h25l311 -681l144 681h22l-151 -714q-16 -78 -44 -122t-72 -63.5t-109 -19.5q-85 0 -155 31l9 20q68 -30 146 -30q60 0 100 18.5t64 57.5t39 108z" />
    <glyph glyph-name="eng" unicode="&#x14b;" horiz-adv-x="542" 
d="M478 321q7 31 7 60q0 61 -32 93.5t-93 32.5q-42 0 -85.5 -16t-78.5 -45q-29 -24 -41 -40.5t-20 -40t-17 -68.5l-63 -297h-21l108 511h21l-19 -92q44 52 101.5 80t118.5 28q68 0 105 -37.5t37 -106.5q0 -32 -7 -63l-80 -376q-15 -69 -44 -99.5t-81 -30.5q-22 0 -45 6
t-39 15l9 18q35 -19 75 -19q42 0 66.5 24.5t36.5 81.5z" />
    <glyph glyph-name="Omacron" unicode="&#x14c;" horiz-adv-x="736" 
d="M345 -16q-123 0 -193 80t-70 221q0 88 26.5 167.5t77 142.5t121.5 100t154 37q123 0 193 -80t70 -221q0 -88 -26.5 -167.5t-77 -142.5t-121.5 -100t-154 -37zM347 5q95 0 175.5 54t129.5 152t49 220q0 131 -64.5 205.5t-177.5 74.5q-95 0 -175.5 -54t-129.5 -152
t-49 -220q0 -131 64.5 -205.5t177.5 -74.5zM341 798l5 20h268l-5 -20h-268z" />
    <glyph glyph-name="omacron" unicode="&#x14d;" horiz-adv-x="565" 
d="M256 -16q-94 0 -145 57.5t-51 163.5q0 89 34.5 162t98 116.5t143.5 43.5q94 0 145 -57.5t51 -163.5q0 -89 -34.5 -162t-98 -116.5t-143.5 -43.5zM257 4q70 0 127.5 37.5t91.5 106.5t34 158q0 97 -45 149t-130 52q-70 0 -127.5 -37.5t-91.5 -106.5t-34 -158q0 -97 45 -149
t130 -52zM242 633l4 19h232l-4 -19h-232z" />
    <glyph glyph-name="Obreve" unicode="&#x14e;" horiz-adv-x="736" 
d="M345 -16q-123 0 -193 80t-70 221q0 88 26.5 167.5t77 142.5t121.5 100t154 37q123 0 193 -80t70 -221q0 -88 -26.5 -167.5t-77 -142.5t-121.5 -100t-154 -37zM347 5q95 0 175.5 54t129.5 152t49 220q0 131 -64.5 205.5t-177.5 74.5q-95 0 -175.5 -54t-129.5 -152
t-49 -220q0 -131 64.5 -205.5t177.5 -74.5zM595 882q-10 -53 -41.5 -80.5t-82.5 -27.5q-47 0 -74.5 22.5t-27.5 60.5q0 12 3 25h21q-2 -10 -2 -22q0 -32 21 -49t59 -17q42 0 67.5 21.5t35.5 66.5h21z" />
    <glyph glyph-name="obreve" unicode="&#x14f;" horiz-adv-x="565" 
d="M256 -16q-94 0 -145 57.5t-51 163.5q0 89 34.5 162t98 116.5t143.5 43.5q94 0 145 -57.5t51 -163.5q0 -89 -34.5 -162t-98 -116.5t-143.5 -43.5zM257 4q70 0 127.5 37.5t91.5 106.5t34 158q0 97 -45 149t-130 52q-70 0 -127.5 -37.5t-91.5 -106.5t-34 -158q0 -97 45 -149
t130 -52zM475 708q-21 -113 -124 -113q-47 0 -74.5 23.5t-27.5 63.5q0 13 3 26h20q-2 -12 -2 -24q0 -33 21.5 -51.5t60.5 -18.5q42 0 67.5 23t35.5 71h20z" />
    <glyph glyph-name="Ohungarumlaut" unicode="&#x150;" horiz-adv-x="736" 
d="M345 -16q-123 0 -193 80t-70 221q0 88 26.5 167.5t77 142.5t121.5 100t154 37q123 0 193 -80t70 -221q0 -88 -26.5 -167.5t-77 -142.5t-121.5 -100t-154 -37zM347 5q95 0 175.5 54t129.5 152t49 220q0 131 -64.5 205.5t-177.5 74.5q-95 0 -175.5 -54t-129.5 -152
t-49 -220q0 -131 64.5 -205.5t177.5 -74.5zM388 774l129 123h29l-132 -123h-26zM526 774l129 123h29l-132 -123h-26z" />
    <glyph glyph-name="ohungarumlaut" unicode="&#x151;" horiz-adv-x="565" 
d="M256 -16q-94 0 -145 57.5t-51 163.5q0 89 34.5 162t98 116.5t143.5 43.5q94 0 145 -57.5t51 -163.5q0 -89 -34.5 -162t-98 -116.5t-143.5 -43.5zM257 4q70 0 127.5 37.5t91.5 106.5t34 158q0 97 -45 149t-130 52q-70 0 -127.5 -37.5t-91.5 -106.5t-34 -158q0 -97 45 -149
t130 -52zM273 585l129 129h27l-132 -129h-24zM400 585l129 129h27l-132 -129h-24z" />
    <glyph glyph-name="OE" unicode="&#x152;" horiz-adv-x="1085" 
d="M588 0l39 184q-48 -95 -125.5 -147.5t-171.5 -52.5q-116 0 -182 79.5t-66 219.5q0 116 45.5 219.5t126.5 166.5t185 63q110 0 174.5 -73.5t70.5 -202.5l55 258h405l-4 -21h-383l-67 -314h363l-4 -21h-363l-72 -337h390l-8 -21h-408zM333 5q91 0 166 54t121 153t46 218
q0 132 -60.5 206.5t-167.5 74.5q-91 0 -166 -54.5t-121 -154t-46 -218.5q0 -132 60 -205.5t168 -73.5z" />
    <glyph glyph-name="oe" unicode="&#x153;" horiz-adv-x="970" 
d="M904 122q-26 -70 -75.5 -104t-125.5 -34q-92 0 -142 50.5t-55 147.5q-29 -92 -96 -145t-156 -53q-92 0 -143 58t-51 163q0 88 34.5 161t97.5 117t142 44q86 0 135.5 -51.5t54.5 -146.5q29 91 94 144.5t146 53.5t130 -56t49 -150q0 -35 -5 -65l-1 -6h-411q-2 -16 -2 -45
q0 -99 46 -150t135 -51q66 0 108 28t70 90h21zM256 4q70 0 127 37.5t91 106.5t34 158q0 97 -45 149t-129 52q-70 0 -127 -37.5t-91 -106.5t-34 -158q0 -97 45 -149t129 -52zM919 269q4 24 4 51q0 85 -43.5 136t-117.5 51q-56 0 -105 -29t-83 -83t-45 -126h390z" />
    <glyph glyph-name="Racute" unicode="&#x154;" horiz-adv-x="613" 
d="M500 0l-83 333q-27 -3 -55 -3h-224l-70 -330h-22l151 714h224q100 0 151.5 -43.5t51.5 -127.5q0 -82 -48 -135.5t-138 -70.5l85 -337h-23zM367 351q110 0 172 50.5t62 140.5q0 151 -182 151h-204l-73 -342h225zM395 774h-28l140 123h31z" />
    <glyph glyph-name="racute" unicode="&#x155;" horiz-adv-x="330" 
d="M34 0l108 511h21l-19 -90q44 47 95.5 72.5t102.5 25.5q27 0 39 -4l-6 -20q-16 3 -34 3q-34 0 -65 -10.5t-66 -33.5q-34 -22 -49 -39.5t-24 -42.5t-18 -71l-64 -301h-21zM223 585l141 129h29l-144 -129h-26z" />
    <glyph glyph-name="Rcommaaccent" unicode="&#x156;" horiz-adv-x="613" 
d="M500 0l-83 333q-27 -3 -55 -3h-224l-70 -330h-22l151 714h224q100 0 151.5 -43.5t51.5 -127.5q0 -82 -48 -135.5t-138 -70.5l85 -337h-23zM367 351q110 0 172 50.5t62 140.5q0 151 -182 151h-204l-73 -342h225zM171 -207l100 133h26l-103 -133h-23z" />
    <glyph glyph-name="rcommaaccent" unicode="&#x157;" horiz-adv-x="330" 
d="M34 0l108 511h21l-19 -90q44 47 95.5 72.5t102.5 25.5q27 0 39 -4l-6 -20q-16 3 -34 3q-34 0 -65 -10.5t-66 -33.5q-34 -22 -49 -39.5t-24 -42.5t-18 -71l-64 -301h-21zM-82 -202l98 128h25l-101 -128h-22z" />
    <glyph glyph-name="Rcaron" unicode="&#x158;" horiz-adv-x="613" 
d="M500 0l-83 333q-27 -3 -55 -3h-224l-70 -330h-22l151 714h224q100 0 151.5 -43.5t51.5 -127.5q0 -82 -48 -135.5t-138 -70.5l85 -337h-23zM367 351q110 0 172 50.5t62 140.5q0 151 -182 151h-204l-73 -342h225zM422 774h-22l-83 123h23l73 -105l119 105h27z" />
    <glyph glyph-name="rcaron" unicode="&#x159;" horiz-adv-x="330" 
d="M34 0l108 511h21l-19 -90q44 47 95.5 72.5t102.5 25.5q27 0 39 -4l-6 -20q-16 3 -34 3q-34 0 -65 -10.5t-66 -33.5q-34 -22 -49 -39.5t-24 -42.5t-18 -71l-64 -301h-21zM256 585l-84 129h22l74 -111l120 111h26l-138 -129h-20z" />
    <glyph glyph-name="Sacute" unicode="&#x15a;" horiz-adv-x="604" 
d="M295 366q-83 18 -122.5 59t-39.5 109q0 92 64 145t176 53q97 0 152.5 -42t72.5 -129l-21 -4q-18 81 -67 117.5t-138 36.5q-103 0 -160 -46t-57 -129q0 -60 34.5 -96t108.5 -52l90 -19q79 -17 117 -59.5t38 -112.5q0 -100 -69.5 -156.5t-192.5 -56.5q-110 0 -169.5 47
t-61.5 137h20q4 -81 57.5 -122t154.5 -41q113 0 175.5 50t62.5 141q0 63 -33 99.5t-103 51.5zM365 774h-28l140 123h31z" />
    <glyph glyph-name="sacute" unicode="&#x15b;" horiz-adv-x="497" 
d="M457 399q-11 56 -50 82t-113 26q-81 0 -124.5 -31.5t-43.5 -90.5q0 -44 27.5 -68.5t91.5 -36.5l67 -13q60 -12 91.5 -44.5t31.5 -83.5q0 -71 -53.5 -113t-143.5 -42q-93 0 -144.5 39.5t-51.5 110.5h20q2 -63 47 -96.5t127 -33.5q83 0 130 35.5t47 98.5q0 88 -106 109
l-62 12q-74 14 -107.5 44t-33.5 81q0 67 51 105t141 38q158 0 181 -125zM266 585l141 129h29l-144 -129h-26z" />
    <glyph glyph-name="Scircumflex" unicode="&#x15c;" horiz-adv-x="604" 
d="M295 366q-83 18 -122.5 59t-39.5 109q0 92 64 145t176 53q97 0 152.5 -42t72.5 -129l-21 -4q-18 81 -67 117.5t-138 36.5q-103 0 -160 -46t-57 -129q0 -60 34.5 -96t108.5 -52l90 -19q79 -17 117 -59.5t38 -112.5q0 -100 -69.5 -156.5t-192.5 -56.5q-110 0 -169.5 47
t-61.5 137h20q4 -81 57.5 -122t154.5 -41q113 0 175.5 50t62.5 141q0 63 -33 99.5t-103 51.5zM479 774l-73 105l-119 -105h-27l137 123h22l83 -123h-23z" />
    <glyph glyph-name="scircumflex" unicode="&#x15d;" horiz-adv-x="497" 
d="M457 399q-11 56 -50 82t-113 26q-81 0 -124.5 -31.5t-43.5 -90.5q0 -44 27.5 -68.5t91.5 -36.5l67 -13q60 -12 91.5 -44.5t31.5 -83.5q0 -71 -53.5 -113t-143.5 -42q-93 0 -144.5 39.5t-51.5 110.5h20q2 -63 47 -96.5t127 -33.5q83 0 130 35.5t47 98.5q0 88 -106 109
l-62 12q-74 14 -107.5 44t-33.5 81q0 67 51 105t141 38q158 0 181 -125zM408 585l-74 111l-120 -111h-26l138 129h20l84 -129h-22z" />
    <glyph glyph-name="Scedilla" unicode="&#x15e;" horiz-adv-x="604" 
d="M295 366q-83 18 -122.5 59t-39.5 109q0 92 64 145t176 53q97 0 152.5 -42t72.5 -129l-21 -4q-18 81 -67 117.5t-138 36.5q-103 0 -160 -46t-57 -129q0 -60 34.5 -96t108.5 -52l90 -19q79 -17 117 -59.5t38 -112.5q0 -100 -69.5 -156.5t-192.5 -56.5q-110 0 -169.5 47
t-61.5 137h20q4 -81 57.5 -122t154.5 -41q113 0 175.5 50t62.5 141q0 63 -33 99.5t-103 51.5zM180 -173q32 -5 61 -5q49 0 70.5 10.5t21.5 34.5t-22.5 35.5t-69.5 11.5h-15l51 89l18 -3l-38 -69q96 -4 96 -62q0 -34 -27.5 -50t-85.5 -16q-37 0 -64 6z" />
    <glyph glyph-name="scedilla" unicode="&#x15f;" horiz-adv-x="497" 
d="M457 399q-11 56 -50 82t-113 26q-81 0 -124.5 -31.5t-43.5 -90.5q0 -44 27.5 -68.5t91.5 -36.5l67 -13q60 -12 91.5 -44.5t31.5 -83.5q0 -71 -53.5 -113t-143.5 -42q-93 0 -144.5 39.5t-51.5 110.5h20q2 -63 47 -96.5t127 -33.5q83 0 130 35.5t47 98.5q0 88 -106 109
l-62 12q-74 14 -107.5 44t-33.5 81q0 67 51 105t141 38q158 0 181 -125zM129 -158q32 -5 59 -5q48 0 69 10.5t21 33.5t-20 34t-63 11h-14l41 76l17 -2l-29 -57q88 -4 88 -61q0 -64 -110 -64q-38 0 -63 6z" />
    <glyph glyph-name="Scaron" unicode="&#x160;" horiz-adv-x="604" 
d="M295 366q-83 18 -122.5 59t-39.5 109q0 92 64 145t176 53q97 0 152.5 -42t72.5 -129l-21 -4q-18 81 -67 117.5t-138 36.5q-103 0 -160 -46t-57 -129q0 -60 34.5 -96t108.5 -52l90 -19q79 -17 117 -59.5t38 -112.5q0 -100 -69.5 -156.5t-192.5 -56.5q-110 0 -169.5 47
t-61.5 137h20q4 -81 57.5 -122t154.5 -41q113 0 175.5 50t62.5 141q0 63 -33 99.5t-103 51.5zM392 774h-22l-83 123h23l73 -105l119 105h27z" />
    <glyph glyph-name="scaron" unicode="&#x161;" horiz-adv-x="497" 
d="M457 399q-11 56 -50 82t-113 26q-81 0 -124.5 -31.5t-43.5 -90.5q0 -44 27.5 -68.5t91.5 -36.5l67 -13q60 -12 91.5 -44.5t31.5 -83.5q0 -71 -53.5 -113t-143.5 -42q-93 0 -144.5 39.5t-51.5 110.5h20q2 -63 47 -96.5t127 -33.5q83 0 130 35.5t47 98.5q0 88 -106 109
l-62 12q-74 14 -107.5 44t-33.5 81q0 67 51 105t141 38q158 0 181 -125zM299 585l-84 129h22l74 -111l120 111h26l-138 -129h-20z" />
    <glyph glyph-name="uni0162" unicode="&#x162;" horiz-adv-x="570" 
d="M234 0l147 693h-254l4 21h530l-4 -21h-254l-147 -693h-22zM140 -173q32 -5 61 -5q49 0 70.5 10.5t21.5 34.5t-22.5 35.5t-69.5 11.5h-15l51 89l18 -3l-38 -69q96 -4 96 -62q0 -34 -27.5 -50t-85.5 -16q-37 0 -64 6z" />
    <glyph glyph-name="uni0163" unicode="&#x163;" horiz-adv-x="318" 
d="M259 7q-49 -18 -86 -18q-47 0 -73.5 25t-26.5 71q0 14 5 39l78 367h-79l4 20h79l30 144h21l-30 -144h173l-4 -20h-173l-77 -364q-5 -28 -5 -40q0 -38 20.5 -58t60.5 -20q32 0 77 18zM44 -158q32 -5 59 -5q48 0 69 10.5t21 33.5t-20 34t-63 11h-14l41 76l17 -2l-29 -57
q88 -4 88 -61q0 -64 -110 -64q-38 0 -63 6z" />
    <glyph glyph-name="Tcaron" unicode="&#x164;" horiz-adv-x="570" 
d="M234 0l147 693h-254l4 21h530l-4 -21h-254l-147 -693h-22zM420 774h-22l-83 123h23l73 -105l119 105h27z" />
    <glyph glyph-name="tcaron" unicode="&#x165;" horiz-adv-x="318" 
d="M259 7q-49 -18 -86 -18q-47 0 -73.5 25t-26.5 71q0 14 5 39l78 367h-79l4 20h79l30 144h21l-30 -144h173l-4 -20h-173l-77 -364q-5 -28 -5 -40q0 -38 20.5 -58t60.5 -20q32 0 77 18zM292 593l50 131h21l-52 -131h-19z" />
    <glyph glyph-name="Tbar" unicode="&#x166;" horiz-adv-x="570" 
d="M234 0l74 348h-172l4 21h172l69 324h-254l4 21h530l-4 -21h-254l-69 -324h172l-4 -21h-172l-74 -348h-22z" />
    <glyph glyph-name="tbar" unicode="&#x167;" horiz-adv-x="343" 
d="M264 7q-49 -18 -86 -18q-47 0 -73.5 25t-26.5 71q0 14 5 39l30 144h-79l4 20h80l43 203h-79l4 20h79l30 144h21l-30 -144h173l-4 -20h-173l-43 -203h172l-4 -20h-172l-30 -141q-5 -28 -5 -40q0 -38 20.5 -58t60.5 -20q32 0 77 18z" />
    <glyph glyph-name="Utilde" unicode="&#x168;" horiz-adv-x="670" 
d="M673 714h22l-95 -448q-23 -108 -58.5 -168.5t-90.5 -87t-138 -26.5q-220 0 -220 195q0 47 12 101l92 434h22l-93 -439q-11 -53 -11 -94q0 -176 200 -176q80 0 130.5 27t82 85.5t52.5 157.5zM631 865q-7 -40 -31.5 -62.5t-61.5 -22.5q-19 0 -34.5 7t-37.5 24
q-30 23 -42.5 29.5t-28.5 6.5q-58 0 -73 -65h-21q7 40 31.5 62.5t61.5 22.5q19 0 34.5 -7t37.5 -24q30 -23 42.5 -29.5t28.5 -6.5q58 0 73 65h21z" />
    <glyph glyph-name="utilde" unicode="&#x169;" horiz-adv-x="532" 
d="M397 0l19 92q-42 -52 -98 -80t-116 -28q-66 0 -102 37.5t-36 105.5q0 33 7 64l68 320h21l-68 -321q-7 -29 -7 -61q0 -61 31.5 -93t90.5 -32q41 0 83 16t76 45q27 24 39 40.5t19.5 40t17.5 68.5l63 297h21l-108 -511h-21zM520 689q-7 -39 -31 -62t-58 -23q-19 0 -35 7.5
t-38 26.5q-25 21 -38.5 27.5t-28.5 6.5q-26 0 -45 -18t-24 -48h-20q7 39 31 62t58 23q19 0 35 -7.5t38 -26.5q25 -21 38.5 -27.5t28.5 -6.5q26 0 45 18t24 48h20z" />
    <glyph glyph-name="Umacron" unicode="&#x16a;" horiz-adv-x="670" 
d="M673 714h22l-95 -448q-23 -108 -58.5 -168.5t-90.5 -87t-138 -26.5q-220 0 -220 195q0 47 12 101l92 434h22l-93 -439q-11 -53 -11 -94q0 -176 200 -176q80 0 130.5 27t82 85.5t52.5 157.5zM329 798l5 20h268l-5 -20h-268z" />
    <glyph glyph-name="umacron" unicode="&#x16b;" horiz-adv-x="532" 
d="M397 0l19 92q-42 -52 -98 -80t-116 -28q-66 0 -102 37.5t-36 105.5q0 33 7 64l68 320h21l-68 -321q-7 -29 -7 -61q0 -61 31.5 -93t90.5 -32q41 0 83 16t76 45q27 24 39 40.5t19.5 40t17.5 68.5l63 297h21l-108 -511h-21zM241 633l4 19h232l-4 -19h-232z" />
    <glyph glyph-name="Ubreve" unicode="&#x16c;" horiz-adv-x="670" 
d="M673 714h22l-95 -448q-23 -108 -58.5 -168.5t-90.5 -87t-138 -26.5q-220 0 -220 195q0 47 12 101l92 434h22l-93 -439q-11 -53 -11 -94q0 -176 200 -176q80 0 130.5 27t82 85.5t52.5 157.5zM583 882q-10 -53 -41.5 -80.5t-82.5 -27.5q-47 0 -74.5 22.5t-27.5 60.5
q0 12 3 25h21q-2 -10 -2 -22q0 -32 21 -49t59 -17q42 0 67.5 21.5t35.5 66.5h21z" />
    <glyph glyph-name="ubreve" unicode="&#x16d;" horiz-adv-x="532" 
d="M397 0l19 92q-42 -52 -98 -80t-116 -28q-66 0 -102 37.5t-36 105.5q0 33 7 64l68 320h21l-68 -321q-7 -29 -7 -61q0 -61 31.5 -93t90.5 -32q41 0 83 16t76 45q27 24 39 40.5t19.5 40t17.5 68.5l63 297h21l-108 -511h-21zM474 708q-21 -113 -124 -113q-47 0 -74.5 23.5
t-27.5 63.5q0 13 3 26h20q-2 -12 -2 -24q0 -33 21.5 -51.5t60.5 -18.5q42 0 67.5 23t35.5 71h20z" />
    <glyph glyph-name="Uring" unicode="&#x16e;" horiz-adv-x="670" 
d="M673 714h22l-95 -448q-23 -108 -58.5 -168.5t-90.5 -87t-138 -26.5q-220 0 -220 195q0 47 12 101l92 434h22l-93 -439q-11 -53 -11 -94q0 -176 200 -176q80 0 130.5 27t82 85.5t52.5 157.5zM534 820q0 -39 -22.5 -62t-60.5 -23t-60.5 23t-22.5 62t22.5 62t60.5 23
t60.5 -23t22.5 -62zM513 820q0 30 -16.5 47.5t-45.5 17.5t-45.5 -17t-16.5 -48q0 -30 16.5 -47.5t45.5 -17.5t45.5 17t16.5 48z" />
    <glyph glyph-name="uring" unicode="&#x16f;" horiz-adv-x="532" 
d="M397 0l19 92q-42 -52 -98 -80t-116 -28q-66 0 -102 37.5t-36 105.5q0 33 7 64l68 320h21l-68 -321q-7 -29 -7 -61q0 -61 31.5 -93t90.5 -32q41 0 83 16t76 45q27 24 39 40.5t19.5 40t17.5 68.5l63 297h21l-108 -511h-21zM432 675q0 -39 -22.5 -62t-60.5 -23t-60.5 23
t-22.5 62t22.5 62t60.5 23t60.5 -23t22.5 -62zM412 675q0 31 -17 48.5t-46 17.5q-30 0 -46.5 -17.5t-16.5 -48.5t17 -48.5t46 -17.5q30 0 46.5 17.5t16.5 48.5z" />
    <glyph glyph-name="Uhungarumlaut" unicode="&#x170;" horiz-adv-x="670" 
d="M673 714h22l-95 -448q-23 -108 -58.5 -168.5t-90.5 -87t-138 -26.5q-220 0 -220 195q0 47 12 101l92 434h22l-93 -439q-11 -53 -11 -94q0 -176 200 -176q80 0 130.5 27t82 85.5t52.5 157.5zM376 774l129 123h29l-132 -123h-26zM514 774l129 123h29l-132 -123h-26z" />
    <glyph glyph-name="uhungarumlaut" unicode="&#x171;" horiz-adv-x="532" 
d="M397 0l19 92q-42 -52 -98 -80t-116 -28q-66 0 -102 37.5t-36 105.5q0 33 7 64l68 320h21l-68 -321q-7 -29 -7 -61q0 -61 31.5 -93t90.5 -32q41 0 83 16t76 45q27 24 39 40.5t19.5 40t17.5 68.5l63 297h21l-108 -511h-21zM272 585l129 129h27l-132 -129h-24zM399 585
l129 129h27l-132 -129h-24z" />
    <glyph glyph-name="Uogonek" unicode="&#x172;" horiz-adv-x="670" 
d="M673 714h22l-95 -448q-23 -108 -58.5 -168.5t-90.5 -87t-138 -26.5q-220 0 -220 195q0 47 12 101l92 434h22l-93 -439q-11 -53 -11 -94q0 -176 200 -176q80 0 130.5 27t82 85.5t52.5 157.5zM405 -166q-12 -2 -24 -2q-33 0 -51 16.5t-18 45.5q0 64 97 116l16 -10
q-48 -26 -70 -51.5t-22 -54.5q0 -42 50 -42q12 0 26 2z" />
    <glyph glyph-name="uogonek" unicode="&#x173;" horiz-adv-x="532" 
d="M397 0l19 92q-42 -52 -98 -80t-116 -28q-66 0 -102 37.5t-36 105.5q0 33 7 64l68 320h21l-68 -321q-7 -29 -7 -61q0 -61 31.5 -93t90.5 -32q41 0 83 16t76 45q27 24 39 40.5t19.5 40t17.5 68.5l63 297h21l-108 -511h-21zM400 -161q-10 -2 -24 -2q-31 0 -48.5 15.5
t-17.5 44.5q0 31 22.5 58t70.5 53l15 -8q-46 -26 -66.5 -50.5t-20.5 -51.5q0 -42 49 -42q14 0 24 2z" />
    <glyph glyph-name="Wcircumflex" unicode="&#x174;" horiz-adv-x="868" 
d="M580 0l-42 681l-330 -681h-26l-41 714h22l37 -682l332 679h25l41 -681l328 684h23l-343 -714h-26zM656 774l-73 105l-119 -105h-27l137 123h22l83 -123h-23z" />
    <glyph glyph-name="wcircumflex" unicode="&#x175;" horiz-adv-x="679" 
d="M451 0l-49 486l-255 -486h-24l-42 511h21l39 -486l254 484h23l50 -485l245 487h21l-258 -511h-25zM524 585l-74 111l-120 -111h-26l138 129h20l84 -129h-22z" />
    <glyph glyph-name="Ycircumflex" unicode="&#x176;" horiz-adv-x="557" 
d="M228 0l65 309l-157 405h24l147 -381l310 381h26l-327 -403l-66 -311h-22zM499 774l-73 105l-119 -105h-27l137 123h22l83 -123h-23z" />
    <glyph glyph-name="ycircumflex" unicode="&#x177;" horiz-adv-x="467" 
d="M195 8l-117 503h22l109 -479l294 479h22l-369 -603q-37 -61 -62 -81.5t-64 -20.5q-27 0 -59 12l6 17q29 -10 55 -10q31 0 51.5 17.5t55.5 74.5zM416 585l-74 111l-120 -111h-26l138 129h20l84 -129h-22z" />
    <glyph glyph-name="Ydieresis" unicode="&#x178;" horiz-adv-x="557" 
d="M228 0l65 309l-157 405h24l147 -381l310 381h26l-327 -403l-66 -311h-22zM314 790l19 92h22l-19 -92h-22zM473 790l19 92h22l-19 -92h-22z" />
    <glyph glyph-name="Zacute" unicode="&#x179;" horiz-adv-x="579" 
d="M3 0l4 19l595 674h-450l4 21h479l-4 -19l-595 -674h462l-11 -21h-484zM392 774h-28l140 123h31z" />
    <glyph glyph-name="zacute" unicode="&#x17a;" horiz-adv-x="440" 
d="M-9 0l4 16l429 475h-328l4 20h356l-4 -16l-429 -475h350l-8 -20h-374zM251 585l141 129h29l-144 -129h-26z" />
    <glyph glyph-name="Zdotaccent" unicode="&#x17b;" horiz-adv-x="579" 
d="M3 0l4 19l595 674h-450l4 21h479l-4 -19l-595 -674h462l-11 -21h-484zM401 790l19 92h22l-19 -92h-22z" />
    <glyph glyph-name="zdotaccent" unicode="&#x17c;" horiz-adv-x="440" 
d="M-9 0l4 16l429 475h-328l4 20h356l-4 -16l-429 -475h350l-8 -20h-374zM290 622l19 92h21l-19 -92h-21z" />
    <glyph glyph-name="Zcaron" unicode="&#x17d;" horiz-adv-x="579" 
d="M3 0l4 19l595 674h-450l4 21h479l-4 -19l-595 -674h462l-11 -21h-484zM419 774h-22l-83 123h23l73 -105l119 105h27z" />
    <glyph glyph-name="zcaron" unicode="&#x17e;" horiz-adv-x="440" 
d="M-9 0l4 16l429 475h-328l4 20h356l-4 -16l-429 -475h350l-8 -20h-374zM284 585l-84 129h22l74 -111l120 111h26l-138 -129h-20z" />
    <glyph glyph-name="longs" unicode="&#x17f;" horiz-adv-x="169" 
d="M34 0l124 585q15 70 51.5 103.5t97.5 33.5q35 0 64 -11l-7 -19q-24 10 -58 10q-54 0 -84 -28.5t-43 -90.5l-124 -583h-21z" />
    <glyph glyph-name="florin" unicode="&#x192;" horiz-adv-x="301" 
d="M165 491h-79l4 20h79l16 74q15 70 51.5 103.5t97.5 33.5q35 0 64 -11l-7 -19q-24 10 -58 10q-53 0 -83 -28t-44 -91l-16 -72h159l-4 -20h-159l-116 -547q-15 -69 -44 -99.5t-81 -30.5q-22 0 -45 6t-39 15l9 18q35 -19 75 -19q42 0 66.5 24.5t36.5 81.5z" />
    <glyph glyph-name="uni0218" unicode="&#x218;" horiz-adv-x="604" 
d="M295 366q-83 18 -122.5 59t-39.5 109q0 92 64 145t176 53q97 0 152.5 -42t72.5 -129l-21 -4q-18 81 -67 117.5t-138 36.5q-103 0 -160 -46t-57 -129q0 -60 34.5 -96t108.5 -52l90 -19q79 -17 117 -59.5t38 -112.5q0 -100 -69.5 -156.5t-192.5 -56.5q-110 0 -169.5 47
t-61.5 137h20q4 -81 57.5 -122t154.5 -41q113 0 175.5 50t62.5 141q0 63 -33 99.5t-103 51.5zM156 -207l100 133h26l-103 -133h-23z" />
    <glyph glyph-name="uni0219" unicode="&#x219;" horiz-adv-x="497" 
d="M457 399q-11 56 -50 82t-113 26q-81 0 -124.5 -31.5t-43.5 -90.5q0 -44 27.5 -68.5t91.5 -36.5l67 -13q60 -12 91.5 -44.5t31.5 -83.5q0 -71 -53.5 -113t-143.5 -42q-93 0 -144.5 39.5t-51.5 110.5h20q2 -63 47 -96.5t127 -33.5q83 0 130 35.5t47 98.5q0 88 -106 109
l-62 12q-74 14 -107.5 44t-33.5 81q0 67 51 105t141 38q158 0 181 -125zM114 -202l98 128h25l-101 -128h-22z" />
    <glyph glyph-name="uni021A" unicode="&#x21a;" horiz-adv-x="570" 
d="M234 0l147 693h-254l4 21h530l-4 -21h-254l-147 -693h-22zM116 -207l100 133h26l-103 -133h-23z" />
    <glyph glyph-name="uni021B" unicode="&#x21b;" horiz-adv-x="318" 
d="M259 7q-49 -18 -86 -18q-47 0 -73.5 25t-26.5 71q0 14 5 39l78 367h-79l4 20h79l30 144h21l-30 -144h173l-4 -20h-173l-77 -364q-5 -28 -5 -40q0 -38 20.5 -58t60.5 -20q32 0 77 18zM29 -202l98 128h25l-101 -128h-22z" />
    <glyph glyph-name="uni0237" unicode="&#x237;" horiz-adv-x="169" 
d="M142 511h21l-120 -567q-15 -69 -44 -99.5t-81 -30.5q-22 0 -45 6t-39 15l9 18q35 -19 75 -19q42 0 66.5 24.5t36.5 81.5z" />
    <glyph glyph-name="uni02BC" unicode="&#x2bc;" horiz-adv-x="542" 
d="M310 531l73 183h24l-77 -183h-20z" />
    <glyph glyph-name="circumflex" unicode="&#x2c6;" horiz-adv-x="542" 
d="M370 585l-74 111l-120 -111h-26l138 129h20l84 -129h-22z" />
    <glyph glyph-name="caron" unicode="&#x2c7;" horiz-adv-x="542" 
d="M329 585l-84 129h22l74 -111l120 111h26l-138 -129h-20z" />
    <glyph glyph-name="uni02C9" unicode="&#x2c9;" horiz-adv-x="542" 
d="M256 633l4 19h232l-4 -19h-232z" />
    <glyph glyph-name="uni02CB" unicode="&#x2cb;" horiz-adv-x="542" 
d="M390 585l-90 129h24l87 -129h-21z" />
    <glyph glyph-name="breve" unicode="&#x2d8;" horiz-adv-x="542" 
d="M483 708q-21 -113 -124 -113q-47 0 -74.5 23.5t-27.5 63.5q0 13 3 26h20q-2 -12 -2 -24q0 -33 21.5 -51.5t60.5 -18.5q42 0 67.5 23t35.5 71h20z" />
    <glyph glyph-name="dotaccent" unicode="&#x2d9;" horiz-adv-x="542" 
d="M335 622l19 92h21l-19 -92h-21z" />
    <glyph glyph-name="ring" unicode="&#x2da;" horiz-adv-x="542" 
d="M441 675q0 -39 -22.5 -62t-60.5 -23t-60.5 23t-22.5 62t22.5 62t60.5 23t60.5 -23t22.5 -62zM421 675q0 31 -17 48.5t-46 17.5q-30 0 -46.5 -17.5t-16.5 -48.5t17 -48.5t46 -17.5q30 0 46.5 17.5t16.5 48.5z" />
    <glyph glyph-name="ogonek" unicode="&#x2db;" horiz-adv-x="542" 
d="M267 -161q-10 -2 -24 -2q-31 0 -48.5 15.5t-17.5 44.5q0 31 22.5 58t70.5 53l15 -8q-46 -26 -66.5 -50.5t-20.5 -51.5q0 -42 49 -42q14 0 24 2z" />
    <glyph glyph-name="tilde" unicode="&#x2dc;" horiz-adv-x="542" 
d="M433 689q-7 -39 -31 -62t-58 -23q-19 0 -35 7.5t-38 26.5q-25 21 -38.5 27.5t-28.5 6.5q-26 0 -45 -18t-24 -48h-20q7 39 31 62t58 23q19 0 35 -7.5t38 -26.5q25 -21 38.5 -27.5t28.5 -6.5q26 0 45 18t24 48h20z" />
    <glyph glyph-name="hungarumlaut" unicode="&#x2dd;" horiz-adv-x="542" 
d="M210 585l129 129h27l-132 -129h-24zM337 585l129 129h27l-132 -129h-24z" />
    <glyph glyph-name="gravecomb" unicode="&#x300;" horiz-adv-x="0" 
d="M19 585l-90 129h24l87 -129h-21z" />
    <glyph glyph-name="acutecomb" unicode="&#x301;" horiz-adv-x="0" 
d="M-42 585l141 129h29l-144 -129h-26z" />
    <glyph glyph-name="uni0302" unicode="&#x302;" horiz-adv-x="0" 
d="M99 585l-74 111l-120 -111h-26l138 129h20l84 -129h-22z" />
    <glyph glyph-name="tildecomb" unicode="&#x303;" horiz-adv-x="0" 
d="M162 689q-7 -39 -31 -62t-58 -23q-19 0 -35 7.5t-38 26.5q-25 21 -38.5 27.5t-28.5 6.5q-26 0 -45 -18t-24 -48h-20q7 39 31 62t58 23q19 0 35 -7.5t38 -26.5q25 -21 38.5 -27.5t28.5 -6.5q26 0 45 18t24 48h20z" />
    <glyph glyph-name="uni0304" unicode="&#x304;" horiz-adv-x="0" 
d="M-119 633l4 19h232l-4 -19h-232z" />
    <glyph glyph-name="uni0306" unicode="&#x306;" horiz-adv-x="0" 
d="M125 708q-21 -113 -124 -113q-47 0 -74.5 23.5t-27.5 63.5q0 13 3 26h20q-2 -12 -2 -24q0 -33 21.5 -51.5t60.5 -18.5q42 0 67.5 23t35.5 71h20z" />
    <glyph glyph-name="uni0307" unicode="&#x307;" horiz-adv-x="0" 
d="M-11 622l19 92h21l-19 -92h-21z" />
    <glyph glyph-name="uni0308" unicode="&#x308;" horiz-adv-x="0" 
d="M-85 622l19 92h21l-19 -92h-21zM63 622l19 92h21l-19 -92h-21z" />
    <glyph glyph-name="uni030A" unicode="&#x30a;" horiz-adv-x="0" 
d="M84 675q0 -39 -22.5 -62t-60.5 -23t-60.5 23t-22.5 62t22.5 62t60.5 23t60.5 -23t22.5 -62zM64 675q0 31 -17 48.5t-46 17.5q-30 0 -46.5 -17.5t-16.5 -48.5t17 -48.5t46 -17.5q30 0 46.5 17.5t16.5 48.5z" />
    <glyph glyph-name="uni030B" unicode="&#x30b;" horiz-adv-x="0" 
d="M-75 585l129 129h27l-132 -129h-24zM52 585l129 129h27l-132 -129h-24z" />
    <glyph glyph-name="uni030C" unicode="&#x30c;" horiz-adv-x="0" 
d="M-10 585l-84 129h22l74 -111l120 111h26l-138 -129h-20z" />
    <glyph glyph-name="uni0312" unicode="&#x312;" horiz-adv-x="0" 
d="M-12 584l97 130h21l-94 -130h-24z" />
    <glyph glyph-name="uni0315" unicode="&#x315;" horiz-adv-x="0" 
d="M-9 560l59 154h20l-61 -154h-18z" />
    <glyph glyph-name="uni0326" unicode="&#x326;" horiz-adv-x="0" 
d="M-110 -202l98 128h25l-101 -128h-22z" />
    <glyph glyph-name="uni0327" unicode="&#x327;" horiz-adv-x="0" 
d="M-111 -158q32 -5 59 -5q48 0 69 10.5t21 33.5t-20 34t-63 11h-14l41 76l17 -2l-29 -57q88 -4 88 -61q0 -64 -110 -64q-38 0 -63 6z" />
    <glyph glyph-name="uni0328" unicode="&#x328;" horiz-adv-x="0" 
d="M-10 -161q-10 -2 -24 -2q-31 0 -48.5 15.5t-17.5 44.5q0 31 22.5 58t70.5 53l15 -8q-46 -26 -66.5 -50.5t-20.5 -51.5q0 -42 49 -42q14 0 24 2z" />
    <glyph glyph-name="uni0394" unicode="&#x394;" horiz-adv-x="621" 
d="M-19 0l428 714h25l127 -714h-580zM418 691l-399 -670h515z" />
    <glyph glyph-name="uni03A9" unicode="&#x3a9;" horiz-adv-x="716" 
d="M410 0l4 16q128 70 198.5 183.5t70.5 250.5q0 125 -62 193t-175 68q-94 0 -170 -49.5t-121 -141.5t-45 -210q0 -97 34 -171.5t98 -120.5l-4 -18h-232l4 21h196q-36 26 -62.5 70t-41.5 100.5t-15 118.5q0 116 45 212t127 153t186 57q124 0 192.5 -74.5t68.5 -208.5
q0 -130 -64.5 -242.5t-179.5 -185.5h191l-11 -21h-232z" />
    <glyph glyph-name="uni03BC" unicode="&#x3bc;" horiz-adv-x="536" 
d="M401 0l19 92q-42 -52 -98 -80t-115 -28q-56 0 -90 27.5t-42 79.5l-60 -285h-21l149 705h21l-68 -321q-7 -29 -7 -61q0 -61 31.5 -93t90.5 -32q41 0 83 16t76 45q27 24 39 40.5t19.5 40t17.5 68.5l63 297h21l-108 -511h-21z" />
    <glyph glyph-name="pi" unicode="&#x3c0;" horiz-adv-x="544" 
d="M490 -4q-13 -6 -37 -6q-72 0 -72 74q0 21 6 46l81 381h-256l-105 -491h-21l105 491h-101l4 20h505l-4 -20h-106l-81 -379q-6 -27 -6 -46q0 -29 12.5 -42.5t40.5 -13.5q18 0 31 4z" />
    <glyph glyph-name="Wgrave" unicode="&#x1e80;" horiz-adv-x="868" 
d="M580 0l-42 681l-330 -681h-26l-41 714h22l37 -682l332 679h25l41 -681l328 684h23l-343 -714h-26zM577 774l-89 123h25l86 -123h-22z" />
    <glyph glyph-name="wgrave" unicode="&#x1e81;" horiz-adv-x="679" 
d="M451 0l-49 486l-255 -486h-24l-42 511h21l39 -486l254 484h23l50 -485l245 487h21l-258 -511h-25zM444 585l-90 129h24l87 -129h-21z" />
    <glyph glyph-name="Wacute" unicode="&#x1e82;" horiz-adv-x="868" 
d="M580 0l-42 681l-330 -681h-26l-41 714h22l37 -682l332 679h25l41 -681l328 684h23l-343 -714h-26zM542 774h-28l140 123h31z" />
    <glyph glyph-name="wacute" unicode="&#x1e83;" horiz-adv-x="679" 
d="M451 0l-49 486l-255 -486h-24l-42 511h21l39 -486l254 484h23l50 -485l245 487h21l-258 -511h-25zM382 585l141 129h29l-144 -129h-26z" />
    <glyph glyph-name="Wdieresis" unicode="&#x1e84;" horiz-adv-x="868" 
d="M580 0l-42 681l-330 -681h-26l-41 714h22l37 -682l332 679h25l41 -681l328 684h23l-343 -714h-26zM471 790l19 92h22l-19 -92h-22zM630 790l19 92h22l-19 -92h-22z" />
    <glyph glyph-name="wdieresis" unicode="&#x1e85;" horiz-adv-x="679" 
d="M451 0l-49 486l-255 -486h-24l-42 511h21l39 -486l254 484h23l50 -485l245 487h21l-258 -511h-25zM347 622l19 92h21l-19 -92h-21zM495 622l19 92h21l-19 -92h-21z" />
    <glyph glyph-name="uni1E9E" unicode="&#x1e9e;" horiz-adv-x="749" 
d="M514 329q-76 17 -110.5 44t-34.5 69q0 53 56.5 109t198.5 142h-209q-105 0 -168 -55t-87 -168l-100 -470h-22l100 470q27 126 96.5 185t191.5 59h238l-5 -21l-19 -12q-146 -92 -197.5 -142t-51.5 -97q0 -35 28 -55.5t97 -35.5l23 -5q82 -18 120.5 -55t38.5 -103
q0 -97 -63.5 -150.5t-174.5 -53.5q-101 0 -154 47.5t-53 136.5h20q0 -80 48 -121.5t140 -41.5q102 0 158 47t56 134q0 59 -33.5 91t-104.5 47z" />
    <glyph glyph-name="Ygrave" unicode="&#x1ef2;" horiz-adv-x="557" 
d="M228 0l65 309l-157 405h24l147 -381l310 381h26l-327 -403l-66 -311h-22zM420 774l-89 123h25l86 -123h-22z" />
    <glyph glyph-name="ygrave" unicode="&#x1ef3;" horiz-adv-x="467" 
d="M195 8l-117 503h22l109 -479l294 479h22l-369 -603q-37 -61 -62 -81.5t-64 -20.5q-27 0 -59 12l6 17q29 -10 55 -10q31 0 51.5 17.5t55.5 74.5zM336 585l-90 129h24l87 -129h-21z" />
    <glyph glyph-name="uni2000" unicode="&#x2000;" horiz-adv-x="500" 
 />
    <glyph glyph-name="uni2001" unicode="&#x2001;" horiz-adv-x="1000" 
 />
    <glyph glyph-name="uni2002" unicode="&#x2002;" horiz-adv-x="500" 
 />
    <glyph glyph-name="uni2003" unicode="&#x2003;" horiz-adv-x="1000" 
 />
    <glyph glyph-name="uni2004" unicode="&#x2004;" horiz-adv-x="333" 
 />
    <glyph glyph-name="uni2005" unicode="&#x2005;" horiz-adv-x="250" 
 />
    <glyph glyph-name="uni2006" unicode="&#x2006;" horiz-adv-x="166" 
 />
    <glyph glyph-name="uni2007" unicode="&#x2007;" horiz-adv-x="592" 
 />
    <glyph glyph-name="uni2008" unicode="&#x2008;" horiz-adv-x="162" 
 />
    <glyph glyph-name="uni2009" unicode="&#x2009;" horiz-adv-x="200" 
 />
    <glyph glyph-name="uni200A" unicode="&#x200a;" horiz-adv-x="50" 
 />
    <glyph glyph-name="uni200B" unicode="&#x200b;" horiz-adv-x="0" 
 />
    <glyph glyph-name="uni2010" unicode="&#x2010;" horiz-adv-x="387" 
d="M70 278l4 20h287l-4 -20h-287z" />
    <glyph glyph-name="uni2012" unicode="&#x2012;" horiz-adv-x="592" 
d="M79 335l4 20h500l-5 -20h-499z" />
    <glyph glyph-name="endash" unicode="&#x2013;" horiz-adv-x="500" 
d="M20 278l4 20h500l-5 -20h-499z" />
    <glyph glyph-name="emdash" unicode="&#x2014;" horiz-adv-x="1000" 
d="M19 278l5 20h1000l-5 -20h-1000z" />
    <glyph glyph-name="uni2015" unicode="&#x2015;" horiz-adv-x="1000" 
d="M19 278l5 20h1000l-5 -20h-1000z" />
    <glyph glyph-name="quoteleft" unicode="&#x2018;" horiz-adv-x="157" 
d="M121 531l77 183h20l-73 -183h-24z" />
    <glyph glyph-name="quoteright" unicode="&#x2019;" horiz-adv-x="157" 
d="M121 531l73 183h24l-77 -183h-20z" />
    <glyph glyph-name="quotesinglbase" unicode="&#x201a;" horiz-adv-x="162" 
d="M-4 -86l73 183h24l-77 -183h-20z" />
    <glyph glyph-name="quotedblleft" unicode="&#x201c;" horiz-adv-x="270" 
d="M121 531l77 183h20l-73 -183h-24zM234 531l77 183h20l-73 -183h-24z" />
    <glyph glyph-name="quotedblright" unicode="&#x201d;" horiz-adv-x="270" 
d="M121 531l73 183h24l-77 -183h-20zM234 531l73 183h24l-77 -183h-20z" />
    <glyph glyph-name="quotedblbase" unicode="&#x201e;" horiz-adv-x="275" 
d="M-4 -86l73 183h24l-77 -183h-20zM109 -86l73 183h24l-77 -183h-20z" />
    <glyph glyph-name="dagger" unicode="&#x2020;" horiz-adv-x="447" 
d="M155 -87l121 568h-188l4 20h188l46 213h21l-46 -213h188l-4 -20h-188l-121 -568h-21z" />
    <glyph glyph-name="daggerdbl" unicode="&#x2021;" horiz-adv-x="447" 
d="M155 -87l46 213h-188l4 20h188l71 335h-188l4 20h188l46 213h21l-46 -213h188l-4 -20h-188l-71 -335h187l-4 -20h-187l-46 -213h-21z" />
    <glyph glyph-name="bullet" unicode="&#x2022;" horiz-adv-x="286" 
d="M279 365q0 -41 -27.5 -68.5t-70.5 -27.5t-70.5 27.5t-27.5 68.5t27.5 68.5t70.5 27.5t70.5 -27.5t27.5 -68.5z" />
    <glyph glyph-name="ellipsis" unicode="&#x2026;" horiz-adv-x="664" 
d="M30 0l21 97h22l-21 -97h-22zM281 0l21 97h22l-21 -97h-22zM532 0l21 97h22l-21 -97h-22z" />
    <glyph glyph-name="perthousand" unicode="&#x2030;" horiz-adv-x="1248" 
d="M198 0l500 691h25l-500 -691h-25zM634 -26q-64 0 -103.5 43t-39.5 115q0 74 24.5 134.5t69 97t101.5 36.5q64 0 103.5 -43t39.5 -115q0 -74 -24.5 -134.5t-69 -97t-101.5 -36.5zM634 -6q48 0 87 30.5t62.5 87t23.5 129.5q0 63 -33 101t-88 38q-48 0 -87 -30.5t-62.5 -87
t-23.5 -129.5q0 -63 33 -101t88 -38zM1026 -26q-64 0 -103.5 43t-39.5 115q0 74 24.5 134.5t69 97t101.5 36.5q64 0 103.5 -43t39.5 -115q0 -74 -24.5 -134.5t-69 -97t-101.5 -36.5zM1026 -6q48 0 87 30.5t62.5 87t23.5 129.5q0 63 -33 101t-88 38q-48 0 -87 -30.5
t-62.5 -87t-23.5 -129.5q0 -63 33 -101t88 -38zM233 281q-64 0 -103.5 43t-39.5 115q0 74 24.5 134.5t69 97t101.5 36.5q64 0 103.5 -43t39.5 -115q0 -74 -24.5 -134.5t-69 -97t-101.5 -36.5zM233 301q48 0 87 30.5t62.5 87t23.5 129.5q0 63 -33 101t-88 38q-48 0 -87 -30.5
t-62.5 -87t-23.5 -129.5q0 -63 33 -101t88 -38z" />
    <glyph glyph-name="minute" unicode="&#x2032;" horiz-adv-x="200" 
d="M120 472l99 242h23l-103 -242h-19z" />
    <glyph glyph-name="second" unicode="&#x2033;" horiz-adv-x="357" 
d="M120 472l99 242h23l-103 -242h-19zM277 472l99 242h23l-103 -242h-19z" />
    <glyph glyph-name="guilsinglleft" unicode="&#x2039;" horiz-adv-x="260" 
d="M152 34l-99 222l194 222h25l-196 -224l98 -220h-22z" />
    <glyph glyph-name="guilsinglright" unicode="&#x203a;" horiz-adv-x="260" 
d="M17 34l196 224l-98 220h22l99 -222l-194 -222h-25z" />
    <glyph glyph-name="fraction" unicode="&#x2044;" horiz-adv-x="48" 
d="M-205 0l500 691h25l-500 -691h-25z" />
    <glyph glyph-name="uni2070" unicode="&#x2070;" 
d="M245 281q-64 0 -103.5 43t-39.5 115q0 74 24.5 134.5t69 97t101.5 36.5q64 0 103.5 -43t39.5 -115q0 -74 -24.5 -134.5t-69 -97t-101.5 -36.5zM245 301q48 0 87 30.5t62.5 87t23.5 129.5q0 63 -33 101t-88 38q-48 0 -87 -30.5t-62.5 -87t-23.5 -129.5q0 -63 33 -101
t88 -38z" />
    <glyph glyph-name="uni2074" unicode="&#x2074;" 
d="M289 294l24 113h-209l3 16l266 271h22l-57 -267h49l-9 -20h-44l-24 -113h-21zM367 661l-230 -234h180z" />
    <glyph glyph-name="uni2075" unicode="&#x2075;" 
d="M136 386q1 -26 14 -45t36.5 -29.5t55.5 -10.5q58 0 91.5 35.5t33.5 95.5q0 92 -96 92q-56 0 -103 -36h-20l57 206h213l-5 -20h-194l-45 -163q44 33 100 33q55 0 85 -29.5t30 -82.5q0 -68 -40.5 -109.5t-107.5 -41.5q-58 0 -91 28t-33 77h19z" />
    <glyph glyph-name="uni2076" unicode="&#x2076;" 
d="M412 617q-8 38 -27.5 53.5t-57.5 15.5q-66 0 -111 -55t-61 -156q20 35 53.5 53t78.5 18q53 0 83.5 -30.5t30.5 -84.5q0 -66 -41 -108t-105 -42q-49 0 -81 26q-44 35 -44 112q0 78 25 143t70.5 104.5t102.5 39.5q44 0 70.5 -22t31.5 -64zM256 302q55 0 89 35t34 93
q0 47 -25 71.5t-72 24.5q-56 0 -93 -35t-37 -88q0 -47 28 -74t76 -27z" />
    <glyph glyph-name="uni2077" unicode="&#x2077;" 
d="M182 294q48 98 100.5 183t134.5 196h-246l4 20h271l-4 -18q-150 -199 -235 -381h-25z" />
    <glyph glyph-name="uni2078" unicode="&#x2078;" 
d="M323 494q69 -25 69 -94q0 -54 -43 -86.5t-114 -32.5q-62 0 -96.5 26.5t-34.5 75.5q0 46 29.5 76.5t81.5 39.5q-29 12 -44.5 36t-15.5 56q0 52 38.5 84t102.5 32q57 0 89 -26.5t32 -74.5q0 -42 -25 -72t-69 -40zM369 401q0 41 -28.5 63t-82.5 22q-62 0 -97 -27t-35 -74
q0 -41 28 -62.5t82 -21.5q62 0 97.5 26.5t35.5 73.5zM395 604q0 41 -26 62t-75 21q-55 0 -86 -25.5t-31 -70.5q0 -41 26 -63t74 -22q55 0 86.5 26.5t31.5 71.5z" />
    <glyph glyph-name="uni2079" unicode="&#x2079;" 
d="M124 372q7 -34 33 -52.5t67 -18.5q69 0 110 56.5t49 162.5q-18 -38 -52.5 -58.5t-80.5 -20.5q-55 0 -85.5 30t-30.5 85q0 66 40.5 108t104.5 42q49 0 82 -25q23 -18 33.5 -47.5t10.5 -77.5q0 -128 -48.5 -201.5t-133.5 -73.5q-51 0 -82 24t-36 67h19zM383 584
q0 47 -28 74t-76 27q-55 0 -89 -35t-34 -93q0 -47 25 -71.5t72 -24.5q56 0 93 35t37 88z" />
    <glyph glyph-name="uni2080" unicode="&#x2080;" 
d="M183 -13q-64 0 -103.5 43t-39.5 115q0 74 24.5 134.5t69 97t101.5 36.5q64 0 103.5 -43t39.5 -115q0 -74 -24.5 -134.5t-69 -97t-101.5 -36.5zM183 7q48 0 87 30.5t62.5 87t23.5 129.5q0 63 -33 101t-88 38q-48 0 -87 -30.5t-62.5 -87t-23.5 -129.5q0 -63 33 -101t88 -38
z" />
    <glyph glyph-name="uni2081" unicode="&#x2081;" 
d="M173 0l79 375l-121 -56l-8 18l135 63h21l-85 -400h-21z" />
    <glyph glyph-name="uni2082" unicode="&#x2082;" 
d="M36 0l5 21l137 98q66 47 97.5 76.5t43.5 53.5t12 54q0 43 -24 66.5t-68 23.5t-75.5 -22.5t-45.5 -64.5l-19 5q13 47 51.5 74.5t89.5 27.5q53 0 83 -29t30 -79q0 -37 -15.5 -65t-51.5 -60.5t-104 -81.5l-108 -78h228l-9 -20h-257z" />
    <glyph glyph-name="uni2083" unicode="&#x2083;" 
d="M155 199l4 20h46q56 0 87.5 25t31.5 68q0 39 -25 60t-71 21q-90 0 -118 -82l-21 3q14 47 50.5 73t90.5 26t85 -26t31 -72q0 -40 -25 -69.5t-63 -35.5q28 -7 43.5 -31t15.5 -60q0 -59 -38.5 -95.5t-100.5 -36.5q-59 0 -94.5 29t-35.5 77v7h20q0 -42 29.5 -67.5t79.5 -25.5
q54 0 86 30.5t32 82.5q0 38 -19.5 58.5t-56.5 20.5h-64z" />
    <glyph glyph-name="uni2084" unicode="&#x2084;" 
d="M227 0l24 113h-209l3 16l266 271h22l-57 -267h49l-9 -20h-44l-24 -113h-21zM305 367l-230 -234h180z" />
    <glyph glyph-name="uni2085" unicode="&#x2085;" 
d="M74 92q1 -26 14 -45t36.5 -29.5t55.5 -10.5q58 0 91.5 35.5t33.5 95.5q0 92 -96 92q-56 0 -103 -36h-20l57 206h213l-5 -20h-194l-45 -163q44 33 100 33q55 0 85 -29.5t30 -82.5q0 -68 -40.5 -109.5t-107.5 -41.5q-58 0 -91 28t-33 77h19z" />
    <glyph glyph-name="uni2086" unicode="&#x2086;" 
d="M350 323q-8 38 -27.5 53.5t-57.5 15.5q-66 0 -111 -55t-61 -156q20 35 53.5 53t78.5 18q53 0 83.5 -30.5t30.5 -84.5q0 -66 -41 -108t-105 -42q-49 0 -81 26q-44 35 -44 112q0 78 25 143t70.5 104.5t102.5 39.5q44 0 70.5 -22t31.5 -64zM194 8q55 0 89 35t34 93
q0 47 -25 71.5t-72 24.5q-56 0 -93 -35t-37 -88q0 -47 28 -74t76 -27z" />
    <glyph glyph-name="uni2087" unicode="&#x2087;" 
d="M120 0q48 98 100.5 183t134.5 196h-246l4 20h271l-4 -18q-150 -199 -235 -381h-25z" />
    <glyph glyph-name="uni2088" unicode="&#x2088;" 
d="M261 200q69 -25 69 -94q0 -54 -43 -86.5t-114 -32.5q-62 0 -96.5 26.5t-34.5 75.5q0 46 29.5 76.5t81.5 39.5q-29 12 -44.5 36t-15.5 56q0 52 38.5 84t102.5 32q57 0 89 -26.5t32 -74.5q0 -42 -25 -72t-69 -40zM307 107q0 41 -28.5 63t-82.5 22q-62 0 -97 -27t-35 -74
q0 -41 28 -62.5t82 -21.5q62 0 97.5 26.5t35.5 73.5zM333 310q0 41 -26 62t-75 21q-55 0 -86 -25.5t-31 -70.5q0 -41 26 -63t74 -22q55 0 86.5 26.5t31.5 71.5z" />
    <glyph glyph-name="uni2089" unicode="&#x2089;" 
d="M62 78q7 -34 33 -52.5t67 -18.5q69 0 110 56.5t49 162.5q-18 -38 -52.5 -58.5t-80.5 -20.5q-55 0 -85.5 30t-30.5 85q0 66 40.5 108t104.5 42q49 0 82 -25q23 -18 33.5 -47.5t10.5 -77.5q0 -128 -48.5 -201.5t-133.5 -73.5q-51 0 -82 24t-36 67h19zM321 290q0 47 -28 74
t-76 27q-55 0 -89 -35t-34 -93q0 -47 25 -71.5t72 -24.5q56 0 93 35t37 88z" />
    <glyph glyph-name="Euro" unicode="&#x20ac;" horiz-adv-x="592" 
d="M575 194q-48 -212 -244 -212q-111 0 -168 68t-57 199v9h-77l6 19h71q3 67 23 144h-66l6 19h65q39 130 115 200t180 70q85 0 137 -47.5t62 -134.5l-21 -4q-20 165 -177 165q-97 0 -167.5 -64t-107.5 -185h297l-6 -19h-296q-19 -73 -22 -144h260l-6 -19h-254v-8
q0 -247 204 -247q89 0 142.5 45.5t79.5 145.5h21z" />
    <glyph glyph-name="uni20B9" unicode="&#x20b9;" horiz-adv-x="592" 
d="M437 0l-314 304l4 21h109q100 0 162 42.5t72 118.5h-308l4 20h306v13q0 152 -184 152h-87l4 20h406l-6 -20h-208q46 -17 71.5 -56.5t25.5 -94.5v-14h68l-6 -20h-64q-12 -85 -81.5 -133.5t-176.5 -48.5h-81l314 -304h-30z" />
    <glyph glyph-name="uni20BA" unicode="&#x20ba;" horiz-adv-x="592" 
d="M529 267q-33 -141 -113 -204t-226 -63h-71l58 273l-87 -37l-6 17l97 42l29 135l-86 -37l-6 17l97 41l51 240h22l-49 -229l224 96l6 -17l-234 -101l-29 -135l223 96l6 -17l-233 -100l-56 -263h48q132 0 207.5 59t106.5 187h21z" />
    <glyph glyph-name="afii61289" unicode="&#x2113;" horiz-adv-x="288" 
d="M266 31q-16 -25 -35.5 -37t-44.5 -12q-82 0 -82 96v165l-53 -59l-14 14l67 76v345q0 49 20.5 77t56.5 28q80 0 80 -124q0 -89 -35 -174t-101 -159v-190q0 -75 61 -75q20 0 35 9t31 31zM125 298q54 60 84 139.5t30 162.5q0 54 -14 79t-44 25q-26 0 -41 -22t-15 -62v-322z
" />
    <glyph glyph-name="trademark" unicode="&#x2122;" horiz-adv-x="872" 
d="M190 314l81 380h-144l4 20h309l-4 -20h-144l-81 -380h-21zM797 314l78 367l-245 -367h-18l-89 367l-78 -367h-21l85 400h27l90 -372l248 372h29l-85 -400h-21z" />
    <glyph glyph-name="uni2126" unicode="&#x2126;" horiz-adv-x="716" 
d="M410 0l4 16q128 70 198.5 183.5t70.5 250.5q0 125 -62 193t-175 68q-94 0 -170 -49.5t-121 -141.5t-45 -210q0 -97 34 -171.5t98 -120.5l-4 -18h-232l4 21h196q-36 26 -62.5 70t-41.5 100.5t-15 118.5q0 116 45 212t127 153t186 57q124 0 192.5 -74.5t68.5 -208.5
q0 -130 -64.5 -242.5t-179.5 -185.5h191l-11 -21h-232z" />
    <glyph glyph-name="estimated" unicode="&#x212e;" horiz-adv-x="911" 
d="M812 129q-54 -66 -139 -103t-182 -37q-107 0 -198.5 46.5t-148.5 130t-57 186.5q0 95 51.5 178t145 135t207.5 52q106 0 198.5 -46.5t150.5 -131t58 -187.5v-10h-657q-5 0 -5 -4v-199q0 -13 9 -22q49 -53 112.5 -80.5t135.5 -27.5q75 0 142 31t119 89h58zM748 568
q0 14 -9 24q-50 50 -113.5 76.5t-132.5 26.5q-68 0 -131.5 -27.5t-115.5 -79.5q-10 -7 -10 -24v-195q0 -7 5 -7h503q4 0 4 7v199z" />
    <glyph glyph-name="oneseventh" unicode="&#x2150;" horiz-adv-x="879" 
d="M142 0l500 691h25l-500 -691h-25zM582 0q48 98 100.5 183t134.5 196h-246l4 20h271l-4 -18q-150 -199 -235 -381h-25zM189 291l79 375l-121 -56l-8 18l135 63h21l-85 -400h-21z" />
    <glyph glyph-name="oneninth" unicode="&#x2151;" horiz-adv-x="879" 
d="M153 0l500 691h25l-500 -691h-25zM544 78q7 -34 33 -52.5t67 -18.5q69 0 110 56.5t49 162.5q-18 -38 -52.5 -58.5t-80.5 -20.5q-55 0 -85.5 30t-30.5 85q0 66 40.5 108t104.5 42q49 0 82 -25q23 -18 33.5 -47.5t10.5 -77.5q0 -128 -48.5 -201.5t-133.5 -73.5
q-51 0 -82 24t-36 67h19zM803 290q0 47 -28 74t-76 27q-55 0 -89 -35t-34 -93q0 -47 25 -71.5t72 -24.5q56 0 93 35t37 88zM189 291l79 375l-121 -56l-8 18l135 63h21l-85 -400h-21z" />
    <glyph glyph-name="onethird" unicode="&#x2153;" horiz-adv-x="879" 
d="M148 0l500 691h25l-500 -691h-25zM621 199l4 20h46q56 0 87.5 25t31.5 68q0 39 -25 60t-71 21q-90 0 -118 -82l-21 3q14 47 50.5 73t90.5 26t85 -26t31 -72q0 -40 -25 -69.5t-63 -35.5q28 -7 43.5 -31t15.5 -60q0 -59 -38.5 -95.5t-100.5 -36.5q-59 0 -94.5 29t-35.5 77
v7h20q0 -42 29.5 -67.5t79.5 -25.5q54 0 86 30.5t32 82.5q0 38 -19.5 58.5t-56.5 20.5h-64zM189 291l79 375l-121 -56l-8 18l135 63h21l-85 -400h-21z" />
    <glyph glyph-name="twothirds" unicode="&#x2154;" horiz-adv-x="879" 
d="M222 0l500 691h25l-500 -691h-25zM621 199l4 20h46q56 0 87.5 25t31.5 68q0 39 -25 60t-71 21q-90 0 -118 -82l-21 3q14 47 50.5 73t90.5 26t85 -26t31 -72q0 -40 -25 -69.5t-63 -35.5q28 -7 43.5 -31t15.5 -60q0 -59 -38.5 -95.5t-100.5 -36.5q-59 0 -94.5 29t-35.5 77
v7h20q0 -42 29.5 -67.5t79.5 -25.5q54 0 86 30.5t32 82.5q0 38 -19.5 58.5t-56.5 20.5h-64zM98 291l5 21l137 98q66 47 97.5 76.5t43.5 53.5t12 54q0 43 -24 66.5t-68 23.5t-75.5 -22.5t-45.5 -64.5l-19 5q13 47 51.5 74.5t89.5 27.5q53 0 83 -29t30 -79q0 -37 -15.5 -65
t-51.5 -60.5t-104 -81.5l-108 -78h228l-9 -20h-257z" />
    <glyph glyph-name="onefifth" unicode="&#x2155;" horiz-adv-x="879" 
d="M146 0l500 691h25l-500 -691h-25zM534 92q1 -26 14 -45t36.5 -29.5t55.5 -10.5q58 0 91.5 35.5t33.5 95.5q0 92 -96 92q-56 0 -103 -36h-20l57 206h213l-5 -20h-194l-45 -163q44 33 100 33q55 0 85 -29.5t30 -82.5q0 -68 -40.5 -109.5t-107.5 -41.5q-58 0 -91 28t-33 77
h19zM189 291l79 375l-121 -56l-8 18l135 63h21l-85 -400h-21z" />
    <glyph glyph-name="twofifths" unicode="&#x2156;" horiz-adv-x="879" 
d="M219 0l500 691h25l-500 -691h-25zM534 92q1 -26 14 -45t36.5 -29.5t55.5 -10.5q58 0 91.5 35.5t33.5 95.5q0 92 -96 92q-56 0 -103 -36h-20l57 206h213l-5 -20h-194l-45 -163q44 33 100 33q55 0 85 -29.5t30 -82.5q0 -68 -40.5 -109.5t-107.5 -41.5q-58 0 -91 28t-33 77
h19zM98 291l5 21l137 98q66 47 97.5 76.5t43.5 53.5t12 54q0 43 -24 66.5t-68 23.5t-75.5 -22.5t-45.5 -64.5l-19 5q13 47 51.5 74.5t89.5 27.5q53 0 83 -29t30 -79q0 -37 -15.5 -65t-51.5 -60.5t-104 -81.5l-108 -78h228l-9 -20h-257z" />
    <glyph glyph-name="threefifths" unicode="&#x2157;" horiz-adv-x="879" 
d="M205 0l500 691h25l-500 -691h-25zM534 92q1 -26 14 -45t36.5 -29.5t55.5 -10.5q58 0 91.5 35.5t33.5 95.5q0 92 -96 92q-56 0 -103 -36h-20l57 206h213l-5 -20h-194l-45 -163q44 33 100 33q55 0 85 -29.5t30 -82.5q0 -68 -40.5 -109.5t-107.5 -41.5q-58 0 -91 28t-33 77
h19zM213 490l4 20h46q56 0 87.5 25t31.5 68q0 39 -25 60t-71 21q-90 0 -118 -82l-21 3q14 47 50.5 73t90.5 26t85 -26t31 -72q0 -40 -25 -69.5t-63 -35.5q28 -7 43.5 -31t15.5 -60q0 -59 -38.5 -95.5t-100.5 -36.5q-59 0 -94.5 29t-35.5 77v7h20q0 -42 29.5 -67.5
t79.5 -25.5q54 0 86 30.5t32 82.5q0 38 -19.5 58.5t-56.5 20.5h-64z" />
    <glyph glyph-name="fourfifths" unicode="&#x2158;" horiz-adv-x="879" 
d="M207 0l500 691h25l-500 -691h-25zM534 92q1 -26 14 -45t36.5 -29.5t55.5 -10.5q58 0 91.5 35.5t33.5 95.5q0 92 -96 92q-56 0 -103 -36h-20l57 206h213l-5 -20h-194l-45 -163q44 33 100 33q55 0 85 -29.5t30 -82.5q0 -68 -40.5 -109.5t-107.5 -41.5q-58 0 -91 28t-33 77
h19zM302 291l24 113h-209l3 16l266 271h22l-57 -267h49l-9 -20h-44l-24 -113h-21zM380 658l-230 -234h180z" />
    <glyph glyph-name="onesixth" unicode="&#x2159;" horiz-adv-x="879" 
d="M166 0l500 691h25l-500 -691h-25zM817 323q-8 38 -27.5 53.5t-57.5 15.5q-66 0 -111 -55t-61 -156q20 35 53.5 53t78.5 18q53 0 83.5 -30.5t30.5 -84.5q0 -66 -41 -108t-105 -42q-49 0 -81 26q-44 35 -44 112q0 78 25 143t70.5 104.5t102.5 39.5q44 0 70.5 -22t31.5 -64z
M661 8q55 0 89 35t34 93q0 47 -25 71.5t-72 24.5q-56 0 -93 -35t-37 -88q0 -47 28 -74t76 -27zM189 291l79 375l-121 -56l-8 18l135 63h21l-85 -400h-21z" />
    <glyph glyph-name="fivesixths" unicode="&#x215a;" horiz-adv-x="879" 
d="M222 0l500 691h25l-500 -691h-25zM817 323q-8 38 -27.5 53.5t-57.5 15.5q-66 0 -111 -55t-61 -156q20 35 53.5 53t78.5 18q53 0 83.5 -30.5t30.5 -84.5q0 -66 -41 -108t-105 -42q-49 0 -81 26q-44 35 -44 112q0 78 25 143t70.5 104.5t102.5 39.5q44 0 70.5 -22t31.5 -64z
M661 8q55 0 89 35t34 93q0 47 -25 71.5t-72 24.5q-56 0 -93 -35t-37 -88q0 -47 28 -74t76 -27zM137 383q1 -26 14 -45t36.5 -29.5t55.5 -10.5q58 0 91.5 35.5t33.5 95.5q0 92 -96 92q-56 0 -103 -36h-20l57 206h213l-5 -20h-194l-45 -163q44 33 100 33q55 0 85 -29.5
t30 -82.5q0 -68 -40.5 -109.5t-107.5 -41.5q-58 0 -91 28t-33 77h19z" />
    <glyph glyph-name="oneeighth" unicode="&#x215b;" horiz-adv-x="879" 
d="M157 0l500 691h25l-500 -691h-25zM730 200q69 -25 69 -94q0 -54 -43 -86.5t-114 -32.5q-62 0 -96.5 26.5t-34.5 75.5q0 46 29.5 76.5t81.5 39.5q-29 12 -44.5 36t-15.5 56q0 52 38.5 84t102.5 32q57 0 89 -26.5t32 -74.5q0 -42 -25 -72t-69 -40zM776 107q0 41 -28.5 63
t-82.5 22q-62 0 -97 -27t-35 -74q0 -41 28 -62.5t82 -21.5q62 0 97.5 26.5t35.5 73.5zM802 310q0 41 -26 62t-75 21q-55 0 -86 -25.5t-31 -70.5q0 -41 26 -63t74 -22q55 0 86.5 26.5t31.5 71.5zM189 291l79 375l-121 -56l-8 18l135 63h21l-85 -400h-21z" />
    <glyph glyph-name="threeeighths" unicode="&#x215c;" horiz-adv-x="879" 
d="M206 0l500 691h25l-500 -691h-25zM730 200q69 -25 69 -94q0 -54 -43 -86.5t-114 -32.5q-62 0 -96.5 26.5t-34.5 75.5q0 46 29.5 76.5t81.5 39.5q-29 12 -44.5 36t-15.5 56q0 52 38.5 84t102.5 32q57 0 89 -26.5t32 -74.5q0 -42 -25 -72t-69 -40zM776 107q0 41 -28.5 63
t-82.5 22q-62 0 -97 -27t-35 -74q0 -41 28 -62.5t82 -21.5q62 0 97.5 26.5t35.5 73.5zM802 310q0 41 -26 62t-75 21q-55 0 -86 -25.5t-31 -70.5q0 -41 26 -63t74 -22q55 0 86.5 26.5t31.5 71.5zM213 490l4 20h46q56 0 87.5 25t31.5 68q0 39 -25 60t-71 21q-90 0 -118 -82
l-21 3q14 47 50.5 73t90.5 26t85 -26t31 -72q0 -40 -25 -69.5t-63 -35.5q28 -7 43.5 -31t15.5 -60q0 -59 -38.5 -95.5t-100.5 -36.5q-59 0 -94.5 29t-35.5 77v7h20q0 -42 29.5 -67.5t79.5 -25.5q54 0 86 30.5t32 82.5q0 38 -19.5 58.5t-56.5 20.5h-64z" />
    <glyph glyph-name="fiveeighths" unicode="&#x215d;" horiz-adv-x="879" 
d="M213 0l500 691h25l-500 -691h-25zM730 200q69 -25 69 -94q0 -54 -43 -86.5t-114 -32.5q-62 0 -96.5 26.5t-34.5 75.5q0 46 29.5 76.5t81.5 39.5q-29 12 -44.5 36t-15.5 56q0 52 38.5 84t102.5 32q57 0 89 -26.5t32 -74.5q0 -42 -25 -72t-69 -40zM776 107q0 41 -28.5 63
t-82.5 22q-62 0 -97 -27t-35 -74q0 -41 28 -62.5t82 -21.5q62 0 97.5 26.5t35.5 73.5zM802 310q0 41 -26 62t-75 21q-55 0 -86 -25.5t-31 -70.5q0 -41 26 -63t74 -22q55 0 86.5 26.5t31.5 71.5zM137 383q1 -26 14 -45t36.5 -29.5t55.5 -10.5q58 0 91.5 35.5t33.5 95.5
q0 92 -96 92q-56 0 -103 -36h-20l57 206h213l-5 -20h-194l-45 -163q44 33 100 33q55 0 85 -29.5t30 -82.5q0 -68 -40.5 -109.5t-107.5 -41.5q-58 0 -91 28t-33 77h19z" />
    <glyph glyph-name="seveneighths" unicode="&#x215e;" horiz-adv-x="879" 
d="M159 0l500 691h25l-500 -691h-25zM730 200q69 -25 69 -94q0 -54 -43 -86.5t-114 -32.5q-62 0 -96.5 26.5t-34.5 75.5q0 46 29.5 76.5t81.5 39.5q-29 12 -44.5 36t-15.5 56q0 52 38.5 84t102.5 32q57 0 89 -26.5t32 -74.5q0 -42 -25 -72t-69 -40zM776 107q0 41 -28.5 63
t-82.5 22q-62 0 -97 -27t-35 -74q0 -41 28 -62.5t82 -21.5q62 0 97.5 26.5t35.5 73.5zM802 310q0 41 -26 62t-75 21q-55 0 -86 -25.5t-31 -70.5q0 -41 26 -63t74 -22q55 0 86.5 26.5t31.5 71.5zM173 291q48 98 100.5 183t134.5 196h-246l4 20h271l-4 -18
q-150 -199 -235 -381h-25z" />
    <glyph glyph-name="partialdiff" unicode="&#x2202;" horiz-adv-x="561" 
d="M115 559q40 151 190 151q102 0 151.5 -74t49.5 -229q0 -133 -31 -228t-90.5 -146t-144.5 -51q-88 0 -141.5 56t-53.5 147q0 67 28.5 122t81 87.5t120.5 32.5q82 0 137.5 -44t62.5 -116q10 73 10 139q0 147 -44 215.5t-139 68.5q-66 0 -106.5 -32.5t-61.5 -102.5zM240 2
q57 0 107 30.5t81.5 86t31.5 121.5q0 75 -51.5 120.5t-135.5 45.5q-58 0 -104.5 -27.5t-74 -77.5t-27.5 -116q0 -83 47.5 -133t125.5 -50z" />
    <glyph glyph-name="uni2206" unicode="&#x2206;" horiz-adv-x="621" 
d="M-19 0l428 714h25l127 -714h-580zM418 691l-399 -670h515z" />
    <glyph glyph-name="product" unicode="&#x220f;" horiz-adv-x="651" 
d="M504 0l147 693h-437l-147 -693h-21l151 714h479l-151 -714h-21z" />
    <glyph glyph-name="summation" unicode="&#x2211;" horiz-adv-x="552" 
d="M-29 -102l4 20l331 394l-163 381l4 21h476l-4 -21h-454l165 -384l-328 -390h464l-11 -21h-484z" />
    <glyph glyph-name="minus" unicode="&#x2212;" horiz-adv-x="592" 
d="M112 330l5 20h426l-5 -20h-426z" />
    <glyph glyph-name="uni2215" unicode="&#x2215;" horiz-adv-x="48" 
d="M-205 0l500 691h25l-500 -691h-25z" />
    <glyph glyph-name="uni2219" unicode="&#x2219;" horiz-adv-x="162" 
d="M116 325l21 97h22l-21 -97h-22z" />
    <glyph glyph-name="radical" unicode="&#x221a;" horiz-adv-x="522" 
d="M189 0l-74 335h-78l4 20h90l73 -331l408 707h21l-422 -731h-22z" />
    <glyph glyph-name="infinity" unicode="&#x221e;" horiz-adv-x="596" 
d="M321 342q-10 134 -110 134q-56 0 -92 -47t-36 -121q0 -47 23 -73.5t65 -26.5q44 0 79.5 32t70.5 102zM326 313q-34 -66 -71.5 -95.5t-85.5 -29.5q-49 0 -78 32.5t-29 85.5q0 84 42.5 137t109.5 53q50 0 82 -33t39 -92q34 66 71.5 95.5t85.5 29.5q49 0 78 -32.5t29 -85.5
q0 -84 -42.5 -137t-109.5 -53q-50 0 -82 33t-39 92zM340 342q10 -134 110 -134q56 0 92 47t36 121q0 47 -23 73.5t-65 26.5q-44 0 -79.5 -32t-70.5 -102z" />
    <glyph glyph-name="integral" unicode="&#x222b;" horiz-adv-x="283" 
d="M183 595q11 127 110 127q23 0 57 -14l-8 -18q-20 12 -48 12q-42 0 -63.5 -26t-25.5 -81l-47 -588q-11 -127 -110 -127q-23 0 -57 14l8 18q20 -12 48 -12q42 0 63.5 26t25.5 81z" />
    <glyph glyph-name="approxequal" unicode="&#x2248;" horiz-adv-x="592" 
d="M540 277q-12 -68 -45.5 -104t-83.5 -36q-29 0 -54 13.5t-57 46.5q-46 47 -67 60.5t-48 13.5q-42 0 -69.5 -31t-37.5 -89h-21q12 68 45.5 104t83.5 36q29 0 54 -13.5t57 -46.5q46 -47 67 -60.5t48 -13.5q42 0 69.5 31t37.5 89h21zM585 508q-12 -68 -45.5 -104t-83.5 -36
q-29 0 -54 13.5t-57 46.5q-46 47 -67 60.5t-48 13.5q-42 0 -69.5 -31t-37.5 -89h-21q12 68 45.5 104t83.5 36q29 0 54 -13.5t57 -46.5q46 -47 67 -60.5t48 -13.5q42 0 69.5 31t37.5 89h21z" />
    <glyph glyph-name="notequal" unicode="&#x2260;" horiz-adv-x="592" 
d="M240 217l-95 -118h-25l95 118h-127l5 20h138l168 206h-263l5 20h274l95 118h25l-95 -118h127l-5 -20h-138l-168 -206h263l-5 -20h-274z" />
    <glyph glyph-name="lessequal" unicode="&#x2264;" horiz-adv-x="592" 
d="M15 0l4 20h437l-4 -20h-437zM86 330l4 17l485 227l-5 -24l-454 -213l364 -212l-5 -21z" />
    <glyph glyph-name="greaterequal" unicode="&#x2265;" horiz-adv-x="592" 
d="M34 0l4 20h437l-4 -20h-437zM56 104l5 24l454 213l-364 212l5 21l389 -226l-4 -17z" />
    <glyph glyph-name="lozenge" unicode="&#x25ca;" horiz-adv-x="591" 
d="M248 0l-163 357l315 357h23l163 -357l-315 -357h-23zM562 360l-152 333l-301 -339l152 -333z" />
    <glyph glyph-name="twosevenths" unicode="&#xf507;" horiz-adv-x="879" 
d="M206 0l500 691h25l-500 -691h-25zM582 0q48 98 100.5 183t134.5 196h-246l4 20h271l-4 -18q-150 -199 -235 -381h-25zM98 291l5 21l137 98q66 47 97.5 76.5t43.5 53.5t12 54q0 43 -24 66.5t-68 23.5t-75.5 -22.5t-45.5 -64.5l-19 5q13 47 51.5 74.5t89.5 27.5
q53 0 83 -29t30 -79q0 -37 -15.5 -65t-51.5 -60.5t-104 -81.5l-108 -78h228l-9 -20h-257z" />
    <glyph glyph-name="threesevenths" unicode="&#xf508;" horiz-adv-x="879" 
d="M194 0l500 691h25l-500 -691h-25zM582 0q48 98 100.5 183t134.5 196h-246l4 20h271l-4 -18q-150 -199 -235 -381h-25zM213 490l4 20h46q56 0 87.5 25t31.5 68q0 39 -25 60t-71 21q-90 0 -118 -82l-21 3q14 47 50.5 73t90.5 26t85 -26t31 -72q0 -40 -25 -69.5t-63 -35.5
q28 -7 43.5 -31t15.5 -60q0 -59 -38.5 -95.5t-100.5 -36.5q-59 0 -94.5 29t-35.5 77v7h20q0 -42 29.5 -67.5t79.5 -25.5q54 0 86 30.5t32 82.5q0 38 -19.5 58.5t-56.5 20.5h-64z" />
    <glyph glyph-name="foursevenths" unicode="&#xf509;" horiz-adv-x="879" 
d="M193 0l500 691h25l-500 -691h-25zM582 0q48 98 100.5 183t134.5 196h-246l4 20h271l-4 -18q-150 -199 -235 -381h-25zM302 291l24 113h-209l3 16l266 271h22l-57 -267h49l-9 -20h-44l-24 -113h-21zM380 658l-230 -234h180z" />
    <glyph glyph-name="fivesevenths" unicode="&#xf50a;" horiz-adv-x="879" 
d="M195 0l500 691h25l-500 -691h-25zM582 0q48 98 100.5 183t134.5 196h-246l4 20h271l-4 -18q-150 -199 -235 -381h-25zM137 383q1 -26 14 -45t36.5 -29.5t55.5 -10.5q58 0 91.5 35.5t33.5 95.5q0 92 -96 92q-56 0 -103 -36h-20l57 206h213l-5 -20h-194l-45 -163
q44 33 100 33q55 0 85 -29.5t30 -82.5q0 -68 -40.5 -109.5t-107.5 -41.5q-58 0 -91 28t-33 77h19z" />
    <glyph glyph-name="sixsevenths" unicode="&#xf50b;" horiz-adv-x="879" 
d="M202 0l500 691h25l-500 -691h-25zM582 0q48 98 100.5 183t134.5 196h-246l4 20h271l-4 -18q-150 -199 -235 -381h-25zM414 614q-8 38 -27.5 53.5t-57.5 15.5q-66 0 -111 -55t-61 -156q20 35 53.5 53t78.5 18q53 0 83.5 -30.5t30.5 -84.5q0 -66 -41 -108t-105 -42
q-49 0 -81 26q-44 35 -44 112q0 78 25 143t70.5 104.5t102.5 39.5q44 0 70.5 -22t31.5 -64zM258 299q55 0 89 35t34 93q0 47 -25 71.5t-72 24.5q-56 0 -93 -35t-37 -88q0 -47 28 -74t76 -27z" />
    <glyph glyph-name="twoninths" unicode="&#xf50d;" horiz-adv-x="879" 
d="M228 0l500 691h25l-500 -691h-25zM544 78q7 -34 33 -52.5t67 -18.5q69 0 110 56.5t49 162.5q-18 -38 -52.5 -58.5t-80.5 -20.5q-55 0 -85.5 30t-30.5 85q0 66 40.5 108t104.5 42q49 0 82 -25q23 -18 33.5 -47.5t10.5 -77.5q0 -128 -48.5 -201.5t-133.5 -73.5
q-51 0 -82 24t-36 67h19zM803 290q0 47 -28 74t-76 27q-55 0 -89 -35t-34 -93q0 -47 25 -71.5t72 -24.5q56 0 93 35t37 88zM98 291l5 21l137 98q66 47 97.5 76.5t43.5 53.5t12 54q0 43 -24 66.5t-68 23.5t-75.5 -22.5t-45.5 -64.5l-19 5q13 47 51.5 74.5t89.5 27.5
q53 0 83 -29t30 -79q0 -37 -15.5 -65t-51.5 -60.5t-104 -81.5l-108 -78h228l-9 -20h-257z" />
    <glyph glyph-name="fourninths" unicode="&#xf50e;" horiz-adv-x="879" 
d="M213 0l500 691h25l-500 -691h-25zM544 78q7 -34 33 -52.5t67 -18.5q69 0 110 56.5t49 162.5q-18 -38 -52.5 -58.5t-80.5 -20.5q-55 0 -85.5 30t-30.5 85q0 66 40.5 108t104.5 42q49 0 82 -25q23 -18 33.5 -47.5t10.5 -77.5q0 -128 -48.5 -201.5t-133.5 -73.5
q-51 0 -82 24t-36 67h19zM803 290q0 47 -28 74t-76 27q-55 0 -89 -35t-34 -93q0 -47 25 -71.5t72 -24.5q56 0 93 35t37 88zM302 292l24 113h-209l3 16l266 271h22l-57 -267h49l-9 -20h-44l-24 -113h-21zM380 659l-230 -234h180z" />
    <glyph glyph-name="fiveninths" unicode="&#xf50f;" horiz-adv-x="879" 
d="M213 0l500 691h25l-500 -691h-25zM544 78q7 -34 33 -52.5t67 -18.5q69 0 110 56.5t49 162.5q-18 -38 -52.5 -58.5t-80.5 -20.5q-55 0 -85.5 30t-30.5 85q0 66 40.5 108t104.5 42q49 0 82 -25q23 -18 33.5 -47.5t10.5 -77.5q0 -128 -48.5 -201.5t-133.5 -73.5
q-51 0 -82 24t-36 67h19zM803 290q0 47 -28 74t-76 27q-55 0 -89 -35t-34 -93q0 -47 25 -71.5t72 -24.5q56 0 93 35t37 88zM137 383q1 -26 14 -45t36.5 -29.5t55.5 -10.5q58 0 91.5 35.5t33.5 95.5q0 92 -96 92q-56 0 -103 -36h-20l57 206h213l-5 -20h-194l-45 -163
q44 33 100 33q55 0 85 -29.5t30 -82.5q0 -68 -40.5 -109.5t-107.5 -41.5q-58 0 -91 28t-33 77h19z" />
    <glyph glyph-name="sevenninths" unicode="&#xf510;" horiz-adv-x="879" 
d="M163 0l500 691h25l-500 -691h-25zM544 78q7 -34 33 -52.5t67 -18.5q69 0 110 56.5t49 162.5q-18 -38 -52.5 -58.5t-80.5 -20.5q-55 0 -85.5 30t-30.5 85q0 66 40.5 108t104.5 42q49 0 82 -25q23 -18 33.5 -47.5t10.5 -77.5q0 -128 -48.5 -201.5t-133.5 -73.5
q-51 0 -82 24t-36 67h19zM803 290q0 47 -28 74t-76 27q-55 0 -89 -35t-34 -93q0 -47 25 -71.5t72 -24.5q56 0 93 35t37 88zM173 291q48 98 100.5 183t134.5 196h-246l4 20h271l-4 -18q-150 -199 -235 -381h-25z" />
    <glyph glyph-name="eightninths" unicode="&#xf511;" horiz-adv-x="879" 
d="M217 0l500 691h25l-500 -691h-25zM544 78q7 -34 33 -52.5t67 -18.5q69 0 110 56.5t49 162.5q-18 -38 -52.5 -58.5t-80.5 -20.5q-55 0 -85.5 30t-30.5 85q0 66 40.5 108t104.5 42q49 0 82 -25q23 -18 33.5 -47.5t10.5 -77.5q0 -128 -48.5 -201.5t-133.5 -73.5
q-51 0 -82 24t-36 67h19zM803 290q0 47 -28 74t-76 27q-55 0 -89 -35t-34 -93q0 -47 25 -71.5t72 -24.5q56 0 93 35t37 88zM327 491q69 -25 69 -94q0 -54 -43 -86.5t-114 -32.5q-62 0 -96.5 26.5t-34.5 75.5q0 46 29.5 76.5t81.5 39.5q-29 12 -44.5 36t-15.5 56
q0 52 38.5 84t102.5 32q57 0 89 -26.5t32 -74.5q0 -42 -25 -72t-69 -40zM373 398q0 41 -28.5 63t-82.5 22q-62 0 -97 -27t-35 -74q0 -41 28 -62.5t82 -21.5q62 0 97.5 26.5t35.5 73.5zM399 601q0 41 -26 62t-75 21q-55 0 -86 -25.5t-31 -70.5q0 -41 26 -63t74 -22
q55 0 86.5 26.5t31.5 71.5z" />
    <glyph glyph-name="zero.numr" unicode="&#xf80a;" 
d="M271 404q-64 0 -103.5 43t-39.5 115q0 74 24.5 134.5t69 97t101.5 36.5q64 0 103.5 -43t39.5 -115q0 -74 -24.5 -134.5t-69 -97t-101.5 -36.5zM271 424q48 0 87 30.5t62.5 87t23.5 129.5q0 63 -33 101t-88 38q-48 0 -87 -30.5t-62.5 -87t-23.5 -129.5q0 -63 33 -101
t88 -38z" />
    <glyph glyph-name="one.numr" unicode="&#xf80b;" 
d="M261 417l79 375l-121 -56l-8 18l135 63h21l-85 -400h-21z" />
    <glyph glyph-name="two.numr" unicode="&#xf80c;" 
d="M124 417l5 21l137 98q66 47 97.5 76.5t43.5 53.5t12 54q0 43 -24 66.5t-68 23.5t-75.5 -22.5t-45.5 -64.5l-19 5q13 47 51.5 74.5t89.5 27.5q53 0 83 -29t30 -79q0 -37 -15.5 -65t-51.5 -60.5t-104 -81.5l-108 -78h228l-9 -20h-257z" />
    <glyph glyph-name="three.numr" unicode="&#xf80d;" 
d="M243 616l4 20h46q56 0 87.5 25t31.5 68q0 39 -25 60t-71 21q-90 0 -118 -82l-21 3q14 47 50.5 73t90.5 26t85 -26t31 -72q0 -40 -25 -69.5t-63 -35.5q28 -7 43.5 -31t15.5 -60q0 -59 -38.5 -95.5t-100.5 -36.5q-59 0 -94.5 29t-35.5 77v7h20q0 -42 29.5 -67.5t79.5 -25.5
q54 0 86 30.5t32 82.5q0 38 -19.5 58.5t-56.5 20.5h-64z" />
    <glyph glyph-name="four.numr" unicode="&#xf80e;" 
d="M315 417l24 113h-209l3 16l266 271h22l-57 -267h49l-9 -20h-44l-24 -113h-21zM393 784l-230 -234h180z" />
    <glyph glyph-name="five.numr" unicode="&#xf80f;" 
d="M162 509q1 -26 14 -45t36.5 -29.5t55.5 -10.5q58 0 91.5 35.5t33.5 95.5q0 92 -96 92q-56 0 -103 -36h-20l57 206h213l-5 -20h-194l-45 -163q44 33 100 33q55 0 85 -29.5t30 -82.5q0 -68 -40.5 -109.5t-107.5 -41.5q-58 0 -91 28t-33 77h19z" />
    <glyph glyph-name="six.numr" unicode="&#xf810;" 
d="M438 740q-8 38 -27.5 53.5t-57.5 15.5q-66 0 -111 -55t-61 -156q20 35 53.5 53t78.5 18q53 0 83.5 -30.5t30.5 -84.5q0 -66 -41 -108t-105 -42q-49 0 -81 26q-44 35 -44 112q0 78 25 143t70.5 104.5t102.5 39.5q44 0 70.5 -22t31.5 -64zM282 425q55 0 89 35t34 93
q0 47 -25 71.5t-72 24.5q-56 0 -93 -35t-37 -88q0 -47 28 -74t76 -27z" />
    <glyph glyph-name="seven.numr" unicode="&#xf811;" 
d="M208 417q48 98 100.5 183t134.5 196h-246l4 20h271l-4 -18q-150 -199 -235 -381h-25z" />
    <glyph glyph-name="eight.numr" unicode="&#xf812;" 
d="M349 617q69 -25 69 -94q0 -54 -43 -86.5t-114 -32.5q-62 0 -96.5 26.5t-34.5 75.5q0 46 29.5 76.5t81.5 39.5q-29 12 -44.5 36t-15.5 56q0 52 38.5 84t102.5 32q57 0 89 -26.5t32 -74.5q0 -42 -25 -72t-69 -40zM395 524q0 41 -28.5 63t-82.5 22q-62 0 -97 -27t-35 -74
q0 -41 28 -62.5t82 -21.5q62 0 97.5 26.5t35.5 73.5zM421 727q0 41 -26 62t-75 21q-55 0 -86 -25.5t-31 -70.5q0 -41 26 -63t74 -22q55 0 86.5 26.5t31.5 71.5z" />
    <glyph glyph-name="nine.numr" unicode="&#xf813;" 
d="M150 495q7 -34 33 -52.5t67 -18.5q69 0 110 56.5t49 162.5q-18 -38 -52.5 -58.5t-80.5 -20.5q-55 0 -85.5 30t-30.5 85q0 66 40.5 108t104.5 42q49 0 82 -25q23 -18 33.5 -47.5t10.5 -77.5q0 -128 -48.5 -201.5t-133.5 -73.5q-51 0 -82 24t-36 67h19zM409 707
q0 47 -28 74t-76 27q-55 0 -89 -35t-34 -93q0 -47 25 -71.5t72 -24.5q56 0 93 35t37 88z" />
    <glyph glyph-name="zero.dnom" unicode="&#xf814;" 
d="M157 -140q-64 0 -103.5 43t-39.5 115q0 74 24.5 134.5t69 97t101.5 36.5q64 0 103.5 -43t39.5 -115q0 -74 -24.5 -134.5t-69 -97t-101.5 -36.5zM157 -120q48 0 87 30.5t62.5 87t23.5 129.5q0 63 -33 101t-88 38q-48 0 -87 -30.5t-62.5 -87t-23.5 -129.5q0 -63 33 -101
t88 -38z" />
    <glyph glyph-name="one.dnom" unicode="&#xf815;" 
d="M147 -127l79 375l-121 -56l-8 18l135 63h21l-85 -400h-21z" />
    <glyph glyph-name="two.dnom" unicode="&#xf816;" 
d="M10 -127l5 21l137 98q66 47 97.5 76.5t43.5 53.5t12 54q0 43 -24 66.5t-68 23.5t-75.5 -22.5t-45.5 -64.5l-19 5q13 47 51.5 74.5t89.5 27.5q53 0 83 -29t30 -79q0 -37 -15.5 -65t-51.5 -60.5t-104 -81.5l-108 -78h228l-9 -20h-257z" />
    <glyph glyph-name="three.dnom" unicode="&#xf817;" 
d="M129 72l4 20h46q56 0 87.5 25t31.5 68q0 39 -25 60t-71 21q-90 0 -118 -82l-21 3q14 47 50.5 73t90.5 26t85 -26t31 -72q0 -40 -25 -69.5t-63 -35.5q28 -7 43.5 -31t15.5 -60q0 -59 -38.5 -95.5t-100.5 -36.5q-59 0 -94.5 29t-35.5 77v7h20q0 -42 29.5 -67.5t79.5 -25.5
q54 0 86 30.5t32 82.5q0 38 -19.5 58.5t-56.5 20.5h-64z" />
    <glyph glyph-name="four.dnom" unicode="&#xf818;" 
d="M201 -127l24 113h-209l3 16l266 271h22l-57 -267h49l-9 -20h-44l-24 -113h-21zM279 240l-230 -234h180z" />
    <glyph glyph-name="five.dnom" unicode="&#xf819;" 
d="M48 -35q1 -26 14 -45t36.5 -29.5t55.5 -10.5q58 0 91.5 35.5t33.5 95.5q0 92 -96 92q-56 0 -103 -36h-20l57 206h213l-5 -20h-194l-45 -163q44 33 100 33q55 0 85 -29.5t30 -82.5q0 -68 -40.5 -109.5t-107.5 -41.5q-58 0 -91 28t-33 77h19z" />
    <glyph glyph-name="six.dnom" unicode="&#xf81a;" 
d="M324 196q-8 38 -27.5 53.5t-57.5 15.5q-66 0 -111 -55t-61 -156q20 35 53.5 53t78.5 18q53 0 83.5 -30.5t30.5 -84.5q0 -66 -41 -108t-105 -42q-49 0 -81 26q-44 35 -44 112q0 78 25 143t70.5 104.5t102.5 39.5q44 0 70.5 -22t31.5 -64zM168 -119q55 0 89 35t34 93
q0 47 -25 71.5t-72 24.5q-56 0 -93 -35t-37 -88q0 -47 28 -74t76 -27z" />
    <glyph glyph-name="seven.dnom" unicode="&#xf81b;" 
d="M94 -127q48 98 100.5 183t134.5 196h-246l4 20h271l-4 -18q-150 -199 -235 -381h-25z" />
    <glyph glyph-name="eight.dnom" unicode="&#xf81c;" 
d="M235 73q69 -25 69 -94q0 -54 -43 -86.5t-114 -32.5q-62 0 -96.5 26.5t-34.5 75.5q0 46 29.5 76.5t81.5 39.5q-29 12 -44.5 36t-15.5 56q0 52 38.5 84t102.5 32q57 0 89 -26.5t32 -74.5q0 -42 -25 -72t-69 -40zM281 -20q0 41 -28.5 63t-82.5 22q-62 0 -97 -27t-35 -74
q0 -41 28 -62.5t82 -21.5q62 0 97.5 26.5t35.5 73.5zM307 183q0 41 -26 62t-75 21q-55 0 -86 -25.5t-31 -70.5q0 -41 26 -63t74 -22q55 0 86.5 26.5t31.5 71.5z" />
    <glyph glyph-name="nine.dnom" unicode="&#xf81d;" 
d="M36 -49q7 -34 33 -52.5t67 -18.5q69 0 110 56.5t49 162.5q-18 -38 -52.5 -58.5t-80.5 -20.5q-55 0 -85.5 30t-30.5 85q0 66 40.5 108t104.5 42q49 0 82 -25q23 -18 33.5 -47.5t10.5 -77.5q0 -128 -48.5 -201.5t-133.5 -73.5q-51 0 -82 24t-36 67h19zM295 163q0 47 -28 74
t-76 27q-55 0 -89 -35t-34 -93q0 -47 25 -71.5t72 -24.5q56 0 93 35t37 88z" />
    <glyph glyph-name="fi" unicode="&#xfb01;" horiz-adv-x="482" 
d="M61 0l104 491h-79l4 20h79l16 74q15 70 51.5 103.5t97.5 33.5q35 0 64 -11l-7 -19q-24 10 -58 10q-53 0 -83 -28t-44 -91l-16 -72h159l-4 -20h-159l-104 -491h-21zM347 0l108 511h21l-108 -511h-21zM479 622l19 92h21l-19 -92h-21z" />
    <glyph glyph-name="fl" unicode="&#xfb02;" horiz-adv-x="485" 
d="M61 0l104 491h-79l4 20h79l16 74q15 70 51.5 103.5t97.5 33.5q35 0 64 -11l-7 -19q-24 10 -58 10q-53 0 -83 -28t-44 -91l-16 -72h159l-4 -20h-159l-104 -491h-21zM350 0l151 714h21l-151 -714h-21z" />
    <glyph glyph-name="uniFEFF" unicode="&#xfeff;" horiz-adv-x="0" 
 />
    <glyph glyph-name="zero.pnum" horiz-adv-x="604" 
d="M275 -18q-98 0 -150.5 63.5t-52.5 181.5q0 130 41 239.5t115.5 176.5t167.5 67q98 0 150.5 -63.5t52.5 -181.5q0 -130 -41 -239.5t-115.5 -176.5t-167.5 -67zM274 3q81 0 149.5 58t110.5 164t42 238q0 110 -46 168t-133 58q-81 0 -149.5 -58t-110.5 -164t-42 -238
q0 -110 46 -168t133 -58z" />
    <glyph glyph-name="one.pnum" horiz-adv-x="401" 
d="M199 0l143 667l-207 -110l-8 17l217 117h23l-146 -691h-22z" />
    <glyph glyph-name="two.pnum" horiz-adv-x="536" 
d="M16 0l5 22l227 170q122 91 177.5 144t76 95.5t20.5 95.5q0 75 -45 118.5t-122 43.5q-78 0 -134 -43t-76 -117l-21 4q20 80 83.5 128.5t148.5 48.5q86 0 137.5 -49.5t51.5 -132.5q0 -60 -27 -110t-88 -107t-173 -140l-201 -150h400l-9 -21h-431z" />
    <glyph glyph-name="three.pnum" horiz-adv-x="552" 
d="M245 352l4 21h79q94 0 148 45t54 124q0 70 -44 108.5t-125 38.5q-80 0 -133.5 -39.5t-75.5 -114.5l-21 5q21 81 82 125.5t149 44.5q90 0 140.5 -44.5t50.5 -123.5q0 -68 -42.5 -118t-108.5 -60q49 -13 75.5 -54.5t26.5 -104.5t-28.5 -113.5t-81 -80t-121.5 -29.5
q-97 0 -154.5 49.5t-57.5 131.5v12h21v-4q0 -78 52 -123t141 -45q93 0 149 56.5t56 148.5q0 69 -33.5 106.5t-95.5 37.5h-106z" />
    <glyph glyph-name="four.pnum" horiz-adv-x="560" 
d="M366 0l42 196h-354l4 21l451 474h25l-100 -474h104l-9 -21h-99l-42 -196h-22zM505 659l-420 -442h327z" />
    <glyph glyph-name="five.pnum" horiz-adv-x="540" 
d="M51 163h21q2 -77 49 -118.5t134 -41.5q101 0 162 64.5t61 171.5q0 85 -44 129.5t-127 44.5q-50 0 -93 -18t-87 -57h-24l98 353h349l-5 -21h-329l-85 -306q43 37 85 53.5t93 16.5q91 0 141.5 -51t50.5 -143q0 -75 -30 -133t-85.5 -91.5t-129.5 -33.5q-96 0 -150.5 46.5
t-54.5 128.5v6z" />
    <glyph glyph-name="six.pnum" horiz-adv-x="564" 
d="M557 559q-11 67 -48 98.5t-105 31.5q-116 0 -196 -106.5t-105 -294.5q28 70 88 108.5t142 38.5q91 0 142 -52t51 -144q0 -73 -30 -131t-85 -92t-127 -34q-80 0 -133 44q-37 30 -54.5 76.5t-17.5 115.5q0 134 41.5 245.5t116.5 179t170 67.5q73 0 116.5 -37.5t53.5 -109.5
zM286 3q62 0 111 29t77.5 82.5t28.5 123.5q0 85 -44.5 130.5t-128.5 45.5q-64 0 -116 -28t-82 -79t-30 -118q0 -86 49.5 -136t134.5 -50z" />
    <glyph glyph-name="seven.pnum" horiz-adv-x="529" 
d="M115 0q185 369 417 670h-424l4 21h450l-4 -21q-255 -332 -417 -670h-26z" />
    <glyph glyph-name="eight.pnum" horiz-adv-x="589" 
d="M408 344q67 -15 101.5 -55.5t34.5 -104.5q0 -94 -71 -148t-195 -54q-109 0 -166.5 44t-57.5 127t55 135t153 63q-58 16 -89.5 57t-31.5 102q0 91 66 145.5t176 54.5q97 0 151 -45t54 -127q0 -77 -48 -128.5t-132 -65.5zM521 182q0 75 -51.5 115t-148.5 40
q-115 0 -179.5 -48t-64.5 -134q0 -75 50.5 -113.5t149.5 -38.5q115 0 179.5 47.5t64.5 131.5zM565 538q0 72 -47.5 111.5t-136.5 39.5q-100 0 -158.5 -48t-58.5 -130q0 -73 48 -113.5t136 -40.5q100 0 158.5 49t58.5 132z" />
    <glyph glyph-name="nine.pnum" horiz-adv-x="564" 
d="M86 140q9 -66 51.5 -101.5t113.5 -35.5q124 0 197 105.5t86 304.5q-27 -74 -88 -115t-145 -41q-91 0 -142 52t-51 144q0 73 30 131t85 92t127 34q80 0 133 -44q27 -22 42.5 -50t22.5 -66t7 -91q0 -142 -36 -249.5t-105 -167.5t-164 -60q-81 0 -129 41.5t-56 116.5h21z
M304 278q64 0 116 28t82 79t30 118q0 86 -49.5 136t-134.5 50q-62 0 -111 -29t-77.5 -82.5t-28.5 -123.5q0 -85 44.5 -130.5t128.5 -45.5z" />
    <glyph glyph-name="hyphen.case" horiz-adv-x="387" 
d="M85 348l4 20h287l-4 -20h-287z" />
    <glyph glyph-name="endash.case" horiz-adv-x="500" 
d="M35 348l4 20h500l-5 -20h-499z" />
    <glyph glyph-name="emdash.case" horiz-adv-x="1000" 
d="M34 348l5 20h1000l-5 -20h-1000z" />
    <glyph glyph-name="parenleft.case" horiz-adv-x="216" 
d="M122 -71q-42 112 -42 239q0 164 58.5 326t164.5 293h22q-108 -141 -165 -301t-57 -322q0 -124 39 -235h-20z" />
    <glyph glyph-name="parenright.case" horiz-adv-x="216" 
d="M-36 -71q108 141 165 301t57 322q0 124 -39 235h20q42 -112 42 -239q0 -164 -58.5 -326t-164.5 -293h-22z" />
    <glyph glyph-name="slash.case" horiz-adv-x="275" 
d="M-29 -9l379 734h23l-379 -734h-23z" />
    <glyph glyph-name="backslash.case" horiz-adv-x="275" 
d="M202 -16l-69 734h20l69 -734h-20z" />
    <glyph glyph-name="bracketleft.case" horiz-adv-x="253" 
d="M25 -71l182 858h158l-5 -20h-137l-173 -818h137l-5 -20h-157z" />
    <glyph glyph-name="bracketright.case" horiz-adv-x="253" 
d="M-40 -71l5 20h137l173 818h-137l5 20h157l-182 -858h-158z" />
    <glyph glyph-name="braceleft.case" horiz-adv-x="259" 
d="M130 -72q-30 0 -47.5 17t-17.5 47q0 11 3 25l55 260q2 11 2 22q0 48 -56 48h-5l5 20h5q36 0 56 16.5t28 53.5l55 260q10 47 34 68t66 21h59l-5 -20h-62q-57 0 -71 -66l-55 -261q-8 -38 -23.5 -57.5t-43.5 -26.5q16 -4 25.5 -19t9.5 -37q0 -10 -3 -24l-55 -261
q-2 -12 -2 -18q0 -22 12 -35t33 -13h62l-5 -20h-59z" />
    <glyph glyph-name="braceright.case" horiz-adv-x="259" 
d="M-40 -72l5 20h62q57 0 71 66l55 261q8 38 23.5 57.5t43.5 26.5q-16 4 -25.5 19t-9.5 37q0 11 3 24l55 261q2 12 2 18q0 22 -12 35t-33 13h-62l5 20h59q30 0 47.5 -17t17.5 -47q0 -11 -3 -25l-55 -260q-2 -11 -2 -22q0 -48 56 -48h5l-5 -20h-5q-36 0 -56 -16.5t-28 -53.5
l-55 -260q-10 -47 -34 -68t-66 -21h-59z" />
    <glyph glyph-name="bullet.case" horiz-adv-x="286" 
d="M279 357q0 -41 -27.5 -68.5t-70.5 -27.5t-70.5 27.5t-27.5 68.5t27.5 68.5t70.5 27.5t70.5 -27.5t27.5 -68.5z" />
    <glyph glyph-name="guilsinglleft.case" horiz-adv-x="260" 
d="M174 135l-99 222l194 222h25l-196 -224l98 -220h-22z" />
    <glyph glyph-name="guilsinglright.case" horiz-adv-x="260" 
d="M28 135l196 224l-98 220h22l99 -222l-194 -222h-25z" />
    <glyph glyph-name="guillemotleft.case" horiz-adv-x="433" 
d="M174 135l-99 222l194 222h25l-196 -224l98 -220h-22zM347 135l-99 222l194 222h25l-196 -224l98 -220h-22z" />
    <glyph glyph-name="guillemotright.case" horiz-adv-x="433" 
d="M28 135l196 224l-98 220h22l99 -222l-194 -222h-25zM201 135l196 224l-98 220h22l99 -222l-194 -222h-25z" />
    <glyph glyph-name="at.case" horiz-adv-x="901" 
d="M778 65q-50 -73 -125 -108.5t-181 -35.5q-184 0 -284.5 98t-100.5 278q0 137 55 249.5t156.5 179t231.5 66.5q108 0 191 -43t129.5 -125t46.5 -193q0 -85 -24.5 -154t-70 -109.5t-104.5 -40.5q-43 0 -67.5 21t-24.5 60q0 11 1 20q-56 -107 -171 -107q-76 0 -117 45.5
t-41 128.5q0 74 29.5 138t83.5 104t119 40q58 0 96 -31t48 -88l23 107h21l-70 -328q-3 -13 -3 -25q0 -31 19 -48t54 -17q49 0 89 34.5t64 99t24 148.5q0 103 -41 180t-119 120t-186 43q-118 0 -213 -59t-151 -167.5t-56 -249.5q0 -172 93 -263.5t269 -91.5q97 0 165.5 29.5
t119.5 94.5h22zM638 380q4 21 4 41q0 60 -37.5 98.5t-95.5 38.5q-55 0 -102.5 -34t-77 -94.5t-29.5 -133.5q0 -77 35 -116.5t101 -39.5q74 0 124 50.5t69 146.5z" />
    <glyph glyph-name="periodcentered.case" horiz-adv-x="162" 
d="M112 308l21 97h22l-21 -97h-22z" />
    <glyph glyph-name="questiondown.case" horiz-adv-x="489" 
d="M449 164q-52 -174 -222 -174q-83 0 -130.5 41.5t-47.5 113.5q0 57 32.5 106t107.5 105q53 40 78.5 65.5t37.5 49.5t19 57l2 10h22l-1 -6q-6 -40 -21.5 -68.5t-45.5 -57.5t-85 -70q-64 -48 -94 -94t-30 -98q0 -64 41.5 -98.5t116.5 -34.5q76 0 124.5 38.5t75.5 119.5z
M344 617l21 97h22l-21 -97h-22z" />
    <glyph glyph-name="exclamdown.case" horiz-adv-x="192" 
d="M46 0l115 536h20l-113 -536h-22zM176 617l21 97h22l-21 -97h-22z" />
    <glyph glyph-name="periodcentered.loclCAT" horiz-adv-x="162" 
d="M99 325l21 97h22l-21 -97h-22z" />
    <glyph glyph-name="periodcentered.loclCAT.cap" horiz-adv-x="162" 
d="M104 345l21 97h22l-21 -97h-22z" />
    <glyph glyph-name="i.locl" horiz-adv-x="169" 
d="M34 0l108 511h21l-108 -511h-21zM166 622l19 92h21l-19 -92h-21z" />
    <glyph glyph-name="Eng.locl" horiz-adv-x="674" 
d="M630 492q7 35 7 62q0 73 -41.5 115t-117.5 42q-56 0 -116.5 -22t-105.5 -59q-18 -15 -32.5 -31.5t-24.5 -34.5t-17 -38.5t-15 -57.5l-99 -468h-22l151 714h22l-26 -120q52 65 128 101.5t156 36.5q87 0 134.5 -46.5t47.5 -128.5q0 -30 -7 -65l-104 -492q-16 -78 -44 -122
t-72 -63.5t-109 -19.5q-85 0 -155 31l9 20q68 -30 146 -30q88 0 134.5 40.5t68.5 143.5z" />
    <glyph glyph-name="uni0327.cap" horiz-adv-x="0" 
d="M-105 -173q32 -5 61 -5q49 0 70.5 10.5t21.5 34.5t-22.5 35.5t-69.5 11.5h-15l51 89l18 -3l-38 -69q96 -4 96 -62q0 -34 -27.5 -50t-85.5 -16q-37 0 -64 6z" />
    <glyph glyph-name="uni0326.cap" horiz-adv-x="0" 
d="M-113 -207l100 133h26l-103 -133h-23z" />
    <glyph glyph-name="uni0328.cap" horiz-adv-x="0" 
d="M-12 -166q-12 -2 -24 -2q-33 0 -51 16.5t-18 45.5q0 64 97 116l16 -10q-48 -26 -70 -51.5t-22 -54.5q0 -42 50 -42q12 0 26 2z" />
    <glyph glyph-name="uni0328.round" horiz-adv-x="0" 
d="M-10 -161q-10 -2 -24 -2q-32 0 -49 16t-17 45q0 27 16 52t51 54l26 -4q-72 -47 -72 -100q0 -44 49 -44q14 0 24 2z" />
    <glyph glyph-name="uni0328.round.cap" horiz-adv-x="0" 
d="M-12 -166q-12 -2 -24 -2q-33 0 -51 16.5t-18 45.5q0 64 97 116l16 -10q-48 -26 -70 -51.5t-22 -54.5q0 -42 50 -42q12 0 26 2z" />
    <glyph glyph-name="iogonek.dotless" horiz-adv-x="169" 
d="M34 0l108 511h21l-108 -511h-21zM37 -161q-10 -2 -24 -2q-31 0 -48.5 15.5t-17.5 44.5q0 31 22.5 58t70.5 53l15 -8q-46 -26 -66.5 -50.5t-20.5 -51.5q0 -42 49 -42q14 0 24 2z" />
    <glyph glyph-name="acutecomb.cap" horiz-adv-x="0" 
d="M-16 774h-28l140 123h31z" />
    <glyph glyph-name="uni030B.cap" horiz-adv-x="0" 
d="M-82 774l129 123h29l-132 -123h-26zM56 774l129 123h29l-132 -123h-26z" />
    <glyph glyph-name="gravecomb.cap" horiz-adv-x="0" 
d="M19 774l-89 123h25l86 -123h-22z" />
    <glyph glyph-name="uni0302.cap" horiz-adv-x="0" 
d="M98 774l-73 105l-119 -105h-27l137 123h22l83 -123h-23z" />
    <glyph glyph-name="tildecomb.cap" horiz-adv-x="0" 
d="M165 865q-7 -40 -31.5 -62.5t-61.5 -22.5q-19 0 -34.5 7t-37.5 24q-30 23 -42.5 29.5t-28.5 6.5q-58 0 -73 -65h-21q7 40 31.5 62.5t61.5 22.5q19 0 34.5 -7t37.5 -24q30 -23 42.5 -29.5t28.5 -6.5q58 0 73 65h21z" />
    <glyph glyph-name="uni030C.cap" horiz-adv-x="0" 
d="M11 774h-22l-83 123h23l73 -105l119 105h27z" />
    <glyph glyph-name="uni0315.short" horiz-adv-x="0" 
d="M-10 593l50 131h21l-52 -131h-19z" />
    <glyph glyph-name="uni0304.cap" horiz-adv-x="0" 
d="M-138 798l5 20h268l-5 -20h-268z" />
    <glyph glyph-name="uni0308.cap" horiz-adv-x="0" 
d="M-92 790l19 92h22l-19 -92h-22zM67 790l19 92h22l-19 -92h-22z" />
    <glyph glyph-name="uni0306.cap" horiz-adv-x="0" 
d="M124 882q-10 -53 -41.5 -80.5t-82.5 -27.5q-47 0 -74.5 22.5t-27.5 60.5q0 12 3 25h21q-2 -10 -2 -22q0 -32 21 -49t59 -17q42 0 67.5 21.5t35.5 66.5h21z" />
    <glyph glyph-name="uni0307.cap" horiz-adv-x="0" 
d="M-12 790l19 92h22l-19 -92h-22z" />
    <glyph glyph-name="uni030A.cap" horiz-adv-x="0" 
d="M83 820q0 -39 -22.5 -62t-60.5 -23t-60.5 23t-22.5 62t22.5 62t60.5 23t60.5 -23t22.5 -62zM62 820q0 30 -16.5 47.5t-45.5 17.5t-45.5 -17t-16.5 -48q0 -30 16.5 -47.5t45.5 -17.5t45.5 17t16.5 48z" />
    </font>
</defs>
</svg>
