<?xml version="1.0" encoding="utf-8"?>
<!-- Generator: Adobe Illustrator 22.1.0, SVG Export Plug-In . SVG Version: 6.00 Build 0)  -->
<svg version="1.1" id="Layer_1" xmlns="http://www.w3.org/2000/svg" xmlns:xlink="http://www.w3.org/1999/xlink" x="0px" y="0px"
	 viewBox="0 0 213.7 166.2" style="enable-background:new 0 0 213.7 166.2;" xml:space="preserve">
<style type="text/css">
	.st0{fill:#A7A7A7;}
</style>
<g>
	<path class="st0" d="M109.8,0c0.5,0.3,0.9,0.7,1.4,0.9c23.5,9.7,47.1,19.3,70.7,28.9c1.6,0.6,3.4,0.8,5.1,1.1
		c5.6,0.8,11.2,1.5,16.8,2.2c1.9,0.2,2.5,0.9,2.5,3c0.1,7.8,0.1,15.5,0.1,23.3c0.1,13.1,0.3,26.2,0.5,39.2
		c0.2,11.9,0.3,23.8,0.5,35.7c0,2.2,0.2,4.3,0.2,6.5c0,0.6-0.1,1.1-0.1,1.8c-66.8,0-133.4,0-200.3,0c0-2.2,0-4.2,0-6.3
		c0.1-5.8,0.1-11.7,0.2-17.5c0.2-12.3,0.3-24.7,0.5-37C8,72.4,8.1,63.2,8.3,54C8.4,48,8.5,42.1,8.6,36.2c0-1.9,0.6-2.4,2.5-2.7
		c6.6-0.8,13.2-1.7,19.8-2.6c1-0.1,1.9-0.5,2.8-0.9c22.6-9.2,45.1-18.5,67.6-27.8c1.7-0.7,3.3-1.5,4.9-2.3C107.4,0,108.6,0,109.8,0z
		 M137.9,138.5c0.5,0.1,0.8,0.2,1.2,0.2c21.4,0,42.8-0.1,64.3-0.1c0.1,0,0.1-0.1,0.2-0.1c0.1-0.1,0.1-0.1,0.2-0.2
		c-0.1-1-0.2-2.1-0.2-3.2c-0.2-12.4-0.3-24.8-0.5-37.2c-0.2-12.2-0.3-24.3-0.5-36.5c-0.1-4.8-0.1-9.7-0.1-14.5c0-3.2,0-6.5,0-9.7
		c-0.7-0.2-1.1-0.4-1.5-0.4c-4.2-0.6-8.4-1.1-12.6-1.7c-3.2-0.4-6.4-0.8-9.5-2c-22.8-9.4-45.7-18.8-68.5-28.2c-1.7-0.7-3-0.7-4.7,0
		C82,14.5,58.3,24.2,34.7,33.8c-1.1,0.5-2.4,0.8-3.6,1c-4.3,0.6-8.6,1.1-12.9,1.7c-1.9,0.2-3.7,0.6-5.5,0.8
		c-0.5,4.3-1.7,99.3-1.2,101.3c0.6,0,1.3,0,1.9,0c20.8,0,41.7-0.1,62.5-0.1c0.1,0,0.1-0.1,0.2-0.1c0.1-0.1,0.1-0.1,0.3-0.3
		c0-4.4,0-8.9,0-13.4c0-4.5,0-9,0-13.5c0-4.6-0.1-9.2-0.1-13.7c0-4.5,0.1-8.9,0.2-13.5c4.9-0.1,9.6-0.3,14.2-0.3
		c7.2-0.1,14.3,0,21.5,0c8.1,0,16.2,0.1,24.2,0.2c0.4,0,0.8,0.1,1.4,0.2C137.9,102.3,137.9,120.4,137.9,138.5z M133.9,99.2
		c-17.9,0-35.6,0-53.3,0c-0.4,2.7-0.4,5.4,0.1,7.2c4.7,0.4,51.3,0.2,53.2-0.2C133.9,103.9,133.9,101.7,133.9,99.2z M80.5,117.9
		c17.8,0,35.5,0,53.5,0c0-0.9,0-1.7,0-2.5c0-1.6,0-3.1,0-4.8c-18,0-35.7,0-53.5,0C80.5,113,80.5,115.4,80.5,117.9z M80.4,88.1
		c-0.2,2.4-0.2,4.7,0,6.9c5.8,0.5,51.7,0.3,53.6-0.3c0-1,0-2.1,0-3.2c0-1.1,0-2.3-0.1-3.4C129.6,87.5,86.8,87.4,80.4,88.1z
		 M133.8,122c-17.8,0-35.5,0-53.3,0c0,2.2,0,4.4,0,6.4c4.3,0.4,51.5,0.3,53.5-0.2c0-1.6,0-3.3,0-4.9
		C133.9,123,133.9,122.6,133.8,122z M133.9,132.7c-17.9,0-35.6,0-53.5,0c0,2,0,3.9,0,5.8c0.5,0.1,0.9,0.1,1.3,0.1
		c17.2,0,34.5-0.1,51.7-0.1c0.1,0,0.1-0.1,0.2-0.2c0.1-0.1,0.1-0.1,0.2-0.2C133.9,136.5,133.9,134.7,133.9,132.7z"/>
	<path class="st0" d="M190.7,156.1c0,1.8,0,3.4,0,4.9c0,1.6,0,3.1,0,4.9c-0.6,0.1-1,0.2-1.5,0.2c-0.4,0-0.8,0-1.3-0.1
		c0-4.8,0-9.4,0-14.2c1-0.6,2.2-0.1,3.5-0.3c1.7,3.2,3.4,6.4,5.1,9.5c0-3,0-6,0-9.2c0.4-0.1,0.9-0.2,1.3-0.2c0.4,0,0.8,0,1.3,0.1
		c0,4.8,0,9.5,0,14.3c-1,0-2,0-3.2,0C194.3,162.8,192.6,159.6,190.7,156.1z"/>
	<path class="st0" d="M167.3,165.8c0-4.6,0-9.2,0-14c3-0.4,5.8-0.6,8.6,0.5c1.9,0.8,3,2.3,3.5,4.3c1.1,4.5-1.1,8.2-5.6,9.2
		C171.7,166.3,169.6,166.2,167.3,165.8z M170.5,154.2c0,3.2,0,6.2,0,9.2c3.9,0.3,5.8-1.3,5.8-4.8C176.3,155.4,174.6,154,170.5,154.2
		z"/>
	<path class="st0" d="M42.3,151.9c2.7-0.4,5.2-0.5,7.6,0.1c2.4,0.6,3.8,2.1,4.5,4.5c1.1,4.5-1.1,8.2-5.6,9.2
		c-2.1,0.5-4.3,0.4-6.5,0.1C42.3,161.2,42.3,156.7,42.3,151.9z M45.4,154.2c0,3.2,0,6.2,0,9.2c3.9,0.3,5.8-1.3,5.8-4.8
		C51.2,155.4,49.5,154,45.4,154.2z"/>
	<path class="st0" d="M94.3,165.9c0-4.7,0-9.2,0-13.7c2.6-0.9,6.6-0.8,8.8,0.3c1.8,0.8,2.8,2.2,3.3,4.1c1.2,4.5-1.1,8.2-5.6,9.2
		C98.7,166.2,96.6,166.2,94.3,165.9z M97.2,154.3c0,1.6-0.1,3.1,0,4.6c0.1,1.5-0.3,3.1,0.3,4.6c4,0.1,5.9-1.6,5.7-5.2
		C103.1,155.2,101.3,153.9,97.2,154.3z"/>
	<path class="st0" d="M132.1,158.4c0.5,0.4,0.9,0.6,1.2,0.8c2.1,1.9,1.7,4.6-0.8,6c-0.4,0.2-0.9,0.4-1.4,0.5
		c-2.2,0.6-4.4,0.5-6.8,0.1c0-4.7,0-9.2,0-13.8c1.8-0.7,3.7-0.5,5.5-0.4c1.6,0.1,3.2,0.7,3.8,2.4
		C134.2,155.7,133.7,157.1,132.1,158.4z M127.4,163.6c0.8,0,1.6,0.1,2.3,0c0.9-0.1,1.5-0.7,1.6-1.7c0.1-1-0.4-1.6-1.3-1.8
		c-0.8-0.2-1.7-0.7-2.5,0C127.4,161.3,127.4,162.4,127.4,163.6z M127.4,157.4c1.4,0.3,2.5,0.2,3.2-1c0.2-0.4,0.2-1.2,0-1.6
		c-0.8-1.2-1.9-0.9-3.1-0.7C127.4,155.3,127.4,156.3,127.4,157.4z"/>
	<path class="st0" d="M12.7,151.7c1,0,1.8,0,2.9,0c0,1.8,0,3.6,0,5.4c1.9,0.5,3.6,0.4,5.5,0.1c0-1.8,0-3.5,0-5.2
		c1-0.8,1.9-0.4,2.7-0.4c0.1,0.1,0.2,0.1,0.2,0.2c0.1,0.1,0.1,0.1,0.1,0.2c0,4.6,0,9.1,0,13.8c-0.9,0.5-1.9,0.3-3,0.1
		c0-1.9,0-3.7,0-5.7c-1.9,0-3.5,0-5.4,0c0,1.9,0,3.7,0,5.5c-1.1,0.5-2,0.3-3,0.2C12.7,161.2,12.7,156.6,12.7,151.7z"/>
	<path class="st0" d="M213.5,152.4c-0.3,0.8-0.5,1.5-0.7,2.2c-1.1-0.2-2.1-0.4-3-0.4c-4.3,0-5.4,3.5-4.7,6.3
		c0.6,2.3,2.5,3.3,5.7,2.8c0-0.7,0.1-1.5,0.1-2.4c-0.7-0.1-1.2-0.2-2-0.4c0-0.6-0.1-1.3-0.1-2c0.3-0.2,0.4-0.3,0.6-0.3
		c1.4,0,2.8,0,4.4,0c0,2.4,0,4.7,0,7.1c-2.6,1-5.2,1.2-7.9,0.3c-2.1-0.7-3.5-2.2-4.1-4.4c-1.2-4.2,1.1-8.1,5.3-9.3
		C209,151.4,210.6,151.5,213.5,152.4z"/>
	<path class="st0" d="M84,151.7c1.5,0,2.7,0,4.2,0c1.4,4.7,2.8,9.4,4.3,14.3c-1.2,0-2.2,0-3.3,0c-0.4-1.1-0.8-2.1-1.2-3.3
		c-1.3,0-2.6,0-4,0c-0.4,1.1-0.7,2.2-1.1,3.3c-1,0-2,0-3.2,0C81.2,161.2,82.6,156.5,84,151.7z M84.6,159.9c1.2,0,2,0,2.9,0
		c-0.5-2-1-3.7-1.6-5.8C85.5,156.2,85.1,158,84.6,159.9z"/>
	<path class="st0" d="M136.8,151.7c1,0,1.8,0,2.9,0c0.1,0.6,0.2,1.2,0.2,1.9c0,2,0,4,0,6c0,0.7,0.1,1.5,0.3,2.2
		c0.4,1.2,1.3,1.8,2.4,1.8c1.1,0,2-0.6,2.4-1.8c0.2-0.9,0.3-1.8,0.3-2.7c0-2.4,0-4.8,0-7.3c1.1,0,1.9,0,3,0c0,3.2,0.3,6.4-0.1,9.5
		c-0.5,4.2-5.2,6.3-8.9,4.2c-1.7-1-2.4-2.6-2.4-4.4C136.7,157.9,136.8,155,136.8,151.7z"/>
	<path class="st0" d="M111.9,157.6c1.7,0,3.2,0,4.8,0c0,0.8,0.1,1.5,0.1,2.5c-1.7,0-3.2,0-4.9,0c0,1.2,0,2.2,0,3.3
		c1.7,0,3.4,0,5.3,0c0.1,0.9,0.2,1.6,0.3,2.5c-2.9,0-5.7,0-8.7,0c0-4.7,0-9.4,0-14.2c2.8,0,5.5,0,8.3,0c0,0.8,0,1.5,0,2.4
		c-1.7,0-3.5,0-5.3,0C111.9,155.4,111.9,156.4,111.9,157.6z"/>
	<path class="st0" d="M59.9,163.5c1.8,0,3.4,0,5.3,0c0.1,0.8,0.2,1.5,0.3,2.5c-2.9,0.1-5.7,0.1-8.5,0c-0.4-2-0.5-11.2-0.1-14.5
		c1.3,0,2.7,0,4.1,0c1.3,0,2.6,0,4.1,0c0,0.9,0,1.6,0,2.5c-1.7,0-3.4,0-5.2,0c0,1.2,0,2.2,0,3.4c1.5,0,3.1,0,4.8,0
		c0.1,0.9,0.1,1.6,0.2,2.6c-1.7,0-3.2,0-4.9,0C59.9,161.3,59.9,162.2,59.9,163.5z"/>
	<path class="st0" d="M27.2,166c0-4.8,0-9.4,0-14.1c1.3-0.5,2.7-0.2,4.1-0.2c1.3-0.1,2.7,0,4.2,0c0,0.8,0,1.6,0,2.5
		c-1.7,0-3.3,0-5.1,0c0,1.2,0,2.2,0,3.5c1.6,0,3.1,0,4.8,0c0,0.9,0,1.6,0,2.6c-1.6,0-3.2,0-4.8,0c0,1.2,0,2.2,0,3.3
		c1.8,0,3.5,0,5.4,0c0,0.9,0.1,1.6,0.1,2.5C32.9,166,30.1,166,27.2,166z"/>
	<path class="st0" d="M77.8,152.4c-0.1,0.7-0.3,1.3-0.5,2.2c-2.5-0.6-4.9-0.8-6.4,1.5c-1.1,1.7-1.1,3.7,0,5.4
		c1.5,2.4,3.9,2.1,6.4,1.6c0.2,0.8,0.3,1.5,0.4,2.2c-3.8,1.5-7.6,0.7-9.6-2c-1.8-2.4-1.7-6.7,0.3-9.1
		C70.4,151.7,74.4,150.9,77.8,152.4z"/>
	<path class="st0" d="M6.7,166c-1,0-1.8,0-2.8,0c-0.5-1.9-0.2-3.9-0.2-5.8c-0.1-1.9,0-3.8,0-5.8c-1.2-0.1-2.2-0.2-3.5-0.3
		c-0.1-0.7-0.1-1.4-0.2-2c0.8-0.5,7.3-0.6,10.6-0.2c0,0.7,0,1.4,0,2.3c-1.2,0.1-2.3,0.1-3.7,0.2C6.6,158.1,6.9,161.9,6.7,166z"/>
	<path class="st0" d="M156.8,166c0-4.8,0-9.4,0-14.2c0.9,0,1.8,0,3,0c0,3.8,0,7.7,0,11.8c2,0,3.7,0,5.5,0c0,0.9,0,1.6,0,2.5
		C162.5,166,159.7,166,156.8,166z"/>
	<path class="st0" d="M184.8,166c-1.1,0-1.9,0-2.7,0c-0.4-1.9-0.5-10.6-0.2-14.3c0.4-0.1,0.9-0.1,1.4-0.2c0.4,0,0.8,0,1.5,0.1
		C184.8,156.4,184.8,161.1,184.8,166z"/>
	<path class="st0" d="M153.7,151.7c0,4.8,0,9.5,0,14.2c-1,0-1.8,0-2.8,0c0-4.7,0-9.4,0-14.2C151.8,151.7,152.6,151.7,153.7,151.7z"
		/>
</g>
</svg>
