<svg xmlns="http://www.w3.org/2000/svg" viewBox="0 0 750 1334"><defs><style>.cls-1,.cls-5{fill:#0000e2;}.cls-1,.cls-2,.cls-3,.cls-4{fill-rule:evenodd;}.cls-2{fill:#97d3dd;}.cls-3{fill:#ffaa64;}.cls-4{fill:#fff;}</style></defs><title>web_PinPatch2019</title><g id="Calque_2" data-name="Calque 2"><g id="Herbe"><path class="cls-1" d="M625.51,1001c-.21-.07-.42-.15-.63-.2a2.2,2.2,0,0,1-1.22-1,7.25,7.25,0,0,1-.54-2.46c-.09-2-.16-3.93-.22-5.9,0-1.11,0-2.22-.07-3.33,0-.07,0-.14,0-.24l-.59.09a18,18,0,0,1-9-.68,28.72,28.72,0,0,1-7.56-4,50.33,50.33,0,0,1-5.47-4.63c-2.69-2.56-5.1-5.38-7.54-8.18l-1.74-2a2.48,2.48,0,0,1-.74-1.69c0-.05,0-.09,0-.13v-.14a.67.67,0,0,0,0-.19,2.12,2.12,0,0,1,.8-1.55c.41-.34.85-.65,1.29-1a3.13,3.13,0,0,1,1.68-.46c1.24,0,2.48-.07,3.72,0a42.7,42.7,0,0,1,4.37.38,48,48,0,0,1,5.43,1.12,42.1,42.1,0,0,1,9.79,3.8,28.62,28.62,0,0,1,6,4.28l.82.8a90.88,90.88,0,0,1,4.67-17.12l-.25-.06a17,17,0,0,1-3.21-.88,19.45,19.45,0,0,1-6.4-4.3,30.63,30.63,0,0,1-4.18-5.24,65.64,65.64,0,0,1-4.7-8.94c-1.12-2.53-2.21-5.06-3.31-7.6-.21-.48-.44-1-.65-1.44A2.63,2.63,0,0,1,606,926a2.43,2.43,0,0,1,1.58-1.34,2.41,2.41,0,0,0,.43-.14,3.13,3.13,0,0,1,2.12-.3c.61.11,1.21.25,1.81.41a42.13,42.13,0,0,1,9.12,3.6,40,40,0,0,1,10.57,7.88,23.56,23.56,0,0,1,3.85,5.34c.12.23.23.46.37.72a3.19,3.19,0,0,0,.2-.32c1.24-2.05,2.59-4,4-6a101.25,101.25,0,0,1,8.34-9.68c.08-.08.14-.16.22-.25l-.34-.11a15.82,15.82,0,0,1-2.88-1.21,19.33,19.33,0,0,1-5.92-5.1,31.94,31.94,0,0,1-3.79-6.26,70.16,70.16,0,0,1-3.47-9.08c-.83-2.62-1.65-5.25-2.47-7.87a11.54,11.54,0,0,1-.44-1.63,2.34,2.34,0,0,1,1.65-2.64c.46-.14.93-.24,1.39-.35a2.07,2.07,0,0,1,.35,0,4.1,4.1,0,0,1,1.66.26,37.48,37.48,0,0,1,5.55,2.43c1.42.76,2.74,1.67,4.08,2.56a47.77,47.77,0,0,1,7.83,6.43,35.23,35.23,0,0,1,4.33,5.34,23.6,23.6,0,0,1,3.07,6.4,1.52,1.52,0,0,0,.11.2c4.38-4.35,8.56-8.82,12.63-13.49l-.37-.06c-.41-.06-.82-.11-1.22-.18a18.71,18.71,0,0,1-6.15-2.39,31.94,31.94,0,0,1-7.08-5.88,64.91,64.91,0,0,1-5.61-7c-2-2.87-4-5.77-6-8.66a2.61,2.61,0,0,1-.28-.52,2.46,2.46,0,0,1,1.12-3.11,2.53,2.53,0,0,1,2.1-.12,1.69,1.69,0,0,0,.48.12,33.36,33.36,0,0,1,6.88,1.11,49.39,49.39,0,0,1,9.63,3.74,43,43,0,0,1,8,5.25,25.77,25.77,0,0,1,5.25,5.78c.3.46.58.93.88,1.43l.22-.34q1.29-2.18,2.39-4.45a36.88,36.88,0,0,0,3.64-12.87c0-.29,0-.58,0-.89l-.23,0a17.71,17.71,0,0,1-3,.44,19.68,19.68,0,0,1-6.74-.8,29.24,29.24,0,0,1-7.66-3.68,43.07,43.07,0,0,1-4.77-3.76,91.46,91.46,0,0,1-6.86-6.64q-2.05-2.22-4.09-4.45a2.63,2.63,0,0,1-.75-1.63,2.41,2.41,0,0,1,.28-1.49,1.77,1.77,0,0,1,1.26-.92,8.77,8.77,0,0,1,1.54-.32c1.12,0,2.25-.08,3.37-.06s2.06.07,3.08.16a45.46,45.46,0,0,1,4.93.75,51.54,51.54,0,0,1,9.65,2.82,33.64,33.64,0,0,1,8.29,4.75.45.45,0,0,0,.14.07c0-.14,0-.24-.06-.34-.11-.46-.21-.91-.33-1.37a27,27,0,0,0-4.48-10,2.53,2.53,0,0,1-.38-.75,2.4,2.4,0,0,1,1.73-3.21l.12-.06h.91s0,0,0,0a2.57,2.57,0,0,1,1.58,1,22.5,22.5,0,0,1,1.82,2.71,33.13,33.13,0,0,1,3.08,7.47c.26.94.48,1.89.71,2.83,0,.1.06.2.09.32a1,1,0,0,0,.15-.1,25.8,25.8,0,0,1,6.76-5.08,34.08,34.08,0,0,1,8.59-3.21,26.54,26.54,0,0,1,5.11-.62,27.57,27.57,0,0,1,4.16.24,4,4,0,0,1,1.27.38,10.6,10.6,0,0,1,1.44.87,2.31,2.31,0,0,1,.9,1.26,1.64,1.64,0,0,0,.14.22v.85a1.06,1.06,0,0,0-.12.2,3.15,3.15,0,0,1-.59,1.15c-2.05,2.73-4.08,5.46-6.13,8.18a50.85,50.85,0,0,1-5.37,6.17,27.22,27.22,0,0,1-5.07,3.87,16,16,0,0,1-9.33,2.3h-.24a38.82,38.82,0,0,1-1.5,8.43,46.58,46.58,0,0,1-3.21,8l.32,0c.91-.06,1.82-.16,2.73-.18a24.61,24.61,0,0,1,5.68.56A39.13,39.13,0,0,1,705.39,894a51.05,51.05,0,0,1,5.69,3.61,3.23,3.23,0,0,1,1.43,2.35,2.68,2.68,0,0,1-1.43,2.84c-1.05.51-2.08,1.07-3.13,1.58a46.86,46.86,0,0,1-8.1,3.15,28,28,0,0,1-8.48,1.18,18.5,18.5,0,0,1-4.06-.58,17.35,17.35,0,0,1-8.22-4.9l-1-1c-1.88,2.34-3.81,4.62-5.83,6.82s-4.09,4.36-6.16,6.56l.18,0c.88.13,1.77.21,2.64.38a29.13,29.13,0,0,1,7.77,2.9,40.87,40.87,0,0,1,10,7.41c.26.26.56.49.84.73s.27.23.39.36a2.48,2.48,0,0,1-.86,3.91l-2.5,1c-2.11.83-4.22,1.7-6.35,2.46a37.28,37.28,0,0,1-9.17,2,25.26,25.26,0,0,1-6-.08,17.39,17.39,0,0,1-5.18-1.59,15.19,15.19,0,0,1-5.76-5.09l-.2-.27c-1.64,1.23-9.83,11.38-10.67,13.21l.36,0a17.9,17.9,0,0,1,3.1-.31,24.62,24.62,0,0,1,6.22.8,34.63,34.63,0,0,1,7.49,2.85,35.08,35.08,0,0,1,7.73,5.32,4,4,0,0,1,.66.77,2.37,2.37,0,0,1,.39,1.7,3.08,3.08,0,0,1-.91,1.71,17,17,0,0,1-3.51,2.63A28.41,28.41,0,0,1,649.89,962a23.81,23.81,0,0,1-6.18-.47,18.46,18.46,0,0,1-9.05-4.59l-.47-.43a75.13,75.13,0,0,0-3.11,8.8,62.06,62.06,0,0,0-2,9.09l.31-.16a18.24,18.24,0,0,1,2.85-1.19,23.12,23.12,0,0,1,6.6-1,33.12,33.12,0,0,1,15.4,3.34,7.44,7.44,0,0,1,1,.57,2.29,2.29,0,0,1,1.06,1.63,2.72,2.72,0,0,1-.19,1.44,7,7,0,0,1-1,1.69,33.67,33.67,0,0,1-5.43,5.57,32.34,32.34,0,0,1-8.1,4.94,20.63,20.63,0,0,1-7,1.6,15,15,0,0,1-6.48-1.14l-.29-.1c0,.18,0,.35,0,.5.15,2.05.3,4.09.43,6.13a2.59,2.59,0,0,1-1.87,2.69l-.4.14Zm27.94-78.72,1.88-1.85a1.52,1.52,0,0,0,.43-1.21,14.26,14.26,0,0,0-1.78-6.11,28,28,0,0,0-4.19-5.83,45,45,0,0,0-13.11-9.93c-.55-.28-1.12-.52-1.69-.78a.31.31,0,0,0-.2,0,3.47,3.47,0,0,0,.25.29c1.09,1.24,2.21,2.46,3.28,3.71a107.28,107.28,0,0,1,6.81,9.07c2.73,4,5.24,8.18,7.66,12.39l.29.51A2.61,2.61,0,0,0,653.45,922.3Zm-42.18,7.12a93.49,93.49,0,0,1,7.56,6.5,60.91,60.91,0,0,1,8.14,9.42,44.11,44.11,0,0,1,3.95,7c0,.09.1.18.15.3a.53.53,0,0,0,.39-.33c.55-1.15,1.1-2.3,1.63-3.46a2.76,2.76,0,0,0,0-1.66,14.06,14.06,0,0,0-2.23-5.41,24.61,24.61,0,0,0-5.17-5.61,39.51,39.51,0,0,0-12.81-7l-2.19-.68A1.43,1.43,0,0,0,611.27,929.42ZM691,866.82a45.38,45.38,0,0,1,6.93-5.82,92,92,0,0,1,8.89-5.37l4.59-2.43a2.35,2.35,0,0,0,1.05-1.27l-1-.09a23.9,23.9,0,0,0-8.64,1.25A28.38,28.38,0,0,0,695,857a18.79,18.79,0,0,0-4.75,5c-.14.23-.27.46-.4.7a3.25,3.25,0,0,0-.31,2c.13.95.2,1.91.29,2.87,0,.13,0,.27.05.46ZM623.84,983c0-.36.09-.72.12-1.08a2,2,0,0,0-.16-.92,14.42,14.42,0,0,0-4.06-5.77,23.15,23.15,0,0,0-4.55-3A41.48,41.48,0,0,0,604,968.27a47.17,47.17,0,0,0-6.26-.78h-1l.35.21c2,1.07,4,2.16,6.08,3.21,3.32,1.71,6.68,3.34,9.93,5.18a59.84,59.84,0,0,1,7.69,5c.92.72,1.8,1.49,2.73,2.26A.37.37,0,0,0,623.84,983Zm27.54-104.37a153.42,153.42,0,0,1,23.26,17.8c.34.31.68.62,1,.94a.49.49,0,0,0,.48.13,1.36,1.36,0,0,0,.78-.5.88.88,0,0,0,.15-.82,15.45,15.45,0,0,0-3.93-6.8,32.51,32.51,0,0,0-7.82-6,42.93,42.93,0,0,0-10.63-4.32c-1.1-.28-2.22-.46-3.33-.69a.47.47,0,0,0-.17,0s0,0-.07.06A2.31,2.31,0,0,0,651.38,878.63Zm4.73,47.5c1.62-.17,3.23-.35,4.85-.48s3.46-.23,5.19-.33c.41,0,.82,0,1.23,0a64.51,64.51,0,0,1,6.67.17,46,46,0,0,1,6.39.93.42.42,0,0,0,.31,0l-.37-.3a34.12,34.12,0,0,0-9.51-5.33,17.85,17.85,0,0,0-6.26-1.12,9.07,9.07,0,0,0-4.89,1.3,11.6,11.6,0,0,0-1.91,1.59c-.91.88-1.81,1.77-2.71,2.66-.14.14-.28.28-.41.43s-.23.33,0,.67C655.13,926.23,655.62,926.17,656.11,926.13Zm2.21-72.08c1.46.66,2.92,1.31,4.37,2,2.94,1.38,5.88,2.77,8.8,4.2q7.51,3.68,14.7,7.93l.21.11c.23-.2.26-.29.16-.51a.07.07,0,0,0,0-.06,9.77,9.77,0,0,1-1-1.89,14.08,14.08,0,0,0-3.17-4,23.85,23.85,0,0,0-5.11-3.44,44.4,44.4,0,0,0-11.19-3.91,47.12,47.12,0,0,0-7-.93l-.91,0c-.09,0-.18,0-.28,0A.63.63,0,0,0,658.32,854.05ZM627.23,985.2a49.55,49.55,0,0,1,8.21-3.25c3-.93,6.07-1.64,9.14-2.3l5.94-1.27.26-.07-.29-.14a29.78,29.78,0,0,0-6.63-1.77,28.5,28.5,0,0,0-4.79-.32,17.77,17.77,0,0,0-7.71,1.74,10.32,10.32,0,0,0-3.68,3.08,2.43,2.43,0,0,0-.53,1.38c0,.93-.11,1.85-.17,2.77v.24Zm34.69-31.9-.31-.26a31.6,31.6,0,0,0-9-4.89,23.74,23.74,0,0,0-5.52-1.31,15.21,15.21,0,0,0-6.08.39,9.6,9.6,0,0,0-3.62,2,1.41,1.41,0,0,1-.51.28,1.21,1.21,0,0,0-.75.59c-.14.24-.27.49-.4.74a1,1,0,0,0,.15,1.29A94.38,94.38,0,0,1,661.92,953.3Zm18.69-54.93c1.18-.07,2.36-.16,3.54-.19,1.64,0,3.28-.08,4.92-.06,2.37,0,4.75.11,7.12.31,2.07.19,4.15.37,6.21.6,1.49.16,3,.4,4.46.6l.06,0a.8.8,0,0,0-.18-.15c-1.25-.71-2.48-1.46-3.75-2.12a32.82,32.82,0,0,0-9.63-3.26,22.6,22.6,0,0,0-4.93-.34,14.73,14.73,0,0,0-4.85,1,6.91,6.91,0,0,0-3.39,3.08,2.48,2.48,0,0,0-.13.3A.52.52,0,0,0,680.61,898.37Z"/><path class="cls-2" d="M653.08,922.55a2.61,2.61,0,0,0,.37-.25l1.88-1.85a1.52,1.52,0,0,0,.43-1.21,14.26,14.26,0,0,0-1.78-6.11,28,28,0,0,0-4.19-5.83,45,45,0,0,0-13.11-9.93c-.55-.28-1.12-.52-1.69-.78a.31.31,0,0,0-.2,0,3.47,3.47,0,0,0,.25.29c1.09,1.24,2.21,2.46,3.28,3.71a107.28,107.28,0,0,1,6.81,9.07c2.73,4,5.24,8.18,7.66,12.39Z"/><path class="cls-2" d="M610.74,928.53a1.43,1.43,0,0,0,.53.89,93.49,93.49,0,0,1,7.56,6.5,60.91,60.91,0,0,1,8.14,9.42,44.11,44.11,0,0,1,3.95,7c0,.09.1.18.15.3a.53.53,0,0,0,.39-.33c.55-1.15,1.1-2.3,1.63-3.46a2.76,2.76,0,0,0,0-1.66,14.06,14.06,0,0,0-2.23-5.41,24.61,24.61,0,0,0-5.17-5.61,39.51,39.51,0,0,0-12.81-7Z"/><path class="cls-2" d="M689.85,868l1.13-1.2a45.38,45.38,0,0,1,6.93-5.82,92,92,0,0,1,8.89-5.37l4.59-2.43a2.35,2.35,0,0,0,1.05-1.27l-1-.09a23.9,23.9,0,0,0-8.64,1.25A28.38,28.38,0,0,0,695,857a18.79,18.79,0,0,0-4.75,5c-.14.23-.27.46-.4.7a3.25,3.25,0,0,0-.31,2c.13.95.2,1.91.29,2.87C689.81,867.69,689.83,867.83,689.85,868Z"/><path class="cls-2" d="M623.53,983.39a.37.37,0,0,0,.31-.39c0-.36.09-.72.12-1.08a2,2,0,0,0-.16-.92,14.42,14.42,0,0,0-4.06-5.77,23.15,23.15,0,0,0-4.55-3A41.48,41.48,0,0,0,604,968.27a47.17,47.17,0,0,0-6.26-.78h-1l.35.21c2,1.07,4,2.16,6.08,3.21,3.32,1.71,6.68,3.34,9.93,5.18a59.84,59.84,0,0,1,7.69,5C621.72,981.85,622.6,982.62,623.53,983.39Z"/><path class="cls-2" d="M651.1,878.44a2.31,2.31,0,0,0,.28.19,153.42,153.42,0,0,1,23.26,17.8c.34.31.68.62,1,.94a.49.49,0,0,0,.48.13,1.36,1.36,0,0,0,.78-.5.88.88,0,0,0,.15-.82,15.45,15.45,0,0,0-3.93-6.8,32.51,32.51,0,0,0-7.82-6,42.93,42.93,0,0,0-10.63-4.32c-1.1-.28-2.22-.46-3.33-.69a.47.47,0,0,0-.17,0S651.14,878.41,651.1,878.44Z"/><path class="cls-2" d="M654.66,926.28c.47,0,1-.11,1.45-.15,1.62-.17,3.23-.35,4.85-.48s3.46-.23,5.19-.33c.41,0,.82,0,1.23,0a64.51,64.51,0,0,1,6.67.17,46,46,0,0,1,6.39.93.42.42,0,0,0,.31,0l-.37-.3a34.12,34.12,0,0,0-9.51-5.33,17.85,17.85,0,0,0-6.26-1.12,9.07,9.07,0,0,0-4.89,1.3,11.6,11.6,0,0,0-1.91,1.59c-.91.88-1.81,1.77-2.71,2.66-.14.14-.28.28-.41.43S654.46,925.94,654.66,926.28Z"/><path class="cls-2" d="M657.88,853.6a.63.63,0,0,0,.44.45c1.46.66,2.92,1.31,4.37,2,2.94,1.38,5.88,2.77,8.8,4.2q7.51,3.68,14.7,7.93l.21.11c.23-.2.26-.29.16-.51a.07.07,0,0,0,0-.06,9.77,9.77,0,0,1-1-1.89,14.08,14.08,0,0,0-3.17-4,23.85,23.85,0,0,0-5.11-3.44,44.4,44.4,0,0,0-11.19-3.91,47.12,47.12,0,0,0-7-.93l-.91,0C658.07,853.56,658,853.59,657.88,853.6Z"/><path class="cls-2" d="M627,985.29l.25-.09a49.55,49.55,0,0,1,8.21-3.25c3-.93,6.07-1.64,9.14-2.3l5.94-1.27.26-.07-.29-.14a29.78,29.78,0,0,0-6.63-1.77,28.5,28.5,0,0,0-4.79-.32,17.77,17.77,0,0,0-7.71,1.74,10.32,10.32,0,0,0-3.68,3.08,2.43,2.43,0,0,0-.53,1.38c0,.93-.11,1.85-.17,2.77Z"/><path class="cls-2" d="M635.88,952.09a94.38,94.38,0,0,1,26,1.21l-.31-.26a31.6,31.6,0,0,0-9-4.89,23.74,23.74,0,0,0-5.52-1.31,15.21,15.21,0,0,0-6.08.39,9.6,9.6,0,0,0-3.62,2,1.41,1.41,0,0,1-.51.28,1.21,1.21,0,0,0-.75.59c-.14.24-.27.49-.4.74A1,1,0,0,0,635.88,952.09Z"/><path class="cls-2" d="M680.06,898.16a.52.52,0,0,0,.55.21c1.18-.07,2.36-.16,3.54-.19,1.64,0,3.28-.08,4.92-.06,2.37,0,4.75.11,7.12.31,2.07.19,4.15.37,6.21.6,1.49.16,3,.4,4.46.6l.06,0a.8.8,0,0,0-.18-.15c-1.25-.71-2.48-1.46-3.75-2.12a32.82,32.82,0,0,0-9.63-3.26,22.6,22.6,0,0,0-4.93-.34,14.73,14.73,0,0,0-4.85,1,6.91,6.91,0,0,0-3.39,3.08A2.48,2.48,0,0,0,680.06,898.16Z"/></g></g><g id="Calque_3" data-name="Calque 3"><g id="DoigtsCroisés"><path class="cls-1" d="M644.07,310.93l-.62,4.17c-.07.24-.16.48-.22.73-.13.64-.21,1.3-.37,1.93-.58,2.32-1.19,4.63-1.79,6.94-.77,3-1.53,5.94-2.32,8.91-.62,2.33-1.37,4.62-2.22,6.88a110.52,110.52,0,0,1-7.14,15.18,100.9,100.9,0,0,1-7.92,11.84c-2.08,2.72-4.21,5.39-6.32,8.08-2.33,3-4.61,6-6.64,9.15a21.33,21.33,0,0,1-3.28,3.93,23.09,23.09,0,0,1-9.51,5.4,36.37,36.37,0,0,1-12.37,1.28c-1.75-.09-3.49-.3-5.25-.45l-2.31-.2c-.21,0-.41,0-.62,0L570.3,394a4.22,4.22,0,0,0-.45-.18c-.57-.14-1.14-.29-1.71-.4a36.1,36.1,0,0,1-5.33-1.53,22.33,22.33,0,0,1-6.27-3.54,22.82,22.82,0,0,1-4.87-5.59,43.76,43.76,0,0,1-3.72-7.63c-.59-1.51-1.21-3-1.85-4.49-1.08-2.57-2.22-5.11-3.27-7.69a87.11,87.11,0,0,1-6.44-33.17c0-1.71,0-3.42,0-5.13s.09-3.7.16-5.55c0-1.52.12-3,.19-4.56s.15-3.32.23-5,.15-3.09.2-4.64c.06-2.08.11-4.16.11-6.25s0-4.4-.11-6.6a57.21,57.21,0,0,1,.1-8.07,2.17,2.17,0,0,0-.09-1l.57-3.89a1.55,1.55,0,0,0,.38-.89c.14-.62.28-1.23.43-1.85a36.41,36.41,0,0,1,2.09-6.25,26,26,0,0,1,4.14-6.74,16.89,16.89,0,0,1,9.14-5.57,14.53,14.53,0,0,1,4.6-.36,11.9,11.9,0,0,1,5.45,1.91l.61.37a2.19,2.19,0,0,0,.06-.39c0-.46,0-.93.05-1.4a11.12,11.12,0,0,1,1.79-5.41,15.21,15.21,0,0,1,4.37-4.31,11.89,11.89,0,0,1,4.93-1.92.86.86,0,0,0,.54-.17c-.06-.16-.1-.32-.15-.47a8.32,8.32,0,0,1-.46-1.91,4.27,4.27,0,0,1,.21-1.94,2,2,0,0,1,1.09-1.22,5.58,5.58,0,0,1,1.75-.5,9.55,9.55,0,0,1,4,.52,22.5,22.5,0,0,1,3.05,1.26,2.8,2.8,0,0,0,.38.13c0-.13.09-.21.12-.3.63-1.94,1.25-3.88,1.89-5.81,1.15-3.49,2.29-7,3.48-10.46,1.53-4.5,3.1-9,4.66-13.48a2.15,2.15,0,0,0,.07-1.23c-.56-2.41-1-4.85-1.42-7.3a52,52,0,0,1-.69-11.55,21.19,21.19,0,0,1,1.76-7.55,1.1,1.1,0,0,0,.09-.67c-.14-1-.29-1.9-.38-2.85a16,16,0,0,1,.23-4.89,5.68,5.68,0,0,1,1.07-2.42,3.29,3.29,0,0,1,2.73-1.35,5.61,5.61,0,0,1,3.63,1.3,11.58,11.58,0,0,1,1.73,1.84,17.34,17.34,0,0,1,1.89,3,2.93,2.93,0,0,0,1.21,1.39,5.59,5.59,0,0,1,.61.48l.33.22c.17-.39.34-.75.49-1.11a58.11,58.11,0,0,1,3.06-6.24,23.41,23.41,0,0,1,3.1-4.24,11,11,0,0,1,4.23-2.94,1.36,1.36,0,0,0,.56-.41c.5-.56,1-1.12,1.52-1.65a14.78,14.78,0,0,1,2.78-2.26,5.36,5.36,0,0,1,2.48-.9s.07-.06.11-.08l.83.12a1.2,1.2,0,0,0,.24.15,5,5,0,0,1,3,2.74,7.86,7.86,0,0,1,.61,2.23,16.32,16.32,0,0,1-.3,5.44,1.69,1.69,0,0,0,.06,1,16.39,16.39,0,0,1,.4,9.48c-.29,1.21-.58,2.41-.9,3.62-.55,2.1-1.09,4.21-1.7,6.3-.66,2.27-1.36,4.53-2.07,6.78-.9,2.82-1.82,5.62-2.73,8.42l-2,6a2.25,2.25,0,0,0,0,1.36c.66,2.39,1.29,4.8,1.95,7.19,1.88,6.84,3.8,13.67,5.65,20.51,1.74,6.47,3.32,13,4.52,19.56.83,4.56,1.67,9.12,2.15,13.74a2.33,2.33,0,0,0,.2.73c.3.69.62,1.36.92,2.05a72.49,72.49,0,0,1,5.83,23,42.78,42.78,0,0,1-.11,9.19A6.42,6.42,0,0,0,644.07,310.93Zm-66.43-8.11a1.69,1.69,0,0,0-.13-.79c-2.47-9-5.41-17.78-8.75-26.47a52.08,52.08,0,0,0-2.71-5.94,23,23,0,0,0-2.52-3.8,11.31,11.31,0,0,0-2-1.92,7.06,7.06,0,0,0-5-1.3,11.3,11.3,0,0,0-6.19,2.59,14.46,14.46,0,0,0-1.82,1.85,20.36,20.36,0,0,0-2.8,4.53,36.56,36.56,0,0,0-2.73,9,42.89,42.89,0,0,0-.7,8.46c0,1.43.12,2.86.15,4.28,0,2.34.05,4.69,0,7,0,1.26,0,2.53-.08,3.79,0,1.52-.1,3-.17,4.57S542,312,542,313.59c-.09,2.06-.18,4.12-.25,6.18-.07,1.75-.14,3.51-.15,5.26q0,3.53.06,7c.07,2.55.23,5.1.52,7.63a80.43,80.43,0,0,0,4.47,18.67c1.17,3.2,2.51,6.32,3.89,9.42.85,1.91,1.67,3.82,2.4,5.78.36,1,.79,1.95,1.23,2.91a25.87,25.87,0,0,0,2.87,4.9,16.62,16.62,0,0,0,5.75,4.85,24.62,24.62,0,0,0,5.13,1.87,52.21,52.21,0,0,0,6.43,1.16c1.89.23,3.77.43,5.66.64a45.79,45.79,0,0,0,7.85.3,26.73,26.73,0,0,0,6.7-1.15,17.36,17.36,0,0,0,9.75-7.28c1.79-2.76,3.72-5.41,5.74-8,2.26-2.9,4.55-5.78,6.8-8.68a97.8,97.8,0,0,0,13.38-22.69,77,77,0,0,0,3.74-10.73c.34-1.29.69-2.58,1-3.87.43-1.64.83-3.27,1.25-4.91.28-1.11.56-2.22.85-3.33.35-1.39.74-2.76,1.06-4.16a44.46,44.46,0,0,0,1.08-9.27,55.55,55.55,0,0,0-.75-9.72,70.28,70.28,0,0,0-7-20.9,43.94,43.94,0,0,0-2.77-4.73,22.8,22.8,0,0,0-9.49-7.9,48.37,48.37,0,0,0-6.54-2.32c-2.11-.62-4.24-1.19-6.35-1.79s-4.18-1.25-6.21-2a2.3,2.3,0,0,0-.39-.05,6.12,6.12,0,0,1-2,4.05,5.28,5.28,0,0,1-5.4,1.25,11.26,11.26,0,0,1-1.69-.68,21.7,21.7,0,0,1-4.33-2.84,41.12,41.12,0,0,1-3.87-3.59c-.08-.08-.12-.27-.34-.16a1.11,1.11,0,0,0,0,.26,5.4,5.4,0,0,0,0,.56,15.46,15.46,0,0,0,1.17,4.32,23.25,23.25,0,0,0,4.33,6.78,44.59,44.59,0,0,0,14.92,10.89,32.23,32.23,0,0,0,8.31,2.54,23,23,0,0,0,3.21.32,23.23,23.23,0,0,0,3-.1,2.7,2.7,0,0,1,1.58.26,2.58,2.58,0,0,1-.62,4.81,7.55,7.55,0,0,1-1,.13,26.94,26.94,0,0,1-5.46-.09h-.44a3.24,3.24,0,0,0,0,.46c.19,1.11.37,2.22.6,3.31a37.38,37.38,0,0,0,3.09,9.09,24.32,24.32,0,0,0,5.64,7.48,3.73,3.73,0,0,1,.35.34,2.38,2.38,0,0,1,.26,2.64,2.35,2.35,0,0,1-2.41,1.21,2.54,2.54,0,0,1-1.37-.67,27.71,27.71,0,0,1-3.55-3.79,34,34,0,0,1-5-9.46,52.59,52.59,0,0,1-2.5-10.94c0-.22-.07-.45-.1-.69-.77-.24-1.5-.46-2.23-.72s-1.44-.55-2.17-.82-1.39-.64-2.18-.89c.09.28.15.5.22.72.87,2.58,1.76,5.14,2.61,7.72,1.28,3.92,2.48,7.86,3.49,11.86a55.32,55.32,0,0,1,1.57,8.27,2.69,2.69,0,0,0,.19.67c.34,1,.72,2,1,3.07a29.75,29.75,0,0,1,1.37,8,10.11,10.11,0,0,1-.4,3.33,4.05,4.05,0,0,1-1.22,1.94,1.66,1.66,0,0,1-.94.45,4.87,4.87,0,0,1-1.74-.14,7.93,7.93,0,0,1-2.43-1.22,14.88,14.88,0,0,1-2.47-2.29l-.46-.51a1.43,1.43,0,0,0-.3,0,9.29,9.29,0,0,1-5.16-.61,14.2,14.2,0,0,1-4.75-3.19,24,24,0,0,1-3.14-4,43.14,43.14,0,0,1-2.42-4.36c-.07-.13-.07-.34-.32-.32,0,.37-.09.74-.17,1.11a2.57,2.57,0,0,0,.05,1.17,30.86,30.86,0,0,1,1,6,15.36,15.36,0,0,1-.27,4.33,5.52,5.52,0,0,1-.69,1.75,3.19,3.19,0,0,1-.86.93,1.83,1.83,0,0,1-1.25.34,5.39,5.39,0,0,1-2.49-.87,10.52,10.52,0,0,1-2.24-2,18.92,18.92,0,0,1-2.14-3c-.13-.22-.27-.44-.4-.64s-.49-.09-.71-.15a16.34,16.34,0,0,1-1.69-.49,14.23,14.23,0,0,1-4.93-3.29,22.64,22.64,0,0,1-4.31-6,122.68,122.68,0,0,1-5.07-11.5c-.07-.19-.16-.38-.25-.58l-.83-.22c-.42-.14-.86-.25-1.27-.42a13.25,13.25,0,0,1-6.38-5.49,11.13,11.13,0,0,1-1.21-2.76,1.83,1.83,0,0,1,1.29-2.31,1.42,1.42,0,0,1,1.87.9c.07.18.11.36.18.54a9.92,9.92,0,0,0,4.29,5.29c.17.1.36.18.64.32-.06-.23-.08-.35-.11-.48-.14-.47-.29-.94-.42-1.41a47.34,47.34,0,0,1-1.82-9.72,21.65,21.65,0,0,1,0-3.51,2.9,2.9,0,0,1,.26-1.08,2.59,2.59,0,0,1,4.9,1.18c0,.18,0,.37,0,.56a23.24,23.24,0,0,0,.21,4.41,48,48,0,0,0,1.8,7.94A105.71,105.71,0,0,0,568,308.5c.23.44.48.86.74,1.28a14.82,14.82,0,0,0,2.92,3.49c.09.08.17.24.35.12l-.18-.74c-.16-.88-.35-1.75-.47-2.63a11.06,11.06,0,0,1,0-3.63,3.78,3.78,0,0,1,1-2.05,5.34,5.34,0,0,1,4.6-1.61ZM611,254.71l3.21.92c1.82.52,3.62,1.11,5.39,1.8a28.27,28.27,0,0,1,11,7.45c.07.08.12.2.29.15a2.73,2.73,0,0,0,0-.4c-.61-3.36-1.25-6.72-2-10.06-1.4-6.11-3-12.17-4.69-18.22-1.81-6.6-3.65-13.18-5.44-19.78-.85-3.14-1.6-6.31-2.42-9.45A103.61,103.61,0,0,0,612,194a47.65,47.65,0,0,0-3.23-6.62,17.45,17.45,0,0,0-2-2.85,6.65,6.65,0,0,0-1.31-1.17,2.09,2.09,0,0,0-2.88.11c-.11.09-.22.18-.32.28a7.1,7.1,0,0,0-1.51,1.93,11.55,11.55,0,0,0-1.22,3.42,29.47,29.47,0,0,0-.42,7.14,70.21,70.21,0,0,0,1.12,8.91c.7,3.85,1.63,7.65,2.57,11.45.47,1.9,1,3.81,1.35,5.74,2.06,10.57,4.25,21.11,6.72,31.59C610.86,254.22,610.93,254.47,611,254.71Zm-33.56-3.81a6.88,6.88,0,0,0-.71,0,6.8,6.8,0,0,0-2.53.79,10.55,10.55,0,0,0-3.39,2.91,6.71,6.71,0,0,0-1.38,3.77,12.54,12.54,0,0,0,.11,2.45,27.24,27.24,0,0,0,1,4.37c.76,2.44,1.68,4.82,2.66,7.18,1.63,3.94,3.27,7.87,4.76,11.87q2.35,6.28,5.22,12.36c1.17,2.46,2.24,4.95,3.26,7.47.84,2.06,1.71,4.11,2.71,6.1a34.63,34.63,0,0,0,2.41,4.12,16.58,16.58,0,0,0,2.29,2.66,9.21,9.21,0,0,0,2.81,1.83c.13.05.26.07.42.12a1.45,1.45,0,0,0-.29-.74,34.48,34.48,0,0,1-2.7-7.15,16.86,16.86,0,0,1-.54-4.31,4.85,4.85,0,0,1,2.49-4.36,5.51,5.51,0,0,1,4.17-.75l.59.08c-.05-.27-.09-.47-.14-.67-.51-1.73-1-3.46-1.53-5.19-1.76-5.75-3.75-11.43-5.76-17.11a1.58,1.58,0,0,0-.66-.78,48.33,48.33,0,0,1-9.15-8,29.24,29.24,0,0,1-4.68-7.07,21.59,21.59,0,0,1-1.83-5.81,12.21,12.21,0,0,1,.28-5.7A3.83,3.83,0,0,0,577.43,250.9Zm43.14-46.13c.14-.33.21-.49.27-.66.31-.94.62-1.87.92-2.81.67-2.07,1.34-4.14,2-6.21.53-1.7,1-3.4,1.54-5.11s.91-3.3,1.35-4.95c.32-1.22.61-2.45.92-3.68a15.11,15.11,0,0,0,.54-4.23,10.43,10.43,0,0,0-1-4.14,6.23,6.23,0,0,0-1.37-1.85,4.07,4.07,0,0,0-4.58-.53,6.83,6.83,0,0,0-1.4,1.05,13.3,13.3,0,0,0-1.69,2,31.58,31.58,0,0,0-2.46,4.16c-1,2.05-1.9,4.17-2.78,6.29a5.72,5.72,0,0,0-.22.55l.11.23a50.47,50.47,0,0,1,3.55,7.09,106,106,0,0,1,4,11.9C620.37,204.09,620.45,204.34,620.57,204.77Zm-14.86,48.37c-.06-.3-.1-.53-.15-.75q-3.12-13.54-5.75-27.2c-.31-1.58-.67-3.16-1-4.74,0-.13,0-.34-.2-.4,0,0-.05,0-.07,0l0,.06c-2.73,7.87-5.28,15.8-7.88,23.71-.08.23-.13.45-.2.68v.07a.45.45,0,0,0,0,.08l.14.14,3,2.46a4.73,4.73,0,0,0,.39.28l4.79,2.81a17.29,17.29,0,0,0,2.69,1.34c1.21.44,2.43.87,3.65,1.29A5.29,5.29,0,0,0,605.71,253.14Z"/><path class="cls-3" d="M577.64,302.82l-.62-.09a5.34,5.34,0,0,0-4.6,1.61,3.78,3.78,0,0,0-1,2.05,11.06,11.06,0,0,0,0,3.63c.12.88.31,1.75.47,2.63l.18.74c-.18.12-.26,0-.35-.12a14.82,14.82,0,0,1-2.92-3.49c-.26-.42-.51-.84-.74-1.28a105.71,105.71,0,0,1-6.77-16.41,48,48,0,0,1-1.8-7.94,23.24,23.24,0,0,1-.21-4.41c0-.19,0-.38,0-.56a2.59,2.59,0,0,0-4.9-1.18,2.9,2.9,0,0,0-.26,1.08,21.65,21.65,0,0,0,0,3.51,47.34,47.34,0,0,0,1.82,9.72c.13.47.28.94.42,1.41,0,.13,0,.25.11.48-.28-.14-.47-.22-.64-.32a9.92,9.92,0,0,1-4.29-5.29c-.07-.18-.11-.36-.18-.54a1.42,1.42,0,0,0-1.87-.9,1.83,1.83,0,0,0-1.29,2.31,11.13,11.13,0,0,0,1.21,2.76,13.25,13.25,0,0,0,6.38,5.49c.41.17.85.28,1.27.42l.83.22c.09.2.18.39.25.58a122.68,122.68,0,0,0,5.07,11.5,22.64,22.64,0,0,0,4.31,6,14.23,14.23,0,0,0,4.93,3.29,16.34,16.34,0,0,0,1.69.49c.22.06.45.09.71.15s.27.42.4.64a18.92,18.92,0,0,0,2.14,3,10.52,10.52,0,0,0,2.24,2,5.39,5.39,0,0,0,2.49.87,1.83,1.83,0,0,0,1.25-.34,3.19,3.19,0,0,0,.86-.93,5.52,5.52,0,0,0,.69-1.75,15.36,15.36,0,0,0,.27-4.33,30.86,30.86,0,0,0-1-6,2.57,2.57,0,0,1-.05-1.17c.08-.37.12-.74.17-1.11.25,0,.25.19.32.32a43.14,43.14,0,0,0,2.42,4.36,24,24,0,0,0,3.14,4,14.2,14.2,0,0,0,4.75,3.19,9.29,9.29,0,0,0,5.16.61,1.43,1.43,0,0,1,.3,0l.46.51a14.88,14.88,0,0,0,2.47,2.29,7.93,7.93,0,0,0,2.43,1.22,4.87,4.87,0,0,0,1.74.14,1.66,1.66,0,0,0,.94-.45,4.05,4.05,0,0,0,1.22-1.94,10.11,10.11,0,0,0,.4-3.33,29.75,29.75,0,0,0-1.37-8c-.31-1-.69-2.05-1-3.07a2.69,2.69,0,0,1-.19-.67,55.32,55.32,0,0,0-1.57-8.27c-1-4-2.21-7.94-3.49-11.86-.85-2.58-1.74-5.14-2.61-7.72-.07-.22-.13-.44-.22-.72.79.25,1.46.63,2.18.89s1.44.57,2.17.82,1.46.48,2.23.72c0,.24.07.47.1.69a52.59,52.59,0,0,0,2.5,10.94,34,34,0,0,0,5,9.46,27.71,27.71,0,0,0,3.55,3.79,2.54,2.54,0,0,0,1.37.67,2.35,2.35,0,0,0,2.41-1.21,2.38,2.38,0,0,0-.26-2.64,3.73,3.73,0,0,0-.35-.34,24.32,24.32,0,0,1-5.64-7.48,37.38,37.38,0,0,1-3.09-9.09c-.23-1.09-.41-2.2-.6-3.31a3.24,3.24,0,0,1,0-.46h.44a26.94,26.94,0,0,0,5.46.09,7.55,7.55,0,0,0,1-.13,2.58,2.58,0,0,0,.62-4.81,2.7,2.7,0,0,0-1.58-.26,23.23,23.23,0,0,1-3,.1,23,23,0,0,1-3.21-.32,32.23,32.23,0,0,1-8.31-2.54,44.59,44.59,0,0,1-14.92-10.89,23.25,23.25,0,0,1-4.33-6.78,15.46,15.46,0,0,1-1.17-4.32,5.4,5.4,0,0,1,0-.56,1.11,1.11,0,0,1,0-.26c.22-.11.26.08.34.16a41.12,41.12,0,0,0,3.87,3.59,21.7,21.7,0,0,0,4.33,2.84,11.26,11.26,0,0,0,1.69.68,5.28,5.28,0,0,0,5.4-1.25,6.12,6.12,0,0,0,2-4.05,2.3,2.3,0,0,1,.39.05c2,.78,4.11,1.44,6.21,2s4.24,1.17,6.35,1.79a48.37,48.37,0,0,1,6.54,2.32,22.8,22.8,0,0,1,9.49,7.9,43.94,43.94,0,0,1,2.77,4.73,70.28,70.28,0,0,1,7,20.9,55.55,55.55,0,0,1,.75,9.72,44.46,44.46,0,0,1-1.08,9.27c-.32,1.4-.71,2.77-1.06,4.16-.29,1.11-.57,2.22-.85,3.33-.42,1.64-.82,3.27-1.25,4.91-.33,1.29-.68,2.58-1,3.87a77,77,0,0,1-3.74,10.73,97.8,97.8,0,0,1-13.38,22.69c-2.25,2.9-4.54,5.78-6.8,8.68-2,2.58-4,5.23-5.74,8a17.36,17.36,0,0,1-9.75,7.28,26.73,26.73,0,0,1-6.7,1.15,45.79,45.79,0,0,1-7.85-.3c-1.89-.21-3.77-.41-5.66-.64a52.21,52.21,0,0,1-6.43-1.16,24.62,24.62,0,0,1-5.13-1.87,16.62,16.62,0,0,1-5.75-4.85,25.87,25.87,0,0,1-2.87-4.9c-.44-1-.87-1.93-1.23-2.91-.73-2-1.55-3.87-2.4-5.78-1.38-3.1-2.72-6.22-3.89-9.42a80.43,80.43,0,0,1-4.47-18.67c-.29-2.53-.45-5.08-.52-7.63q-.07-3.51-.06-7c0-1.75.08-3.51.15-5.26.07-2.06.16-4.12.25-6.18.08-1.64.17-3.28.24-4.91s.12-3.05.17-4.57c0-1.26.08-2.53.08-3.79,0-2.34,0-4.69,0-7,0-1.42-.13-2.85-.15-4.28a42.89,42.89,0,0,1,.7-8.46,36.56,36.56,0,0,1,2.73-9,20.36,20.36,0,0,1,2.8-4.53,14.46,14.46,0,0,1,1.82-1.85,11.3,11.3,0,0,1,6.19-2.59,7.06,7.06,0,0,1,5,1.3,11.31,11.31,0,0,1,2,1.92,23,23,0,0,1,2.52,3.8,52.08,52.08,0,0,1,2.71,5.94c3.34,8.69,6.28,17.5,8.75,26.47A1.69,1.69,0,0,1,577.64,302.82Z"/><path class="cls-3" d="M611,254.71c-.06-.24-.13-.49-.19-.74-2.47-10.48-4.66-21-6.72-31.59-.38-1.93-.88-3.84-1.35-5.74-.94-3.8-1.87-7.6-2.57-11.45a70.21,70.21,0,0,1-1.12-8.91,29.47,29.47,0,0,1,.42-7.14,11.55,11.55,0,0,1,1.22-3.42,7.1,7.1,0,0,1,1.51-1.93c.1-.1.21-.19.32-.28a2.09,2.09,0,0,1,2.88-.11,6.65,6.65,0,0,1,1.31,1.17,17.45,17.45,0,0,1,2,2.85A47.65,47.65,0,0,1,612,194a103.61,103.61,0,0,1,4.29,13.08c.82,3.14,1.57,6.31,2.42,9.45,1.79,6.6,3.63,13.18,5.44,19.78,1.67,6.05,3.29,12.11,4.69,18.22.76,3.34,1.4,6.7,2,10.06a2.73,2.73,0,0,1,0,.4c-.17.05-.22-.07-.29-.15a28.27,28.27,0,0,0-11-7.45c-1.77-.69-3.57-1.28-5.39-1.8Z"/><path class="cls-3" d="M577.43,250.9a3.83,3.83,0,0,1-.07.43,12.21,12.21,0,0,0-.28,5.7,21.59,21.59,0,0,0,1.83,5.81,29.24,29.24,0,0,0,4.68,7.07,48.33,48.33,0,0,0,9.15,8,1.58,1.58,0,0,1,.66.78c2,5.68,4,11.36,5.76,17.11.53,1.73,1,3.46,1.53,5.19,0,.2.09.4.14.67l-.59-.08a5.51,5.51,0,0,0-4.17.75,4.85,4.85,0,0,0-2.49,4.36,16.86,16.86,0,0,0,.54,4.31,34.48,34.48,0,0,0,2.7,7.15,1.45,1.45,0,0,1,.29.74c-.16-.05-.29-.07-.42-.12a9.21,9.21,0,0,1-2.81-1.83,16.58,16.58,0,0,1-2.29-2.66,34.63,34.63,0,0,1-2.41-4.12c-1-2-1.87-4-2.71-6.1-1-2.52-2.09-5-3.26-7.47q-2.87-6.08-5.22-12.36c-1.49-4-3.13-7.93-4.76-11.87-1-2.36-1.9-4.74-2.66-7.18a27.24,27.24,0,0,1-1-4.37,12.54,12.54,0,0,1-.11-2.45,6.71,6.71,0,0,1,1.38-3.77,10.55,10.55,0,0,1,3.39-2.91,6.8,6.8,0,0,1,2.53-.79A6.88,6.88,0,0,1,577.43,250.9Z"/><path class="cls-3" d="M620.57,204.77c-.12-.43-.2-.68-.27-.92a106,106,0,0,0-4-11.9,50.47,50.47,0,0,0-3.55-7.09l-.11-.23a5.72,5.72,0,0,1,.22-.55c.88-2.12,1.75-4.24,2.78-6.29a31.58,31.58,0,0,1,2.46-4.16,13.3,13.3,0,0,1,1.69-2,6.83,6.83,0,0,1,1.4-1.05,4.07,4.07,0,0,1,4.58.53,6.23,6.23,0,0,1,1.37,1.85,10.43,10.43,0,0,1,1,4.14,15.11,15.11,0,0,1-.54,4.23c-.31,1.23-.6,2.46-.92,3.68-.44,1.65-.88,3.31-1.35,4.95s-1,3.41-1.54,5.11c-.65,2.07-1.32,4.14-2,6.21-.3.94-.61,1.87-.92,2.81C620.78,204.28,620.71,204.44,620.57,204.77Z"/><path class="cls-3" d="M605.71,253.14a5.29,5.29,0,0,1-.66-.14c-1.22-.42-2.44-.85-3.65-1.29a17.29,17.29,0,0,1-2.69-1.34l-4.79-2.81a4.73,4.73,0,0,1-.39-.28l-3-2.46-.14-.14a.45.45,0,0,1,0-.08v-.07c.07-.23.12-.45.2-.68,2.6-7.91,5.15-15.84,7.88-23.71l0-.06s.05,0,.07,0c.21.06.17.27.2.4.35,1.58.71,3.16,1,4.74q2.66,13.65,5.75,27.2C605.61,252.61,605.65,252.84,605.71,253.14Z"/></g><g id="Dent"><path class="cls-1" d="M227.91,338.21l1.51,0,.09,0c.59.11,1.2.17,1.77.33a14.29,14.29,0,0,1,4.24,2.12c.86.6,1.71,1.22,2.6,1.79a7.55,7.55,0,0,0,3.28,1.3c1,.11,2,.21,2.94.25a20.74,20.74,0,0,1,3.85.44,9.49,9.49,0,0,1,4.63,2.43,8.14,8.14,0,0,1,2.41,5.37,15.2,15.2,0,0,1-.34,4.15,11.22,11.22,0,0,1-2.41,5c-1.07,1.25-2.21,2.43-3.3,3.65-.52.59-1,1.2-1.5,1.81a.51.51,0,0,0-.12.27c-.5,3.28-1.15,6.54-1.92,9.77a22.65,22.65,0,0,1-2.84,6.88,16.17,16.17,0,0,1-4.92,5.06,11.13,11.13,0,0,1-4.11,1.64c-.25,0-.51.08-.77.11h-.36l-.16,0a4.41,4.41,0,0,1-1.53-.28,2.5,2.5,0,0,1-1.42-3.69,45.82,45.82,0,0,0,3-6.3,4.72,4.72,0,0,0,.29-.9,39.6,39.6,0,0,0,.55-5.09,10.58,10.58,0,0,0-.19-2.38,2.31,2.31,0,0,0-3.35-1.47,9.31,9.31,0,0,0-1.93,1.67,34.07,34.07,0,0,0-3.19,4.36,32.39,32.39,0,0,0-3.57,7.8,2.51,2.51,0,0,1-1.29,1.62,2.44,2.44,0,0,1-2.65-.31,5.31,5.31,0,0,1-1.54-2,13,13,0,0,1-1.19-4.27l-.09-.67-.06-2.07a.5.5,0,0,0,0-.12,24.88,24.88,0,0,1,.63-4.86,34.16,34.16,0,0,1,1.57-4.84c.65-1.66,1.34-3.3,2-5a18,18,0,0,0,.74-2.58,14.21,14.21,0,0,0,.11-3.57c0-.82-.15-1.64-.2-2.47a29.53,29.53,0,0,1,0-4.1,13.44,13.44,0,0,1,.58-3.22,12.28,12.28,0,0,1,3.09-5.2,8.51,8.51,0,0,1,4.27-2.32ZM218.48,380h.05l.07-.18c.31-.68.61-1.38.94-2.06a40.24,40.24,0,0,1,4.88-7.57,12.36,12.36,0,0,1,3.07-2.83,6.35,6.35,0,0,1,3.34-1.09,6.24,6.24,0,0,1,2.55.57,5.64,5.64,0,0,1,3.54,4.21,14.88,14.88,0,0,1,.24,4.26c-.09,1.21-.23,2.41-.37,3.6a10,10,0,0,1-.41,2.08,48.56,48.56,0,0,1-2.24,5.26l-.09.18.13,0a8.45,8.45,0,0,0,2.41-1.37,14.55,14.55,0,0,0,4.07-5.43,20.23,20.23,0,0,0,1.25-3.81c.62-2.52,1.13-5.08,1.56-7.64l.27-1.68h-.13a14.65,14.65,0,0,1-4.67.35,1.73,1.73,0,1,1,.3-3.44,10.63,10.63,0,0,0,4.08-.41,10.82,10.82,0,0,0,4.19-2.42c.81-.74,1.56-1.55,2.34-2.32a2.32,2.32,0,0,0,.4-.43,7.59,7.59,0,0,0,.77-1.89,13.72,13.72,0,0,0,.35-3,4.57,4.57,0,0,0-.64-2.49,5.32,5.32,0,0,0-5.24-2.22,9.58,9.58,0,0,0-2.55.91c-1.09.54-2.17,1.12-3.27,1.62a12.19,12.19,0,0,1-5.32,1.18,12.89,12.89,0,0,1-3.64-.59,1.72,1.72,0,1,1,1-3.3,9.79,9.79,0,0,0,2.89.44,8.67,8.67,0,0,0,3.06-.63c.48-.19,1-.41,1.43-.61a.44.44,0,0,0-.17-.1c-.32-.13-.66-.25-1-.39a22.92,22.92,0,0,1-4.22-2.6,12.23,12.23,0,0,0-3-1.74,4.65,4.65,0,0,0-4.49.5,6.21,6.21,0,0,0-1.82,2,9.76,9.76,0,0,0-1.32,4.21,29.25,29.25,0,0,0,0,5,1.23,1.23,0,0,0,.1.42,8.22,8.22,0,0,0,1.86,2.59,14.49,14.49,0,0,0,2.72,2,1.72,1.72,0,0,1-1.73,3,15.3,15.3,0,0,1-2.32-1.58L223,360l0,.09a27.87,27.87,0,0,1-1.42,4.46c-.75,1.9-1.54,3.8-2.22,5.73a18.8,18.8,0,0,0-1,8.77C218.38,379.39,218.44,379.69,218.48,380Z"/><path class="cls-4" d="M218.48,380c0-.29-.1-.59-.14-.89a18.8,18.8,0,0,1,1-8.77c.68-1.93,1.47-3.83,2.22-5.73a27.87,27.87,0,0,0,1.42-4.46l0-.09.69.56a15.3,15.3,0,0,0,2.32,1.58,1.72,1.72,0,0,0,1.73-3,14.49,14.49,0,0,1-2.72-2,8.22,8.22,0,0,1-1.86-2.59,1.23,1.23,0,0,1-.1-.42,29.25,29.25,0,0,1,0-5,9.76,9.76,0,0,1,1.32-4.21,6.21,6.21,0,0,1,1.82-2,4.65,4.65,0,0,1,4.49-.5,12.23,12.23,0,0,1,3,1.74,22.92,22.92,0,0,0,4.22,2.6c.32.14.66.26,1,.39a.44.44,0,0,1,.17.1c-.48.2-1,.42-1.43.61a8.67,8.67,0,0,1-3.06.63,9.79,9.79,0,0,1-2.89-.44,1.72,1.72,0,1,0-1,3.3,12.89,12.89,0,0,0,3.64.59,12.19,12.19,0,0,0,5.32-1.18c1.1-.5,2.18-1.08,3.27-1.62a9.58,9.58,0,0,1,2.55-.91,5.32,5.32,0,0,1,5.24,2.22,4.57,4.57,0,0,1,.64,2.49,13.72,13.72,0,0,1-.35,3,7.59,7.59,0,0,1-.77,1.89,2.32,2.32,0,0,1-.4.43c-.78.77-1.53,1.58-2.34,2.32a10.82,10.82,0,0,1-4.19,2.42,10.63,10.63,0,0,1-4.08.41,1.73,1.73,0,1,0-.3,3.44,14.65,14.65,0,0,0,4.67-.35h.13l-.27,1.68c-.43,2.56-.94,5.12-1.56,7.64a20.23,20.23,0,0,1-1.25,3.81,14.55,14.55,0,0,1-4.07,5.43,8.45,8.45,0,0,1-2.41,1.37l-.13,0,.09-.18a48.56,48.56,0,0,0,2.24-5.26,10,10,0,0,0,.41-2.08c.14-1.19.28-2.39.37-3.6a14.88,14.88,0,0,0-.24-4.26,5.64,5.64,0,0,0-3.54-4.21,6.24,6.24,0,0,0-2.55-.57,6.35,6.35,0,0,0-3.34,1.09,12.36,12.36,0,0,0-3.07,2.83,40.24,40.24,0,0,0-4.88,7.57c-.33.68-.63,1.38-.94,2.06l-.07.18Z"/></g><g id="Crayon"><path class="cls-1" d="M110.3,698a9.26,9.26,0,0,1,3.73-4.56c.25-.16.51-.3.76-.44l.42-.21,1-.33a.67.67,0,0,1,.2,0,6.17,6.17,0,0,1,2.15-.08,9.85,9.85,0,0,1,4,1.47,28.14,28.14,0,0,1,4.64,3.56q7.15,6.52,14.28,13.08l54.52,50a2.59,2.59,0,0,1,.52.64l10.1,16.31c.15.24.3.47.46.7l.26.4a.53.53,0,0,1,.08.17l.12.38a.74.74,0,0,1,0,.29.52.52,0,0,1,0,.11,1.62,1.62,0,0,1-1,1.41,1.76,1.76,0,0,1-1.28,0l-1.35-.5-18.06-6.63a3.43,3.43,0,0,1-1.1-.69q-3.84-3.49-7.68-7L119,712.83c-.39-.35-.77-.71-1.15-1.07l-1-1a36.87,36.87,0,0,1-4.09-4.23,13.26,13.26,0,0,1-2.25-3.79A6.73,6.73,0,0,1,110.3,698Z"/><path class="cls-2" d="M190.89,763.35l2-2.13L132.4,705.83c-.65.72-1.3,1.42-2,2.15Z"/><path class="cls-2" d="M126.3,712.49c-.58.63-1.13,1.24-1.71,1.86l60.64,55.54,1.65-1.91Z"/><path class="cls-2" d="M188.06,766.6l1.63-1.89-60.48-55.39c-.57.61-1.12,1.22-1.69,1.84Z"/><path class="cls-3" d="M117.31,707.62l7.66-8.37-.08-.1a26.05,26.05,0,0,0-4.34-3.26,7,7,0,0,0-2.42-.9,3.88,3.88,0,0,0-2.79.58,7.08,7.08,0,0,0-2.23,2.26,4.19,4.19,0,0,0-.34,3.93,9.56,9.56,0,0,0,1.83,3c.83,1,1.72,1.84,2.58,2.76Z"/><path class="cls-4" d="M187.55,771.66l7.94,2.91a5.76,5.76,0,0,1,3.6-4.46l-4.2-6.79C192.32,766,190,768.86,187.55,771.66Z"/><path class="cls-4" d="M130.6,704c-.42-.38-.81-.75-1.24-1.13l-8,8.71,1.23,1.13Z"/><path class="cls-4" d="M118.89,709.29l1.13,1,8-8.71c-.38-.35-.75-.68-1.13-1Z"/></g><path class="cls-5" d="M678,720.13c-2.43-1.34-4.52,2.42-2.09,3.77S680.46,721.48,678,720.13Z"/><path class="cls-5" d="M665.38,690c2.42,1.35,4.51-2.41,2.08-3.76S663,688.61,665.38,690Z"/><path class="cls-5" d="M636.28,671.44c3.64,2,6.77-3.62,3.13-5.64S632.64,669.42,636.28,671.44Z"/><path class="cls-5" d="M102.69,783.07h0c-2,.16-3.63.24-5,.24-3.26,0-5.34-.48-6.55-1.53-2-1.7-2.57-5.73-2.91-11.37a1.7,1.7,0,0,0-3.39.32c.66,11.59-1,13.15-7.9,14.31-1.37.23-3,.42-5.15.61a1.72,1.72,0,0,0-1.44,1.92A1.74,1.74,0,0,0,72.17,789h0c2-.18,3.63-.26,5-.26,3.26,0,5.34.49,6.55,1.54,2,1.71,2.58,5.73,2.91,11.37a1.72,1.72,0,0,0,1.69,1.49h.09l.2,0A1.72,1.72,0,0,0,90,801.37c-.66-11.59,1-13.15,7.9-14.31,1.38-.23,3-.42,5-.59l.19,0a1.69,1.69,0,0,0,1.36-2A1.72,1.72,0,0,0,102.69,783.07Z"/><path class="cls-1" d="M600.71,750.15a2.05,2.05,0,0,0-.22-.5,4.47,4.47,0,0,1-1-2.28c-.1-.83-.3-1.65-.44-2.48a19.15,19.15,0,0,0-1-3.79,27.91,27.91,0,0,0-3-5.7,13.73,13.73,0,0,0-2.63-2.91,12,12,0,0,0-5-2.47,6.89,6.89,0,0,0-1.11-.15l-2.24-.15a4.92,4.92,0,0,1-1.36-.33,2,2,0,0,1-1-2.81,1.81,1.81,0,0,1,.56-.61,4.9,4.9,0,0,1,1-.53,24.5,24.5,0,0,0,3.83-1.75,20,20,0,0,0,8.18-8.26,23.71,23.71,0,0,0,1-2.3c.32-.78.61-1.57.88-2.37a11.08,11.08,0,0,0,.78-4.11,3.78,3.78,0,0,1,.12-1.11,2.16,2.16,0,0,1,1.36-1.66,5.39,5.39,0,0,1,.81-.23,1.68,1.68,0,0,1,1.59.92,5.78,5.78,0,0,1,.24.81,6.88,6.88,0,0,1,.14,1.11,12.77,12.77,0,0,0,1.43,5.1,30.07,30.07,0,0,0,7.34,9.83,18.93,18.93,0,0,0,6.49,3.82c.35.12.73.19,1.06.34a1.89,1.89,0,0,1,1.14,1.5.88.88,0,0,1,0,.28,1.8,1.8,0,0,1-1.16,1.46,8.22,8.22,0,0,1-2.19.46,10,10,0,0,0-4.69,1.73,15.36,15.36,0,0,0-3.86,3.64,22.18,22.18,0,0,0-4.23,9.68c-.16.83-.29,1.66-.43,2.49a6.17,6.17,0,0,1-.37,1.92,11.68,11.68,0,0,1-.91,1.41Zm10.07-23.44a.6.6,0,0,0-.19-.51,10.64,10.64,0,0,0-2.28-1.6,9.94,9.94,0,0,1-2-1.48,22,22,0,0,1-2.66-2.87,29.34,29.34,0,0,1-2.76-4.21c-.13-.23-.26-.51-.58-.45a.9.9,0,0,0-.59.55c-.08.17-.15.34-.24.51a25.38,25.38,0,0,1-7.46,9,3.29,3.29,0,0,0-.6.58.39.39,0,0,0,.08.49,17.51,17.51,0,0,0,2.52,1.76,17.61,17.61,0,0,1,3,2.5,18.09,18.09,0,0,1,2,2.71c.43.72.82,1.47,1.21,2.21.23.41.44.83.67,1.24a4.7,4.7,0,0,0,.34.44.41.41,0,0,0,.67-.1c.57-1.17,1.12-2.36,1.72-3.52a15.51,15.51,0,0,1,5.19-5.78c.62-.42,1.25-.81,1.87-1.23C610.7,726.88,610.73,726.78,610.78,726.71Z"/><path class="cls-4" d="M610.78,726.71c0,.07-.08.17-.14.21-.62.42-1.25.81-1.87,1.23a15.51,15.51,0,0,0-5.19,5.78c-.6,1.16-1.15,2.35-1.72,3.52a.41.41,0,0,1-.67.1,4.7,4.7,0,0,1-.34-.44c-.23-.41-.44-.83-.67-1.24-.39-.74-.78-1.49-1.21-2.21a18.09,18.09,0,0,0-2-2.71,17.61,17.61,0,0,0-3-2.5,17.51,17.51,0,0,1-2.52-1.76.39.39,0,0,1-.08-.49,3.29,3.29,0,0,1,.6-.58,25.38,25.38,0,0,0,7.46-9c.09-.17.16-.34.24-.51a.9.9,0,0,1,.59-.55c.32-.06.45.22.58.45a29.34,29.34,0,0,0,2.76,4.21,22,22,0,0,0,2.66,2.87,9.94,9.94,0,0,0,2,1.48,10.64,10.64,0,0,1,2.28,1.6A.6.6,0,0,1,610.78,726.71Z"/><path class="cls-5" d="M568.55,752.48c-1.67,0-3-.11-4.09-.23-5.61-.6-7-1.77-7.05-11.14a1.38,1.38,0,0,0-1.27-1.38,1.42,1.42,0,0,0-1.49,1.38c0,4.46-.29,7.73-1.79,9.2-.92.9-2.57,1.4-5.2,1.55-1.09.07-2.37.08-4,0h-.2a1.38,1.38,0,0,0-.09,2.75h.15c1.67,0,3,.11,4.09.23,5.61.6,7,1.78,7.06,11.15a1.38,1.38,0,0,0,1.23,1.37h.23a1.43,1.43,0,0,0,1.3-1.38c0-4.46.29-7.74,1.78-9.2.93-.91,2.58-1.4,5.21-1.56,1.09-.07,2.37-.08,4.15,0a1.38,1.38,0,0,0-.06-2.76Z"/><path class="cls-5" d="M375.07,952.51c-5.55,0-5.55,8.6,0,8.6S380.62,952.51,375.07,952.51Z"/><path class="cls-5" d="M53.58,492.28c-5.55,0-5.55,8.6,0,8.6S59.13,492.28,53.58,492.28Z"/><path class="cls-5" d="M304.44,381.28c-2.77,0-2.77,4.3,0,4.3S307.22,381.28,304.44,381.28Z"/><path class="cls-5" d="M304.74,357.37c-2.77,0-2.77,4.3,0,4.3S307.52,357.37,304.74,357.37Z"/><path class="cls-5" d="M284.94,373.2c-4.17,0-4.17,6.46,0,6.46S289.1,373.2,284.94,373.2Z"/><path class="cls-5" d="M676.46,497.07c-5.55,0-5.55,8.6,0,8.6S682,497.07,676.46,497.07Z"/></g></svg>