<svg xmlns="http://www.w3.org/2000/svg" viewBox="0 0 1662 612.91"><defs><style>.cls-1,.cls-5{fill:#0000e2;}.cls-2{fill:#ffaa64;}.cls-2,.cls-3,.cls-4,.cls-5{fill-rule:evenodd;}.cls-3{fill:#fff;}.cls-4{fill:#97d3dd;}</style></defs><title>illus_site</title><g id="Calque_2" data-name="Calque 2"><g id="Push_Pin" data-name="Push Pin"><path class="cls-1" d="M1243.56,246.68a.32.32,0,0,0,.15-.27.33.33,0,0,0-.09-.2l-.13-.12-.24-.22,0-.05a13.66,13.66,0,0,0-1.33-1.18,11.62,11.62,0,0,0-7.08-2.47l-4.21-6.33a1.18,1.18,0,0,1,.19-.11,2.46,2.46,0,0,0,.77-.64,2.67,2.67,0,0,0,.53-2.38,2.79,2.79,0,0,0-2.25-2.12l-.34,0-.45,0-.34.08a3.24,3.24,0,0,0-.84.39l-10.16,5.9a2.59,2.59,0,0,0-1.34,2.59,2.77,2.77,0,0,0,2.48,2.55,2.58,2.58,0,0,0,1.62-.36h0l3.63,6.9a11.6,11.6,0,0,0-1.2,4,11.13,11.13,0,0,0-.08,1.57,12.47,12.47,0,0,0,.56,3.45c.05.16.09.32.14.49l0,.11a.25.25,0,0,0,.17.19.29.29,0,0,0,.24,0l7.16-4.28,8.08,10a1.17,1.17,0,0,0,.92.47,1.15,1.15,0,0,0,1.05-1.56l-4.68-12.16,7-4.2-.13-.22h0Zm-10.49,6.26,1.42-.85,1.93,5Zm-7.94,2.1a8.39,8.39,0,0,1-.05-1.5,9.65,9.65,0,0,1,.33-2.11,1.07,1.07,0,0,1,.07-.19l.06-.12a1.3,1.3,0,0,0,.08-.17l.15-.39c.1-.25.2-.51.32-.76a5.7,5.7,0,0,1,1.45-1.9,1.13,1.13,0,0,0,.16-1.55,1.19,1.19,0,0,0-.91-.45,1.08,1.08,0,0,0-.64.22,3.63,3.63,0,0,0-.47.41l-.09.08-3.17-6,.21-.13.73-.42a1.14,1.14,0,0,0-.57-2.11,1.22,1.22,0,0,0-.61.17l-.59.34c-.76.44-1.51.87-2.26,1.32a.46.46,0,0,1-.56-.08.52.52,0,0,1-.16-.44.5.5,0,0,1,.23-.34c1.27-.71,2.52-1.44,3.77-2.18l6.59-3.83a.5.5,0,0,1,.21,0,.53.53,0,0,1,.45.41.39.39,0,0,1-.2.5l-1.27.74c-.54.31-1.08.62-1.61.94a1.13,1.13,0,0,0-.39,1.54,1.17,1.17,0,0,0,1.52.43l.25-.15.45-.26,3.78,5.68-.53.22a1.11,1.11,0,0,0-.58.64,1.14,1.14,0,0,0,1.57,1.4l.29-.12a5.94,5.94,0,0,1,2-.31,6.49,6.49,0,0,1,1.26.1,9.46,9.46,0,0,1,3.66,1.53Z"/><path class="cls-2" d="M1224.91,255.49l15.64-9.35-.07-.06a9.83,9.83,0,0,0-4-1.76,7.16,7.16,0,0,0-1.31-.1,6.41,6.41,0,0,0-2.08.32,2,2,0,0,0-.31.13.86.86,0,0,1-1.15-.39.84.84,0,0,1,.39-1.15c.24-.12.49-.2.74-.3l.09,0-4.11-6.19-.61.35-.31.18a.86.86,0,0,1-.86-1.48c.8-.48,1.62-.94,2.42-1.41l.46-.27a.67.67,0,0,0,.33-.82.82.82,0,0,0-.69-.61.63.63,0,0,0-.38.09q-2.47,1.46-5,2.89c-1.79,1-3.58,2.1-5.38,3.12a.77.77,0,0,0-.14,1.22.7.7,0,0,0,.9.11l2.85-1.65a.86.86,0,1,1,.9,1.46l-1.08.63-.09.05,3.47,6.61a2.89,2.89,0,0,1,.24-.25,6.55,6.55,0,0,1,.56-.49.84.84,0,0,1,1.16.18.86.86,0,0,1-.11,1.17,5.84,5.84,0,0,0-1.53,2c-.18.38-.31.77-.47,1.16,0,.1-.1.19-.14.29a1.55,1.55,0,0,0-.08.23,9.36,9.36,0,0,0-.35,2.16,10.37,10.37,0,0,0,.1,1.93A.08.08,0,0,0,1224.91,255.49Z"/><path class="cls-3" d="M1237.29,258.6c-.88-2.3-1.77-4.6-2.66-6.92l-2,1.19c1.54,1.91,3.07,3.83,4.62,5.74Z"/></g><g id="Push_Pin-2" data-name="Push Pin"><path class="cls-1" d="M233.17,285.51l-11.12-6.46a3.09,3.09,0,0,0-.92-.42l-.37-.09-.5,0-.36.05a3.06,3.06,0,0,0-2.47,2.33,3,3,0,0,0,.58,2.6,2.7,2.7,0,0,0,.85.69l.2.12-4.6,6.94a12.72,12.72,0,0,0-7.75,2.69,18,18,0,0,0-1.45,1.29l-.06.06-.26.24-.14.13a.32.32,0,0,0-.1.22.33.33,0,0,0,.17.29l.21-.2h0l-.15.24,7.68,4.59L207.5,314.1a1.23,1.23,0,0,0,.52,1.52,1.18,1.18,0,0,0,.63.18,1.29,1.29,0,0,0,1-.51l8.83-11,7.84,4.69a.36.36,0,0,0,.27,0,.35.35,0,0,0,.18-.2l0-.13.15-.53a13.44,13.44,0,0,0,.62-3.78,11.55,11.55,0,0,0-.09-1.71,12.94,12.94,0,0,0-1.31-4.37l4-7.55h0a2.85,2.85,0,0,0,1.77.4,3.07,3.07,0,0,0,2.72-2.8A2.82,2.82,0,0,0,233.17,285.51Zm-20.5,22.07,2.11-5.49,1.56.92ZM232,288.5a.54.54,0,0,1-.62.08l-2.46-1.44-.66-.38a1.28,1.28,0,0,0-.66-.18,1.24,1.24,0,0,0-.63,2.31l.8.46.23.14-3.46,6.6-.1-.09a5.4,5.4,0,0,0-.52-.45,1.17,1.17,0,0,0-.7-.23,1.24,1.24,0,0,0-.82,2.18,6,6,0,0,1,1.58,2.08,6.65,6.65,0,0,1,.35.83l.17.42.09.19.06.13a1.8,1.8,0,0,1,.08.21,10.8,10.8,0,0,1,.37,2.31,11.3,11.3,0,0,1-.06,1.64l-16.33-9.76a10.35,10.35,0,0,1,4-1.67,7.63,7.63,0,0,1,1.38-.11,6.68,6.68,0,0,1,2.17.33l.32.14a1.28,1.28,0,0,0,1.66-.56,1.26,1.26,0,0,0,.06-1,1.19,1.19,0,0,0-.64-.7,5.72,5.72,0,0,0-.57-.24l4.13-6.22.5.29.27.15a1.27,1.27,0,0,0,1.66-.47,1.23,1.23,0,0,0-.43-1.68l-1.75-1-1.4-.81a.44.44,0,0,1-.22-.56.6.6,0,0,1,.5-.44.51.51,0,0,1,.22.06l7.21,4.19c1.37.8,2.74,1.6,4.13,2.39a.48.48,0,0,1,.25.36A.6.6,0,0,1,232,288.5Z"/><path class="cls-4" d="M225.27,305.81l-17.11-10.23.07-.07a10.76,10.76,0,0,1,4.42-1.93,7.63,7.63,0,0,1,1.44-.11,7,7,0,0,1,2.27.35l.35.14a.93.93,0,0,0,1.25-.42.92.92,0,0,0-.42-1.26c-.27-.13-.55-.22-.82-.32l-.1,0c1.51-2.26,3-4.51,4.5-6.77l.67.38.34.2a.94.94,0,0,0,.94-1.63l-2.65-1.54-.5-.29a.73.73,0,0,1-.36-.9.88.88,0,0,1,.75-.66.6.6,0,0,1,.41.1l5.45,3.16c2,1.14,3.92,2.29,5.89,3.41a.84.84,0,0,1,.14,1.33.77.77,0,0,1-1,.13c-1-.62-2.08-1.21-3.12-1.82a.94.94,0,0,0-1.42.62.92.92,0,0,0,.44,1l1.18.7.09.05-3.79,7.23a3.38,3.38,0,0,0-.26-.27,6.2,6.2,0,0,0-.61-.54.92.92,0,0,0-1.27.2.93.93,0,0,0,.12,1.28,6.27,6.27,0,0,1,1.67,2.18c.2.41.35.84.52,1.27,0,.1.11.2.15.31a1.25,1.25,0,0,1,.09.25,11.26,11.26,0,0,1,.38,2.37,10.63,10.63,0,0,1-.11,2.11A.13.13,0,0,1,225.27,305.81Z"/><path class="cls-3" d="M211.72,309.21l2.91-7.57,2.16,1.29-5,6.29Z"/></g><g id="DoigtsCroisés"><path class="cls-5" d="M563.39,305l.67,2.73c0,.17,0,.34.05.51.08.43.2.85.26,1.29.22,1.57.43,3.15.64,4.73.27,2,.55,4,.81,6.08.21,1.6.32,3.2.37,4.81a74.47,74.47,0,0,1-.59,11.17,67,67,0,0,1-1.9,9.3c-.6,2.2-1.24,4.39-1.87,6.58-.69,2.42-1.34,4.85-1.79,7.32a14.4,14.4,0,0,1-1,3.26,15.43,15.43,0,0,1-4.5,5.72,24.15,24.15,0,0,1-7.32,3.91c-1.1.38-2.23.69-3.35,1l-1.48.46-.38.17-3.18.79h-.33c-.38.06-.77.11-1.15.18a22.76,22.76,0,0,1-3.68.4,14.76,14.76,0,0,1-4.76-.6,15.14,15.14,0,0,1-4.41-2.23,28.51,28.51,0,0,1-4.22-3.77c-.75-.78-1.51-1.54-2.27-2.3-1.32-1.32-2.66-2.6-4-3.93a58,58,0,0,1-12.33-18.85c-.43-1.05-.87-2.1-1.28-3.17s-.88-2.3-1.31-3.46c-.35-.95-.68-1.91-1-2.87s-.75-2.08-1.12-3.13-.68-1.94-1.05-2.91c-.48-1.3-1-2.6-1.5-3.89s-1.12-2.71-1.73-4a37.74,37.74,0,0,1-2-5,1.47,1.47,0,0,0-.32-.62l-.63-2.55a1,1,0,0,0,0-.64c-.06-.41-.14-.83-.2-1.25a24.68,24.68,0,0,1-.29-4.38,17.6,17.6,0,0,1,.87-5.2,11.22,11.22,0,0,1,4.23-5.74,9.89,9.89,0,0,1,2.75-1.39,8.06,8.06,0,0,1,3.84-.19l.48.07c0-.1,0-.18-.07-.25-.1-.29-.22-.58-.32-.88a7.39,7.39,0,0,1-.25-3.79,10,10,0,0,1,1.61-3.76,7.83,7.83,0,0,1,2.56-2.43c.1-.06.23-.09.28-.24s-.13-.17-.21-.25a5.69,5.69,0,0,1-.76-1.06,3,3,0,0,1-.36-1.25,1.39,1.39,0,0,1,.36-1,4.08,4.08,0,0,1,1-.75,6.37,6.37,0,0,1,2.6-.69,14.68,14.68,0,0,1,2.2,0,2.53,2.53,0,0,0,.27,0,1.35,1.35,0,0,0,0-.22c-.1-1.35-.2-2.71-.29-4.06-.17-2.45-.34-4.89-.49-7.34-.19-3.16-.35-6.32-.52-9.49a1.37,1.37,0,0,0-.26-.77q-1.44-2-2.72-4.16a34.17,34.17,0,0,1-3.33-6.95,14.24,14.24,0,0,1-.82-5.1.74.74,0,0,0-.11-.44c-.33-.55-.66-1.1-.95-1.66a10.5,10.5,0,0,1-1.1-3.08,3.88,3.88,0,0,1,.05-1.76,2.2,2.2,0,0,1,1.35-1.52,3.73,3.73,0,0,1,2.57-.11,7.79,7.79,0,0,1,1.53.69,12.19,12.19,0,0,1,1.93,1.4,2,2,0,0,0,1.1.56,3.12,3.12,0,0,1,.5.14l.26,0c0-.28,0-.54,0-.8a37.48,37.48,0,0,1,.32-4.62,14.79,14.79,0,0,1,.84-3.41,7.33,7.33,0,0,1,1.87-2.87.83.83,0,0,0,.24-.4c.17-.47.34-.94.53-1.4a9.21,9.21,0,0,1,1.14-2.09,3.71,3.71,0,0,1,1.3-1.19s0,0,0-.07l.55-.14a.57.57,0,0,0,.18,0,3.34,3.34,0,0,1,2.51.95,5,5,0,0,1,.94,1.22,11.07,11.07,0,0,1,1.19,3.44,1.23,1.23,0,0,0,.29.62,10.93,10.93,0,0,1,2.64,5.74c.12.82.25,1.64.35,2.46.19,1.44.39,2.88.54,4.32s.3,3.14.43,4.71c.16,2,.29,3.92.44,5.88.1,1.41.21,2.81.31,4.21a1.43,1.43,0,0,0,.33.85c1,1.31,2,2.63,3,3.94,2.88,3.75,5.79,7.48,8.65,11.24,2.71,3.55,5.32,7.17,7.72,10.94,1.66,2.6,3.33,5.2,4.79,7.93a1.49,1.49,0,0,0,.31.4c.35.35.72.69,1.08,1A48.44,48.44,0,0,1,561,298.81a29,29,0,0,1,2.24,5.69A3.29,3.29,0,0,0,563.39,305Zm-43,11.74a1.16,1.16,0,0,0-.28-.46q-5.69-7.37-12.07-14.13a33.17,33.17,0,0,0-3.17-3,15.87,15.87,0,0,0-2.51-1.71,7.9,7.9,0,0,0-1.75-.67,4.74,4.74,0,0,0-3.4.45,7.55,7.55,0,0,0-3.17,3.16,9.29,9.29,0,0,0-.66,1.6,13.86,13.86,0,0,0-.59,3.5,24.12,24.12,0,0,0,.58,6.23,29.05,29.05,0,0,0,1.7,5.41c.37.87.79,1.73,1.17,2.6q.92,2.16,1.8,4.32c.32.78.61,1.58.9,2.37.36.95.71,1.9,1.05,2.86s.72,2.06,1.09,3.09c.46,1.29.92,2.59,1.4,3.88.4,1.1.8,2.2,1.23,3.28q.88,2.17,1.81,4.32,1,2.34,2.24,4.59a53.49,53.49,0,0,0,7.47,10.39c1.52,1.68,3.13,3.27,4.77,4.84,1,1,2,1.93,2.93,3,.48.51,1,1,1.5,1.49a17.69,17.69,0,0,0,3,2.3,11.09,11.09,0,0,0,4.77,1.54,15.82,15.82,0,0,0,3.64-.14,32.73,32.73,0,0,0,4.27-.9c1.22-.33,2.43-.68,3.65-1a30.79,30.79,0,0,0,4.92-1.79,17.55,17.55,0,0,0,3.84-2.4,11.57,11.57,0,0,0,4.19-6.95c.41-2.15.93-4.27,1.53-6.38.67-2.36,1.35-4.71,2-7.07a71.1,71.1,0,0,0,1.69-7.49,69.58,69.58,0,0,0,.85-9.88,50.4,50.4,0,0,0-.39-7.57c-.11-.88-.22-1.77-.34-2.65-.16-1.11-.32-2.22-.47-3.34-.11-.76-.21-1.51-.32-2.27-.13-.95-.23-1.89-.39-2.83a29.41,29.41,0,0,0-1.67-6,36.35,36.35,0,0,0-2.91-5.82,46.62,46.62,0,0,0-9.58-11.14,28.52,28.52,0,0,0-2.9-2.22,15.24,15.24,0,0,0-7.85-2.49,34,34,0,0,0-4.62.22c-1.46.15-2.92.33-4.37.5s-2.89.28-4.34.31a1.14,1.14,0,0,0-.25.06,4.08,4.08,0,0,1-.22,3,3.52,3.52,0,0,1-3,2.14,9.77,9.77,0,0,1-1.21,0,15.08,15.08,0,0,1-3.39-.67,28.42,28.42,0,0,1-3.29-1.24c-.07,0-.14-.14-.25,0a1.66,1.66,0,0,0,.06.16c.05.11.1.23.16.34a10.21,10.21,0,0,0,1.81,2.37,15.46,15.46,0,0,0,4.38,3.09,29.42,29.42,0,0,0,12,3,21.48,21.48,0,0,0,5.76-.52,15.3,15.3,0,0,0,2.07-.61,15.74,15.74,0,0,0,1.83-.82,1.88,1.88,0,0,1,1-.24,1.72,1.72,0,0,1,1.51,1.27,1.7,1.7,0,0,1-.68,1.86,5.24,5.24,0,0,1-.57.32,18.93,18.93,0,0,1-3.39,1.33,1.81,1.81,0,0,0-.27.1,1.78,1.78,0,0,0,.12.27c.4.64.79,1.28,1.21,1.9a24.74,24.74,0,0,0,4.19,4.83,16.35,16.35,0,0,0,5.37,3.19l.3.13a1.58,1.58,0,0,1-.36,2.92,1.66,1.66,0,0,1-1-.07,18.22,18.22,0,0,1-3.14-1.45,22.31,22.31,0,0,1-5.48-4.57,36.06,36.06,0,0,1-4.3-6.12l-.24-.41c-.53,0-1,.1-1.56.12s-1,0-1.54,0-1-.05-1.57,0l.32.39c1.18,1.37,2.38,2.73,3.55,4.11,1.78,2.09,3.52,4.22,5.14,6.44a35.49,35.49,0,0,1,3.06,4.71,2.4,2.4,0,0,0,.28.37c.47.54,1,1.07,1.41,1.63a19.3,19.3,0,0,1,2.86,4.59,6.49,6.49,0,0,1,.59,2.16,2.68,2.68,0,0,1-.26,1.5,1.22,1.22,0,0,1-.46.52,3.31,3.31,0,0,1-1.12.34,5.26,5.26,0,0,1-1.81-.13,9.8,9.8,0,0,1-2.09-.8l-.42-.2a1.5,1.5,0,0,0-.18.09,6.17,6.17,0,0,1-3.34.92,9.37,9.37,0,0,1-3.73-.77,15.76,15.76,0,0,1-2.94-1.66,27.31,27.31,0,0,1-2.59-2.07c-.08-.07-.13-.2-.28-.12.06.24.13.48.17.72a1.78,1.78,0,0,0,.33.71,21.24,21.24,0,0,1,2.1,3.44,10.53,10.53,0,0,1,.92,2.74,3.81,3.81,0,0,1,0,1.26,2.18,2.18,0,0,1-.3.78,1.22,1.22,0,0,1-.69.53,3.62,3.62,0,0,1-1.76.09,7.13,7.13,0,0,1-1.89-.68,12.94,12.94,0,0,1-2.08-1.34l-.41-.29-.48.09c-.39,0-.77.11-1.16.12a9.54,9.54,0,0,1-3.87-.79,14.72,14.72,0,0,1-4.18-2.64,78.9,78.9,0,0,1-6-5.82l-.3-.3c-.2,0-.39.06-.57.07a8.21,8.21,0,0,1-6.21-1.72,7.08,7.08,0,0,1-1.44-1.4,1.22,1.22,0,0,1,.21-1.75,1,1,0,0,1,1.38.09,3.36,3.36,0,0,1,.24.29,6.64,6.64,0,0,0,4,2.18l.47,0c-.09-.13-.13-.2-.19-.27l-.61-.77a31.34,31.34,0,0,1-3.57-5.54,16.34,16.34,0,0,1-.89-2.16,2,2,0,0,1-.11-.74,1.72,1.72,0,0,1,3.32-.5c0,.11.09.23.13.35a16.58,16.58,0,0,0,1.24,2.67,32.72,32.72,0,0,0,3.11,4.44,69.74,69.74,0,0,0,8.32,8.43q.38.32.78.6a9.71,9.71,0,0,0,2.68,1.42c.07,0,.16.11.25,0l-.3-.42c-.32-.5-.66-1-1-1.5a7.06,7.06,0,0,1-.89-2.25,2.54,2.54,0,0,1,.1-1.52,3.54,3.54,0,0,1,2.44-2.15Zm8.46-38.1,2.21-.24c1.26-.14,2.52-.23,3.79-.25a18.94,18.94,0,0,1,8.66,1.83c.06,0,.13.09.22,0l-.13-.23c-1.23-1.92-2.46-3.83-3.78-5.7-2.4-3.42-4.93-6.75-7.48-10.07q-4.17-5.41-8.34-10.83c-1.32-1.73-2.58-3.49-3.88-5.23a69.4,69.4,0,0,0-5.94-7,32.39,32.39,0,0,0-3.66-3.27,12.44,12.44,0,0,0-2-1.25,5.42,5.42,0,0,0-1.11-.39,1.41,1.41,0,0,0-1.75.8c0,.08-.09.16-.13.25a5,5,0,0,0-.44,1.57,7.87,7.87,0,0,0,.11,2.42,18.93,18.93,0,0,0,1.54,4.51,46.8,46.8,0,0,0,2.93,5.22c1.41,2.2,2.94,4.31,4.47,6.42.77,1.06,1.57,2.1,2.28,3.2,3.94,6,8,12,12.11,17.81Zm-21.67,6.1a4.58,4.58,0,0,0-.43.2,4.24,4.24,0,0,0-1.36,1.13,7,7,0,0,0-1.37,2.64,4.54,4.54,0,0,0,.1,2.68,8.67,8.67,0,0,0,.69,1.48,18.3,18.3,0,0,0,1.74,2.44c1.08,1.31,2.25,2.55,3.45,3.76,2,2,4,4,5.93,6.13s4.14,4.29,6.34,6.31c1.33,1.22,2.62,2.49,3.89,3.79,1,1.06,2.09,2.1,3.21,3.08a21.74,21.74,0,0,0,2.53,1.94,10.72,10.72,0,0,0,2.08,1.06,6.09,6.09,0,0,0,2.19.42l.29,0c-.08-.19-.24-.27-.36-.38a23.58,23.58,0,0,1-3.47-3.73,11.65,11.65,0,0,1-1.42-2.53,3.23,3.23,0,0,1,.44-3.31,3.66,3.66,0,0,1,2.38-1.52c.12,0,.23-.06.39-.1a3.3,3.3,0,0,0-.26-.37c-.74-.94-1.48-1.89-2.24-2.82-2.54-3.11-5.2-6.12-7.87-9.11a1,1,0,0,0-.6-.32,32.07,32.07,0,0,1-7.68-2.66,19.38,19.38,0,0,1-4.67-3.18,14.73,14.73,0,0,1-2.6-3.13A8.23,8.23,0,0,1,507.2,285,1.8,1.8,0,0,0,507.14,284.71Zm15-39.34v-.48c0-.65-.09-1.31-.14-2-.11-1.45-.22-2.89-.34-4.34-.1-1.18-.21-2.36-.34-3.54s-.26-2.26-.41-3.39c-.11-.84-.24-1.67-.36-2.5a10.14,10.14,0,0,0-.73-2.76,7,7,0,0,0-1.65-2.3,4,4,0,0,0-1.31-.8,2.7,2.7,0,0,0-3,.83,4.82,4.82,0,0,0-.6,1,9.58,9.58,0,0,0-.55,1.64,20.27,20.27,0,0,0-.46,3.19c-.12,1.53-.13,3.06-.14,4.58v.4l.13.11a33.82,33.82,0,0,1,4,3.49,70.23,70.23,0,0,1,5.48,6.33Zm3,33.6-.28-.43q-5.34-7.57-10.41-15.34c-.59-.9-1.2-1.78-1.82-2.66,0-.08-.08-.22-.22-.2l0,0a.09.09,0,0,1,0,.05c.3,5.55.73,11.08,1.11,16.62,0,.16,0,.31,0,.47a.08.08,0,0,0,0,0s0,0,0,.05l.12,0,2.46.77.31.08,3.66.52a11.16,11.16,0,0,0,2,.15c.86,0,1.71-.07,2.57-.12C524.84,279,525,279,525.16,279Z"/><path class="cls-2" d="M520.35,316.71l-.41.1A3.54,3.54,0,0,0,517.5,319a2.54,2.54,0,0,0-.1,1.52,7.06,7.06,0,0,0,.89,2.25c.29.52.63,1,1,1.5l.3.42c-.09.12-.18,0-.25,0a9.71,9.71,0,0,1-2.68-1.42q-.4-.28-.78-.6a69.74,69.74,0,0,1-8.32-8.43,32.72,32.72,0,0,1-3.11-4.44,16.58,16.58,0,0,1-1.24-2.67c0-.12-.09-.24-.13-.35a1.72,1.72,0,0,0-3.32.5,2,2,0,0,0,.11.74,16.34,16.34,0,0,0,.89,2.16,31.34,31.34,0,0,0,3.57,5.54l.61.77c.06.07.1.14.19.27l-.47,0a6.64,6.64,0,0,1-4-2.18,3.36,3.36,0,0,0-.24-.29,1,1,0,0,0-1.38-.09,1.22,1.22,0,0,0-.21,1.75,7.08,7.08,0,0,0,1.44,1.4,8.21,8.21,0,0,0,6.21,1.72c.18,0,.37,0,.57-.07l.3.3a78.9,78.9,0,0,0,6,5.82,14.72,14.72,0,0,0,4.18,2.64,9.54,9.54,0,0,0,3.87.79c.39,0,.77-.08,1.16-.12l.48-.09.41.29a12.94,12.94,0,0,0,2.08,1.34,7.13,7.13,0,0,0,1.89.68,3.62,3.62,0,0,0,1.76-.09,1.22,1.22,0,0,0,.69-.53,2.18,2.18,0,0,0,.3-.78,3.81,3.81,0,0,0,0-1.26,10.53,10.53,0,0,0-.92-2.74,21.24,21.24,0,0,0-2.1-3.44,1.78,1.78,0,0,1-.33-.71c0-.24-.11-.48-.17-.72.15-.08.2.05.28.12a27.31,27.31,0,0,0,2.59,2.07,15.76,15.76,0,0,0,2.94,1.66,9.37,9.37,0,0,0,3.73.77,6.17,6.17,0,0,0,3.34-.92,1.5,1.5,0,0,1,.18-.09l.42.2a9.8,9.8,0,0,0,2.09.8,5.26,5.26,0,0,0,1.81.13,3.31,3.31,0,0,0,1.12-.34,1.22,1.22,0,0,0,.46-.52,2.68,2.68,0,0,0,.26-1.5,6.49,6.49,0,0,0-.59-2.16,19.3,19.3,0,0,0-2.86-4.59c-.45-.56-.94-1.09-1.41-1.63a2.4,2.4,0,0,1-.28-.37,35.49,35.49,0,0,0-3.06-4.71c-1.62-2.22-3.36-4.35-5.14-6.44-1.17-1.38-2.37-2.74-3.55-4.11l-.32-.39c.55-.05,1.06,0,1.57,0s1,0,1.54,0,1-.08,1.56-.12l.24.41a36.06,36.06,0,0,0,4.3,6.12,22.31,22.31,0,0,0,5.48,4.57,18.22,18.22,0,0,0,3.14,1.45,1.66,1.66,0,0,0,1,.07,1.58,1.58,0,0,0,.36-2.92l-.3-.13a16.35,16.35,0,0,1-5.37-3.19,24.74,24.74,0,0,1-4.19-4.83c-.42-.62-.81-1.26-1.21-1.9a1.78,1.78,0,0,1-.12-.27,1.81,1.81,0,0,1,.27-.1,18.93,18.93,0,0,0,3.39-1.33,5.24,5.24,0,0,0,.57-.32,1.7,1.7,0,0,0,.68-1.86,1.72,1.72,0,0,0-1.51-1.27,1.88,1.88,0,0,0-1,.24,15.74,15.74,0,0,1-1.83.82,15.3,15.3,0,0,1-2.07.61,21.48,21.48,0,0,1-5.76.52,29.42,29.42,0,0,1-12-3,15.46,15.46,0,0,1-4.38-3.09,10.21,10.21,0,0,1-1.81-2.37c-.06-.11-.11-.23-.16-.34a1.66,1.66,0,0,1-.06-.16c.11-.13.18,0,.25,0a28.42,28.42,0,0,0,3.29,1.24,15.08,15.08,0,0,0,3.39.67,9.77,9.77,0,0,0,1.21,0,3.52,3.52,0,0,0,3-2.14,4.08,4.08,0,0,0,.22-3,1.14,1.14,0,0,1,.25-.06c1.45,0,2.9-.15,4.34-.31s2.91-.35,4.37-.5a34,34,0,0,1,4.62-.22,15.24,15.24,0,0,1,7.85,2.49,28.52,28.52,0,0,1,2.9,2.22,46.62,46.62,0,0,1,9.58,11.14,36.35,36.35,0,0,1,2.91,5.82,29.41,29.41,0,0,1,1.67,6c.16.94.26,1.88.39,2.83.11.76.21,1.51.32,2.27.15,1.12.31,2.23.47,3.34.12.88.23,1.77.34,2.65a50.4,50.4,0,0,1,.39,7.57,69.58,69.58,0,0,1-.85,9.88,71.1,71.1,0,0,1-1.69,7.49c-.66,2.36-1.34,4.71-2,7.07-.6,2.11-1.12,4.23-1.53,6.38a11.57,11.57,0,0,1-4.19,6.95,17.55,17.55,0,0,1-3.84,2.4,30.79,30.79,0,0,1-4.92,1.79c-1.22.35-2.43.7-3.65,1a32.73,32.73,0,0,1-4.27.9,15.82,15.82,0,0,1-3.64.14,11.09,11.09,0,0,1-4.77-1.54,17.69,17.69,0,0,1-3-2.3c-.52-.49-1-1-1.5-1.49-.94-1-1.93-2-2.93-3-1.64-1.57-3.25-3.16-4.77-4.84a53.49,53.49,0,0,1-7.47-10.39q-1.22-2.25-2.24-4.59-.93-2.15-1.81-4.32c-.43-1.08-.83-2.18-1.23-3.28-.48-1.29-.94-2.59-1.4-3.88-.37-1-.72-2.07-1.09-3.09s-.69-1.91-1.05-2.86c-.29-.79-.58-1.59-.9-2.37q-.88-2.16-1.8-4.32c-.38-.87-.8-1.73-1.17-2.6a29.05,29.05,0,0,1-1.7-5.41,24.12,24.12,0,0,1-.58-6.23,13.86,13.86,0,0,1,.59-3.5,9.29,9.29,0,0,1,.66-1.6,7.55,7.55,0,0,1,3.17-3.16,4.74,4.74,0,0,1,3.4-.45,7.9,7.9,0,0,1,1.75.67,15.87,15.87,0,0,1,2.51,1.71,33.17,33.17,0,0,1,3.17,3q6.38,6.76,12.07,14.13A1.16,1.16,0,0,1,520.35,316.71Z"/><path class="cls-2" d="M528.81,278.61l-.3-.41c-4.16-5.85-8.17-11.81-12.11-17.81-.71-1.1-1.51-2.14-2.28-3.2-1.53-2.11-3.06-4.22-4.47-6.42a46.8,46.8,0,0,1-2.93-5.22,18.93,18.93,0,0,1-1.54-4.51,7.87,7.87,0,0,1-.11-2.42,5,5,0,0,1,.44-1.57c0-.09.09-.17.13-.25a1.41,1.41,0,0,1,1.75-.8,5.42,5.42,0,0,1,1.11.39,12.44,12.44,0,0,1,2,1.25,32.39,32.39,0,0,1,3.66,3.27,69.4,69.4,0,0,1,5.94,7c1.3,1.74,2.56,3.5,3.88,5.23q4.15,5.43,8.34,10.83c2.55,3.32,5.08,6.65,7.48,10.07,1.32,1.87,2.55,3.78,3.78,5.7l.13.23c-.09.08-.16,0-.22,0a18.94,18.94,0,0,0-8.66-1.83c-1.27,0-2.53.11-3.79.25Z"/><path class="cls-2" d="M507.14,284.71a1.8,1.8,0,0,1,.06.28,8.23,8.23,0,0,0,1.26,3.59,14.73,14.73,0,0,0,2.6,3.13,19.38,19.38,0,0,0,4.67,3.18,32.07,32.07,0,0,0,7.68,2.66,1,1,0,0,1,.6.32c2.67,3,5.33,6,7.87,9.11.76.93,1.5,1.88,2.24,2.82a3.3,3.3,0,0,1,.26.37c-.16,0-.27.08-.39.1a3.66,3.66,0,0,0-2.38,1.52,3.23,3.23,0,0,0-.44,3.31,11.65,11.65,0,0,0,1.42,2.53,23.58,23.58,0,0,0,3.47,3.73c.12.11.28.19.36.38l-.29,0a6.09,6.09,0,0,1-2.19-.42,10.72,10.72,0,0,1-2.08-1.06,21.74,21.74,0,0,1-2.53-1.94c-1.12-1-2.17-2-3.21-3.08-1.27-1.3-2.56-2.57-3.89-3.79q-3.3-3-6.34-6.31C514,303.07,512,301.06,510,299c-1.2-1.21-2.37-2.45-3.45-3.76a18.3,18.3,0,0,1-1.74-2.44,8.67,8.67,0,0,1-.69-1.48,4.54,4.54,0,0,1-.1-2.68,7,7,0,0,1,1.37-2.64,4.24,4.24,0,0,1,1.36-1.13A4.58,4.58,0,0,1,507.14,284.71Z"/><path class="cls-2" d="M522.15,245.37l-.4-.5a70.23,70.23,0,0,0-5.48-6.33,33.82,33.82,0,0,0-4-3.49l-.13-.11v-.4c0-1.52,0-3,.14-4.58a20.27,20.27,0,0,1,.46-3.19,9.58,9.58,0,0,1,.55-1.64,4.82,4.82,0,0,1,.6-1,2.7,2.7,0,0,1,3-.83,4,4,0,0,1,1.31.8,7,7,0,0,1,1.65,2.3,10.14,10.14,0,0,1,.73,2.76c.12.83.25,1.66.36,2.5.15,1.13.29,2.26.41,3.39s.24,2.36.34,3.54c.12,1.45.23,2.89.34,4.34,0,.65.09,1.31.14,2Z"/><path class="cls-2" d="M525.16,279c-.18,0-.32.07-.45.08-.86.05-1.71.09-2.57.12a11.16,11.16,0,0,1-2-.15l-3.66-.52-.31-.08-2.46-.77-.12,0s0,0,0-.05a.08.08,0,0,1,0,0c0-.16,0-.31,0-.47-.38-5.54-.81-11.07-1.11-16.62a.09.09,0,0,0,0-.05l0,0c.14,0,.17.12.22.2.62.88,1.23,1.76,1.82,2.66q5.09,7.76,10.41,15.34Z"/></g><g id="Baguel"><path class="cls-5" d="M1023.43,113.9c.13,0,.25.1.39.13,1,.25,1.93.57,2.88.89l2.28.79c.87.31,1.74.61,2.6.94s2,.74,2.93,1.13c1.24.51,2.47,1,3.7,1.56q2.89,1.27,5.66,2.8a46.93,46.93,0,0,1,6.62,4.35,27.32,27.32,0,0,1,5.51,5.75,17.94,17.94,0,0,1,2.56,5.39,16.21,16.21,0,0,1,.56,5.14c0,.34,0,.68-.08,1a.62.62,0,0,0,.12.43,12.66,12.66,0,0,1,2,4.14,12.13,12.13,0,0,1,.39,4.11,22.88,22.88,0,0,1-2.35,8.71,26,26,0,0,1-5.32,7.14,29.38,29.38,0,0,1-4.14,3.32,28.15,28.15,0,0,1-5.47,2.85,32.63,32.63,0,0,1-9.84,2.12,43.17,43.17,0,0,1-5.8,0c-1.72-.12-3.42-.32-5.12-.59s-3.56-.66-5.32-1.08-3.33-.85-5-1.35c-1.3-.4-2.59-.82-3.88-1.26s-2.53-.88-3.79-1.36a49.59,49.59,0,0,1-6.13-2.88,43,43,0,0,1-5.79-3.83,34.28,34.28,0,0,1-7.2-7.67,30.69,30.69,0,0,1-4.31-9.54,41.39,41.39,0,0,1-1.27-7.58,29.46,29.46,0,0,1,.07-4.79,19.33,19.33,0,0,1,1-4.45,13.8,13.8,0,0,1,1.5-3.12,6.55,6.55,0,0,1,2.72-2.33.46.46,0,0,0,.27-.29,16.12,16.12,0,0,1,2.39-4.19,17.29,17.29,0,0,1,4.09-3.73,24.24,24.24,0,0,1,7.39-3.17,39.09,39.09,0,0,1,9.33-1.16,46.61,46.61,0,0,1,5.28.21,48.55,48.55,0,0,1,5.37.77.86.86,0,0,0,.16,0ZM1056.22,141l0-.06a.86.86,0,0,1,0-.16,13.55,13.55,0,0,0-.56-2.82,16.21,16.21,0,0,0-3-5.43,27.39,27.39,0,0,0-4.88-4.62,51.08,51.08,0,0,0-8.72-5.17c-1.29-.61-2.6-1.18-3.91-1.74-1.08-.46-2.17-.88-3.27-1.29-.9-.35-1.81-.67-2.73-1s-2-.68-3-1-1.75-.55-2.62-.8c-1.19-.35-2.39-.69-3.59-1-1-.24-1.92-.44-2.88-.63a34.43,34.43,0,0,0-4.74-.56,26.84,26.84,0,0,0-5.07.21,33,33,0,0,0-3.52.76,46.34,46.34,0,0,0-5.5,1.77,22.32,22.32,0,0,0-5.1,2.78,12.84,12.84,0,0,0-3.16,3.33l-.1.17,0,0,.52,0a23.3,23.3,0,0,1,3.34.1c.27,0,.54,0,.81.08a1.1,1.1,0,0,1,1,1,1.61,1.61,0,0,1-1.74,1.81c-.42,0-.85-.07-1.28-.09a11.35,11.35,0,0,0-3.13.28,6.42,6.42,0,0,0-4.38,3.49,12.22,12.22,0,0,0-1.09,4,26,26,0,0,0-.17,3.41,31.67,31.67,0,0,0,1,8,29.58,29.58,0,0,0,4.75,10,33.48,33.48,0,0,0,9.53,8.84,40.84,40.84,0,0,0,5.16,2.7c1.34.59,2.7,1.11,4.09,1.57,1,.33,2,.64,3,.94,1.39.42,2.78.84,4.17,1.24,1.11.31,2.21.62,3.33.89s2.49.57,3.75.83c1,.2,2,.38,3,.53,1.53.22,3.06.38,4.61.45a35.4,35.4,0,0,0,5.91-.2,25.89,25.89,0,0,0,11.27-4,34,34,0,0,0,3.81-2.84,25.11,25.11,0,0,0,4.4-4.86,17.38,17.38,0,0,0,2.55-5.67,16.44,16.44,0,0,0,.39-2.61,12.72,12.72,0,0,0-.3-3.89,12.19,12.19,0,0,0-3.18-5.67,19.69,19.69,0,0,0-3.51-2.86,37,37,0,0,0-3.42-1.93,1.25,1.25,0,0,1-.61-.59,1.35,1.35,0,0,1,.07-1.28,1.4,1.4,0,0,1,1.88-.67c.46.23.92.46,1.38.71a29,29,0,0,1,5.21,3.5A1,1,0,0,1,1056.22,141Z"/><path class="cls-5" d="M963.13,130.48a1,1,0,0,0,.14-.15,1.4,1.4,0,0,1,2.3-.15,1.34,1.34,0,0,1,.28.92,1.55,1.55,0,0,1-.52,1.14,1.22,1.22,0,0,1-1.05.29,2,2,0,0,1-.49-.15,1.28,1.28,0,0,1-.74-1.09,1.6,1.6,0,0,0,0-.21Z"/><path class="cls-5" d="M1004.12,180.16l-.22-.13a1.29,1.29,0,0,1-.75-1.25,1.51,1.51,0,0,1,.51-1.16,1.32,1.32,0,0,1,1.49-.19,1.26,1.26,0,0,1,.8,1.19,1.57,1.57,0,0,1-.28,1,1.29,1.29,0,0,1-1.16.58h-.21Z"/><path class="cls-5" d="M1062.46,182.17l0,0a1.31,1.31,0,0,1-1.78.65,1.39,1.39,0,0,1-.73-1.84,1.3,1.3,0,0,1,1.22-.93,1.36,1.36,0,0,1,1.45,1.1,3.11,3.11,0,0,1,0,.32Z"/><path class="cls-5" d="M969.27,147.12a1.34,1.34,0,0,1-1.28,1.13,1.38,1.38,0,0,1-1.4-1.86,1.48,1.48,0,0,1,.32-.59,1.39,1.39,0,0,1,2.36,1.32Z"/><path class="cls-5" d="M1060.55,173.52a1.35,1.35,0,0,1-1.26,1.12,1.37,1.37,0,0,1-1.43-1.85,1.33,1.33,0,0,1,1.22-1A1.38,1.38,0,0,1,1060.55,173.52Z"/><path class="cls-5" d="M975.16,135.12a1.43,1.43,0,0,1-.42.77,1.31,1.31,0,0,1-1.37.3,1.28,1.28,0,0,1-.93-1,1.6,1.6,0,0,1,.2-1.21,1.32,1.32,0,0,1,1.56-.59A1.34,1.34,0,0,1,975.16,135.12Z"/><path class="cls-5" d="M1047.53,176.8a1.32,1.32,0,0,1,1.16-1.12,1.38,1.38,0,0,1,1.54,1.73,1.54,1.54,0,0,1-.47.84,1.24,1.24,0,0,1-1,.3,1.58,1.58,0,0,1-.66-.23,1.34,1.34,0,0,1-.57-1.32A1.18,1.18,0,0,1,1047.53,176.8Z"/><path class="cls-2" d="M1056.22,141a1,1,0,0,0-.13-.09,29,29,0,0,0-5.21-3.5c-.46-.25-.92-.48-1.38-.71a1.4,1.4,0,0,0-1.88.67,1.35,1.35,0,0,0-.07,1.28,1.25,1.25,0,0,0,.61.59,37,37,0,0,1,3.42,1.93,19.69,19.69,0,0,1,3.51,2.86,12.19,12.19,0,0,1,3.18,5.67,12.72,12.72,0,0,1,.3,3.89,16.44,16.44,0,0,1-.39,2.61,17.38,17.38,0,0,1-2.55,5.67,25.11,25.11,0,0,1-4.4,4.86,34,34,0,0,1-3.81,2.84,25.89,25.89,0,0,1-11.27,4,35.4,35.4,0,0,1-5.91.2c-1.55-.07-3.08-.23-4.61-.45-1-.15-2-.33-3-.53-1.26-.26-2.51-.53-3.75-.83s-2.22-.58-3.33-.89c-1.39-.4-2.78-.82-4.17-1.24-1-.3-2-.61-3-.94-1.39-.46-2.75-1-4.09-1.57a40.84,40.84,0,0,1-5.16-2.7,33.48,33.48,0,0,1-9.53-8.84,29.58,29.58,0,0,1-4.75-10,31.67,31.67,0,0,1-1-8,26,26,0,0,1,.17-3.41,12.22,12.22,0,0,1,1.09-4,6.42,6.42,0,0,1,4.38-3.49,11.35,11.35,0,0,1,3.13-.28c.43,0,.86,0,1.28.09A1.61,1.61,0,0,0,995.6,125a1.1,1.1,0,0,0-1-1c-.27,0-.54-.06-.81-.08a23.3,23.3,0,0,0-3.34-.1l-.52,0,0,0,.1-.17a12.84,12.84,0,0,1,3.16-3.33,22.32,22.32,0,0,1,5.1-2.78,46.34,46.34,0,0,1,5.5-1.77,33,33,0,0,1,3.52-.76,26.84,26.84,0,0,1,5.07-.21,34.43,34.43,0,0,1,4.74.56c1,.19,1.93.39,2.88.63,1.2.3,2.4.64,3.59,1,.87.25,1.75.52,2.62.8s2,.66,3,1,1.83.63,2.73,1c1.1.41,2.19.83,3.27,1.29,1.31.56,2.62,1.13,3.91,1.74a51.08,51.08,0,0,1,8.72,5.17,27.39,27.39,0,0,1,4.88,4.62,16.21,16.21,0,0,1,3,5.43,13.55,13.55,0,0,1,.56,2.82.86.86,0,0,0,0,.16Zm-53.32-3.24-.32-.39-.3-.36a9.51,9.51,0,0,0-4.57-3.05,9.74,9.74,0,0,0-2.07-.35,1,1,0,0,0-1,.61,1.48,1.48,0,0,0,.3,1.55,1.46,1.46,0,0,0,1,.45,6.46,6.46,0,0,1,3.19,1.18,10.79,10.79,0,0,1,2.44,2.47,38.76,38.76,0,0,1,3,4.86,12,12,0,0,0,2.54,3.25,21.4,21.4,0,0,0,4,2.95,27.2,27.2,0,0,0,5.38,2.45,34.45,34.45,0,0,0,4.14,1.07q2,.38,4,.57c1.39.13,2.77.19,4.16.19a27.42,27.42,0,0,1,4.53.27,12.12,12.12,0,0,1,3.05.89,11.13,11.13,0,0,1,3.56,2.64,18.6,18.6,0,0,1,1.85,2.39,1.47,1.47,0,0,0,.5.49,1.51,1.51,0,0,0,1.78-.29,1.28,1.28,0,0,0,.21-1.65c-.11-.19-.24-.37-.36-.55A20.58,20.58,0,0,0,1041,156a12.49,12.49,0,0,0-4.2-2.62l-.66-.25.18-.16a9.75,9.75,0,0,0,1.46-1.55,11.42,11.42,0,0,0,2.24-5.56,11,11,0,0,0-.22-4,13.53,13.53,0,0,0-4.74-7.4,19.09,19.09,0,0,0-5.64-3.11l-.83-.3a.63.63,0,0,1,.15-.11c.79-.49,1.53-1.06,2.26-1.62a1.41,1.41,0,0,0-.38-2.45,1,1,0,0,0-1,.22c-.5.38-1,.76-1.5,1.12a9.83,9.83,0,0,1-3.73,1.78,1.2,1.2,0,0,1-.42,0c-1.4-.22-2.82-.36-4.23-.44a33.91,33.91,0,0,0-5.14.08,21.42,21.42,0,0,0-5.76,1.31,13.73,13.73,0,0,0-3.45,1.87,6.13,6.13,0,0,0-2.38,4C1003,137.09,1003,137.42,1002.9,137.8Zm24,30.07h0c.18,0,.35.09.53.12a1.31,1.31,0,0,0,1.39-.5,1.59,1.59,0,0,0,.3-.75,1.32,1.32,0,0,0-.92-1.52,11.31,11.31,0,0,0-1.28-.3,1.22,1.22,0,0,0-1.19.44,1.56,1.56,0,0,0-.38,1,1.28,1.28,0,0,0,.85,1.31A6.13,6.13,0,0,0,1026.87,167.87Zm-4.64-9.11v0l-.54-.13a1.31,1.31,0,0,0-1.51.75,1.89,1.89,0,0,0-.16.51,1.3,1.3,0,0,0,.88,1.5,8.67,8.67,0,0,0,1.41.31,1.2,1.2,0,0,0,1.23-.61,1.56,1.56,0,0,0,.24-.65,1.32,1.32,0,0,0-.85-1.5A5.47,5.47,0,0,0,1022.23,158.76Zm-23.18-34.57.59.08a2.23,2.23,0,0,0,1.05-.16,1.4,1.4,0,0,0,.66-2,1.29,1.29,0,0,0-1.11-.72,5.39,5.39,0,0,1-.8-.06,1.29,1.29,0,0,0-1.2.39,1.59,1.59,0,0,0-.41.9,1.31,1.31,0,0,0,.83,1.46Zm-6.9,20.33-.53-.12a1.27,1.27,0,0,0-.28,0,1.33,1.33,0,0,0-1.25.95,1.38,1.38,0,0,0,1,1.91l.92.2a1.24,1.24,0,0,0,1.26-.44,1.61,1.61,0,0,0,.37-1.08,1.3,1.3,0,0,0-1.06-1.28Zm11.25,13a1.42,1.42,0,0,0-.46-1.27,5,5,0,0,0-1.23-.76l-.16,0a1.51,1.51,0,0,0-1.5.69,1.34,1.34,0,0,0-.1,1.26,1.7,1.7,0,0,0,.71.79,7.1,7.1,0,0,0,.7.41,1.11,1.11,0,0,0,.4.13A1.53,1.53,0,0,0,1003.4,157.48Zm-11.34-18.14a1.46,1.46,0,0,0-.27-1.13,1.42,1.42,0,0,0-2.12-.32.78.78,0,0,1-.2.11,1.27,1.27,0,0,0-.87,1.35,1.46,1.46,0,0,0,1.87,1.36,2.51,2.51,0,0,0,1.28-.83A5.79,5.79,0,0,0,992.06,139.34Zm6.13,8.29-.23,0h-.14a1.51,1.51,0,0,0-1.26,1,1.33,1.33,0,0,0,.42,1.48c.24.2.51.35.73.57l.12.07a1.53,1.53,0,0,0,1.84-.48,1.24,1.24,0,0,0,.24-.58,1.7,1.7,0,0,0-.62-1.49A3,3,0,0,0,998.19,147.63Zm51.19,6.35a3.67,3.67,0,0,0,1.32,0,1.38,1.38,0,0,0,.64-.26,1.44,1.44,0,0,0,.28-2,1.21,1.21,0,0,0-.86-.55,4,4,0,0,0-1.14,0,1.38,1.38,0,0,0-1.22,1.63A1.36,1.36,0,0,0,1049.38,154Zm-17.94,9.56h0l.39.09a1.3,1.3,0,0,0,1.44-.67,1.84,1.84,0,0,0,.18-.53,1.32,1.32,0,0,0-.84-1.56,5.47,5.47,0,0,0-1-.23,1.23,1.23,0,0,0-1.33.78,1.57,1.57,0,0,0-.15.51,1.31,1.31,0,0,0,.91,1.5Zm-23.17-42.37v0l.29.06a1.33,1.33,0,0,0,1.15-.26,1.62,1.62,0,0,0,.45-.67,1.39,1.39,0,0,0-.57-1.72,2.62,2.62,0,0,0-1.38-.31,1.32,1.32,0,0,0-1.19,1,1.37,1.37,0,0,0,.61,1.66A4.32,4.32,0,0,0,1008.27,121.17Zm.42,43.27h0l.39.09a1.29,1.29,0,0,0,1.29-.53,1.66,1.66,0,0,0,.29-.83,1.31,1.31,0,0,0-1-1.45c-.23-.06-.47-.12-.71-.16a1.23,1.23,0,0,0-1.2.46,1.55,1.55,0,0,0-.34,1.29,1.25,1.25,0,0,0,.77,1A4,4,0,0,0,1008.69,164.44Zm6.47-3.18a1.45,1.45,0,0,0-.72-1.64l-.11-.08a1.45,1.45,0,0,0-1.85.1,1.41,1.41,0,0,0-.24,1.79,1.9,1.9,0,0,0,1.6.92,1.13,1.13,0,0,0,1.09-.59A2.84,2.84,0,0,0,1015.16,161.26Zm27.48-24.1a2.5,2.5,0,0,0,1.33-.22,1.59,1.59,0,0,0,.61-1.95,1.09,1.09,0,0,0-.46-.51,1.88,1.88,0,0,0-2,.05,1.36,1.36,0,0,0-.64,1.45A1.51,1.51,0,0,0,1042.64,137.16Zm9.2,18.79h0l-.32-.08a1.29,1.29,0,0,0-1.23.47,1.59,1.59,0,0,0-.35,1.07,1.28,1.28,0,0,0,1,1.26,5.93,5.93,0,0,0,.73.16,1.21,1.21,0,0,0,1-.37,1.51,1.51,0,0,0,.44-.91,1.33,1.33,0,0,0-.87-1.51C1052.1,156,1052,156,1051.84,156Zm-7.2-9.37h0l-.3-.07a1.28,1.28,0,0,0-1.3.51,1.55,1.55,0,0,0-.3.75,1.32,1.32,0,0,0,.8,1.48,3.54,3.54,0,0,0,.91.21,1.2,1.2,0,0,0,1.09-.48,1.53,1.53,0,0,0,.33-1.27,1.24,1.24,0,0,0-.76-1C1045,146.66,1044.8,146.63,1044.64,146.58Zm-7.4-21.35a1.41,1.41,0,0,0-1.85,1.51,1.31,1.31,0,0,0,1,1.24,2.16,2.16,0,0,0,.94.12,1.34,1.34,0,0,0,1.07-1,1.38,1.38,0,0,0-.76-1.79C1037.48,125.29,1037.36,125.27,1037.24,125.23Zm-21,.88a1.33,1.33,0,0,0,1.65-.87,1.44,1.44,0,0,0-.13-1.38,1.39,1.39,0,0,0-1.33-.58,1.31,1.31,0,0,0-1.09.81A1.4,1.4,0,0,0,1016.21,126.11Zm8.87-4.43a1.39,1.39,0,0,0-1.42-1.75,1.18,1.18,0,0,0-.85.32,1.6,1.6,0,0,0-.51,1.08,1.34,1.34,0,0,0,1,1.42,1.33,1.33,0,0,0,1.61-.6C1025,122,1025,121.83,1025.08,121.68Zm-35.92,10a.52.52,0,0,0,0,.11.93.93,0,0,0,.87,1.13,3.94,3.94,0,0,0,1.74-.41.7.7,0,0,0,.33-.35A1,1,0,0,0,992,131a1,1,0,0,0-1.11-.27,2.79,2.79,0,0,1-.81.17A.94.94,0,0,0,989.16,131.68Zm57.46,21.45a1,1,0,0,0-.57-1.15,1.46,1.46,0,0,0-.66-.06,3.49,3.49,0,0,1-.56,0,1,1,0,0,0-1.18.81.9.9,0,0,0,.74,1.16l.14,0a4.58,4.58,0,0,0,1.28,0A.9.9,0,0,0,1046.62,153.13Zm-38.84,1.75-.32-.07a.9.9,0,0,0-1,.5,1,1,0,0,0,.7,1.49,1.91,1.91,0,0,1,.65.25,1,1,0,0,0,1.45-.73,1,1,0,0,0-.52-1.07A3,3,0,0,0,1007.78,154.88Zm28.37,9.45a1,1,0,0,0,1.07,1.18c.19,0,.39,0,.58,0a2.48,2.48,0,0,0,.61-.15,1,1,0,0,0,.5-1.14,1,1,0,0,0-1.05-.74l-.44,0a3.08,3.08,0,0,0-.53.08A1,1,0,0,0,1036.15,164.33Zm-38.28-34a.94.94,0,0,0,.73,1.19,2.37,2.37,0,0,0,1.39-.19.94.94,0,0,0,.54-.83,1,1,0,0,0-1.13-1c-.24.05-.48.08-.72.11A.9.9,0,0,0,997.87,130.38Zm-1.76,24.26a.84.84,0,0,0,.84-.15,1.09,1.09,0,0,0,.36-1.08.91.91,0,0,0-.72-.72,1,1,0,0,1-.29-.14.86.86,0,0,0-1,0,.94.94,0,0,0-.57.84,1,1,0,0,0,.39.84A2,2,0,0,0,996.11,154.64Zm25.06,8.77h0l-.25,0a.93.93,0,0,0-1.16.64,1,1,0,0,0,.57,1.28,4,4,0,0,0,.68.17.94.94,0,0,0,1.07-.63,1,1,0,0,0-.63-1.34Zm-16.24-13.76h0l-.23-.06a.93.93,0,0,0-1.16.65,1,1,0,0,0,.57,1.28,5.8,5.8,0,0,0,.72.17.92.92,0,0,0,1-.61,1,1,0,0,0-.65-1.37ZM1024.81,126h0a1.83,1.83,0,0,0,.32.07,1.34,1.34,0,0,0,.4,0,1,1,0,0,0,.77-1,.92.92,0,0,0-.65-1,4.54,4.54,0,0,0-.66-.16.9.9,0,0,0-1,.53,1,1,0,0,0,.67,1.45Zm-27.09,17,.25.06a1,1,0,0,0,1.15-.61,1,1,0,0,0-.69-1.36l-.55-.12a.71.71,0,0,0-.25,0,.91.91,0,0,0-.82.67,1,1,0,0,0,.66,1.32Zm44.61-12.17h0l-.34-.08a.89.89,0,0,0-.92.39,1.11,1.11,0,0,0-.2.77.9.9,0,0,0,.7.81c.17.05.35.08.53.12a.93.93,0,0,0,1.14-.57,1,1,0,0,0-.48-1.33A3.13,3.13,0,0,0,1042.33,130.84ZM1008.1,125a1,1,0,0,0,1.1,1.29l.33,0a.91.91,0,0,0,.88-.86,1,1,0,0,0-1.08-1.16l-.4,0A.86.86,0,0,0,1008.1,125Zm41.78,20.83a.94.94,0,0,0-.53-1.16,1,1,0,0,0-1.34.43,1.69,1.69,0,0,0-.13.59.82.82,0,0,0,.39.75A1,1,0,0,0,1049.88,145.78Zm-11.44-13.88a.92.92,0,0,0-.31-1,1.05,1.05,0,0,0-1.51,1.45,1.1,1.1,0,0,0,1.1.36A.92.92,0,0,0,1038.44,131.9Zm14.25,18.38a1,1,0,0,0,1.22-.79,1,1,0,1,0-2-.44A1,1,0,0,0,1052.69,150.28Zm-5.06-16.76a.93.93,0,0,0,.6,1.18,1,1,0,0,0,1.14-.24,1.22,1.22,0,0,0,.15-1.27,1.12,1.12,0,0,0-1.09-.48A.92.92,0,0,0,1047.63,133.52Zm-32.22-12.89a.94.94,0,0,0,1.19-.76,1,1,0,1,0-1.9-.43A.93.93,0,0,0,1015.41,120.63Z"/><path class="cls-5" d="M1002.9,137.8c.05-.38.08-.71.14-1a6.13,6.13,0,0,1,2.38-4,13.73,13.73,0,0,1,3.45-1.87,21.42,21.42,0,0,1,5.76-1.31,33.91,33.91,0,0,1,5.14-.08c1.41.08,2.83.22,4.23.44a1.2,1.2,0,0,0,.42,0,9.83,9.83,0,0,0,3.73-1.78c.51-.36,1-.74,1.5-1.12a1,1,0,0,1,1-.22,1.41,1.41,0,0,1,.38,2.45c-.73.56-1.47,1.13-2.26,1.62a.63.63,0,0,0-.15.11l.83.3a19.09,19.09,0,0,1,5.64,3.11,13.53,13.53,0,0,1,4.74,7.4,11,11,0,0,1,.22,4,11.42,11.42,0,0,1-2.24,5.56,9.75,9.75,0,0,1-1.46,1.55l-.18.16.66.25A12.49,12.49,0,0,1,1041,156a20.58,20.58,0,0,1,2.92,3.47c.12.18.25.36.36.55a1.28,1.28,0,0,1-.21,1.65,1.51,1.51,0,0,1-1.78.29,1.47,1.47,0,0,1-.5-.49,18.6,18.6,0,0,0-1.85-2.39,11.13,11.13,0,0,0-3.56-2.64,12.12,12.12,0,0,0-3.05-.89,27.42,27.42,0,0,0-4.53-.27c-1.39,0-2.77-.06-4.16-.19s-2.65-.32-4-.57a34.45,34.45,0,0,1-4.14-1.07,27.2,27.2,0,0,1-5.38-2.45,21.4,21.4,0,0,1-4-2.95,12,12,0,0,1-2.54-3.25,38.76,38.76,0,0,0-3-4.86,10.79,10.79,0,0,0-2.44-2.47,6.46,6.46,0,0,0-3.19-1.18,1.46,1.46,0,0,1-1-.45,1.48,1.48,0,0,1-.3-1.55,1,1,0,0,1,1-.61,9.74,9.74,0,0,1,2.07.35,9.51,9.51,0,0,1,4.57,3.05l.3.36Zm22.43-4.74v0l-.27-.06a19.76,19.76,0,0,0-2.76-.41c-1-.08-2-.13-3-.18a33.6,33.6,0,0,0-4.81.1,16.5,16.5,0,0,0-4.28,1,7.28,7.28,0,0,0-2.62,1.65,5.15,5.15,0,0,0-1.44,2.63,6.75,6.75,0,0,0,.12,3.22,11.17,11.17,0,0,0,2,3.86,9.28,9.28,0,0,0,1.2,1.38,18,18,0,0,0,3.06,2.22,27.42,27.42,0,0,0,6.17,2.67,24.57,24.57,0,0,0,4.26.78c1.55.16,3.11.23,4.67.28l3.49.15a1.24,1.24,0,0,0,.27,0,4.39,4.39,0,0,0,.52-.13,11.91,11.91,0,0,0,1.17-.32,5.68,5.68,0,0,0,3.79-4.08,8.05,8.05,0,0,0,.24-2.85,13.41,13.41,0,0,0-2.32-6.55,10,10,0,0,0-1.87-2.08,10.91,10.91,0,0,0-2-1.26,22.32,22.32,0,0,0-4-1.59C1026.31,133.3,1025.82,133.18,1025.33,133.06Z"/><path class="cls-5" d="M1026.87,167.87a6.13,6.13,0,0,1-.7-.2,1.28,1.28,0,0,1-.85-1.31,1.56,1.56,0,0,1,.38-1,1.22,1.22,0,0,1,1.19-.44,11.31,11.31,0,0,1,1.28.3,1.32,1.32,0,0,1,.92,1.52,1.59,1.59,0,0,1-.3.75,1.31,1.31,0,0,1-1.39.5c-.18,0-.35-.08-.53-.12Z"/><path class="cls-5" d="M1022.23,158.76a5.47,5.47,0,0,1,.7.16,1.32,1.32,0,0,1,.85,1.5,1.56,1.56,0,0,1-.24.65,1.2,1.2,0,0,1-1.23.61,8.67,8.67,0,0,1-1.41-.31,1.3,1.3,0,0,1-.88-1.5,1.89,1.89,0,0,1,.16-.51,1.31,1.31,0,0,1,1.51-.75l.54.13Z"/><path class="cls-5" d="M999.05,124.19l-.39-.13a1.31,1.31,0,0,1-.83-1.46,1.59,1.59,0,0,1,.41-.9,1.29,1.29,0,0,1,1.2-.39,5.39,5.39,0,0,0,.8.06,1.29,1.29,0,0,1,1.11.72,1.4,1.4,0,0,1-.66,2,2.23,2.23,0,0,1-1.05.16Z"/><path class="cls-5" d="M992.15,144.52l.45.11a1.3,1.3,0,0,1,1.06,1.28,1.61,1.61,0,0,1-.37,1.08,1.24,1.24,0,0,1-1.26.44l-.92-.2a1.38,1.38,0,0,1-1-1.91,1.33,1.33,0,0,1,1.25-.95,1.27,1.27,0,0,1,.28,0Z"/><path class="cls-5" d="M1003.4,157.48a1.53,1.53,0,0,1-1.64,1.21,1.11,1.11,0,0,1-.4-.13,7.1,7.1,0,0,1-.7-.41,1.7,1.7,0,0,1-.71-.79,1.34,1.34,0,0,1,.1-1.26,1.51,1.51,0,0,1,1.5-.69l.16,0a5,5,0,0,1,1.23.76A1.42,1.42,0,0,1,1003.4,157.48Z"/><path class="cls-5" d="M992.06,139.34a5.79,5.79,0,0,1-.31.54,2.51,2.51,0,0,1-1.28.83,1.46,1.46,0,0,1-1.87-1.36,1.27,1.27,0,0,1,.87-1.35.78.78,0,0,0,.2-.11,1.42,1.42,0,0,1,2.12.32A1.46,1.46,0,0,1,992.06,139.34Z"/><path class="cls-5" d="M998.19,147.63a3,3,0,0,1,1.1.56,1.7,1.7,0,0,1,.62,1.49,1.24,1.24,0,0,1-.24.58,1.53,1.53,0,0,1-1.84.48l-.12-.07c-.22-.22-.49-.37-.73-.57a1.33,1.33,0,0,1-.42-1.48,1.51,1.51,0,0,1,1.26-1H998Z"/><path class="cls-5" d="M1049.38,154a1.36,1.36,0,0,1-1-1.14,1.38,1.38,0,0,1,1.22-1.63,4,4,0,0,1,1.14,0,1.21,1.21,0,0,1,.86.55,1.44,1.44,0,0,1-.28,2,1.38,1.38,0,0,1-.64.26A3.67,3.67,0,0,1,1049.38,154Z"/><path class="cls-5" d="M1031.44,163.54l-.45-.1a1.31,1.31,0,0,1-.91-1.5,1.57,1.57,0,0,1,.15-.51,1.23,1.23,0,0,1,1.33-.78,5.47,5.47,0,0,1,1,.23,1.32,1.32,0,0,1,.84,1.56,1.84,1.84,0,0,1-.18.53,1.3,1.3,0,0,1-1.44.67l-.39-.09Z"/><path class="cls-5" d="M1008.27,121.17a4.32,4.32,0,0,1-.63-.24,1.37,1.37,0,0,1-.61-1.66,1.32,1.32,0,0,1,1.19-1,2.62,2.62,0,0,1,1.38.31,1.39,1.39,0,0,1,.57,1.72,1.62,1.62,0,0,1-.45.67,1.33,1.33,0,0,1-1.15.26l-.29-.06Z"/><path class="cls-5" d="M1008.69,164.44a4,4,0,0,1-.52-.15,1.25,1.25,0,0,1-.77-1,1.55,1.55,0,0,1,.34-1.29,1.23,1.23,0,0,1,1.2-.46c.24,0,.48.1.71.16a1.31,1.31,0,0,1,1,1.45,1.66,1.66,0,0,1-.29.83,1.29,1.29,0,0,1-1.29.53l-.39-.09Z"/><path class="cls-5" d="M1015.16,161.26a2.84,2.84,0,0,1-.23.5,1.13,1.13,0,0,1-1.09.59,1.9,1.9,0,0,1-1.6-.92,1.41,1.41,0,0,1,.24-1.79,1.45,1.45,0,0,1,1.85-.1l.11.08A1.45,1.45,0,0,1,1015.16,161.26Z"/><path class="cls-5" d="M1042.64,137.16a1.51,1.51,0,0,1-1.16-1.18,1.36,1.36,0,0,1,.64-1.45,1.88,1.88,0,0,1,2-.05,1.09,1.09,0,0,1,.46.51,1.59,1.59,0,0,1-.61,1.95A2.5,2.5,0,0,1,1042.64,137.16Z"/><path class="cls-5" d="M1051.84,156c.13,0,.26.05.38.09a1.33,1.33,0,0,1,.87,1.51,1.51,1.51,0,0,1-.44.91,1.21,1.21,0,0,1-1,.37,5.93,5.93,0,0,1-.73-.16,1.28,1.28,0,0,1-1-1.26,1.59,1.59,0,0,1,.35-1.07,1.29,1.29,0,0,1,1.23-.47l.32.08Z"/><path class="cls-5" d="M1044.64,146.58c.16,0,.32.08.47.14a1.24,1.24,0,0,1,.76,1,1.53,1.53,0,0,1-.33,1.27,1.2,1.2,0,0,1-1.09.48,3.54,3.54,0,0,1-.91-.21,1.32,1.32,0,0,1-.8-1.48,1.55,1.55,0,0,1,.3-.75,1.28,1.28,0,0,1,1.3-.51l.3.07Z"/><path class="cls-5" d="M1037.24,125.23c.12,0,.24.06.36.11a1.38,1.38,0,0,1,.76,1.79,1.34,1.34,0,0,1-1.07,1,2.16,2.16,0,0,1-.94-.12,1.31,1.31,0,0,1-1-1.24,1.41,1.41,0,0,1,1.85-1.51Z"/><path class="cls-5" d="M1016.21,126.11a1.4,1.4,0,0,1-.9-2,1.31,1.31,0,0,1,1.09-.81,1.39,1.39,0,0,1,1.33.58,1.44,1.44,0,0,1,.13,1.38A1.33,1.33,0,0,1,1016.21,126.11Z"/><path class="cls-5" d="M1025.08,121.68c-.07.15-.12.32-.2.47a1.33,1.33,0,0,1-1.61.6,1.34,1.34,0,0,1-1-1.42,1.6,1.6,0,0,1,.51-1.08,1.18,1.18,0,0,1,.85-.32A1.39,1.39,0,0,1,1025.08,121.68Z"/><path class="cls-5" d="M989.16,131.68a.94.94,0,0,1,.88-.78,2.79,2.79,0,0,0,.81-.17A1,1,0,0,1,992,131a1,1,0,0,1,.12,1.16.7.7,0,0,1-.33.35,3.94,3.94,0,0,1-1.74.41.93.93,0,0,1-.87-1.13A.52.52,0,0,1,989.16,131.68Z"/><path class="cls-5" d="M1046.62,153.13a.9.9,0,0,1-.81.76,4.58,4.58,0,0,1-1.28,0l-.14,0a.9.9,0,0,1-.74-1.16,1,1,0,0,1,1.18-.81,3.49,3.49,0,0,0,.56,0,1.46,1.46,0,0,1,.66.06A1,1,0,0,1,1046.62,153.13Z"/><path class="cls-5" d="M1007.78,154.88a3,3,0,0,1,1,.37,1,1,0,0,1,.52,1.07,1,1,0,0,1-1.45.73,1.91,1.91,0,0,0-.65-.25,1,1,0,0,1-.7-1.49.9.9,0,0,1,1-.5Z"/><path class="cls-5" d="M1036.15,164.33a1,1,0,0,1,.74-.79,3.08,3.08,0,0,1,.53-.08l.44,0a1,1,0,0,1,1.05.74,1,1,0,0,1-.5,1.14,2.48,2.48,0,0,1-.61.15c-.19,0-.39,0-.58,0A1,1,0,0,1,1036.15,164.33Z"/><path class="cls-5" d="M997.87,130.38a.9.9,0,0,1,.81-.76c.24,0,.48-.06.72-.11a1,1,0,0,1,1.13,1,.94.94,0,0,1-.54.83,2.37,2.37,0,0,1-1.39.19A.94.94,0,0,1,997.87,130.38Z"/><path class="cls-5" d="M996.11,154.64a2,2,0,0,1-1-.45,1,1,0,0,1-.39-.84.94.94,0,0,1,.57-.84.86.86,0,0,1,1,0,1,1,0,0,0,.29.14.91.91,0,0,1,.72.72,1.09,1.09,0,0,1-.36,1.08A.84.84,0,0,1,996.11,154.64Z"/><path class="cls-5" d="M1021.17,163.41l.28.07a1,1,0,0,1,.63,1.34.94.94,0,0,1-1.07.63,4,4,0,0,1-.68-.17,1,1,0,0,1-.57-1.28.93.93,0,0,1,1.16-.64l.25,0Z"/><path class="cls-5" d="M1004.93,149.65l.27.06a1,1,0,0,1,.65,1.37.92.92,0,0,1-1,.61,5.8,5.8,0,0,1-.72-.17,1,1,0,0,1-.57-1.28.93.93,0,0,1,1.16-.65l.23.06Z"/><path class="cls-5" d="M1024.81,126l-.18,0a1,1,0,0,1-.67-1.45.9.9,0,0,1,1-.53,4.54,4.54,0,0,1,.66.16.92.92,0,0,1,.65,1,1,1,0,0,1-.77,1,1.34,1.34,0,0,1-.4,0,1.83,1.83,0,0,1-.32-.07Z"/><path class="cls-5" d="M997.72,143l-.25-.06a1,1,0,0,1-.66-1.32.91.91,0,0,1,.82-.67.71.71,0,0,1,.25,0l.55.12a1,1,0,0,1,.69,1.36,1,1,0,0,1-1.15.61Z"/><path class="cls-5" d="M1042.33,130.84a3.13,3.13,0,0,1,.44.1,1,1,0,0,1,.48,1.33.93.93,0,0,1-1.14.57c-.18,0-.36-.07-.53-.12a.9.9,0,0,1-.7-.81,1.11,1.11,0,0,1,.2-.77.89.89,0,0,1,.92-.39l.34.08Z"/><path class="cls-5" d="M1008.1,125a.86.86,0,0,1,.83-.72l.4,0a1,1,0,0,1,1.08,1.16.91.91,0,0,1-.88.86l-.33,0A1,1,0,0,1,1008.1,125Z"/><path class="cls-5" d="M1049.88,145.78a1,1,0,0,1-1.61.61.82.82,0,0,1-.39-.75,1.69,1.69,0,0,1,.13-.59,1,1,0,0,1,1.34-.43A.94.94,0,0,1,1049.88,145.78Z"/><path class="cls-5" d="M1038.44,131.9a.92.92,0,0,1-.72.79,1,1,0,1,1-.53-2,1.12,1.12,0,0,1,.94.22A.92.92,0,0,1,1038.44,131.9Z"/><path class="cls-5" d="M1052.69,150.28a1,1,0,0,1,.45-2,1,1,0,0,1,.77,1.23A1,1,0,0,1,1052.69,150.28Z"/><path class="cls-5" d="M1047.63,133.52a.92.92,0,0,1,.8-.81,1.12,1.12,0,0,1,1.09.48,1.22,1.22,0,0,1-.15,1.27,1,1,0,0,1-1.14.24A.93.93,0,0,1,1047.63,133.52Z"/><path class="cls-5" d="M1015.41,120.63a.93.93,0,0,1-.71-1.19,1,1,0,1,1,1.9.43A.94.94,0,0,1,1015.41,120.63Z"/></g><g id="Fleur_Pensée"><path class="cls-5" d="M457.07,555.23h-1.16l-.11,0A5.54,5.54,0,0,1,453,554a8,8,0,0,1-1.91-2.16l-.84-1.37a3.22,3.22,0,0,0-2.12-1.51l-1.9-.38a7.45,7.45,0,0,1-3.45-1.57,12.49,12.49,0,0,1-1.53-1.47l-.18-.19-.08.07A10,10,0,0,1,437,548a19.8,19.8,0,0,1-5.75,1.16c-.86.06-1.73.09-2.6.11s-1.94,0-2.92,0a1.17,1.17,0,0,1-1.1-1.55c.27-.8.52-1.61.83-2.39a18.75,18.75,0,0,1,4-6.24l.06-.1-1.21-.16a23,23,0,0,1-5.47-1.42,16.17,16.17,0,0,1-3.12-1.61,1.26,1.26,0,0,1-.54-.66.53.53,0,0,0-.1-.12v-.49s.07-.05.08-.09a1.65,1.65,0,0,1,.4-.62l1.67-1.87c1.11-1.25,2.24-2.49,3.45-3.65a21.33,21.33,0,0,1,3.7-2.92,11.08,11.08,0,0,1,3.75-1.53c.41-.08.84-.13,1.28-.2,0-.08-.07-.16-.11-.23a4.51,4.51,0,0,1-.45-1.6,13.89,13.89,0,0,1,.39-4.54,8.27,8.27,0,0,1,2.12-3.79,9.42,9.42,0,0,1,2.47-1.78c.87-.44,1.75-.84,2.63-1.26a14.33,14.33,0,0,0,1.86-1,5.21,5.21,0,0,0,1.8-1.87l.16-.25a5.69,5.69,0,0,1,3.08-2.39,7.05,7.05,0,0,1,2.33-.31H450l0,0s0-.07,0-.11a4.71,4.71,0,0,1,4.1-3,7.24,7.24,0,0,1,2.54.17,5.79,5.79,0,0,0,1.61.15,8.25,8.25,0,0,0,1.91-.35c1-.31,1.92-.64,2.88-1a17,17,0,0,1,3.52-.82l.54-.07h1.35l.21,0,.6.07a12.11,12.11,0,0,1,3.75,1.21,9.07,9.07,0,0,1,1,.62,4.13,4.13,0,0,1,1.13,1.33c.23.4.46.8.65,1.21a2.57,2.57,0,0,0,1.94,1.51l1.91.38a7.24,7.24,0,0,1,3.13,1.41,12.34,12.34,0,0,1,3.61,4.59,10.23,10.23,0,0,1,1,4.28,7,7,0,0,1-1,3.9s0,.09-.07.14l.25.2a14.06,14.06,0,0,0,2.16,1.41c.43.23.85.49,1.26.75A7.74,7.74,0,0,1,492,524.5a5.15,5.15,0,0,1,1.13,2.77s0,.08,0,.11v1.4c0,.18,0,.36-.07.55a14.36,14.36,0,0,1-.72,2.74c-.43,1.18-.88,2.35-1.3,3.53a4.27,4.27,0,0,0-.27,1c-.08.7-.1,1.41-.15,2.11s-.07,1.25-.15,1.88a5.9,5.9,0,0,1-1.34,3.14,10.19,10.19,0,0,1-1.53,1.48l-2,1.52a10.71,10.71,0,0,0-1.78,1.58c-.25.27-.52.53-.79.78a9.87,9.87,0,0,1-2.74,1.87,5.72,5.72,0,0,1-3.6.41,6,6,0,0,1-2.46-1.23L474,550l-.1.13a7.11,7.11,0,0,1-2.45,2,9.41,9.41,0,0,1-5.22.93,9.15,9.15,0,0,0-3,.24c-.93.24-1.83.59-2.73.92a16.41,16.41,0,0,1-2.75.82ZM455.57,539l-.27,0a5.16,5.16,0,0,1-2-.13,3.25,3.25,0,0,1-2.44-2.89,4.89,4.89,0,0,1,.73-3.16,10.36,10.36,0,0,1,.73-1,14.31,14.31,0,0,1,2.14-2l.19-.16a.19.19,0,0,0-.14,0l-1.57.27a44.88,44.88,0,0,0-4.62,1.07,18.1,18.1,0,0,0-3.21,1.25.47.47,0,0,0-.28.36c0,.29-.11.59-.13.88a9.43,9.43,0,0,0,.14,2.43,11.33,11.33,0,0,0,.83,2.73,3.44,3.44,0,0,0,1.52,1.63,11,11,0,0,0,1.1.51c.72.3,1.46.57,2.19.87a9.78,9.78,0,0,1,3.24,2.1c.39.41.76.83,1.12,1.26a5,5,0,0,0,2.53,1.64,3.63,3.63,0,0,0,2,0,12.46,12.46,0,0,0,2.14-.87c.82-.38,1.64-.78,2.47-1.14a7.35,7.35,0,0,1,2.43-.6,5.84,5.84,0,0,1,3,.6c.51.25,1,.55,1.5.81a10.88,10.88,0,0,0,1.09.52,4.94,4.94,0,0,0,.64.17c0-.09,0-.15,0-.21a8.83,8.83,0,0,0-.11-1.78,14.1,14.1,0,0,0-1-3.29,30.59,30.59,0,0,0-3.64-6,.47.47,0,0,0-.1-.09c0,.46,0,.89.05,1.31a11.52,11.52,0,0,1-.29,2.87,4.5,4.5,0,0,1-.62,1.46,2.1,2.1,0,0,1-1.32.91,8.54,8.54,0,0,1-1,.17,3.57,3.57,0,0,1-2.2-.4l-.11,0-.18.29a4.11,4.11,0,0,1-1.58,1.49,3.17,3.17,0,0,1-3.62-.32,3.66,3.66,0,0,1-1.39-2.73C455.56,539.49,455.57,539.24,455.57,539Zm25.24-17.38c0-.19,0-.37.05-.54a10.78,10.78,0,0,0-.24-2.78,13.41,13.41,0,0,0-1.05-3.15,3.31,3.31,0,0,0-2-1.72,9.8,9.8,0,0,0-1.77-.38c-.66-.11-1.32-.2-2-.35a6.3,6.3,0,0,1-3.79-2.43c-.22-.29-.41-.6-.61-.9s-.36-.59-.56-.87a1.89,1.89,0,0,0-1.15-.78,4.2,4.2,0,0,0-1.41-.1,6.14,6.14,0,0,0-2.19.63c-.56.26-1.1.55-1.64.82l-1.06.53a4.55,4.55,0,0,1-3.28.33c-.63-.16-1.26-.35-1.89-.52a4.14,4.14,0,0,0-2-.08,4.79,4.79,0,0,0-1.38.57s0,0,0,.07a1.21,1.21,0,0,0,0,.18,20.83,20.83,0,0,0,1.17,2.75,41.49,41.49,0,0,0,4.31,6.59s.07.06.11.1c0-.37,0-.7,0-1a11.15,11.15,0,0,1,.25-2.88,4.4,4.4,0,0,1,.68-1.61,2,2,0,0,1,1.23-.82,7.89,7.89,0,0,1,.95-.17,3.59,3.59,0,0,1,2.2.39l.07,0,.13-.21a4.49,4.49,0,0,1,.92-1.07,3.26,3.26,0,0,1,4.45.09,3.78,3.78,0,0,1,1.14,2.69v.49l.31,0a4.8,4.8,0,0,1,1.81.11,3.23,3.23,0,0,1,2.47,2.81,5,5,0,0,1-.76,3.22,8.74,8.74,0,0,1-1.21,1.5l-.23.26.33,0,1.36-.22c1.39-.23,2.78-.48,4.15-.83A15.64,15.64,0,0,0,480.81,521.57Zm-4.71,3.93v0h.09a7.72,7.72,0,0,1,1.95.53,3.6,3.6,0,0,1,2.19,3.43,1.94,1.94,0,0,1-1.59,2,4.77,4.77,0,0,1-1.46.07l-1.77-.18h-.2l.16.24a3.78,3.78,0,0,1,.55,1.1,2,2,0,0,1-1.48,2.64,4,4,0,0,1-1,.11,5.71,5.71,0,0,1-2-.41l-.23-.08.16.27a29.86,29.86,0,0,1,2.14,3.72,17.57,17.57,0,0,1,1.6,4.93c0,.15.05.3.07.45a3.26,3.26,0,0,0,1.31.13,3.89,3.89,0,0,0,1.86-.68,7.71,7.71,0,0,0,2.91-3.66,6.08,6.08,0,0,0,.33-2.4c0-.59,0-1.19,0-1.78a8.79,8.79,0,0,1,1-4.12c.27-.52.55-1,.8-1.56s.37-.81.53-1.22a2.08,2.08,0,0,0,.09-1.28,3.56,3.56,0,0,0-1.51-2.19c-.38-.25-.8-.45-1.2-.66a2.12,2.12,0,0,0-.41-.12,2.74,2.74,0,0,1-.48-.17.37.37,0,0,0-.34,0l-3,.69Zm7.15-5.48a5.94,5.94,0,0,0,1.34-2,5.26,5.26,0,0,0,.17-2.78,9.43,9.43,0,0,0-3.46-5.66,4.35,4.35,0,0,0-1.83-.89l-.78-.16c-.65-.14-1.3-.26-1.95-.43a4.81,4.81,0,0,1-3-2.4l-.37-.68c-.16-.3-.32-.6-.49-.89a1.69,1.69,0,0,0-.71-.64c-.34-.15-.68-.33-1-.48a8.41,8.41,0,0,0-4.73-.56,16.87,16.87,0,0,0-2.62.7c-1.05.35-2.08.74-3.14,1a9.23,9.23,0,0,1-4.61.13,4.84,4.84,0,0,0-1.7-.1,2.08,2.08,0,0,0-1.86,1.64,4.78,4.78,0,0,0-.12,1.41c0,.05,0,.1,0,.17l.27-.11a6.32,6.32,0,0,1,2.68-.49,8.67,8.67,0,0,1,2,.35c.52.15,1,.3,1.56.43a2.12,2.12,0,0,0,1.48-.17l.91-.45c.75-.37,1.48-.76,2.25-1.1a7.5,7.5,0,0,1,4.33-.62,4.36,4.36,0,0,1,2.94,1.75l.52.78c.18.27.34.55.52.82a3.93,3.93,0,0,0,2.25,1.64c.53.14,1.07.22,1.61.32s1.3.2,1.94.35a5.77,5.77,0,0,1,4.21,3.39,15.92,15.92,0,0,1,1.25,4.26C483.15,519,483.19,519.51,483.25,520Zm-41,14.47h-.07l-.6.81a4.25,4.25,0,0,0-.66,1.49,5.79,5.79,0,0,0,0,2.65,9.9,9.9,0,0,0,2.86,5,5.37,5.37,0,0,0,3,1.57c.62.09,1.23.22,1.84.36a5.87,5.87,0,0,1,2.82,1.5,7.49,7.49,0,0,1,1.17,1.53c.26.42.51.84.77,1.25a4.8,4.8,0,0,0,1.27,1.35,3.11,3.11,0,0,0,1.42.57,4.25,4.25,0,0,0,1.33-.1,13.63,13.63,0,0,0,2-.62,29.63,29.63,0,0,1,3.18-1.06,11.26,11.26,0,0,1,3.88-.29,6.88,6.88,0,0,0,3-.32,4.8,4.8,0,0,0,2.29-1.54l.17-.24-.24-.07a8.47,8.47,0,0,1-2.09-.92c-.39-.23-.79-.46-1.2-.67a3.42,3.42,0,0,0-2-.33,5,5,0,0,0-1.44.37c-.71.31-1.41.64-2.11,1a17.93,17.93,0,0,1-2.64,1.1,5.65,5.65,0,0,1-2.48.25,7.23,7.23,0,0,1-4.66-2.53c-.26-.31-.52-.61-.79-.91a6.08,6.08,0,0,0-1.71-1.36c-.54-.28-1.1-.53-1.66-.77s-1.37-.55-2.06-.83c-.19-.07-.38-.17-.57-.26a6,6,0,0,1-2.89-3,13.86,13.86,0,0,1-1.11-4.57C442.28,534.69,442.27,534.59,442.27,534.49Zm33,12.32c0,.16-.05.3-.08.44a.26.26,0,0,0,.07.24,4.47,4.47,0,0,0,1.28,1,2.7,2.7,0,0,0,1.85.28,4.53,4.53,0,0,0,1.63-.7,11.28,11.28,0,0,0,2-1.69,12.65,12.65,0,0,1,1.19-1.13c.68-.55,1.39-1,2.07-1.58.47-.36.94-.73,1.38-1.13a3.45,3.45,0,0,0,1.15-1.89,7.92,7.92,0,0,0,.16-1.19c.06-.75.07-1.49.11-2.24a8.51,8.51,0,0,1,.51-2.59c.34-.89.67-1.79,1-2.69a17.06,17.06,0,0,0,.87-2.88,4.58,4.58,0,0,0,.05-1.61,3.36,3.36,0,0,0-1.18-2,8.63,8.63,0,0,0-1.73-1.14,17.18,17.18,0,0,1-2.73-1.8l-.18-.15-1.26.91,0,0,.14.09a6.1,6.1,0,0,1,2.43,2.74,4.7,4.7,0,0,1,.35,3.15,8.06,8.06,0,0,1-.68,1.79l-1.07,2.11a5.3,5.3,0,0,0-.47,1.62,11.15,11.15,0,0,0-.07,2.16,14.25,14.25,0,0,1-.09,2.53,7.72,7.72,0,0,1-1,2.78,9.93,9.93,0,0,1-3.12,3.42,6.29,6.29,0,0,1-3.72,1.14C475.87,546.87,475.59,546.84,475.29,546.81Zm-23.85-33.32c-.19.13-.37.22-.53.34a8,8,0,0,0-.62.54c-.38.35-.74.71-1.13,1a5.93,5.93,0,0,1-2.89,1.4c-.78.13-1.56.22-2.34.33a8,8,0,0,0-1.6.36,2.17,2.17,0,0,0-1.43,2.06,3.39,3.39,0,0,0,.36,1.54q.39.85.84,1.68a10.93,10.93,0,0,1,1.17,3.51c.08.45.17.9.29,1.34a2.31,2.31,0,0,0,1.29,1.54.34.34,0,0,0,.34,0c.22-.1.46-.18.69-.27a37.35,37.35,0,0,1,5.51-1.49l.21-.07-1.26-.22a9.64,9.64,0,0,1-2.17-.63,3.87,3.87,0,0,1-1.12-.71,2,2,0,0,1-.6-1,2,2,0,0,1,.36-1.62,3.66,3.66,0,0,1,1-1,7.36,7.36,0,0,1,2.06-.88l.19-.06-.17-.24a3.41,3.41,0,0,1-.51-1,2,2,0,0,1,1.08-2.45,2.66,2.66,0,0,1,1.07-.25,5.07,5.07,0,0,1,2,.36l.22.07A46.28,46.28,0,0,1,451.44,513.49Zm-8.83,17-.11-.12a4.19,4.19,0,0,1-1.16-1.92,16.9,16.9,0,0,1-.39-1.71,8.84,8.84,0,0,0-1-2.87c-.13-.23-.25-.47-.37-.7a12.8,12.8,0,0,1-.77-1.74,5.08,5.08,0,0,1-.17-3,4.36,4.36,0,0,1,2.88-3.16,7,7,0,0,1,1.25-.34c.82-.14,1.64-.25,2.46-.34a4.31,4.31,0,0,0,2.6-1.2l.56-.53a6.89,6.89,0,0,1,2-1.52s0,0,0-.05a13.86,13.86,0,0,1-.85-4c-.31,0-.6,0-.89.06a3,3,0,0,0-2,1.09,4.72,4.72,0,0,0-.44.63,7.91,7.91,0,0,1-1.5,1.81,10.25,10.25,0,0,1-2.23,1.47c-.82.41-1.66.78-2.49,1.17a15.35,15.35,0,0,0-1.87,1,5.67,5.67,0,0,0-2.48,3.52,11.06,11.06,0,0,0-.29,2.87,6,6,0,0,0,0,.74,2.27,2.27,0,0,0,.39,1c.3.42.6.84.93,1.23.52.61,1.07,1.2,1.6,1.8a9,9,0,0,1,1.82,3c.08.24.17.48.26.72.22.61.44,1.21.67,1.81,0,.1.09.2.14.3Zm-4.05,1.57a41.11,41.11,0,0,0-14.49,3.29,1.07,1.07,0,0,0,.27.12A21.74,21.74,0,0,0,432,536.7a14.82,14.82,0,0,0,3.62-.49,9.64,9.64,0,0,0,3.09-1.38.63.63,0,0,0,.19-.17l.55-.95Zm-.83-2.32a1,1,0,0,0-.05-.16,5.23,5.23,0,0,0-.89-1.62c-.47-.56-1-1.11-1.44-1.66a.45.45,0,0,0-.25-.12,6.35,6.35,0,0,0-2-.06,8.44,8.44,0,0,0-2.76.9,14.89,14.89,0,0,0-2.91,2,40.5,40.5,0,0,0-3.81,3.83.51.51,0,0,0-.08.14A44,44,0,0,1,437.73,529.76ZM460,526.44a6.13,6.13,0,0,0,1,3,3.49,3.49,0,0,0,1,1,2,2,0,0,0,1.93.21,3.25,3.25,0,0,0,1.05-.71,7.78,7.78,0,0,0,1.65-2.5,1.73,1.73,0,0,0,.12-.51,2.54,2.54,0,0,0-2.09-2.67l-.87-.15-.26-.07a3.06,3.06,0,0,0-.59-.07,4.16,4.16,0,0,0-2.28.82,1.07,1.07,0,0,0-.43.62C460,525.77,460,526.11,460,526.44Zm-20.36,16.87c-.26-.59-.53-1.14-.74-1.71s-.37-1.17-.56-1.78l-.07.1a21.64,21.64,0,0,1-3.87,3.78c-1.37,1.08-2.82,2-4.29,3l-.23.16a.51.51,0,0,0,.24,0c.77-.07,1.55-.12,2.33-.2a15.81,15.81,0,0,0,3.18-.68,9,9,0,0,0,2.83-1.46A6.58,6.58,0,0,0,439.59,543.31ZM428.21,545l.09,0a53.53,53.53,0,0,0,5-3.47,19.07,19.07,0,0,0,2.83-2.78l.18-.23-.17,0a15.13,15.13,0,0,1-2.49.45,1.35,1.35,0,0,0-.82.32c-.35.32-.75.58-1.1.9a15.2,15.2,0,0,0-3.46,4.68A.82.82,0,0,1,428.21,545Z"/><path class="cls-2" d="M455.57,539c0,.29,0,.54,0,.79a3.66,3.66,0,0,0,1.39,2.73,3.17,3.17,0,0,0,3.62.32,4.11,4.11,0,0,0,1.58-1.49l.18-.29.11,0a3.57,3.57,0,0,0,2.2.4,8.54,8.54,0,0,0,1-.17,2.1,2.1,0,0,0,1.32-.91,4.5,4.5,0,0,0,.62-1.46,11.52,11.52,0,0,0,.29-2.87c0-.42,0-.85-.05-1.31a.47.47,0,0,1,.1.09,30.59,30.59,0,0,1,3.64,6,14.1,14.1,0,0,1,1,3.29,8.83,8.83,0,0,1,.11,1.78c0,.06,0,.12,0,.21a4.94,4.94,0,0,1-.64-.17,10.88,10.88,0,0,1-1.09-.52c-.51-.26-1-.56-1.5-.81a5.84,5.84,0,0,0-3-.6,7.35,7.35,0,0,0-2.43.6c-.83.36-1.65.76-2.47,1.14a12.46,12.46,0,0,1-2.14.87,3.63,3.63,0,0,1-2,0,5,5,0,0,1-2.53-1.64c-.36-.43-.73-.85-1.12-1.26a9.78,9.78,0,0,0-3.24-2.1c-.73-.3-1.47-.57-2.19-.87a11,11,0,0,1-1.1-.51,3.44,3.44,0,0,1-1.52-1.63,11.33,11.33,0,0,1-.83-2.73,9.43,9.43,0,0,1-.14-2.43c0-.29.09-.59.13-.88a.47.47,0,0,1,.28-.36,18.1,18.1,0,0,1,3.21-1.25,44.88,44.88,0,0,1,4.62-1.07l1.57-.27a.19.19,0,0,1,.14,0l-.19.16a14.31,14.31,0,0,0-2.14,2,10.36,10.36,0,0,0-.73,1,4.89,4.89,0,0,0-.73,3.16,3.25,3.25,0,0,0,2.44,2.89,5.16,5.16,0,0,0,2,.13Z"/><path class="cls-2" d="M480.81,521.57a15.64,15.64,0,0,1-2.05.64c-1.37.35-2.76.6-4.15.83l-1.36.22-.33,0,.23-.26a8.74,8.74,0,0,0,1.21-1.5,5,5,0,0,0,.76-3.22,3.23,3.23,0,0,0-2.47-2.81,4.8,4.8,0,0,0-1.81-.11l-.31,0v-.49a3.78,3.78,0,0,0-1.14-2.69,3.26,3.26,0,0,0-4.45-.09,4.49,4.49,0,0,0-.92,1.07l-.13.21-.07,0a3.59,3.59,0,0,0-2.2-.39,7.89,7.89,0,0,0-.95.17,2,2,0,0,0-1.23.82,4.4,4.4,0,0,0-.68,1.61,11.15,11.15,0,0,0-.25,2.88c0,.34,0,.67,0,1,0,0-.09-.06-.11-.1a41.49,41.49,0,0,1-4.31-6.59A20.83,20.83,0,0,1,453,510.1a1.21,1.21,0,0,1,0-.18s0,0,0-.07a4.79,4.79,0,0,1,1.38-.57,4.14,4.14,0,0,1,2,.08c.63.17,1.26.36,1.89.52a4.55,4.55,0,0,0,3.28-.33l1.06-.53c.54-.27,1.08-.56,1.64-.82a6.14,6.14,0,0,1,2.19-.63,4.2,4.2,0,0,1,1.41.1,1.89,1.89,0,0,1,1.15.78c.2.28.37.58.56.87s.39.61.61.9a6.3,6.3,0,0,0,3.79,2.43c.65.15,1.31.24,2,.35a9.8,9.8,0,0,1,1.77.38,3.31,3.31,0,0,1,2,1.72,13.41,13.41,0,0,1,1.05,3.15,10.78,10.78,0,0,1,.24,2.78C480.85,521.2,480.83,521.38,480.81,521.57Z"/><path class="cls-2" d="M476.1,525.5l1-.19,3-.69a.37.37,0,0,1,.34,0,2.74,2.74,0,0,0,.48.17,2.12,2.12,0,0,1,.41.12c.4.21.82.41,1.2.66a3.56,3.56,0,0,1,1.51,2.19,2.08,2.08,0,0,1-.09,1.28c-.16.41-.33.82-.53,1.22s-.53,1-.8,1.56a8.79,8.79,0,0,0-1,4.12c0,.59,0,1.19,0,1.78a6.08,6.08,0,0,1-.33,2.4,7.71,7.71,0,0,1-2.91,3.66,3.89,3.89,0,0,1-1.86.68,3.26,3.26,0,0,1-1.31-.13c0-.15-.05-.3-.07-.45a17.57,17.57,0,0,0-1.6-4.93,29.86,29.86,0,0,0-2.14-3.72l-.16-.27.23.08a5.71,5.71,0,0,0,2,.41,4,4,0,0,0,1-.11,2,2,0,0,0,1.48-2.64,3.78,3.78,0,0,0-.55-1.1l-.16-.24h.2l1.77.18a4.77,4.77,0,0,0,1.46-.07,1.94,1.94,0,0,0,1.59-2,3.6,3.6,0,0,0-2.19-3.43,7.72,7.72,0,0,0-1.95-.53h-.09Z"/><path class="cls-3" d="M483.25,520c-.06-.51-.1-1-.17-1.44a15.92,15.92,0,0,0-1.25-4.26,5.77,5.77,0,0,0-4.21-3.39c-.64-.15-1.29-.23-1.94-.35s-1.08-.18-1.61-.32a3.93,3.93,0,0,1-2.25-1.64c-.18-.27-.34-.55-.52-.82l-.52-.78a4.36,4.36,0,0,0-2.94-1.75,7.5,7.5,0,0,0-4.33.62c-.77.34-1.5.73-2.25,1.1l-.91.45a2.12,2.12,0,0,1-1.48.17c-.52-.13-1-.28-1.56-.43a8.67,8.67,0,0,0-2-.35,6.32,6.32,0,0,0-2.68.49l-.27.11c0-.07,0-.12,0-.17a4.78,4.78,0,0,1,.12-1.41,2.08,2.08,0,0,1,1.86-1.64,4.84,4.84,0,0,1,1.7.1,9.23,9.23,0,0,0,4.61-.13c1.06-.27,2.09-.66,3.14-1a16.87,16.87,0,0,1,2.62-.7,8.41,8.41,0,0,1,4.73.56c.34.15.68.33,1,.48a1.69,1.69,0,0,1,.71.64c.17.29.33.59.49.89l.37.68a4.81,4.81,0,0,0,3,2.4c.65.17,1.3.29,1.95.43l.78.16a4.35,4.35,0,0,1,1.83.89,9.43,9.43,0,0,1,3.46,5.66,5.26,5.26,0,0,1-.17,2.78A5.94,5.94,0,0,1,483.25,520Z"/><path class="cls-3" d="M442.27,534.49c0,.1,0,.2,0,.31a13.86,13.86,0,0,0,1.11,4.57,6,6,0,0,0,2.89,3c.19.09.38.19.57.26.69.28,1.38.54,2.06.83s1.12.49,1.66.77a6.08,6.08,0,0,1,1.71,1.36c.27.3.53.6.79.91a7.23,7.23,0,0,0,4.66,2.53,5.65,5.65,0,0,0,2.48-.25,17.93,17.93,0,0,0,2.64-1.1c.7-.33,1.4-.66,2.11-1a5,5,0,0,1,1.44-.37,3.42,3.42,0,0,1,2,.33c.41.21.81.44,1.2.67a8.47,8.47,0,0,0,2.09.92l.24.07-.17.24a4.8,4.8,0,0,1-2.29,1.54,6.88,6.88,0,0,1-3,.32,11.26,11.26,0,0,0-3.88.29,29.63,29.63,0,0,0-3.18,1.06,13.63,13.63,0,0,1-2,.62,4.25,4.25,0,0,1-1.33.1,3.11,3.11,0,0,1-1.42-.57,4.8,4.8,0,0,1-1.27-1.35c-.26-.41-.51-.83-.77-1.25a7.49,7.49,0,0,0-1.17-1.53,5.87,5.87,0,0,0-2.82-1.5c-.61-.14-1.22-.27-1.84-.36a5.37,5.37,0,0,1-3-1.57,9.9,9.9,0,0,1-2.86-5,5.79,5.79,0,0,1,0-2.65,4.25,4.25,0,0,1,.66-1.49l.6-.81Z"/><path class="cls-3" d="M475.29,546.81c.3,0,.58.06.86.07a6.29,6.29,0,0,0,3.72-1.14,9.93,9.93,0,0,0,3.12-3.42,7.72,7.72,0,0,0,1-2.78,14.25,14.25,0,0,0,.09-2.53,11.15,11.15,0,0,1,.07-2.16,5.3,5.3,0,0,1,.47-1.62l1.07-2.11a8.06,8.06,0,0,0,.68-1.79,4.7,4.7,0,0,0-.35-3.15,6.1,6.1,0,0,0-2.43-2.74l-.14-.09,0,0,1.26-.91.18.15a17.18,17.18,0,0,0,2.73,1.8,8.63,8.63,0,0,1,1.73,1.14,3.36,3.36,0,0,1,1.18,2,4.58,4.58,0,0,1-.05,1.61,17.06,17.06,0,0,1-.87,2.88c-.33.9-.66,1.8-1,2.69a8.51,8.51,0,0,0-.51,2.59c0,.75-.05,1.49-.11,2.24a7.92,7.92,0,0,1-.16,1.19,3.45,3.45,0,0,1-1.15,1.89c-.44.4-.91.77-1.38,1.13-.68.53-1.39,1-2.07,1.58a12.65,12.65,0,0,0-1.19,1.13,11.28,11.28,0,0,1-2,1.69,4.53,4.53,0,0,1-1.63.7,2.7,2.7,0,0,1-1.85-.28,4.47,4.47,0,0,1-1.28-1,.26.26,0,0,1-.07-.24C475.24,547.11,475.26,547,475.29,546.81Z"/><path class="cls-2" d="M451.44,513.49a46.28,46.28,0,0,0,2.38,4.19l-.22-.07a5.07,5.07,0,0,0-2-.36,2.66,2.66,0,0,0-1.07.25,2,2,0,0,0-1.08,2.45,3.41,3.41,0,0,0,.51,1l.17.24-.19.06a7.36,7.36,0,0,0-2.06.88,3.66,3.66,0,0,0-1,1,2,2,0,0,0-.36,1.62,2,2,0,0,0,.6,1,3.87,3.87,0,0,0,1.12.71,9.64,9.64,0,0,0,2.17.63l1.26.22-.21.07a37.35,37.35,0,0,0-5.51,1.49c-.23.09-.47.17-.69.27a.34.34,0,0,1-.34,0,2.31,2.31,0,0,1-1.29-1.54c-.12-.44-.21-.89-.29-1.34a10.93,10.93,0,0,0-1.17-3.51q-.45-.82-.84-1.68a3.39,3.39,0,0,1-.36-1.54,2.17,2.17,0,0,1,1.43-2.06,8,8,0,0,1,1.6-.36c.78-.11,1.56-.2,2.34-.33a5.93,5.93,0,0,0,2.89-1.4c.39-.34.75-.7,1.13-1a8,8,0,0,1,.62-.54C451.07,513.71,451.25,513.62,451.44,513.49Z"/><path class="cls-3" d="M442.61,530.51l-1.33,1c0-.1-.1-.2-.14-.3-.23-.6-.45-1.2-.67-1.81-.09-.24-.18-.48-.26-.72a9,9,0,0,0-1.82-3c-.53-.6-1.08-1.19-1.6-1.8-.33-.39-.63-.81-.93-1.23a2.27,2.27,0,0,1-.39-1,6,6,0,0,1,0-.74,11.06,11.06,0,0,1,.29-2.87,5.67,5.67,0,0,1,2.48-3.52,15.35,15.35,0,0,1,1.87-1c.83-.39,1.67-.76,2.49-1.17a10.25,10.25,0,0,0,2.23-1.47,7.91,7.91,0,0,0,1.5-1.81,4.72,4.72,0,0,1,.44-.63,3,3,0,0,1,2-1.09c.29,0,.58,0,.89-.06a13.86,13.86,0,0,0,.85,4s0,.05,0,.05a6.89,6.89,0,0,0-2,1.52l-.56.53a4.31,4.31,0,0,1-2.6,1.2c-.82.09-1.64.2-2.46.34a7,7,0,0,0-1.25.34,4.36,4.36,0,0,0-2.88,3.16,5.08,5.08,0,0,0,.17,3,12.8,12.8,0,0,0,.77,1.74c.12.23.24.47.37.7a8.84,8.84,0,0,1,1,2.87,16.9,16.9,0,0,0,.39,1.71,4.19,4.19,0,0,0,1.16,1.92Z"/><path class="cls-4" d="M438.56,532.08l.86,1.63-.55.95a.63.63,0,0,1-.19.17,9.64,9.64,0,0,1-3.09,1.38,14.82,14.82,0,0,1-3.62.49,21.74,21.74,0,0,1-7.63-1.21,1.07,1.07,0,0,1-.27-.12A41.11,41.11,0,0,1,438.56,532.08Z"/><path class="cls-4" d="M437.73,529.76A44,44,0,0,0,423.5,533a.51.51,0,0,1,.08-.14,40.5,40.5,0,0,1,3.81-3.83,14.89,14.89,0,0,1,2.91-2,8.44,8.44,0,0,1,2.76-.9,6.35,6.35,0,0,1,2,.06.45.45,0,0,1,.25.12c.48.55,1,1.1,1.44,1.66a5.23,5.23,0,0,1,.89,1.62A1,1,0,0,1,437.73,529.76Z"/><path class="cls-3" d="M460,526.44c.05-.33.09-.67.16-1a1.07,1.07,0,0,1,.43-.62,4.16,4.16,0,0,1,2.28-.82,3.06,3.06,0,0,1,.59.07l.26.07.87.15a2.54,2.54,0,0,1,2.09,2.67,1.73,1.73,0,0,1-.12.51,7.78,7.78,0,0,1-1.65,2.5,3.25,3.25,0,0,1-1.05.71,2,2,0,0,1-1.93-.21,3.49,3.49,0,0,1-1-1A6.13,6.13,0,0,1,460,526.44Z"/><path class="cls-4" d="M439.59,543.31a6.58,6.58,0,0,1-1.18,1.24,9,9,0,0,1-2.83,1.46,15.81,15.81,0,0,1-3.18.68c-.78.08-1.56.13-2.33.2a.51.51,0,0,1-.24,0l.23-.16c1.47-.94,2.92-1.91,4.29-3a21.64,21.64,0,0,0,3.87-3.78l.07-.1c.19.61.34,1.21.56,1.78S439.33,542.72,439.59,543.31Z"/><path class="cls-4" d="M428.21,545a.82.82,0,0,0,.05-.14,15.2,15.2,0,0,1,3.46-4.68c.35-.32.75-.58,1.1-.9a1.35,1.35,0,0,1,.82-.32,15.13,15.13,0,0,0,2.49-.45l.17,0-.18.23a19.07,19.07,0,0,1-2.83,2.78,53.53,53.53,0,0,1-5,3.47Z"/></g><g id="Os"><path class="cls-5" d="M1442.72,388.81l-.31-.08a4.17,4.17,0,0,1-2-1.22,8.69,8.69,0,0,1-1.29-1.72,25.75,25.75,0,0,1-1.55-3.22,17.92,17.92,0,0,0-1.25-2.57,12.88,12.88,0,0,0-4-4,28,28,0,0,0-3.58-1.93c-2.7-1.25-5.34-2.64-8-3.95a63.54,63.54,0,0,0-6.46-2.79c-.72-.25-1.45-.49-2.19-.7a7.37,7.37,0,0,0-2.39-.19,20.35,20.35,0,0,0-4.08.82c-1.08.3-2.17.61-3.29.81a10.42,10.42,0,0,1-2.79.14,7.28,7.28,0,0,1-4.23-1.88,6.73,6.73,0,0,1-2.09-3.24,3.93,3.93,0,0,1-.18-1.13.94.94,0,0,0,0-.16c0-.33,0-.65,0-1a.43.43,0,0,0,0-.16,3.2,3.2,0,0,1,.51-1.41,5.45,5.45,0,0,1,1-1.24c.54-.5,1.1-1,1.67-1.46s1.36-1.1,2-1.66a6.88,6.88,0,0,0,1.16-1.19,3,3,0,0,0,.53-1,4,4,0,0,0,.09-.92,1.17,1.17,0,0,0-.24-.82c-.13-.19-.24-.41-.36-.61a7.15,7.15,0,0,1-.67-1.59,4.54,4.54,0,0,1-.17-1.83,3.88,3.88,0,0,1,.83-1.86,7,7,0,0,1,1.57-1.46,8.5,8.5,0,0,1,3.51-1.46l.64-.09.71,0,.33.09a5.09,5.09,0,0,1,2.93,1.63,10.09,10.09,0,0,1,1.55,2.28c.53,1,.95,2,1.38,3.08a20.89,20.89,0,0,0,1.32,2.79,7.87,7.87,0,0,0,1.56,1.89,9.1,9.1,0,0,0,1.53,1c1.56.87,3.17,1.64,4.8,2.37,2.65,1.2,5.24,2.54,7.83,3.85a59.29,59.29,0,0,0,5.69,2.57,11.34,11.34,0,0,0,2,.6,9.66,9.66,0,0,0,2.08.13,21.14,21.14,0,0,0,4.32-.76c1.1-.28,2.19-.57,3.31-.76a12.49,12.49,0,0,1,3.29-.13,7.47,7.47,0,0,1,6.21,4.89,6,6,0,0,1,.26,1.26,1.29,1.29,0,0,0,.08.26c0,.33,0,.66,0,1a2.31,2.31,0,0,0-.1.28c-.09.27-.15.56-.26.82a5,5,0,0,1-.9,1.34,13.3,13.3,0,0,1-1.55,1.45c-.61.5-1.23,1-1.85,1.48a14.33,14.33,0,0,0-1.47,1.34,4.05,4.05,0,0,0-.73,1,2,2,0,0,0-.22,1.13,1.6,1.6,0,0,1,0,.38.55.55,0,0,0,.1.37c.21.35.43.71.62,1.07a6.31,6.31,0,0,1,.63,1.68,3.93,3.93,0,0,1-1.09,3.83,5.42,5.42,0,0,1-.72.63,10.15,10.15,0,0,1-4.48,1.83l-.79.11Zm-40.66-34-.07.08a7,7,0,0,1-1.55,1.58c-.56.42-1.15.81-1.73,1.21s-.91.6-1.35.93a3.89,3.89,0,0,0-1,1.08.7.7,0,0,0-.12.4,13.61,13.61,0,0,0,.12,1.8,5.55,5.55,0,0,0,.62,1.88,2.92,2.92,0,0,0,1.64,1.35,3.9,3.9,0,0,0,1.48.19,15.94,15.94,0,0,0,2.84-.41c1.27-.29,2.54-.59,3.8-.91a13.57,13.57,0,0,1,6.08-.15,21.68,21.68,0,0,1,3.77,1.1,49.36,49.36,0,0,1,5,2.32c1.69.87,3.38,1.75,5.08,2.59,1.54.76,3.1,1.45,4.64,2.18a34,34,0,0,1,4.75,2.67,6.27,6.27,0,0,1,1.35,1.22,9.06,9.06,0,0,1,1.29,2c.43.94.84,1.89,1.24,2.85s.91,2.12,1.43,3.16a5.51,5.51,0,0,0,.77,1.19,2.2,2.2,0,0,0,2,.76,4.17,4.17,0,0,0,2.36-1.09,3.24,3.24,0,0,0,.94-1.32,2,2,0,0,0-.19-1.86q-.15-.24-.3-.45c-.43-.62-.87-1.23-1.29-1.85a9.77,9.77,0,0,1-1.39-3,6.5,6.5,0,0,1-.15-2.94,8.29,8.29,0,0,1,.92-2.52,1.42,1.42,0,0,1,.25-.34,1.05,1.05,0,0,1,.65-.29,1.56,1.56,0,0,1,1.62,1.8,2.79,2.79,0,0,1-.22.61,4.16,4.16,0,0,0-.21,3.21l.08.2.08-.09a8,8,0,0,1,1.46-1.51,20.06,20.06,0,0,1,1.8-1.26c.47-.31.93-.62,1.37-.95a3.68,3.68,0,0,0,1-1.07.67.67,0,0,0,.12-.39,13.49,13.49,0,0,0-.12-1.8,5.43,5.43,0,0,0-.59-1.84,3,3,0,0,0-1.67-1.4,4.1,4.1,0,0,0-1.48-.19,18,18,0,0,0-2.84.41c-1.22.28-2.44.59-3.66.88a14.34,14.34,0,0,1-2.91.46,14.84,14.84,0,0,1-4-.41,25.2,25.2,0,0,1-4.21-1.44c-1.76-.76-3.45-1.66-5.15-2.55-1.45-.76-2.89-1.55-4.39-2.2-1.25-.54-2.51-1.05-3.76-1.58a25.28,25.28,0,0,1-3.55-1.82,10.69,10.69,0,0,1-3.74-4c-.23-.42-.46-.84-.65-1.27-.47-1-.92-2.07-1.38-3.1a23.32,23.32,0,0,0-1.27-2.43,5.43,5.43,0,0,0-.84-1.07,2,2,0,0,0-1.43-.59,2.61,2.61,0,0,0-1,.19,5.9,5.9,0,0,0-2.18,1.46,3.41,3.41,0,0,0-.51.73,1.6,1.6,0,0,0,0,1.46,4.83,4.83,0,0,0,.26.45l1.6,2.31a9.84,9.84,0,0,1,1.27,2.53,7,7,0,0,1,.37,3.08,7.88,7.88,0,0,1-.73,2.42,5.34,5.34,0,0,1-.3.58,1.1,1.1,0,0,1-1.13.54,1.63,1.63,0,0,1-1.36-1.31,1.57,1.57,0,0,1,.18-1,4.18,4.18,0,0,0,.48-2.38A4.69,4.69,0,0,0,1402.06,354.81Z"/><path class="cls-3" d="M1402.06,354.81a4.69,4.69,0,0,1,.29,1.16,4.18,4.18,0,0,1-.48,2.38,1.57,1.57,0,0,0-.18,1,1.63,1.63,0,0,0,1.36,1.31,1.1,1.1,0,0,0,1.13-.54,5.34,5.34,0,0,0,.3-.58,7.88,7.88,0,0,0,.73-2.42,7,7,0,0,0-.37-3.08,9.84,9.84,0,0,0-1.27-2.53l-1.6-2.31a4.83,4.83,0,0,1-.26-.45,1.6,1.6,0,0,1,0-1.46,3.41,3.41,0,0,1,.51-.73,5.9,5.9,0,0,1,2.18-1.46,2.61,2.61,0,0,1,1-.19,2,2,0,0,1,1.43.59,5.43,5.43,0,0,1,.84,1.07,23.32,23.32,0,0,1,1.27,2.43c.46,1,.91,2.07,1.38,3.1.19.43.42.85.65,1.27a10.69,10.69,0,0,0,3.74,4,25.28,25.28,0,0,0,3.55,1.82c1.25.53,2.51,1,3.76,1.58,1.5.65,2.94,1.44,4.39,2.2,1.7.89,3.39,1.79,5.15,2.55a25.2,25.2,0,0,0,4.21,1.44,14.84,14.84,0,0,0,4,.41,14.34,14.34,0,0,0,2.91-.46c1.22-.29,2.44-.6,3.66-.88a18,18,0,0,1,2.84-.41,4.1,4.1,0,0,1,1.48.19,3,3,0,0,1,1.67,1.4,5.43,5.43,0,0,1,.59,1.84,13.49,13.49,0,0,1,.12,1.8.67.67,0,0,1-.12.39,3.68,3.68,0,0,1-1,1.07c-.44.33-.9.64-1.37.95a20.06,20.06,0,0,0-1.8,1.26,8,8,0,0,0-1.46,1.51l-.08.09-.08-.2a4.16,4.16,0,0,1,.21-3.21,2.79,2.79,0,0,0,.22-.61,1.56,1.56,0,0,0-1.62-1.8,1.05,1.05,0,0,0-.65.29,1.42,1.42,0,0,0-.25.34,8.29,8.29,0,0,0-.92,2.52,6.5,6.5,0,0,0,.15,2.94,9.77,9.77,0,0,0,1.39,3c.42.62.86,1.23,1.29,1.85q.15.21.3.45a2,2,0,0,1,.19,1.86,3.24,3.24,0,0,1-.94,1.32,4.17,4.17,0,0,1-2.36,1.09,2.2,2.2,0,0,1-2-.76,5.51,5.51,0,0,1-.77-1.19c-.52-1-1-2.09-1.43-3.16s-.81-1.91-1.24-2.85a9.06,9.06,0,0,0-1.29-2,6.27,6.27,0,0,0-1.35-1.22,34,34,0,0,0-4.75-2.67c-1.54-.73-3.1-1.42-4.64-2.18-1.7-.84-3.39-1.72-5.08-2.59a49.36,49.36,0,0,0-5-2.32,21.68,21.68,0,0,0-3.77-1.1,13.57,13.57,0,0,0-6.08.15c-1.26.32-2.53.62-3.8.91a15.94,15.94,0,0,1-2.84.41,3.9,3.9,0,0,1-1.48-.19,2.92,2.92,0,0,1-1.64-1.35,5.55,5.55,0,0,1-.62-1.88,13.61,13.61,0,0,1-.12-1.8.7.7,0,0,1,.12-.4,3.89,3.89,0,0,1,1-1.08c.44-.33.9-.62,1.35-.93s1.17-.79,1.73-1.21a7,7,0,0,0,1.55-1.58Z"/></g><g id="Vinyl"><path class="cls-5" d="M1134.57,450.07l-1.35-.13-3.82-.38-6.71-.67-11.46-1.16-3.09-.31a5.33,5.33,0,0,1-1.47-.34,3.65,3.65,0,0,1-1.93-1.74,5.65,5.65,0,0,1-.59-2.12,10.47,10.47,0,0,1,0-1.77c.05-.77.09-1.54.14-2.31,0-.11,0-.23,0-.37a4.13,4.13,0,0,0-.45-.17l-5.36-1.65a6.57,6.57,0,0,1-1.13-.47,3.78,3.78,0,0,1-2.11-3.22,7.71,7.71,0,0,1,.19-2.39,31.7,31.7,0,0,1,.87-3.07c.79-2.59,1.59-5.17,2.39-7.76s1.59-5.2,2.39-7.8c.89-2.92,1.79-5.83,2.69-8.75l2.68-8.74q.63-2,1.23-4.05a2.94,2.94,0,0,0,.13-.67c.2-2.67.39-5.33.58-8s.37-5.2.56-7.8l.57-7.9.27-3.88c.07-.93.12-1.87.19-2.8a7.87,7.87,0,0,1,.53-2.29,4.43,4.43,0,0,1,.2-.45,4,4,0,0,1,3.65-2.25c.79,0,1.58.08,2.36.13l1.52.11h.42c0-.15.11-.28.15-.42l1.29-4.18a12,12,0,0,1,.91-2.23,5.57,5.57,0,0,1,.94-1.32,3.83,3.83,0,0,1,3-1.18,8,8,0,0,1,2.11.45l10.76,3.3,12.5,3.85,12.23,3.75,4.65,1.42a3,3,0,0,0,.73.12c2.47.19,4.94.36,7.41.54l6.67.5,8,.58,7.9.57,2.94.22a4.67,4.67,0,0,1,1.43.34,4.55,4.55,0,0,1,2.56,2.39,7,7,0,0,1,.62,2.67,22.63,22.63,0,0,1-.1,2.85c0,.29,0,.58-.06.9l.27.12,4.65,1.43a8.16,8.16,0,0,1,1.11.41,4.77,4.77,0,0,1,2.86,4.21,8.35,8.35,0,0,1-.36,3.06c-.51,1.75-1,3.48-1.59,5.22q-1.34,4.35-2.66,8.7c-.7,2.27-1.39,4.55-2.1,6.81a.74.74,0,0,0,.11.73,44,44,0,0,1,7.24,20,45,45,0,0,1,.2,6.14,39.76,39.76,0,0,1-.63,6A44.14,44.14,0,0,1,1176.65,469a44.24,44.24,0,0,1-6,.36,42.32,42.32,0,0,1-5.16-.35,44,44,0,0,1-30.64-18.48C1134.78,450.37,1134.68,450.24,1134.57,450.07Zm65.47-58c0-.2,0-.34.06-.48.12-1.64.23-3.27.35-4.91.16-2.24.33-4.48.49-6.72q.36-5,.71-10c.07-1.05.15-2.1.19-3.15a4.22,4.22,0,0,0-.11-1.17,1.31,1.31,0,0,0-1.38-1.2c-1.08-.06-2.16-.15-3.24-.23l-7.95-.57-8-.58-8.05-.59-7.9-.56-8-.58-8-.58-8-.58-7.9-.57-10.2-.75-8.15-.59-.34,0a.6.6,0,0,0-.67.46c0,.13-.09.25-.11.38-.08.53-.17,1.07-.23,1.6s-.06.85-.09,1.28l-.57,8c-.19,2.66-.39,5.33-.58,8s-.39,5.33-.58,8l-.57,7.95q-.3,4-.58,8.05c-.2,2.66-.39,5.33-.58,8s-.39,5.3-.58,7.95l-.54,7.41q-.3,4.28-.61,8.54c-.16,2.18-.33,4.35-.48,6.53a14.9,14.9,0,0,0-.06,2.41,2.94,2.94,0,0,0,.1.58.5.5,0,0,0,.46.38l.49.05,3.29.24,6.72.49,10,.71,2.75.21c.09,0,.18,0,.29,0a44.16,44.16,0,0,1,9.24-52.51q.64-.6,1.32-1.17c.46-.4.93-.78,1.41-1.16s.94-.72,1.42-1.06,1-.7,1.5-1,1-.64,1.49-.94,1-.62,1.58-.91,1-.56,1.57-.83,1.09-.53,1.64-.78,1.09-.47,1.63-.68,1.13-.45,1.71-.65,1.11-.38,1.68-.56,1.16-.34,1.74-.5,1.15-.29,1.72-.42,1.19-.25,1.79-.36,1.16-.19,1.75-.27,1.2-.16,1.8-.21,1.18-.1,1.77-.14,1.18-.06,1.77-.07l1.82,0c.59,0,1.18,0,1.76.08s1.21.1,1.82.16,1.17.13,1.76.22,1.19.19,1.79.31,1.16.23,1.73.37,1.18.28,1.76.45,1.14.33,1.7.51,1.15.38,1.72.58,1.1.42,1.65.65,1.11.47,1.66.73,1.07.5,1.6.77,1.07.56,1.6.86,1,.59,1.52.91,1,.64,1.53,1,1,.67,1.45,1,1,.74,1.44,1.11S1199.52,391.69,1200,392.06Zm-27.73,19.28a14,14,0,1,0,12.6,15.22A14,14,0,0,0,1172.31,411.34Zm-49.9-56.19a2.15,2.15,0,0,0,.79.1l8,.58,6.67.5,10,.71,2.74.2c.07,0,.17,0,.19-.09l-.51-.17L1139,353.51l-13.21-4.05c-.25-.08-.5-.14-.76-.21a.61.61,0,0,0-.72.29,2.82,2.82,0,0,0-.18.29,8.25,8.25,0,0,0-.37.86c-.44,1.37-.87,2.75-1.3,4.12C1122.46,354.92,1122.44,355,1122.41,355.15Zm81.78,77.18a24.59,24.59,0,0,0,0-4.62c0-.57-.12-1.14-.22-1.71a1.36,1.36,0,0,0-1.43-1.15,1.85,1.85,0,0,0-.76.19,1.41,1.41,0,0,0-.79,1.41,4,4,0,0,0,.07.48,20,20,0,0,1,.17,3.78,24.17,24.17,0,0,1-.75,5,23.05,23.05,0,0,1-3,6.82,16.83,16.83,0,0,1-4.84,5,14.48,14.48,0,0,1-1.84,1,1.34,1.34,0,0,0-.8,1.3,1.6,1.6,0,0,0,.89,1.44,1.11,1.11,0,0,0,.76.12,4.22,4.22,0,0,0,.6-.2,16.92,16.92,0,0,0,2.62-1.56,20.17,20.17,0,0,0,5.14-5.44A26.62,26.62,0,0,0,1204.19,432.33Zm-66.21-14a22.6,22.6,0,0,0,.15,4.87,5,5,0,0,0,.13.77,1.21,1.21,0,0,0,.82.91,1.63,1.63,0,0,0,1.38-.11,1.37,1.37,0,0,0,.72-.95,1.87,1.87,0,0,0,0-.78,21.21,21.21,0,0,1-.09-5.34,23.19,23.19,0,0,1,.89-4.43,22.43,22.43,0,0,1,3.1-6.49,16,16,0,0,1,6.23-5.43l.09-.05a1.36,1.36,0,0,0,.78-1.45,1.53,1.53,0,0,0-1.39-1.42,1.91,1.91,0,0,0-.85.21,17.44,17.44,0,0,0-3.74,2.44,21,21,0,0,0-4.68,5.65A27.61,27.61,0,0,0,1138,418.33ZM1106.56,407h-.08c0,.15-.11.31-.15.46-.37,1.18-.73,2.35-1.09,3.53-.84,2.75-1.69,5.51-2.53,8.27s-1.69,5.48-2.53,8.22c-.4,1.3-.8,2.6-1.17,3.91a5.83,5.83,0,0,0-.21,1.25c0,.5.1.63.56.8l.24.08,4.65,1.43c.09,0,.18.07.3,0s0-.36,0-.55c.15-2.08.29-4.16.44-6.23q.27-3.66.53-7.31l.6-8.39c.12-1.69.24-3.37.37-5.06C1106.55,407.25,1106.55,407.12,1106.56,407Zm98.09-10.2c.08-.22.13-.36.17-.5q1-3.15,1.93-6.29l3.51-11.42a6.42,6.42,0,0,0,.33-1.84,1.44,1.44,0,0,0-1.14-1.61c-1.34-.39-2.67-.81-4-1.22-.12,0-.25-.05-.37-.08a1,1,0,0,0-.1.5c-.06.77-.11,1.54-.16,2.31-.18,2.48-.37,5-.54,7.45-.22,3-.43,6-.65,9-.05.69-.11,1.38-.16,2.06a.52.52,0,0,0,.08.42Zm-58.14,22.86a18.71,18.71,0,0,0-.07,2.69c0,.65.1,1.31.2,2a1.34,1.34,0,0,0,1.47,1.17,1.46,1.46,0,0,0,1.51-1.48,2.58,2.58,0,0,0,0-.39,15.69,15.69,0,0,1-.1-3.14,16.7,16.7,0,0,1,.64-3.58,15,15,0,0,1,2.56-5.11,10.8,10.8,0,0,1,3.86-3.21,1.78,1.78,0,0,0,.3-.17,1.23,1.23,0,0,0,.57-.77,1.58,1.58,0,0,0-.51-1.65,1.31,1.31,0,0,0-1.55-.19c-.31.14-.62.3-.92.47a14.5,14.5,0,0,0-4.8,4.58A19.31,19.31,0,0,0,1146.51,419.65Zm46.21,10.43c-.09.46-.2,1.15-.34,1.84a15.85,15.85,0,0,1-1.61,4.32,12.56,12.56,0,0,1-3.4,4,10.69,10.69,0,0,1-1.77,1.07,1.38,1.38,0,0,0-.82,1.44,1.53,1.53,0,0,0,1.47,1.45,1.4,1.4,0,0,0,.7-.18c.45-.24.91-.47,1.34-.74a14.78,14.78,0,0,0,4.52-4.59,19.08,19.08,0,0,0,2.62-6.58,18.69,18.69,0,0,0,.31-5.48,8.33,8.33,0,0,0-.17-1.22,1.26,1.26,0,0,0-1.11-1,1.63,1.63,0,0,0-1.3.31,1.32,1.32,0,0,0-.54,1.16,3.42,3.42,0,0,0,0,.44A16.7,16.7,0,0,1,1192.72,430.08Z"/><path class="cls-4" d="M1200,392.06c-.52-.37-.94-.78-1.4-1.13s-1-.75-1.44-1.11-1-.7-1.45-1-1-.67-1.53-1-1-.62-1.52-.91-1.06-.59-1.6-.86-1.06-.53-1.6-.77-1.1-.5-1.66-.73-1.09-.44-1.65-.65-1.15-.4-1.72-.58-1.13-.36-1.7-.51-1.17-.31-1.76-.45-1.15-.26-1.73-.37-1.19-.22-1.79-.31-1.18-.15-1.76-.22-1.21-.12-1.82-.16-1.17-.07-1.76-.08l-1.82,0c-.59,0-1.18,0-1.77.07s-1.18.08-1.77.14-1.2.13-1.8.21-1.17.17-1.75.27-1.2.23-1.79.36-1.15.27-1.72.42-1.17.32-1.74.5-1.13.36-1.68.56-1.14.42-1.71.65-1.09.44-1.63.68-1.1.51-1.64.78-1,.54-1.57.83-1.06.59-1.58.91-1,.62-1.49.94-1,.68-1.5,1-1,.7-1.42,1.06-1,.76-1.41,1.16-.89.77-1.32,1.17a44.16,44.16,0,0,0-9.24,52.51c-.11,0-.2,0-.29,0l-2.75-.21-10-.71-6.72-.49-3.29-.24-.49-.05a.5.5,0,0,1-.46-.38,2.94,2.94,0,0,1-.1-.58,14.9,14.9,0,0,1,.06-2.41c.15-2.18.32-4.35.48-6.53q.32-4.26.61-8.54l.54-7.41q.28-4,.58-7.95c.19-2.66.38-5.33.58-8s.38-5.37.58-8.05l.57-7.95c.19-2.67.39-5.34.58-8s.39-5.34.58-8l.57-8c0-.43,0-.85.09-1.28s.15-1.07.23-1.6c0-.13.08-.25.11-.38a.6.6,0,0,1,.67-.46l.34,0,8.15.59,10.2.75,7.9.57,8,.58,8,.58,8,.58,7.9.56,8.05.59,8,.58,7.95.57c1.08.08,2.16.17,3.24.23a1.31,1.31,0,0,1,1.38,1.2,4.22,4.22,0,0,1,.11,1.17c0,1.05-.12,2.1-.19,3.15q-.35,5-.71,10c-.16,2.24-.33,4.48-.49,6.72-.12,1.64-.23,3.27-.35,4.91C1200.09,391.72,1200.07,391.86,1200,392.06Zm-72.07,3a.9.9,0,0,0,.74-.25,1.6,1.6,0,0,0,.54-1.11,29.21,29.21,0,0,1,.39-3.37,8.46,8.46,0,0,1,.49-1.7,3.09,3.09,0,0,1,2.14-1.88,10,10,0,0,1,1.35-.24,18.73,18.73,0,0,1,2.7-.05c.46,0,.92.05,1.38.05a1.15,1.15,0,0,0,1.1-1.06,1.14,1.14,0,0,0-.87-1.21,3.71,3.71,0,0,0-.48-.05c-1-.1-2-.17-3-.3a10.82,10.82,0,0,1-1.58-.33,2.86,2.86,0,0,1-2.16-2.31c0-.16-.07-.32-.09-.48a10.21,10.21,0,0,1-.11-1.91c0-.82.07-1.64.11-2.46a3.25,3.25,0,0,0,0-.54,1.15,1.15,0,0,0-1-1,1.13,1.13,0,0,0-1.21.64,1.9,1.9,0,0,0-.14.57c0,.52-.1,1.05-.14,1.57a18.39,18.39,0,0,1-.33,2.19,6.76,6.76,0,0,1-.53,1.57,3,3,0,0,1-1.77,1.55,6.68,6.68,0,0,1-1.09.27,15.41,15.41,0,0,1-2.8.12c-.55,0-1.11-.05-1.67-.06a1.15,1.15,0,0,0-.33,2.27,2.6,2.6,0,0,0,.39.05l1.77.13a17.23,17.23,0,0,1,2.24.31,5.5,5.5,0,0,1,1.35.45,2.61,2.61,0,0,1,1.27,1.37,5.07,5.07,0,0,1,.35,1.43,16.68,16.68,0,0,1,.06,2.45c0,.63,0,1.25-.11,1.87a1.49,1.49,0,0,0,.53,1.21A.72.72,0,0,0,1128,395.05Zm13.45-21h0c.35,0,.69.05,1,.11a10.66,10.66,0,0,1,1.24.3,1.63,1.63,0,0,1,1.08,1.19,3.1,3.1,0,0,1,.1.53,9.13,9.13,0,0,1,0,1.81c0,.36-.06.72-.08,1.08a1.21,1.21,0,0,0,.41,1.06.9.9,0,0,0,1,.18,1.2,1.2,0,0,0,.76-.95c0-.13,0-.26,0-.39.06-.55.11-1.11.2-1.66a7.16,7.16,0,0,1,.32-1.23,1.94,1.94,0,0,1,1.5-1.3,3.76,3.76,0,0,1,.82-.11c.72,0,1.44,0,2.16,0,.15,0,.3,0,.44,0a1.08,1.08,0,0,0,.16-2.15c-.16,0-.33,0-.49-.05-.57,0-1.14-.09-1.71-.17a8.62,8.62,0,0,1-1.24-.3,1.62,1.62,0,0,1-1.12-1.26,3.8,3.8,0,0,1-.12-.88c0-.59,0-1.18,0-1.77,0-.31.06-.62,0-.93a1.08,1.08,0,0,0-2.09-.33,2.38,2.38,0,0,0-.11.53c-.07.57-.12,1.14-.2,1.71a5.34,5.34,0,0,1-.4,1.47,1.93,1.93,0,0,1-1.31,1.1,3.6,3.6,0,0,1-.92.14c-.73,0-1.47,0-2.21,0-.15,0-.29,0-.44,0a1.07,1.07,0,0,0-1,.86,1,1,0,0,0,.61,1.21,1.79,1.79,0,0,0,.47.11Z"/><path class="cls-3" d="M1172.31,411.34a14,14,0,1,1-15.22,12.58A14,14,0,0,1,1172.31,411.34ZM1168,425.73a2.85,2.85,0,0,0,2.36,3.24,2.76,2.76,0,0,0,3.3-1.89,3.53,3.53,0,0,0,.19-1.16,2.91,2.91,0,0,0-5.63-1.05A8.33,8.33,0,0,0,1168,425.73Z"/><path class="cls-2" d="M1122.41,355.15c0-.12,0-.23.08-.34.43-1.37.86-2.75,1.3-4.12a8.25,8.25,0,0,1,.37-.86,2.82,2.82,0,0,1,.18-.29.61.61,0,0,1,.72-.29c.26.07.51.13.76.21l13.21,4.05,11.28,3.47.51.17c0,.12-.12.09-.19.09l-2.74-.2-10-.71-6.67-.5-8-.58A2.15,2.15,0,0,1,1122.41,355.15Z"/><path class="cls-3" d="M1204.19,432.33a26.62,26.62,0,0,1-4.12,11.86,20.17,20.17,0,0,1-5.14,5.44,16.92,16.92,0,0,1-2.62,1.56,4.22,4.22,0,0,1-.6.2,1.11,1.11,0,0,1-.76-.12,1.6,1.6,0,0,1-.89-1.44,1.34,1.34,0,0,1,.8-1.3,14.48,14.48,0,0,0,1.84-1,16.83,16.83,0,0,0,4.84-5,23.05,23.05,0,0,0,3-6.82,24.17,24.17,0,0,0,.75-5,20,20,0,0,0-.17-3.78,4,4,0,0,1-.07-.48,1.41,1.41,0,0,1,.79-1.41,1.85,1.85,0,0,1,.76-.19A1.36,1.36,0,0,1,1204,426c.1.57.17,1.14.22,1.71A24.59,24.59,0,0,1,1204.19,432.33Z"/><path class="cls-3" d="M1138,418.33a27.61,27.61,0,0,1,3.52-11.6,21,21,0,0,1,4.68-5.65,17.44,17.44,0,0,1,3.74-2.44,1.91,1.91,0,0,1,.85-.21,1.53,1.53,0,0,1,1.39,1.42,1.36,1.36,0,0,1-.78,1.45l-.09.05a16,16,0,0,0-6.23,5.43,22.43,22.43,0,0,0-3.1,6.49,23.19,23.19,0,0,0-.89,4.43,21.21,21.21,0,0,0,.09,5.34,1.87,1.87,0,0,1,0,.78,1.37,1.37,0,0,1-.72.95,1.63,1.63,0,0,1-1.38.11,1.21,1.21,0,0,1-.82-.91,5,5,0,0,1-.13-.77A22.6,22.6,0,0,1,1138,418.33Z"/><path class="cls-2" d="M1106.56,407c0,.13,0,.26,0,.38-.13,1.69-.25,3.37-.37,5.06l-.6,8.39q-.25,3.65-.53,7.31c-.15,2.07-.29,4.15-.44,6.23,0,.19,0,.38,0,.55s-.21,0-.3,0l-4.65-1.43-.24-.08c-.46-.17-.58-.3-.56-.8a5.83,5.83,0,0,1,.21-1.25c.37-1.31.77-2.61,1.17-3.91q1.26-4.11,2.53-8.22c.84-2.76,1.69-5.52,2.53-8.27.36-1.18.72-2.35,1.09-3.53,0-.15.1-.31.15-.46Z"/><path class="cls-2" d="M1204.65,396.79l-1.1-1.24a.52.52,0,0,1-.08-.42c0-.68.11-1.37.16-2.06.22-3,.43-6,.65-9,.17-2.48.36-5,.54-7.45,0-.77.1-1.54.16-2.31a1,1,0,0,1,.1-.5c.12,0,.25,0,.37.08,1.33.41,2.66.83,4,1.22a1.44,1.44,0,0,1,1.14,1.61,6.42,6.42,0,0,1-.33,1.84L1206.75,390q-1,3.13-1.93,6.29C1204.78,396.43,1204.73,396.57,1204.65,396.79Z"/><path class="cls-3" d="M1146.51,419.65a19.31,19.31,0,0,1,3.12-8.83,14.5,14.5,0,0,1,4.8-4.58c.3-.17.61-.33.92-.47a1.31,1.31,0,0,1,1.55.19,1.58,1.58,0,0,1,.51,1.65,1.23,1.23,0,0,1-.57.77,1.78,1.78,0,0,1-.3.17,10.8,10.8,0,0,0-3.86,3.21,15,15,0,0,0-2.56,5.11,16.7,16.7,0,0,0-.64,3.58,15.69,15.69,0,0,0,.1,3.14,2.58,2.58,0,0,1,0,.39,1.46,1.46,0,0,1-1.51,1.48,1.34,1.34,0,0,1-1.47-1.17c-.1-.64-.16-1.3-.2-2A18.71,18.71,0,0,1,1146.51,419.65Z"/><path class="cls-3" d="M1192.72,430.08a16.7,16.7,0,0,0-.06-3.77,3.42,3.42,0,0,1,0-.44,1.32,1.32,0,0,1,.54-1.16,1.63,1.63,0,0,1,1.3-.31,1.26,1.26,0,0,1,1.11,1,8.33,8.33,0,0,1,.17,1.22,18.69,18.69,0,0,1-.31,5.48,19.08,19.08,0,0,1-2.62,6.58,14.78,14.78,0,0,1-4.52,4.59c-.43.27-.89.5-1.34.74a1.4,1.4,0,0,1-.7.18,1.53,1.53,0,0,1-1.47-1.45,1.38,1.38,0,0,1,.82-1.44,10.69,10.69,0,0,0,1.77-1.07,12.56,12.56,0,0,0,3.4-4,15.85,15.85,0,0,0,1.61-4.32C1192.52,431.23,1192.63,430.54,1192.72,430.08Z"/><path class="cls-5" d="M1128,395.05a.72.72,0,0,1-.52-.22,1.49,1.49,0,0,1-.53-1.21c.06-.62.08-1.24.11-1.87a16.68,16.68,0,0,0-.06-2.45,5.07,5.07,0,0,0-.35-1.43,2.61,2.61,0,0,0-1.27-1.37,5.5,5.5,0,0,0-1.35-.45,17.23,17.23,0,0,0-2.24-.31l-1.77-.13a2.6,2.6,0,0,1-.39-.05,1.15,1.15,0,0,1,.33-2.27c.56,0,1.12,0,1.67.06a15.41,15.41,0,0,0,2.8-.12,6.68,6.68,0,0,0,1.09-.27,3,3,0,0,0,1.77-1.55,6.76,6.76,0,0,0,.53-1.57,18.39,18.39,0,0,0,.33-2.19c0-.52.09-1,.14-1.57a1.9,1.9,0,0,1,.14-.57,1.13,1.13,0,0,1,1.21-.64,1.15,1.15,0,0,1,1,1,3.25,3.25,0,0,1,0,.54c0,.82-.09,1.64-.11,2.46a10.21,10.21,0,0,0,.11,1.91c0,.16.06.32.09.48a2.86,2.86,0,0,0,2.16,2.31,10.82,10.82,0,0,0,1.58.33c1,.13,2,.2,3,.3a3.71,3.71,0,0,1,.48.05,1.14,1.14,0,0,1,.87,1.21,1.15,1.15,0,0,1-1.1,1.06c-.46,0-.92,0-1.38-.05a18.73,18.73,0,0,0-2.7.05,10,10,0,0,0-1.35.24,3.09,3.09,0,0,0-2.14,1.88,8.46,8.46,0,0,0-.49,1.7,29.21,29.21,0,0,0-.39,3.37,1.6,1.6,0,0,1-.54,1.11A.9.9,0,0,1,1128,395.05Z"/><path class="cls-5" d="M1141.42,374l-1-.09a1.79,1.79,0,0,1-.47-.11,1,1,0,0,1-.61-1.21,1.07,1.07,0,0,1,1-.86c.15,0,.29,0,.44,0,.74,0,1.48,0,2.21,0a3.6,3.6,0,0,0,.92-.14,1.93,1.93,0,0,0,1.31-1.1,5.34,5.34,0,0,0,.4-1.47c.08-.57.13-1.14.2-1.71a2.38,2.38,0,0,1,.11-.53,1.08,1.08,0,0,1,2.09.33c0,.31,0,.62,0,.93,0,.59,0,1.18,0,1.77a3.8,3.8,0,0,0,.12.88,1.62,1.62,0,0,0,1.12,1.26,8.62,8.62,0,0,0,1.24.3c.57.08,1.14.12,1.71.17.16,0,.33,0,.49.05a1.08,1.08,0,0,1-.16,2.15c-.14,0-.29,0-.44,0-.72,0-1.44,0-2.16,0a3.76,3.76,0,0,0-.82.11,1.94,1.94,0,0,0-1.5,1.3,7.16,7.16,0,0,0-.32,1.23c-.09.55-.14,1.11-.2,1.66,0,.13,0,.26,0,.39a1.2,1.2,0,0,1-.76.95.9.9,0,0,1-1-.18,1.21,1.21,0,0,1-.41-1.06c0-.36,0-.72.08-1.08a9.13,9.13,0,0,0,0-1.81,3.1,3.1,0,0,0-.1-.53,1.63,1.63,0,0,0-1.08-1.19,10.66,10.66,0,0,0-1.24-.3c-.34-.06-.68-.07-1-.11Z"/><path class="cls-5" d="M1168,425.73a8.33,8.33,0,0,1,.22-.86,2.91,2.91,0,0,1,5.63,1.05,3.53,3.53,0,0,1-.19,1.16,2.76,2.76,0,0,1-3.3,1.89A2.85,2.85,0,0,1,1168,425.73Z"/></g><g id="Dent"><path class="cls-5" d="M445.48,237.72l1,0,.06,0c.4.08.8.12,1.19.22a9.47,9.47,0,0,1,2.82,1.42c.58.4,1.14.81,1.73,1.19a5,5,0,0,0,2.19.87c.65.07,1.31.14,2,.16a14.66,14.66,0,0,1,2.56.3,6.17,6.17,0,0,1,3.09,1.62,5.4,5.4,0,0,1,1.61,3.58,10.32,10.32,0,0,1-.23,2.77,7.4,7.4,0,0,1-1.6,3.35c-.72.83-1.48,1.62-2.2,2.43-.35.39-.68.8-1,1.21a.48.48,0,0,0-.07.18q-.51,3.28-1.29,6.51a14.75,14.75,0,0,1-1.89,4.59,10.84,10.84,0,0,1-3.27,3.37,7.58,7.58,0,0,1-2.74,1.09c-.18,0-.35.05-.52.08h-.24l-.11,0a3.22,3.22,0,0,1-1-.18,1.68,1.68,0,0,1-.94-2.47,30.82,30.82,0,0,0,2-4.19,3.47,3.47,0,0,0,.19-.6,24.36,24.36,0,0,0,.36-3.4,7,7,0,0,0-.12-1.58,1.53,1.53,0,0,0-2.23-1,6.21,6.21,0,0,0-1.29,1.11,23.24,23.24,0,0,0-2.13,2.9,22.23,22.23,0,0,0-2.38,5.2,1.64,1.64,0,0,1-.86,1.09,1.62,1.62,0,0,1-1.76-.22,3.41,3.41,0,0,1-1-1.32,8.59,8.59,0,0,1-.79-2.85l-.06-.45c0-.46,0-.92,0-1.38,0,0,0-.05,0-.08a16.92,16.92,0,0,1,.42-3.24,22.43,22.43,0,0,1,1.05-3.22c.43-1.11.89-2.21,1.3-3.32a11.64,11.64,0,0,0,.5-1.72,9.46,9.46,0,0,0,.07-2.38c0-.55-.1-1.1-.14-1.64a20.86,20.86,0,0,1,0-2.74,9.25,9.25,0,0,1,.39-2.15,8.17,8.17,0,0,1,2.06-3.46,5.6,5.6,0,0,1,2.85-1.55Zm-6.28,27.86h0l0-.12c.21-.45.41-.92.63-1.37a26.83,26.83,0,0,1,3.25-5,8.53,8.53,0,0,1,2-1.89,4.28,4.28,0,0,1,2.24-.72,4,4,0,0,1,1.69.38,3.77,3.77,0,0,1,2.37,2.8,10.12,10.12,0,0,1,.15,2.85c-.06.8-.15,1.6-.24,2.4a7.32,7.32,0,0,1-.27,1.38,33.8,33.8,0,0,1-1.5,3.5,1.39,1.39,0,0,1-.06.13l.09,0a5.6,5.6,0,0,0,1.6-.9,9.76,9.76,0,0,0,2.71-3.62,13.75,13.75,0,0,0,.84-2.54c.42-1.69.75-3.39,1-5.1l.18-1.12H456a9.93,9.93,0,0,1-3.12.23,1.15,1.15,0,1,1,.2-2.3,7,7,0,0,0,2.72-.26,7.32,7.32,0,0,0,2.79-1.62c.54-.49,1.05-1,1.57-1.55a1.73,1.73,0,0,0,.26-.28,5.29,5.29,0,0,0,.51-1.26,9.67,9.67,0,0,0,.24-2,3.08,3.08,0,0,0-.43-1.66,3.56,3.56,0,0,0-3.49-1.48,6.4,6.4,0,0,0-1.7.61c-.73.36-1.45.74-2.18,1.08a8.07,8.07,0,0,1-3.55.79,8.69,8.69,0,0,1-2.43-.39,1.15,1.15,0,0,1-.62-1.76,1.17,1.17,0,0,1,1.29-.45,6.32,6.32,0,0,0,1.93.29,5.75,5.75,0,0,0,2-.41l.95-.41a.28.28,0,0,0-.11-.07c-.22-.08-.44-.16-.65-.26a14.51,14.51,0,0,1-2.82-1.73,8,8,0,0,0-2-1.16,3.12,3.12,0,0,0-3,.34,4,4,0,0,0-1.21,1.35,6.48,6.48,0,0,0-.88,2.81,18.74,18.74,0,0,0,0,3.35.89.89,0,0,0,.07.28,5.44,5.44,0,0,0,1.24,1.73,9.12,9.12,0,0,0,1.81,1.34,1.15,1.15,0,0,1-1.15,2,12.41,12.41,0,0,1-1.55-1.05l-.46-.38a.08.08,0,0,1,0,.06,17.4,17.4,0,0,1-.95,3c-.49,1.27-1,2.53-1.47,3.82a12.51,12.51,0,0,0-.68,5.85C439.13,265.18,439.17,265.38,439.2,265.58Z"/><path class="cls-3" d="M439.2,265.58c0-.2-.07-.4-.09-.6a12.51,12.51,0,0,1,.68-5.85c.45-1.29,1-2.55,1.47-3.82a17.4,17.4,0,0,0,.95-3,.08.08,0,0,0,0-.06l.46.38a12.41,12.41,0,0,0,1.55,1.05,1.15,1.15,0,0,0,1.15-2,9.12,9.12,0,0,1-1.81-1.34,5.44,5.44,0,0,1-1.24-1.73.89.89,0,0,1-.07-.28,18.74,18.74,0,0,1,0-3.35,6.48,6.48,0,0,1,.88-2.81,4,4,0,0,1,1.21-1.35,3.12,3.12,0,0,1,3-.34,8,8,0,0,1,2,1.16,14.51,14.51,0,0,0,2.82,1.73c.21.1.43.18.65.26a.28.28,0,0,1,.11.07l-.95.41a5.75,5.75,0,0,1-2,.41,6.32,6.32,0,0,1-1.93-.29,1.17,1.17,0,0,0-1.29.45,1.15,1.15,0,0,0,.62,1.76,8.69,8.69,0,0,0,2.43.39,8.07,8.07,0,0,0,3.55-.79c.73-.34,1.45-.72,2.18-1.08a6.4,6.4,0,0,1,1.7-.61,3.56,3.56,0,0,1,3.49,1.48,3.08,3.08,0,0,1,.43,1.66,9.67,9.67,0,0,1-.24,2,5.29,5.29,0,0,1-.51,1.26,1.73,1.73,0,0,1-.26.28c-.52.52-1,1.06-1.57,1.55a7.32,7.32,0,0,1-2.79,1.62,7,7,0,0,1-2.72.26,1.15,1.15,0,1,0-.2,2.3,9.93,9.93,0,0,0,3.12-.23H456l-.18,1.12c-.29,1.71-.62,3.41-1,5.1a13.75,13.75,0,0,1-.84,2.54,9.76,9.76,0,0,1-2.71,3.62,5.6,5.6,0,0,1-1.6.9l-.09,0a1.39,1.39,0,0,0,.06-.13,33.8,33.8,0,0,0,1.5-3.5,7.32,7.32,0,0,0,.27-1.38c.09-.8.18-1.6.24-2.4a10.12,10.12,0,0,0-.15-2.85,3.77,3.77,0,0,0-2.37-2.8,4,4,0,0,0-1.69-.38,4.28,4.28,0,0,0-2.24.72,8.53,8.53,0,0,0-2,1.89,26.83,26.83,0,0,0-3.25,5c-.22.45-.42.92-.63,1.37l0,.12Z"/></g><g id="Crayon"><path class="cls-5" d="M669.14,113.87a6.24,6.24,0,0,1,3.24-2.23c.19-.06.38-.1.57-.14l.3-.06.7,0a.5.5,0,0,1,.13,0,4.18,4.18,0,0,1,1.4.35,6.67,6.67,0,0,1,2.27,1.68,19.58,19.58,0,0,1,2.31,3.13q3.38,5.5,6.73,11l25.67,42.09a2.18,2.18,0,0,1,.22.51l3.44,12.31c0,.18.11.36.17.54l.09.3a.5.5,0,0,1,0,.12v.27a.41.41,0,0,1,0,.19.21.21,0,0,1,0,.07,1.06,1.06,0,0,1-.88.72,1.2,1.2,0,0,1-.82-.23l-.77-.57-10.34-7.59a2.12,2.12,0,0,1-.57-.65c-1.22-2-2.42-3.94-3.62-5.91L672,125c-.19-.29-.36-.59-.54-.89s-.33-.55-.49-.82a24.83,24.83,0,0,1-1.85-3.46,9,9,0,0,1-.73-2.85A4.5,4.5,0,0,1,669.14,113.87Z"/><path class="cls-4" d="M708.67,170.62l1.64-1L681.85,123l-1.66,1Z"/><path class="cls-4" d="M676.71,126.1l-1.43.87,28.55,46.79,1.41-.92Z"/><path class="cls-4" d="M706.25,172.18l1.4-.91L679.16,124.6l-1.42.87Q692,148.82,706.25,172.18Z"/><path class="cls-2" d="M671.86,121.31l6.45-3.94,0-.08a17,17,0,0,0-2.18-2.89,4.84,4.84,0,0,0-1.38-1,2.63,2.63,0,0,0-1.89-.14,4.82,4.82,0,0,0-1.85,1,2.8,2.8,0,0,0-1,2.46,6.62,6.62,0,0,0,.62,2.26c.36.76.76,1.49,1.14,2.24Z"/><path class="cls-3" d="M705,175.33l4.55,3.33a3.84,3.84,0,0,1,3.13-2.19q-.72-2.57-1.43-5.13C709.09,172.59,707.08,174,705,175.33Z"/><path class="cls-3" d="M681,121.45l-.58-1-6.72,4.1.58,1Z"/><path class="cls-3" d="M672.56,122.67l.53.87,6.72-4.1-.53-.87Z"/></g><g id="Smiley"><path class="cls-5" d="M833.67,461.28a14.89,14.89,0,0,1-4-1.75,17.58,17.58,0,0,1-5.37-5.18A19.22,19.22,0,0,1,821,442.07a16.72,16.72,0,0,1,1.1-5,14.81,14.81,0,0,1,5.24-6.83A17.13,17.13,0,0,1,838,427.07a21.74,21.74,0,0,1,2.42.21,14.94,14.94,0,0,1,3.55.91,16.2,16.2,0,0,1,5,3.13,19.49,19.49,0,0,1,6.2,16.33,17.36,17.36,0,0,1-.82,3.7,15.2,15.2,0,0,1-3.91,6.15,15.82,15.82,0,0,1-7.29,3.91,20.42,20.42,0,0,1-7.35.34C835.06,461.6,834.36,461.47,833.67,461.28Zm-.47-30.72a12.85,12.85,0,0,0-6.46,4.16,12,12,0,0,0-2.34,4.44,16.37,16.37,0,0,0,5.05,16.64,13.26,13.26,0,0,0,4.21,2.44,12.93,12.93,0,0,0,2.75.64,17.87,17.87,0,0,0,4.07,0,14.06,14.06,0,0,0,6.26-2.24,12.24,12.24,0,0,0,4.73-6,13.71,13.71,0,0,0,.82-3.9,16.37,16.37,0,0,0-2.84-10.45,14.5,14.5,0,0,0-5-4.64,12.24,12.24,0,0,0-3.87-1.4A17,17,0,0,0,833.2,430.56Z"/><path class="cls-2" d="M844.46,431.64a14.5,14.5,0,0,1,5,4.64,16.37,16.37,0,0,1,2.84,10.45,13.71,13.71,0,0,1-.82,3.9,12.24,12.24,0,0,1-4.73,6,14.06,14.06,0,0,1-6.26,2.24,17.87,17.87,0,0,1-4.07,0,12.93,12.93,0,0,1-2.75-.64,13.26,13.26,0,0,1-4.21-2.44,16.37,16.37,0,0,1-5.05-16.64,12,12,0,0,1,2.34-4.44,12.85,12.85,0,0,1,6.46-4.16,17,17,0,0,1,7.39-.32A12.24,12.24,0,0,1,844.46,431.64Zm-3.81,22.94a8.76,8.76,0,0,0,3.54-2,11.75,11.75,0,0,0,2.87-4,2.07,2.07,0,0,0,.15-.5,1.17,1.17,0,0,0-.82-1.28,1.2,1.2,0,0,0-1.36.53c-.06.1-.09.2-.14.3a9.16,9.16,0,0,1-2.35,3.19,6.22,6.22,0,0,1-3.84,1.61,7.36,7.36,0,0,1-6.54-3,7.11,7.11,0,0,1-1-1.72,1.25,1.25,0,0,0-.69-.7,1.14,1.14,0,0,0-1.21.19,1.15,1.15,0,0,0-.38,1.17,1.38,1.38,0,0,0,.12.34,9.93,9.93,0,0,0,5.47,5.44,7.79,7.79,0,0,0,1.94.52A9.31,9.31,0,0,0,840.65,454.58Zm-8.49-12.76a3,3,0,0,0,.42,1,3.1,3.1,0,0,0,.47.55,1.29,1.29,0,0,0,1.73,0,2.39,2.39,0,0,0,.51-.63,3.31,3.31,0,0,0,.39-1.09,4.81,4.81,0,0,0-.13-2.47,4.13,4.13,0,0,0-.35-.77,2.43,2.43,0,0,0-.44-.52,1.28,1.28,0,0,0-1.76,0,2.3,2.3,0,0,0-.67,1c-.1.28-.17.57-.26.85A5.66,5.66,0,0,0,832.16,441.82Zm11.59-2.31a2.91,2.91,0,0,0-.65-1.11,1.51,1.51,0,0,0-.65-.4,1.26,1.26,0,0,0-1.14.22,2.19,2.19,0,0,0-.75,1,4.88,4.88,0,0,0,0,3.45,2.59,2.59,0,0,0,.57.92,1.46,1.46,0,0,0,.56.39,1.28,1.28,0,0,0,1.39-.28,2.52,2.52,0,0,0,.7-1.16c.09-.24.13-.49.2-.74A5.21,5.21,0,0,0,843.75,439.51Z"/><path class="cls-5" d="M836.44,454.72a9.31,9.31,0,0,0,4.21-.14,8.76,8.76,0,0,0,3.54-2,11.75,11.75,0,0,0,2.87-4,2.07,2.07,0,0,0,.15-.5,1.17,1.17,0,0,0-.82-1.28,1.2,1.2,0,0,0-1.36.53c-.06.1-.09.2-.14.3a9.16,9.16,0,0,1-2.35,3.19,6.22,6.22,0,0,1-3.84,1.61,7.36,7.36,0,0,1-6.54-3,7.11,7.11,0,0,1-1-1.72,1.25,1.25,0,0,0-.69-.7,1.14,1.14,0,0,0-1.21.19,1.15,1.15,0,0,0-.38,1.17,1.38,1.38,0,0,0,.12.34,9.93,9.93,0,0,0,5.47,5.44A7.79,7.79,0,0,0,836.44,454.72Z"/><path class="cls-5" d="M832.07,439.77a5.66,5.66,0,0,0,.09,2.05,3,3,0,0,0,.42,1,3.1,3.1,0,0,0,.47.55,1.29,1.29,0,0,0,1.73,0,2.39,2.39,0,0,0,.51-.63,3.31,3.31,0,0,0,.39-1.09,4.81,4.81,0,0,0-.13-2.47,4.13,4.13,0,0,0-.35-.77,2.43,2.43,0,0,0-.44-.52,1.28,1.28,0,0,0-1.76,0,2.3,2.3,0,0,0-.67,1C832.23,439.2,832.16,439.49,832.07,439.77Z"/><path class="cls-5" d="M844,441.83a5.21,5.21,0,0,0-.2-2.32,2.91,2.91,0,0,0-.65-1.11,1.51,1.51,0,0,0-.65-.4,1.26,1.26,0,0,0-1.14.22,2.19,2.19,0,0,0-.75,1,4.88,4.88,0,0,0,0,3.45,2.59,2.59,0,0,0,.57.92,1.46,1.46,0,0,0,.56.39,1.28,1.28,0,0,0,1.39-.28,2.52,2.52,0,0,0,.7-1.16C843.84,442.33,843.88,442.08,844,441.83Z"/></g></g><g id="Calque_3" data-name="Calque 3"><path class="cls-5" d="M1003.3,516.5c.26,0,.5,0,.67-.23a1.91,1.91,0,0,1,.52-.54,1.67,1.67,0,0,1,.85-.34l.57,0a11.45,11.45,0,0,0,2.4-.32,9.24,9.24,0,0,0,3.7-1.72,11.18,11.18,0,0,0,2.52-2.75,22,22,0,0,0,2.39-4.86,14.87,14.87,0,0,0,.65-2.73c.11-.8.26-1.6.39-2.4a2.42,2.42,0,0,1,.1-.36,1.16,1.16,0,0,1,1.66-.68.92.92,0,0,1,.4.38,6.21,6.21,0,0,1,.38,1.64,23.84,23.84,0,0,0,1.12,4.72,11.83,11.83,0,0,0,.66,1.55,18.76,18.76,0,0,0,2.11,3.31,12.29,12.29,0,0,0,2.26,2.24,9.41,9.41,0,0,0,5,2c.31,0,.63,0,.93.09a2.1,2.1,0,0,1,.53.19,1.17,1.17,0,0,1,.65,1.24,1.1,1.1,0,0,1-.6.89,2.91,2.91,0,0,1-.51.22,14.34,14.34,0,0,0-5.73,3.42,24,24,0,0,0-5.76,8.23,12,12,0,0,0-.66,1.94,7.73,7.73,0,0,0-.27,1.85,4.6,4.6,0,0,1-.11,1.11,1.1,1.1,0,0,1-.94.8,3.7,3.7,0,0,1-.74-.06,1.26,1.26,0,0,1-.86-.66,2.11,2.11,0,0,1-.31-.88c0-.24,0-.49,0-.74a7.41,7.41,0,0,0-.49-2.56c-.29-.83-.6-1.64-.93-2.46a15.71,15.71,0,0,0-6.55-7.7,19.4,19.4,0,0,0-3.88-1.84,2.65,2.65,0,0,1-1.38-.91.76.76,0,0,0-.67-.26Zm23.88.67s0-.14,0-.15c-.37-.23-.74-.46-1.12-.68a12.68,12.68,0,0,1-4.95-5.21c-.32-.61-.6-1.24-.9-1.85-.17-.34-.34-.67-.52-1a.3.3,0,0,0-.14-.11.28.28,0,0,0-.33.12c-.3.54-.59,1.09-.89,1.64-.38.71-.74,1.44-1.15,2.14a11.1,11.1,0,0,1-3.27,3.55l-1.39,1-1.08.74a.4.4,0,0,0-.07.63l1.19.91a19.52,19.52,0,0,1,5.16,6.09l.61,1.16c.06.11.14.21.2.31a.36.36,0,0,0,.48,0c.16-.26.35-.52.48-.79a21,21,0,0,1,1.78-2.86,17.67,17.67,0,0,1,3.94-4l1.51-1.1a3.69,3.69,0,0,0,.41-.38A.44.44,0,0,0,1027.18,517.17Z"/><path class="cls-3" d="M1027.18,517.17a.44.44,0,0,1-.07.17,3.69,3.69,0,0,1-.41.38l-1.51,1.1a17.67,17.67,0,0,0-3.94,4,21,21,0,0,0-1.78,2.86c-.13.27-.32.53-.48.79a.36.36,0,0,1-.48,0c-.06-.1-.14-.2-.2-.31l-.61-1.16a19.52,19.52,0,0,0-5.16-6.09l-1.19-.91a.4.4,0,0,1,.07-.63l1.08-.74,1.39-1a11.1,11.1,0,0,0,3.27-3.55c.41-.7.77-1.43,1.15-2.14.3-.55.59-1.1.89-1.64a.28.28,0,0,1,.33-.12.3.3,0,0,1,.14.11c.18.32.35.65.52,1,.3.61.58,1.24.9,1.85a12.68,12.68,0,0,0,4.95,5.21c.38.22.75.45,1.12.68C1027.19,517,1027.17,517.12,1027.18,517.17Z"/><path class="cls-5" d="M1363.85,161.92a1.72,1.72,0,0,1-.12.4.82.82,0,0,1-.62.49,14.49,14.49,0,0,1-2.28.28,17,17,0,0,0-2.76.43,6.12,6.12,0,0,0-1.69.61,3.49,3.49,0,0,0-1.63,1.78,6.09,6.09,0,0,0-.45,1.58,20.8,20.8,0,0,0-.24,3.44c0,.55,0,1.09,0,1.64a2.76,2.76,0,0,1-.07.49.87.87,0,0,1-.71.6,1.55,1.55,0,0,1-.48,0,.92.92,0,0,1-.68-.65,1.57,1.57,0,0,1-.09-.48l-.06-1.32a23.92,23.92,0,0,0-.36-2.93,7.32,7.32,0,0,0-.58-1.88,3.32,3.32,0,0,0-2.33-1.92,9.88,9.88,0,0,0-2.6-.35l-3,0c-.27,0-.54,0-.82,0a1,1,0,0,1-.76-.56,1,1,0,0,1,.21-1.07,1.23,1.23,0,0,1,.72-.35l.33,0c1.21,0,2.39-.28,3.59-.39a13.2,13.2,0,0,0,2.21-.62,3.72,3.72,0,0,0,2.09-2.2,7.66,7.66,0,0,0,.34-1.27,20.66,20.66,0,0,0,.25-3.77c0-.54,0-1.09,0-1.64a1,1,0,0,1,1.44-.76,1.14,1.14,0,0,1,.54.79c0,.16,0,.33,0,.49a28.55,28.55,0,0,0,.31,3.44,11.8,11.8,0,0,0,.4,1.76,4.73,4.73,0,0,0,.54,1.19,2.92,2.92,0,0,0,1.34,1.17,5.56,5.56,0,0,0,1.74.48,24.81,24.81,0,0,0,3.45.09l1.64-.05a1.08,1.08,0,0,1,.86.41A.87.87,0,0,1,1363.85,161.92Z"/><path class="cls-5" d="M1379.26,197.53a.69.69,0,0,0,.67-.23,2,2,0,0,1,.51-.53,1.7,1.7,0,0,1,.86-.34c.19,0,.37,0,.56,0a11.54,11.54,0,0,0,2.41-.32,9.24,9.24,0,0,0,3.7-1.72,10.82,10.82,0,0,0,2.51-2.76,21.45,21.45,0,0,0,2.39-4.85,16,16,0,0,0,.66-2.73c.1-.8.25-1.6.38-2.4a2.42,2.42,0,0,1,.1-.36,1.17,1.17,0,0,1,1.67-.68.84.84,0,0,1,.39.38,6.15,6.15,0,0,1,.39,1.63,22.61,22.61,0,0,0,1.12,4.73,10.57,10.57,0,0,0,.65,1.55,19.13,19.13,0,0,0,2.11,3.31,12.23,12.23,0,0,0,2.26,2.23,9.34,9.34,0,0,0,5,2c.31,0,.62,0,.93.09a1.91,1.91,0,0,1,.52.19,1.16,1.16,0,0,1,.65,1.23,1.06,1.06,0,0,1-.59.89,2.87,2.87,0,0,1-.51.23,14.31,14.31,0,0,0-5.74,3.42,24,24,0,0,0-5.75,8.22,12.09,12.09,0,0,0-.66,1.95,7.26,7.26,0,0,0-.27,1.85,4.66,4.66,0,0,1-.12,1.11,1.08,1.08,0,0,1-.93.8,3.8,3.8,0,0,1-.75-.06,1.28,1.28,0,0,1-.86-.66,2.1,2.1,0,0,1-.3-.88,6.3,6.3,0,0,1,0-.75,7.23,7.23,0,0,0-.49-2.56c-.29-.82-.6-1.64-.92-2.45a15.75,15.75,0,0,0-6.56-7.71,19.66,19.66,0,0,0-3.88-1.83,2.63,2.63,0,0,1-1.37-.91.82.82,0,0,0-.67-.27Zm23.87.68c0-.05,0-.14,0-.16l-1.12-.67a12.66,12.66,0,0,1-5-5.22c-.31-.61-.6-1.23-.9-1.85-.16-.33-.34-.66-.52-1a.26.26,0,0,0-.14-.1.28.28,0,0,0-.33.12c-.3.54-.59,1.09-.88,1.64-.38.71-.75,1.44-1.16,2.14a11.1,11.1,0,0,1-3.27,3.55l-1.39,1-1.08.74a.42.42,0,0,0-.07.63c.4.3.8.6,1.19.91a19.55,19.55,0,0,1,5.17,6.09c.21.38.4.77.61,1.16a2,2,0,0,0,.2.31.34.34,0,0,0,.47,0,8.15,8.15,0,0,0,.49-.8,19.65,19.65,0,0,1,1.78-2.85,17.83,17.83,0,0,1,3.93-4c.5-.37,1-.73,1.51-1.11a3.6,3.6,0,0,0,.41-.37A.44.44,0,0,0,1403.13,198.21Z"/><path class="cls-3" d="M1403.13,198.21a.44.44,0,0,1-.07.17,3.6,3.6,0,0,1-.41.37c-.5.38-1,.74-1.51,1.11a17.83,17.83,0,0,0-3.93,4,19.65,19.65,0,0,0-1.78,2.85,8.15,8.15,0,0,1-.49.8.34.34,0,0,1-.47,0,2,2,0,0,1-.2-.31c-.21-.39-.4-.78-.61-1.16a19.55,19.55,0,0,0-5.17-6.09c-.39-.31-.79-.61-1.19-.91a.42.42,0,0,1,.07-.63l1.08-.74,1.39-1a11.1,11.1,0,0,0,3.27-3.55c.41-.7.78-1.43,1.16-2.14.29-.55.58-1.1.88-1.64a.28.28,0,0,1,.33-.12.26.26,0,0,1,.14.1c.18.33.36.66.52,1,.3.62.59,1.24.9,1.85a12.66,12.66,0,0,0,5,5.22l1.12.67S1403.13,198.16,1403.13,198.21Z"/><path class="cls-5" d="M64.12,403.15a1.39,1.39,0,0,1-1.13-.86,2.42,2.42,0,0,1-.1-.36c-.14-.92-.29-1.84-.41-2.77a8.55,8.55,0,0,0-.64-2.34,14.68,14.68,0,0,0-1.55-2.76,6.85,6.85,0,0,0-3-2.46A8.29,8.29,0,0,0,55,391c-.31,0-.62-.05-.93-.08a1.73,1.73,0,0,1-.84-.37,1.27,1.27,0,0,1,0-2,1,1,0,0,1,.32-.19A20.81,20.81,0,0,0,58,386.07a15.78,15.78,0,0,0,1.8-1.33,8.64,8.64,0,0,0,1.61-1.81,6.25,6.25,0,0,0,1.08-3.34c0-.68,0-1.37.06-2a1.34,1.34,0,0,1,.53-1,1.24,1.24,0,0,1,1.23-.19,1.17,1.17,0,0,1,.75.78,2,2,0,0,1,.09.55c0,.43,0,.87,0,1.3a8.48,8.48,0,0,0,1.43,4.58,11.55,11.55,0,0,0,6,4.8c.41.14.83.27,1.23.44a2.78,2.78,0,0,1,.62.41,1.08,1.08,0,0,1-.35,1.71,4.84,4.84,0,0,1-.72.2c-.37.06-.74.09-1.11.13a6.47,6.47,0,0,0-4.82,2.88,13.36,13.36,0,0,0-1.88,4.45,5.19,5.19,0,0,0-.1,1.12c0,.68,0,1.37-.09,2.05a1.56,1.56,0,0,1-.33.87A1.23,1.23,0,0,1,64.12,403.15Zm.07-8.27a.42.42,0,0,0,.15-.11l.87-1.43A9.24,9.24,0,0,1,68,390.39c.31-.21.62-.42.92-.64.13-.08.11-.33,0-.47-.38-.33-.74-.66-1.13-1a14,14,0,0,1-2.79-3l-.75-1.07A3.33,3.33,0,0,0,64,384c-.12-.12-.2-.09-.32,0a4.86,4.86,0,0,0-.65.91,13.37,13.37,0,0,1-2.9,3.15l-.44.35-.43.36a.46.46,0,0,0,.07.65l1.48,1.13a7.81,7.81,0,0,1,2,2.23c.32.53.63,1.07,1,1.6a2.42,2.42,0,0,0,.35.44A.45.45,0,0,0,64.19,394.88Z"/><path class="cls-3" d="M64.19,394.88a.45.45,0,0,1-.14-.06,2.42,2.42,0,0,1-.35-.44c-.33-.53-.64-1.07-1-1.6a7.81,7.81,0,0,0-2-2.23l-1.48-1.13a.46.46,0,0,1-.07-.65l.43-.36.44-.35a13.37,13.37,0,0,0,2.9-3.15,4.86,4.86,0,0,1,.65-.91c.12-.11.2-.14.32,0a3.33,3.33,0,0,1,.28.25L65,385.3a14,14,0,0,0,2.79,3c.39.31.75.64,1.13,1,.16.14.18.39,0,.47-.3.22-.61.43-.92.64a9.24,9.24,0,0,0-2.82,2.95l-.87,1.43A.42.42,0,0,1,64.19,394.88Z"/><path class="cls-5" d="M1099.55,151.07a1.39,1.39,0,0,1-1.13-.85,2.37,2.37,0,0,1-.09-.36c-.15-.93-.3-1.85-.42-2.78a8.56,8.56,0,0,0-.63-2.33,15.39,15.39,0,0,0-1.56-2.77,6.85,6.85,0,0,0-3-2.46,8.67,8.67,0,0,0-2.34-.6l-.94-.08a1.6,1.6,0,0,1-.84-.37,1.31,1.31,0,0,1,.34-2.15,20.33,20.33,0,0,0,4.46-2.32,14,14,0,0,0,1.8-1.34,8.47,8.47,0,0,0,1.62-1.81,6.29,6.29,0,0,0,1.07-3.33c0-.69,0-1.37.06-2.06a1.3,1.3,0,0,1,.53-.95,1.25,1.25,0,0,1,1.23-.2,1.19,1.19,0,0,1,.75.78,1.76,1.76,0,0,1,.09.55c0,.44,0,.87,0,1.31a8.42,8.42,0,0,0,1.42,4.58,11.64,11.64,0,0,0,6,4.8c.41.14.83.27,1.23.44a2.27,2.27,0,0,1,.62.4,1.07,1.07,0,0,1-.35,1.71,5.94,5.94,0,0,1-.72.21c-.37.06-.74.08-1.11.13a6.43,6.43,0,0,0-4.81,2.88,13.1,13.1,0,0,0-1.89,4.45,5.88,5.88,0,0,0-.1,1.11c0,.69-.05,1.38-.08,2.06a1.69,1.69,0,0,1-.33.86A1.22,1.22,0,0,1,1099.55,151.07Zm.07-8.26c.05,0,.12-.06.15-.11l.87-1.44a9.46,9.46,0,0,1,2.82-2.95l.93-.63c.12-.09.1-.33-.06-.47-.38-.33-.74-.67-1.13-1a13.94,13.94,0,0,1-2.79-3c-.24-.37-.49-.72-.75-1.08a3.08,3.08,0,0,0-.27-.24c-.12-.12-.21-.1-.33,0a4.46,4.46,0,0,0-.64.92,13.62,13.62,0,0,1-2.91,3.15l-.44.34-.43.36a.46.46,0,0,0,.07.65l1.49,1.14a7.61,7.61,0,0,1,2,2.22c.32.54.63,1.08,1,1.61a3.65,3.65,0,0,0,.35.43S1099.57,142.79,1099.62,142.81Z"/><path class="cls-3" d="M1099.62,142.81s-.11,0-.14-.07a3.65,3.65,0,0,1-.35-.43c-.33-.53-.64-1.07-1-1.61a7.61,7.61,0,0,0-2-2.22l-1.49-1.14a.46.46,0,0,1-.07-.65l.43-.36.44-.34a13.62,13.62,0,0,0,2.91-3.15,4.46,4.46,0,0,1,.64-.92c.12-.11.21-.13.33,0a3.08,3.08,0,0,1,.27.24c.26.36.51.71.75,1.08a13.94,13.94,0,0,0,2.79,3c.39.31.75.65,1.13,1,.16.14.18.38.06.47l-.93.63a9.46,9.46,0,0,0-2.82,2.95l-.87,1.44C1099.74,142.75,1099.67,142.77,1099.62,142.81Z"/><path class="cls-1" d="M353.73,398.82c-1.11-.09-2-.19-2.72-.31-3.7-.63-4.61-1.47-4.25-7.7a.92.92,0,0,0-.78-1,.94.94,0,0,0-1.05.86c-.17,3-.5,5.13-1.56,6.05-.65.56-1.76.83-3.52.83-.73,0-1.58-.05-2.64-.13h-.13a.92.92,0,0,0-.91.76.93.93,0,0,0,.74,1.06h.1c1.11.1,2,.2,2.71.32,3.71.63,4.61,1.46,4.25,7.7a.92.92,0,0,0,.77,1l.1,0h.05a1,1,0,0,0,.92-.87c.17-3,.5-5.14,1.56-6,.65-.57,1.77-.83,3.52-.83.73,0,1.58,0,2.76.14a.92.92,0,0,0,.08-1.84Z"/><path class="cls-1" d="M586.93,212.58h0c-1.36.11-2.42.17-3.32.17-2.17,0-3.56-.33-4.37-1-1.3-1.13-1.71-3.82-1.93-7.58a1.16,1.16,0,0,0-1.29-1,1.14,1.14,0,0,0-1,1.19c.45,7.73-.67,8.77-5.26,9.55-.92.15-2,.28-3.44.4a1.14,1.14,0,0,0,.25,2.26h0c1.37-.11,2.43-.17,3.33-.17,2.17,0,3.56.33,4.37,1,1.31,1.13,1.71,3.82,1.94,7.58a1.14,1.14,0,0,0,1.12,1h.07l.13,0a1.13,1.13,0,0,0,.94-1.18c-.45-7.74.67-8.77,5.27-9.55.91-.15,2-.28,3.36-.39l.13,0a1.14,1.14,0,0,0,.91-1.31A1.16,1.16,0,0,0,586.93,212.58Z"/><path class="cls-1" d="M248.87,165.26c-1.12-.09-2-.19-2.72-.32-3.71-.62-4.61-1.46-4.25-7.7a.91.91,0,0,0-.78-1,.94.94,0,0,0-1.05.86c-.17,3-.5,5.13-1.56,6.05-.65.56-1.77.82-3.52.82-.73,0-1.58,0-2.64-.13h-.13a.92.92,0,0,0-.18,1.83h.11c1.11.09,2,.2,2.71.32,3.71.62,4.61,1.46,4.25,7.7a.92.92,0,0,0,.77,1H240a.94.94,0,0,0,.92-.86c.17-3,.5-5.14,1.55-6.05.65-.57,1.77-.83,3.53-.83.73,0,1.58,0,2.76.14a.92.92,0,0,0,.08-1.84Z"/><path class="cls-1" d="M1559.31,378.73c-1.11-.09-2-.19-2.72-.32-3.7-.62-4.61-1.46-4.25-7.7a.91.91,0,0,0-.78-1,.94.94,0,0,0-1,.85c-.17,3-.5,5.14-1.56,6.06-.65.56-1.77.82-3.52.82-.73,0-1.58,0-2.64-.13h-.13a.92.92,0,0,0-.17,1.83h.1c1.11.09,2,.19,2.71.32,3.71.62,4.61,1.46,4.25,7.7a.92.92,0,0,0,.77,1h.15a.94.94,0,0,0,.92-.86c.17-3,.5-5.14,1.56-6.06.65-.56,1.77-.82,3.52-.82.73,0,1.58,0,2.76.14a.92.92,0,0,0,.08-1.84Z"/><path class="cls-1" d="M1249.6,465.62c-1.12-.09-2-.19-2.72-.32-3.71-.62-4.61-1.46-4.25-7.7a.91.91,0,0,0-.78-1,.93.93,0,0,0-1,.85c-.17,3-.5,5.14-1.56,6.05-.65.57-1.77.83-3.52.83-.73,0-1.58,0-2.64-.13h-.14a.92.92,0,0,0-.17,1.82l.11,0c1.11.09,2,.19,2.71.32,3.71.62,4.61,1.46,4.25,7.7a.92.92,0,0,0,.77,1h.15a.94.94,0,0,0,.92-.86c.17-3,.5-5.14,1.55-6.06.65-.56,1.77-.82,3.53-.82.73,0,1.58,0,2.76.13a.92.92,0,0,0,.08-1.83Z"/><path class="cls-5" d="M561.34,78.59a1.33,1.33,0,0,0-.16-.34,3,3,0,0,1-.67-1.51c-.07-.56-.2-1.11-.3-1.66a12.85,12.85,0,0,0-.68-2.52,19,19,0,0,0-2-3.81,9.21,9.21,0,0,0-1.75-1.94,8,8,0,0,0-3.32-1.64,3.66,3.66,0,0,0-.74-.1l-1.49-.1a3.46,3.46,0,0,1-.91-.22,1.31,1.31,0,0,1-.65-1.88,1.09,1.09,0,0,1,.37-.4,2.79,2.79,0,0,1,.66-.35A17.26,17.26,0,0,0,552.25,61a13.39,13.39,0,0,0,5.45-5.51,16.22,16.22,0,0,0,.69-1.53c.21-.52.4-1,.58-1.58a7.33,7.33,0,0,0,.52-2.74,2.63,2.63,0,0,1,.08-.74,1.46,1.46,0,0,1,.91-1.11,3.32,3.32,0,0,1,.54-.15,1.13,1.13,0,0,1,1.06.61,5.52,5.52,0,0,1,.16.54,4.54,4.54,0,0,1,.1.74,8.72,8.72,0,0,0,.94,3.4,20.13,20.13,0,0,0,4.9,6.56A12.67,12.67,0,0,0,572.5,62c.24.08.49.13.72.23a1.27,1.27,0,0,1,.75,1,.55.55,0,0,1,0,.18,1.18,1.18,0,0,1-.77,1,5.7,5.7,0,0,1-1.46.32,6.65,6.65,0,0,0-3.13,1.15,10.06,10.06,0,0,0-2.57,2.43,14.79,14.79,0,0,0-2.82,6.45c-.11.55-.2,1.11-.29,1.66a4.53,4.53,0,0,1-.24,1.28,9.53,9.53,0,0,1-.62.94ZM568,63a.39.39,0,0,0-.12-.34,7,7,0,0,0-1.52-1.07,6.63,6.63,0,0,1-1.36-1,13.44,13.44,0,0,1-1.77-1.92,19.31,19.31,0,0,1-1.84-2.8c-.09-.15-.17-.35-.39-.3s-.3.2-.39.37-.1.22-.16.33a17,17,0,0,1-5,6,2.94,2.94,0,0,0-.4.39.27.27,0,0,0,.06.33,12.84,12.84,0,0,0,1.67,1.17,11.51,11.51,0,0,1,2,1.67,10.61,10.61,0,0,1,1.32,1.81c.29.48.55,1,.81,1.47.15.27.29.55.45.82a3.3,3.3,0,0,0,.22.3.28.28,0,0,0,.45-.07c.38-.78.74-1.57,1.15-2.35a10.39,10.39,0,0,1,3.45-3.85c.42-.28.84-.54,1.25-.82A.48.48,0,0,0,568,63Z"/><path class="cls-3" d="M568,63a.48.48,0,0,1-.09.14c-.41.28-.83.54-1.25.82a10.39,10.39,0,0,0-3.45,3.85c-.41.78-.77,1.57-1.15,2.35a.28.28,0,0,1-.45.07,3.3,3.3,0,0,1-.22-.3c-.16-.27-.3-.55-.45-.82-.26-.49-.52-1-.81-1.47a10.61,10.61,0,0,0-1.32-1.81,11.51,11.51,0,0,0-2-1.67A12.84,12.84,0,0,1,555.17,63a.27.27,0,0,1-.06-.33,2.94,2.94,0,0,1,.4-.39,17,17,0,0,0,5-6c.06-.11.1-.22.16-.33s.2-.34.39-.37.3.15.39.3a19.31,19.31,0,0,0,1.84,2.8A13.44,13.44,0,0,0,565,60.57a6.63,6.63,0,0,0,1.36,1,7,7,0,0,1,1.52,1.07A.39.39,0,0,1,568,63Z"/><path class="cls-1" d="M539.9,80.14c-1.12,0-2-.07-2.73-.15-3.74-.4-4.69-1.19-4.71-7.43a.92.92,0,0,0-.84-.92,1,1,0,0,0-1,.92c0,3-.2,5.16-1.19,6.13-.62.61-1.72.93-3.47,1-.73,0-1.58,0-2.64,0a.66.66,0,0,0-.14,0,.91.91,0,0,0-.86.82.93.93,0,0,0,.8,1h.1c1.12,0,2,.08,2.73.16,3.74.4,4.69,1.18,4.71,7.43a.91.91,0,0,0,.82.91h.15a.94.94,0,0,0,.86-.92c0-3,.2-5.16,1.2-6.14.61-.6,1.71-.93,3.47-1,.72-.05,1.58-.06,2.76,0a.92.92,0,0,0,0-1.84Z"/></g></svg>