<?xml version="1.0" encoding="utf-8"?>
<!-- Generator: Adobe Illustrator 22.1.0, SVG Export Plug-In . SVG Version: 6.00 Build 0)  -->
<svg version="1.1" id="Layer_1" xmlns="http://www.w3.org/2000/svg" xmlns:xlink="http://www.w3.org/1999/xlink" x="0px" y="0px"
	 viewBox="0 0 750 1334" style="enable-background:new 0 0 750 1334;" xml:space="preserve">
<style type="text/css">
	.st0{fill:#0000E2;}
	.st1{fill:#97D3DD;}
	.st2{fill:#FFFFFF;}
	.st3{fill:#FFAA64;}
</style>
<title>web_PinPatch2019</title>
<g id="Calque_2">
	<g id="Push_Pin">
		<path class="st0" d="M491,820.5l-17.5-8c-0.5-0.2-0.9-0.4-1.4-0.5l-0.6-0.1h-0.8l-0.5,0.1c-1.8,0.5-3.1,2-3.4,3.8
			c-0.2,1.4,0.2,2.8,1.2,3.8c0.4,0.4,0.9,0.7,1.4,0.9l0.3,0.2l-5.9,11c-4.2,0.4-8.1,2.2-11.2,5.1c-0.7,0.7-1.4,1.4-2,2.1l-0.1,0.1
			c-0.1,0.1-0.2,0.3-0.4,0.4l-0.2,0.2c-0.2,0.2-0.1,0.5,0.1,0.7c0,0,0.1,0.1,0.1,0.1l0.3-0.3l0,0l-0.2,0.4l12.1,5.7l-5.7,20.6
			c-0.3,0.9,0.2,1.8,1,2.2c0.3,0.2,0.7,0.2,1,0.2c0.6-0.1,1.1-0.4,1.4-0.9l11.6-17.7l12.4,5.9c0.2,0.1,0.5,0,0.6-0.2
			c0,0,0-0.1,0-0.1V856l0.1-0.8c0.4-1.9,0.5-3.8,0.4-5.7c-0.1-0.9-0.2-1.7-0.4-2.5c-0.5-2.2-1.4-4.4-2.6-6.3l4.8-11.8l0,0
			c0.8,0.4,1.8,0.5,2.7,0.3c2.2-0.5,3.7-2.4,3.6-4.6C493.6,822.8,492.6,821.2,491,820.5z M463.6,856.4l2.4-8.5l2.5,1.2L463.6,856.4z
			 M489.7,825.1c-0.2,0.3-0.6,0.3-0.9,0.2c-1.3-0.6-2.6-1.2-3.9-1.8l-1-0.5c-0.3-0.1-0.7-0.2-1-0.2c-0.9,0.1-1.6,0.8-1.7,1.7
			c-0.1,0.8,0.3,1.5,1.1,1.9l1.3,0.6l0.4,0.2l-4.2,10.3l-0.2-0.1c-0.3-0.2-0.5-0.4-0.8-0.6c-0.3-0.2-0.7-0.3-1.1-0.2
			c-0.6,0.1-1.1,0.4-1.4,0.9c-0.5,0.8-0.3,1.9,0.5,2.5c1.1,0.8,2,1.7,2.7,2.9c0.2,0.4,0.4,0.8,0.6,1.2l0.3,0.6l0.2,0.3l0.1,0.2
			c0.1,0.1,0.1,0.2,0.1,0.3c0.4,1.1,0.7,2.2,0.9,3.4c0.1,0.8,0.2,1.6,0.2,2.5L456,839c1.7-1.4,3.6-2.4,5.7-3c0.7-0.2,1.4-0.3,2-0.4
			c1.1-0.1,2.2-0.1,3.3,0.2c0.2,0,0.3,0.1,0.5,0.2c1,0.3,2-0.1,2.4-1.1c0.2-0.5,0.2-1,0-1.5c-0.2-0.5-0.6-0.8-1.1-1
			c-0.3-0.1-0.6-0.2-0.9-0.3l5.3-9.9l0.8,0.4l0.4,0.2c0.9,0.4,2,0,2.4-0.9c0.4-0.9,0-2-0.9-2.5l-2.8-1.3l-2.2-1
			c-0.3-0.1-0.5-0.5-0.4-0.8c0.1-0.4,0.3-0.6,0.7-0.7c0.1,0,0.2,0,0.4,0.1l11.4,5.2c2.2,1,4.3,2,6.5,3c0.2,0.1,0.4,0.3,0.4,0.5
			C490,824.7,489.9,824.9,489.7,825.1L489.7,825.1z"/>
		<path class="st1" d="M482.2,852l-27-12.8l0.1-0.1c1.8-1.6,4-2.9,6.3-3.5c0.7-0.2,1.4-0.3,2.1-0.4c1.2-0.1,2.3-0.1,3.5,0.2
			c0.2,0,0.4,0.1,0.5,0.2c0.7,0.3,1.5-0.1,1.8-0.8c0.3-0.7-0.1-1.5-0.8-1.8c0,0,0,0-0.1,0c-0.4-0.2-0.8-0.2-1.3-0.4h-0.1l5.7-10.8
			l1,0.5l0.5,0.2c0.7,0.3,1.5-0.1,1.8-0.8c0.3-0.7,0-1.4-0.7-1.8c-1.4-0.7-2.8-1.3-4.2-1.9l-0.8-0.4c-0.5-0.2-0.8-0.8-0.7-1.3
			c0.1-0.5,0.5-1,1-1.1c0.2,0,0.4,0,0.6,0.1l8.6,3.9c3.1,1.4,6.2,2.8,9.3,4.2c0.6,0.3,0.9,1,0.6,1.7c-0.1,0.1-0.1,0.2-0.2,0.3
			c-0.3,0.4-0.9,0.6-1.5,0.3c-1.6-0.8-3.3-1.5-4.9-2.3c-0.7-0.3-1.5,0-1.9,0.7c-0.1,0.1-0.1,0.3-0.1,0.5c-0.1,0.6,0.3,1.2,0.8,1.4
			c0.6,0.3,1.2,0.6,1.9,0.9l0.1,0.1c-1.5,3.8-3.1,7.5-4.6,11.3c-0.2-0.1-0.3-0.3-0.4-0.4c-0.3-0.3-0.7-0.5-1-0.7
			c-0.7-0.4-1.5-0.1-1.9,0.5c-0.4,0.6-0.2,1.4,0.4,1.8c1.1,0.8,2.1,1.8,2.8,3c0.4,0.6,0.6,1.2,1,1.8c0.1,0.2,0.2,0.3,0.3,0.4
			c0.1,0.1,0.1,0.2,0.2,0.4c0.8,2.1,1.2,4.4,1,6.6C482.2,851.9,482.2,851.9,482.2,852z"/>
		<path class="st2" d="M462.5,859c1.1-3.9,2.2-7.8,3.2-11.7l3.4,1.6L462.5,859L462.5,859z"/>
	</g>
</g>
<g id="Calque_3">
	<g id="Push_Pin-2">
		<path class="st0" d="M56.7,162.4c0.1-0.1,0.2-0.2,0.2-0.4c0-0.1,0-0.2-0.1-0.3l-0.2-0.2l-0.3-0.3l-0.1-0.1c-0.6-0.6-1.3-1.2-2-1.8
			c-3-2.4-6.8-3.7-10.6-3.7l-6.3-9.5l0.3-0.2c1.6-0.9,2.5-2.7,2-4.5c-0.4-1.6-1.7-2.9-3.4-3.2l-0.5-0.1h-0.7l-0.5,0.1
			c-0.4,0.1-0.9,0.3-1.3,0.6l-15.3,8.9c-1.4,0.8-2.2,2.3-2,3.9c0.2,2,1.7,3.6,3.7,3.8c0.8,0.1,1.7-0.1,2.4-0.5l0,0l5.4,10.4
			c-1,1.9-1.6,3.9-1.8,6c-0.1,0.8-0.1,1.6-0.1,2.4c0,1.8,0.3,3.5,0.8,5.2c0.1,0.2,0.1,0.5,0.2,0.7l0,0.2c0,0.1,0.1,0.2,0.2,0.3
			c0.1,0.1,0.3,0.1,0.4,0l10.8-6.5l12.1,15.1c0.3,0.4,0.8,0.7,1.4,0.7c0.3,0,0.6-0.1,0.9-0.2c0.7-0.4,1-1.3,0.7-2.1l-7-18.2
			l10.5-6.3l-0.2-0.3l0,0L56.7,162.4z M41,171.8l2.1-1.3L46,178L41,171.8z M29.1,174.9c-0.1-0.8-0.1-1.5-0.1-2.3
			c0-1.1,0.2-2.1,0.5-3.2c0-0.1,0.1-0.2,0.1-0.3l0.1-0.2c0-0.1,0.1-0.2,0.1-0.3s0.2-0.4,0.2-0.6c0.1-0.4,0.3-0.8,0.5-1.1
			c0.5-1.1,1.2-2.1,2.2-2.9c0.7-0.6,0.8-1.6,0.2-2.3c-0.3-0.4-0.8-0.7-1.4-0.7c-0.4,0-0.7,0.1-1,0.3c-0.2,0.2-0.5,0.4-0.7,0.6
			l-0.1,0.1l-4.7-9l0.3-0.2l1.1-0.6c0.8-0.5,1.1-1.5,0.6-2.3c-0.3-0.5-0.9-0.8-1.4-0.8c-0.3,0-0.6,0.1-0.9,0.2l-0.9,0.5
			c-1.1,0.7-2.3,1.3-3.4,2c-0.3,0.1-0.6,0.1-0.9-0.1c-0.2-0.2-0.3-0.4-0.2-0.7c0-0.2,0.2-0.4,0.4-0.5c1.9-1.1,3.8-2.2,5.6-3.3
			l9.9-5.8c0.1-0.1,0.2-0.1,0.3-0.1c0.3,0,0.6,0.3,0.7,0.6c0.1,0.3,0,0.6-0.3,0.8l-1.9,1.1l-2.4,1.4c-0.8,0.5-1,1.5-0.5,2.3
			c0.5,0.8,1.5,1.1,2.3,0.6c0.1-0.1,0.2-0.1,0.4-0.2l0.7-0.4l5.7,8.5c-0.3,0.1-0.5,0.2-0.8,0.3c-0.4,0.2-0.7,0.6-0.9,1
			c-0.3,0.9,0.1,1.9,1,2.2c0.4,0.2,0.9,0.1,1.3-0.1c0.1-0.1,0.3-0.1,0.4-0.2c1-0.3,2-0.5,3-0.4c0.6,0,1.3,0,1.9,0.1
			c2,0.4,3.8,1.2,5.5,2.3L29.1,174.9z"/>
		<path class="st3" d="M28.7,175.6l23.5-14l-0.1-0.1c-1.8-1.3-3.8-2.2-6-2.6c-0.7-0.1-1.3-0.2-2-0.1c-1.1,0-2.1,0.1-3.1,0.5
			l-0.5,0.2c-0.6,0.3-1.4,0.1-1.7-0.6c0,0,0,0,0,0c-0.3-0.6-0.1-1.4,0.5-1.7c0,0,0,0,0,0c0.4-0.2,0.7-0.3,1.1-0.4l0.1-0.1l-6.2-9.3
			l-0.9,0.5l-0.5,0.3c-0.6,0.3-1.4,0.1-1.7-0.6c-0.3-0.6-0.1-1.3,0.4-1.7l3.6-2.1l0.7-0.4c0.5-0.2,0.7-0.8,0.5-1.2
			c-0.1-0.5-0.5-0.8-1-0.9c-0.2,0-0.4,0-0.6,0.1l-7.5,4.3c-2.7,1.6-5.4,3.1-8.1,4.7c-0.5,0.3-0.7,1-0.4,1.6c0.1,0.1,0.1,0.2,0.2,0.3
			c0.3,0.4,0.9,0.4,1.4,0.2c1.4-0.8,2.9-1.7,4.3-2.5c0.6-0.4,1.4-0.2,1.8,0.4c0.1,0.1,0.1,0.3,0.2,0.4c0.1,0.5-0.1,1.1-0.6,1.4
			l-1.6,0.9l-0.1,0.1c1.7,3.3,3.5,6.6,5.2,9.9c0.1-0.1,0.2-0.3,0.4-0.4c0.3-0.3,0.5-0.5,0.8-0.7c0.6-0.4,1.3-0.3,1.7,0.3
			c0.4,0.5,0.3,1.3-0.2,1.8c-1,0.8-1.7,1.8-2.3,3c-0.3,0.6-0.5,1.2-0.7,1.7c-0.1,0.1-0.1,0.3-0.2,0.4c0,0.1-0.1,0.2-0.1,0.4
			c-0.3,1.1-0.5,2.2-0.5,3.2C28.6,173.6,28.6,174.6,28.7,175.6C28.8,175.6,28.7,175.6,28.7,175.6z"/>
		<path class="st2" d="M47.3,180.3c-1.3-3.5-2.7-6.9-4-10.4l-3,1.8L47.3,180.3L47.3,180.3z"/>
	</g>
	<g id="Baguel">
		<path class="st0" d="M269.1,481.9c0.2-0.1,0.4-0.1,0.6-0.2c1.4-0.5,2.9-0.9,4.3-1.3c1.2-0.3,2.3-0.6,3.5-0.9c1.3-0.3,2.7-0.7,4-1
			c1.5-0.4,3-0.7,4.6-1c2-0.4,4-0.8,5.9-1.1c3.1-0.6,6.2-1,9.4-1.2c3.9-0.4,7.9-0.4,11.9-0.1c4,0.3,7.9,1.1,11.7,2.5
			c2.8,1.1,5.4,2.6,7.7,4.6c2,1.7,3.7,3.7,5,5.9c0.3,0.5,0.5,0.9,0.8,1.4c0.1,0.2,0.3,0.4,0.5,0.4c2.2,0.8,4.2,2,6,3.5
			c1.6,1.4,2.9,3,3.9,4.8c1.2,2,2.1,4.1,2.8,6.3c0.7,2.1,1.2,4.3,1.5,6.5c0.6,4.4,0.3,9-0.6,13.3c-0.6,2.6-1.4,5.2-2.4,7.6
			c-1.2,2.9-2.7,5.6-4.4,8.1c-2.9,4.1-6.4,7.8-10.5,10.9c-2.3,1.8-4.7,3.4-7.2,4.8c-2.2,1.3-4.5,2.5-6.9,3.5s-5,2.2-7.5,3.1
			s-4.9,1.7-7.3,2.5c-1.9,0.6-3.9,1.1-5.9,1.7c-2,0.5-3.9,1-5.9,1.5c-3.3,0.7-6.7,1.3-10,1.5c-3.5,0.3-6.9,0.3-10.4,0.1
			c-5.3-0.4-10.5-1.6-15.4-3.5c-4.9-2-9.4-4.8-13.3-8.3c-2.9-2.5-5.6-5.3-7.9-8.4c-1.5-1.9-2.8-3.9-3.9-6c-1.1-2-1.9-4.1-2.5-6.3
			c-0.5-1.7-0.7-3.4-0.7-5.1c0-1.8,0.5-3.6,1.4-5.2c0.1-0.2,0.2-0.4,0.1-0.6c-0.5-2.4-0.7-4.8-0.5-7.2c0.2-2.8,0.9-5.5,2-8
			c1.6-3.7,3.8-7.1,6.6-10.1c3.2-3.5,6.7-6.6,10.6-9.2c2.2-1.5,4.4-2.9,6.8-4.2c2.4-1.3,4.8-2.5,7.3-3.5c0.1,0,0.1-0.1,0.2-0.1
			L269.1,481.9z M332.6,488.2C332.6,488.2,332.6,488.2,332.6,488.2l-0.1-0.3c-0.9-1.1-1.9-2.1-3-3c-2.5-1.9-5.3-3.4-8.2-4.3
			c-3.2-1-6.6-1.5-10-1.7c-5.1-0.2-10.2,0.1-15.2,0.9c-2.1,0.3-4.2,0.7-6.3,1.1c-1.7,0.3-3.4,0.7-5.1,1.1c-1.4,0.3-2.8,0.7-4.2,1.1
			s-3,0.8-4.6,1.3c-1.3,0.4-2.6,0.8-3.9,1.2c-1.8,0.6-3.5,1.1-5.3,1.8c-1.4,0.5-2.8,1.1-4.1,1.6c-2.2,0.9-4.3,2-6.4,3.3
			c-2.2,1.3-4.2,2.8-6.1,4.5c-1.3,1.2-2.6,2.5-3.7,3.9c-1.9,2.1-3.7,4.4-5.4,6.8c-1.7,2.4-3,5-4,7.7c-0.8,2.2-1.2,4.5-1.1,6.8
			c0,0.1,0,0.2,0,0.3h0.1l0.6-0.5c1.4-1,2.8-1.9,4.2-2.7c0.4-0.2,0.7-0.4,1.1-0.6c0.7-0.3,1.5-0.2,2,0.4c0.9,1,0.8,2.5-0.2,3.4
			c-0.1,0.1-0.3,0.2-0.4,0.3c-0.6,0.3-1.1,0.6-1.7,1c-1.4,0.8-2.6,1.8-3.7,3c-2,2.1-3,5.1-2.5,8c0.3,2.1,1,4,2,5.9
			c0.8,1.5,1.7,3,2.6,4.4c2.3,3.4,5,6.4,8,9.1c4.2,3.7,9,6.6,14.3,8.5c6.2,2.2,12.7,3.3,19.3,3c2.9-0.1,5.8-0.5,8.7-1
			c2.2-0.4,4.3-0.9,6.4-1.5c1.5-0.4,3-0.9,4.5-1.3c2.1-0.6,4.2-1.3,6.2-2c1.6-0.5,3.3-1.1,4.9-1.7c1.8-0.7,3.6-1.4,5.4-2.1
			c1.4-0.6,2.8-1.2,4.2-1.9c2.1-1,4.1-2.1,6.1-3.3c2.5-1.5,4.9-3.3,7.2-5.2c4.6-3.9,8.3-8.9,10.7-14.5c0.9-2.2,1.7-4.4,2.4-6.7
			c0.9-3.2,1.4-6.4,1.4-9.7c0-3.1-0.5-6.2-1.6-9.2c-0.5-1.2-1-2.4-1.7-3.6c-1-1.7-2.2-3.3-3.6-4.6c-2.5-2.2-5.5-3.7-8.7-4.4
			c-2.2-0.5-4.5-0.7-6.8-0.6c-2,0-3.9,0.2-5.9,0.5c-0.4,0.1-0.9,0-1.2-0.2c-0.6-0.3-1-1-1-1.6c-0.2-1.1,0.6-2.2,1.7-2.4c0,0,0,0,0,0
			c0.8-0.1,1.5-0.2,2.3-0.3c3.1-0.3,6.3-0.3,9.4,0L332.6,488.2z"/>
		<path class="st0" d="M207.9,553c0-0.1,0-0.2,0-0.3c-0.1-1.2,0.8-2.2,2-2.2c0.3,0,0.5,0,0.8,0.1c0.5,0.2,0.9,0.5,1.1,0.9
			c0.4,0.5,0.5,1.2,0.3,1.8c-0.1,0.6-0.5,1-1.1,1.2c-0.2,0.1-0.5,0.2-0.7,0.2c-0.7,0.1-1.4-0.2-1.8-0.7c-0.1-0.1-0.2-0.2-0.2-0.2
			L207.9,553z"/>
		<path class="st0" d="M300.5,580.5c-0.1,0-0.2,0-0.4,0c-0.8,0.1-1.6-0.2-2-0.9c-0.4-0.5-0.5-1.2-0.3-1.9c0.2-0.8,0.9-1.4,1.7-1.5
			c0.8-0.2,1.6,0.2,2,0.8c0.3,0.4,0.5,0.9,0.5,1.5c0,0.7-0.4,1.3-1,1.7l-0.2,0.2L300.5,580.5z"/>
		<path class="st0" d="M374.8,534.2C374.8,534.2,374.8,534.2,374.8,534.2c0.2,1.2-0.6,2.2-1.7,2.3c0,0,0,0,0,0
			c-1.1,0.2-2.2-0.5-2.4-1.6c0,0,0,0,0-0.1c-0.3-0.8,0-1.7,0.7-2.2c0.8-0.7,2-0.6,2.7,0.2c0.1,0.1,0.2,0.2,0.3,0.4L374.8,534.2z"/>
		<path class="st0" d="M229.5,568.5c0.4,0.9,0.1,1.9-0.7,2.5c-0.9,0.7-2.2,0.6-2.9-0.3c-0.2-0.2-0.3-0.5-0.4-0.8
			c-0.1-0.3-0.1-0.7-0.1-1c0.2-1.1,1.3-1.9,2.4-1.7C228.6,567.3,229.2,567.8,229.5,568.5L229.5,568.5z"/>
		<path class="st0" d="M365.2,525.1c0.4,0.9,0.1,1.9-0.6,2.5c-0.9,0.7-2.2,0.6-2.9-0.3c-0.2-0.2-0.3-0.5-0.4-0.8
			c-0.3-0.8,0-1.8,0.7-2.3c0.9-0.7,2.2-0.6,2.9,0.3C365,524.6,365.1,524.8,365.2,525.1z"/>
		<path class="st0" d="M226.8,548.7c0.2,0.4,0.2,0.9,0.1,1.3c-0.2,0.7-0.7,1.3-1.5,1.5c-0.7,0.3-1.5,0.1-2-0.4
			c-0.5-0.4-0.7-1-0.8-1.7c0-0.9,0.6-1.7,1.4-2c1-0.4,2.2,0.1,2.6,1.1C226.7,548.6,226.7,548.6,226.8,548.7z"/>
		<path class="st0" d="M351.7,540c-0.4-0.8-0.2-1.8,0.5-2.4c0.8-0.8,2.2-0.7,2.9,0.1c0.2,0.2,0.3,0.5,0.4,0.7c0.2,0.5,0.2,1,0.1,1.4
			c-0.1,0.5-0.5,1-1,1.2c-0.3,0.2-0.7,0.3-1,0.3c-0.8,0-1.5-0.5-1.8-1.2C351.8,540.2,351.8,540.1,351.7,540z"/>
		<path class="st3" d="M332.6,488.2h-0.2c-3.1-0.3-6.3-0.3-9.4,0c-0.8,0.1-1.5,0.2-2.3,0.3c-1.1,0.2-2,1.2-1.8,2.4c0,0,0,0,0,0
			c0,0.7,0.4,1.3,1,1.6c0.4,0.2,0.8,0.3,1.2,0.2c1.9-0.3,3.9-0.4,5.9-0.5c2.3-0.1,4.5,0.2,6.8,0.6c3.2,0.7,6.3,2.2,8.7,4.4
			c1.4,1.3,2.6,2.9,3.6,4.6c0.7,1.1,1.2,2.3,1.7,3.6c1.1,2.9,1.6,6.1,1.6,9.2c0,3.3-0.5,6.6-1.4,9.7c-0.6,2.3-1.4,4.5-2.4,6.7
			c-2.4,5.6-6,10.5-10.7,14.5c-2.3,1.9-4.7,3.7-7.2,5.2c-2,1.2-4,2.3-6.1,3.3c-1.4,0.7-2.8,1.3-4.2,1.9c-1.8,0.7-3.6,1.4-5.4,2.1
			c-1.6,0.6-3.2,1.1-4.9,1.7c-2.1,0.7-4.1,1.3-6.2,2c-1.5,0.5-3,0.9-4.5,1.3c-2.1,0.6-4.2,1.1-6.4,1.5c-2.9,0.5-5.8,0.9-8.7,1
			c-6.6,0.3-13.1-0.8-19.3-3c-5.3-1.9-10.1-4.8-14.3-8.5c-3-2.7-5.7-5.7-8-9.1c-1-1.4-1.9-2.9-2.6-4.4c-1-1.8-1.7-3.8-2-5.9
			c-0.4-2.9,0.5-5.9,2.5-8c1.1-1.2,2.3-2.2,3.7-3c0.6-0.3,1.1-0.7,1.7-1c1.2-0.6,1.6-2.1,0.9-3.3c-0.1-0.2-0.2-0.3-0.3-0.4
			c-0.5-0.6-1.3-0.8-2-0.4c-0.4,0.2-0.7,0.4-1.1,0.6c-1.5,0.8-2.9,1.7-4.2,2.7l-0.6,0.5h-0.1c0-0.1,0-0.2,0-0.3
			c0-2.3,0.4-4.6,1.1-6.8c1-2.7,2.3-5.3,4-7.7c1.6-2.4,3.4-4.7,5.4-6.8c1.2-1.4,2.4-2.7,3.7-3.9c1.9-1.7,3.9-3.2,6.1-4.5
			c2-1.2,4.2-2.3,6.4-3.3c1.4-0.6,2.7-1.1,4.1-1.6c1.8-0.6,3.5-1.2,5.3-1.8c1.3-0.4,2.6-0.8,3.9-1.2c1.5-0.4,3-0.9,4.6-1.3
			s2.8-0.7,4.2-1.1c1.7-0.4,3.4-0.8,5.1-1.1c2.1-0.4,4.2-0.8,6.3-1.1c5-0.8,10.1-1.1,15.2-0.9c3.4,0.1,6.7,0.7,10,1.7
			c3,0.9,5.8,2.3,8.2,4.3c1.1,0.9,2.1,1.9,3,3l0.1,0.2C332.6,488.2,332.6,488.2,332.6,488.2z M263.5,528.8l-0.7-0.2l-0.7-0.2
			c-2.7-0.8-5.5-0.8-8.2,0c-1,0.3-2,0.8-2.9,1.3c-0.6,0.3-0.9,1-0.7,1.6c0.2,0.9,0.9,1.5,1.7,1.7c0.6,0.1,1.2,0,1.6-0.3
			c1.5-0.8,3.3-1.2,5-1.2c1.7,0,3.5,0.4,5.1,1c2.7,1,5.3,2.1,7.9,3.5c1.8,1,3.8,1.6,5.9,1.9c2.5,0.4,5,0.5,7.5,0.3
			c3-0.2,5.9-0.7,8.7-1.5c2.1-0.6,4.1-1.3,6.1-2.1c1.8-0.8,3.6-1.6,5.4-2.6c1.8-1,3.5-2,5.3-3.2c1.9-1.3,3.8-2.5,5.9-3.5
			c1.4-0.7,3-1.2,4.5-1.4c2.2-0.4,4.5-0.3,6.6,0.3c1.5,0.4,2.9,0.8,4.3,1.4c0.3,0.1,0.7,0.2,1,0.2c1-0.1,1.8-0.9,2-1.8
			c0.2-0.9-0.3-1.9-1.1-2.2c-0.3-0.1-0.6-0.3-0.9-0.4c-2.1-0.9-4.3-1.5-6.5-1.9c-2.5-0.4-5-0.3-7.4,0.2l-1,0.2
			c0-0.2,0.1-0.3,0.1-0.4c0.3-1,0.5-2.1,0.5-3.2c0.2-3-0.5-6.1-1.9-8.8c-0.9-1.8-2.2-3.5-3.7-4.9c-3.3-3-7.6-4.9-12.1-5.2
			c-3.2-0.3-6.5,0-9.6,0.8l-1.3,0.3c0-0.1,0.1-0.2,0.1-0.3c0.6-1.3,1-2.6,1.5-3.9c0.4-1.1-0.3-2.3-1.4-2.7c-0.1,0-0.2-0.1-0.4-0.1
			c-0.3,0-0.5,0-0.8,0c-0.5,0.2-0.9,0.6-1,1.1c-0.3,0.9-0.6,1.8-0.9,2.7c-0.7,2-1.7,3.8-3.2,5.3c-0.1,0.2-0.3,0.3-0.5,0.4
			c-1.9,0.9-3.8,1.9-5.6,3c-2.2,1.3-4.3,2.8-6.3,4.4c-2.3,1.9-4.4,4-6.1,6.4c-1.2,1.6-2.1,3.4-2.7,5.2c-0.8,2.3-0.7,4.8,0.4,7
			C263,527.8,263.3,528.3,263.5,528.8z M318.5,546.2L318.5,546.2l0.8-0.3c0.8-0.3,1.3-1,1.3-1.8c0-0.4-0.1-0.8-0.3-1.2
			c-0.4-0.9-1.4-1.4-2.4-1.1c-0.6,0.2-1.2,0.4-1.8,0.7c-0.6,0.3-1,0.8-1.1,1.5c-0.1,0.5,0.1,1.1,0.4,1.6c0.4,0.8,1.3,1.1,2.2,0.9
			C317.9,546.5,318.2,546.3,318.5,546.2L318.5,546.2z M305.1,538.7L305.1,538.7l-0.8,0.3c-0.9,0.3-1.4,1.3-1.2,2.2
			c0,0.3,0.1,0.5,0.2,0.8c0.4,0.9,1.4,1.4,2.3,1.1c0.7-0.2,1.4-0.5,2-0.8c0.7-0.3,1.1-1,1-1.8c0-0.3-0.1-0.7-0.2-1
			c-0.4-0.9-1.4-1.4-2.3-1.2C305.8,538.5,305.5,538.6,305.1,538.7L305.1,538.7z M247.3,515.1c0.3-0.1,0.6-0.2,0.8-0.4
			c0.5-0.2,0.9-0.6,1.2-1.1c0.6-1,0.4-2.3-0.6-2.9c-0.1-0.1-0.2-0.1-0.3-0.2c-0.6-0.4-1.4-0.4-2,0c-0.3,0.2-0.7,0.4-1.1,0.6
			c-0.6,0.3-1.1,0.8-1.2,1.5c-0.1,0.5,0,1,0.2,1.5c0.4,0.9,1.3,1.3,2.2,1.1C247,515.2,247.2,515.1,247.3,515.1L247.3,515.1z
			 M255.8,546.2c-0.2,0.1-0.5,0.2-0.8,0.3c-0.1,0-0.3,0.1-0.4,0.2c-0.7,0.5-1,1.4-0.8,2.2c0.2,1.1,1.3,1.9,2.4,1.7
			c0.2,0,0.3-0.1,0.5-0.1c0.4-0.2,0.9-0.3,1.3-0.5c0.7-0.3,1.1-0.9,1.2-1.6c0.1-0.6-0.1-1.2-0.5-1.7c-0.5-0.8-1.5-1.1-2.4-0.7
			C256.2,546,256,546.1,255.8,546.2L255.8,546.2z M280.6,552.9c-0.3-0.6-0.9-1.1-1.6-1.2c-0.7-0.1-1.4-0.1-2.2,0.1
			c-0.1,0-0.2,0-0.2,0.1c-0.8,0.4-1.3,1.2-1.3,2.1c0,0.7,0.4,1.3,0.9,1.6c0.5,0.3,1,0.4,1.5,0.4c0.4,0,0.8,0,1.2-0.1
			c0.2,0,0.4-0.1,0.6-0.2C280.6,555.2,281.1,554,280.6,552.9L280.6,552.9z M251.3,539.8c-0.3-0.5-0.7-1-1.3-1.2
			c-1.1-0.5-2.3,0-2.8,1.1c0,0.1-0.1,0.2-0.1,0.3c0,0.1-0.1,0.2-0.2,0.3c-0.6,0.7-0.5,1.7,0.1,2.4c0.7,1,2.1,1.2,3.1,0.5
			c0.2-0.1,0.3-0.2,0.4-0.4c0.5-0.6,0.8-1.3,0.9-2.1C251.4,540.4,251.4,540.1,251.3,539.8L251.3,539.8z M265.9,545l-0.3,0.2
			l-0.2,0.1c-0.7,0.6-0.9,1.5-0.7,2.3c0.2,0.8,0.9,1.4,1.8,1.5c0.5,0,0.9,0,1.4,0.1c0.1,0,0.1,0,0.2,0c1.1-0.2,1.8-1.1,1.9-2.1
			c0-0.3-0.1-0.6-0.2-0.9c-0.4-0.8-1.1-1.3-2-1.3C267.1,544.7,266.5,544.8,265.9,545z M334.9,510.1c0.6-0.3,1.2-0.6,1.7-1.1
			c0.3-0.2,0.5-0.5,0.6-0.9c0.4-1.1-0.2-2.3-1.3-2.7c-0.5-0.2-1-0.2-1.5,0c-0.5,0.2-1,0.6-1.4,0.9c-0.9,0.8-1,2.1-0.2,3
			C333.3,510,334.1,510.3,334.9,510.1L334.9,510.1z M320.6,537L320.6,537l0.6-0.2c0.8-0.3,1.3-1.1,1.2-2c0-0.3-0.1-0.5-0.2-0.8
			c-0.4-0.9-1.4-1.5-2.4-1.2c-0.5,0.1-1,0.3-1.5,0.6c-0.8,0.4-1.2,1.2-1,2.1c0,0.3,0.1,0.5,0.2,0.8c0.4,0.9,1.4,1.4,2.4,1.1
			C320.2,537.2,320.4,537.1,320.6,537z M256.3,503.6L256.3,503.6l0.4-0.2c0.6-0.2,1-0.7,1.2-1.3c0.1-0.4,0.1-0.8,0-1.2
			c-0.2-1-1.1-1.7-2.1-1.7c-0.7,0.1-1.4,0.3-2,0.8c-0.7,0.5-0.9,1.5-0.6,2.3c0.2,1,1.2,1.6,2.1,1.6
			C255.7,503.8,256,503.7,256.3,503.6L256.3,503.6z M293,557.1L293,557.1c0.2-0.1,0.4-0.1,0.5-0.2c0.7-0.3,1.2-1,1.2-1.7
			c0-0.4-0.1-0.9-0.3-1.3c-0.4-0.9-1.5-1.3-2.5-1c-0.3,0.1-0.7,0.2-1,0.4c-0.6,0.3-1.1,0.9-1.1,1.6c-0.1,0.7,0.2,1.4,0.7,1.9
			c0.4,0.5,1.1,0.7,1.8,0.6C292.5,557.3,292.8,557.2,293,557.1z M298.4,547.8c-0.3-0.9-1.3-1.5-2.3-1.4c-0.1,0-0.1,0-0.2,0
			c-1,0-2,0.7-2.2,1.7c-0.2,1,0.3,2,1.2,2.4c0.9,0.4,1.9,0.3,2.8-0.2c0.6-0.3,0.9-1,0.9-1.6C298.5,548.3,298.5,548,298.4,547.8
			L298.4,547.8z M312.5,494.8c0.6-0.3,1.1-0.8,1.5-1.4c0.5-1.1,0.1-2.3-0.9-2.9c-0.3-0.2-0.6-0.3-1-0.3c-1.1,0.1-2,0.7-2.5,1.7
			c-0.4,0.8-0.2,1.7,0.4,2.3C310.7,494.9,311.6,495.1,312.5,494.8L312.5,494.8z M339.6,510.5L339.6,510.5c-0.2,0-0.3,0.1-0.5,0.2
			c-0.6,0.3-1.1,0.9-1.1,1.6c-0.1,0.6,0.1,1.2,0.5,1.6c0.5,0.7,1.4,1.1,2.2,0.8c0.3-0.1,0.7-0.3,1-0.4c0.5-0.3,0.9-0.7,1-1.3
			c0.1-0.5,0-1-0.2-1.5c-0.4-0.9-1.4-1.4-2.3-1.2C340,510.3,339.8,510.4,339.6,510.5L339.6,510.5z M322.8,504.8L322.8,504.8
			l-0.4,0.2c-0.7,0.3-1.2,1-1.2,1.7c0,0.4,0.1,0.8,0.2,1.2c0.4,0.9,1.3,1.4,2.2,1.2c0.5-0.1,0.9-0.3,1.3-0.5c0.6-0.3,1-0.9,1-1.5
			c0.1-0.7-0.2-1.4-0.6-1.9c-0.4-0.5-1.1-0.7-1.8-0.6C323.3,504.6,323.1,504.7,322.8,504.8L322.8,504.8z M295.8,484.4
			c-0.5,0.1-0.9,0.4-1.2,0.8c-0.5,0.8-0.5,1.8,0.1,2.6c0.5,0.7,1.4,1,2.2,0.8c0.5-0.1,0.9-0.3,1.3-0.6c0.6-0.5,0.8-1.4,0.5-2.1
			c-0.2-1.1-1.3-1.8-2.4-1.6C296.1,484.3,296,484.4,295.8,484.4L295.8,484.4z M270.3,503.1c1-0.3,1.6-1.4,1.3-2.5
			c-0.1-0.7-0.6-1.3-1.3-1.6c-0.7-0.3-1.6-0.1-2.1,0.4c-0.6,0.5-0.8,1.2-0.7,1.9c0.1,1.2,1.1,2,2.2,1.9
			C270,503.2,270.2,503.2,270.3,503.1L270.3,503.1z M277.6,490.2c-0.4-1.1-1.5-1.7-2.6-1.3c-0.2,0.1-0.4,0.2-0.6,0.3
			c-0.4,0.3-0.7,0.7-0.8,1.1c-0.1,0.6,0,1.2,0.3,1.8c0.6,1,1.8,1.4,2.8,0.8c0.7-0.4,1.1-1.1,1.1-1.9
			C277.8,490.7,277.7,490.4,277.6,490.2L277.6,490.2z M241.3,532.7c0,0.1,0,0.1,0.1,0.2c0.3,0.7,1.1,1.1,1.8,0.8
			c0.1,0,0.1-0.1,0.2-0.1c0.8-0.5,1.4-1.2,1.8-2c0.1-0.2,0.2-0.5,0.1-0.7c-0.1-0.6-0.5-1.2-1.1-1.3c-0.6-0.2-1.3,0.1-1.6,0.6
			c-0.2,0.3-0.5,0.6-0.9,0.9C241.2,531.3,241,532.1,241.3,532.7L241.3,532.7z M330.8,511.3c-0.2-0.7-0.9-1.1-1.7-1
			c-0.3,0.1-0.6,0.3-0.9,0.5c-0.2,0.2-0.4,0.3-0.7,0.5c-0.8,0.3-1.1,1.2-0.8,2c0.2,0.7,1,1.1,1.7,0.9c0.1,0,0.1-0.1,0.2-0.1l0.2-0.1
			c0.6-0.3,1.1-0.7,1.6-1.1C330.9,512.5,331,511.9,330.8,511.3L330.8,511.3z M283.9,546c-0.2,0.1-0.3,0.1-0.5,0.2
			c-0.6,0.2-0.9,0.8-0.9,1.5c0.1,0.8,0.8,1.5,1.6,1.4c0.2,0,0.4-0.1,0.5-0.1c0.3-0.1,0.7-0.2,1-0.2c0.8-0.1,1.4-0.9,1.3-1.7
			c0-0.1-0.1-0.3-0.1-0.4c-0.3-0.6-0.9-0.9-1.5-0.9C284.9,545.7,284.4,545.8,283.9,546z M327.1,534c0.3,0.8,1.2,1.1,2,0.8
			c0.1-0.1,0.2-0.1,0.3-0.2c0.2-0.2,0.5-0.3,0.7-0.5c0.2-0.2,0.4-0.4,0.6-0.7c0.4-0.6,0.2-1.4-0.3-1.8c-0.6-0.5-1.4-0.5-1.9,0
			l-0.5,0.4c-0.2,0.2-0.4,0.3-0.6,0.5C327,532.9,326.9,533.5,327.1,534z M251.1,523.7c0.2,0.7,1,1.2,1.8,0.9c0,0,0.1,0,0.1,0
			c0.7-0.3,1.2-0.8,1.6-1.4c0.3-0.4,0.3-1,0-1.5c-0.4-0.7-1.4-0.9-2.1-0.5c-0.1,0-0.1,0.1-0.2,0.2c-0.2,0.3-0.5,0.5-0.8,0.7
			C251,522.5,250.8,523.2,251.1,523.7L251.1,523.7z M269.2,555.4c0.4-0.1,0.8-0.5,0.9-0.9c0.2-0.6,0-1.2-0.5-1.6
			c-0.4-0.4-1-0.5-1.5-0.3c-0.2,0.1-0.3,0.1-0.5,0.1c-0.5,0-1,0.3-1.2,0.8c-0.3,0.5-0.3,1.1,0,1.5c0.3,0.4,0.7,0.7,1.2,0.7
			C268.1,555.7,268.7,555.7,269.2,555.4L269.2,555.4z M307.7,545.4L307.7,545.4l-0.4,0.1c-0.7,0.2-1.1,1-0.9,1.8
			c0.2,0.8,0.9,1.3,1.7,1.1c0,0,0.1,0,0.1,0c0.3-0.1,0.7-0.2,1-0.4c0.7-0.3,1-1,0.8-1.7c-0.1-0.8-0.9-1.3-1.7-1.2
			c-0.1,0-0.1,0-0.2,0.1L307.7,545.4z M276,541.9L276,541.9l-0.3,0.1c-0.7,0.2-1.1,1-0.9,1.8c0,0,0,0,0,0c0.1,0.8,0.9,1.3,1.7,1.1
			c0,0,0.1,0,0.1,0c0.4-0.1,0.7-0.2,1-0.4c0.6-0.3,0.9-1,0.8-1.6c-0.1-0.8-0.9-1.4-1.7-1.2c-0.1,0-0.2,0-0.3,0.1L276,541.9z
			 M281,495.8L281,495.8c0.2-0.1,0.3-0.1,0.5-0.2c0.2-0.1,0.3-0.2,0.5-0.3c0.5-0.5,0.5-1.3,0.1-1.9c-0.3-0.6-1-0.8-1.6-0.6
			c-0.3,0.1-0.6,0.2-1,0.4c-0.6,0.2-1,0.9-0.9,1.5c0.1,0.8,0.8,1.4,1.6,1.4c0.2,0,0.3-0.1,0.5-0.1L281,495.8z M261.5,539.6l0.4-0.1
			c0.7-0.2,1.1-1,0.9-1.7c-0.1-0.8-0.8-1.3-1.6-1.2c-0.1,0-0.2,0.1-0.4,0.1c-0.2,0.1-0.5,0.2-0.8,0.3c-0.1,0-0.2,0.1-0.3,0.2
			c-0.5,0.3-0.7,1-0.5,1.5c0.1,0.8,0.9,1.3,1.7,1.2c0.1,0,0.2,0,0.2-0.1L261.5,539.6z M306.9,487.2L306.9,487.2
			c-0.2,0.1-0.3,0.1-0.5,0.2c-0.5,0.2-0.8,0.7-0.8,1.2c0,0.4,0.1,0.8,0.4,1.1c0.4,0.5,1,0.6,1.5,0.4l0.8-0.3c0.7-0.2,1.1-1,0.9-1.7
			c-0.1-0.8-0.9-1.4-1.7-1.3c0,0,0,0,0,0C307.3,487,307,487.1,306.9,487.2L306.9,487.2z M259.3,508.5c0.2,0.8,1.1,1.2,1.9,1
			c0.2-0.1,0.4-0.2,0.6-0.3l0.4-0.3c0.6-0.4,0.8-1.2,0.4-1.8c-0.4-0.8-1.3-1.1-2-0.7c-0.1,0.1-0.2,0.1-0.3,0.2
			c-0.2,0.1-0.3,0.3-0.5,0.4C259.2,507.2,259,507.9,259.3,508.5L259.3,508.5z M328.7,499.5c-0.2-0.7-0.9-1.1-1.6-1
			c-0.8,0.1-1.4,0.8-1.3,1.6c0,0,0,0,0,0c0.1,0.3,0.2,0.6,0.3,0.8c0.2,0.4,0.7,0.6,1.1,0.6c0.8,0.1,1.5-0.6,1.6-1.4
			C328.9,499.9,328.8,499.7,328.7,499.5L328.7,499.5z M302.9,491.8c-0.2-0.6-0.7-1-1.2-1c-0.5,0-1,0.2-1.4,0.5
			c-0.6,0.7-0.5,1.6,0.1,2.2c0.7,0.6,1.6,0.5,2.2-0.1C303.1,492.9,303.2,492.3,302.9,491.8L302.9,491.8z M336,502.8
			c0.7-0.2,1.2-1,0.9-1.8c0-0.1-0.1-0.2-0.1-0.2c-0.2-0.8-1.1-1.3-1.9-1c-0.8,0.2-1.3,1.1-1,1.9c0,0.1,0.1,0.2,0.1,0.2
			c0.3,0.8,1.1,1.2,1.8,0.9C335.9,502.7,336,502.7,336,502.8L336,502.8z M315.7,486.1c0.2,0.7,1,1.2,1.7,1c0,0,0,0,0,0
			c0.6-0.1,1.1-0.6,1.2-1.2c0-0.7-0.3-1.3-0.9-1.7c-0.6-0.2-1.3-0.1-1.8,0.3C315.6,484.9,315.4,485.5,315.7,486.1L315.7,486.1z
			 M264.8,497c0.7-0.2,1.1-1,0.9-1.8c0-0.1,0-0.1-0.1-0.2c-0.2-0.8-1-1.2-1.8-1c-0.8,0.2-1.2,1-1,1.8c0,0.1,0.1,0.2,0.1,0.2
			c0.2,0.7,1,1.2,1.8,0.9C264.7,497,264.7,497,264.8,497z"/>
		<path class="st0" d="M263.5,528.8c-0.2-0.5-0.5-1-0.7-1.4c-1-2.2-1.2-4.7-0.4-7c0.7-1.9,1.6-3.6,2.7-5.2c1.7-2.4,3.8-4.6,6.1-6.4
			c2-1.6,4.1-3.1,6.3-4.4c1.8-1.1,3.7-2.1,5.6-3c0.2-0.1,0.4-0.2,0.5-0.4c1.4-1.5,2.5-3.4,3.2-5.3c0.3-0.9,0.6-1.8,0.9-2.7
			c0.1-0.5,0.5-0.9,1-1.1c0.3-0.1,0.5-0.1,0.8,0c1.2,0.2,2,1.2,1.8,2.4c0,0.1,0,0.2-0.1,0.4c-0.5,1.3-0.9,2.6-1.5,3.9
			c0,0.1,0,0.1-0.1,0.3l1.3-0.3c3.1-0.8,6.4-1.1,9.6-0.8c4.5,0.4,8.8,2.2,12.1,5.2c1.5,1.4,2.7,3,3.7,4.9c1.4,2.7,2,5.7,1.9,8.8
			c-0.1,1.1-0.2,2.1-0.5,3.2c0,0.1,0,0.2-0.1,0.4l1-0.2c2.4-0.6,5-0.7,7.4-0.2c2.2,0.4,4.4,1,6.5,1.9c0.3,0.1,0.6,0.2,0.9,0.4
			c0.9,0.4,1.3,1.3,1.1,2.2c-0.2,1-1,1.8-2,1.8c-0.3,0-0.7,0-1-0.2c-1.4-0.6-2.8-1.1-4.3-1.4c-2.2-0.6-4.4-0.7-6.6-0.3
			c-1.6,0.3-3.1,0.8-4.5,1.4c-2,1-4,2.1-5.9,3.5c-1.7,1.2-3.5,2.2-5.3,3.2c-1.8,1-3.6,1.9-5.4,2.6c-2,0.8-4,1.6-6.1,2.1
			c-2.9,0.8-5.8,1.3-8.7,1.5c-2.5,0.2-5,0.1-7.5-0.3c-2.1-0.3-4-1-5.9-1.9c-2.5-1.4-5.1-2.5-7.9-3.5c-1.6-0.6-3.4-1-5.1-1
			c-1.7-0.1-3.5,0.4-5,1.2c-0.4,0.3-1,0.4-1.5,0.3c-0.8-0.2-1.5-0.9-1.7-1.7c-0.1-0.6,0.2-1.3,0.7-1.6c0.9-0.5,1.9-1,2.9-1.3
			c2.7-0.8,5.5-0.8,8.2,0l0.7,0.2L263.5,528.8z M287.5,504.1L287.5,504.1l-0.4,0.1c-1.3,0.5-2.6,1.1-3.8,1.8
			c-1.3,0.7-2.6,1.5-3.9,2.3c-2.1,1.2-4,2.6-5.9,4.1c-1.7,1.4-3.2,3-4.5,4.8c-0.9,1.3-1.6,2.7-1.9,4.2c-0.3,1.5-0.2,3.1,0.4,4.5
			c0.6,1.5,1.6,2.9,2.8,4c1.7,1.4,3.6,2.5,5.7,3.2c0.9,0.3,1.7,0.6,2.6,0.7c1.9,0.3,3.8,0.3,5.7,0.2c3.4-0.2,6.7-0.8,9.9-1.8
			c2.1-0.7,4-1.6,6-2.6c2.1-1.1,4.1-2.3,6.1-3.5c1.5-0.9,3-1.8,4.5-2.7c0.1-0.1,0.2-0.2,0.3-0.3c0.2-0.2,0.4-0.4,0.5-0.6
			c0.4-0.5,0.8-0.9,1.2-1.4c1.8-2.3,2.3-5.5,1.3-8.2c-0.5-1.4-1.2-2.6-2.1-3.8c-2.2-2.8-5.1-4.9-8.4-6.2c-1.3-0.5-2.7-0.9-4.1-1
			c-1.2-0.1-2.4-0.1-3.6,0.1c-2.2,0.3-4.3,0.7-6.4,1.4C288.9,503.6,288.2,503.9,287.5,504.1L287.5,504.1z"/>
		<path class="st0" d="M318.5,546.2c-0.4,0.1-0.7,0.2-1,0.3c-0.8,0.2-1.7-0.2-2.2-0.9c-0.3-0.5-0.4-1-0.4-1.6
			c0.1-0.7,0.5-1.3,1.1-1.5c0.6-0.3,1.2-0.5,1.8-0.7c1-0.3,2,0.2,2.4,1.1c0.2,0.4,0.3,0.8,0.3,1.2c0,0.8-0.6,1.5-1.3,1.8
			L318.5,546.2L318.5,546.2z"/>
		<path class="st0" d="M305.1,538.7c0.3-0.1,0.7-0.3,1-0.4c0.9-0.2,1.9,0.3,2.3,1.2c0.2,0.3,0.2,0.7,0.2,1c0.1,0.7-0.3,1.5-1,1.8
			c-0.6,0.3-1.3,0.6-2,0.8c-1,0.3-2-0.2-2.3-1.1c-0.1-0.2-0.2-0.5-0.2-0.8c-0.2-0.9,0.4-1.9,1.2-2.2L305.1,538.7L305.1,538.7z"/>
		<path class="st0" d="M247.4,515.1c-0.2,0-0.4,0.1-0.6,0.2c-0.9,0.2-1.9-0.3-2.2-1.1c-0.2-0.4-0.3-1-0.2-1.5
			c0.1-0.7,0.5-1.2,1.2-1.5c0.4-0.2,0.7-0.4,1.1-0.6c0.6-0.4,1.4-0.4,2,0c1,0.5,1.5,1.7,1,2.8c0,0.1-0.1,0.2-0.2,0.3
			c-0.3,0.5-0.7,0.8-1.2,1.1C247.9,514.8,247.6,514.9,247.4,515.1z"/>
		<path class="st0" d="M255.8,546.2c0.2-0.1,0.4-0.2,0.7-0.3c0.9-0.4,1.9-0.1,2.4,0.7c0.4,0.5,0.5,1.1,0.5,1.7
			c-0.1,0.7-0.5,1.3-1.2,1.6c-0.4,0.2-0.9,0.3-1.3,0.5c-1,0.5-2.3,0-2.7-1.1c-0.1-0.1-0.1-0.3-0.1-0.5c-0.3-0.8,0.1-1.7,0.8-2.2
			c0.1-0.1,0.2-0.1,0.4-0.2C255.3,546.3,255.5,546.3,255.8,546.2z"/>
		<path class="st0" d="M280.6,552.9c0.5,1.1,0,2.3-1,2.9c-0.2,0.1-0.4,0.1-0.6,0.2c-0.4,0-0.8,0.1-1.2,0.1c-0.5,0-1.1-0.1-1.5-0.4
			c-0.6-0.4-0.9-1-0.9-1.6c0-0.9,0.5-1.7,1.3-2.1c0.1,0,0.2-0.1,0.2-0.1c0.7-0.1,1.4-0.2,2.2-0.1
			C279.7,551.8,280.3,552.2,280.6,552.9z"/>
		<path class="st0" d="M251.3,539.8c0,0.3,0,0.6,0,0.9c-0.1,0.8-0.4,1.5-0.9,2.1c-0.8,0.9-2.2,1.1-3.1,0.3c-0.1-0.1-0.3-0.3-0.4-0.4
			c-0.6-0.7-0.6-1.7-0.1-2.4c0.1-0.1,0.1-0.2,0.2-0.3c0.3-1.1,1.5-1.8,2.6-1.5c0.1,0,0.2,0.1,0.3,0.1
			C250.6,538.8,251.1,539.2,251.3,539.8z"/>
		<path class="st0" d="M265.9,545c0.6-0.2,1.2-0.3,1.8-0.2c0.9,0.1,1.6,0.6,2,1.3c0.1,0.3,0.2,0.6,0.2,0.9c0,1.1-0.8,2-1.9,2.1
			c-0.1,0-0.1,0-0.2,0c-0.5-0.1-0.9,0-1.4-0.1c-0.8-0.1-1.6-0.7-1.8-1.5c-0.2-0.8,0.1-1.7,0.7-2.3l0.2-0.1L265.9,545z"/>
		<path class="st0" d="M334.9,510.1c-1.1,0.3-2.3-0.3-2.6-1.5c-0.2-0.8,0-1.6,0.6-2.2c0.4-0.4,0.9-0.7,1.4-0.9c0.5-0.2,1-0.2,1.5,0
			c1.1,0.4,1.7,1.6,1.3,2.7c-0.1,0.3-0.3,0.6-0.6,0.9C336.1,509.5,335.6,509.8,334.9,510.1z"/>
		<path class="st0" d="M320.6,537c-0.2,0.1-0.4,0.2-0.7,0.2c-1,0.3-2-0.2-2.4-1.1c-0.1-0.2-0.2-0.5-0.2-0.8c-0.2-0.8,0.2-1.7,1-2.1
			c0.5-0.3,1-0.4,1.5-0.6c1-0.2,2,0.3,2.4,1.2c0.1,0.3,0.2,0.5,0.2,0.8c0.1,0.9-0.4,1.7-1.2,2L320.6,537L320.6,537z"/>
		<path class="st0" d="M256.3,503.6c-0.3,0.1-0.7,0.2-1,0.2c-1,0.1-1.9-0.6-2.1-1.6c-0.3-0.8-0.1-1.7,0.6-2.3c0.6-0.4,1.3-0.7,2-0.8
			c1,0,1.9,0.7,2.1,1.7c0.1,0.4,0.1,0.8,0,1.2c-0.2,0.6-0.6,1.1-1.2,1.3L256.3,503.6L256.3,503.6z"/>
		<path class="st0" d="M293,557.1c-0.3,0.1-0.5,0.2-0.8,0.2c-0.7,0.1-1.3-0.1-1.8-0.6c-0.5-0.5-0.7-1.2-0.7-1.9
			c0.1-0.7,0.5-1.3,1.1-1.6c0.3-0.2,0.7-0.3,1-0.4c1-0.3,2,0.1,2.5,1c0.2,0.4,0.3,0.8,0.3,1.3c0,0.8-0.5,1.4-1.2,1.7
			C293.4,557,293.2,557.1,293,557.1L293,557.1z"/>
		<path class="st0" d="M298.4,547.8c0.1,0.3,0.1,0.6,0.1,0.8c0.1,0.7-0.3,1.3-0.9,1.6c-0.8,0.5-1.9,0.6-2.8,0.2
			c-0.9-0.4-1.4-1.4-1.2-2.4c0.3-1,1.2-1.7,2.2-1.7c0.1,0,0.1,0,0.2,0C297.2,546.2,298.1,546.8,298.4,547.8z"/>
		<path class="st0" d="M312.5,494.8c-0.8,0.3-1.8,0.1-2.4-0.5c-0.6-0.6-0.8-1.6-0.4-2.3c0.4-1,1.4-1.7,2.5-1.7c0.4,0,0.7,0.1,1,0.3
			c1,0.6,1.3,1.9,0.9,2.9C313.6,494,313.1,494.4,312.5,494.8z"/>
		<path class="st0" d="M339.6,510.5c0.2-0.1,0.4-0.2,0.6-0.2c1-0.2,2,0.2,2.3,1.2c0.2,0.5,0.3,1,0.2,1.5c-0.1,0.6-0.5,1.1-1,1.3
			c-0.3,0.2-0.7,0.3-1,0.4c-0.8,0.3-1.8,0-2.2-0.8c-0.3-0.5-0.5-1-0.5-1.6c0-0.7,0.5-1.3,1.1-1.6
			C339.3,510.6,339.5,510.5,339.6,510.5L339.6,510.5z"/>
		<path class="st0" d="M322.9,504.8c0.2-0.1,0.5-0.2,0.7-0.2c0.7-0.1,1.3,0.1,1.8,0.6c0.5,0.5,0.7,1.2,0.6,1.9c0,0.6-0.4,1.2-1,1.5
			c-0.4,0.2-0.8,0.4-1.3,0.5c-0.9,0.2-1.9-0.3-2.2-1.2c-0.2-0.4-0.3-0.8-0.2-1.2c0-0.8,0.5-1.4,1.2-1.7L322.9,504.8L322.9,504.8z"/>
		<path class="st0" d="M295.8,484.4c0.2,0,0.4-0.1,0.5-0.2c1.1-0.2,2.2,0.5,2.4,1.6c0.3,0.7,0.1,1.6-0.5,2.1
			c-0.4,0.3-0.8,0.5-1.3,0.6c-0.8,0.3-1.7,0-2.2-0.8c-0.6-0.8-0.6-1.8-0.1-2.6C294.9,484.9,295.3,484.6,295.8,484.4z"/>
		<path class="st0" d="M270.3,503.1c-1.1,0.4-2.3-0.1-2.7-1.2c-0.1-0.2-0.1-0.4-0.1-0.5c-0.2-0.7,0.1-1.5,0.7-1.9
			c0.6-0.5,1.4-0.7,2.1-0.4c0.7,0.3,1.2,0.9,1.3,1.6C272,501.7,271.4,502.8,270.3,503.1z"/>
		<path class="st0" d="M277.7,490.2c0.1,0.2,0.1,0.5,0.1,0.8c0.1,1.1-0.8,2.1-2,2.2c-0.8,0-1.5-0.4-1.9-1.1
			c-0.3-0.5-0.4-1.2-0.3-1.8c0.1-0.5,0.4-0.9,0.8-1.1c0.9-0.7,2.2-0.5,2.9,0.4C277.5,489.8,277.6,490,277.7,490.2z"/>
		<path class="st0" d="M241.3,532.7c-0.3-0.6-0.1-1.3,0.4-1.7c0.3-0.3,0.6-0.6,0.9-0.9c0.4-0.5,1-0.8,1.6-0.6
			c0.6,0.2,1.1,0.7,1.1,1.3c0,0.2,0,0.5-0.1,0.7c-0.4,0.8-1.1,1.5-1.8,2c-0.7,0.4-1.5,0.2-1.9-0.5c0-0.1-0.1-0.1-0.1-0.2
			C241.4,532.8,241.3,532.7,241.3,532.7z"/>
		<path class="st0" d="M330.8,511.3c0.3,0.6,0.1,1.2-0.4,1.6c-0.5,0.4-1,0.8-1.6,1.1l-0.2,0.1c-0.7,0.3-1.5,0.1-1.8-0.6
			c0-0.1-0.1-0.1-0.1-0.2c-0.3-0.8,0-1.7,0.8-2c0.3-0.1,0.5-0.3,0.7-0.5c0.3-0.2,0.6-0.4,0.9-0.5
			C329.9,510.2,330.6,510.6,330.8,511.3z"/>
		<path class="st0" d="M283.9,546c0.5-0.2,1-0.3,1.5-0.3c0.6-0.1,1.3,0.3,1.5,0.9c0.3,0.8,0,1.7-0.8,2c-0.1,0.1-0.3,0.1-0.4,0.1
			c-0.3,0-0.7,0.1-1,0.2c-0.8,0.3-1.7,0-2-0.8c-0.1-0.2-0.1-0.3-0.1-0.5c-0.1-0.6,0.3-1.2,0.9-1.5C283.6,546.1,283.7,546,283.9,546z
			"/>
		<path class="st0" d="M327.1,534c-0.2-0.5-0.1-1.2,0.3-1.6c0.2-0.2,0.4-0.4,0.6-0.5l0.5-0.4c0.6-0.5,1.4-0.5,1.9,0
			c0.6,0.4,0.7,1.2,0.3,1.8c-0.2,0.3-0.4,0.5-0.6,0.7c-0.2,0.2-0.5,0.3-0.7,0.5c-0.6,0.5-1.6,0.4-2.1-0.2
			C327.2,534.2,327.2,534.1,327.1,534z"/>
		<path class="st0" d="M251.1,523.8c-0.3-0.6-0.1-1.2,0.4-1.6c0.3-0.2,0.6-0.5,0.8-0.7c0.6-0.5,1.6-0.5,2.1,0.2
			c0.1,0.1,0.1,0.1,0.2,0.2c0.3,0.4,0.3,1,0,1.5c-0.4,0.6-0.9,1.1-1.6,1.4C252.2,524.9,251.4,524.6,251.1,523.8
			C251.1,523.8,251.1,523.8,251.1,523.8z"/>
		<path class="st0" d="M269.2,555.5c-0.5,0.2-1,0.3-1.6,0.2c-0.5,0-0.9-0.3-1.2-0.7c-0.3-0.5-0.3-1.1,0-1.5c0.2-0.5,0.7-0.8,1.2-0.8
			c0.2,0,0.3,0,0.5-0.1c0.5-0.2,1.1-0.1,1.5,0.3c0.5,0.4,0.6,1.1,0.5,1.6C269.9,555,269.6,555.3,269.2,555.5z"/>
		<path class="st0" d="M307.7,545.4l0.4-0.2c0.8-0.2,1.6,0.2,1.8,1c0,0.1,0,0.1,0,0.2c0.2,0.7-0.2,1.4-0.8,1.7
			c-0.3,0.2-0.7,0.3-1,0.4c-0.8,0.2-1.6-0.3-1.8-1c0,0,0-0.1,0-0.1c-0.2-0.7,0.2-1.5,0.9-1.8L307.7,545.4L307.7,545.4z"/>
		<path class="st0" d="M276,541.9l0.4-0.2c0.8-0.3,1.6,0.1,1.9,0.9c0,0.1,0.1,0.2,0.1,0.3c0.2,0.7-0.1,1.3-0.8,1.6
			c-0.3,0.2-0.7,0.3-1,0.4c-0.8,0.2-1.5-0.2-1.8-1c0,0,0-0.1,0-0.1c-0.2-0.7,0.2-1.5,0.9-1.8c0,0,0,0,0,0L276,541.9L276,541.9z"/>
		<path class="st0" d="M281,495.8l-0.3,0.1c-0.7,0.3-1.6,0-1.9-0.8c-0.1-0.2-0.1-0.3-0.1-0.5c-0.1-0.6,0.2-1.3,0.9-1.5
			c0.3-0.1,0.6-0.3,1-0.4c0.6-0.2,1.3,0.1,1.6,0.6c0.4,0.6,0.3,1.4-0.1,1.9c-0.1,0.1-0.3,0.2-0.5,0.3
			C281.4,495.7,281.2,495.8,281,495.8L281,495.8z"/>
		<path class="st0" d="M261.5,539.6l-0.4,0.1c-0.8,0.3-1.6-0.1-1.9-0.9c0-0.1,0-0.2-0.1-0.2c-0.2-0.6,0-1.2,0.5-1.5
			c0.1-0.1,0.2-0.1,0.4-0.2c0.3-0.1,0.5-0.2,0.8-0.3c0.7-0.3,1.6,0,1.9,0.7c0.1,0.1,0.1,0.2,0.1,0.4c0.2,0.7-0.2,1.5-0.9,1.7
			L261.5,539.6z"/>
		<path class="st0" d="M306.8,487.2c0.2-0.1,0.4-0.2,0.6-0.2c0.8-0.1,1.6,0.4,1.7,1.2c0,0,0,0,0,0c0.2,0.7-0.2,1.4-0.9,1.7l-0.8,0.3
			c-0.6,0.2-1.2,0-1.5-0.4c-0.3-0.3-0.4-0.7-0.4-1.1c0-0.5,0.3-1,0.8-1.2C306.5,487.3,306.6,487.2,306.8,487.2L306.8,487.2z"/>
		<path class="st0" d="M259.3,508.5c-0.3-0.6-0.1-1.2,0.4-1.6c0.1-0.1,0.3-0.3,0.5-0.4c0.6-0.5,1.6-0.4,2.1,0.2
			c0.1,0.1,0.1,0.2,0.2,0.3c0.4,0.6,0.2,1.4-0.4,1.8l-0.4,0.3c-0.6,0.6-1.6,0.5-2.1-0.1C259.4,508.9,259.3,508.7,259.3,508.5z"/>
		<path class="st0" d="M328.7,499.4c0.3,0.8,0,1.6-0.7,2c-0.2,0.1-0.5,0.2-0.8,0.1c-0.5,0-0.9-0.2-1.1-0.6c-0.2-0.3-0.3-0.5-0.3-0.8
			c-0.1-0.8,0.5-1.6,1.3-1.7c0,0,0,0,0,0C327.8,498.3,328.5,498.7,328.7,499.4z"/>
		<path class="st0" d="M302.9,491.7c0.3,0.5,0.2,1.2-0.2,1.6c-0.6,0.7-1.6,0.7-2.2,0.1c-0.7-0.6-0.7-1.6-0.1-2.2
			c0.4-0.4,0.9-0.6,1.4-0.5C302.2,490.8,302.7,491.2,302.9,491.7z"/>
		<path class="st0" d="M336,502.7c-0.7,0.3-1.6,0-1.9-0.7c0-0.1-0.1-0.1-0.1-0.2c-0.4-0.8-0.1-1.7,0.7-2s1.7-0.1,2,0.7
			c0,0.1,0.1,0.2,0.1,0.2c0.4,0.7,0.1,1.6-0.6,1.9C336.1,502.6,336.1,502.7,336,502.7z"/>
		<path class="st0" d="M315.6,486.1c-0.3-0.6-0.2-1.3,0.3-1.7c0.5-0.4,1.2-0.5,1.8-0.3c0.6,0.4,0.9,1,0.9,1.7
			c-0.1,0.6-0.6,1.1-1.2,1.2C316.6,487.2,315.9,486.8,315.6,486.1C315.7,486.1,315.7,486.1,315.6,486.1z"/>
		<path class="st0" d="M264.8,497c-0.8,0.3-1.7-0.1-1.9-0.9c-0.3-0.8,0.1-1.7,0.9-1.9l0,0c0.7-0.3,1.6,0.1,1.9,0.8c0,0,0,0.1,0,0.1
			c0.3,0.7,0,1.5-0.7,1.9C264.9,497,264.8,497,264.8,497z"/>
	</g>
	<path class="st0" d="M545.6,1131.2c0,0.2-0.1,0.4-0.2,0.6c-0.2,0.4-0.5,0.7-0.9,0.7c-1.1,0.2-2.3,0.4-3.4,0.4
		c-1.4,0.1-2.8,0.3-4.1,0.7c-0.9,0.2-1.7,0.5-2.5,0.9c-1.1,0.6-2,1.5-2.5,2.7c-0.3,0.8-0.5,1.6-0.7,2.4c-0.3,1.7-0.4,3.4-0.3,5.2
		c0,0.8,0,1.6,0,2.5c0,0.2-0.1,0.5-0.1,0.7c-0.1,0.5-0.5,0.8-1,0.9c-0.2,0-0.5,0-0.7,0c-0.5-0.1-0.9-0.5-1-1
		c-0.1-0.2-0.1-0.5-0.1-0.7c0-0.7-0.1-1.3-0.1-2c-0.1-1.5-0.3-2.9-0.5-4.4c-0.2-1-0.4-1.9-0.9-2.8c-0.6-1.5-1.9-2.5-3.5-2.9
		c-1.3-0.4-2.6-0.5-3.9-0.5l-4.4,0.1c-0.4,0-0.8,0-1.2,0c-0.5-0.1-0.9-0.4-1.1-0.8c-0.2-0.5-0.1-1.2,0.3-1.6
		c0.3-0.3,0.7-0.5,1.1-0.5c0.2,0,0.3,0,0.5,0c1.8,0,3.6-0.4,5.4-0.6c1.1-0.2,2.2-0.5,3.3-0.9c1.5-0.6,2.6-1.8,3.1-3.3
		c0.2-0.6,0.4-1.3,0.5-1.9c0.3-1.9,0.4-3.8,0.4-5.7c0-0.8,0-1.6,0-2.5c0-0.2,0.1-0.5,0.2-0.7c0.4-0.7,1.3-0.9,2-0.5c0,0,0,0,0,0
		c0.4,0.3,0.7,0.7,0.8,1.2c0,0.2,0,0.5,0.1,0.7c0.1,1.7,0.2,3.5,0.5,5.2c0.1,0.9,0.3,1.8,0.6,2.6c0.2,0.6,0.5,1.2,0.8,1.8
		c0.5,0.8,1.2,1.4,2,1.8c0.8,0.4,1.7,0.6,2.6,0.7c1.7,0.2,3.5,0.2,5.2,0.1c0.8,0,1.6-0.1,2.5-0.1c0.5,0,1,0.2,1.3,0.6
		C545.5,1130.5,545.6,1130.8,545.6,1131.2z"/>
	<path class="st0" d="M568.7,1184.6c0.4,0.1,0.8,0,1-0.3c0.2-0.3,0.5-0.6,0.8-0.8c0.4-0.3,0.8-0.5,1.3-0.5c0.3,0,0.6,0,0.8,0
		c1.2,0,2.4-0.2,3.6-0.5c2-0.4,3.9-1.3,5.5-2.6c1.5-1.1,2.8-2.5,3.8-4.1c1.5-2.3,2.7-4.7,3.6-7.3c0.5-1.3,0.8-2.7,1-4.1
		c0.2-1.2,0.4-2.4,0.6-3.6c0-0.2,0.1-0.4,0.2-0.5c0.3-0.9,1.3-1.4,2.2-1.1c0.1,0,0.2,0.1,0.3,0.1c0.3,0.1,0.5,0.3,0.6,0.6
		c0.3,0.8,0.5,1.6,0.6,2.4c0.3,2.4,0.9,4.8,1.7,7.1c0.3,0.8,0.6,1.6,1,2.3c0.9,1.8,1.9,3.4,3.2,5c1,1.3,2.1,2.4,3.4,3.3
		c2.2,1.7,4.7,2.7,7.5,2.9c0.5,0,0.9,0.1,1.4,0.1c0.3,0.1,0.5,0.2,0.8,0.3c0.7,0.3,1.1,1.1,1,1.8c0,0.6-0.4,1.1-0.9,1.3
		c-0.2,0.1-0.5,0.3-0.8,0.3c-3.2,1-6.2,2.8-8.6,5.1c-3.7,3.5-6.7,7.7-8.6,12.3c-0.4,0.9-0.7,1.9-1,2.9c-0.2,0.9-0.4,1.8-0.4,2.8
		c0,0.6-0.1,1.1-0.2,1.7c-0.2,0.7-0.7,1.1-1.4,1.2c-0.4,0-0.7,0-1.1-0.1c-0.6-0.1-1-0.5-1.3-1c-0.2-0.4-0.4-0.9-0.5-1.3
		c0-0.4-0.1-0.7-0.1-1.1c0-1.3-0.3-2.6-0.8-3.8c-0.4-1.2-0.9-2.5-1.4-3.7c-1.9-4.8-5.4-8.9-9.8-11.6c-1.8-1.1-3.8-2.1-5.8-2.8
		c-0.8-0.2-1.5-0.7-2-1.4c-0.3-0.3-0.6-0.4-1-0.4L568.7,1184.6z M604.5,1185.6c0-0.1,0-0.2,0-0.2c-0.6-0.3-1.1-0.7-1.7-1
		c-3.2-1.8-5.8-4.6-7.4-7.8c-0.5-0.9-0.9-1.8-1.3-2.8c-0.2-0.5-0.5-1-0.8-1.5c0-0.1-0.1-0.1-0.2-0.2c-0.2-0.1-0.4,0-0.5,0.2
		c-0.5,0.8-0.9,1.6-1.3,2.5c-0.6,1.1-1.1,2.2-1.7,3.2c-1.2,2.1-2.9,3.9-4.9,5.3c-0.7,0.5-1.4,1-2.1,1.4l-1.6,1.1
		c-0.3,0.2-0.4,0.6-0.2,0.8c0,0.1,0.1,0.1,0.1,0.2l1.8,1.4c3.2,2.5,5.8,5.6,7.8,9.1c0.3,0.6,0.6,1.2,0.9,1.7
		c0.1,0.2,0.2,0.3,0.3,0.5c0.2,0.2,0.5,0.2,0.7,0c0.2-0.4,0.5-0.8,0.7-1.2c0.8-1.5,1.7-2.9,2.7-4.3c1.6-2.3,3.6-4.3,5.9-6
		c0.8-0.6,1.5-1.1,2.3-1.7c0.2-0.2,0.4-0.4,0.6-0.6C604.5,1185.8,604.5,1185.7,604.5,1185.6L604.5,1185.6z"/>
	<path class="st2" d="M604.5,1185.6c0,0.1,0,0.2-0.1,0.3c-0.2,0.2-0.4,0.4-0.6,0.6c-0.8,0.6-1.5,1.1-2.3,1.7c-2.3,1.7-4.3,3.7-5.9,6
		c-1,1.4-1.9,2.8-2.7,4.3c-0.2,0.4-0.5,0.8-0.7,1.2c-0.2,0.2-0.5,0.2-0.7,0c-0.1-0.2-0.2-0.3-0.3-0.5c-0.3-0.6-0.6-1.2-0.9-1.7
		c-1.9-3.5-4.6-6.7-7.8-9.1l-1.8-1.4c-0.3-0.2-0.3-0.6-0.1-0.9c0,0,0.1-0.1,0.2-0.1l1.6-1.1c0.7-0.5,1.4-0.9,2.1-1.4
		c2-1.4,3.7-3.2,4.9-5.3c0.6-1,1.2-2.1,1.7-3.2c0.4-0.8,0.9-1.7,1.3-2.5c0.1-0.2,0.3-0.2,0.5-0.2c0.1,0,0.2,0.1,0.2,0.2
		c0.3,0.5,0.5,1,0.8,1.5c0.5,0.9,0.9,1.9,1.3,2.8c1.7,3.3,4.3,6,7.4,7.8c0.6,0.3,1.1,0.7,1.7,1
		C604.5,1185.4,604.5,1185.5,604.5,1185.6z"/>
	<g id="Jacket">
		<path class="st0" d="M594.6,400.6c-0.1-0.1-0.2-0.2-0.3-0.2c-0.6-0.2-1.1-0.5-1.3-1.1c-0.8-1.3-1.6-2.7-2.5-4.1
			c-0.4-0.7-0.9-1.5-1.3-2.2c-0.7-1-0.4-2.4,0.6-3c0.9-0.6,2.2-0.4,2.9,0.5c0.2,0.2,0.3,0.4,0.4,0.6c1,1.7,2.1,3.4,3.1,5.2
			c0.2,0.3,0.4,0.5,0.5,0.8c0.6,1,0.4,2.3-0.6,2.9l-0.4,0.4L594.6,400.6z"/>
		<path class="st0" d="M385,261.6c0.1-0.1,0.2-0.1,0.2-0.2s0.1-0.3,0.1-0.4c0.2-0.8,0.9-1.4,1.7-1.5c0.3,0,0.5,0,0.8-0.1l3.2-0.1
			c1.2-0.1,2.5-0.1,3.7-0.2c1.2-0.1,2.2,0.9,2.3,2.1c0,0.2,0,0.4-0.1,0.7c-0.2,0.8-0.8,1.5-1.7,1.6c-0.6,0.1-1.2,0.1-1.9,0.1
			l-3.2,0.1c-0.9,0-1.8,0.1-2.7,0.1c-0.8,0.1-1.6-0.4-2-1.1c-0.1-0.1-0.2-0.3-0.4-0.3C385.1,262.1,385.1,261.9,385,261.6z"/>
		<path class="st0" d="M610.1,371.2c0,0.1-0.1,0.1-0.1,0.2c-0.2,0.9-1,1.5-1.9,1.6c-0.6,0.1-1.3,0.1-2,0.1l-2.5,0.2
			c-1,0.1-2.1,0.1-3.2,0.2c-1.2,0-2.2-0.9-2.3-2.1c0-1.2,0.8-2.2,2-2.3l1.6-0.1l2.4-0.2c1.1-0.1,2.2-0.1,3.2-0.2
			c0.9-0.2,1.8,0.3,2.3,1h0.1C609.9,370.2,610,370.7,610.1,371.2z"/>
		<path class="st0" d="M606.3,386.3c0.2,1.2-0.6,2.3-1.8,2.5c-0.4,0.1-0.8,0-1.2-0.2c-0.2-0.1-0.5-0.2-0.7-0.4l-4.4-3
			c-0.5-0.4-1.1-0.7-1.6-1.1c-0.7-0.5-1-1.3-0.9-2.1c0.2-1.2,1.3-2,2.4-1.9c0.2,0,0.5,0.1,0.7,0.2c0.2,0.1,0.5,0.3,0.7,0.4l4.9,3.4
			c0.3,0.2,0.7,0.4,1,0.7C605.9,385.2,606.2,385.7,606.3,386.3z"/>
		<path class="st0" d="M398.4,253.9c-0.6,0.1-1.3,0-1.8-0.4l-2.7-2c-1.1-0.8-2.1-1.6-3.2-2.4c-0.3-0.2-0.6-0.5-0.8-0.9
			c-0.5-0.9-0.3-1.9,0.4-2.6c0.7-0.7,1.8-0.8,2.6-0.3c0.3,0.2,0.6,0.4,0.9,0.6l4.9,3.6c0.3,0.2,0.5,0.4,0.8,0.6c0.9,0.8,1,2.1,0.2,3
			c-0.2,0.2-0.4,0.4-0.6,0.5c-0.1,0.1-0.2,0.1-0.2,0.1L398.4,253.9z"/>
		<path class="st0" d="M406.9,242.3c0.1,1-0.4,2-1.3,2.4c-0.9,0.4-1.9,0.1-2.5-0.6c-0.1-0.2-0.3-0.4-0.4-0.6c-1-1.8-2-3.6-3-5.3
			c-0.2-0.3-0.4-0.6-0.5-0.9c-0.6-1.1-0.2-2.4,0.9-3c0.9-0.5,2.1-0.3,2.8,0.6c0.2,0.2,0.3,0.5,0.5,0.7c1.1,2,2.3,4,3.4,6
			C406.7,241.7,406.8,242,406.9,242.3z"/>
		<path class="st1" d="M497.4,283.5c-0.2-1-0.4-1.9-0.6-2.8l0.6-0.2c0.7-0.2,1.1-0.9,1-1.6c-0.2-0.7-0.9-1.1-1.6-1
			c-0.2,0-0.5,0.2-0.7,0c-0.2-0.6-0.4-1.3-0.6-2c-0.6-1.8-1.2-3.6-1.8-5.5c-0.8-2.5-1.6-5-2.3-7.6c-0.3-1.3-0.5-2.5-0.6-3.8
			c-0.1-0.5,0-1.1,0.3-1.5c0.2,0,0.3,0.1,0.4,0.2c0.8,0.7,2,0.8,2.9,0.2c0.9-0.5,1.7-1.1,2.5-1.6c1.4-0.9,2.9-1.7,4.5-2.4
			c1.3-0.6,2.7-0.9,4.1-1c0.6,0,1.3,0,1.9,0c1.6,0.2,3.2,0.2,4.8,0.1c1.5,0,2.9-0.3,4.2-0.9c2.1-0.9,3.4-2.9,3.5-5.1
			c0-0.9,0-1.8-0.2-2.6c-0.3-1.5-0.8-2.9-1.4-4.3c-0.8-1.8-1.6-3.6-2.4-5.4c-0.7-1.5-1.3-3.1-1.8-4.7c-0.3-1-0.5-2-0.6-3
			c-0.2-1.8-0.3-3.6-0.4-5.5c-0.1-1.9-0.3-3.7-0.8-5.5c0-0.1,0-0.2,0-0.2c0.2,0,0.3,0,0.5,0c1.5,0.3,2.9,0.6,4.4,1
			c1.8,0.4,3.5,0.9,5.3,1.4c3.9,1.1,7.8,1.8,11.8,2.1c3,0.3,5.9,0.6,8.9,1c2,0.3,4,0.7,6,1.3c0.5,0.2,1.1,0.4,1.6,0.6
			c0,0.2,0,0.4,0,0.6c-0.3,2.3-0.5,4.5-0.6,6.8c-0.1,1.5-0.1,3,0.1,4.4c0.2,1.3,0.5,2.6,0.9,3.8c1.2,3.5,2.5,6.9,4.1,10.2
			c0.2,0.4,0.4,0.8,0.6,1.2c-0.2,0.2-0.3,0.3-0.5,0.5c-0.5,0.5-0.5,1.4,0.1,1.9c0.1,0.1,0.3,0.2,0.5,0.3c0.2,0,0.4,0,0.5,0
			c0.2,0,0.4,0,0.6-0.1c0.6,0.7,1,1.5,1.4,2.4c-0.1,0.1-0.1,0.1-0.2,0.2c-3,1.9-6.1,3.8-9.3,5.5c-2.9,1.5-5.9,3-9,4.3
			c-4.5,2-8.9,3.9-13.4,5.9c-2.8,1.2-5.7,2.5-8.5,3.7c-2.1,0.9-4.3,1.8-6.4,2.7c-1.5,0.6-2.9,1.3-4.4,2.1c-1.6,0.8-3.2,1.6-4.9,2.2
			c-1.4,0.6-2.8,1.1-4.2,1.6C497.8,283.4,497.6,283.4,497.4,283.5z M502.4,268.7L502.4,268.7c0-0.1,0-0.2-0.1-0.4
			c-0.3-1.2-1.3-2.2-2.5-2.4c-0.5-0.1-1,0-1.5,0.2c-0.8,0.2-1.4,0.8-1.8,1.5c-0.3,0.6-0.4,1.3-0.3,1.9c0.1,1.7,1.4,3,3.1,2.9
			c0.1,0,0.2,0,0.3,0c1.5-0.1,2.7-1.2,2.8-2.7C502.4,269.4,502.4,269,502.4,268.7L502.4,268.7z M501.5,278.8c0.1,0,0.2,0,0.2-0.1
			c0.6-0.3,1.2-0.5,1.7-0.8c0.6-0.3,0.9-1.1,0.6-1.8c0-0.1-0.1-0.2-0.2-0.2c-0.4-0.5-1-0.7-1.6-0.4c-0.6,0.2-1.1,0.5-1.7,0.8
			l-0.2,0.1c-0.5,0.4-0.7,1-0.5,1.6C500.3,278.6,500.9,279,501.5,278.8L501.5,278.8z M512.8,273.5c0.1,0,0.1,0,0.2,0
			c0.6-0.2,1.2-0.5,1.8-0.8c0.7-0.3,0.9-1.1,0.6-1.8c-0.3-0.6-1-0.9-1.6-0.6c-0.6,0.2-1.2,0.5-1.8,0.8c-0.6,0.3-0.9,1-0.6,1.6
			C511.5,273.2,512.2,273.6,512.8,273.5L512.8,273.5z M529.4,266.5h0.1c0.6-0.2,1.3-0.5,1.9-0.8c0.6-0.3,0.8-1,0.6-1.6
			c-0.2-0.6-0.9-1-1.5-0.8c-0.7,0.2-1.4,0.5-2,0.8c-0.6,0.3-0.8,1-0.6,1.6C528.2,266.3,528.8,266.6,529.4,266.5L529.4,266.5z
			 M540.6,261.9c0.1,0,0.2-0.1,0.3-0.1l1.5-0.7c0.1-0.1,0.2-0.1,0.3-0.2c0.5-0.4,0.6-1.1,0.3-1.7c-0.3-0.6-1-0.8-1.6-0.6
			c-0.6,0.2-1.2,0.5-1.8,0.9c-0.6,0.3-0.8,1-0.5,1.6C539.3,261.7,539.9,262,540.6,261.9L540.6,261.9z M546.8,255.9
			c-0.1,0.1-0.3,0.1-0.5,0.2l-1.2,0.6c-0.1,0-0.2,0.1-0.3,0.2c-0.5,0.4-0.7,1.1-0.4,1.6c0.3,0.6,0.9,0.9,1.5,0.8
			c0.2-0.1,0.4-0.1,0.6-0.2c0.4-0.2,0.8-0.4,1.2-0.6c0.2-0.1,0.3-0.2,0.5-0.3c0.4-0.4,0.5-1,0.2-1.6
			C548.1,256,547.5,255.7,546.8,255.9L546.8,255.9z M507.4,276.1c0.1,0,0.2-0.1,0.3-0.1c0.5-0.3,1.1-0.5,1.6-0.9
			c0.6-0.3,0.8-1.1,0.5-1.7c-0.3-0.6-1-0.9-1.6-0.7c0,0,0,0,0,0c-0.7,0.3-1.3,0.6-1.9,1c-0.5,0.4-0.7,1-0.4,1.6
			C506.2,275.9,506.8,276.2,507.4,276.1L507.4,276.1z M518.5,271.1c0.7-0.2,1.4-0.5,2-0.9c0.6-0.4,0.7-1.3,0.3-1.9
			c-0.3-0.5-0.9-0.7-1.4-0.5c-0.7,0.2-1.3,0.5-1.9,0.8c-0.6,0.3-0.8,1-0.6,1.6C517.2,271,517.9,271.3,518.5,271.1L518.5,271.1z
			 M525,265.5l-0.3,0.1c-0.6,0.2-1.1,0.4-1.7,0.7c-0.6,0.3-0.9,1-0.7,1.7c0.2,0.6,0.9,1,1.6,0.8c0.7-0.2,1.3-0.5,1.9-0.8
			c0.6-0.3,0.8-1,0.6-1.6C526.2,265.7,525.6,265.4,525,265.5L525,265.5z M552,252.7c-0.2,0.1-0.3,0.1-0.5,0.2
			c-0.5,0.3-0.9,0.6-1.4,0.9c-0.1,0.1-0.2,0.1-0.3,0.2c-0.4,0.5-0.5,1.2-0.1,1.7c0.3,0.5,1,0.7,1.6,0.5c0.6-0.3,1.2-0.7,1.8-1.2
			c0.5-0.4,0.6-1,0.3-1.5C553.2,252.9,552.6,252.6,552,252.7L552,252.7z M537.7,262.2c0-0.5-0.4-1-0.9-1.2c-0.3-0.1-0.7-0.1-1,0
			l-1.5,0.6c-0.1,0.1-0.3,0.1-0.4,0.2c-0.5,0.4-0.6,1.1-0.3,1.7c0.3,0.5,0.9,0.8,1.5,0.6c0.7-0.2,1.3-0.5,1.9-0.8
			C537.5,263.2,537.8,262.7,537.7,262.2L537.7,262.2z"/>
		<path class="st1" d="M498,287.7c0.4-0.2,0.8-0.4,1.3-0.5c3-1.1,6-2.3,8.9-3.7c0.7-0.3,1.3-0.7,1.9-1c0.2-0.1,0.3-0.1,0.5-0.2
			c0.1,0.4,0.2,0.8,0.4,1.2c0.4,1.8,1.1,3.6,1.9,5.4c0.4,0.8,0.8,1.6,1.4,2.4c0.4,0.5,0.8,1,1.3,1.5c0.6,0.5,1.3,0.8,2.1,1l1.6,0.3
			l0.6,1.6c1.7,4.3,3.7,8.6,5.8,12.7c0.4,0.8,0.9,1.7,1.3,2.5c0.5,1,1.3,1.9,2.4,2.4l0.2,0.1c0,0,0,0,0.1,0.1
			c0.1,0.5,0.2,1.1,0.3,1.6c0.7,3.4,1.3,6.8,2,10.2c0.2,1.2,0.5,2.4,0.7,3.6c1.3,6.4,2.5,12.9,3.4,19.4c0.5,3.2,0.9,6.4,1.4,9.6
			c0.4,2.7,0.8,5.4,1.2,8.1s0.9,5.6,1.3,8.4c0.2,1.5,0.5,2.9,0.7,4.4c0.2,1.2,0.3,2.3,0.4,3.5c0.1,1.4,0.3,2.7,0.6,4l0.1,0.6
			c-0.1,0.1-0.3,0.1-0.4,0.2c-5.5,1.3-11.1,2.5-16.7,3.6c0,0-0.1,0-0.2-0.1c0-0.1-0.1-0.2-0.1-0.4c-0.2-1-0.3-2-0.5-3
			c-0.3-1.7-0.7-3.5-1.1-5.2c-0.2-0.9-0.4-1.7-0.6-2.6c-0.5-2.2-1.1-4.4-1.6-6.5s-1.1-4.2-1.7-6.3s-1.1-4-1.6-6
			c-0.6-2.2-1.1-4.3-1.7-6.5c-0.5-2.1-1-4.2-1.5-6.4c-0.6-2.6-1.3-5.1-2-7.7c-0.3-1-0.5-2-0.7-3c-0.4-2.4-1-4.7-1.6-7
			c-0.8-2.7-1.5-5.3-2.3-8c-0.5-1.6-0.9-3.2-1.3-4.8c-0.5-2.1-1.2-4.2-1.9-6.2c-0.9-2.5-1.9-5-2.8-7.5c-0.9-2.5-1.7-5-2.2-7.6
			c-0.3-1.3-0.5-2.7-0.7-4c-0.2-1.2-0.3-2.3-0.4-3.5C498,288.2,498,287.9,498,287.7z M529.3,377c-1.4,0.1-2.5,1.3-2.6,2.7
			c0,0.3,0,0.6,0,0.9c0.1,1.6,1.5,2.9,3.2,2.9c1.6,0,2.9-1.2,3-2.8c0-0.4,0-0.7,0-1.1c-0.2-1.6-1.8-2.8-3.4-2.5
			C529.5,377,529.4,377,529.3,377z M511.2,297.6c-0.3-1.8-1.4-3.3-3.5-3c-1.5,0.1-2.6,1.3-2.7,2.8c0,0.6,0,1.1,0.2,1.7
			c0.4,1.3,1.7,2.1,3.1,2c0.3,0,0.7-0.1,1-0.2c0.6-0.2,1.1-0.5,1.4-1.1C511.1,299.2,511.3,298.4,511.2,297.6L511.2,297.6z
			 M519.4,325.5c-0.1-1.6-1.5-2.9-3.2-2.8c-1.5,0-2.7,1-3,2.5c-0.2,0.9,0,1.8,0.4,2.5c0.5,0.9,1.4,1.5,2.4,1.5c0.3,0,0.7,0,1-0.1
			c1.2-0.2,2.1-1.1,2.3-2.3C519.4,326.3,519.5,325.9,519.4,325.5L519.4,325.5z M525.6,351.5c-0.1-0.2-0.1-0.5-0.2-0.7
			c-0.3-1.2-1.3-2-2.5-2.1c-0.4,0-0.8,0-1.2,0.1c-1.1,0.2-2,1.1-2.2,2.2c-0.1,0.5-0.1,1.1,0,1.7c0.3,1.5,1.6,2.6,3.2,2.5
			c1.6,0,2.9-1.3,3-2.9C525.6,352,525.6,351.7,525.6,351.5L525.6,351.5z"/>
		<path class="st1" d="M510.1,394.3c-5.1,1.3-10.1,2.7-15.2,3.9c-0.1-0.2-0.1-0.3-0.2-0.5c-0.4-1.2-0.9-2.5-1.5-3.6
			c-1-2-1.8-4-2.5-6.1c-1.1-3.2-2.3-6.3-3.5-9.5c-1-2.8-2-5.6-3-8.5c-1-2.7-1.9-5.4-2.8-8s-1.9-5.5-2.8-8.2s-2-5.7-3-8.5
			c-1.2-3.5-2.5-6.9-3.8-10.4c-0.8-2.1-1.5-4.2-2.2-6.4c-0.1-0.3-0.1-0.7,0.1-1c0.9-1.7,1.3-3.6,1.4-5.5c0.1-1.8,0.1-3.7,0-5.5
			c-0.1-3-0.5-6.1-0.8-9.1c0-0.1,0-0.3,0-0.4c0.2-0.1,0.3-0.3,0.5-0.4c0.9-0.7,1.6-1.7,1.9-2.9c0.3-1.2,0.4-2.4,0.4-3.5
			c0-1.9-0.3-3.7-0.7-5.6c-0.1-0.4-0.2-0.8-0.2-1.2c0.5-0.1,1-0.1,1.5-0.1c1.4,0.1,2.7,0,4.1-0.1c1.5-0.1,3-0.4,4.5-0.6
			c0.7-0.1,1.4-0.3,2.1-0.4l0.5-0.1c0.1,0.1,0.1,0.2,0.1,0.3c0.5,1.8,0.9,3.7,1.4,5.5c0.6,2.5,1.2,5,1.8,7.5c0.5,1.8,1,3.7,1.5,5.5
			c0.6,2,1.2,4,1.8,6.1c0.4,1.4,0.8,2.9,1.2,4.3c0.2,0.6,0.3,1.3,0.5,2c0.5,2.1,1.1,4.3,1.6,6.5s1.1,4.3,1.7,6.5s1.1,4.1,1.6,6.1
			c0.4,1.5,0.8,3,1.2,4.5c0.3,1.1,0.6,2.3,0.9,3.4s0.6,2.5,0.9,3.8c0.4,1.9,0.9,3.9,1.3,5.8c0.2,1,0.4,2,0.6,3
			c0.5,2.5,1,5.1,1.6,7.6c0.7,3.2,1.3,6.3,2,9.5c0.5,2.1,1,4.2,1.5,6.4c0.5,2.2,1.1,4.4,1.8,6.5c0.1,0.4,0.2,0.8,0.4,1.1
			C510.1,394.1,510.1,394.2,510.1,394.3z M482.3,303c-0.6,0.1-1.2,0.3-1.7,0.4c-0.8,0.3-1.3,1.1-1.1,2c0.2,0.8,1,1.4,1.8,1.3
			c0.9-0.1,1.8-0.3,2.6-0.5c0.9-0.2,1.4-1.1,1.2-2c-0.2-0.9-1-1.5-1.9-1.3L482.3,303z M503.4,384.9l-1.9,0.5l-0.2,0.1
			c-0.2,0-0.3,0.1-0.5,0.2c-0.8,0.4-1.1,1.3-0.8,2.2c0.3,0.8,1.1,1.2,1.9,1.1c0.9-0.2,1.7-0.4,2.6-0.7c0.7-0.3,1.2-1,1.1-1.8
			c-0.1-0.8-0.7-1.4-1.5-1.5C503.9,384.8,503.6,384.8,503.4,384.9L503.4,384.9z M490,333.8L490,333.8c0.4-0.1,0.7-0.1,1-0.2
			c0.2,0,0.4-0.1,0.7-0.2c0.8-0.5,1.1-1.5,0.6-2.3c-0.3-0.6-1-0.9-1.6-0.9l-2.2,0.3c-0.2,0-0.3,0.1-0.5,0.1
			c-0.9,0.3-1.4,1.3-1.1,2.2c0.3,0.8,1.1,1.3,1.9,1.2C489.2,333.9,489.6,333.9,490,333.8z M496.2,355.8c-0.4,0.1-1,0.3-1.6,0.5
			c-0.3,0.1-0.6,0.2-0.9,0.3c-0.7,0.4-1,1.4-0.7,2.1c0.3,0.8,1.2,1.2,2,1c0.8-0.2,1.6-0.5,2.4-0.8c0.5-0.2,0.8-0.5,1-1
			c0.2-0.6,0.1-1.2-0.3-1.7C497.7,355.8,496.9,355.6,496.2,355.8L496.2,355.8z"/>
		<path class="st1" d="M444.3,397.6c-0.2-0.9-0.5-1.7-0.8-2.6c-0.5-2-1-4-1.5-6c-0.3-1.2-0.5-2.5-0.8-3.8c-0.6-3.1-1.1-6.1-1.7-9.2
			s-1.3-6.4-2-9.6c-0.4-2-0.9-4-1.4-6c-0.5-2.3-1.1-4.5-1.7-6.7s-1.3-4.8-2.1-7.1c-1.2-3.9-2.6-7.7-4.1-11.5c-0.6-1.5-1.1-3-1.7-4.5
			c-0.7-1.9-1.5-3.8-2.2-5.7c-0.1-0.3-0.3-0.6-0.4-0.9c-1.2-1.9-2.2-3.9-3.2-6c-1.5-3-2.9-6.1-4.1-9.3c-0.3-0.8-0.6-1.7-0.9-2.5
			c-0.1-0.2-0.1-0.5-0.1-0.8c0.3-2.3,0.6-4.6,1.1-6.9c0.3-1.1,0.4-2.3,0.6-3.5c0-0.2,0.1-0.4,0.1-0.6c0.5,0,5.8,0.3,6.6,0.5
			c0.1,0.3,0.2,0.7,0.3,1c0.2,1.4,0.5,2.8,0.6,4.2c0.2,1.7,0.4,3.4,0.7,5.2c0.1,0.7,0.3,1.4,0.5,2.1c0.3,1.3,1.1,2.4,2.1,3.2
			c0.7,0.5,1.4,1,2.2,1.5c0,0.1,0.1,0.4,0.1,0.6c0.3,2.1,0.6,4.3,0.9,6.4c0.3,1.9,0.7,3.9,1.2,5.8c0.4,1.6,1.1,3.2,1.9,4.7
			c0.6,1,1.4,1.9,2.3,2.6c1.3,1,2.9,1.5,4.5,1.6c0.5,0,1.1,0,1.6,0h0.5c0.2,0.2,0.3,0.4,0.4,0.6c1.5,3.9,3,7.8,4.7,11.6
			c1.3,2.9,2.7,5.8,4,8.7c2.2,4.6,4.2,9.3,6.1,14c2.4,5.9,4.6,11.8,6.8,17.7c0.6,1.6,1.2,3.2,1.9,4.8s1.5,2.8,2.2,4.2
			c0.8,1.4,1.5,2.9,2,4.5c0.2,0.6,0.3,1.2,0.5,1.8c-0.1,0.1-0.3,0.1-0.4,0.1c-0.8,0.1-1.6,0.2-2.5,0.2c-1.4,0.1-2.8,0.1-4.2,0.2
			c-2.9,0.1-5.7-0.1-8.5-0.5c-1.1-0.2-2.2-0.4-3.2-0.8c-1.8-0.6-3.5-1.2-5.2-2c-1.2-0.6-2.4-1.1-3.7-1.6
			C444.4,397.7,444.4,397.7,444.3,397.6z"/>
		<path class="st1" d="M463.7,263.3c1.4-1,3-1.9,4.6-2.5c1.2-0.4,2.5-0.5,3.7-0.3c1.3,0.2,2.5,0.5,3.6,1.1c0.9,0.4,1.6,1,2.3,1.8
			c0.2,0.3,0.4,0.6,0.5,0.9c0.4,1,0.8,2.1,1.1,3.2c1,3.7,1.7,7.5,2.4,11.3c0.2,0.9,0.3,1.8,0.5,2.7c0,0.2,0.1,0.5,0.1,0.7
			c-0.3,0.2-0.7,0.3-1,0.4c-0.2,0.1-0.3,0.1-0.5,0.2c-0.5,0.3-0.7,1-0.5,1.6c0.2,0.6,0.8,0.9,1.4,0.8c0.3-0.1,0.7-0.2,1-0.3
			c0,0.1,0.1,0.1,0.1,0.2l0.6,3c-0.1,0.1-0.2,0.1-0.4,0.2c-0.2,0.1-0.5,0.1-0.7,0.2c-1.6,0.3-3.1,0.5-4.7,0.7
			c-1.1,0.1-2.3,0.2-3.4,0.2c-1,0-1.9,0-2.9,0s-1.9,0-2.9,0.1l-3.9,0.3l-3.5,0.2c-1.1,0.1-2.2,0.1-3.2,0.2l-3.4,0.2l-3.4,0.2
			l-3.4,0.2l-3.5,0.2l-3.1,0.2l-4.4,0.2l-4.4,0.1c-2.7,0.1-5.3,0-8-0.2l-5.7-0.5l-0.4-0.1c0-0.5,0-1,0-1.5c0-0.5,0-1,0-1.5
			c0.8,0.1,1.5,0.1,2.3,0c0.3,0,0.6-0.1,0.8-0.3c0.4-0.3,0.6-0.9,0.5-1.5c-0.1-0.5-0.6-0.9-1.2-0.9c-0.7,0-1.5,0.1-2.2,0.2l-0.3,0
			c-0.1-0.8-0.2-1.6-0.3-2.3c-0.1-2-0.3-4.1-0.4-6.1c-0.1-1.3-0.3-2.6-0.7-3.9c-0.7-2.2-1.4-4.4-2.4-6.5c-1-2.2-2.2-4.2-3.6-6.1
			c-0.2-0.2-0.4-0.5-0.5-0.7c0.1-0.3,0.3-0.6,0.5-0.8c0.6-0.6,1.2-1.2,1.9-1.8c1.8-1.4,3.6-2.8,5.6-4c2.3-1.5,4.6-3,6.9-4.6
			c2.7-1.8,5.3-3.8,7.8-6c1.8-1.6,3.6-3.2,5.4-4.8c0.8-0.7,1.6-1.3,2.4-1.9c0.2-0.1,0.3-0.2,0.5-0.3c0.1,0.4,0.2,0.7,0.3,1
			c0.6,2.3,1.3,4.5,2.2,6.7c0.6,1.5,1.2,3.1,1.8,4.6c0,0.1,0,0.1,0,0.2s-0.3,0.1-0.4,0.1c-1-0.1-2.1,0-3.1,0.2
			c-2.3,0.4-4.5,1.5-6.3,3.1c-2,1.7-3.5,3.9-4.4,6.3c-1,2.5-1.5,5.3-1.4,8c0.1,2.6,0.9,5.2,2.2,7.5c1.5,2.5,3.8,4.5,6.5,5.8
			c2.3,1.1,4.8,1.7,7.3,1.8c2.2,0.1,4.3-0.1,6.4-0.6c2.7-0.6,5.3-2,7.3-3.9c2.3-2.1,3.8-4.9,4.3-8c0.3-1.5,0.2-3.1-0.3-4.6
			C463.6,263.5,463.6,263.4,463.7,263.3z M475.4,273.3L475.4,273.3c-0.5,0.1-0.9,0.1-1.4,0.2c-0.9,0.2-1.5,1.1-1.3,2.1
			c0.1,0.6,0.6,1.1,1.2,1.3c0.3,0.1,0.7,0.1,1,0c0.7-0.1,1.4-0.3,2.1-0.4c0.9-0.2,1.5-1.1,1.3-2c0,0,0,0,0,0c-0.1-0.9-1-1.5-1.9-1.4
			c0,0-0.1,0-0.1,0L475.4,273.3z M470.6,286.6c0.8,0,1.4-0.6,1.4-1.3c0,0,0,0,0,0c0-0.7-0.5-1.3-1.2-1.3c-0.7,0-1.3,0-2,0
			c-0.7,0.1-1.2,0.7-1.1,1.4c0,0.7,0.5,1.3,1.2,1.3C469.5,286.7,470.1,286.6,470.6,286.6L470.6,286.6z M464.3,286.9
			c0.2-0.1,0.4-0.2,0.6-0.3c0.4-0.3,0.6-0.9,0.4-1.5c-0.1-0.5-0.6-0.9-1.1-0.9c-0.7,0-1.4,0-2.1,0.1c-0.7,0.1-1.2,0.7-1.1,1.4
			c0,0.7,0.6,1.2,1.3,1.2C462.9,287,463.5,286.9,464.3,286.9L464.3,286.9z M457.5,287.3l0.5-0.1c0.4-0.1,0.7-0.3,0.8-0.7
			c0.3-0.7,0.1-1.4-0.6-1.8c-0.2-0.1-0.3-0.1-0.5-0.1c-0.7,0-1.3,0-2,0.1c-0.7,0.1-1.2,0.7-1.1,1.4c0,0,0,0,0,0
			c0.1,0.7,0.7,1.2,1.4,1.2C456.4,287.4,456.9,287.4,457.5,287.3L457.5,287.3z M451.7,287.6c0.2-0.1,0.4-0.2,0.6-0.3
			c0.5-0.3,0.7-0.9,0.5-1.5c-0.2-0.6-0.7-1-1.3-1c-0.6,0-1.2,0-1.8,0c-0.7,0-1.3,0.6-1.3,1.3c0,0.7,0.5,1.3,1.2,1.3c0,0,0,0,0,0
			C450.4,287.6,451,287.6,451.7,287.6L451.7,287.6z M443.8,285c-0.5,0-1,0.3-1.3,0.8c-0.3,0.7,0,1.5,0.6,1.8
			c0.2,0.1,0.3,0.1,0.5,0.1c0.4,0,0.7,0,1.1,0c0.3,0,0.6,0,0.9,0c0.7-0.1,1.2-0.6,1.2-1.3c0-0.7-0.5-1.3-1.2-1.4
			C445,285,444.3,285,443.8,285z M476.9,285.9c0.3,0,0.5-0.1,0.8-0.1c0.6-0.1,1-0.7,1-1.3c0-0.6-0.4-1.1-0.9-1.3
			c-0.2-0.1-0.5-0.1-0.7,0c-0.5,0-0.9,0.1-1.3,0.1c-0.1,0-0.2,0-0.3,0c-0.7,0.1-1.3,0.8-1.2,1.5c0.1,0.7,0.7,1.2,1.4,1.2
			C476.1,286,476.5,285.9,476.9,285.9L476.9,285.9z M425.6,284.9c-0.7,0-1.3,0.6-1.3,1.3c0,0.7,0.5,1.3,1.2,1.3c0.7,0,1.3,0,2,0
			c0.7-0.1,1.2-0.6,1.2-1.3c0-0.7-0.5-1.3-1.2-1.4C426.9,284.9,426.2,284.9,425.6,284.9L425.6,284.9z M437.5,285
			c-0.2,0.1-0.4,0.2-0.6,0.3c-0.4,0.3-0.6,0.8-0.5,1.4c0.1,0.5,0.5,0.9,1,1c0.3,0,0.6,0,0.9,0c0.4,0,0.8,0,1.3,0
			c0.7-0.1,1.2-0.7,1.2-1.4c0-0.7-0.5-1.2-1.2-1.3C439,284.9,438.3,285,437.5,285L437.5,285z M431.8,284.9c-0.8,0-1.4,0.6-1.4,1.3
			c0,0.3,0.1,0.6,0.2,0.8c0.2,0.3,0.6,0.5,1,0.5c0.6,0,1.3,0,1.9,0c0.5,0,0.9-0.3,1.1-0.8c0.3-0.7,0-1.5-0.7-1.8
			c-0.1-0.1-0.3-0.1-0.4-0.1C432.8,284.9,432.2,284.9,431.8,284.9L431.8,284.9z"/>
		<path class="st1" d="M555.9,281.8l0.9-1.4c0.5-0.7,0.9-1.4,1.2-2.2c0.5-1.2,0.6-2.6,0.3-3.9c-0.4-1.6-0.8-3.1-1.4-4.6
			c-0.7-1.8-1.3-3.6-1.9-5.5c-0.2-0.7-0.4-1.3-0.5-2l5.8-3.5c0.1,0.1,0.2,0.2,0.3,0.3c1,1.4,2,2.7,3.1,4.1c1.2,1.5,2.3,3.2,3.4,4.8
			c0.1,0.2,0.2,0.5,0.3,0.7c0.1,0.7,0.3,1.4,0.3,2.1c0.1,1.5,0.3,2.9,0.3,4.4s0.2,2.8,0.2,4.1c0.1,3,0.1,6-0.1,9
			c0,0.8,0,1.5,0.1,2.3c0.3,3,0.6,5.9,1,8.9c0.1,0.6,0.1,1.2,0.1,1.8c0.3,4.5,0.9,9,1.7,13.5c0.4,2.3,0.8,4.5,1.3,6.8
			c0.4,1.9,0.8,3.8,1.3,5.8c0.3,1.5,0.7,3,1.1,4.4c0.4,1.7,0.9,3.5,1.3,5.2c0.2,1,0.5,1.9,0.8,2.9c0,0.1,0,0.2,0.1,0.4
			c-0.2,0.1-0.5,0.2-0.7,0.3c-1.2,0.3-2.4,0.6-3.5,0.9c-1,0.2-2.1,0.6-3,1c-0.2,0.1-0.4,0.2-0.6,0.3c-1.5,0.7-2.5,2.2-2.6,3.8
			c-0.1,0.9-0.1,1.8,0,2.7c0.2,1.1,0.4,2.3,0.6,3.4s0.4,2,0.6,3c0.6,3.1,1.2,6.2,2.1,9.3c0.4,1.4,0.8,2.7,1.3,4.1
			c0.2,0.7,0.4,1.4,0.5,2.1c0.1,0.6,0.2,1.2,0.3,1.7c0.1,0.9,0.4,1.7,0.7,2.5c0,0.1,0,0.2,0.1,0.4c-3.2,2-6.5,3.7-10,5.1
			c-0.9,0.4-1.8,0.7-2.7,1c0-0.2-0.1-0.4-0.1-0.5c-0.2-2.2-0.4-4.3-0.6-6.5c-0.1-1.5-0.2-2.9-0.4-4.3s-0.2-2.9-0.3-4.3
			s-0.2-3-0.4-4.5l-0.5-5.7c-0.2-1.8-0.3-3.5-0.5-5.2l-0.7-6.5c-0.2-1.8-0.4-3.7-0.5-5.5s-0.3-3.5-0.5-5.2c-0.1-1.6-0.3-3.2-0.4-4.8
			c-0.3-2.8-0.6-5.5-0.9-8.2c-0.2-2.4-0.5-4.8-0.6-7.2c-0.1-1.4-0.1-2.9-0.1-4.3c0-0.5,0-0.9,0-1.4l0.6-0.3c1.5-0.7,3.1-1.4,4.6-2.2
			c0.4-0.2,0.8-0.4,1.1-0.6c0.9-0.6,1.5-1.5,1.7-2.5c0.2-0.6,0.2-1.2,0.2-1.9c0-0.8-0.1-1.5-0.2-2.3c-0.4-2.2-1.1-4.3-1.9-6.3
			c-1-2.8-2-5.6-3.1-8.4C556.2,282.5,556,282.1,555.9,281.8z"/>
		<path class="st0" d="M554.2,219.8c-0.3-0.2-0.6-0.3-0.9-0.5c-1-0.5-2-0.9-3.1-1.2c-2.2-0.7-4.4-1.2-6.7-1.5
			c-2.7-0.4-5.5-0.7-8.2-0.9c-2.4-0.2-4.8-0.5-7.2-1c-2.2-0.4-4.3-1-6.4-1.6c-2.4-0.6-4.8-1.3-7.2-1.8c-1.5-0.3-3.1-0.5-4.7-0.6
			c-0.4,0-0.8-0.2-1-0.5c-1.2-1.5-2.4-3-3.8-4.3c-2.8-2.8-5.8-5.5-9-7.9c-1.5-1.2-3.1-2.2-4.9-3.1c-0.8-0.5-1.7-0.8-2.7-1.1
			c-0.9-0.3-1.8-0.4-2.7-0.4c-0.1,0-0.2,0-0.3-0.1l-1.8,0.3c0,0,0,0.1-0.1,0.1c-1.3,0.4-2.4,1.1-3.5,1.9c-0.5,0.4-1,0.7-1.5,1.1
			c-0.8,0.6-1.7,1.2-2.5,1.6c-2.3,1.2-4.9,1.8-7.4,1.9c-2.3,0.1-4.6,0-6.8-0.3c-0.9-0.1-1.8-0.2-2.7-0.2c-1.1,0-2.3,0.2-3.4,0.5
			c-2.2,0.6-4.2,1.9-5.7,3.8c-1.1,1.3-2,2.7-2.7,4.2c-1.3,2.7-2.4,5.4-3.4,8.2c-1.2,3.2-2,6.5-2.6,9.8c-0.2,1.1-0.3,2.2-0.4,3.3
			c0,0.2-0.2,0.4-0.4,0.5c-0.3,0.2-0.6,0.4-0.9,0.5c-1.6,1-3.1,2.2-4.5,3.4c-1.6,1.4-3.3,2.9-4.9,4.4c-2.6,2.4-5.3,4.5-8.3,6.4
			c-2.6,1.7-5.1,3.4-7.7,5.1c-1.8,1.2-3.5,2.5-5.2,3.9c-0.8,0.6-1.5,1.3-2.2,2.1c-0.6,0.6-1.1,1.4-1.5,2.1c-0.3,0.7-0.4,1.5-0.2,2.3
			c0.1,0.5,0.3,1,0.6,1.4c0.3,0.5,0.7,1.1,1.1,1.6c1.3,1.7,2.4,3.5,3.2,5.5c0.6,1.6,1.2,3.2,1.8,4.9c0.4,1.2,0.7,2.5,0.8,3.8
			c0.1,1,0.1,2,0.2,3c0.1,1.5,0.2,2.9,0.3,4.4c0.1,1,0.2,2,0.1,3.1c-0.1,3.5-0.5,7-1.3,10.4c-0.2,0.8-0.3,1.5-0.5,2.3
			c-0.3,1.6-0.5,3.2-0.7,4.9c0,0.2,0,0.5,0,0.7c0,0.3,0.1,0.7,0.2,1c0.3,1.4,0.8,2.8,1.3,4.1c1.2,3.1,2.6,6.2,4.1,9.2
			c1,2.1,2,4.2,3.2,6.1c0.1,0.2,0.3,0.5,0.4,0.8c0.7,1.8,1.3,3.5,2,5.2c0.5,1.4,1,2.8,1.6,4.2c2,4.8,3.8,9.8,5.2,14.9
			c0.7,2.4,1.3,4.7,1.9,7.1c0.7,2.8,1.4,5.5,2,8.3s1.3,5.8,1.8,8.7c0.7,3.3,1.3,6.5,1.9,9.8c0.5,2.8,1.1,5.7,1.8,8.5
			c0.6,2.2,1.2,4.3,1.8,6.5c0.7,2.4,1.4,4.8,2.1,7.2c0.3,0.9,0.7,1.8,1.4,2.5c0.5,0.5,1,0.9,1.6,1.3c1.1,0.7,2.3,1.3,3.6,1.8
			c1.8,0.7,3.7,1.3,5.6,1.7c4.5,1,9.1,1.5,13.7,1.6c1.2,0,2.5-0.1,3.7-0.3c0.4-0.1,0.8-0.2,1.2-0.2c2.9-0.5,5.8-0.9,8.7-1.5
			c2.4-0.4,4.7-0.9,7-1.3c1-0.2,2.1-0.4,3.1-0.7c2.1-0.5,4.1-0.9,6.2-1.3c2.9-0.6,5.8-1,8.6-1.6c1.9-0.3,3.8-0.8,5.6-1.3
			c0.7-0.2,1.5-0.5,2.1-0.9c0.7-0.4,1.1-1,1.4-1.7c0.2-0.6,0.3-1.1,0.4-1.7c0.2-1.7,0.2-3.4-0.1-5c-0.4-2.4-1-4.9-1.8-7.2
			c-0.6-2-1.2-4-1.7-6c0-0.1,0-0.2,0-0.3c1.7-0.8,3.6-1.3,5.5-1.3c0.2,0.8,0.3,1.5,0.5,2.3c0.4,2.1,0.8,4.1,1.1,6.2
			c0.4,2.2,0.9,4.4,1.7,6.6c0.4,1.2,0.9,2.5,1.6,3.6c0.4,0.8,1,1.5,1.6,2.1c0.5,0.5,1.2,0.8,1.9,0.9c0.3,0,0.6,0,0.9,0
			c1.5-0.1,3-0.4,4.4-0.8c1.4-0.4,2.8-0.8,4.1-1.2c1.5-0.5,3.1-0.9,4.7-1.4c1-0.3,2.1-0.6,3.2-0.9c1.2-0.3,2.4-0.6,3.6-0.9
			s2.4-0.6,3.6-1c1-0.3,2-0.5,2.9-0.8c1.3-0.4,2.5-0.7,3.8-1.1c1.5-0.4,2.9-0.9,4.4-1.4s2.9-0.9,4.4-1.4c1.4-0.4,2.7-0.9,4-1.6
			c1.9-1,3.7-2.1,5.5-3.2c2.8-1.8,5.5-3.8,8-6.1c1.5-1.3,2.8-2.8,4-4.4c0.6-0.9,1.2-1.8,1.5-2.9c0.4-1,0.5-2.2,0.2-3.2
			c-0.3-1.4-0.6-2.7-0.8-4.1c-0.8-4.5-1.6-9.1-2.7-13.6c-0.4-1.7-0.9-3.3-1.3-5c-0.3-1.3-0.7-2.5-1.1-3.8c-0.5-1.7-1-3.3-1.4-5
			c-0.4-1.4-0.8-2.9-1.2-4.3s-0.8-3.2-1.2-4.8c-0.5-1.9-1-3.8-1.4-5.6s-0.8-3.6-1.2-5.4c-0.8-3.4-1.4-6.9-2-10.4
			c-0.2-1.2-0.4-2.5-0.5-3.8c-0.3-2-0.5-4.1-0.7-6.1c-0.2-1.8-0.3-3.6-0.5-5.5s-0.4-3.5-0.6-5.2c-0.2-1.3-0.2-2.6-0.1-3.9
			c0-0.1,0-0.1,0-0.2c0.1-2.7,0.1-5.4,0-8.1c-0.1-3.2-0.3-6.4-0.6-9.5c-0.1-1-0.3-2-0.6-3c-0.1-0.5-0.3-0.9-0.6-1.3
			c-0.4-0.6-0.8-1.2-1.2-1.7c-0.9-1.3-1.9-2.6-2.8-3.9c-0.8-1-1.5-2-2.3-3c-2-2.9-3.7-5.9-5.2-9.1c-1.7-3.5-3.1-7.1-4.3-10.8
			c-0.5-1.7-0.8-3.5-0.7-5.3c0.1-2.2,0.3-4.4,0.5-6.5c0.1-1,0.2-1.9,0.4-2.9C555.5,221.2,555.1,220.3,554.2,219.8z M451.7,254.1
			c-0.1-1.9-0.4-3.7-0.9-5.5c-0.7-2.4-1.6-4.9-2.6-7.2c-0.6-1.5-1.1-3-1.6-4.5c-0.5-1.7-0.8-3.4-0.9-5.1c0-1.3,0.1-2.5,0.3-3.7
			c0.5-2.9,1.2-5.8,2.1-8.6c1-3,2.1-5.9,3.5-8.7c0.5-1.1,1.2-2.2,1.9-3.2c0.8-1.1,1.9-2,3.2-2.4c0.4-0.1,0.9-0.3,1.3-0.3
			c1-0.2,2.1-0.2,3.1-0.1c2.4,0.4,4.9,0.5,7.4,0.4c1.9-0.1,3.8-0.3,5.6-0.8c2.6-0.7,5.1-1.8,7.3-3.5c0.7-0.5,1.3-1,2-1.5
			c0.4-0.3,0.8-0.6,1.3-0.8c0.5-0.3,1.1-0.4,1.7-0.3c1,0.1,1.9,0.4,2.7,0.9c1.2,0.6,2.4,1.4,3.5,2.2c3.8,2.8,7.3,5.9,10.5,9.4
			c1.1,1.3,2.2,2.6,3.2,4c0.9,1.4,1.5,3,1.6,4.7c0.1,1.5,0.2,2.9,0.3,4.4c0.1,2.2,0.4,4.4,0.9,6.6c0.5,1.9,1.1,3.8,2,5.6
			c0.8,1.8,1.6,3.6,2.4,5.4c0.6,1.3,1,2.6,1.3,4c0.1,0.4,0.1,0.9,0.1,1.3c0.1,0.6-0.3,1.1-0.9,1.2c-0.5,0.1-1,0.3-1.4,0.3
			c-1,0.1-2.1,0.2-3.1,0.1c-1.1-0.1-2.2-0.2-3.3-0.2c-1.4,0-2.9,0.2-4.2,0.6c-2.4,0.7-4.7,1.8-6.9,3.1c-0.3,0.2-0.6,0.4-1,0.5
			c-0.1-0.7-0.1-1.3,0-2c0.1-0.9,0.2-1.8,0.2-2.7c0.1-1.3,0.3-2.6,0.5-3.8c0.4-2.6,1-5.1,1.6-7.6s1.2-5.1,1.6-7.7
			c0.4-2.4,0.6-4.8,0.6-7.2c0-2.1-0.3-4.2-0.8-6.2c-0.4-1.6-0.9-3.1-1.6-4.6c-0.7-1.4-1.7-2.7-2.8-3.8c-1.9-1.8-4.5-2.7-7.1-2.5
			c-1.4,0.1-2.7,0.4-4,0.9c-1.4,0.6-2.7,1.1-4.2,1.5c-1.7,0.5-3.4,0.9-5.1,1.1c-2,0.3-4,0.5-6.1,0.6c-1.6,0.1-3.3,0.3-4.9,0.6
			c-1.2,0.2-2.4,0.6-3.5,1.1c-0.8,0.4-1.6,0.8-2.3,1.4c-1.2,0.9-2.1,2.1-2.6,3.4c-0.6,1.4-0.9,2.8-1,4.3c-0.1,1.5-0.1,3,0.1,4.6
			c0.6,4.4,2,8.6,4,12.6c1,1.8,2.2,3.5,3.5,5.1c1.5,1.8,3.1,3.5,4.6,5.2c1.2,1.3,2.5,2.6,3.6,4c1.2,1.4,2.3,2.9,3.3,4.5l0.3,0.6
			c0,0.1,0,0.1,0,0.2c0,0-0.1,0-0.1,0c-2.6-0.2-5.1,0.4-7.4,1.6c-1.2,0.6-2.4,1.4-3.5,2.1c-1.3,0.9-2.7,1.7-4,2.6
			c-0.8,0.6-1.8,0.9-2.7,1l-1.2,0.2c-0.4-0.3-0.7-0.8-0.8-1.3c-0.1-0.9-0.3-1.9-0.4-2.8C451.8,257.4,451.8,255.8,451.7,254.1z
			 M514.2,291.3c0.4,0.5,0.8,1,1.3,1.5c0.6,0.5,1.3,0.8,2.1,1l1.6,0.3l0.6,1.6c1.7,4.3,3.7,8.6,5.8,12.7c0.4,0.8,0.9,1.7,1.3,2.5
			c0.5,1,1.3,1.9,2.4,2.4l0.2,0.1c0,0,0,0,0.1,0.1c0.1,0.5,0.2,1.1,0.3,1.6c0.7,3.4,1.3,6.8,2,10.2c0.2,1.2,0.5,2.4,0.7,3.6
			c1.3,6.4,2.5,12.9,3.4,19.4c0.5,3.2,0.9,6.4,1.4,9.6c0.4,2.7,0.8,5.4,1.2,8.1s0.9,5.6,1.3,8.4c0.2,1.5,0.5,2.9,0.7,4.4
			c0.2,1.2,0.3,2.3,0.4,3.5c0.1,1.4,0.3,2.7,0.6,4l0.1,0.6c-0.1,0.1-0.3,0.1-0.4,0.2c-5.5,1.3-11.1,2.5-16.7,3.6c0,0-0.1,0-0.2-0.1
			c0-0.1-0.1-0.2-0.1-0.4c-0.2-1-0.3-2-0.5-3c-0.3-1.7-0.7-3.5-1.1-5.2c-0.2-0.9-0.4-1.7-0.6-2.6c-0.5-2.2-1.1-4.4-1.6-6.5
			s-1.1-4.2-1.6-6.3s-1.1-4-1.6-6c-0.6-2.2-1.1-4.3-1.7-6.5c-0.5-2.1-1.1-4.2-1.5-6.4c-0.6-2.6-1.3-5.1-2-7.7c-0.3-1-0.5-2-0.7-3
			c-0.4-2.4-1-4.7-1.6-7c-0.8-2.7-1.5-5.3-2.3-8c-0.5-1.6-0.9-3.2-1.3-4.8c-0.5-2.1-1.2-4.2-1.9-6.2c-0.9-2.5-1.9-5-2.8-7.5
			c-0.9-2.5-1.7-5-2.2-7.6c-0.3-1.3-0.5-2.7-0.6-4c-0.2-1.2-0.3-2.3-0.4-3.5c0-0.2,0-0.5-0.1-0.8c0.4-0.2,0.8-0.4,1.3-0.5
			c3-1.1,6-2.3,8.9-3.7c0.7-0.3,1.3-0.7,1.9-1c0.2-0.1,0.3-0.1,0.5-0.2c0.1,0.4,0.2,0.8,0.4,1.2c0.4,1.8,1.1,3.6,1.9,5.4
			C513.1,289.7,513.6,290.5,514.2,291.3z M543.9,306.9c-2,0.8-4.1,1.5-6.2,2.2c-1.5,0.5-3,0.8-4.5,0.9c-0.4,0-0.9,0-1.3,0
			c-0.7,0-1.3-0.5-1.5-1.1c-1.9-3.7-3.7-7.4-5.3-11.2c-0.4-0.8-0.7-1.7-1.1-2.5c-0.1-0.2-0.1-0.4-0.2-0.5s0.2-0.1,0.3-0.1l11.8,0.8
			c1.6,0.1,3.2,0.1,4.8-0.1c2.4-0.4,4.7-1.6,6.3-3.4c0.4-0.5,0.8-1,1.2-1.5c1.3-1.8,2.8-3.5,4.5-5c0,0,0.1,0,0.2-0.1
			c0.1,0.1,0.1,0.2,0.2,0.4c1,2.7,2,5.4,3,8.2c0.5,1.4,0.9,2.8,1.3,4.2c0.2,0.7,0.3,1.4,0.2,2.1c0,0.1,0,0.3,0,0.4
			c0,0.4-0.3,0.7-0.7,0.9c-1.1,0.5-2.2,1-3.2,1.5C550.3,304.2,547.1,305.6,543.9,306.9L543.9,306.9z M549.4,309.1
			c0,0.1,0.1,0.2,0.1,0.3c0,2.4,0.1,4.7,0.3,7.1c0.2,2.5,0.5,4.9,0.8,7.4s0.5,5,0.7,7.5c0.2,1.6,0.3,3.2,0.4,4.8
			c0.2,1.8,0.3,3.6,0.5,5.4s0.3,3.5,0.5,5.3c0.2,2.1,0.4,4.3,0.7,6.4c0.2,1.8,0.4,3.6,0.5,5.4s0.3,3.5,0.5,5.2
			c0.1,1.5,0.2,2.9,0.4,4.3s0.2,2.8,0.3,4.2c0.1,0.8,0.1,1.6,0.2,2.4c0.2,2.5,0.5,5,0.8,7.5c0,0.1,0,0.3,0,0.4
			c-0.4,0.2-0.8,0.4-1.2,0.5c-3.1,1.1-6.3,2-9.6,2.6c0-0.1-0.1-0.2-0.1-0.3c-0.1-0.7-0.3-1.4-0.4-2.1c-0.2-1.8-0.4-3.6-0.6-5.4
			s-0.5-3.5-0.8-5.3c-0.5-3.5-1.1-7-1.6-10.6c-0.5-3.1-0.9-6.3-1.3-9.5c-0.3-2.2-0.7-4.5-1-6.7c-0.2-1.3-0.4-2.7-0.6-4
			c-0.7-4.3-1.5-8.6-2.4-12.9c-0.3-1.6-0.7-3.3-1-5c-0.6-3.3-1.3-6.5-1.9-9.8c0-0.2-0.1-0.4-0.1-0.6c0.2,0,0.4-0.1,0.5-0.1
			c1.1-0.1,2.2-0.2,3.3-0.5c3.1-0.8,6.2-1.8,9.1-3c1-0.4,1.9-0.8,2.8-1.2C549.2,309.2,549.3,309.1,549.4,309.1L549.4,309.1z
			 M550.4,281.7c-1.1,1.1-2.2,2.3-3.3,3.4c-0.9,0.9-1.7,1.9-2.4,3c-0.2,0.3-0.4,0.5-0.6,0.7c-1.3,1.6-3.2,2.5-5.2,2.5
			c-1.5,0-3,0-4.6-0.2c-2.6-0.2-5.2-0.3-7.8-0.5c-2.3-0.1-4.7-0.4-7-0.7l-1-0.2c-0.4,0-0.7-0.2-0.9-0.5c-0.3-0.4-0.6-0.8-0.9-1.3
			c-0.8-1.5-1.5-3.1-1.9-4.8c-0.2-0.7-0.3-1.4-0.5-2c0-0.2-0.1-0.4-0.1-0.7l2.3-0.9l8.8-3.8l11.9-5.2c4.3-1.9,8.6-3.9,12.8-6
			l0.6-0.3c0.1,0.2,0.1,0.4,0.2,0.5c0.7,2.4,1.6,4.8,2.5,7.2c0.3,1,0.6,1.9,0.9,2.9c0.2,0.7,0.1,1.4-0.2,2c-0.3,0.7-0.7,1.3-1.2,1.9
			C552.1,279.8,551.2,280.8,550.4,281.7L550.4,281.7z M488,215.2c-3.8,0-7.6,0.5-11.4,1.4c-1.4,0.3-2.8,0.6-4.2,1
			c-3.8,1-7.5,2.4-11,4.3c-1.2,0.7-2.4,1.5-3.5,2.4c-0.1,0.1-0.2,0.2-0.4,0.2s-0.1-0.1-0.1-0.1c-0.4-1.9-0.5-3.9-0.3-5.8
			c0.1-0.6,0.2-1.1,0.4-1.7c0.3-0.8,0.9-1.5,1.6-2c0.9-0.6,1.9-0.9,2.9-1.2c1.3-0.3,2.7-0.5,4-0.6c2.5-0.2,5.1-0.4,7.6-0.8
			c3.3-0.5,6.5-1.5,9.6-2.7c0.7-0.3,1.4-0.5,2.1-0.7c1.8-0.4,3.6,0.2,4.8,1.6c0.7,0.8,1.2,1.6,1.6,2.5c0.3,0.6,0.5,1.3,0.7,1.9
			c0.1,0.3,0.2,0.6,0.2,0.8l-1.1-0.3C490.6,215.3,489.3,215.2,488,215.2z M450.2,266.2c1.2,0.7,2.6,0.9,3.9,0.8
			c1.1-0.2,2.1-0.4,3.2-0.6c0.8-0.2,1.6-0.4,2.5-0.6l0.4-0.1c0,0.2,0.1,0.3,0.1,0.5c0,1.9-0.6,3.7-1.6,5.3c-1.2,1.8-2.9,3.2-4.9,4
			c-1.9,0.8-3.9,1.2-5.9,1.2c-2,0.1-3.9-0.2-5.8-0.8c-1.4-0.4-2.7-1.1-3.9-2.1c-1.6-1.3-2.8-3.1-3.5-5.1c-1.4-4.7-0.3-9.8,2.9-13.5
			c1.1-1.3,2.5-2.2,4-2.8c1.7-0.6,3.5-0.7,5.2-0.2c0.1,0,0.2,0.1,0.2,0.1c0,0.5,0,1,0.1,1.5l0.2,6.1c0,0.5,0,1,0,1.5
			c0,0.2,0,0.4,0.1,0.6c0.2,0.5,0.4,1,0.5,1.6C448.4,264.7,449.1,265.7,450.2,266.2L450.2,266.2z M418.3,289.1c0-0.5,0-1,0-1.5
			c0.8,0.1,1.5,0.1,2.3,0c0.3,0,0.6-0.1,0.8-0.3c0.4-0.3,0.6-0.9,0.5-1.5c-0.1-0.5-0.6-0.9-1.2-0.9c-0.7,0-1.5,0.1-2.2,0.2l-0.3,0
			c-0.1-0.8-0.2-1.6-0.3-2.3c-0.1-2-0.3-4.1-0.4-6.1c-0.1-1.3-0.3-2.6-0.7-3.9c-0.7-2.2-1.4-4.4-2.4-6.5c-1-2.2-2.2-4.2-3.6-6.1
			c-0.2-0.2-0.4-0.5-0.5-0.7c0.1-0.3,0.3-0.6,0.5-0.8c0.6-0.6,1.2-1.2,1.9-1.8c1.8-1.4,3.6-2.8,5.6-4c2.3-1.5,4.6-3,6.9-4.6
			c2.7-1.8,5.3-3.8,7.8-6c1.8-1.6,3.6-3.2,5.4-4.8c0.8-0.7,1.6-1.3,2.4-1.9c0.2-0.1,0.3-0.2,0.5-0.3c0.1,0.4,0.2,0.7,0.3,1
			c0.6,2.3,1.3,4.5,2.2,6.7c0.6,1.5,1.2,3.1,1.8,4.6c0,0.1,0,0.1,0,0.2s-0.3,0.1-0.4,0.1c-1-0.1-2.1,0-3.1,0.2
			c-2.3,0.4-4.5,1.5-6.3,3.1c-1.9,1.7-3.5,3.9-4.4,6.3c-1,2.5-1.5,5.3-1.4,8c0.1,2.6,0.9,5.2,2.2,7.5c1.5,2.5,3.8,4.5,6.5,5.8
			c2.3,1.1,4.8,1.7,7.3,1.8c2.2,0.1,4.3-0.1,6.4-0.6c2.7-0.6,5.3-2,7.3-3.9c2.3-2.1,3.8-4.9,4.3-8c0.3-1.5,0.2-3.1-0.3-4.6
			c0-0.1,0-0.1,0-0.2c1.4-1,3-1.9,4.6-2.5c1.2-0.4,2.5-0.5,3.7-0.3c1.3,0.2,2.5,0.5,3.6,1.1c0.9,0.4,1.6,1,2.3,1.8
			c0.2,0.3,0.4,0.6,0.5,0.9c0.4,1,0.8,2.1,1.1,3.2c1,3.7,1.7,7.5,2.4,11.3c0.2,0.9,0.3,1.8,0.5,2.7c0,0.2,0.1,0.5,0.1,0.7
			c-0.3,0.2-0.7,0.3-1,0.4c-0.2,0.1-0.3,0.1-0.5,0.2c-0.5,0.3-0.7,1-0.5,1.6c0.2,0.6,0.8,0.9,1.4,0.8c0.3-0.1,0.7-0.2,1-0.3
			c0,0.1,0.1,0.1,0.1,0.2l0.6,3c-0.1,0.1-0.2,0.1-0.4,0.2c-0.2,0.1-0.5,0.1-0.7,0.2c-1.6,0.3-3.1,0.5-4.7,0.7
			c-1.1,0.1-2.3,0.2-3.4,0.2c-1,0-1.9,0-2.9,0s-1.9,0-2.9,0.1l-3.9,0.3l-3.5,0.2c-1.1,0.1-2.2,0.1-3.2,0.2l-3.4,0.2l-3.4,0.2
			l-3.4,0.2l-3.5,0.2l-3.1,0.2l-4.4,0.2l-4.4,0.1c-2.7,0.1-5.3,0-8-0.2l-5.7-0.5l-0.4-0.1C418.2,290.2,418.2,289.6,418.3,289.1
			L418.3,289.1z M489.8,395.6c0.4,0.8,0.7,1.7,1.1,2.5c0.1,0.3,0.2,0.6,0.3,0.9c-0.2,0.1-0.4,0.1-0.6,0.2c-8,1.7-13.3,2.7-14.6,2.6
			c-0.1-0.2-0.1-0.3-0.2-0.5c-0.6-2.6-1.6-5.1-3-7.5c-0.9-1.4-1.7-2.9-2.3-4.5c-0.5-1.3-1-2.6-1.5-3.9c-1.3-3.4-2.5-6.8-3.8-10.2
			c-1.6-4.1-3.2-8.1-4.9-12.1c-1.8-4.3-3.7-8.5-5.7-12.7c-1.9-3.9-3.5-7.9-5.2-11.9c-0.5-1.1-0.9-2.3-1.3-3.4
			c-0.1-0.2-0.2-0.5-0.3-0.8c0.6-0.1,1.1-0.1,1.7-0.1c2.2,0,4.4,0,6.6-0.2c2-0.1,4-0.4,6-0.9c1.4-0.4,2.8-0.9,4-1.7l0.4-0.2
			c0.1,0.1,0.2,0.3,0.2,0.4l4.5,12.6c1.1,3,2.2,6,3.2,9.1c0.9,2.5,1.7,4.9,2.5,7.4s1.7,4.9,2.6,7.4s1.8,5.2,2.7,7.8
			c1.1,3.2,2.3,6.4,3.5,9.6c0.8,2.1,1.6,4.3,2.4,6.5C488.5,393.1,489.1,394.4,489.8,395.6L489.8,395.6z M462.6,328.7
			c-0.8,0.4-1.6,0.6-2.5,0.8c-1.1,0.2-2.3,0.4-3.4,0.5c-3.1,0.3-6.3,0.2-9.4,0.2c-1.6,0-3.1,0-4.7,0c-0.5,0-1-0.1-1.5-0.1
			c-0.9-0.2-1.7-0.7-2.3-1.4c-0.5-0.6-0.9-1.3-1.2-2c-0.5-1.1-0.8-2.3-1.1-3.5c-0.6-2.7-1-5.5-1.4-8.2c0-0.2,0-0.4,0-0.6
			c0,0,0-0.1,0.1-0.1l0.3,0.1c1.3,0.5,2.7,0.9,4,1.4c1.1,0.4,2.1,0.9,3.1,1.4c1.8,1,3.8,1.4,5.8,1.4c1.1,0,2.2-0.2,3.2-0.5
			c2.1-0.7,4.1-1.6,6-2.8c2.7-1.6,5.4-3.3,8.1-5c0.1-0.1,0.3-0.2,0.5-0.3c0.1,0.5,0.1,1,0.2,1.4c0.1,1.6,0.3,3.1,0.4,4.7
			c0.2,2.1,0.2,4.2,0,6.2c0,0.6-0.1,1.1-0.3,1.7C466.1,326,464.6,327.8,462.6,328.7L462.6,328.7z M464.2,306.4c-2.7,1.7-5.4,3.4-8,5
			c-1.3,0.8-2.6,1.5-4,2.1c-1.1,0.5-2.2,0.8-3.3,0.9c-1.4,0.2-2.8,0-4.1-0.7c-2.4-1.2-4.8-2.2-7.3-3c-1.2-0.4-2.3-0.8-3.5-1.3
			c-0.6-0.3-1.3-0.6-1.9-0.9c-0.4-0.2-0.7-0.4-1-0.7c-0.4-0.3-0.7-0.8-0.8-1.3c-0.3-1.1-0.5-2.2-0.6-3.4c-0.3-2.4-0.5-4.8-1-7.2
			c0-0.2,0-0.3,0-0.5h1.6l4.6-0.1c1.7,0,3.4-0.1,5-0.2c1.5-0.1,2.9-0.1,4.4-0.2l3.4-0.2l3.4-0.2l3.6-0.2l3.1-0.2l3.1-0.2l4-0.3
			l2.2-0.2c0.2,0,0.4,0,0.6,0c0.1,0.1,0.1,0.2,0.1,0.3c0.7,2.4,1.1,5,1,7.5c0,0.4-0.1,0.7-0.1,1c-0.1,0.5-0.3,1-0.8,1.3
			C466.7,304.6,465.4,305.5,464.2,306.4L464.2,306.4z M443.6,395c-0.5-2-1-4-1.5-6c-0.3-1.2-0.5-2.5-0.8-3.8
			c-0.6-3.1-1.1-6.1-1.7-9.2s-1.3-6.4-2-9.6c-0.4-2-0.9-4-1.4-6c-0.5-2.3-1.1-4.5-1.7-6.7s-1.3-4.8-2.1-7.1
			c-1.2-3.9-2.6-7.7-4.1-11.5c-0.6-1.5-1.1-3-1.7-4.5c-0.7-1.9-1.5-3.8-2.2-5.7c-0.1-0.3-0.3-0.6-0.4-0.9c-1.2-1.9-2.2-3.9-3.2-6
			c-1.5-3-2.9-6.1-4.1-9.3c-0.3-0.8-0.6-1.7-0.9-2.5c-0.1-0.2-0.1-0.5-0.1-0.8c0.3-2.3,0.6-4.6,1.1-6.9c0.3-1.1,0.4-2.3,0.6-3.5
			c0-0.2,0.1-0.4,0.1-0.6c0.5,0,5.8,0.3,6.6,0.5c0.1,0.3,0.2,0.7,0.3,1c0.2,1.4,0.5,2.8,0.6,4.2c0.2,1.7,0.4,3.4,0.7,5.2
			c0.1,0.7,0.3,1.4,0.5,2.1c0.3,1.3,1.1,2.4,2.1,3.2c0.7,0.5,1.4,1,2.2,1.5c0,0.1,0.1,0.4,0.1,0.6c0.3,2.1,0.6,4.3,0.9,6.4
			c0.3,1.9,0.7,3.9,1.2,5.8c0.4,1.6,1.1,3.2,1.9,4.7c0.6,1,1.4,1.9,2.3,2.6c1.3,1,2.9,1.5,4.5,1.6c0.5,0,1.1,0,1.6,0h0.5
			c0.2,0.2,0.3,0.4,0.4,0.6c1.5,3.9,3,7.8,4.7,11.6c1.3,2.9,2.7,5.8,4,8.7c2.2,4.6,4.2,9.3,6.1,14c2.4,5.9,4.6,11.8,6.8,17.7
			c0.6,1.6,1.2,3.2,1.9,4.8s1.5,2.8,2.2,4.2c0.8,1.4,1.5,2.9,2,4.5c0.2,0.6,0.3,1.2,0.5,1.8c-0.1,0.1-0.3,0.1-0.4,0.1
			c-0.8,0.1-1.6,0.2-2.5,0.2c-1.4,0.1-2.8,0.1-4.2,0.2c-2.9,0.1-5.7-0.1-8.5-0.5c-1.1-0.2-2.2-0.4-3.2-0.8c-1.8-0.6-3.5-1.2-5.2-2
			c-1.2-0.6-2.4-1.1-3.7-1.6c-0.1,0-0.1-0.1-0.2-0.1C444.1,396.8,443.8,395.9,443.6,395z M511.5,403.6c-0.7,0.3-1.5,0.5-2.3,0.7
			c-3.4,0.8-6.8,1.4-10.1,2c-1.5,0.3-3,0.5-4.5,0.8c-0.7,0.1-1.4,0.3-2.1,0.5c-2.3,0.5-4.5,1-6.8,1.5c-1.4,0.3-2.8,0.5-4.1,0.8
			c-3.8,0.7-7.7,1.3-11.5,2c-1,0.2-2.1,0.2-3.1,0.1c-4.9-0.2-9.8-1-14.6-2.4c-1.1-0.3-2.2-0.7-3.3-1.2c-0.5-0.3-1-0.5-1.4-0.9
			c-0.3-0.2-0.5-0.5-0.6-0.9c-0.3-1.1-0.6-2.2-0.9-3.3c0-0.1,0-0.1,0-0.3c0.3,0.1,0.5,0.2,0.8,0.3c1.8,0.8,3.7,1.5,5.6,2.1
			c2.4,0.7,4.8,1.1,7.2,1.3c2.5,0.2,4.9,0.2,7.4,0.1c2.1-0.1,4.2-0.2,6.2-0.4c2.4-0.2,4.8-0.6,7.2-1s4.6-0.9,6.8-1.3
			c1.3-0.2,2.5-0.5,3.8-0.8c1.6-0.4,3.2-0.8,4.9-1.1l4-1l3.8-1l3-0.8l4-1c0.1,0,0.3,0,0.5-0.1C511.6,400,511.7,401.8,511.5,403.6
			L511.5,403.6z M504.3,370.4c0.7,3.2,1.3,6.3,2,9.5c0.5,2.1,1,4.2,1.5,6.4c0.5,2.2,1.1,4.4,1.8,6.5c0.1,0.4,0.2,0.8,0.4,1.1
			c0,0.1,0,0.3,0,0.4c-5,1.3-10,2.7-15.1,3.9c-0.1-0.2-0.1-0.3-0.2-0.5c-0.4-1.2-0.9-2.5-1.5-3.6c-1-2-1.8-4-2.5-6.1
			c-1.1-3.2-2.3-6.3-3.5-9.5c-1-2.8-2-5.6-3-8.5c-1-2.7-1.9-5.4-2.8-8s-1.9-5.5-2.8-8.2s-2-5.7-3-8.5c-1.2-3.5-2.5-6.9-3.8-10.4
			c-0.8-2.1-1.5-4.2-2.2-6.4c-0.1-0.3-0.1-0.7,0.1-1c0.9-1.7,1.3-3.6,1.4-5.5c0.1-1.8,0.1-3.7,0-5.5c-0.1-3-0.5-6.1-0.8-9.1
			c0-0.1,0-0.3,0-0.4c0.2-0.1,0.3-0.3,0.5-0.4c0.9-0.7,1.6-1.7,1.9-2.9c0.3-1.2,0.4-2.4,0.4-3.5c0-1.9-0.3-3.7-0.7-5.6
			c-0.1-0.4-0.2-0.8-0.2-1.2c0.5-0.1,1-0.1,1.5-0.1c1.4,0.1,2.7,0,4.1-0.1c1.5-0.1,3-0.4,4.5-0.6c0.7-0.1,1.4-0.3,2.1-0.4l0.5-0.1
			c0.1,0.1,0.1,0.2,0.1,0.3c0.5,1.8,0.9,3.7,1.4,5.5c0.6,2.5,1.2,5,1.8,7.5c0.5,1.8,1,3.7,1.5,5.5c0.6,2,1.2,4,1.8,6.1
			c0.4,1.4,0.8,2.9,1.2,4.3c0.2,0.6,0.3,1.3,0.5,2c0.5,2.1,1.1,4.3,1.6,6.5s1.1,4.3,1.7,6.5s1.1,4.1,1.6,6.1l1.2,4.5
			c0.3,1.1,0.6,2.2,0.9,3.4s0.6,2.5,0.9,3.8c0.4,1.9,0.9,3.9,1.3,5.8c0.2,1,0.4,2,0.6,3C503.2,365.4,503.8,367.9,504.3,370.4
			L504.3,370.4z M584.3,370.7l0.5,2.4c0.1,0.5,0.2,1.1,0.3,1.6c0.1,0.5,0.1,0.9-0.2,1.4c-0.2,0.4-0.4,0.8-0.7,1.1
			c-0.6,0.8-1.3,1.6-2.1,2.4c-3.7,3.6-7.9,6.6-12.4,9.2c-0.9,0.5-1.9,1-2.9,1.3c-0.8,0.3-1.6,0.5-2.4,0.7l-4.2,1.3
			c-1.5,0.5-3,0.9-4.5,1.4c-1.3,0.4-2.6,0.8-3.8,1.1c-1,0.3-2,0.6-3,0.8l-3.6,1c-0.7,0.2-1.4,0.4-2,0.5c-1.5,0.4-3.1,0.8-4.6,1.3
			c-1.9,0.6-3.8,1.1-5.7,1.7c-1.1,0.3-2.2,0.6-3.2,0.9c-0.7,0.2-1.3,0.3-2,0.4c-1.3-1.9-2.1-4.1-2.5-6.3c0.1-0.1,0.3-0.1,0.4-0.2
			l6-1.3l6.2-1.4c1-0.2,2-0.4,3-0.7c1.5-0.4,3-0.7,4.6-1.1c1.1-0.3,2.3-0.6,3.4-0.9c1.4-0.4,2.7-0.7,4.1-1.1s2.9-0.9,4.3-1.4
			c6.2-2,12.1-4.7,17.7-8c2.8-1.8,5.4-4,7.5-6.5c0.4-0.5,0.8-1,1.3-1.5l0.3-0.3C584.3,370.5,584.3,370.6,584.3,370.7L584.3,370.7z
			 M578.2,347.6l2.3,6.9c0.5,1.4,1,2.8,1.4,4.3c0.1,0.3,0.2,0.6,0.2,0.9c0.2,2.7-0.4,5.5-1.7,8c-1,1.9-2.4,3.6-4.1,4.8
			c-0.2,0.1-0.3,0.2-0.5,0.3c-0.1-0.3-0.2-0.7-0.3-1l-0.4-2.1c-0.1-0.7-0.3-1.3-0.6-2c-0.5-1.5-1-2.9-1.4-4.4
			c-0.9-3.3-1.7-6.7-2.2-10.1c-0.2-1-0.4-2-0.6-3c-0.1-0.8-0.2-1.6-0.3-2.4v-0.1c0-1.1,0.1-1.2,1-1.5c0.8-0.3,1.6-0.6,2.5-0.8
			c1-0.3,2-0.5,3-0.8c0.1,0,0.3,0,0.4,0C577.5,345.4,577.8,346.5,578.2,347.6z M567.3,268.6c0.1,0.7,0.3,1.4,0.3,2.1
			c0.1,1.5,0.3,2.9,0.3,4.4s0.2,2.8,0.2,4.1c0.1,3,0.1,6-0.1,9c0,0.8,0,1.5,0.1,2.3c0.3,3,0.6,5.9,1,8.9c0.1,0.6,0.1,1.2,0.1,1.8
			c0.3,4.5,0.9,9,1.7,13.5c0.4,2.3,0.8,4.5,1.3,6.8c0.4,1.9,0.8,3.8,1.3,5.8c0.3,1.5,0.7,3,1.1,4.4c0.4,1.7,0.9,3.5,1.3,5.2
			c0.2,1,0.5,1.9,0.8,2.9c0,0.1,0,0.2,0.1,0.4c-0.2,0.1-0.5,0.2-0.7,0.3c-1.2,0.3-2.4,0.6-3.5,0.9c-1,0.2-2.1,0.6-3,1
			c-0.2,0.1-0.4,0.2-0.6,0.3c-1.5,0.7-2.5,2.2-2.6,3.8c-0.1,0.9-0.1,1.8,0,2.7c0.2,1.1,0.4,2.3,0.6,3.4s0.4,2,0.6,3
			c0.6,3.1,1.2,6.2,2.1,9.3c0.4,1.4,0.8,2.7,1.3,4.1c0.2,0.7,0.4,1.4,0.5,2.1c0.1,0.6,0.2,1.2,0.3,1.7c0.1,0.9,0.4,1.7,0.7,2.5
			c0,0.1,0,0.2,0.1,0.4c-3.2,2-6.5,3.7-10,5.1c-0.9,0.4-1.8,0.7-2.7,1c0-0.2-0.1-0.4-0.1-0.5c-0.2-2.2-0.4-4.3-0.6-6.5
			c-0.1-1.5-0.2-2.9-0.4-4.3s-0.2-2.9-0.3-4.3s-0.2-3-0.4-4.5l-0.5-5.7c-0.2-1.8-0.3-3.5-0.5-5.2l-0.7-6.5c-0.2-1.8-0.4-3.7-0.5-5.5
			s-0.3-3.5-0.5-5.2c-0.1-1.6-0.3-3.2-0.4-4.8c-0.3-2.8-0.6-5.5-0.9-8.2c-0.2-2.4-0.5-4.8-0.6-7.2c-0.1-1.4-0.1-2.9-0.1-4.3
			c0-0.5,0-0.9,0-1.4l0.6-0.3c1.5-0.7,3.1-1.4,4.6-2.2c0.4-0.2,0.8-0.4,1.1-0.6c0.9-0.6,1.5-1.5,1.7-2.5c0.2-0.6,0.2-1.2,0.2-1.9
			c0-0.8-0.1-1.5-0.2-2.3c-0.4-2.2-1.1-4.3-1.9-6.3c-1-2.8-2-5.6-3.1-8.4c-0.1-0.4-0.3-0.8-0.4-1.1l0.9-1.4c0.5-0.7,0.9-1.4,1.2-2.2
			c0.5-1.2,0.6-2.6,0.3-3.9c-0.4-1.6-0.8-3.1-1.4-4.6c-0.7-1.8-1.3-3.6-1.9-5.5c-0.2-0.7-0.4-1.3-0.5-2l5.8-3.5
			c0.1,0.1,0.2,0.2,0.3,0.3c1,1.4,2,2.7,3.1,4.1c1.2,1.5,2.3,3.2,3.4,4.8C567.1,268.1,567.2,268.4,567.3,268.6L567.3,268.6z
			 M550.4,223.8c-0.3,2.3-0.5,4.5-0.6,6.8c-0.1,1.5-0.1,3,0.1,4.4c0.2,1.3,0.5,2.6,0.9,3.8c1.2,3.5,2.5,6.9,4.1,10.2
			c0.2,0.4,0.4,0.8,0.6,1.2c-0.2,0.2-0.3,0.3-0.5,0.5c-0.5,0.5-0.5,1.4,0.1,1.9c0.1,0.1,0.3,0.2,0.5,0.3c0.2,0,0.4,0,0.5,0
			c0.2,0,0.4,0,0.6-0.1c0.6,0.7,1,1.5,1.4,2.4c-0.1,0.1-0.1,0.1-0.2,0.2c-3,1.9-6.1,3.8-9.3,5.5c-2.9,1.5-5.9,3-9,4.3
			c-4.5,2-8.9,3.9-13.4,5.9c-2.8,1.2-5.7,2.5-8.5,3.7c-2.1,0.9-4.3,1.8-6.4,2.7c-1.5,0.6-2.9,1.3-4.4,2.1c-1.6,0.8-3.2,1.6-4.9,2.2
			c-1.4,0.6-2.8,1.1-4.2,1.6c-0.2,0.1-0.4,0.1-0.6,0.2c-0.2-1-0.4-1.9-0.6-2.8l0.6-0.2c0.7-0.2,1.1-0.9,1-1.6
			c-0.2-0.7-0.9-1.1-1.6-1c-0.2,0-0.5,0.2-0.7,0c-0.2-0.6-0.4-1.3-0.6-2c-0.6-1.8-1.2-3.6-1.8-5.5c-0.8-2.5-1.6-5-2.3-7.6
			c-0.3-1.3-0.5-2.5-0.6-3.8c-0.1-0.5,0-1.1,0.3-1.5c0.2,0,0.3,0.1,0.4,0.2c0.8,0.7,2,0.8,2.9,0.2c0.9-0.5,1.7-1.1,2.5-1.6
			c1.4-0.9,2.9-1.7,4.5-2.4c1.3-0.6,2.7-0.9,4.1-1c0.6,0,1.3,0,1.9,0c1.6,0.2,3.2,0.2,4.8,0.1c1.5,0,2.9-0.3,4.2-0.9
			c2.1-0.9,3.4-2.9,3.5-5.1c0-0.9,0-1.8-0.2-2.6c-0.3-1.5-0.8-2.9-1.5-4.3c-0.8-1.8-1.6-3.6-2.4-5.4c-0.7-1.5-1.3-3.1-1.8-4.7
			c-0.3-1-0.5-2-0.6-3c-0.2-1.8-0.3-3.6-0.4-5.5c-0.1-1.9-0.3-3.7-0.8-5.5c0-0.1,0-0.2,0-0.2c0.2,0,0.3,0,0.5,0
			c1.5,0.3,2.9,0.6,4.4,1c1.8,0.4,3.5,0.9,5.3,1.4c3.9,1.1,7.8,1.8,11.8,2.1c3,0.3,5.9,0.6,8.9,1c2,0.3,4,0.7,6,1.3
			c0.5,0.2,1.1,0.4,1.6,0.6C550.5,223.4,550.5,223.6,550.4,223.8L550.4,223.8z"/>
		<path class="st1" d="M494,252.2c-0.1-0.7-0.1-1.3,0-2c0.1-0.9,0.2-1.8,0.2-2.7c0.1-1.3,0.3-2.6,0.5-3.8c0.4-2.6,1-5.1,1.6-7.6
			s1.2-5.1,1.6-7.7c0.4-2.4,0.6-4.8,0.6-7.2c0-2.1-0.3-4.2-0.8-6.2c-0.4-1.6-0.9-3.1-1.6-4.6c-0.7-1.4-1.7-2.7-2.8-3.8
			c-1.9-1.8-4.5-2.7-7.1-2.5c-1.4,0.1-2.7,0.4-4,0.9c-1.4,0.6-2.7,1.1-4.2,1.5c-1.7,0.5-3.4,0.9-5.1,1.1c-2,0.3-4,0.5-6.1,0.6
			c-1.6,0.1-3.3,0.3-4.9,0.6c-1.2,0.2-2.4,0.6-3.5,1.1c-0.8,0.4-1.6,0.8-2.3,1.4c-1.2,0.9-2.1,2.1-2.6,3.4c-0.6,1.4-0.9,2.8-1,4.3
			c-0.1,1.5-0.1,3,0.1,4.6c0.6,4.4,2,8.6,4,12.6c1,1.8,2.2,3.5,3.5,5.1c1.5,1.8,3.1,3.5,4.6,5.2c1.2,1.3,2.5,2.6,3.6,4
			c1.2,1.4,2.3,2.9,3.3,4.5l0.3,0.6c0,0.1,0,0.1,0,0.2c0,0-0.1,0-0.1,0c-2.6-0.2-5.1,0.4-7.4,1.6c-1.2,0.6-2.4,1.4-3.5,2.1
			c-1.3,0.9-2.7,1.7-4,2.6c-0.8,0.6-1.8,0.9-2.7,1l-1.2,0.2c-0.4-0.3-0.7-0.8-0.8-1.3c-0.1-0.9-0.3-1.9-0.4-2.8
			c-0.1-1.7-0.1-3.3-0.2-5c-0.1-1.9-0.4-3.7-0.9-5.5c-0.7-2.4-1.6-4.9-2.6-7.2c-0.6-1.5-1.1-3-1.6-4.5c-0.5-1.7-0.8-3.4-0.9-5.1
			c0-1.3,0.1-2.5,0.3-3.8c0.5-2.9,1.2-5.8,2.1-8.6c1-3,2.1-5.9,3.5-8.7c0.5-1.1,1.2-2.2,1.9-3.2c0.8-1.1,1.9-2,3.2-2.4
			c0.4-0.1,0.9-0.3,1.3-0.3c1-0.2,2.1-0.2,3.1-0.1c2.4,0.4,4.9,0.5,7.4,0.4c1.9-0.1,3.8-0.3,5.6-0.8c2.6-0.7,5.1-1.8,7.3-3.5
			c0.7-0.5,1.3-1,2-1.5c0.4-0.3,0.8-0.6,1.3-0.8c0.5-0.3,1.1-0.4,1.7-0.3c1,0.1,1.9,0.4,2.7,0.9c1.2,0.6,2.4,1.4,3.5,2.2
			c3.8,2.8,7.3,5.9,10.5,9.4c1.1,1.3,2.2,2.6,3.2,4c0.9,1.4,1.5,3,1.6,4.7c0.1,1.5,0.2,2.9,0.3,4.4c0.1,2.2,0.4,4.4,0.9,6.6
			c0.5,1.9,1.1,3.8,2,5.6c0.8,1.8,1.6,3.6,2.4,5.4c0.6,1.3,1,2.6,1.3,4c0.1,0.4,0.1,0.9,0.1,1.3c0.1,0.6-0.3,1.1-0.9,1.2
			c-0.5,0.1-1,0.3-1.4,0.3c-1,0.1-2.1,0.2-3.1,0.1c-1.1-0.1-2.2-0.2-3.3-0.2c-1.4,0-2.9,0.2-4.2,0.6c-2.4,0.7-4.7,1.8-6.9,3.1
			C494.7,251.9,494.4,252.1,494,252.2z"/>
		<path class="st1" d="M447.8,334.3c0.6-0.1,1.1-0.1,1.7-0.1c2.2,0,4.4,0,6.6-0.2c2-0.1,4-0.4,6-0.9c1.4-0.4,2.8-0.9,4-1.7l0.4-0.2
			c0.1,0.1,0.2,0.3,0.2,0.4l4.5,12.6c1.1,3,2.2,6,3.2,9.1c0.9,2.5,1.7,4.9,2.5,7.4s1.7,4.9,2.6,7.4s1.8,5.2,2.7,7.8
			c1.1,3.2,2.3,6.4,3.5,9.6c0.8,2.2,1.6,4.3,2.4,6.5c0.5,1.3,1.1,2.5,1.7,3.8c0.4,0.8,0.7,1.7,1.1,2.5c0.1,0.3,0.2,0.6,0.3,0.9
			c-0.2,0.1-0.4,0.1-0.6,0.2c-8,1.7-13.3,2.7-14.6,2.6c-0.1-0.2-0.1-0.3-0.2-0.5c-0.6-2.6-1.6-5.1-3-7.5c-0.9-1.4-1.7-2.9-2.3-4.5
			c-0.5-1.3-1-2.6-1.5-3.9c-1.3-3.4-2.5-6.8-3.8-10.2c-1.6-4.1-3.2-8.1-4.9-12.1c-1.8-4.3-3.7-8.5-5.7-12.7
			c-1.9-3.9-3.5-7.9-5.2-11.9c-0.5-1.1-0.9-2.3-1.3-3.4C448,334.9,447.9,334.6,447.8,334.3z"/>
		<path class="st1" d="M533.4,314c0.2,0,0.4-0.1,0.5-0.1c1.1-0.1,2.2-0.3,3.3-0.5c3.1-0.8,6.2-1.8,9.1-3c1-0.4,1.9-0.8,2.8-1.2
			c0.1,0,0.2-0.1,0.3-0.1c0,0.1,0.1,0.2,0.1,0.3c0,2.4,0.1,4.7,0.3,7.1c0.2,2.5,0.5,4.9,0.8,7.4s0.5,5,0.7,7.5
			c0.2,1.6,0.3,3.2,0.4,4.8c0.2,1.8,0.3,3.6,0.5,5.4s0.3,3.5,0.5,5.3c0.2,2.1,0.4,4.3,0.7,6.4c0.2,1.8,0.4,3.6,0.5,5.4
			s0.3,3.5,0.5,5.2c0.1,1.5,0.2,2.9,0.4,4.3s0.2,2.8,0.3,4.2c0.1,0.8,0.1,1.6,0.2,2.4c0.2,2.5,0.5,5,0.8,7.5c0,0.1,0,0.3,0,0.4
			c-0.4,0.2-0.8,0.4-1.2,0.5c-3.1,1.1-6.3,2-9.6,2.6c0-0.1-0.1-0.2-0.1-0.3c-0.1-0.7-0.3-1.4-0.4-2.1c-0.2-1.8-0.4-3.6-0.6-5.4
			s-0.5-3.5-0.8-5.3c-0.5-3.5-1.1-7-1.6-10.6c-0.5-3.1-0.9-6.3-1.3-9.5c-0.3-2.2-0.7-4.5-1-6.7c-0.2-1.3-0.4-2.7-0.6-4
			c-0.7-4.3-1.5-8.6-2.4-12.9c-0.3-1.6-0.7-3.3-1-5c-0.6-3.3-1.3-6.5-1.9-9.8C533.5,314.4,533.4,314.3,533.4,314z"/>
		<path class="st1" d="M514.4,280.5l2.3-0.9l8.8-3.8l11.9-5.2c4.3-1.9,8.6-3.9,12.8-6l0.6-0.3c0.1,0.2,0.1,0.4,0.2,0.5
			c0.7,2.4,1.6,4.8,2.5,7.2c0.3,1,0.6,1.9,0.9,2.9c0.2,0.7,0.1,1.4-0.2,2c-0.3,0.7-0.7,1.3-1.2,1.9c-0.8,1-1.7,1.9-2.6,2.9
			c-1.1,1.1-2.2,2.3-3.3,3.4c-0.9,0.9-1.7,1.9-2.4,3c-0.2,0.3-0.4,0.5-0.6,0.7c-1.3,1.6-3.2,2.5-5.2,2.5c-1.5,0-3,0-4.6-0.2
			c-2.6-0.2-5.2-0.3-7.8-0.5c-2.3-0.1-4.7-0.4-7-0.7l-1-0.2c-0.4,0-0.7-0.2-0.9-0.5c-0.3-0.4-0.6-0.8-0.9-1.3
			c-0.8-1.5-1.5-3.1-1.9-4.8c-0.2-0.7-0.3-1.4-0.5-2C514.4,281,514.4,280.8,514.4,280.5z M537.8,280.9c-1.4,0.1-2.6,1.3-2.6,2.8
			c0,0.4,0,0.8,0.1,1.2c0.4,1.7,2,2.8,3.7,2.4c1.3-0.3,2.2-1.3,2.4-2.6c0.1-0.5,0-0.9-0.1-1.4C541,281.6,539.4,280.6,537.8,280.9
			L537.8,280.9z"/>
		<path class="st1" d="M428.6,295.4h1.6l4.6-0.1c1.7,0,3.4-0.1,5-0.2c1.5-0.1,2.9-0.1,4.4-0.2l3.4-0.2l3.4-0.2l3.6-0.2l3.1-0.2
			l3.1-0.2l4-0.3l2.2-0.2c0.2,0,0.4,0,0.6,0c0.1,0.1,0.1,0.2,0.1,0.3c0.7,2.4,1.1,5,1,7.5c0,0.4-0.1,0.7-0.1,1
			c-0.1,0.5-0.3,1-0.8,1.3c-1.2,1-2.5,1.9-3.8,2.7c-2.7,1.7-5.4,3.4-8,5c-1.3,0.8-2.6,1.5-4,2.1c-1.1,0.5-2.2,0.8-3.3,0.9
			c-1.4,0.2-2.8,0-4.1-0.7c-2.4-1.2-4.8-2.2-7.3-3c-1.2-0.4-2.3-0.8-3.5-1.3c-0.6-0.3-1.3-0.6-1.9-0.9c-0.4-0.2-0.7-0.4-1-0.7
			c-0.4-0.3-0.7-0.8-0.8-1.3c-0.3-1.1-0.5-2.2-0.6-3.4c-0.3-2.4-0.5-4.8-1-7.2C428.7,295.7,428.7,295.6,428.6,295.4z M445.2,308.3
			c0.1,1.7,1.6,2.9,3.2,2.7c0.2,0,0.4-0.1,0.6-0.1c1.1-0.2,2-1.1,2.2-2.2c0.2-0.7,0.1-1.4-0.1-2.1c-0.3-1.1-1.3-1.9-2.4-2.1
			c-1.2-0.2-2.5,0.3-3.2,1.4C445.2,306.6,445.1,307.5,445.2,308.3z"/>
		<path class="st1" d="M435.1,314.3l0.3,0.1c1.3,0.5,2.7,0.9,4,1.4c1.1,0.4,2.1,0.9,3.1,1.4c1.8,1,3.8,1.4,5.8,1.4
			c1.1,0,2.2-0.2,3.2-0.5c2.1-0.7,4.1-1.6,6-2.8c2.7-1.6,5.4-3.3,8.1-5c0.1-0.1,0.3-0.2,0.5-0.3c0.1,0.5,0.1,1,0.2,1.4
			c0.1,1.6,0.3,3.1,0.4,4.7c0.2,2.1,0.2,4.2,0,6.2c0,0.6-0.1,1.1-0.3,1.7c-0.5,2.2-2,3.9-4,4.8c-0.8,0.4-1.6,0.6-2.5,0.8
			c-1.1,0.2-2.3,0.4-3.4,0.5c-3.1,0.3-6.3,0.2-9.4,0.2c-1.6,0-3.1,0-4.7,0c-0.5,0-1-0.1-1.5-0.1c-0.9-0.2-1.7-0.7-2.3-1.4
			c-0.5-0.6-0.9-1.3-1.2-2c-0.5-1.1-0.8-2.3-1.1-3.5c-0.6-2.7-1-5.5-1.4-8.2c0-0.2,0-0.4,0-0.6C435,314.4,435.1,314.3,435.1,314.3z"
			/>
		<path class="st1" d="M552.8,285.2c0.1,0.1,0.1,0.2,0.2,0.4c1,2.7,2,5.4,3,8.2c0.5,1.4,0.9,2.8,1.3,4.2c0.2,0.7,0.3,1.4,0.2,2.1
			c0,0.1,0,0.3,0,0.4c0,0.4-0.3,0.7-0.7,0.9c-1.1,0.5-2.2,1-3.2,1.5c-3.2,1.5-6.4,2.9-9.7,4.2c-2,0.8-4.1,1.5-6.2,2.2
			c-1.5,0.5-3,0.8-4.5,0.9c-0.4,0-0.9,0-1.3,0c-0.7,0-1.3-0.5-1.5-1.1c-1.9-3.7-3.7-7.4-5.3-11.2c-0.4-0.8-0.7-1.7-1.1-2.5
			c-0.1-0.2-0.1-0.4-0.2-0.5s0.2-0.1,0.3-0.1l11.8,0.8c1.6,0.1,3.2,0.1,4.8-0.1c2.4-0.4,4.7-1.6,6.3-3.4c0.4-0.5,0.8-1,1.2-1.5
			c1.3-1.8,2.8-3.5,4.5-5C552.6,285.3,552.6,285.3,552.8,285.2z"/>
		<path class="st1" d="M527.7,401.2c-1.3-1.9-2.1-4.1-2.5-6.3c0.1-0.1,0.3-0.1,0.4-0.2l6-1.3l6.4-1.4c1-0.2,2-0.4,3-0.7
			c1.5-0.4,3-0.7,4.6-1.1c1.1-0.3,2.3-0.6,3.4-0.9c1.4-0.4,2.7-0.7,4.1-1.1s2.9-0.9,4.3-1.4c6.2-2,12.1-4.7,17.7-8
			c2.8-1.8,5.4-4,7.5-6.5c0.4-0.5,0.8-1,1.3-1.5l0.3-0.3c0.2,0,0.2,0.2,0.2,0.3c0.2,0.8,0.3,1.6,0.5,2.4c0.1,0.5,0.2,1.1,0.3,1.6
			c0.1,0.5,0.1,0.9-0.2,1.4c-0.2,0.4-0.4,0.8-0.7,1.1c-0.6,0.8-1.3,1.6-2.1,2.4c-3.7,3.6-7.9,6.6-12.4,9.2c-0.9,0.5-1.9,1-2.9,1.3
			c-0.8,0.3-1.6,0.5-2.4,0.7l-4.2,1.3c-1.5,0.5-3,0.9-4.5,1.4c-1.3,0.4-2.6,0.8-3.8,1.1c-1,0.3-2,0.6-3,0.8l-3.6,1
			c-0.7,0.2-1.4,0.4-2,0.5c-1.5,0.4-3.1,0.8-4.6,1.3c-1.9,0.6-3.8,1.1-5.7,1.7c-1.1,0.3-2.2,0.6-3.2,0.9
			C529,401,528.3,401.1,527.7,401.2z"/>
		<path class="st3" d="M447,252.4c0,0.5,0,1,0.1,1.5l0.2,6.1c0,0.5,0,1,0,1.5c0,0.2,0,0.4,0.1,0.6c0.2,0.5,0.4,1,0.5,1.6
			c0.4,1.1,1.1,2,2.2,2.6c1.2,0.7,2.6,0.9,3.9,0.8c1.1-0.2,2.1-0.4,3.2-0.6c0.8-0.2,1.6-0.4,2.5-0.6l0.4-0.1c0,0.2,0.1,0.3,0.1,0.5
			c0,1.9-0.6,3.7-1.6,5.3c-1.2,1.8-2.9,3.2-4.9,4c-1.9,0.8-3.9,1.2-5.9,1.2c-2,0.1-3.9-0.2-5.8-0.8c-1.4-0.4-2.7-1.1-3.9-2.1
			c-1.6-1.3-2.8-3.1-3.5-5.1c-1.4-4.7-0.3-9.8,2.9-13.5c1.1-1.3,2.5-2.2,4-2.8c1.7-0.6,3.5-0.7,5.2-0.2
			C446.9,252.3,446.9,252.3,447,252.4z"/>
		<path class="st1" d="M446,402.9c0.3,0.1,0.5,0.2,0.8,0.3c1.8,0.8,3.7,1.5,5.6,2.1c2.4,0.7,4.8,1.1,7.2,1.3
			c2.5,0.2,4.9,0.2,7.4,0.1c2.1-0.1,4.2-0.2,6.2-0.4c2.4-0.2,4.8-0.6,7.2-1s4.6-0.9,6.8-1.3c1.3-0.2,2.5-0.5,3.8-0.8
			c1.6-0.4,3.2-0.8,4.9-1.1l4-1l3.8-1l3-0.8l4-1c0.1,0,0.3,0,0.5-0.1c0.5,1.7,0.7,3.5,0.4,5.3c-0.7,0.3-1.5,0.5-2.3,0.7
			c-3.4,0.8-6.8,1.4-10.1,2c-1.5,0.3-3,0.5-4.5,0.8c-0.7,0.1-1.4,0.3-2.1,0.5c-2.3,0.5-4.5,1-6.8,1.5c-1.4,0.3-2.8,0.5-4.1,0.8
			c-3.8,0.7-7.7,1.3-11.5,2c-1,0.2-2.1,0.2-3.1,0.1c-4.9-0.2-9.8-1-14.6-2.4c-1.1-0.3-2.2-0.7-3.3-1.2c-0.5-0.3-1-0.5-1.4-0.9
			c-0.3-0.2-0.5-0.5-0.6-0.9c-0.3-1.1-0.6-2.2-0.9-3.3C446,403.2,446,403.1,446,402.9z"/>
		<path class="st1" d="M493,215.8l-1.1-0.3c-1.3-0.3-2.6-0.4-3.9-0.3c-3.8,0-7.6,0.5-11.4,1.4c-1.4,0.3-2.8,0.6-4.2,1
			c-3.8,1-7.5,2.4-11,4.3c-1.2,0.7-2.4,1.5-3.5,2.4c-0.1,0.1-0.2,0.2-0.4,0.2s-0.1-0.1-0.1-0.1c-0.4-1.9-0.5-3.9-0.3-5.8
			c0.1-0.6,0.2-1.1,0.4-1.7c0.3-0.8,0.9-1.5,1.6-2c0.9-0.6,1.9-0.9,2.9-1.2c1.3-0.3,2.7-0.5,4-0.6c2.5-0.2,5.1-0.4,7.6-0.8
			c3.3-0.5,6.5-1.5,9.6-2.7c0.7-0.3,1.4-0.5,2.1-0.7c1.8-0.4,3.6,0.2,4.8,1.6c0.7,0.8,1.2,1.6,1.6,2.5c0.3,0.6,0.5,1.3,0.7,1.9
			C492.9,215.3,492.9,215.5,493,215.8z"/>
		<path class="st3" d="M577.1,344.3c0.4,1.1,0.8,2.2,1.1,3.3l2.3,6.9c0.5,1.4,1,2.8,1.4,4.3c0.1,0.3,0.2,0.6,0.2,0.9
			c0.2,2.7-0.4,5.5-1.7,8c-1,1.9-2.4,3.6-4.1,4.8c-0.2,0.1-0.3,0.2-0.5,0.3c-0.1-0.3-0.2-0.7-0.3-1l-0.4-2.1c-0.1-0.7-0.3-1.3-0.6-2
			c-0.5-1.5-1-2.9-1.4-4.4c-0.9-3.3-1.7-6.7-2.2-10.1c-0.2-1-0.4-2-0.6-3c-0.1-0.8-0.2-1.6-0.3-2.4v-0.1c0-1.1,0.1-1.2,1-1.5
			c0.8-0.3,1.6-0.6,2.5-0.8c1-0.3,2-0.5,3-0.8C576.8,344.3,576.9,344.3,577.1,344.3z"/>
		<path class="st0" d="M502.4,268.7c0,0.4,0,0.7,0,1c-0.2,1.5-1.4,2.6-2.8,2.7c-1.6,0.2-3.1-0.9-3.4-2.6c0-0.1,0-0.2,0-0.3
			c-0.1-0.7,0-1.3,0.3-1.9c0.3-0.7,1-1.3,1.8-1.5c0.5-0.2,1-0.2,1.5-0.2c1.3,0.2,2.3,1.1,2.5,2.4
			C502.3,268.4,502.3,268.5,502.4,268.7L502.4,268.7z"/>
		<path class="st0" d="M501.5,278.8c-0.6,0.1-1.2-0.2-1.5-0.8c-0.3-0.6-0.1-1.3,0.5-1.6l0.2-0.1c0.6-0.3,1.1-0.5,1.7-0.8
			c0.6-0.2,1.2-0.1,1.6,0.4c0.5,0.6,0.4,1.4-0.2,1.8c-0.1,0.1-0.2,0.1-0.2,0.2c-0.6,0.3-1.1,0.5-1.7,0.8
			C501.7,278.8,501.6,278.8,501.5,278.8z"/>
		<path class="st0" d="M512.9,273.5c-0.7,0.1-1.3-0.2-1.5-0.9c-0.2-0.6,0.1-1.3,0.7-1.6c0.6-0.3,1.2-0.5,1.8-0.8
			c0.7-0.3,1.5,0.1,1.7,0.8c0.2,0.6,0,1.3-0.6,1.6c-0.6,0.3-1.2,0.5-1.8,0.8C513,273.4,512.9,273.4,512.9,273.5z"/>
		<path class="st0" d="M529.4,266.5c-0.6,0.1-1.2-0.2-1.5-0.8c-0.3-0.6,0-1.3,0.6-1.6c0.6-0.3,1.3-0.6,2-0.8
			c0.6-0.1,1.3,0.2,1.5,0.8c0.2,0.6,0,1.3-0.6,1.6c-0.6,0.3-1.3,0.5-1.9,0.8L529.4,266.5z"/>
		<path class="st0" d="M540.6,261.9c-0.6,0.1-1.3-0.2-1.5-0.8c-0.3-0.6,0-1.3,0.5-1.6c0.6-0.3,1.2-0.6,1.8-0.9
			c0.6-0.2,1.3,0.1,1.6,0.6c0.3,0.5,0.2,1.2-0.3,1.7c-0.1,0.1-0.2,0.2-0.3,0.2l-1.5,0.7C540.8,261.8,540.7,261.9,540.6,261.9z"/>
		<path class="st0" d="M546.9,255.9c0.6-0.1,1.2,0.1,1.5,0.7c0.3,0.5,0.2,1.1-0.2,1.6c-0.1,0.1-0.3,0.2-0.5,0.3
			c-0.4,0.2-0.8,0.4-1.2,0.6c-0.2,0.1-0.4,0.2-0.6,0.2c-0.6,0.1-1.2-0.2-1.5-0.8c-0.2-0.6-0.1-1.3,0.4-1.6c0.1-0.1,0.2-0.1,0.3-0.2
			l1.2-0.6C546.6,256,546.8,255.9,546.9,255.9z"/>
		<path class="st0" d="M507.5,276.1c-0.6,0.1-1.2-0.2-1.5-0.8c-0.3-0.6-0.1-1.2,0.4-1.6c0.6-0.4,1.2-0.7,1.9-1
			c0.6-0.3,1.4,0,1.6,0.7c0,0,0,0,0,0c0.3,0.6,0.1,1.4-0.5,1.7c-0.5,0.3-1.1,0.6-1.6,0.9C507.7,276,507.6,276.1,507.5,276.1z"/>
		<path class="st0" d="M518.5,271.1c-0.7,0.2-1.4-0.1-1.6-0.8c-0.3-0.6,0-1.3,0.6-1.6c0.6-0.3,1.3-0.6,1.9-0.8
			c0.7-0.2,1.4,0.2,1.6,0.9c0.1,0.5-0.1,1.1-0.5,1.4C519.9,270.6,519.2,270.9,518.5,271.1z"/>
		<path class="st0" d="M525,265.5c0.6-0.1,1.2,0.2,1.5,0.8c0.3,0.6,0,1.3-0.6,1.6c-0.6,0.3-1.3,0.6-1.9,0.8
			c-0.7,0.2-1.3-0.2-1.6-0.8c-0.3-0.6,0-1.4,0.7-1.7c0.5-0.3,1.1-0.5,1.7-0.7L525,265.5z"/>
		<path class="st0" d="M552,252.7c0.6-0.1,1.3,0.2,1.5,0.8c0.3,0.5,0.1,1.2-0.3,1.5c-0.6,0.4-1.2,0.8-1.8,1.2
			c-0.6,0.3-1.3,0.1-1.6-0.5c-0.3-0.5-0.3-1.2,0.1-1.7c0.1-0.1,0.2-0.2,0.3-0.2c0.5-0.3,0.9-0.6,1.4-0.9
			C551.7,252.8,551.8,252.7,552,252.7z"/>
		<path class="st0" d="M537.7,262.2c0.1,0.5-0.2,1-0.7,1.2c-0.6,0.3-1.3,0.6-1.9,0.8c-0.6,0.2-1.2-0.1-1.5-0.6
			c-0.3-0.6-0.2-1.2,0.3-1.7c0.1-0.1,0.3-0.2,0.4-0.2l1.5-0.6c0.3-0.1,0.7-0.2,1,0C537.3,261.2,537.7,261.7,537.7,262.2z"/>
		<path class="st0" d="M529.3,377c1.6-0.3,3.2,0.7,3.6,2.3c0,0.1,0,0.1,0,0.2c0.1,0.4,0.1,0.7,0,1.1c-0.1,1.6-1.4,2.8-3,2.8
			c-1.7,0.1-3-1.2-3.2-2.9c0-0.3,0-0.6,0-0.9C526.9,378.3,528,377.1,529.3,377z"/>
		<path class="st0" d="M511.2,297.6c0.1,0.8-0.1,1.5-0.6,2.1c-0.3,0.5-0.8,0.9-1.4,1.1c-0.3,0.1-0.7,0.2-1,0.2
			c-1.4,0.1-2.6-0.7-3.1-2c-0.2-0.5-0.3-1.1-0.2-1.7c0.1-1.5,1.3-2.7,2.7-2.8C509.7,294.3,510.9,295.8,511.2,297.6z"/>
		<path class="st0" d="M519.4,325.5c0.1,0.4,0.1,0.9,0,1.3c-0.2,1.2-1.1,2.1-2.3,2.3c-0.3,0.1-0.7,0.1-1,0.1c-1,0-1.9-0.6-2.4-1.5
			c-0.4-0.8-0.6-1.7-0.4-2.5c0.3-1.4,1.5-2.5,3-2.5C517.9,322.6,519.3,323.8,519.4,325.5z"/>
		<path class="st0" d="M525.6,351.4c0,0.3,0,0.5,0,0.8c-0.1,1.6-1.4,2.9-3,2.9c-1.5,0.1-2.9-1-3.2-2.5c-0.1-0.5-0.1-1.1,0-1.7
			c0.2-1.1,1.1-2,2.2-2.2c0.4-0.1,0.8-0.1,1.2-0.1c1.2,0.1,2.2,1,2.5,2.1C525.5,351,525.5,351.2,525.6,351.4z"/>
		<path class="st0" d="M482.3,303l0.9-0.1c0.9-0.1,1.7,0.5,1.9,1.3c0.2,0.9-0.3,1.8-1.2,2c-0.9,0.2-1.7,0.4-2.6,0.5
			c-0.9,0.1-1.6-0.5-1.8-1.3c-0.2-0.9,0.3-1.7,1.1-2C481.1,303.2,481.6,303.1,482.3,303z"/>
		<path class="st0" d="M503.4,384.9c0.2,0,0.4,0,0.7,0c0.8,0.1,1.4,0.7,1.5,1.5c0.1,0.8-0.4,1.5-1.1,1.8c-0.9,0.3-1.7,0.5-2.6,0.7
			c-0.8,0.2-1.6-0.3-1.9-1.1c-0.3-0.8,0-1.8,0.8-2.2c0.1-0.1,0.3-0.1,0.5-0.2l0.2-0.1L503.4,384.9z"/>
		<path class="st0" d="M490,333.8c-0.4,0.1-0.8,0.1-1.2,0.2c-0.9,0.1-1.8-0.5-2-1.4c-0.1-0.8,0.4-1.6,1.2-1.9
			c0.2-0.1,0.3-0.1,0.5-0.1l2.2-0.3c0.9-0.1,1.8,0.6,1.9,1.6c0.1,0.7-0.3,1.3-0.9,1.6c-0.2,0.1-0.4,0.2-0.7,0.2
			C490.7,333.7,490.4,333.8,490,333.8L490,333.8z"/>
		<path class="st0" d="M496.2,355.9c0.7-0.3,1.5-0.1,2,0.5c0.4,0.5,0.5,1.1,0.3,1.7c-0.2,0.5-0.5,0.8-1,1c-0.8,0.3-1.6,0.5-2.4,0.8
			c-0.8,0.2-1.7-0.2-2-1c-0.3-0.8-0.1-1.7,0.7-2.1c0.3-0.1,0.6-0.3,0.9-0.3C495.2,356.2,495.8,356,496.2,355.9z"/>
		<path class="st0" d="M475.4,273.3l1-0.2c0.9-0.2,1.8,0.3,2,1.2c0,0,0,0.1,0,0.1c0.2,0.9-0.4,1.8-1.3,2c0,0,0,0,0,0
			c-0.7,0.1-1.4,0.3-2.1,0.4c-0.3,0.1-0.7,0.1-1,0c-0.9-0.3-1.4-1.2-1.1-2.2c0.2-0.6,0.7-1,1.3-1.2
			C474.5,273.5,475,273.5,475.4,273.3L475.4,273.3z"/>
		<path class="st0" d="M470.6,286.6c-0.4,0-1.1,0-1.7,0c-0.7,0-1.2-0.6-1.2-1.3c0-0.7,0.5-1.3,1.1-1.4c0.7-0.1,1.3-0.1,2,0
			c0.7,0.1,1.2,0.6,1.2,1.3C471.9,286,471.3,286.6,470.6,286.6C470.6,286.6,470.6,286.6,470.6,286.6z"/>
		<path class="st0" d="M464.3,286.9c-0.7,0-1.4,0.1-2,0.1c-0.7,0-1.3-0.5-1.3-1.2c-0.1-0.7,0.4-1.3,1.1-1.4c0.7-0.1,1.4-0.1,2.1-0.1
			c0.5,0,1,0.4,1.1,0.9c0.2,0.5,0,1.1-0.4,1.5C464.7,286.7,464.5,286.8,464.3,286.9z"/>
		<path class="st0" d="M457.5,287.4c-0.5,0-1,0.1-1.6,0.1c-0.7,0-1.3-0.5-1.4-1.2c-0.1-0.7,0.4-1.3,1.1-1.4c0,0,0,0,0,0
			c0.7-0.1,1.3-0.1,2-0.1c0.7,0.1,1.3,0.7,1.2,1.4c0,0.2-0.1,0.3-0.1,0.5c-0.2,0.3-0.5,0.6-0.8,0.7L457.5,287.4z"/>
		<path class="st0" d="M451.7,287.6c-0.7,0-1.3,0-1.9,0c-0.7,0-1.3-0.6-1.3-1.3c0,0,0,0,0,0c0-0.7,0.6-1.3,1.3-1.3
			c0.6,0,1.2,0,1.8,0c0.6,0,1.2,0.4,1.3,1c0.2,0.6-0.1,1.2-0.5,1.5C452.1,287.5,451.9,287.6,451.7,287.6z"/>
		<path class="st0" d="M443.8,285c0.5,0,1.1,0,1.8,0c0.7,0.1,1.3,0.7,1.2,1.4c0,0.7-0.5,1.2-1.2,1.3c-0.3,0-0.6,0-0.9,0
			c-0.4,0-0.7,0-1.1,0c-0.7,0-1.3-0.7-1.2-1.4c0-0.2,0.1-0.3,0.1-0.5C442.8,285.3,443.3,285,443.8,285z"/>
		<path class="st0" d="M476.9,285.9c-0.4,0-0.8,0.1-1.2,0.1c-0.7,0.1-1.3-0.5-1.4-1.2c-0.1-0.7,0.4-1.4,1.2-1.5c0.1,0,0.2,0,0.3,0
			c0.4,0,0.9-0.1,1.3-0.1c0.2,0,0.5,0,0.7,0c0.6,0.2,0.9,0.7,0.9,1.3c0,0.6-0.4,1.1-1,1.3C477.4,285.8,477.2,285.9,476.9,285.9z"/>
		<path class="st0" d="M425.6,284.9c0.5,0,1.2,0,1.9,0c0.7,0.1,1.2,0.7,1.2,1.4c0,0.7-0.5,1.2-1.2,1.3c-0.7,0-1.3,0-2,0
			c-0.7,0-1.2-0.6-1.2-1.3C424.4,285.5,424.9,284.9,425.6,284.9z"/>
		<path class="st0" d="M437.5,285c0.7,0,1.4,0,2.1,0c0.7,0.1,1.2,0.6,1.2,1.3c0,0.7-0.5,1.3-1.2,1.4c-0.4,0-0.8,0-1.3,0
			c-0.3,0-0.6,0-0.9,0c-0.5-0.1-0.9-0.5-1-1c-0.1-0.5,0.1-1.1,0.5-1.4C437.2,285.2,437.4,285.1,437.5,285z"/>
		<path class="st0" d="M431.8,284.9c0.4,0,1.1,0,1.7,0c0.7,0.1,1.3,0.7,1.2,1.4c0,0.1,0,0.3-0.1,0.4c-0.2,0.5-0.6,0.8-1.1,0.8
			c-0.6,0-1.3,0-1.9,0c-0.4,0-0.8-0.2-1-0.5c-0.4-0.6-0.3-1.5,0.3-1.9C431.2,285,431.5,284.9,431.8,284.9z"/>
		<path class="st0" d="M537.8,280.9c1.6-0.3,3.2,0.7,3.5,2.4c0.1,0.5,0.2,0.9,0.1,1.4c-0.2,1.7-1.8,2.9-3.5,2.6
			c-1.3-0.2-2.3-1.2-2.6-2.4c-0.1-0.4-0.1-0.8-0.1-1.2C535.3,282.2,536.4,281,537.8,280.9z"/>
		<path class="st0" d="M445.2,308.3c-0.2-0.8,0-1.7,0.4-2.4c0.7-1.1,1.9-1.6,3.2-1.4c1.2,0.1,2.1,1,2.4,2.1c0.2,0.7,0.3,1.4,0.1,2.1
			c-0.2,1.1-1.1,2-2.2,2.2c-1.6,0.5-3.3-0.4-3.8-2C445.3,308.7,445.2,308.5,445.2,308.3z"/>
	</g>
	<g id="Smiley">
		<path class="st0" d="M647.5,576.8c-2.1-0.6-4.1-1.5-6-2.6c-3.2-2-6-4.6-8.1-7.8c-3.7-5.4-5.5-11.9-5-18.4c0.1-2.6,0.7-5.1,1.6-7.6
			c1.6-4.1,4.3-7.7,7.9-10.2c4.7-3.3,10.3-4.9,16-4.7c1.2,0,2.4,0.1,3.6,0.3c1.8,0.2,3.6,0.7,5.3,1.4c2.8,1.1,5.3,2.7,7.5,4.7
			c3.8,3.4,6.6,7.8,8.1,12.7c1.2,3.8,1.6,7.8,1.2,11.8c-0.2,1.9-0.6,3.8-1.2,5.5c-1.2,3.5-3.2,6.7-5.9,9.2
			c-3.1,2.9-6.8,4.9-10.9,5.9c-3.6,0.8-7.3,1-11,0.5C649.5,577.3,648.5,577.1,647.5,576.8z M646.8,530.7c-3.8,1-7.2,3.2-9.7,6.2
			c-1.6,1.9-2.8,4.2-3.5,6.7c-2.5,9.1,0.5,18.8,7.6,25c1.9,1.6,4,2.8,6.3,3.7c1.3,0.5,2.7,0.8,4.1,1c2,0.2,4.1,0.2,6.1,0
			c3.4-0.3,6.6-1.5,9.4-3.4c3.3-2.2,5.8-5.3,7.1-9c0.7-1.9,1.1-3.9,1.2-5.9c0.4-5.6-1.1-11.1-4.3-15.7c-1.9-2.9-4.5-5.3-7.5-7
			c-1.8-1-3.8-1.7-5.8-2.1C654.2,529.6,650.4,529.8,646.8,530.7z"/>
		<path class="st3" d="M663.7,532.3c3,1.7,5.6,4.1,7.5,7c3.2,4.6,4.7,10.1,4.3,15.7c-0.1,2-0.5,4-1.2,5.9c-1.3,3.7-3.8,6.8-7.1,9
			c-2.8,1.9-6,3-9.4,3.4c-2,0.2-4.1,0.2-6.1,0c-1.4-0.2-2.8-0.5-4.1-1c-2.3-0.8-4.5-2.1-6.3-3.7c-7.1-6.2-10.1-15.9-7.6-25
			c0.7-2.4,1.9-4.7,3.5-6.7c2.5-3,5.9-5.2,9.7-6.2c3.6-1,7.4-1.2,11.1-0.5C659.9,530.6,661.9,531.3,663.7,532.3z M657.9,566.8
			c2-0.6,3.8-1.6,5.3-3c1.8-1.7,3.3-3.7,4.3-5.9c0.1-0.2,0.2-0.5,0.2-0.8c0.1-0.9-0.4-1.7-1.2-1.9c-0.8-0.2-1.6,0.1-2,0.8
			c-0.1,0.1-0.1,0.3-0.2,0.4c-0.8,1.8-2,3.5-3.5,4.8c-1.6,1.4-3.6,2.3-5.8,2.4c-3.8,0.3-7.5-1.4-9.8-4.5c-0.6-0.8-1.1-1.7-1.5-2.6
			c-0.2-0.5-0.5-0.8-1-1c-0.6-0.3-1.3-0.2-1.8,0.3c-0.5,0.4-0.7,1.1-0.6,1.8c0,0.2,0.1,0.4,0.2,0.5c1.5,3.7,4.5,6.6,8.2,8.2
			c0.9,0.4,1.9,0.7,2.9,0.8C653.8,567.4,655.9,567.3,657.9,566.8L657.9,566.8z M645.2,547.6c0.1,0.6,0.3,1.1,0.6,1.6
			c0.2,0.3,0.4,0.6,0.7,0.8c0.7,0.7,1.9,0.7,2.6,0c0.3-0.3,0.6-0.6,0.8-0.9c0.3-0.5,0.5-1.1,0.6-1.7c0.2-1.2,0.2-2.5-0.2-3.7
			c-0.1-0.4-0.3-0.8-0.5-1.2c-0.2-0.3-0.4-0.6-0.7-0.8c-0.7-0.7-1.9-0.7-2.6,0c-0.5,0.4-0.8,0.9-1,1.5c-0.2,0.4-0.3,0.8-0.4,1.3
			C644.9,545.6,645,546.6,645.2,547.6z M662.6,544.2c-0.2-0.6-0.5-1.2-1-1.7c-0.3-0.3-0.6-0.5-1-0.6c-0.6-0.2-1.2-0.1-1.7,0.3
			c-0.5,0.4-0.9,0.9-1.1,1.5c-0.6,1.7-0.6,3.5,0,5.2c0.2,0.5,0.5,1,0.8,1.4c0.2,0.3,0.5,0.5,0.8,0.6c0.7,0.3,1.5,0.1,2.1-0.4
			c0.5-0.5,0.9-1.1,1.1-1.7c0.1-0.4,0.2-0.7,0.3-1.1C663,546.5,662.9,545.3,662.6,544.2z"/>
		<path class="st0" d="M651.6,567c2.1,0.4,4.3,0.3,6.3-0.2c2-0.6,3.8-1.6,5.3-3c1.8-1.7,3.3-3.7,4.3-5.9c0.1-0.2,0.2-0.5,0.2-0.8
			c0.1-0.9-0.4-1.7-1.2-1.9c-0.8-0.2-1.6,0.1-2,0.8c-0.1,0.1-0.1,0.3-0.2,0.4c-0.8,1.8-2,3.5-3.5,4.8c-1.6,1.4-3.6,2.3-5.8,2.4
			c-3.8,0.3-7.5-1.4-9.8-4.5c-0.6-0.8-1.1-1.7-1.5-2.6c-0.2-0.5-0.5-0.8-1-1c-0.6-0.3-1.3-0.2-1.8,0.3c-0.5,0.4-0.7,1.1-0.6,1.8
			c0,0.2,0.1,0.4,0.2,0.5c1.5,3.7,4.5,6.6,8.2,8.2C649.7,566.6,650.6,566.9,651.6,567z"/>
		<path class="st0" d="M645.1,544.5c-0.2,1-0.1,2.1,0.1,3.1c0.1,0.6,0.3,1.1,0.6,1.6c0.2,0.3,0.4,0.6,0.7,0.8c0.7,0.7,1.9,0.7,2.6,0
			c0.3-0.3,0.6-0.6,0.8-0.9c0.3-0.5,0.5-1.1,0.6-1.7c0.2-1.2,0.2-2.5-0.2-3.7c-0.1-0.4-0.3-0.8-0.5-1.2c-0.2-0.3-0.4-0.6-0.7-0.8
			c-0.7-0.7-1.9-0.7-2.6,0c-0.5,0.4-0.8,0.9-1,1.5C645.3,543.7,645.2,544.1,645.1,544.5z"/>
		<path class="st0" d="M662.9,547.6c0.2-1.2,0.1-2.4-0.3-3.5c-0.2-0.6-0.5-1.2-1-1.7c-0.3-0.3-0.6-0.5-1-0.6
			c-0.6-0.2-1.2-0.1-1.7,0.3c-0.5,0.4-0.9,0.9-1.1,1.5c-0.6,1.7-0.6,3.5,0,5.2c0.2,0.5,0.5,1,0.8,1.4c0.2,0.3,0.5,0.5,0.8,0.6
			c0.7,0.3,1.5,0.1,2.1-0.4c0.5-0.5,0.9-1.1,1.1-1.7C662.7,548.4,662.8,548,662.9,547.6z"/>
	</g>
	<path class="st0" d="M403.5,433.4c-2.8,0-2.8,4.3,0,4.3S406.3,433.4,403.5,433.4z"/>
	<path class="st0" d="M403.8,409.5c-2.8,0-2.8,4.3,0,4.3S406.6,409.5,403.8,409.5z"/>
	<path class="st0" d="M384,425.3c-4.2,0-4.2,6.5,0,6.5S388.2,425.3,384,425.3z"/>
	<path class="st0" d="M548.1,804.5c-3,2.9,1.5,7.5,4.5,4.6S551.1,801.6,548.1,804.5z"/>
	<path class="st0" d="M657.5,848.4c2-1.9-1-5-3-3.1S655.5,850.3,657.5,848.4z"/>
	<path class="st0" d="M618.4,867.3c-2,1.9,1,5,3,3.1S620.4,865.4,618.4,867.3z"/>
	<path class="st0" d="M666.5,859.4c-4,3.9,2,10,6,6.2S670.5,855.5,666.5,859.4z"/>
	<path class="st0" d="M585,612.4c-0.1,0.1-0.3,0.1-0.4,0.2c-0.3,0.3-0.7,0.6-1.2,0.7c-2.1,0.7-4.2,1.7-6,3c-2.9,2-5.2,4.8-6.6,8
		c-0.6,1.4-1.1,2.9-1.6,4.3c-0.3,0.9-0.5,1.8-0.5,2.7c0,0.4,0,0.8-0.1,1.2c-0.1,0.5-0.3,0.9-0.6,1.2c-0.4,0.4-1,0.6-1.5,0.5
		c-0.6,0-1.2-0.5-1.3-1.1c0-0.1-0.1-0.3-0.1-0.5c0-0.3-0.1-0.6,0-0.9c0-1.2-0.3-2.5-0.7-3.6c-0.2-0.7-0.5-1.3-0.8-1.9
		c-1.6-3.3-3.7-6.3-6.3-8.9c-0.8-0.8-1.6-1.5-2.5-2.1c-1.4-1.1-3-1.9-4.7-2.4c-0.4-0.1-0.9-0.3-1.2-0.6c-0.2-0.1-0.3-0.3-0.4-0.5
		c-0.3-0.6-0.1-1.3,0.4-1.7c0.2-0.1,0.4-0.3,0.6-0.3c0.2-0.1,0.4-0.1,0.7-0.1c0.7-0.1,1.4-0.2,2.1-0.3c1.3-0.2,2.6-0.7,3.7-1.4
		c1-0.6,1.9-1.3,2.7-2.1c2.1-2.2,3.7-4.8,4.8-7.6c0.6-1.8,1-3.6,1.3-5.4c0.1-0.8,0.3-1.5,0.4-2.3c0.2-0.4,0.5-0.7,1-0.8
		c0.7-0.1,1.4,0.4,1.6,1.1c0.2,1,0.4,2,0.5,3c0.2,1.8,0.7,3.7,1.5,5.4c0.6,1.5,1.4,2.9,2.3,4.3c0.8,1.2,1.7,2.2,2.7,3.2
		c1.3,1.2,2.9,2,4.7,2.5c1,0.2,2,0.4,3,0.5c0.5,0.1,0.9,0.1,1.4,0.1c0.3,0,0.6,0.2,0.8,0.4c0.2,0.2,0.3,0.3,0.5,0.5L585,612.4z
		 M566.1,600.5c-0.1,0-0.2,0-0.2,0c-0.1,0.1-0.2,0.2-0.3,0.3c-0.5,1.1-1.1,2.2-1.6,3.3c-1.4,2.6-3.4,4.8-6,6.3l-1.4,0.8
		c-0.2,0.1-0.3,0.3-0.2,0.4c0,0,0,0.1,0.1,0.1c0.6,0.5,1.2,1,1.8,1.4c0.7,0.5,1.4,1,2,1.6c2.2,1.9,4.1,4.3,5.4,6.9
		c0.2,0.5,0.5,1,0.8,1.4c0.1,0.2,0.4,0.2,0.6,0c0,0,0,0,0,0c0.2-0.4,0.5-0.8,0.7-1.2c1.7-3.4,4.2-6.3,7.3-8.6
		c0.3-0.2,0.6-0.5,0.9-0.7c0.2-0.2,0.2-0.4,0.1-0.6l-0.9-0.7c-0.9-0.6-1.8-1.2-2.7-1.9c-1.3-0.9-2.3-2-3.2-3.3
		c-0.4-0.6-0.7-1.2-1.1-1.8c-0.5-0.9-0.9-1.8-1.4-2.7c-0.2-0.3-0.4-0.7-0.6-1C566.2,600.6,566.2,600.6,566.1,600.5z"/>
	<path class="st2" d="M566.1,600.5c0,0,0.1,0.1,0.2,0.1c0.2,0.3,0.4,0.7,0.6,1c0.5,0.9,0.9,1.8,1.4,2.7c0.3,0.6,0.7,1.2,1.1,1.8
		c0.8,1.3,1.9,2.4,3.2,3.3c0.9,0.6,1.8,1.2,2.7,1.9l0.9,0.7c0.1,0.2,0.1,0.5-0.1,0.6c-0.3,0.2-0.6,0.5-0.9,0.7
		c-3.1,2.3-5.6,5.2-7.3,8.6c-0.2,0.4-0.4,0.8-0.7,1.2c-0.1,0.2-0.4,0.2-0.6,0c0,0,0,0,0,0c-0.3-0.4-0.6-0.9-0.8-1.4
		c-1.4-2.6-3.2-5-5.4-6.9c-0.6-0.6-1.3-1.1-2-1.6c-0.6-0.4-1.3-0.9-1.8-1.4c-0.1-0.1-0.1-0.3,0-0.5c0,0,0.1-0.1,0.1-0.1l1.4-0.8
		c2.6-1.5,4.6-3.7,6-6.3c0.6-1.1,1.1-2.2,1.6-3.3c0.1-0.1,0.2-0.2,0.3-0.3C566,600.5,566,600.5,566.1,600.5z"/>
	<path class="st0" d="M60,498.8c0.2,0.2,0.4,0.4,0.6,0.6c0.3,0.2,0.5,0.5,0.6,0.9c0.2,0.5,0.2,1.1,0.2,1.7c0,0.9,0,1.9,0.1,2.8
		c0.2,1.6,0.8,3.1,1.7,4.4c0.4,0.5,0.8,1,1.3,1.5c0.6,0.6,1.2,1.2,1.9,1.7c2.1,1.6,4.3,2.9,6.7,4c0.6,0.3,1.2,0.5,1.8,0.7
		c0.4,0.2,0.8,0.6,0.9,1c0.4,0.9,0,1.9-0.8,2.4c-0.2,0.1-0.5,0.2-0.8,0.2c-1,0.1-2,0.3-3,0.5c-1.9,0.4-3.7,1.3-5.2,2.7
		c-0.6,0.6-1.2,1.2-1.6,1.9c-0.7,1.1-1.4,2.2-1.9,3.4c-0.5,1-0.8,2.1-1,3.2c-0.2,1.1-0.4,2.2-0.5,3.3c-0.1,0.8-0.3,1.5-0.6,2.2
		c-0.2,0.4-0.5,0.8-0.9,1c-0.5,0.3-1.1,0.3-1.6,0c-0.5-0.3-0.8-0.8-0.9-1.3c-0.1-0.6-0.1-1.3-0.2-2s0-1.1-0.1-1.7
		c-0.1-1.4-0.4-2.8-0.9-4.1c-0.4-0.9-0.8-1.9-1.3-2.8c-0.5-1.1-1.3-2.1-2.2-2.9c-1.1-1.1-2.4-1.8-3.8-2.3c-0.9-0.3-1.8-0.5-2.7-0.5
		c-0.4,0-0.8,0-1.1-0.1c-0.4-0.1-0.7-0.2-1-0.4c-0.6-0.3-0.9-1-0.8-1.7c0-0.5,0.3-0.9,0.7-1.2c0.4-0.2,0.8-0.4,1.3-0.6
		c0.7-0.3,1.4-0.5,2.1-0.8c3.8-1.6,7-4.5,8.9-8.2c0.7-1.3,1.2-2.8,1.2-4.3c0-0.9,0-1.9,0.1-2.8c0-0.8,0.3-1.5,0.8-2.1
		c0.1-0.2,0.2-0.3,0.2-0.5L60,498.8z M66.6,518.2c0-0.1,0-0.2,0-0.3c-0.1-0.2-0.3-0.5-0.6-0.6c-2.4-1.7-4.4-3.8-5.9-6.3
		c-0.1-0.2-0.2-0.3-0.3-0.5c-0.2-0.2-0.5-0.2-0.7,0c0,0,0,0,0,0c-0.4,0.5-0.8,1-1.2,1.6c-1.2,1.8-2.6,3.4-4.3,4.7
		c-0.5,0.4-1,0.8-1.5,1.2c-0.1,0.1-0.3,0.3-0.4,0.4c-0.2,0.2-0.2,0.3,0,0.5c0.3,0.3,0.6,0.5,0.9,0.7c2.2,1.3,3.9,3.2,5.1,5.4
		c0.2,0.4,0.5,0.8,0.7,1.2s0.8,0.4,1.1-0.1c0.5-0.8,1-1.6,1.4-2.4c0.8-1.5,2-2.7,3.3-3.7c0.7-0.5,1.3-1,2-1.5
		C66.4,518.5,66.5,518.3,66.6,518.2L66.6,518.2z"/>
	<path class="st2" d="M66.6,518.2c-0.1,0.2-0.2,0.3-0.3,0.4c-0.7,0.5-1.3,1-2,1.5c-1.4,1-2.5,2.3-3.3,3.7c-0.5,0.8-1,1.6-1.4,2.4
		c-0.3,0.5-0.8,0.5-1.1,0.1s-0.5-0.8-0.7-1.2c-1.2-2.2-3-4.1-5.1-5.4c-0.3-0.2-0.6-0.4-0.9-0.7c-0.2-0.1-0.2-0.3,0-0.5
		c0.1-0.1,0.2-0.3,0.4-0.4c0.5-0.4,1-0.8,1.5-1.2c1.7-1.4,3.1-2.9,4.3-4.7c0.4-0.5,0.8-1,1.2-1.6c0.2-0.2,0.5-0.2,0.7,0c0,0,0,0,0,0
		c0.1,0.1,0.2,0.3,0.3,0.5c1.5,2.5,3.5,4.6,5.9,6.3c0.2,0.1,0.4,0.4,0.6,0.6C66.6,518,66.6,518.1,66.6,518.2z"/>
	<path class="st0" d="M700.8,436.1c-1.7-0.1-3-0.3-4.1-0.5c-5.6-0.9-6.9-2.2-6.4-11.5c0-0.7-0.5-1.4-1.2-1.5
		c-0.8-0.1-1.5,0.5-1.6,1.3c0,0,0,0,0,0c-0.3,4.5-0.8,7.7-2.3,9.1c-1,0.9-2.7,1.2-5.3,1.2c-1.1,0-2.4-0.1-4-0.2h-0.2
		c-0.8,0-1.4,0.6-1.4,1.4c0,0.7,0.5,1.3,1.1,1.4h0.2c1.7,0.1,3,0.3,4.1,0.5c5.6,0.9,6.9,2.2,6.4,11.5c0,0.7,0.4,1.3,1.1,1.5h0.2
		c0.7,0,1.3-0.6,1.4-1.3c0.3-4.5,0.8-7.7,2.3-9.1c1-0.9,2.7-1.2,5.3-1.2c1.1,0,2.4,0.1,4.1,0.2c0.8,0,1.4-0.7,1.3-1.4
		C702,436.8,701.4,436.2,700.8,436.1L700.8,436.1z"/>
	<path class="st0" d="M600.5,178.4c-1.7-0.1-3-0.3-4.1-0.5c-5.6-0.9-6.9-2.2-6.4-11.6c0-0.7-0.5-1.3-1.2-1.4
		c-0.8-0.1-1.5,0.5-1.6,1.3c0,0,0,0,0,0c-0.2,4.4-0.8,7.7-2.3,9.1c-1,0.8-2.7,1.2-5.3,1.2c-1.1,0-2.4-0.1-4-0.2h-0.2
		c-0.8,0-1.4,0.7-1.3,1.4c0,0.6,0.5,1.2,1.1,1.3h0.2c1.7,0.1,3,0.3,4.1,0.5c5.6,0.9,6.9,2.2,6.4,11.6c0,0.7,0.5,1.3,1.2,1.4h0.2h0.1
		c0.7,0,1.3-0.6,1.4-1.3c0.3-4.4,0.8-7.7,2.3-9.1c1-0.8,2.7-1.2,5.3-1.2c1.1,0,2.4,0.1,4.1,0.2c0.8,0,1.4-0.7,1.3-1.4
		C601.7,179,601.1,178.4,600.5,178.4L600.5,178.4z"/>
	<path class="st0" d="M259,166.6c-5.6,0-5.6,8.6,0,8.6C264.5,175.3,264.5,166.6,259,166.6z"/>
	<path class="st0" d="M45.6,567.1c-2.8,0-2.8,4.3,0,4.3S48.4,567.1,45.6,567.1z"/>
	<path class="st0" d="M91.5,570.6c-2.8,0-2.8,4.3,0,4.3S94.3,570.6,91.5,570.6z"/>
	<path class="st0" d="M103,560.2c-2.8,0-2.8,4.3,0,4.3S105.8,560.2,103,560.2z"/>
	<path class="st0" d="M630.2,279.2c-2.8,0-2.8,4.3,0,4.3S632.9,279.2,630.2,279.2z"/>
	<path class="st0" d="M698.8,300.3c-4.2,0-4.2,6.5,0,6.5S703,300.3,698.8,300.3z"/>
	<path class="st0" d="M675.4,329.5c-2.8,0-2.8,4.3,0,4.3S678.2,329.5,675.4,329.5z"/>
	<path class="st0" d="M566.1,504.5c2.5-1.2,0.5-5.1-1.9-3.8S563.6,505.8,566.1,504.5z"/>
	<path class="st0" d="M495.4,516.7c3.7-1.9,0.8-7.6-2.9-5.8S491.7,518.6,495.4,516.7z"/>
	<path class="st0" d="M503.1,480.1c2.5-1.2,0.5-5.1-1.9-3.8S500.6,481.3,503.1,480.1z"/>
</g>
</svg>
