<svg xmlns="http://www.w3.org/2000/svg" viewBox="0 0 750 1334"><defs><style>.cls-1,.cls-4{fill:#0000e2;}.cls-2,.cls-7{fill:#97d3dd;}.cls-2,.cls-3,.cls-4,.cls-5{fill-rule:evenodd;}.cls-3{fill:#fff;}.cls-5,.cls-6{fill:#ffaa64;}</style></defs><title>web_PinPatch2019</title><g id="Calque_2" data-name="Calque 2"><g id="Push_Pin" data-name="Push Pin"><path class="cls-1" d="M188.63,1234.41l-.11-.16-.46-.69a20.2,20.2,0,0,0-3.73-4.36,19,19,0,0,0-2.06-1.56,19.27,19.27,0,0,0-6.28-2.72l-4.82-11.85h0a4.27,4.27,0,0,0,2.18-1.65,4.59,4.59,0,0,0-.59-5.82,4.22,4.22,0,0,0-4.66-1l-18.16,6.5a5.16,5.16,0,0,0-1.37.64l-.46.34-.52.55-.29.47a4.57,4.57,0,0,0,.28,5.07,4.39,4.39,0,0,0,3.54,1.85,4,4,0,0,0,1.62-.3l.33-.12,3.5,12a19.06,19.06,0,0,0-4.4,11.49,23.41,23.41,0,0,0,.08,2.91v.12a4.71,4.71,0,0,1,0,.53l0,.3a.4.4,0,0,0,.16.32.49.49,0,0,0,.49.09l0-.44h0l.13.39,12.69-4.37,10.31,18.75a1.86,1.86,0,0,0,2.25.88,1.94,1.94,0,0,0,.82-.56,2,2,0,0,0,.39-1.65l-4.06-20.75,12.94-4.46a.44.44,0,0,0,.29-.29A.45.45,0,0,0,188.63,1234.41Zm-19.3,7.25,2.57-.89,1.68,8.62Zm-13.37.65a15.62,15.62,0,0,1,1.95-6.21,11.4,11.4,0,0,1,1.21-1.68,10.09,10.09,0,0,1,2.48-2.17,4,4,0,0,1,.46-.24,1.86,1.86,0,0,0-.08-3.45,1.8,1.8,0,0,0-1.42,0,9.33,9.33,0,0,0-.83.43l-3.14-10.75.81-.29.44-.16a1.9,1.9,0,0,0,1.07-2.36,1.85,1.85,0,0,0-2.34-1.14l-2.88,1-2.28.82a.66.66,0,0,1-.84-.28.89.89,0,0,1,0-1,.63.63,0,0,1,.29-.2l11.78-4.22c2.24-.8,4.48-1.59,6.72-2.42a.71.71,0,0,1,.66.07.87.87,0,0,1,.39.67.78.78,0,0,1-.5.78c-1.35.46-2.69,1-4,1.43l-1.07.39a2,2,0,0,0-.85.58,1.86,1.86,0,0,0,2,3l1.31-.47.37-.13,4.22,10.36-.2,0a8.49,8.49,0,0,0-1,.16,1.78,1.78,0,0,0-.95.58,1.88,1.88,0,0,0-.39,1.6,1.84,1.84,0,0,0,2.11,1.45,9.08,9.08,0,0,1,3.91.2c.44.11.87.26,1.29.4l.65.22.3.08.21,0,.31.11a15.88,15.88,0,0,1,3,1.82,15.07,15.07,0,0,1,1.84,1.65Z"/><path class="cls-2" d="M183.73,1233.24,155.46,1243a.65.65,0,0,1,0-.14,16.11,16.11,0,0,1,2-6.94,12.72,12.72,0,0,1,1.26-1.75,10.44,10.44,0,0,1,2.6-2.27,3.4,3.4,0,0,1,.5-.26,1.42,1.42,0,0,0,.74-1.85,1.4,1.4,0,0,0-1.87-.73c-.39.18-.77.42-1.15.63l-.14.08q-1.69-5.87-3.42-11.72l1.09-.39.56-.21a1.41,1.41,0,0,0-1-2.64l-4.33,1.55-.82.29a1.11,1.11,0,0,1-1.38-.46,1.33,1.33,0,0,1,0-1.5,1,1,0,0,1,.51-.38l8.89-3.18c3.21-1.15,6.42-2.28,9.61-3.46a1.26,1.26,0,0,1,1.67,1.12A1.17,1.17,0,0,1,170,1210c-1.71.59-3.4,1.22-5.1,1.83a1.41,1.41,0,1,0,.89,2.67l1.94-.69.15,0q2.31,5.65,4.62,11.33l-.56,0a10.13,10.13,0,0,0-1.21.19,1.38,1.38,0,0,0-1,1.64,1.4,1.4,0,0,0,1.58,1.1,9.55,9.55,0,0,1,4.12.2c.66.17,1.3.42,1.95.63l.51.12.38.14a16.24,16.24,0,0,1,5.39,4Z"/><path class="cls-3" d="M174.53,1252.06l-5.86-10.66,3.57-1.23c.78,4,1.55,7.92,2.33,11.88Z"/></g><g id="CléMontréal"><path class="cls-4" d="M307.11,999c-.18,0-.32.09-.47.15a18,18,0,0,1-7.63,1.41,15.33,15.33,0,0,1-9.25-3.57,22,22,0,0,1-1.87-1.74,2.28,2.28,0,0,0-.22-.22l-.84.56a15.7,15.7,0,0,1-7.67,2.68,17.41,17.41,0,0,1-6.46-.64,15.28,15.28,0,0,1-6.59-4,17.34,17.34,0,0,1-3.2-4.41,15.66,15.66,0,0,1-1.71-7.75c0-.16,0-.31,0-.45a.34.34,0,0,0,0-.12l-.48-.09a17,17,0,0,1-7.81-3.68,15.59,15.59,0,0,1-3.07-3.56,16.4,16.4,0,0,1-2.49-6.72,17,17,0,0,1,.46-6.51A16.58,16.58,0,0,1,251,954a18.1,18.1,0,0,1,1.47-1.57l.38-.36a16.63,16.63,0,0,1,.77-20.75.72.72,0,0,0-.22-.4c-.55-.72-1.11-1.43-1.65-2.15a5.34,5.34,0,0,1-.81-1.55,3.47,3.47,0,0,1,.23-2.68,5.16,5.16,0,0,1,1.41-1.67l.31-.27a3.76,3.76,0,0,0-.23-.36l-2.08-2.82a3.1,3.1,0,0,1-.51-1,2.68,2.68,0,0,1,.24-2l.27-.46a.64.64,0,0,0,0-.07v0l-36-43.28-.08-.07-.08-.06h-.09l-1.41,1.15-4.56,3.69-5.46,4.42c-.74.6-1.47,1.2-2.23,1.78a5.46,5.46,0,0,1-1.72.91,3.72,3.72,0,0,1-2.78-.19,5.55,5.55,0,0,1-1.82-1.4c-.55-.62-1.09-1.27-1.62-1.91-.85-1.06-1.68-2.12-2.54-3.17-.36-.46-.75-.9-1.13-1.34a7.61,7.61,0,0,1-1-1.46,3,3,0,0,1,.13-3.1,5.58,5.58,0,0,1,1.07-1.25,7.35,7.35,0,0,1,2-1.36,3.73,3.73,0,0,1,1.5-.34,3.17,3.17,0,0,1,2.28.89,23.25,23.25,0,0,1,2.44,2.52c.27.33.35.33.72.12a3.07,3.07,0,0,0,1.08-1.1,2.43,2.43,0,0,0-.42-.73c-.56-.75-1.11-1.5-1.68-2.25a3.45,3.45,0,0,1-.71-1.48,3.25,3.25,0,0,1,1.37-3.37,8.37,8.37,0,0,0,1.56-1.47c.19-.21.2-.28.06-.49a8.74,8.74,0,0,0-1-1.15,1.34,1.34,0,0,0-.57.33l-1.59,1.3-.72.55a2.71,2.71,0,0,1-1,.44,2.24,2.24,0,0,1-2-.45,5.1,5.1,0,0,1-.94-1c-.4-.54-.77-1.1-1.15-1.65s-.7-1-1.06-1.46c-.09-.12-.2-.23-.31-.36a1.85,1.85,0,0,0-.33.12,5.22,5.22,0,0,0-1.17.92.61.61,0,0,0-.12.78,9.55,9.55,0,0,0,1,1.46,10.27,10.27,0,0,1,1.17,1.75,4.43,4.43,0,0,1,.43,1.22,3.1,3.1,0,0,1-.49,2.44,2.62,2.62,0,0,1-.23.32,9,9,0,0,1-2.61,2.1,3.18,3.18,0,0,1-3.16-.08,5.42,5.42,0,0,1-1.36-1.11c-.63-.69-1.25-1.39-1.84-2.11-1.23-1.49-2.43-3-3.64-4.48-.17-.21-.31-.44-.46-.65s-.16-.17-.23-.26c-.2-.35-.39-.7-.58-1a1.77,1.77,0,0,0-.08-.33,2.06,2.06,0,0,1-.17-.68,3.72,3.72,0,0,1,.11-1.29,4.9,4.9,0,0,1,1-1.8,11,11,0,0,1,1.76-1.78c1.67-1.34,3.34-2.68,5-4l3.73-2.89,3.37-2.61.71-.56c-.05-.18-.11-.33-.15-.49-.12-.43-.27-.87-.35-1.31a5.12,5.12,0,0,1,2-5.17l.24-.24,1.41-.77a2.5,2.5,0,0,0,.29-.05,4.84,4.84,0,0,1,3.25,0,8.32,8.32,0,0,1,2.18,1.21,16.62,16.62,0,0,1,2.54,2.42q1.79,2.06,3.54,4.16c1.62,1.93,3.23,3.88,4.84,5.82l5,6c1.5,1.81,3,3.63,4.51,5.44s3.06,3.72,4.6,5.57l4.92,6,4.54,5.49,4.94,6,4.92,5.95,4.95,6,4.59,5.57,4.6,5.56,1.18,1.44.28.32.38-.09a2.71,2.71,0,0,1,2.39.36,4.25,4.25,0,0,1,.89.8c.66.76,1.3,1.53,1.95,2.29.11.13.22.25.34.37a1.86,1.86,0,0,0,.69-.5,3.69,3.69,0,0,1,1.26-.72,3.53,3.53,0,0,1,2.77.25,5.09,5.09,0,0,1,1.41,1.12,15.69,15.69,0,0,0,1.53,1.52,3.5,3.5,0,0,0,.84.59,18.08,18.08,0,0,1,4.23-2,15.9,15.9,0,0,1,4.59-.68,18.36,18.36,0,0,1,4.66.63,16.71,16.71,0,0,1,4.29,1.81,15.75,15.75,0,0,1,3.6,3c.21,0,.34-.14.49-.24a16.66,16.66,0,0,1,8.67-3,14,14,0,0,1,4.32.49,18.34,18.34,0,0,1,6.1,2.86,15.36,15.36,0,0,1,4.2,4.59,16.89,16.89,0,0,1,2.44,7.42c0,.53,0,1.06,0,1.6,0,.15,0,.3,0,.52a2.58,2.58,0,0,1,.29,0,16.13,16.13,0,0,1,9.53,5.23,14.84,14.84,0,0,1,1.56,2,.84.84,0,0,0,.43.4l.91,1.67a.9.9,0,0,0,.1.58c.21.55.43,1.09.6,1.65a17.09,17.09,0,0,1,.33,8,15.1,15.1,0,0,1-3,6.7,16.67,16.67,0,0,1-1.75,1.92c-.11.11-.27.2-.29.36.36.59.74,1.13,1.08,1.71a16.63,16.63,0,0,1-8.46,23.6,15.58,15.58,0,0,1-6.34,1h-.44l-.06.09a1.77,1.77,0,0,0,0,.2,18.5,18.5,0,0,1-1.82,5.3,15.44,15.44,0,0,1-5.11,5.8,2.55,2.55,0,0,0-.3.26Zm9.74-74.79-.53-.85a12.26,12.26,0,0,0-2.82-3.1,14.82,14.82,0,0,0-5.44-2.61,11,11,0,0,0-4.63-.18,14,14,0,0,0-6.13,2.71,2.73,2.73,0,0,1-2.46.49,2.84,2.84,0,0,1-1.52-1,12,12,0,0,0-5-3.6,14.58,14.58,0,0,0-5.54-1,11.79,11.79,0,0,0-4.35.9,13.71,13.71,0,0,0-4.81,3.37,12.3,12.3,0,0,0-3.2,7.11,3.82,3.82,0,0,1-.18.88,2.87,2.87,0,0,1-3,1.87,12.42,12.42,0,0,0-6.36,1,13.2,13.2,0,0,0-4.53,3.18,13.25,13.25,0,0,0-2,14.73,12.05,12.05,0,0,0,1.37,2.15,3,3,0,0,1,.65,1.24,2.79,2.79,0,0,1-1,2.92,13.77,13.77,0,0,0-2,2.09,13.41,13.41,0,0,0-2.45,5.55,12.78,12.78,0,0,0,2.23,10.38,12.3,12.3,0,0,0,5,4.05,12.69,12.69,0,0,0,3.95,1.13,2.9,2.9,0,0,1,2.58,3.19,2.69,2.69,0,0,0,0,.4,12.41,12.41,0,0,0,1.57,7,13.57,13.57,0,0,0,1.17,1.74,12.64,12.64,0,0,0,4.27,3.59,13.18,13.18,0,0,0,6.5,1.39,12.62,12.62,0,0,0,7.13-2.38c.3-.21.59-.44.88-.65a2.57,2.57,0,0,1,1.6-.51,2.8,2.8,0,0,1,2.27,1.1,13.13,13.13,0,0,0,1.62,1.63,12.23,12.23,0,0,0,9.49,3,15.12,15.12,0,0,0,3.56-.84,12.1,12.1,0,0,0,3.3-1.77,11.81,11.81,0,0,0,3-3.39,14.62,14.62,0,0,0,2-5.73,2.75,2.75,0,0,1,.69-1.53,2.87,2.87,0,0,1,2.46-1,14.08,14.08,0,0,0,1.45.07,13,13,0,0,0,12.51-10.73,12.81,12.81,0,0,0-2.05-9.76c-.22-.33-.47-.64-.7-1a2.8,2.8,0,0,1,.36-3.62c.19-.19.4-.36.59-.55a12.72,12.72,0,0,0,3.73-6,14.3,14.3,0,0,0,.39-5.33,12.23,12.23,0,0,0-1.63-4.86,13.77,13.77,0,0,0-2.22-2.78,12.61,12.61,0,0,0-6.44-3.47c-.41-.08-.83-.13-1.24-.19a2.69,2.69,0,0,1-1.6-.77,2.8,2.8,0,0,1-.88-2.35A13.19,13.19,0,0,0,316.85,924.16ZM257,910.54a2.62,2.62,0,0,0-.17-.27l-.77-.93c-1.52-1.84-3-3.69-4.57-5.53l-4.59-5.57c-1.64-2-3.28-4-4.91-6l-5.24-6.34q-2.62-3.2-5.27-6.37c-1.64-2-3.27-4-4.91-6l-5-6L217,862.06l-4.51-5.45-5.21-6.3-5.87-7a34,34,0,0,0-2.82-3.06c-.39-.36-.82-.68-1.24-1a2.84,2.84,0,0,0-.94-.46,1.5,1.5,0,0,0-1.21.14,7.75,7.75,0,0,0-.66.46,1.61,1.61,0,0,0-.63,1.64,3.9,3.9,0,0,0,.34,1.15,11,11,0,0,0,1.48,2.37c.4.48.83.92,1.23,1.4l2.82,3.39,4.83,5.83,5.23,6.28,5.22,6.29,4.84,5.82,5.22,6.29q2.42,2.88,4.81,5.78l5.26,6.33q2.75,3.29,5.48,6.59l5.83,7,6,7.18.75.88a3.71,3.71,0,0,0,.32-.2C254.68,912.43,255.85,911.52,257,910.54Zm-57.1-44.37a1.19,1.19,0,0,0,.12.21c.3.4.62.78.92,1.19.4.57.82,1.14,1.18,1.74a3.41,3.41,0,0,1,.08,3.75,6.51,6.51,0,0,1-2.76,2.49,3.5,3.5,0,0,1-2.73.19,4.13,4.13,0,0,1-1.8-1.31c-.22-.25-.43-.51-.66-.76a12.13,12.13,0,0,0-1.47-1.4,3.2,3.2,0,0,0-1.63,1.23,2.71,2.71,0,0,0,.42.6c.49.58,1,1.17,1.48,1.77,1.21,1.47,2.4,3,3.6,4.43a4.32,4.32,0,0,0,.6.61.76.76,0,0,0,1.05,0,6.55,6.55,0,0,0,.53-.39l4.51-3.66,8.46-6.85c.12-.1.28-.18.33-.37s-.15-.22-.23-.32c-.7-.84-1.39-1.68-2.09-2.51l-4.9-5.9-4.48-5.4-4.91-5.9c-.48-.58-1-1.16-1.45-1.73l-1.15-1.32a2.19,2.19,0,0,0-.22-.2l-.39.27-1.27,1q-2.14,1.65-4.28,3.31l-5.6,4.4a14,14,0,0,0-1.89,1.72,6.14,6.14,0,0,0-.48.63.5.5,0,0,0,0,.61,1.37,1.37,0,0,0,.15.21l1.19,1.48c1.16,1.44,2.33,2.89,3.51,4.32.38.46.8.9,1.21,1.34a.89.89,0,0,0,.48.34,4.38,4.38,0,0,0,1.12-.84,1.09,1.09,0,0,0,.36-.43c-.1-.17-.18-.36-.29-.52s-.32-.43-.48-.64c-.35-.47-.7-.94-1-1.42a5.67,5.67,0,0,1-.75-1.52,3.45,3.45,0,0,1,.12-2.64,5.06,5.06,0,0,1,.58-.94A7.1,7.1,0,0,1,187.5,855a3.43,3.43,0,0,1,4.25.77,9.79,9.79,0,0,1,.81,1c.53.74,1,1.48,1.56,2.22,0,.07.13.13.2.22l.38-.3,1-.79a7.56,7.56,0,0,1,1.51-1,2.9,2.9,0,0,1,3.21.31,5.62,5.62,0,0,1,.53.46,12.07,12.07,0,0,1,1.38,1.65,3.64,3.64,0,0,1-.29,4.62,13.19,13.19,0,0,1-1.5,1.49ZM256.14,929l1.06-.69a16.26,16.26,0,0,1,4.46-2,15.4,15.4,0,0,1,5-.58c.15,0,.3.06.45-.05s.06-.32.09-.48a15.61,15.61,0,0,1,4.1-8.33c.07-.08.13-.18.21-.29a21.41,21.41,0,0,1-2.21-2.15,1.17,1.17,0,0,0-.35-.27.33.33,0,0,0-.24,0,.56.56,0,0,0-.16.12L265.14,917l-4,3.26L256.54,924l-2,1.65a2.42,2.42,0,0,0-.32.32.3.3,0,0,0,0,.37,1.55,1.55,0,0,0,.12.22,15.15,15.15,0,0,0,1.16,1.57C255.67,928.39,255.9,928.66,256.14,929Zm-2.57-11.08c.34.46.64.88,1,1.28a10.68,10.68,0,0,0,1,1.22.34.34,0,0,0,.13,0l7.38-6s0,0,0-.05a.18.18,0,0,1,0-.06s0-.08-.07-.12l-1.87-2.22a1,1,0,0,0-.2-.13l-1.69,1.37-4.32,3.51a.94.94,0,0,0-.23.26A2.06,2.06,0,0,1,253.57,917.88Z"/><path class="cls-5" d="M316.85,924.16a13.19,13.19,0,0,1,1.59,7.36,2.8,2.8,0,0,0,.88,2.35,2.69,2.69,0,0,0,1.6.77c.41.06.83.11,1.24.19a12.61,12.61,0,0,1,6.44,3.47,13.77,13.77,0,0,1,2.22,2.78,12.23,12.23,0,0,1,1.63,4.86,14.3,14.3,0,0,1-.39,5.33,12.72,12.72,0,0,1-3.73,6c-.19.19-.4.36-.59.55a2.8,2.8,0,0,0-.36,3.62c.23.33.48.64.7,1a12.81,12.81,0,0,1,2.05,9.76,13,13,0,0,1-12.51,10.73,14.08,14.08,0,0,1-1.45-.07,2.87,2.87,0,0,0-2.46,1,2.75,2.75,0,0,0-.69,1.53,14.62,14.62,0,0,1-2,5.73,11.81,11.81,0,0,1-3,3.39,12.1,12.1,0,0,1-3.3,1.77,15.12,15.12,0,0,1-3.56.84,12.23,12.23,0,0,1-9.49-3,13.13,13.13,0,0,1-1.62-1.63,2.8,2.8,0,0,0-2.27-1.1,2.57,2.57,0,0,0-1.6.51c-.29.21-.58.44-.88.65a12.62,12.62,0,0,1-7.13,2.38,13.18,13.18,0,0,1-6.5-1.39,12.64,12.64,0,0,1-4.27-3.59,13.57,13.57,0,0,1-1.17-1.74,12.41,12.41,0,0,1-1.57-7,2.69,2.69,0,0,1,0-.4,2.9,2.9,0,0,0-2.58-3.19,12.69,12.69,0,0,1-3.95-1.13,12.3,12.3,0,0,1-5-4.05A12.78,12.78,0,0,1,250.88,962a13.41,13.41,0,0,1,2.45-5.55,13.77,13.77,0,0,1,2-2.09,2.79,2.79,0,0,0,1-2.92,3,3,0,0,0-.65-1.24,12.05,12.05,0,0,1-1.37-2.15,13.25,13.25,0,0,1,2-14.73,13.2,13.2,0,0,1,4.53-3.18,12.42,12.42,0,0,1,6.36-1,2.87,2.87,0,0,0,3-1.87,3.82,3.82,0,0,0,.18-.88,12.3,12.3,0,0,1,3.2-7.11,13.71,13.71,0,0,1,4.81-3.37,11.79,11.79,0,0,1,4.35-.9,14.58,14.58,0,0,1,5.54,1,12,12,0,0,1,5,3.6,2.84,2.84,0,0,0,1.52,1,2.73,2.73,0,0,0,2.46-.49,14,14,0,0,1,6.13-2.71,11,11,0,0,1,4.63.18,14.82,14.82,0,0,1,5.44,2.61,12.26,12.26,0,0,1,2.82,3.1ZM282.3,989.85c.38-.27.88-.58,1.33-.94a8.89,8.89,0,0,0,2.83-3.95,2.63,2.63,0,0,0,.16-.88c0-.22,0-.44,0-.65a2.74,2.74,0,0,0-.61-1.91,5,5,0,0,0-.44-.48,4.61,4.61,0,0,1-1.18-1.9,5,5,0,0,1,5.09-6.61,4.93,4.93,0,0,1,4.27,6.9,5.37,5.37,0,0,1-1.57,2.05c-.14.11-.29.23-.44.33a2.67,2.67,0,0,0-1.17,2,4.58,4.58,0,0,0,.12,1.65,10.56,10.56,0,0,0,2.91,5.23A8.84,8.84,0,0,0,297.4,993a9.7,9.7,0,0,0,7.78-1.27,9.11,9.11,0,0,0,3.36-4.09,9.23,9.23,0,0,0-1.31-9.42c-.51-.68-1.06-1.33-1.6-2l-4.35-5.32-4-4.9c-1-1.27-2.06-2.55-3.11-3.8a4.56,4.56,0,0,0-6.32-.58l-6.26,5.1-4.76,3.91-3.73,3c-.62.51-1.25,1-1.82,1.57a9.22,9.22,0,0,0-1.88,10.64,8.85,8.85,0,0,0,4.19,4.24A9.34,9.34,0,0,0,282.3,989.85Zm-22-34.09a13.54,13.54,0,0,0-3.32,2.57,8.81,8.81,0,0,0-2,3.47,8.63,8.63,0,0,0-.27,4.75,9.35,9.35,0,0,0,1.75,3.63,9,9,0,0,0,6.18,3.55,8.66,8.66,0,0,0,6.31-1.62c1.31-1,2.56-2,3.82-3,1.54-1.25,3.05-2.54,4.59-3.81L283.8,960c.65-.53,1.3-1.06,1.92-1.62a4.37,4.37,0,0,0,.59-5.83c-.68-.9-1.4-1.79-2.11-2.67q-2.43-3-4.87-6.06-2.83-3.51-5.69-7a13.9,13.9,0,0,0-1.81-1.87,8.4,8.4,0,0,0-6.09-2,10.84,10.84,0,0,0-3,.63,8.53,8.53,0,0,0-5.15,5,9.27,9.27,0,0,0,4.94,12.2,3.34,3.34,0,0,0,1.12.27l.75,0a3,3,0,0,0,2.11-.78l.43-.42a4.38,4.38,0,0,1,2.3-1.15,5.32,5.32,0,0,1,4.08,1,4.16,4.16,0,0,1,1,1.05,4.93,4.93,0,0,1,.19,5.49,4.8,4.8,0,0,1-6.4,1.88,7.07,7.07,0,0,1-1.2-.82,9.27,9.27,0,0,1-1.08-1.18,3.14,3.14,0,0,0-2-1.17,4.25,4.25,0,0,0-1.59.09A7.24,7.24,0,0,0,260.27,955.76Zm53.32-29.53a9.26,9.26,0,0,0-9.76-4.92,8,8,0,0,0-4,1.73,9.74,9.74,0,0,0-2.37,2.82,5.34,5.34,0,0,0-.61,3.54,2.71,2.71,0,0,0,.84,1.67,4.48,4.48,0,0,1,1.19,1.89,5,5,0,1,1-9.46,3.15,4.36,4.36,0,0,1,.64-4.19,8.73,8.73,0,0,1,.67-.81c.35-.38.72-.74,1.1-1.1a3.86,3.86,0,0,0,1.17-3.7,6.05,6.05,0,0,0-.63-1.74,11.89,11.89,0,0,0-3.65-4,9.17,9.17,0,0,0-11.34.44,9.11,9.11,0,0,0-3,4.78,8.43,8.43,0,0,0,.76,6.46,14.66,14.66,0,0,0,1.54,2.22q3.14,3.91,6.28,7.82c1.71,2.12,3.44,4.22,5.17,6.33a18.14,18.14,0,0,0,1.27,1.49,4.26,4.26,0,0,0,4.27,1.21,4.9,4.9,0,0,0,2-1.06c2.56-2.13,5.19-4.16,7.71-6.33,1.45-1.25,3-2.4,4.44-3.61,1.26-1,2.52-2,3.75-3.09a8.36,8.36,0,0,0,2.66-4.06A9.11,9.11,0,0,0,313.59,926.23Zm13.92,16.87c-.17-.25-.42-.67-.72-1.06a8.77,8.77,0,0,0-5.82-3.49,8.86,8.86,0,0,0-6.31,1.24,13.39,13.39,0,0,0-1.36,1c-1.37,1.1-2.72,2.22-4.08,3.32l-4.39,3.59-5.36,4.38c-.55.45-1.13.89-1.66,1.37a4.41,4.41,0,0,0-1.57,3.74,4.69,4.69,0,0,0,1.05,2.57c.49.63,1,1.24,1.52,1.87l4.71,5.79c1.71,2.12,3.43,4.23,5.16,6.35.64.79,1.28,1.59,2,2.33a8.49,8.49,0,0,0,7,2.91,9,9,0,0,0,5.91-2.43,9.11,9.11,0,0,0,2.94-7.39,8.67,8.67,0,0,0-1.32-4.27,10.1,10.1,0,0,0-2.68-2.81,4.9,4.9,0,0,0-1.11-.58,7.4,7.4,0,0,0-2.91-.41,3.28,3.28,0,0,0-.7.1,2.11,2.11,0,0,0-1.11.63A5,5,0,0,1,308.2,959a4.77,4.77,0,0,1,1.71-4.48,5.11,5.11,0,0,1,1.91-1,4.8,4.8,0,0,1,5.46,2.07,2.49,2.49,0,0,0,1.15,1,9,9,0,0,0,1.53.47,2.89,2.89,0,0,0,1.34,0,5.65,5.65,0,0,0,1.42-.63,13.79,13.79,0,0,0,2.06-1.51,17.14,17.14,0,0,0,2.64-2.81,5.61,5.61,0,0,0,.83-1.59A9.28,9.28,0,0,0,327.51,943.1Z"/><path class="cls-5" d="M257,910.54c-1.15,1-2.32,1.89-3.46,2.83a3.71,3.71,0,0,1-.32.2l-.75-.88-6-7.18-5.83-7q-2.75-3.3-5.48-6.59l-5.26-6.33q-2.4-2.9-4.81-5.78l-5.22-6.29-4.84-5.82-5.22-6.29-5.23-6.28-4.83-5.83L197,845.89c-.4-.48-.83-.92-1.23-1.4a11,11,0,0,1-1.48-2.37,3.9,3.9,0,0,1-.34-1.15,1.61,1.61,0,0,1,.63-1.64,7.75,7.75,0,0,1,.66-.46,1.5,1.5,0,0,1,1.21-.14,2.84,2.84,0,0,1,.94.46c.42.33.85.65,1.24,1a34,34,0,0,1,2.82,3.06l5.87,7,5.21,6.3,4.51,5.45,4.57,5.52,5,6c1.64,2,3.27,4,4.91,6s3.52,4.24,5.27,6.37l5.24,6.34c1.63,2,3.27,4,4.91,6l4.59,5.57c1.53,1.84,3,3.69,4.57,5.53l.77.93A2.62,2.62,0,0,1,257,910.54Z"/><path class="cls-5" d="M199.9,866.17l.6-.5a13.19,13.19,0,0,0,1.5-1.49,3.64,3.64,0,0,0,.29-4.62,12.07,12.07,0,0,0-1.38-1.65,5.62,5.62,0,0,0-.53-.46,2.9,2.9,0,0,0-3.21-.31,7.56,7.56,0,0,0-1.51,1l-1,.79-.38.3c-.07-.09-.15-.15-.2-.22-.52-.74-1-1.48-1.56-2.22a9.79,9.79,0,0,0-.81-1,3.43,3.43,0,0,0-4.25-.77,7.1,7.1,0,0,0-2.53,2.08,5.06,5.06,0,0,0-.58.94,3.45,3.45,0,0,0-.12,2.64,5.67,5.67,0,0,0,.75,1.52c.34.48.69,1,1,1.42.16.21.33.42.48.64s.19.35.29.52a1.09,1.09,0,0,1-.36.43,4.38,4.38,0,0,1-1.12.84.89.89,0,0,1-.48-.34c-.41-.44-.83-.88-1.21-1.34-1.18-1.43-2.35-2.88-3.51-4.32L179,858.54a1.37,1.37,0,0,1-.15-.21.5.5,0,0,1,0-.61,6.14,6.14,0,0,1,.48-.63,14,14,0,0,1,1.89-1.72l5.6-4.4q2.13-1.66,4.28-3.31l1.27-1,.39-.27a2.19,2.19,0,0,1,.22.2l1.15,1.32c.49.57,1,1.15,1.45,1.73l4.91,5.9,4.48,5.4,4.9,5.9c.7.83,1.39,1.67,2.09,2.51.08.1.15.21.23.32s-.21.27-.33.37l-8.46,6.85-4.51,3.66a6.55,6.55,0,0,1-.53.39.76.76,0,0,1-1.05,0,4.32,4.32,0,0,1-.6-.61c-1.2-1.47-2.39-3-3.6-4.43-.48-.6-1-1.19-1.48-1.77a2.71,2.71,0,0,1-.42-.6,3.2,3.2,0,0,1,1.63-1.23,12.13,12.13,0,0,1,1.47,1.4c.23.25.44.51.66.76a4.13,4.13,0,0,0,1.8,1.31,3.5,3.5,0,0,0,2.73-.19,6.51,6.51,0,0,0,2.76-2.49,3.41,3.41,0,0,0-.08-3.75c-.36-.6-.78-1.17-1.18-1.74-.3-.41-.62-.79-.92-1.19A1.19,1.19,0,0,1,199.9,866.17Z"/><path class="cls-5" d="M256.14,929c-.24-.3-.47-.57-.68-.85a15.15,15.15,0,0,1-1.16-1.57,1.55,1.55,0,0,1-.12-.22.3.3,0,0,1,0-.37,2.42,2.42,0,0,1,.32-.32l2-1.65,4.59-3.73,4-3.26,3.37-2.75a.56.56,0,0,1,.16-.12.33.33,0,0,1,.24,0,1.17,1.17,0,0,1,.35.27,21.41,21.41,0,0,0,2.21,2.15c-.08.11-.14.21-.21.29a15.61,15.61,0,0,0-4.1,8.33c0,.16-.06.33-.09.48s-.3.05-.45.05a15.4,15.4,0,0,0-5,.58,16.26,16.26,0,0,0-4.46,2Z"/><path class="cls-5" d="M253.57,917.88a2.06,2.06,0,0,0,1.11-1,.94.94,0,0,1,.23-.26l4.32-3.51,1.69-1.37a1,1,0,0,1,.2.13L263,914.1s.05.09.07.12a.18.18,0,0,0,0,.06s0,0,0,.05l-7.38,6a.34.34,0,0,1-.13,0,10.68,10.68,0,0,1-1-1.22C254.21,918.76,253.91,918.34,253.57,917.88Z"/><path class="cls-1" d="M314.66,939.79a13.39,13.39,0,0,0-1.36,1c-1.37,1.1-2.72,2.22-4.08,3.32l-4.39,3.59-5.36,4.38c-.55.45-1.13.89-1.66,1.37a4.41,4.41,0,0,0-1.57,3.74,4.69,4.69,0,0,0,1.05,2.57c.49.63,1,1.24,1.52,1.87l4.71,5.79c1.71,2.12,3.43,4.23,5.16,6.35.64.79,1.28,1.59,2,2.33a8.49,8.49,0,0,0,7,2.91,9,9,0,0,0,5.91-2.43,9.11,9.11,0,0,0,2.94-7.39,8.67,8.67,0,0,0-1.32-4.27,10.1,10.1,0,0,0-2.68-2.81,4.9,4.9,0,0,0-1.11-.58,7.4,7.4,0,0,0-2.91-.41,3.28,3.28,0,0,0-.7.1,2.11,2.11,0,0,0-1.11.63A5,5,0,0,1,308.2,959a4.77,4.77,0,0,1,1.71-4.48,5.11,5.11,0,0,1,1.91-1,4.8,4.8,0,0,1,5.46,2.07,2.49,2.49,0,0,0,1.15,1,9,9,0,0,0,1.53.47,2.89,2.89,0,0,0,1.34,0,5.65,5.65,0,0,0,1.42-.63,13.79,13.79,0,0,0,2.06-1.51,17.14,17.14,0,0,0,2.64-2.81,5.61,5.61,0,0,0,.83-1.59,9.28,9.28,0,0,0-.74-7.45c-.17-.25-.42-.67-.72-1.06a8.77,8.77,0,0,0-5.82-3.49A8.86,8.86,0,0,0,314.66,939.79Zm10.26,4.86a6.22,6.22,0,0,1,.55,4.44,3.67,3.67,0,0,1-.74,1.49,16.39,16.39,0,0,1-2.37,2.35c-.41.32-.85.63-1.31.92h0a1.11,1.11,0,0,1-1.59-.36,8,8,0,0,0-13.22.62,8,8,0,0,0,9,11.89,7.82,7.82,0,0,0,2.95-1.52,3.59,3.59,0,0,1,.42-.32,1.31,1.31,0,0,1,.89-.07,2.88,2.88,0,0,1,1.64.69,7.75,7.75,0,0,1,1.48,1.63,6.35,6.35,0,0,1,.08,6.43,6,6,0,0,1-4.33,3c-.31,0-.63.08-.94.1a5.44,5.44,0,0,1-4.25-1.62,18.2,18.2,0,0,1-1.26-1.41l-5.5-6.75-2.89-3.55q-1.87-2.29-3.74-4.6a3.28,3.28,0,0,1-.39-.6,1.27,1.27,0,0,1,.11-1.45,3.17,3.17,0,0,1,.54-.57l.88-.7,14.2-11.6a11.57,11.57,0,0,1,1-.75c.15-.1.31-.2.46-.28a6,6,0,0,1,4.31-.55A6,6,0,0,1,324.92,944.65ZM273.6,990.08a9.34,9.34,0,0,0,8.7-.23c.38-.27.88-.58,1.33-.94a8.89,8.89,0,0,0,2.83-3.95,2.63,2.63,0,0,0,.16-.88c0-.22,0-.44,0-.65a2.74,2.74,0,0,0-.61-1.91,5,5,0,0,0-.44-.48,4.61,4.61,0,0,1-1.18-1.9,5,5,0,0,1,5.09-6.61,4.93,4.93,0,0,1,4.27,6.9,5.37,5.37,0,0,1-1.57,2.05c-.14.11-.29.23-.44.33a2.67,2.67,0,0,0-1.17,2,4.58,4.58,0,0,0,.12,1.65,10.56,10.56,0,0,0,2.91,5.23A8.84,8.84,0,0,0,297.4,993a9.7,9.7,0,0,0,7.78-1.27,9.11,9.11,0,0,0,3.36-4.09,9.23,9.23,0,0,0-1.31-9.42c-.51-.68-1.06-1.33-1.6-2l-4.35-5.32-4-4.9c-1-1.27-2.06-2.55-3.11-3.8a4.56,4.56,0,0,0-6.32-.58l-6.26,5.1-4.76,3.91-3.73,3c-.62.51-1.25,1-1.82,1.57a9.22,9.22,0,0,0-1.88,10.64A8.85,8.85,0,0,0,273.6,990.08ZM272.39,985a6.25,6.25,0,0,1-.72-4.91,6.43,6.43,0,0,1,2.19-3.33l1.33-1.1,14.51-11.85a1.58,1.58,0,0,1,.24-.15,1.52,1.52,0,0,1,1.91.34c.27.3.52.61.77.92l12,14.75a6.37,6.37,0,0,1-1,9.25,6.66,6.66,0,0,1-6.27.74,6.8,6.8,0,0,1-2-1.52,7.62,7.62,0,0,1-1.74-3.22,2.09,2.09,0,0,1-.08-.36l0-.17a.37.37,0,0,1,.13-.37l.46-.39a8,8,0,0,0-6.92-14,8.46,8.46,0,0,0-2,.78,8,8,0,0,0-3.73,9.36,7.26,7.26,0,0,0,1.72,3,1.25,1.25,0,0,1,.24,1.52,6,6,0,0,1-1.58,2.07,6.26,6.26,0,0,1-5.48,1.42A6.18,6.18,0,0,1,272.39,985Zm-3.52-12.92c1.31-1,2.56-2,3.82-3,1.54-1.25,3.05-2.54,4.59-3.81L283.8,960c.65-.53,1.3-1.06,1.92-1.62a4.37,4.37,0,0,0,.59-5.83c-.68-.9-1.4-1.79-2.11-2.67q-2.43-3-4.87-6.06-2.83-3.51-5.69-7a13.9,13.9,0,0,0-1.81-1.87,8.4,8.4,0,0,0-6.09-2,10.84,10.84,0,0,0-3,.63,8.53,8.53,0,0,0-5.15,5,9.27,9.27,0,0,0,4.94,12.2,3.34,3.34,0,0,0,1.12.27l.75,0a3,3,0,0,0,2.11-.78l.43-.42a4.38,4.38,0,0,1,2.3-1.15,5.32,5.32,0,0,1,4.08,1,4.16,4.16,0,0,1,1,1.05,4.93,4.93,0,0,1,.19,5.49,4.8,4.8,0,0,1-6.4,1.88,7.07,7.07,0,0,1-1.2-.82,9.27,9.27,0,0,1-1.08-1.18,3.14,3.14,0,0,0-2-1.17,4.25,4.25,0,0,0-1.59.09,7.24,7.24,0,0,0-1.9.75,13.54,13.54,0,0,0-3.32,2.57,8.81,8.81,0,0,0-2,3.47,8.63,8.63,0,0,0-.27,4.75,9.35,9.35,0,0,0,1.75,3.63,9,9,0,0,0,6.18,3.55A8.66,8.66,0,0,0,268.87,972.11ZM259,968.63a6.69,6.69,0,0,1-1.43-2.53,5.67,5.67,0,0,1,.08-3.33,6.5,6.5,0,0,1,2-3.06,12.44,12.44,0,0,1,1.57-1.19,4.9,4.9,0,0,1,1.79-.71.4.4,0,0,1,.36.12l.24.28c.16.19.31.36.47.53a8.89,8.89,0,0,0,3.29,2.29,7.72,7.72,0,0,0,5.38.1,9,9,0,0,0,1.23-.54,8.16,8.16,0,0,0,3.82-9.31,8,8,0,0,0-6.44-5.65,7.85,7.85,0,0,0-4,.32,8.18,8.18,0,0,0-2.54,1.5,1.32,1.32,0,0,1-.38.32,1.2,1.2,0,0,1-1.15,0,6.17,6.17,0,0,1-2.85-2.65,6,6,0,0,1-.65-4.14,7.48,7.48,0,0,1,.67-2,5.43,5.43,0,0,1,2.24-2.31,6.13,6.13,0,0,1,.9-.4,8.19,8.19,0,0,1,2.31-.47,5.44,5.44,0,0,1,3.75,1.22,10.41,10.41,0,0,1,1.62,1.68l6,7.44c1.33,1.64,2.65,3.3,4,5l2.36,3a1.49,1.49,0,0,1,.32,1.19,1.39,1.39,0,0,1-.51.87l-.6.5-.83.69-2.61,2.14c-1.43,1.16-2.87,2.33-4.3,3.51l-2.17,1.8c-.79.66-1.58,1.32-2.38,2-1.31,1.08-2.39,1.93-3.38,2.69A6.11,6.11,0,0,1,259,968.63Zm34.68-17.32a4.9,4.9,0,0,0,2-1.06c2.56-2.13,5.19-4.16,7.71-6.33,1.45-1.25,3-2.4,4.44-3.61,1.26-1,2.52-2,3.75-3.09a8.36,8.36,0,0,0,2.66-4.06,9.11,9.11,0,0,0-.64-6.93,9.26,9.26,0,0,0-9.76-4.92,8,8,0,0,0-4,1.73,9.74,9.74,0,0,0-2.37,2.82,5.34,5.34,0,0,0-.61,3.54,2.71,2.71,0,0,0,.84,1.67,4.48,4.48,0,0,1,1.19,1.89,5,5,0,1,1-9.46,3.15,4.36,4.36,0,0,1,.64-4.19,8.73,8.73,0,0,1,.67-.81c.35-.38.72-.74,1.1-1.1a3.86,3.86,0,0,0,1.17-3.7,6.05,6.05,0,0,0-.63-1.74,11.89,11.89,0,0,0-3.65-4,9.17,9.17,0,0,0-11.34.44,9.11,9.11,0,0,0-3,4.78,8.43,8.43,0,0,0,.76,6.46,14.66,14.66,0,0,0,1.54,2.22q3.14,3.91,6.28,7.82c1.71,2.12,3.44,4.22,5.17,6.33a18.14,18.14,0,0,0,1.27,1.49A4.26,4.26,0,0,0,293.7,951.31Zm-2.35-3.59c-.32-.37-.62-.74-.93-1.12l-2-2.4-4.32-5.31c-1.82-2.24-3.62-4.5-5.43-6.76-.22-.29-.43-.59-.63-.89l-.28-.4a5.68,5.68,0,0,1-.39-4.81,6.38,6.38,0,0,1,1.73-2.72,7.2,7.2,0,0,1,1.18-.83,6.18,6.18,0,0,1,6.09.11,10,10,0,0,1,2.54,2.23,6.24,6.24,0,0,1,.81,1.26,6.5,6.5,0,0,1,.22.62,1.06,1.06,0,0,1-.33,1.11c-.42.39-.83.8-1.22,1.23a10.12,10.12,0,0,0-1.27,1.64,7.2,7.2,0,0,0-.81,5.69,7.95,7.95,0,0,0,9.92,5.79,7.76,7.76,0,0,0,1.69-.68,8.09,8.09,0,0,0,3.82-9.33,7.31,7.31,0,0,0-1.6-2.84,1.5,1.5,0,0,1-.26-1.8,6,6,0,0,1,2.44-2.7l.09,0a4.75,4.75,0,0,1,1.5-.51,6.41,6.41,0,0,1,5.51,1.45,6.27,6.27,0,0,1,1.84,6.53,5.54,5.54,0,0,1-1.77,2.66c-1,.81-1.93,1.6-2.9,2.4l-1.7,1.37c-1.11.89-2.23,1.78-3.31,2.71-1.5,1.26-3,2.52-4.53,3.73-1,.82-2,1.64-3,2.47l-.48.39A1.43,1.43,0,0,1,291.35,947.72Z"/></g><g id="Cornet_Montréal"><path class="cls-1" d="M587,1203.71a5,5,0,0,0-.71-2.19,9.31,9.31,0,0,0-2.5-2.91,14.51,14.51,0,0,0-4.71-2.45c-1.07-.34-2.15-.66-3.23-1a42.86,42.86,0,0,0-8.84-1.54,37.74,37.74,0,0,0-7.51.27,41.59,41.59,0,0,0-7.76,1.87,52.11,52.11,0,0,0-9.09,4.22c-1.32.75-2.66,1.49-4,2.18a28,28,0,0,1-12.57,3.08c-1,0-1.93,0-2.89.06a3.47,3.47,0,0,1-.42,0c0-.14,0-.25-.07-.37-.16-.89-.3-1.8-.49-2.69a56.69,56.69,0,0,0-2.52-8.77,4.68,4.68,0,0,1-.11-.47l.51-.3a8,8,0,0,0,3.78-8.55c-.2-1-.42-1.93-.64-2.88a5.9,5.9,0,0,0-.31-1,8,8,0,0,0-7.22-5.19l-.57,0-.08-.1-.22-.6a70.28,70.28,0,0,0-4.62-10.38,52.16,52.16,0,0,0-13.41-16.27,2.57,2.57,0,0,1-.28-.29,5.7,5.7,0,0,0,.17-.56,8.35,8.35,0,0,0-2-8,6,6,0,0,0-5.2-2.12h-.5l-.67-1.07-41.72-65-8.16-12.72a12.34,12.34,0,0,0-1.52-2,5.12,5.12,0,0,0-2.71-1.66s-.07,0-.11-.08H432.9a1.34,1.34,0,0,1-.23.13,3.42,3.42,0,0,0-2,1.44,5.93,5.93,0,0,0-.85,1.84,12.4,12.4,0,0,0-.4,2.56c-.19,2.85-.37,5.7-.56,8.56s-.38,5.75-.56,8.62l-.57,8.62c-.18,2.85-.37,5.71-.55,8.56l-.57,8.69q-.28,4.27-.56,8.55c-.19,2.88-.38,5.75-.56,8.63l-.57,8.62c-.18,2.88-.38,5.75-.56,8.63l-.48,7.57c-.06.93-.13,1.87-.19,2.8-.12,1.76-.22,3.51-.33,5.26,0,.16,0,.32,0,.43a15.41,15.41,0,0,0-1.47.8,5.73,5.73,0,0,0-2.29,3.11,8.4,8.4,0,0,0,2,8.71l.43.44c-.11.26-.2.47-.28.69-.35.92-.72,1.83-1,2.76a52.34,52.34,0,0,0-2.65,15.24,68.57,68.57,0,0,0,.22,7.72c.17,2.08.45,4.15.78,6.2,0,.18,0,.36.06.49a17.8,17.8,0,0,0-1.53,1.1,7.87,7.87,0,0,0-2.58,8.25c.24.95.52,1.9.83,2.83a7.93,7.93,0,0,0,6.08,5.54l.52.16c0,.18.05.31.06.45a31.89,31.89,0,0,0,.84,5.83c.06.22.08.45.12.67-.17.08-.29.15-.42.2-1,.38-1.91.77-2.89,1.11a46.54,46.54,0,0,1-9.71,2.15c-1.77.2-3.54.32-5.32.38a94.7,94.7,0,0,1-11.29-.62c-1.49-.13-3-.25-4.48-.36-1.07-.08-2.15-.15-3.23-.19-1.82-.07-3.65-.15-5.47-.14-1.45,0-2.9,0-4.35.18a28.45,28.45,0,0,0-5.11.88,13.45,13.45,0,0,0-4.19,1.94,8.59,8.59,0,0,0-3.3,4.43c-.16.51-.26,1-.37,1.57,0,.22-.05.46-.27.61v2a.91.91,0,0,1,.26.56c0,.21.06.42.1.63a9.56,9.56,0,0,0,3.1,5.22,15.22,15.22,0,0,0,4.88,2.87,31,31,0,0,0,8.34,1.82,42,42,0,0,0,4.49.17,33.83,33.83,0,0,0,5.6-.43,19.87,19.87,0,0,1,3.07-.33,15.12,15.12,0,0,1,8.58,2.25,30.06,30.06,0,0,1,3.63,2.51c1.71,1.36,3.39,2.75,5.09,4.11a43.11,43.11,0,0,0,5.65,3.92,27.16,27.16,0,0,0,7.56,3,63.9,63.9,0,0,0,6.87,1c1.59.16,3.18.29,4.76.47,1.81.2,3.63.42,5.44.68a35.45,35.45,0,0,1,4.87,1,28,28,0,0,1,4.23,1.68c2.53,1.18,5,2.37,7.58,3.53a62.42,62.42,0,0,0,9,3.37,35.57,35.57,0,0,0,7.67,1.3,31,31,0,0,0,4.91-.21,60.33,60.33,0,0,0,6.44-1,29,29,0,0,0,11.27-5q1.92-1.42,3.8-2.91a46.75,46.75,0,0,1,11.46-6.62,68.06,68.06,0,0,0,15.82-9,88.52,88.52,0,0,0,10.26-9.28c2.29-2.39,4.51-4.83,6.78-7.24s4.66-4.94,7-7.42c1.56-1.65,3.08-3.34,4.65-5a41,41,0,0,1,6.49-5.58,25.26,25.26,0,0,1,9-3.9c1-.22,2.07-.4,3.1-.63a31.41,31.41,0,0,0,5.82-1.82,15.41,15.41,0,0,0,3.84-2.3,8.64,8.64,0,0,0,2-2.35,4.93,4.93,0,0,0,.67-2.12,1.8,1.8,0,0,1,.1-.4v-1.13A2.52,2.52,0,0,1,587,1203.71ZM484,1137a3.64,3.64,0,0,1,.41.7l-.05.09-.06,0-.28.06a1.17,1.17,0,0,1-.2.06c-6.06,1.33-12.1,2.7-18.12,4.18l.89-.21.11-.19.18.12,5.19-1.23-3.38-2.13,7.18-11.73,2.6,1.64c-1.44-2.25-2.89-4.5-4.33-6.76Q479.07,1129.31,484,1137Zm-37.64-28.84,11.55,7.28-7.18,11.73-11.56-7.28Zm-1.22-5.26-11.55-7.28,7.18-11.73,11.56,7.28Zm3.6,27.52-7.18,11.72L430,1134.85l7.18-11.73Zm-6,17,.81.52,2.1-.58-3.45,1Zm2-3.24,7.18-11.73,11.55,7.28-2.15,3.51c-3,.75-6,1.49-9,2.28l-3.81,1Zm9.17-15,7.19-11.73,11.55,7.28-7.18,11.73Zm19.7-8.34-10.52-6.63,3.06-5Q469.9,1115,473.64,1120.82Zm-8.49-13.23-1.25-1.94-4,6.52-11.55-7.27,7.18-11.73.59.36Q460.63,1100.57,465.15,1107.59ZM451.28,1086l-8.51-5.36,2.48-4.05Zm-17.93-18.52c.12-1.81.24-3.63.37-5.45l1.06-1.74,10,15.57c-.59-.94-1.19-1.87-1.79-2.8l-3.41,5.56-6.68-4.2C433,1072.1,433.19,1069.78,433.35,1067.47Zm-1.12,17.19c.13-2,.25-4,.38-5.93l5,3.13-5.79,9.45c0,.66-.09,1.32-.13,2Zm-1.7,25.87.57-8.62c0-.83.11-1.66.16-2.5l.35-.56,11.55,7.27L436,1117.85l-5.69-3.58Zm-2.68,41.1.36-5.19c.05-.84.11-1.68.16-2.52l.48-7.58q.27-4.27.56-8.56l.57-8.69,0-.5,4,2.51-4.64,7.58c-.17,2.55-.34,5.11-.5,7.66-.05.73-.09,1.46-.14,2.19l10.87,6.84-2.69,4.4c-2.86.81-5.71,1.66-8.57,2.49l-.14,0H428l-.13,0C427.85,1152.05,427.84,1151.84,427.85,1151.63Zm-4.1,7.24a1.59,1.59,0,0,1,1.1-1c2.13-.62,4.26-1.27,6.39-1.89,6.24-1.83,12.49-3.63,18.77-5.33s12.72-3.35,19.12-4.85c5.86-1.36,11.72-2.69,17.58-4,1-.23,2-.4,3-.66a1.59,1.59,0,0,1,1.5.36,4.16,4.16,0,0,1,1.28,4,5.75,5.75,0,0,1-.23.66,1.46,1.46,0,0,1-1.13.84l-2.54.56c-4.65,1-9.32,2.08-14,3.15q-8.2,1.9-16.36,4c-5.64,1.47-11.26,3-16.86,4.61q-7.44,2.15-14.89,4.35a1.44,1.44,0,0,1-1.15,0,3.46,3.46,0,0,1-.79-.57,3.51,3.51,0,0,1-.85-1.44,4.75,4.75,0,0,1-.25-1.45A3.43,3.43,0,0,1,423.75,1158.87Zm1.14,13.79a35,35,0,0,1,1.51-4.08,4.92,4.92,0,0,1,.23-.46c7.35-2.11,14.69-4.24,22.06-6.32,7.16-2,14.37-3.86,21.6-5.59,7-1.68,14-3.26,21-4.8.62-.13,1.23-.29,1.92-.45l.57.43a43.66,43.66,0,0,1,9,9.63,63.17,63.17,0,0,1,7,13.49l.54,1.47a2.23,2.23,0,0,1-.34.14l-2.4.51-.82.2a11,11,0,0,1-2.57.34,6.37,6.37,0,0,1-4.14-1.5,10.32,10.32,0,0,1-1.72-1.84c-.75-1-1.46-2.13-2.18-3.2s-1.28-1.9-1.94-2.84a11.8,11.8,0,0,0-1.87-2,7.3,7.3,0,0,0-6.62-1.63,8.26,8.26,0,0,0-1.29.37,5.11,5.11,0,0,0-3.44,4.17,10.15,10.15,0,0,0-.16,1.74c0,.8,0,1.6,0,2.39,0,.45,0,.89,0,1.34a2,2,0,0,1-1.45,1.88,7,7,0,0,1-1.22.3,2,2,0,0,1-1.69-.52,7,7,0,0,1-.89-1,11.67,11.67,0,0,1-.93-1.56c-.59-1.23-1.13-2.47-1.7-3.7-.47-1-.92-2-1.42-3a9.17,9.17,0,0,0-1.88-2.53,4.49,4.49,0,0,0-3.32-1.26,7.87,7.87,0,0,0-1.53.24,4.79,4.79,0,0,0-3.36,3,8.87,8.87,0,0,0-.57,2.74,29.66,29.66,0,0,0,.09,4.42,59,59,0,0,1,.33,7.16,15.15,15.15,0,0,1-.53,3.53,8,8,0,0,1-4.15,5.07,14.36,14.36,0,0,1-2.94,1.12l-3.8,1c-8.51,2.31-17,4.64-25.49,7.09l-.55.13c-.19-.15-.18-.37-.21-.58-.26-1.76-.48-3.52-.61-5.3a63.27,63.27,0,0,1-.2-6.46A49.58,49.58,0,0,1,424.89,1172.66ZM465,1175c-.14-1.7-.33-3.41-.31-5.12a12.14,12.14,0,0,1,.12-1.47,3.31,3.31,0,0,1,.27-.86,1.33,1.33,0,0,1,.9-.73,1,1,0,0,1,1.2.33,7.39,7.39,0,0,1,.81,1.14c.47.9.9,1.81,1.32,2.72.48,1.07.93,2.15,1.42,3.21a18.16,18.16,0,0,0,1.6,2.81,10.07,10.07,0,0,0,1.42,1.64,6,6,0,0,0,3,1.57,6.31,6.31,0,0,0,1.89,0,9.24,9.24,0,0,0,2.56-.73,5.72,5.72,0,0,0,3.42-4.57,13.38,13.38,0,0,0,.13-2.45c0-.87,0-1.74,0-2.6a3.36,3.36,0,0,1,.13-.76,1.25,1.25,0,0,1,.8-.91,3.8,3.8,0,0,1,4.36.72,8.94,8.94,0,0,1,1.11,1.27c.62.85,1.19,1.74,1.78,2.61s1,1.62,1.59,2.4a16.59,16.59,0,0,0,3.08,3.45l.24.15s0,.11,0,.17q-17,4-34,8.46a1.24,1.24,0,0,1-.25,0,2.12,2.12,0,0,1,.11-.33,16.14,16.14,0,0,0,1.43-5.54A37.3,37.3,0,0,0,465,1175Zm-44.64,35.71c-.29-.89-.54-1.79-.81-2.69a3.31,3.31,0,0,1,2.28-4.08c1.29-.37,2.56-.75,3.85-1.11,6.82-1.91,13.65-3.83,20.48-5.71q13.2-3.61,26.47-7,10.59-2.65,21.19-5.27c5.63-1.37,11.29-2.67,16.94-4,1.27-.3,2.56-.56,3.83-.89a3.33,3.33,0,0,1,4,2.53c.18.82.37,1.65.56,2.47a3.28,3.28,0,0,1-.29,2.38,3.22,3.22,0,0,1-2.16,1.66c-1.41.34-2.83.65-4.24,1-5.85,1.39-11.71,2.76-17.55,4.16q-6.72,1.62-13.43,3.31-20.06,5-40,10.55c-5.57,1.55-11.12,3.15-16.68,4.71-.45.13-.91.21-1.16.26A3.4,3.4,0,0,1,420.37,1210.67Zm161.28-5.15a7.37,7.37,0,0,1-.78.8,9,9,0,0,1-2.11,1.25,25.61,25.61,0,0,1-5.13,1.66c-1.25.28-2.53.48-3.78.77a30.16,30.16,0,0,0-9.84,4.35,43.49,43.49,0,0,0-6.55,5.41c-1.07,1.08-2.12,2.18-3.17,3.29-2.23,2.37-4.46,4.73-6.68,7.12-2.79,3-5.54,6-8.33,9a99.71,99.71,0,0,1-8,7.74,63.34,63.34,0,0,1-17.38,10.6,51.52,51.52,0,0,0-9.15,4.74c-1.53,1-3,2.11-4.43,3.23-.94.73-1.89,1.45-2.85,2.17a24.07,24.07,0,0,1-9.34,4.19,45.13,45.13,0,0,1-5.41.87c-1.05.09-2.1.21-3.15.25a25.9,25.9,0,0,1-7.22-.9,48.65,48.65,0,0,1-7.93-2.84c-2.73-1.22-5.44-2.51-8.16-3.77a32.3,32.3,0,0,0-9.78-3.16c-2.23-.39-4.49-.66-6.75-.88-1.82-.17-3.64-.35-5.45-.56a51.86,51.86,0,0,1-5.83-.87,22.61,22.61,0,0,1-7.49-3.28,59.32,59.32,0,0,1-4.77-3.58c-1.64-1.33-3.28-2.65-4.95-3.94a27,27,0,0,0-4.33-2.74,20.28,20.28,0,0,0-11.77-2.2c-1,.11-2,.3-3,.42a30.24,30.24,0,0,1-5.12.24c-1.06,0-2.11-.1-3.16-.2a24.65,24.65,0,0,1-6.82-1.55,10.83,10.83,0,0,1-1.46-.69,12,12,0,0,1-1.56-1.07,4.6,4.6,0,0,1-1.44-5,3.26,3.26,0,0,1,1.11-1.67,6.59,6.59,0,0,1,1.95-1.1,17.22,17.22,0,0,1,3.47-.84,40.07,40.07,0,0,1,5.89-.36c1.87,0,3.75.09,5.62.19,1.66.08,3.32.2,5,.33,1.37.11,2.75.26,4.12.38,1.89.18,3.79.31,5.68.38a63.23,63.23,0,0,0,7-.17c1.71-.12,3.4-.33,5.09-.6a51.41,51.41,0,0,0,10.7-2.87l.68-.25c.11.27.2.51.29.75a38.83,38.83,0,0,0,2.74,6.15,32.16,32.16,0,0,0,6.42,8,59,59,0,0,0,7.36,5.63q1.2.79,2.43,1.56a2.58,2.58,0,0,0,3.92-1.72,2.44,2.44,0,0,0-.89-2.45,4.94,4.94,0,0,0-.75-.51,74.37,74.37,0,0,1-6.2-4.37,35,35,0,0,1-5.25-5.07,28.25,28.25,0,0,1-4.7-8.42,49.1,49.1,0,0,1-2.33-8.89c-.18-1.06-.21-2.15-.3-3.22a1.83,1.83,0,0,1,0-.32l.58-.2q15.8-4.51,31.66-8.74,13.78-3.66,27.6-7.09c7.32-1.8,14.65-3.53,22-5.29l4.44-1c.2,0,.41-.06.64-.09.11.27.23.49.32.73a52.82,52.82,0,0,1,2.67,10,36.21,36.21,0,0,1,.44,7.28,32.53,32.53,0,0,1-8,20.33c-.2.23-.41.45-.59.7a2.57,2.57,0,0,0,1.36,4.06,2.48,2.48,0,0,0,2.57-.71c.3-.3.57-.63.84-.95a38,38,0,0,0,8.22-17.11,42.3,42.3,0,0,0,.8-7.53v-.65a2.18,2.18,0,0,1,.44-.08l2.11,0a43.88,43.88,0,0,0,5.6-.45,32,32,0,0,0,7.4-2.14,51.3,51.3,0,0,0,6.31-3.22,47,47,0,0,1,8.37-3.94,35.9,35.9,0,0,1,7.37-1.73,33,33,0,0,1,6.88-.09,44.78,44.78,0,0,1,8.71,1.8,16.14,16.14,0,0,1,2.89,1.07A7.16,7.16,0,0,1,581,1203a5.9,5.9,0,0,1,.71.86A1.27,1.27,0,0,1,581.65,1205.52Z"/><path class="cls-4" d="M493.36,1289.52a2.58,2.58,0,0,0-.93-.29,4.12,4.12,0,0,1-3.09-2.78,4.36,4.36,0,0,1,0-2.83,6.92,6.92,0,0,1,1-1.92,13.82,13.82,0,0,1,4.67-4,9.25,9.25,0,0,1,3-1c1.18-.19,2.35-.44,3.53-.59a5.14,5.14,0,0,1,4.87,1.91,6.67,6.67,0,0,1,1.53,3,4.78,4.78,0,0,1-.56,3.25,6.45,6.45,0,0,1-1.59,1.86,11.17,11.17,0,0,1-3.63,1.94,27.94,27.94,0,0,1-5.12,1.17c-.41,0-.82.17-1.22.26Zm1.2-3.93a24.2,24.2,0,0,0,6.72-1.29,6.64,6.64,0,0,0,1.91-1,5.63,5.63,0,0,0,.71-.67,1.06,1.06,0,0,0,.16-1.24,4,4,0,0,0-.78-1.08,1.07,1.07,0,0,0-.81-.34c-.33,0-.66,0-1,.07-.73.12-1.47.28-2.2.39a8.13,8.13,0,0,0-3.87,1.71,11.9,11.9,0,0,0-1,.86,11.24,11.24,0,0,0-.95,1.12,2.53,2.53,0,0,0-.36.76c-.12.35,0,.54.36.6S494.27,1285.56,494.56,1285.59Z"/><path class="cls-4" d="M404.62,1223.37a22.28,22.28,0,0,1-3.82-.56l-2.89-.56a6.14,6.14,0,0,0-2,0,32.64,32.64,0,0,1-5,.44,10,10,0,0,1-3.31-.54,5,5,0,0,1-3.1-2.77,4.42,4.42,0,0,1-.34-2.68,4,4,0,0,1,1.5-2.38,7.21,7.21,0,0,1,2.24-1.15,16,16,0,0,1,3.29-.69,26.49,26.49,0,0,0,5.21-1.07,18,18,0,0,1,2.72-.67,10.27,10.27,0,0,1,6,.76A15,15,0,0,1,409,1214a8.46,8.46,0,0,1,1.47,1.69,4.21,4.21,0,0,1-.63,5.62,6.81,6.81,0,0,1-3.59,1.93C405.7,1223.31,405.16,1223.32,404.62,1223.37Zm-3.72-8.88c-.51.07-1,.1-1.53.21-.71.14-1.41.32-2.11.52a28.86,28.86,0,0,1-3.33.81c-.88.13-1.76.23-2.64.38s-1.55.32-2.32.52a2.73,2.73,0,0,0-.76.34.33.33,0,0,0-.15.48,1.11,1.11,0,0,0,.28.39,2.2,2.2,0,0,0,.67.37,5.53,5.53,0,0,0,1.72.28,24.1,24.1,0,0,0,4.33-.35,11.36,11.36,0,0,1,3.77,0c.94.17,1.88.36,2.82.55a23.74,23.74,0,0,0,2.91.43,3.12,3.12,0,0,0,2.54-1c.27-.26.3-.43.07-.73a5.36,5.36,0,0,0-.75-.83,11.81,11.81,0,0,0-2.29-1.61A6.61,6.61,0,0,0,400.9,1214.49Z"/><path class="cls-4" d="M523.83,1274.57a11.07,11.07,0,0,1-2.54-.35,4.63,4.63,0,0,1-3.38-5,5.12,5.12,0,0,1,1.38-3.23,8.57,8.57,0,0,1,2-1.62,20.56,20.56,0,0,1,3.11-1.47l2.48-1a5.88,5.88,0,0,0,2.46-1.8c.39-.47.74-1,1.11-1.45s.83-1.14,1.28-1.68a8.09,8.09,0,0,1,5-2.79,25.33,25.33,0,0,1,3.36-.34,6.7,6.7,0,0,1,4.63,1.52,14.13,14.13,0,0,1,1.37,1.31,4.22,4.22,0,0,1,.51,5.14,8.39,8.39,0,0,1-1.77,2.08,15.78,15.78,0,0,1-3.34,2.19,16.57,16.57,0,0,0-3.15,2.09c-.9.75-1.78,1.52-2.68,2.27a16,16,0,0,1-3.41,2.22,19.4,19.4,0,0,1-3,1A22.5,22.5,0,0,1,523.83,1274.57Zm0-3.87,1.15-.11a26.55,26.55,0,0,0,3.85-.79,10.73,10.73,0,0,0,4.26-2.21c.57-.48,1.15-1,1.72-1.46a24,24,0,0,1,5.23-3.63,10.06,10.06,0,0,0,2.48-1.71,8.4,8.4,0,0,0,.73-.85.49.49,0,0,0-.05-.65,3.66,3.66,0,0,0-3.36-1.51c-.75.09-1.49.15-2.24.25a4.35,4.35,0,0,0-3,1.68c-.29.37-.56.75-.84,1.12-.42.56-.83,1.14-1.28,1.68a9.76,9.76,0,0,1-4.06,3c-.65.26-1.31.51-2,.78-.88.37-1.77.73-2.63,1.15a8.45,8.45,0,0,0-1.35.88,1.74,1.74,0,0,0-.62.92.89.89,0,0,0,.73,1.26C523,1270.63,523.45,1270.65,523.79,1270.7Z"/><path class="cls-2" d="M424.86,1229.74c.11.27.2.51.29.75a38.83,38.83,0,0,0,2.74,6.15,32.16,32.16,0,0,0,6.42,8,59,59,0,0,0,7.36,5.63q1.2.79,2.43,1.56a2.58,2.58,0,0,0,3.92-1.72,2.44,2.44,0,0,0-.89-2.45,4.94,4.94,0,0,0-.75-.51,74.37,74.37,0,0,1-6.2-4.37,35,35,0,0,1-5.25-5.07,28.25,28.25,0,0,1-4.7-8.42,49.1,49.1,0,0,1-2.33-8.89c-.18-1.06-.21-2.15-.3-3.22a1.83,1.83,0,0,1,0-.32l.58-.2q15.8-4.51,31.66-8.74,13.78-3.66,27.6-7.09c7.32-1.8,14.65-3.53,22-5.29l4.44-1c.2,0,.41-.06.64-.09.11.27.23.49.32.73a52.82,52.82,0,0,1,2.67,10,36.21,36.21,0,0,1,.44,7.28,32.53,32.53,0,0,1-8,20.33c-.2.23-.41.45-.59.7a2.57,2.57,0,0,0,1.36,4.06,2.48,2.48,0,0,0,2.57-.71c.3-.3.57-.63.84-.95a38,38,0,0,0,8.22-17.11,42.3,42.3,0,0,0,.8-7.53v-.65a2.18,2.18,0,0,1,.44-.08l2.11,0a43.88,43.88,0,0,0,5.6-.45,32,32,0,0,0,7.4-2.14,51.3,51.3,0,0,0,6.31-3.22,47,47,0,0,1,8.37-3.94,35.9,35.9,0,0,1,7.37-1.73,33,33,0,0,1,6.88-.09,44.78,44.78,0,0,1,8.71,1.8,16.14,16.14,0,0,1,2.89,1.07A7.16,7.16,0,0,1,581,1203a5.9,5.9,0,0,1,.71.86,1.27,1.27,0,0,1-.07,1.63,7.37,7.37,0,0,1-.78.8,9,9,0,0,1-2.11,1.25,25.61,25.61,0,0,1-5.13,1.66c-1.25.28-2.53.48-3.78.77a30.16,30.16,0,0,0-9.84,4.35,43.49,43.49,0,0,0-6.55,5.41c-1.07,1.08-2.12,2.18-3.17,3.29-2.23,2.37-4.46,4.73-6.68,7.12-2.79,3-5.54,6-8.33,9a99.71,99.71,0,0,1-8,7.74,63.34,63.34,0,0,1-17.38,10.6,51.52,51.52,0,0,0-9.15,4.74c-1.53,1-3,2.11-4.43,3.23-.94.73-1.89,1.45-2.85,2.17a24.07,24.07,0,0,1-9.34,4.19,45.13,45.13,0,0,1-5.41.87c-1.05.09-2.1.21-3.15.25a25.9,25.9,0,0,1-7.22-.9,48.65,48.65,0,0,1-7.93-2.84c-2.73-1.22-5.44-2.51-8.16-3.77a32.3,32.3,0,0,0-9.78-3.16c-2.23-.39-4.49-.66-6.75-.88-1.82-.17-3.64-.35-5.45-.56a51.86,51.86,0,0,1-5.83-.87,22.61,22.61,0,0,1-7.49-3.28,59.32,59.32,0,0,1-4.77-3.58c-1.64-1.33-3.28-2.65-4.95-3.94a27,27,0,0,0-4.33-2.74,20.28,20.28,0,0,0-11.77-2.2c-1,.11-2,.3-3,.42a30.24,30.24,0,0,1-5.12.24c-1.06,0-2.11-.1-3.16-.2a24.65,24.65,0,0,1-6.82-1.55,10.83,10.83,0,0,1-1.46-.69,12,12,0,0,1-1.56-1.07,4.6,4.6,0,0,1-1.44-5,3.26,3.26,0,0,1,1.11-1.67,6.59,6.59,0,0,1,1.95-1.1,17.22,17.22,0,0,1,3.47-.84,40.07,40.07,0,0,1,5.89-.36c1.87,0,3.75.09,5.62.19,1.66.08,3.32.2,5,.33,1.37.11,2.75.26,4.12.38,1.89.18,3.79.31,5.68.38a63.23,63.23,0,0,0,7-.17c1.71-.12,3.4-.33,5.09-.6a51.41,51.41,0,0,0,10.7-2.87Z"/><path class="cls-6" d="M451.28,1086l-6-9.41-2.48,4.05Zm-8.12,20.13-11.55-7.27-.35.56c-.05.84-.11,1.67-.16,2.5l-.57,8.62-.24,3.74,5.69,3.58Zm-5.58-24.26-5-3.13c-.13,2-.25,4-.38,5.93l-.57,8.62c0-.65.09-1.31.13-2Zm5.4-8.81c.6.93,1.2,1.86,1.79,2.8l-10-15.57-1.06,1.74c-.13,1.82-.25,3.64-.37,5.45-.16,2.31-.31,4.63-.46,6.94l6.68,4.2Zm16.93,39.12,4-6.52,1.25,1.94q-4.51-7-9-14.06l-.59-.36-7.18,11.73ZM433.6,1095.6l11.55,7.28,7.19-11.73-11.56-7.28Zm5.58,24.27,11.56,7.28,7.18-11.73-11.55-7.28Zm34.46,1q-3.74-5.8-7.46-11.63l-3.06,5Zm-39.65.28-4-2.51,0,.5-.57,8.69q-.29,4.29-.56,8.56c.16-2.55.33-5.11.5-7.66ZM484,1137q-4.93-7.68-9.86-15.37c1.44,2.26,2.89,4.51,4.33,6.76l-2.6-1.64-7.18,11.73,3.38,2.13-5.19,1.23-.18-.12-.11.19-.89.21c6-1.48,12.06-2.85,18.12-4.18a1.17,1.17,0,0,0,.2-.06l.28-.06.06,0,.05-.09A3.64,3.64,0,0,0,484,1137Zm-39.24,7.16,3.79,2.39,3.81-1c3-.79,6-1.53,9-2.28l2.15-3.51L452,1132.41Zm16.36-26.71-7.19,11.73,11.56,7.28,7.18-11.73Zm-32.28,18.91-.48,7.58c-.05.84-.11,1.68-.16,2.52l-.36,5.19c0,.21,0,.42,0,.67l.13,0h.2l.14,0c2.86-.83,5.71-1.68,8.57-2.49l2.69-4.4-10.87-6.84C428.76,1137.8,428.8,1137.07,428.85,1136.34Zm8.34-13.22L430,1134.85l11.56,7.27,7.18-11.72Zm5.59,24.26-.54.89,3.45-1-2.1.58Z"/><path class="cls-5" d="M493.22,1151l.57.43a43.66,43.66,0,0,1,9,9.63,63.17,63.17,0,0,1,7,13.49l.54,1.47a2.23,2.23,0,0,1-.34.14l-2.4.51-.82.2a11,11,0,0,1-2.57.34,6.37,6.37,0,0,1-4.14-1.5,10.32,10.32,0,0,1-1.72-1.84c-.75-1-1.46-2.13-2.18-3.2s-1.28-1.9-1.94-2.84a11.8,11.8,0,0,0-1.87-2,7.3,7.3,0,0,0-6.62-1.63,8.26,8.26,0,0,0-1.29.37,5.11,5.11,0,0,0-3.44,4.17,10.15,10.15,0,0,0-.16,1.74c0,.8,0,1.6,0,2.39,0,.45,0,.89,0,1.34a2,2,0,0,1-1.45,1.88,7,7,0,0,1-1.22.3,2,2,0,0,1-1.69-.52,7,7,0,0,1-.89-1,11.67,11.67,0,0,1-.93-1.56c-.59-1.23-1.13-2.47-1.7-3.7-.47-1-.92-2-1.42-3a9.17,9.17,0,0,0-1.88-2.53,4.49,4.49,0,0,0-3.32-1.26,7.87,7.87,0,0,0-1.53.24,4.79,4.79,0,0,0-3.36,3,8.87,8.87,0,0,0-.57,2.74,29.66,29.66,0,0,0,.09,4.42,59,59,0,0,1,.33,7.16,15.15,15.15,0,0,1-.53,3.53,8,8,0,0,1-4.15,5.07,14.36,14.36,0,0,1-2.94,1.12l-3.8,1c-8.51,2.31-17,4.64-25.49,7.09l-.55.13c-.19-.15-.18-.37-.21-.58-.26-1.76-.48-3.52-.61-5.3a63.27,63.27,0,0,1-.2-6.46,49.58,49.58,0,0,1,2.07-13.36,35,35,0,0,1,1.51-4.08,4.92,4.92,0,0,1,.23-.46c7.35-2.11,14.69-4.24,22.06-6.32,7.16-2,14.37-3.86,21.6-5.59,7-1.68,14-3.26,21-4.8C491.92,1151.28,492.53,1151.12,493.22,1151Z"/><path class="cls-5" d="M423.73,1213a3.4,3.4,0,0,1-3.36-2.28c-.29-.89-.54-1.79-.81-2.69a3.31,3.31,0,0,1,2.28-4.08c1.29-.37,2.56-.75,3.85-1.11,6.82-1.91,13.65-3.83,20.48-5.71q13.2-3.61,26.47-7,10.59-2.65,21.19-5.27c5.63-1.37,11.29-2.67,16.94-4,1.27-.3,2.56-.56,3.83-.89a3.33,3.33,0,0,1,4,2.53c.18.82.37,1.65.56,2.47a3.28,3.28,0,0,1-.29,2.38,3.22,3.22,0,0,1-2.16,1.66c-1.41.34-2.83.65-4.24,1-5.85,1.39-11.71,2.76-17.55,4.16q-6.72,1.62-13.43,3.31-20.06,5-40,10.55c-5.57,1.55-11.12,3.15-16.68,4.71C424.44,1212.82,424,1212.9,423.73,1213Z"/><path class="cls-5" d="M423.49,1160.17a3.43,3.43,0,0,1,.26-1.3,1.59,1.59,0,0,1,1.1-1c2.13-.62,4.26-1.27,6.39-1.89,6.24-1.83,12.49-3.63,18.77-5.33s12.72-3.35,19.12-4.85c5.86-1.36,11.72-2.69,17.58-4,1-.23,2-.4,3-.66a1.59,1.59,0,0,1,1.5.36,4.16,4.16,0,0,1,1.28,4,5.75,5.75,0,0,1-.23.66,1.46,1.46,0,0,1-1.13.84l-2.54.56c-4.65,1-9.32,2.08-14,3.15q-8.2,1.9-16.36,4c-5.64,1.47-11.26,3-16.86,4.61q-7.44,2.15-14.89,4.35a1.44,1.44,0,0,1-1.15,0,3.46,3.46,0,0,1-.79-.57,3.51,3.51,0,0,1-.85-1.44A4.75,4.75,0,0,1,423.49,1160.17Z"/><path class="cls-7" d="M464.14,1187c12.23-3.16,23-5.85,33-8.23a17.08,17.08,0,0,1-2.93-3.33c-.34-.48-.66-1-1-1.46l-.61-1-.34-.51c-.46-.69-.94-1.41-1.43-2.09a9.3,9.3,0,0,0-1.07-1.21,3.14,3.14,0,0,0-2.28-1,4.93,4.93,0,0,0-1.7.34.9.9,0,0,0-.58.66,3.23,3.23,0,0,0-.11.67c0,.93,0,1.83,0,2.59A14,14,0,0,1,485,1175a6.09,6.09,0,0,1-3.63,4.84,9.67,9.67,0,0,1-2.66.76,6.42,6.42,0,0,1-2,0,6.28,6.28,0,0,1-3.19-1.66,10.71,10.71,0,0,1-1.47-1.7,18.46,18.46,0,0,1-1.63-2.87l-.74-1.65q-.33-.78-.69-1.56c-.39-.86-.83-1.79-1.3-2.7a7,7,0,0,0-.63-.9l-.15-.19a.57.57,0,0,0-.49-.25,1.39,1.39,0,0,0-.32.05,1,1,0,0,0-.66.52,3.22,3.22,0,0,0-.25.77,11.93,11.93,0,0,0-.11,1.43,38.57,38.57,0,0,0,.22,4l.09,1a37.82,37.82,0,0,1,.1,6.66A16.39,16.39,0,0,1,464.14,1187Z"/><path class="cls-2" d="M494.56,1285.59c-.29,0-.71-.06-1.12-.13s-.48-.25-.36-.6a2.53,2.53,0,0,1,.36-.76,11.24,11.24,0,0,1,.95-1.12,11.9,11.9,0,0,1,1-.86,8.13,8.13,0,0,1,3.87-1.71c.73-.11,1.47-.27,2.2-.39.33,0,.66,0,1-.07a1.07,1.07,0,0,1,.81.34,4,4,0,0,1,.78,1.08,1.06,1.06,0,0,1-.16,1.24,5.63,5.63,0,0,1-.71.67,6.64,6.64,0,0,1-1.91,1A24.2,24.2,0,0,1,494.56,1285.59Z"/><path class="cls-2" d="M400.9,1214.49a6.61,6.61,0,0,1,3.23.83,11.81,11.81,0,0,1,2.29,1.61,5.36,5.36,0,0,1,.75.83c.23.3.2.47-.07.73a3.12,3.12,0,0,1-2.54,1,23.74,23.74,0,0,1-2.91-.43c-.94-.19-1.88-.38-2.82-.55a11.36,11.36,0,0,0-3.77,0,24.1,24.1,0,0,1-4.33.35,5.53,5.53,0,0,1-1.72-.28,2.2,2.2,0,0,1-.67-.37,1.11,1.11,0,0,1-.28-.39.33.33,0,0,1,.15-.48,2.73,2.73,0,0,1,.76-.34c.77-.2,1.54-.38,2.32-.52s1.76-.25,2.64-.38a28.86,28.86,0,0,0,3.33-.81c.7-.2,1.4-.38,2.11-.52C399.87,1214.59,400.39,1214.56,400.9,1214.49Z"/><path class="cls-2" d="M523.79,1270.7c-.34,0-.79-.07-1.22-.17a.89.89,0,0,1-.73-1.26,1.74,1.74,0,0,1,.62-.92,8.45,8.45,0,0,1,1.35-.88c.86-.42,1.75-.78,2.63-1.15.65-.27,1.31-.52,2-.78a9.76,9.76,0,0,0,4.06-3c.45-.54.86-1.12,1.28-1.68.28-.37.55-.75.84-1.12a4.35,4.35,0,0,1,3-1.68c.75-.1,1.49-.16,2.24-.25a3.66,3.66,0,0,1,3.36,1.51.49.49,0,0,1,.05.65,8.4,8.4,0,0,1-.73.85,10.06,10.06,0,0,1-2.48,1.71,24,24,0,0,0-5.23,3.63c-.57.5-1.15,1-1.72,1.46a10.73,10.73,0,0,1-4.26,2.21,26.55,26.55,0,0,1-3.85.79Z"/></g></g><g id="Calque_3" data-name="Calque 3"><path class="cls-1" d="M697.49,1256.66h0c-2.05.17-3.64.25-5,.25-3.26,0-5.34-.49-6.55-1.54-2-1.7-2.57-5.73-2.9-11.37a1.71,1.71,0,0,0-3.4.32c.67,11.59-1,13.15-7.89,14.31-1.38.23-3,.42-5.16.61a1.71,1.71,0,0,0,.38,3.39h0c2-.17,3.64-.25,5-.25,3.26,0,5.35.49,6.56,1.54,2,1.7,2.57,5.72,2.9,11.37a1.73,1.73,0,0,0,1.69,1.48h.1l.19,0a1.71,1.71,0,0,0,1.42-1.78c-.67-11.6,1-13.16,7.9-14.32,1.38-.23,3-.42,5-.59l.19,0a1.7,1.7,0,0,0,1.37-2A1.74,1.74,0,0,0,697.49,1256.66Z"/><path class="cls-1" d="M616.19,1108.45c-5.55,0-5.55,8.61,0,8.61S621.74,1108.45,616.19,1108.45Z"/><path class="cls-1" d="M628.32,1153.24c-2.77,0-2.77,4.3,0,4.3S631.1,1153.24,628.32,1153.24Z"/><path class="cls-1" d="M652.42,1150.94c-2.78,0-2.78,4.31,0,4.31S655.19,1150.94,652.42,1150.94Z"/><path class="cls-4" d="M648,1048.75a2.07,2.07,0,0,1-1.7-1.29,3.29,3.29,0,0,1-.14-.54c-.22-1.38-.45-2.77-.62-4.16a12.8,12.8,0,0,0-1-3.5,22.28,22.28,0,0,0-2.33-4.15,10.25,10.25,0,0,0-4.49-3.69,12.86,12.86,0,0,0-3.51-.9l-1.4-.12a2.44,2.44,0,0,1-1.26-.55,1.89,1.89,0,0,1,0-2.93,1.74,1.74,0,0,1,.46-.3,30.68,30.68,0,0,0,6.7-3.48,24.24,24.24,0,0,0,2.7-2,13.28,13.28,0,0,0,2.42-2.71,9.55,9.55,0,0,0,1.62-5c0-1,0-2,.08-3.08a2,2,0,0,1,.79-1.43,1.88,1.88,0,0,1,1.85-.29,1.73,1.73,0,0,1,1.12,1.16,3.37,3.37,0,0,1,.15.83c0,.65,0,1.31,0,2a12.72,12.72,0,0,0,2.14,6.87,17.4,17.4,0,0,0,9,7.2c.62.21,1.25.41,1.85.66a3.48,3.48,0,0,1,.93.61,1.6,1.6,0,0,1-.53,2.56,8.15,8.15,0,0,1-1.07.31c-.56.09-1.12.13-1.67.19a9.73,9.73,0,0,0-7.22,4.33,19.91,19.91,0,0,0-2.83,6.67,9.26,9.26,0,0,0-.15,1.67c-.05,1-.07,2.06-.13,3.09a2.47,2.47,0,0,1-.49,1.29A1.85,1.85,0,0,1,648,1048.75Zm.1-12.4c.08,0,.18-.09.22-.17.45-.71.87-1.43,1.32-2.15a13.81,13.81,0,0,1,4.22-4.42c.47-.31.93-.64,1.39-.95.19-.14.15-.5-.09-.71-.56-.49-1.11-1-1.69-1.46a20.8,20.8,0,0,1-4.18-4.51c-.37-.55-.75-1.08-1.13-1.61a2.86,2.86,0,0,0-.41-.37c-.18-.18-.31-.14-.49,0a6.86,6.86,0,0,0-1,1.36,20.39,20.39,0,0,1-4.35,4.73c-.22.17-.45.34-.66.52s-.43.36-.65.54a.68.68,0,0,0,.11,1l2.22,1.71a11.53,11.53,0,0,1,3,3.33l1.43,2.41a4.7,4.7,0,0,0,.53.65C648,1036.31,648.06,1036.32,648.13,1036.35Z"/><path class="cls-3" d="M648.13,1036.35c-.07,0-.17,0-.21-.1a4.7,4.7,0,0,1-.53-.65l-1.43-2.41a11.53,11.53,0,0,0-3-3.33l-2.22-1.71a.68.68,0,0,1-.11-1c.22-.18.43-.37.65-.54s.44-.35.66-.52a20.39,20.39,0,0,0,4.35-4.73,6.86,6.86,0,0,1,1-1.36c.18-.17.31-.21.49,0a2.86,2.86,0,0,1,.41.37c.38.53.76,1.06,1.13,1.61a20.8,20.8,0,0,0,4.18,4.51c.58.46,1.13,1,1.69,1.46.24.21.28.57.09.71-.46.31-.92.64-1.39.95a13.81,13.81,0,0,0-4.22,4.42c-.45.72-.87,1.44-1.32,2.15C648.31,1036.26,648.21,1036.3,648.13,1036.35Z"/><path class="cls-1" d="M296.31,1216.2c-1.67,0-3-.11-4.09-.23-5.61-.6-7-1.77-7.06-11.14a1.37,1.37,0,0,0-1.26-1.38,1.42,1.42,0,0,0-1.49,1.38c0,4.46-.29,7.73-1.79,9.2-.92.91-2.57,1.4-5.2,1.55-1.09.07-2.37.08-4,.05a.67.67,0,0,0-.2,0,1.38,1.38,0,0,0-.1,2.74h.16c1.67,0,3,.11,4.09.23,5.61.61,7,1.78,7.06,11.15a1.36,1.36,0,0,0,1.23,1.37h.23a1.41,1.41,0,0,0,1.29-1.38c0-4.46.29-7.74,1.79-9.2.92-.91,2.58-1.4,5.21-1.56,1.09-.06,2.37-.08,4.14,0a1.38,1.38,0,0,0-.05-2.76Z"/><path class="cls-1" d="M252.51,1235c-5.55,0-5.55,8.6,0,8.6S258.06,1235,252.51,1235Z"/><path class="cls-1" d="M315.09,850h0c-2.05.17-3.63.25-5,.25-3.26,0-5.34-.49-6.55-1.53-2-1.71-2.57-5.73-2.91-11.37a1.7,1.7,0,0,0-3.39.31c.67,11.6-1,13.16-7.9,14.32-1.37.23-3,.42-5.15.6a1.72,1.72,0,0,0-1.44,1.92,1.75,1.75,0,0,0,1.82,1.47h0c2.05-.17,3.64-.25,5-.25,3.26,0,5.34.49,6.55,1.54,2,1.71,2.58,5.73,2.91,11.37a1.72,1.72,0,0,0,1.69,1.49h.1l.19,0a1.72,1.72,0,0,0,1.42-1.78c-.67-11.59,1-13.15,7.9-14.31,1.37-.23,3-.42,5-.59l.19,0a1.71,1.71,0,0,0,1.37-2A1.75,1.75,0,0,0,315.09,850Z"/><path class="cls-4" d="M58.34,770.9a1.54,1.54,0,0,0-.39.23,3.17,3.17,0,0,1-1.2.68,22.73,22.73,0,0,0-6,3,19.31,19.31,0,0,0-6.58,8c-.64,1.41-1.14,2.88-1.64,4.34a8.19,8.19,0,0,0-.48,2.74A7.44,7.44,0,0,1,42,791a2.1,2.1,0,0,1-.63,1.22,2,2,0,0,1-1.49.52,1.44,1.44,0,0,1-1.35-1.07,4.14,4.14,0,0,1-.09-.46c0-.31-.06-.62-.06-.93a10.21,10.21,0,0,0-.73-3.62,19,19,0,0,0-.78-1.93,30.89,30.89,0,0,0-6.28-8.87,22.57,22.57,0,0,0-2.48-2.1,15.93,15.93,0,0,0-4.72-2.44,4.24,4.24,0,0,1-1.26-.58,1.15,1.15,0,0,1-.41-.54,1.44,1.44,0,0,1,.37-1.69,2,2,0,0,1,.59-.36,4.81,4.81,0,0,1,.68-.13c.69-.1,1.38-.22,2.07-.31a9.63,9.63,0,0,0,3.67-1.35,15,15,0,0,0,2.75-2.13,22.41,22.41,0,0,0,4.81-7.6,32.24,32.24,0,0,0,1.32-5.4c.1-.77.29-1.52.45-2.28a1.32,1.32,0,0,1,1.05-.81A1.44,1.44,0,0,1,41,749.25c.2,1,.41,2,.53,3A20.23,20.23,0,0,0,43,757.57a29.09,29.09,0,0,0,2.28,4.31A14.67,14.67,0,0,0,48,765a11.5,11.5,0,0,0,4.68,2.47,26.77,26.77,0,0,0,3,.46c.46.06.93.08,1.38.13a1.1,1.1,0,0,1,.79.43c.15.18.32.34.47.51ZM39.43,759.05c-.07,0-.17,0-.22.05a1.06,1.06,0,0,0-.32.31c-.55,1.12-1,2.25-1.62,3.35a15.39,15.39,0,0,1-6,6.33l-1.39.83c-.24.14-.28.38-.11.54a20.88,20.88,0,0,0,1.85,1.4c.67.53,1.36,1,2,1.58a24.09,24.09,0,0,1,5.42,6.9,7.55,7.55,0,0,0,.82,1.4.4.4,0,0,0,.59,0l.67-1.22a24.52,24.52,0,0,1,7.29-8.6c.32-.23.62-.47.92-.71a.46.46,0,0,0,0-.62c-.3-.23-.61-.47-.92-.69-.89-.62-1.79-1.22-2.67-1.85a12.7,12.7,0,0,1-3.18-3.36c-.39-.58-.74-1.18-1.07-1.79-.48-.89-.92-1.79-1.38-2.69-.18-.34-.38-.67-.58-1A.59.59,0,0,0,39.43,759.05Z"/><path class="cls-3" d="M39.43,759.05a.59.59,0,0,1,.18.13c.2.33.4.66.58,1,.46.9.9,1.8,1.38,2.69.33.61.68,1.21,1.07,1.79A12.7,12.7,0,0,0,45.82,768c.88.63,1.78,1.23,2.67,1.85.31.22.62.46.92.69a.46.46,0,0,1,0,.62c-.3.24-.6.48-.92.71a24.52,24.52,0,0,0-7.29,8.6l-.67,1.22a.4.4,0,0,1-.59,0,7.55,7.55,0,0,1-.82-1.4,24.09,24.09,0,0,0-5.42-6.9c-.65-.56-1.34-1.05-2-1.58a20.88,20.88,0,0,1-1.85-1.4c-.17-.16-.13-.4.11-.54l1.39-.83a15.39,15.39,0,0,0,6-6.33c.57-1.1,1.07-2.23,1.62-3.35a1.06,1.06,0,0,1,.32-.31S39.36,759.07,39.43,759.05Z"/><path class="cls-1" d="M28.88,1210.78c-2.78,0-2.78,4.31,0,4.31S31.66,1210.78,28.88,1210.78Z"/><path class="cls-1" d="M56.93,1286c-5.55,0-5.55,8.61,0,8.61S62.48,1286,56.93,1286Z"/><path class="cls-1" d="M59.27,1263.37c-2.78,0-2.78,4.31,0,4.31S62.05,1263.37,59.27,1263.37Z"/><path class="cls-1" d="M549.21,924.28c-4.16,0-4.16,6.45,0,6.45S553.37,924.28,549.21,924.28Z"/><path class="cls-1" d="M101.79,890.52c-2.77,0-2.77,4.3,0,4.3S104.57,890.52,101.79,890.52Z"/><path class="cls-1" d="M170.41,911.55c-4.16,0-4.16,6.45,0,6.45S174.58,911.55,170.41,911.55Z"/><path class="cls-1" d="M147,940.76c-2.78,0-2.78,4.31,0,4.31S149.81,940.76,147,940.76Z"/></g></svg>