<svg xmlns="http://www.w3.org/2000/svg" viewBox="0 0 1669 245.07"><defs><style>.cls-1,.cls-4{fill:#0000e2;}.cls-2,.cls-7{fill:#97d3dd;}.cls-2,.cls-3,.cls-4,.cls-5{fill-rule:evenodd;}.cls-3{fill:#fff;}.cls-5,.cls-6{fill:#ffaa64;}</style></defs><title>illus_site</title><g id="Calque_2" data-name="Calque 2"><g id="Push_Pin" data-name="Push Pin"><path class="cls-1" d="M92.84,184.11l-.07-.11-.31-.46a13,13,0,0,0-3.86-3.95,13,13,0,0,0-4.18-1.81l-3.22-7.9h0a2.76,2.76,0,0,0,1.45-1.1,3.06,3.06,0,0,0-.38-3.88,2.83,2.83,0,0,0-3.11-.7l-12.11,4.34a3.16,3.16,0,0,0-.92.42l-.3.23-.34.37-.2.31a3.06,3.06,0,0,0,.18,3.38,2.94,2.94,0,0,0,2.37,1.23,2.73,2.73,0,0,0,1.08-.2l.22-.08,2.33,8a12.77,12.77,0,0,0-2.94,7.67,15.66,15.66,0,0,0,.06,1.94v.07c0,.12,0,.24,0,.36v.2a.26.26,0,0,0,.11.21.29.29,0,0,0,.32.06l0-.29h0l.09.26,8.46-2.91,6.87,12.49a1.24,1.24,0,0,0,1.5.59,1.22,1.22,0,0,0,.55-.37,1.32,1.32,0,0,0,.26-1.1l-2.71-13.84,8.63-3a.3.3,0,0,0,.19-.19A.27.27,0,0,0,92.84,184.11ZM80,188.94l1.72-.59,1.12,5.75Zm-8.91.44a10.4,10.4,0,0,1,1.3-4.14,7.68,7.68,0,0,1,.81-1.13,6.32,6.32,0,0,1,1.66-1.44,2.85,2.85,0,0,1,.3-.16,1.26,1.26,0,0,0,.64-1.63,1.23,1.23,0,0,0-.69-.67,1.21,1.21,0,0,0-1,0,5.77,5.77,0,0,0-.55.29l-2.1-7.17.55-.19.29-.11a1.27,1.27,0,0,0,.71-1.57,1.24,1.24,0,0,0-1.56-.76l-1.92.68L68,172a.44.44,0,0,1-.56-.19.61.61,0,0,1,0-.67.5.5,0,0,1,.19-.13l7.85-2.81c1.5-.54,3-1.07,4.48-1.62a.5.5,0,0,1,.45.05.61.61,0,0,1,.26.44.52.52,0,0,1-.34.52c-.9.31-1.79.64-2.69,1l-.71.26a1.3,1.3,0,0,0-.56.38,1.24,1.24,0,0,0,1.36,2l.87-.31.25-.09,2.81,6.91h-.13c-.23,0-.46.06-.68.11a1.13,1.13,0,0,0-.63.39,1.25,1.25,0,0,0,1.14,2,6,6,0,0,1,2.61.13c.3.08.58.17.87.27l.42.14.21.06.14,0,.2.08a10.42,10.42,0,0,1,2,1.21,10.54,10.54,0,0,1,1.22,1.1Z"/><path class="cls-2" d="M89.58,183.33l-18.85,6.48a.33.33,0,0,1,0-.1,10.59,10.59,0,0,1,1.37-4.62,7.36,7.36,0,0,1,.84-1.17,6.94,6.94,0,0,1,1.73-1.51l.33-.18a.94.94,0,0,0,.5-1.23.93.93,0,0,0-1.25-.48c-.26.11-.51.27-.77.41l-.09.06-2.28-7.82.72-.26.38-.13a.94.94,0,0,0-.64-1.77l-2.89,1-.54.19a.74.74,0,0,1-.92-.3.93.93,0,0,1,0-1,.73.73,0,0,1,.35-.25l5.92-2.12c2.14-.77,4.28-1.52,6.41-2.3A.83.83,0,0,1,81,167a.78.78,0,0,1-.54.83c-1.14.39-2.26.81-3.4,1.21a.94.94,0,0,0-.44,1.48.9.9,0,0,0,1,.3l1.3-.46.1,0,3.08,7.56-.38,0a7.4,7.4,0,0,0-.8.13.92.92,0,0,0-.67,1.09.93.93,0,0,0,1.06.73,6.34,6.34,0,0,1,2.74.14c.44.11.87.28,1.31.42l.33.08.25.09A11.61,11.61,0,0,1,88,181.84a11,11,0,0,1,1.54,1.44Z"/><path class="cls-3" d="M83.44,195.88l-3.9-7.11,2.38-.82c.51,2.65,1,5.28,1.55,7.92Z"/></g><g id="CléMontréal"><path class="cls-4" d="M299.31,191.11a.56.56,0,0,0-.31.09,12,12,0,0,1-5.09,1,10.32,10.32,0,0,1-6.16-2.38,13.72,13.72,0,0,1-1.24-1.17l-.16-.14-.55.37a10.38,10.38,0,0,1-5.12,1.79,11.56,11.56,0,0,1-4.3-.43,10.14,10.14,0,0,1-4.4-2.64,11.63,11.63,0,0,1-2.13-2.94,10.41,10.41,0,0,1-1.14-5.17c0-.1,0-.2,0-.3s0,0,0-.07l-.32-.07a11.31,11.31,0,0,1-5.21-2.45,10.28,10.28,0,0,1-2-2.37,10.77,10.77,0,0,1-1.66-4.48,11,11,0,0,1,.31-4.34,10.78,10.78,0,0,1,3.09-5.27l.25-.24a11.08,11.08,0,0,1,.51-13.83.52.52,0,0,0-.15-.27l-1.09-1.43a3.65,3.65,0,0,1-.55-1,2.37,2.37,0,0,1,.16-1.79,3.61,3.61,0,0,1,.94-1.12c.07,0,.13-.11.21-.18A2.29,2.29,0,0,0,263,140l-1.39-1.89a1.87,1.87,0,0,1-.33-.68,1.71,1.71,0,0,1,.16-1.33c.05-.11.12-.21.17-.31a.09.09,0,0,0,0,0s0,0,0,0l-24-28.86s0,0,0,0l-.05,0h-.06l-.95.76-3,2.46-3.63,3-1.49,1.19a3.54,3.54,0,0,1-1.15.61,2.47,2.47,0,0,1-1.85-.13,3.81,3.81,0,0,1-1.21-.93c-.37-.42-.73-.85-1.08-1.28-.57-.7-1.13-1.41-1.69-2.11-.25-.31-.51-.6-.76-.9a4.84,4.84,0,0,1-.65-1,2,2,0,0,1,.08-2.07,4.38,4.38,0,0,1,.72-.83,5.17,5.17,0,0,1,1.35-.91,2.51,2.51,0,0,1,1-.22,2.11,2.11,0,0,1,1.52.59,16.07,16.07,0,0,1,1.62,1.68c.18.22.24.23.48.08a2.09,2.09,0,0,0,.72-.73,1.42,1.42,0,0,0-.28-.49L226,104a2.27,2.27,0,0,1-.47-1,2.07,2.07,0,0,1,.68-2,1.37,1.37,0,0,1,.23-.19,6.1,6.1,0,0,0,1.05-1c.12-.14.13-.19,0-.33a5.15,5.15,0,0,0-.64-.76.85.85,0,0,0-.38.22c-.35.28-.7.58-1.06.86l-.48.37a1.67,1.67,0,0,1-.67.29,1.47,1.47,0,0,1-1.32-.3,3.2,3.2,0,0,1-.63-.69l-.77-1.09c-.23-.33-.46-.66-.7-1a2.19,2.19,0,0,0-.21-.23.74.74,0,0,0-.21.07,3.38,3.38,0,0,0-.79.62.41.41,0,0,0-.08.52,6.91,6.91,0,0,0,.66,1,6.87,6.87,0,0,1,.77,1.16,3.11,3.11,0,0,1,.3.82,2.14,2.14,0,0,1-.33,1.63,1.66,1.66,0,0,1-.16.21,6,6,0,0,1-1.74,1.4,2.1,2.1,0,0,1-2.11-.06,3.52,3.52,0,0,1-.9-.73q-.63-.69-1.23-1.41c-.81-1-1.62-2-2.42-3-.12-.14-.21-.29-.31-.43a.87.87,0,0,0-.16-.17l-.38-.71a.9.9,0,0,0-.06-.22,1.65,1.65,0,0,1-.11-.45,2.49,2.49,0,0,1,.08-.86,3.24,3.24,0,0,1,.64-1.2,7.26,7.26,0,0,1,1.17-1.18q1.66-1.35,3.35-2.67c.82-.65,1.65-1.29,2.48-1.93l2.25-1.73c.15-.13.31-.25.48-.38,0-.12-.08-.22-.11-.33-.08-.29-.18-.58-.23-.87a3.41,3.41,0,0,1,1.36-3.45.81.81,0,0,0,.16-.16l.94-.51.2,0a3.27,3.27,0,0,1,2.16,0,5.63,5.63,0,0,1,1.46.81,11.19,11.19,0,0,1,1.69,1.61c.8.92,1.58,1.84,2.36,2.78,1.08,1.28,2.16,2.58,3.23,3.88l3.3,4,3,3.63,3.07,3.71c1.09,1.32,2.19,2.64,3.28,4l3,3.66,3.3,4c1.09,1.33,2.19,2.65,3.28,4l3.3,4,3.06,3.71,3.07,3.72.78.95.19.21a1.14,1.14,0,0,0,.25-.06,1.82,1.82,0,0,1,1.6.24,3.35,3.35,0,0,1,.59.54l1.3,1.53.22.24a1.25,1.25,0,0,0,.47-.33,2.47,2.47,0,0,1,.83-.48,2.3,2.3,0,0,1,1.85.17,3.21,3.21,0,0,1,.94.74,10.81,10.81,0,0,0,1,1,2,2,0,0,0,.57.4,11.93,11.93,0,0,1,2.81-1.35,10.59,10.59,0,0,1,3.06-.45,12.08,12.08,0,0,1,3.11.42,10.75,10.75,0,0,1,2.86,1.21,10.47,10.47,0,0,1,2.4,2c.14,0,.23-.09.33-.16a11.19,11.19,0,0,1,5.78-2,9.7,9.7,0,0,1,2.88.33,12.3,12.3,0,0,1,4.06,1.91,10.23,10.23,0,0,1,2.8,3.06,11.29,11.29,0,0,1,1.63,4.94c0,.36,0,.71,0,1.07V146l.19,0a10.71,10.71,0,0,1,6.35,3.49,10.14,10.14,0,0,1,1,1.31.53.53,0,0,0,.29.26c.2.38.4.75.61,1.12a.6.6,0,0,0,.07.39c.13.36.28.72.39,1.1a11.3,11.3,0,0,1,.22,5.36,10,10,0,0,1-2,4.46,11.84,11.84,0,0,1-1.17,1.28c-.08.08-.18.14-.2.24.25.39.5.76.72,1.14a11.69,11.69,0,0,1,1,2.21,11,11,0,0,1-1.52,9.57,10.8,10.8,0,0,1-2.83,2.77A10.92,10.92,0,0,1,310,182a10.44,10.44,0,0,1-4.22.69h-.29s0,.05,0,.07a.5.5,0,0,0,0,.13,12.61,12.61,0,0,1-1.21,3.53,10.42,10.42,0,0,1-3.41,3.87,1.12,1.12,0,0,0-.2.17Zm6.5-49.86-.36-.57a8.05,8.05,0,0,0-1.88-2.07,10,10,0,0,0-3.62-1.74,7.32,7.32,0,0,0-3.09-.12,9.35,9.35,0,0,0-4.08,1.81,1.82,1.82,0,0,1-1.65.32,1.87,1.87,0,0,1-1-.67,8,8,0,0,0-3.33-2.4,9.53,9.53,0,0,0-3.69-.66,7.56,7.56,0,0,0-2.9.6A9.09,9.09,0,0,0,277,138a8.16,8.16,0,0,0-2.13,4.74,3.86,3.86,0,0,1-.12.59,1.91,1.91,0,0,1-2,1.24,8.29,8.29,0,0,0-4.25.68,8.72,8.72,0,0,0-3,2.12,8.82,8.82,0,0,0-1.36,9.82,7.88,7.88,0,0,0,.91,1.43,2,2,0,0,1,.43.83,1.87,1.87,0,0,1-.65,1.95,8.8,8.8,0,0,0-1.34,1.39,8.89,8.89,0,0,0-1.64,3.7,8.51,8.51,0,0,0,1.49,6.92,8.16,8.16,0,0,0,3.34,2.7,8.34,8.34,0,0,0,2.63.75A1.94,1.94,0,0,1,271,179a2.45,2.45,0,0,0,0,.27,8.26,8.26,0,0,0,1.05,4.66,9.2,9.2,0,0,0,3.62,3.55,8.82,8.82,0,0,0,4.34.93,8.37,8.37,0,0,0,4.75-1.58l.59-.44a1.76,1.76,0,0,1,1.06-.34,1.88,1.88,0,0,1,1.51.73,8.63,8.63,0,0,0,1.09,1.09,8.12,8.12,0,0,0,6.32,2,10,10,0,0,0,2.37-.56,7.78,7.78,0,0,0,2.2-1.18,7.94,7.94,0,0,0,2-2.26,9.65,9.65,0,0,0,1.34-3.82,1.84,1.84,0,0,1,.46-1,1.94,1.94,0,0,1,1.65-.66c.32,0,.64,0,1,0a8.69,8.69,0,0,0,8.33-7.15,8.54,8.54,0,0,0-1.36-6.51c-.15-.22-.32-.43-.47-.65a1.86,1.86,0,0,1,.24-2.41l.4-.37a8.5,8.5,0,0,0,2.48-4,9.45,9.45,0,0,0,.26-3.55,8.09,8.09,0,0,0-1.09-3.24,9.13,9.13,0,0,0-1.47-1.86,8.44,8.44,0,0,0-4.3-2.31l-.83-.13a1.77,1.77,0,0,1-1.06-.51,1.88,1.88,0,0,1-.59-1.57A8.88,8.88,0,0,0,305.81,141.25Zm-39.9-9.09c-.05-.07-.07-.13-.11-.18l-.52-.61-3-3.69L259.18,124l-3.28-4-3.49-4.23q-1.75-2.13-3.52-4.25l-3.27-4-3.32-4q-1.53-1.83-3.05-3.68l-3-3.63L232.77,92c-1.3-1.57-2.61-3.13-3.92-4.7a21.23,21.23,0,0,0-1.87-2c-.27-.24-.55-.45-.83-.67a1.85,1.85,0,0,0-.63-.31,1,1,0,0,0-.81.09l-.43.31a1.08,1.08,0,0,0-.43,1.09,2.86,2.86,0,0,0,.23.77,7,7,0,0,0,1,1.58c.27.32.55.62.82.93l1.88,2.27c1.07,1.29,2.14,2.59,3.22,3.88l3.48,4.19,3.49,4.19,3.22,3.88q1.74,2.1,3.49,4.19c1.06,1.29,2.13,2.57,3.2,3.86s2.34,2.81,3.5,4.22l3.66,4.39,3.88,4.68,4,4.79.5.58a1.93,1.93,0,0,0,.21-.13C264.37,133.43,265.14,132.82,265.91,132.16Zm-38.07-29.58c0,.07,0,.11.08.15.2.26.42.52.61.79s.55.76.79,1.16a2.25,2.25,0,0,1,.05,2.5,4.38,4.38,0,0,1-1.83,1.66,2.35,2.35,0,0,1-1.82.13,2.85,2.85,0,0,1-1.21-.88c-.14-.17-.28-.34-.43-.5a8,8,0,0,0-1-.94,2.14,2.14,0,0,0-1.08.82,1.52,1.52,0,0,0,.28.4l1,1.18,2.4,3a3,3,0,0,0,.4.4.51.51,0,0,0,.7,0l.35-.26,3-2.44c1.88-1.53,3.76-3,5.63-4.57a.49.49,0,0,0,.23-.24c-.06-.08-.1-.15-.16-.22L234.45,103l-3.27-3.93-3-3.6-3.27-3.94-1-1.15-.77-.88a.64.64,0,0,0-.15-.13l-.26.18-.84.65-2.86,2.21q-1.87,1.45-3.73,2.94a9.68,9.68,0,0,0-1.26,1.14,4.23,4.23,0,0,0-.32.42.34.34,0,0,0,0,.41l.1.14.79,1c.78,1,1.56,1.92,2.35,2.87.25.31.53.61.8.9a.68.68,0,0,0,.32.23,3.19,3.19,0,0,0,.75-.56.76.76,0,0,0,.24-.29c-.07-.12-.12-.24-.19-.35s-.22-.28-.32-.43c-.23-.31-.47-.62-.69-.94a3.84,3.84,0,0,1-.51-1,2.29,2.29,0,0,1,.08-1.76,3.68,3.68,0,0,1,.39-.63,4.72,4.72,0,0,1,1.68-1.39,2.29,2.29,0,0,1,2.84.52,6,6,0,0,1,.54.68l1,1.47a.87.87,0,0,0,.13.15,1.82,1.82,0,0,0,.25-.2l.65-.53a5,5,0,0,1,1-.65,1.94,1.94,0,0,1,2.14.2c.12.1.24.2.35.31a8.2,8.2,0,0,1,.93,1.1,2.43,2.43,0,0,1-.2,3.08,9.25,9.25,0,0,1-1,1Zm37.49,41.86L266,144a11,11,0,0,1,3-1.34,10.51,10.51,0,0,1,3.3-.39.43.43,0,0,0,.31,0c0-.1,0-.21.05-.32a10.42,10.42,0,0,1,2.73-5.55,1,1,0,0,0,.14-.2,13.17,13.17,0,0,1-1.46-1.43,1.37,1.37,0,0,0-.24-.18.29.29,0,0,0-.16,0s-.07,0-.11.08l-2.25,1.84-2.67,2.17-3.06,2.48-1.34,1.11a1.39,1.39,0,0,0-.21.21.21.21,0,0,0,0,.25,1,1,0,0,0,.08.14,10.12,10.12,0,0,0,.77,1C265,144.07,265.17,144.24,265.33,144.44Zm-1.71-7.38c.23.31.43.59.64.85a5.92,5.92,0,0,0,.66.82l.08,0,4.93-4v0s0,0,0,0a.35.35,0,0,0-.05-.08l-1.25-1.48a.43.43,0,0,0-.13-.09l-1.13.92c-1,.78-1.92,1.55-2.87,2.34a.65.65,0,0,0-.16.17A1.42,1.42,0,0,1,263.62,137.06Z"/><path class="cls-5" d="M305.81,141.25a8.88,8.88,0,0,1,1.06,4.9,1.88,1.88,0,0,0,.59,1.57,1.77,1.77,0,0,0,1.06.51l.83.13a8.44,8.44,0,0,1,4.3,2.31,9.13,9.13,0,0,1,1.47,1.86,8.09,8.09,0,0,1,1.09,3.24,9.45,9.45,0,0,1-.26,3.55,8.5,8.5,0,0,1-2.48,4l-.4.37a1.86,1.86,0,0,0-.24,2.41c.15.22.32.43.47.65a8.54,8.54,0,0,1,1.36,6.51,8.69,8.69,0,0,1-8.33,7.15c-.33,0-.65,0-1,0a1.94,1.94,0,0,0-1.65.66,1.84,1.84,0,0,0-.46,1,9.65,9.65,0,0,1-1.34,3.82,7.94,7.94,0,0,1-2,2.26,7.78,7.78,0,0,1-2.2,1.18,10,10,0,0,1-2.37.56,8.12,8.12,0,0,1-6.32-2,8.63,8.63,0,0,1-1.09-1.09,1.88,1.88,0,0,0-1.51-.73,1.76,1.76,0,0,0-1.06.34l-.59.44a8.37,8.37,0,0,1-4.75,1.58,8.82,8.82,0,0,1-4.34-.93,8.7,8.7,0,0,1-4.67-8.21,2.45,2.45,0,0,1,0-.27,1.94,1.94,0,0,0-1.72-2.13,8.34,8.34,0,0,1-2.63-.75,8.16,8.16,0,0,1-3.34-2.7,8.51,8.51,0,0,1-1.49-6.92,8.89,8.89,0,0,1,1.64-3.7,8.8,8.8,0,0,1,1.34-1.39,1.87,1.87,0,0,0,.65-1.95,2,2,0,0,0-.43-.83,7.88,7.88,0,0,1-.91-1.43,8.82,8.82,0,0,1,1.36-9.82,8.72,8.72,0,0,1,3-2.12,8.29,8.29,0,0,1,4.25-.68,1.91,1.91,0,0,0,2-1.24,3.86,3.86,0,0,0,.12-.59A8.16,8.16,0,0,1,277,138a9.09,9.09,0,0,1,3.21-2.24,7.56,7.56,0,0,1,2.9-.6,9.53,9.53,0,0,1,3.69.66,8,8,0,0,1,3.33,2.4,1.87,1.87,0,0,0,1,.67,1.82,1.82,0,0,0,1.65-.32,9.35,9.35,0,0,1,4.08-1.81,7.32,7.32,0,0,1,3.09.12,10,10,0,0,1,3.62,1.74,8.05,8.05,0,0,1,1.88,2.07Zm-23,43.79c.25-.18.58-.39.88-.63a5.92,5.92,0,0,0,1.89-2.63,1.66,1.66,0,0,0,.1-.59c0-.14,0-.29,0-.43a1.84,1.84,0,0,0-.4-1.28,3,3,0,0,0-.3-.32,3.07,3.07,0,0,1-.78-1.26,3.34,3.34,0,0,1,3.39-4.41,3.3,3.3,0,0,1,2.85,4.6,3.73,3.73,0,0,1-1.05,1.37l-.29.22a1.72,1.72,0,0,0-.78,1.34,3.13,3.13,0,0,0,.07,1.1,7.14,7.14,0,0,0,1.94,3.48,5.89,5.89,0,0,0,2.54,1.51,6.48,6.48,0,0,0,5.18-.85,6.09,6.09,0,0,0,2.24-2.73,6.16,6.16,0,0,0-.87-6.28c-.34-.45-.71-.88-1.07-1.32l-2.9-3.55-2.66-3.27c-.69-.84-1.37-1.7-2.07-2.53a3.05,3.05,0,0,0-4.22-.39l-4.17,3.4-3.17,2.61c-.83.68-1.67,1.35-2.49,2-.41.34-.83.67-1.22,1a6.16,6.16,0,0,0-1.25,7.09,5.9,5.9,0,0,0,2.79,2.83A6.26,6.26,0,0,0,282.78,185Zm-14.69-22.73a9.48,9.48,0,0,0-2.22,1.71,6,6,0,0,0-1.36,2.32,5.76,5.76,0,0,0-.18,3.16,6.39,6.39,0,0,0,1.16,2.42,6,6,0,0,0,4.12,2.37,5.79,5.79,0,0,0,4.21-1.07c.88-.64,1.71-1.33,2.55-2,1-.84,2-1.7,3.06-2.54,1.44-1.19,2.9-2.37,4.35-3.55.43-.35.86-.71,1.27-1.08a2.91,2.91,0,0,0,.4-3.89c-.46-.6-.93-1.19-1.41-1.78l-3.24-4c-1.26-1.56-2.53-3.11-3.8-4.67a9.47,9.47,0,0,0-1.2-1.25,5.67,5.67,0,0,0-4.06-1.33,7.43,7.43,0,0,0-2,.43,6,6,0,0,0-1.74,1,5.75,5.75,0,0,0-1.69,2.33,6.18,6.18,0,0,0,3.3,8.14,2.29,2.29,0,0,0,.74.18l.5,0a1.93,1.93,0,0,0,1.41-.52l.29-.27a2.92,2.92,0,0,1,1.53-.78,3.63,3.63,0,0,1,2.72.67,3,3,0,0,1,.67.7,3.3,3.3,0,0,1,.12,3.66,3.18,3.18,0,0,1-4.26,1.25,4,4,0,0,1-.8-.54,6.83,6.83,0,0,1-.73-.79,2.08,2.08,0,0,0-1.36-.78,2.92,2.92,0,0,0-1.06.06A5.25,5.25,0,0,0,268.09,162.31Zm35.55-19.69a6.06,6.06,0,0,0-1.63-2,6.26,6.26,0,0,0-4.88-1.28,5.33,5.33,0,0,0-2.67,1.15,6.49,6.49,0,0,0-1.58,1.88,3.6,3.6,0,0,0-.41,2.36,1.84,1.84,0,0,0,.57,1.11,3,3,0,0,1,.79,1.26,3.33,3.33,0,1,1-6.31,2.1,2.89,2.89,0,0,1,.43-2.79,4.6,4.6,0,0,1,.45-.54c.23-.25.48-.49.73-.73a2.59,2.59,0,0,0,.78-2.47,3.93,3.93,0,0,0-.42-1.16,8,8,0,0,0-2.43-2.67,6.13,6.13,0,0,0-9.54,3.47,5.63,5.63,0,0,0,.5,4.31,10,10,0,0,0,1,1.48l4.19,5.22c1.14,1.41,2.29,2.81,3.44,4.22.28.33.54.68.85,1a2.8,2.8,0,0,0,2.85.8,3.21,3.21,0,0,0,1.31-.7c1.71-1.42,3.46-2.77,5.14-4.22,1-.83,2-1.6,3-2.41.84-.68,1.68-1.36,2.5-2.06a5.52,5.52,0,0,0,1.77-2.7A6.14,6.14,0,0,0,303.64,142.62Zm9.28,11.25c-.12-.17-.29-.44-.48-.7a5.86,5.86,0,0,0-3.89-2.33,6,6,0,0,0-4.2.82c-.32.2-.61.45-.91.68l-2.72,2.22L297.8,157l-3.58,2.92c-.37.3-.75.59-1.11.91a3,3,0,0,0-1,2.5,3.13,3.13,0,0,0,.7,1.71c.33.42.67.83,1,1.25l3.14,3.86,3.44,4.23c.43.53.85,1.06,1.31,1.56a5.72,5.72,0,0,0,4.69,1.94,6.15,6.15,0,0,0,5.9-6.55,5.88,5.88,0,0,0-.88-2.85,6.78,6.78,0,0,0-1.79-1.87,3.05,3.05,0,0,0-.74-.38,4.77,4.77,0,0,0-1.94-.28,3.55,3.55,0,0,0-.47.06,1.49,1.49,0,0,0-.74.42,3.22,3.22,0,0,1-1.54.9A3.32,3.32,0,0,1,300,164.5a3.19,3.19,0,0,1,1.14-3,3.41,3.41,0,0,1,1.27-.65,3.2,3.2,0,0,1,3.64,1.38,1.69,1.69,0,0,0,.77.66,5.47,5.47,0,0,0,1,.32,2,2,0,0,0,.9,0,3.61,3.61,0,0,0,.94-.42,8.65,8.65,0,0,0,1.37-1,10.75,10.75,0,0,0,1.76-1.87,3.6,3.6,0,0,0,.56-1.06A6.22,6.22,0,0,0,312.92,153.87Z"/><path class="cls-5" d="M265.91,132.16c-.77.66-1.54,1.27-2.31,1.89a1.93,1.93,0,0,1-.21.13l-.5-.58-4-4.79L255,124.13l-3.66-4.39q-1.74-2.11-3.5-4.22c-1.07-1.29-2.14-2.57-3.2-3.86s-2.33-2.79-3.49-4.19L238,103.59l-3.49-4.19L231,95.21c-1.08-1.29-2.15-2.59-3.22-3.88l-1.88-2.27c-.27-.31-.55-.61-.82-.93a7,7,0,0,1-1-1.58,2.86,2.86,0,0,1-.23-.77,1.08,1.08,0,0,1,.43-1.09l.43-.31a1,1,0,0,1,.81-.09,1.85,1.85,0,0,1,.63.31c.28.22.56.43.83.67a21.23,21.23,0,0,1,1.87,2c1.31,1.57,2.62,3.13,3.92,4.7l3.47,4.2,3,3.63q1.51,1.84,3.05,3.68l3.32,4,3.27,4q1.77,2.12,3.52,4.25L255.9,120l3.28,4,3.06,3.71,3,3.69.52.61C265.84,132,265.86,132.09,265.91,132.16Z"/><path class="cls-5" d="M227.84,102.58l.41-.33a9.25,9.25,0,0,0,1-1,2.43,2.43,0,0,0,.2-3.08,8.2,8.2,0,0,0-.93-1.1c-.11-.11-.23-.21-.35-.31a1.94,1.94,0,0,0-2.14-.2,5,5,0,0,0-1,.65l-.65.53a1.82,1.82,0,0,1-.25.2.87.87,0,0,1-.13-.15l-1-1.47a6,6,0,0,0-.54-.68,2.29,2.29,0,0,0-2.84-.52,4.72,4.72,0,0,0-1.68,1.39,3.68,3.68,0,0,0-.39.63,2.29,2.29,0,0,0-.08,1.76,3.84,3.84,0,0,0,.51,1c.22.32.46.63.69.94.1.15.22.29.32.43s.12.23.19.35a.76.76,0,0,1-.24.29,3.19,3.19,0,0,1-.75.56.68.68,0,0,1-.32-.23c-.27-.29-.55-.59-.8-.9-.79-1-1.57-1.91-2.35-2.87l-.79-1-.1-.14a.34.34,0,0,1,0-.41,4.23,4.23,0,0,1,.32-.42,9.68,9.68,0,0,1,1.26-1.14q1.86-1.48,3.73-2.94l2.86-2.21.84-.65.26-.18a.64.64,0,0,1,.15.13l.77.88,1,1.15,3.27,3.94,3,3.6,3.27,3.93,1.39,1.67c.06.07.1.14.16.22a.49.49,0,0,1-.23.24c-1.87,1.53-3.75,3-5.63,4.57l-3,2.44-.35.26a.51.51,0,0,1-.7,0,3,3,0,0,1-.4-.4l-2.4-3-1-1.18a1.52,1.52,0,0,1-.28-.4,2.14,2.14,0,0,1,1.08-.82,8,8,0,0,1,1,.94c.15.16.29.33.43.5a2.85,2.85,0,0,0,1.21.88,2.35,2.35,0,0,0,1.82-.13,4.38,4.38,0,0,0,1.83-1.66,2.25,2.25,0,0,0-.05-2.5c-.24-.4-.51-.78-.79-1.16s-.41-.53-.61-.79C227.89,102.69,227.88,102.65,227.84,102.58Z"/><path class="cls-5" d="M265.33,144.44c-.16-.2-.31-.37-.45-.56a10.12,10.12,0,0,1-.77-1,1,1,0,0,1-.08-.14.21.21,0,0,1,0-.25,1.39,1.39,0,0,1,.21-.21l1.34-1.11,3.06-2.48,2.67-2.17,2.25-1.84s.07-.07.11-.08a.29.29,0,0,1,.16,0,1.37,1.37,0,0,1,.24.18,13.17,13.17,0,0,0,1.46,1.43,1,1,0,0,1-.14.2,10.42,10.42,0,0,0-2.73,5.55c0,.11,0,.22-.05.32a.43.43,0,0,1-.31,0,10.51,10.51,0,0,0-3.3.39,11,11,0,0,0-3,1.34Z"/><path class="cls-5" d="M263.62,137.06a1.42,1.42,0,0,0,.74-.66.65.65,0,0,1,.16-.17c1-.79,1.91-1.56,2.87-2.34l1.13-.92a.43.43,0,0,1,.13.09l1.25,1.48a.35.35,0,0,1,.05.08s0,0,0,0v0l-4.93,4-.08,0a5.92,5.92,0,0,1-.66-.82C264.05,137.65,263.85,137.37,263.62,137.06Z"/><path class="cls-1" d="M304.35,151.66c-.32.2-.61.45-.91.68l-2.72,2.22L297.8,157l-3.58,2.92c-.37.3-.75.59-1.11.91a3,3,0,0,0-1,2.5,3.13,3.13,0,0,0,.7,1.71c.33.42.67.83,1,1.25l3.14,3.86,3.44,4.23c.43.53.85,1.06,1.31,1.56a5.72,5.72,0,0,0,4.69,1.94,6.15,6.15,0,0,0,5.9-6.55,5.88,5.88,0,0,0-.88-2.85,6.78,6.78,0,0,0-1.79-1.87,3.05,3.05,0,0,0-.74-.38,4.77,4.77,0,0,0-1.94-.28,3.55,3.55,0,0,0-.47.06,1.49,1.49,0,0,0-.74.42,3.22,3.22,0,0,1-1.54.9A3.32,3.32,0,0,1,300,164.5a3.19,3.19,0,0,1,1.14-3,3.41,3.41,0,0,1,1.27-.65,3.2,3.2,0,0,1,3.64,1.38,1.69,1.69,0,0,0,.77.66,5.47,5.47,0,0,0,1,.32,2,2,0,0,0,.9,0,3.61,3.61,0,0,0,.94-.42,8.65,8.65,0,0,0,1.37-1,10.75,10.75,0,0,0,1.76-1.87,3.6,3.6,0,0,0,.56-1.06,6.22,6.22,0,0,0-.49-5c-.12-.17-.29-.44-.48-.7a5.86,5.86,0,0,0-3.89-2.33A6,6,0,0,0,304.35,151.66Zm6.84,3.25a4.11,4.11,0,0,1,.36,3,2.43,2.43,0,0,1-.49,1,10.09,10.09,0,0,1-1.58,1.56,8,8,0,0,1-.87.62h0a.74.74,0,0,1-1.06-.24,5.17,5.17,0,0,0-5.91-1.85,5.1,5.1,0,0,0-2.9,2.26,5.34,5.34,0,0,0,7.94,6.91,2.21,2.21,0,0,1,.28-.21.88.88,0,0,1,.59,0,2,2,0,0,1,1.09.46,5.65,5.65,0,0,1,1,1.09,4.25,4.25,0,0,1,.05,4.29,4,4,0,0,1-2.88,2,4.5,4.5,0,0,1-.63.07,3.57,3.57,0,0,1-2.83-1.08,10.31,10.31,0,0,1-.84-.94l-3.67-4.5-1.93-2.37-2.49-3.06a2.13,2.13,0,0,1-.26-.4.84.84,0,0,1,.07-1,2.62,2.62,0,0,1,.37-.38l.58-.47,9.46-7.73c.22-.17.43-.35.66-.5l.31-.19a4,4,0,0,1,2.87-.36A3.94,3.94,0,0,1,311.19,154.91ZM277,185.19a6.26,6.26,0,0,0,5.81-.15c.25-.18.58-.39.88-.63a5.92,5.92,0,0,0,1.89-2.63,1.66,1.66,0,0,0,.1-.59c0-.14,0-.29,0-.43a1.84,1.84,0,0,0-.4-1.28,3,3,0,0,0-.3-.32,3.07,3.07,0,0,1-.78-1.26,3.34,3.34,0,0,1,3.39-4.41,3.3,3.3,0,0,1,2.85,4.6,3.73,3.73,0,0,1-1.05,1.37l-.29.22a1.72,1.72,0,0,0-.78,1.34,3.13,3.13,0,0,0,.07,1.1,7.14,7.14,0,0,0,1.94,3.48,5.89,5.89,0,0,0,2.54,1.51,6.48,6.48,0,0,0,5.18-.85,6.09,6.09,0,0,0,2.24-2.73,6.16,6.16,0,0,0-.87-6.28c-.34-.45-.71-.88-1.07-1.32l-2.9-3.55-2.66-3.27c-.69-.84-1.37-1.7-2.07-2.53a3.05,3.05,0,0,0-4.22-.39l-4.17,3.4-3.17,2.61c-.83.68-1.67,1.35-2.49,2-.41.34-.83.67-1.22,1a6.16,6.16,0,0,0-1.25,7.09A5.9,5.9,0,0,0,277,185.19Zm-.8-3.36a4.14,4.14,0,0,1-.48-3.28,4.24,4.24,0,0,1,1.46-2.22c.29-.25.59-.49.89-.73l9.67-7.9.16-.1a1,1,0,0,1,1.27.23c.18.2.35.4.52.61l8,9.83a4.25,4.25,0,0,1-.64,6.17,4,4,0,0,1-5.53-.52,5.17,5.17,0,0,1-1.17-2.15c0-.07,0-.15-.05-.24l0-.11a.27.27,0,0,1,.09-.25l.3-.26a5.31,5.31,0,0,0-4.61-9.32,5.74,5.74,0,0,0-1.36.53,5.34,5.34,0,0,0-2.48,6.23,4.83,4.83,0,0,0,1.15,2,.83.83,0,0,1,.15,1,3.87,3.87,0,0,1-1.05,1.38,4.18,4.18,0,0,1-3.65,1A4.12,4.12,0,0,1,276.17,181.83Zm-2.35-8.61c.88-.64,1.71-1.33,2.55-2,1-.84,2-1.7,3.06-2.54,1.44-1.19,2.9-2.37,4.35-3.55.43-.35.86-.71,1.27-1.08a2.91,2.91,0,0,0,.4-3.89c-.46-.6-.93-1.19-1.41-1.78l-3.24-4c-1.26-1.56-2.53-3.11-3.8-4.67a9.47,9.47,0,0,0-1.2-1.25,5.67,5.67,0,0,0-4.06-1.33,7.43,7.43,0,0,0-2,.43,6,6,0,0,0-1.74,1,5.75,5.75,0,0,0-1.69,2.33,6.18,6.18,0,0,0,3.3,8.14,2.29,2.29,0,0,0,.74.18l.5,0a1.93,1.93,0,0,0,1.41-.52l.29-.27a2.92,2.92,0,0,1,1.53-.78,3.63,3.63,0,0,1,2.72.67,3,3,0,0,1,.67.7,3.3,3.3,0,0,1,.12,3.66,3.18,3.18,0,0,1-4.26,1.25,4,4,0,0,1-.8-.54,6.83,6.83,0,0,1-.73-.79,2.08,2.08,0,0,0-1.36-.78,2.92,2.92,0,0,0-1.06.06,5.25,5.25,0,0,0-1.26.5,9.48,9.48,0,0,0-2.22,1.71,6,6,0,0,0-1.36,2.32,5.76,5.76,0,0,0-.18,3.16,6.39,6.39,0,0,0,1.16,2.42,6,6,0,0,0,4.12,2.37A5.79,5.79,0,0,0,273.82,173.22Zm-6.57-2.33a4.64,4.64,0,0,1-.95-1.68,3.87,3.87,0,0,1,.05-2.23,4.4,4.4,0,0,1,1.36-2,7.64,7.64,0,0,1,1.05-.8,3.19,3.19,0,0,1,1.19-.47.24.24,0,0,1,.24.08l.16.19.31.35a5.87,5.87,0,0,0,2.19,1.52,5.1,5.1,0,0,0,3.59.07,6,6,0,0,0,.82-.36,5.44,5.44,0,0,0,2.55-6.2,5.43,5.43,0,0,0-6.93-3.56,5.47,5.47,0,0,0-1.7,1,1,1,0,0,1-.25.22.84.84,0,0,1-.77,0,4.16,4.16,0,0,1-1.9-1.76,4,4,0,0,1-.43-2.77,5.17,5.17,0,0,1,.45-1.29,3.52,3.52,0,0,1,1.49-1.54,3,3,0,0,1,.6-.27,5.57,5.57,0,0,1,1.54-.32,3.65,3.65,0,0,1,2.5.82,6.81,6.81,0,0,1,1.08,1.12c1.34,1.65,2.69,3.3,4,5l2.65,3.3,1.57,2a1,1,0,0,1,.22.79.94.94,0,0,1-.35.58l-.39.33-.55.46-1.75,1.43c-.95.78-1.91,1.55-2.86,2.34-.49.39-1,.8-1.45,1.2L275,169.63c-.87.72-1.59,1.29-2.25,1.8A4.08,4.08,0,0,1,267.25,170.89Zm23.13-11.55a3.21,3.21,0,0,0,1.31-.7c1.71-1.42,3.46-2.77,5.14-4.22,1-.83,2-1.6,3-2.41.84-.68,1.68-1.36,2.5-2.06a5.52,5.52,0,0,0,1.77-2.7,6.14,6.14,0,0,0-.42-4.63,6.06,6.06,0,0,0-1.63-2,6.26,6.26,0,0,0-4.88-1.28,5.33,5.33,0,0,0-2.67,1.15,6.49,6.49,0,0,0-1.58,1.88,3.6,3.6,0,0,0-.41,2.36,1.84,1.84,0,0,0,.57,1.11,3,3,0,0,1,.79,1.26,3.33,3.33,0,1,1-6.31,2.1,2.89,2.89,0,0,1,.43-2.79,4.6,4.6,0,0,1,.45-.54c.23-.25.48-.49.73-.73a2.59,2.59,0,0,0,.78-2.47,3.93,3.93,0,0,0-.42-1.16,8,8,0,0,0-2.43-2.67,6.13,6.13,0,0,0-9.54,3.47,5.63,5.63,0,0,0,.5,4.31,10,10,0,0,0,1,1.48l4.19,5.22c1.14,1.41,2.29,2.81,3.44,4.22.28.33.54.68.85,1A2.8,2.8,0,0,0,290.38,159.34ZM288.81,157c-.21-.24-.42-.49-.62-.74l-1.31-1.61L284,151.07l-3.62-4.51c-.15-.19-.28-.39-.42-.59l-.18-.27a3.81,3.81,0,0,1-.27-3.21,4.32,4.32,0,0,1,1.16-1.81,4.73,4.73,0,0,1,.79-.56,4.12,4.12,0,0,1,4.05.08,6.4,6.4,0,0,1,1.7,1.49,3.86,3.86,0,0,1,.54.84,2.83,2.83,0,0,1,.14.41.69.69,0,0,1-.21.74c-.28.26-.56.54-.82.82a6.87,6.87,0,0,0-.84,1.09,4.82,4.82,0,0,0-.55,3.8,5.31,5.31,0,0,0,6.62,3.86,5.26,5.26,0,0,0,1.13-.46,5.38,5.38,0,0,0,2.54-6.22,4.85,4.85,0,0,0-1.06-1.89,1,1,0,0,1-.18-1.2,4.08,4.08,0,0,1,1.63-1.8l.06,0a3,3,0,0,1,1-.35,4.3,4.3,0,0,1,3.67,1,4.18,4.18,0,0,1,1.23,4.36,3.73,3.73,0,0,1-1.18,1.77c-.64.54-1.29,1.07-1.94,1.6l-1.13.91c-.74.59-1.48,1.19-2.21,1.81-1,.84-2,1.68-3,2.48l-2,1.65-.32.26A1,1,0,0,1,288.81,157Z"/></g><g id="Tickets"><path class="cls-4" d="M638.42,187.18c0-.15.05-.3.07-.45a.43.43,0,0,0,.09-.1,1.55,1.55,0,0,1,1-.86,2.58,2.58,0,0,0,.78-.47,2.72,2.72,0,0,0,.79-1.48,4.47,4.47,0,0,0,.06-1.46,1.53,1.53,0,0,1,.91-1.61l.25-.11,14.29-6.21.19-.09a1.55,1.55,0,0,0,0-.23c-.21-1-.43-1.91-.65-2.87a1.53,1.53,0,0,1,.77-1.75,2.76,2.76,0,0,0,.57-.45,2.69,2.69,0,0,0,.65-1.25,5.6,5.6,0,0,0,.13-2,1.53,1.53,0,0,1,1.08-1.64l1.47-.45a1.47,1.47,0,0,1,1,0l.23.08.14-.17a1.39,1.39,0,0,1,.68-.49l1.17-.37a1.41,1.41,0,0,1,.93,0l.4.18a1.53,1.53,0,0,1,.9-.57l1.13-.25a1.19,1.19,0,0,1,.62,0l.56.18a1.11,1.11,0,0,1,.61-.61,2.85,2.85,0,0,1,.31-.12l1.11-.34a1.32,1.32,0,0,1,.81,0,6.48,6.48,0,0,1,.62.27l.11-.15a1.4,1.4,0,0,1,.71-.51c.35-.12.7-.25,1.06-.36a1.51,1.51,0,0,1,1.36.24l.16.11a1.8,1.8,0,0,1,1.3-.77c.51-.09,1-.21,1.51-.32l.49.08,0,0a1.74,1.74,0,0,1,.92.93,5,5,0,0,0,2.92,2.55,7.43,7.43,0,0,1,.82.34,1.58,1.58,0,0,1,.84,1l.27,1c1.12,4.37,2.16,8.75,3.17,13.15.5,2.16,1,4.32,1.44,6.49a3.12,3.12,0,0,0,.24.77,1.47,1.47,0,0,1,.13.66,1.63,1.63,0,0,0,0,.31c.32,1.41.66,2.82,1,4.24.42,1.9.82,3.8,1.22,5.71a12,12,0,0,1,.26,1.88c0,.12,0,.23,0,.35l-.09.49a1.36,1.36,0,0,1-.66.68l0,0a6.61,6.61,0,0,0-1.12.92,3.57,3.57,0,0,0-.6.89,1.64,1.64,0,0,0-.07,1.27,1.5,1.5,0,0,1-1,1.92l-1.2.33a1.23,1.23,0,0,1-.66,0,5.53,5.53,0,0,1-.61-.21l-.11.15a1.46,1.46,0,0,1-.75.56q-.57.19-1.17.36a1.46,1.46,0,0,1-1.08-.12l-.16-.08,0,0,0,0a1.54,1.54,0,0,1-.87.63l-1.07.35a1.49,1.49,0,0,1-1.22-.13l-.15-.07a1.56,1.56,0,0,1-.68.54l-1.29.51a1.41,1.41,0,0,1-1,0l-.41-.19a1.91,1.91,0,0,1-.92.51L674,209a1.4,1.4,0,0,1-.73.08l-.41-.07a1.52,1.52,0,0,1-1,.64c-.53.14-1.07.27-1.61.39a1.42,1.42,0,0,1-.91-.08,1.5,1.5,0,0,1-.93-1.16,2.39,2.39,0,0,0-1.38-1.84,4.22,4.22,0,0,0-1.63-.45,1.6,1.6,0,0,1-1.5-1.29c-.13-.65-.29-1.29-.44-1.94a1,1,0,0,1-.05-.2l-.9.39-7,3a10.67,10.67,0,0,1-2.46.78l-.57-.1a3.12,3.12,0,0,1-.91-.7,5,5,0,0,0-1-.8,2.59,2.59,0,0,0-1.14-.39,1.41,1.41,0,0,0-.88.18,1.5,1.5,0,0,1-2.15-.61c-.19-.37-.36-.73-.53-1.1a1.47,1.47,0,0,1-.08-1.09l.06-.18,0,0-.13-.06a1.51,1.51,0,0,1-.73-.68l-.52-1a1.49,1.49,0,0,1-.14-.95c0-.1,0-.2,0-.31l0,0a1.54,1.54,0,0,1-.69-.67q-.33-.58-.63-1.17a1.44,1.44,0,0,1-.08-1.15,1,1,0,0,0,0-.18,1.54,1.54,0,0,1-.62-.54c-.26-.4-.52-.8-.76-1.21a1.44,1.44,0,0,1-.12-1.28c0-.06,0-.12,0-.14a5.76,5.76,0,0,1-.48-.56c-.24-.36-.44-.74-.66-1.11a1.53,1.53,0,0,1-.19-1l0-.18-.06,0a1.58,1.58,0,0,1-.86-.9c-.16-.37-.32-.74-.49-1.1a2.11,2.11,0,0,1-.24-.81S638.43,187.22,638.42,187.18Zm39.26-24.85-.24,0a.45.45,0,0,0-.35.22,2.72,2.72,0,0,1-.67.64,1.7,1.7,0,0,1-1.71.16c-.24-.1-.46-.25-.7-.38,0,0,0,.07-.06.11a.77.77,0,0,1-.07.16,1.79,1.79,0,0,1-1.66,1,2.33,2.33,0,0,1-1.35-.45l-.18-.12a2.09,2.09,0,0,1-1.48,1.28,2.31,2.31,0,0,1-1.93-.47l-.11.21a1.94,1.94,0,0,1-.77.9,1.83,1.83,0,0,1-2.13-.19l-.2-.15c0,.06,0,.11-.05.15a2,2,0,0,1-1.81,1.33.66.66,0,0,1-.2,0,1.75,1.75,0,0,1-1-.53c-.13-.12-.13-.12-.3,0a.34.34,0,0,0,0,.1,7.4,7.4,0,0,1-.37,2.47,4.9,4.9,0,0,1-1.6,2.37l-.13.11q3.79,16.43,7.57,32.83l.16,0a7.63,7.63,0,0,1,1.54.48,4.87,4.87,0,0,1,2.59,2.48l.06.1c0-.06,0-.09,0-.12a1.69,1.69,0,0,1,1.62-1.17,2.31,2.31,0,0,1,1.38.44l.18.12a1.85,1.85,0,0,1,1.46-1.37,1.81,1.81,0,0,1,1.87.66c0-.13.08-.25.13-.35a1.71,1.71,0,0,1,2-1.08,2.65,2.65,0,0,1,1,.48l.16.12c0-.08,0-.14.07-.21a1.81,1.81,0,0,1,1.66-1.25,2.38,2.38,0,0,1,1.48.54l.17.12c0-.06,0-.1.06-.14a4.44,4.44,0,0,1,.28-.53,1.62,1.62,0,0,1,1.47-.74,2.35,2.35,0,0,1,1.06.33l.2.1c0-.06,0-.09,0-.12a4.3,4.3,0,0,1,.54-2.13,6.23,6.23,0,0,1,1.82-2,.53.53,0,0,0,.24-.62c-.35-1.62-.66-3.25-1-4.87-.84-3.91-1.78-7.8-2.63-11.72-1.12-5.21-2.42-10.37-3.71-15.54a.71.71,0,0,0-.53-.58,7.2,7.2,0,0,1-3.51-2.69ZM662.5,199l-.21.08-2,.85c-1.73.74-3.46,1.47-5.14,2.32a3.67,3.67,0,0,1-.65.26,3,3,0,0,1-3.19-.84,3.78,3.78,0,0,1-.7-1c-1.14-2.44-2.29-4.86-3.41-7.31-.78-1.69-1.52-3.41-2.26-5.12a5.66,5.66,0,0,1-.36-1.05,3.24,3.24,0,0,1,1.33-3.55,5,5,0,0,1,1.21-.63l.25-.09,10.21-4.6.16-.09c-.11-.49-.22-1-.34-1.47l-13.74,6a5.61,5.61,0,0,1-2.28,4.85l.17,0a1.67,1.67,0,0,1,1.29,1,2,2,0,0,1,0,1.76c0,.09-.08.17-.12.28a1.91,1.91,0,0,1,1.29,3.15l.29.05a1.78,1.78,0,0,1,1.41,2.43c-.07.2-.17.39-.26.59a5.69,5.69,0,0,1,.59.16,1.78,1.78,0,0,1,1.2,1.66,2.38,2.38,0,0,1-.29,1.13,1.91,1.91,0,0,0-.13.25l.35.06a1.76,1.76,0,0,1,1.4,1.56,2.33,2.33,0,0,1-.12.91c0,.1-.07.19-.1.3l.13,0a4.42,4.42,0,0,1,2.25.18,6.25,6.25,0,0,1,2.11,1.24c.15.12.29.26.45.4,3.25-1.22,6.42-2.64,9.62-4C662.75,200.09,662.63,199.56,662.5,199Zm-10.59-15.93,7,15.22L662,197q-1.92-8.37-3.85-16.73Zm-1.63.74-.21.09-1.8.81c-.16.08-.34.14-.51.21a2.41,2.41,0,0,0-.93.57,1.05,1.05,0,0,0-.34,1,2.74,2.74,0,0,0,.15.58c.12.35.26.7.41,1,1,2.13,1.9,4.25,2.87,6.37.81,1.76,1.64,3.5,2.46,5.25a2,2,0,0,0,.45.63,1,1,0,0,0,1,.25,2.54,2.54,0,0,0,.46-.17l2.8-1.32.2-.1Z"/><path class="cls-5" d="M677.68,162.33l.35.53a7.2,7.2,0,0,0,3.51,2.69.71.71,0,0,1,.53.58c1.29,5.17,2.59,10.33,3.71,15.54.85,3.92,1.79,7.81,2.63,11.72.35,1.62.66,3.25,1,4.87a.53.53,0,0,1-.24.62,6.23,6.23,0,0,0-1.82,2,4.3,4.3,0,0,0-.54,2.13s0,.06,0,.12l-.2-.1a2.35,2.35,0,0,0-1.06-.33,1.62,1.62,0,0,0-1.47.74,4.44,4.44,0,0,0-.28.53s0,.08-.06.14l-.17-.12a2.38,2.38,0,0,0-1.48-.54,1.81,1.81,0,0,0-1.66,1.25c0,.07,0,.13-.07.21l-.16-.12a2.65,2.65,0,0,0-1-.48,1.71,1.71,0,0,0-2,1.08c-.05.1-.08.22-.13.35a1.81,1.81,0,0,0-1.87-.66,1.85,1.85,0,0,0-1.46,1.37l-.18-.12a2.31,2.31,0,0,0-1.38-.44,1.69,1.69,0,0,0-1.62,1.17s0,.06,0,.12l-.06-.1a4.87,4.87,0,0,0-2.59-2.48,7.63,7.63,0,0,0-1.54-.48l-.16,0q-3.78-16.41-7.57-32.83l.13-.11a4.9,4.9,0,0,0,1.6-2.37,7.4,7.4,0,0,0,.37-2.47.34.34,0,0,1,0-.1c.17-.08.17-.08.3,0a1.75,1.75,0,0,0,1,.53.66.66,0,0,0,.2,0,2,2,0,0,0,1.81-1.33s0-.09.05-.15l.2.15a1.83,1.83,0,0,0,2.13.19,1.94,1.94,0,0,0,.77-.9l.11-.21a2.31,2.31,0,0,0,1.93.47,2.09,2.09,0,0,0,1.48-1.28l.18.12a2.33,2.33,0,0,0,1.35.45,1.79,1.79,0,0,0,1.66-1,.77.77,0,0,0,.07-.16s0-.08.06-.11c.24.13.46.28.7.38a1.7,1.7,0,0,0,1.71-.16,2.72,2.72,0,0,0,.67-.64.45.45,0,0,1,.35-.22Zm9.85,35.91a3.93,3.93,0,0,0-.06-1.84c-.07-.27-.15-.53-.22-.8-.59-2.14-1-4.31-1.52-6.48-.22-1.05-.42-2.11-.66-3.16-.51-2.24-1.05-4.48-1.56-6.72-.79-3.41-1.55-6.83-2.33-10.24-.13-.55-.26-1.09-.43-1.62a2.41,2.41,0,0,0-1.49-1.62,3.68,3.68,0,0,0-1.22-.21,9.25,9.25,0,0,0-2.16.26L666,168.2l-2.48.58a3.62,3.62,0,0,0-2.85,3,6,6,0,0,0,.06,2.27c.39,1.76.76,3.52,1.18,5.28q2.54,10.53,5.1,21.06a2.83,2.83,0,0,1,.08.4,4.3,4.3,0,0,0,.5,1.49A3.17,3.17,0,0,0,670,204a3.62,3.62,0,0,0,1.27-.05c.82-.17,1.64-.34,2.45-.53,3.81-.9,7.59-1.89,11.37-2.9a3.45,3.45,0,0,0,1.4-.74A2.86,2.86,0,0,0,687.53,198.24Z"/><path class="cls-5" d="M662.5,199c.13.56.25,1.09.38,1.64-3.2,1.37-6.37,2.79-9.62,4-.16-.14-.3-.28-.45-.4A6.25,6.25,0,0,0,650.7,203a4.42,4.42,0,0,0-2.25-.18l-.13,0c0-.11.07-.2.1-.3a2.33,2.33,0,0,0,.12-.91,1.76,1.76,0,0,0-1.4-1.56l-.35-.06a1.91,1.91,0,0,1,.13-.25,2.38,2.38,0,0,0,.29-1.13A1.78,1.78,0,0,0,646,197a5.69,5.69,0,0,0-.59-.16c.09-.2.19-.39.26-.59a1.78,1.78,0,0,0-1.41-2.43l-.29-.05a1.91,1.91,0,0,0-1.29-3.15c0-.11.08-.19.12-.28a2,2,0,0,0,0-1.76,1.67,1.67,0,0,0-1.29-1l-.17,0a5.61,5.61,0,0,0,2.28-4.85l13.74-6c.12.51.23,1,.34,1.47l-.16.09-10.21,4.6-.25.09a5,5,0,0,0-1.21.63,3.24,3.24,0,0,0-1.33,3.55,5.66,5.66,0,0,0,.36,1.05c.74,1.71,1.48,3.43,2.26,5.12,1.12,2.45,2.27,4.87,3.41,7.31a3.78,3.78,0,0,0,.7,1,3,3,0,0,0,3.19.84,3.67,3.67,0,0,0,.65-.26c1.68-.85,3.41-1.58,5.14-2.32l2-.85Z"/><path class="cls-5" d="M651.91,183.07l6.27-2.82Q660.1,188.62,662,197l-3.13,1.31Z"/><path class="cls-3" d="M650.28,183.81l7,15.18-.2.1-2.8,1.32a2.54,2.54,0,0,1-.46.17,1,1,0,0,1-1-.25,2,2,0,0,1-.45-.63c-.82-1.75-1.65-3.49-2.46-5.25-1-2.12-1.92-4.24-2.87-6.37-.15-.34-.29-.69-.41-1a2.74,2.74,0,0,1-.15-.58,1.05,1.05,0,0,1,.34-1,2.41,2.41,0,0,1,.93-.57c.17-.07.35-.13.51-.21l1.8-.81Z"/><path class="cls-4" d="M687.53,198.24a2.86,2.86,0,0,1-1,1.54,3.45,3.45,0,0,1-1.4.74c-3.78,1-7.56,2-11.37,2.9-.81.19-1.63.36-2.45.53A3.62,3.62,0,0,1,670,204a3.17,3.17,0,0,1-2.48-1.74,4.3,4.3,0,0,1-.5-1.49,2.83,2.83,0,0,0-.08-.4q-2.55-10.53-5.1-21.06c-.42-1.76-.79-3.52-1.18-5.28a6,6,0,0,1-.06-2.27,3.62,3.62,0,0,1,2.85-3l2.48-.58,9.91-2.39a9.25,9.25,0,0,1,2.16-.26,3.68,3.68,0,0,1,1.22.21,2.41,2.41,0,0,1,1.49,1.62c.17.53.3,1.07.43,1.62.78,3.41,1.54,6.83,2.33,10.24.51,2.24,1,4.48,1.56,6.72.24,1,.44,2.11.66,3.16.47,2.17.93,4.34,1.52,6.48.07.27.15.53.22.8A3.93,3.93,0,0,1,687.53,198.24Zm-24.19-21.65c1.5,6.48,3.08,12.93,4.66,19.39L684.27,192a1,1,0,0,0,0-.21c-.19-.92-.4-1.85-.59-2.77s-.35-1.78-.56-2.66c-.44-1.94-.92-3.88-1.36-5.83-.59-2.56-1.16-5.12-1.73-7.68,0-.09,0-.18-.07-.28Zm5.09,21.12a2.25,2.25,0,0,1,.05.22L669,200a3,3,0,0,1,.08.43,2.47,2.47,0,0,0,.36,1,1.17,1.17,0,0,0,1.06.58l.45,0c.37-.07.75-.14,1.12-.23,2.64-.59,5.26-1.26,7.88-1.94l4.55-1.19a1.92,1.92,0,0,0,.75-.39.93.93,0,0,0,.33-.62,1.85,1.85,0,0,0-.06-.66c-.27-1-.53-2-.79-3l-.06-.15Zm11.09-26.84c0-.08,0-.14,0-.19-.18-.71-.34-1.42-.52-2.13,0-.17-.09-.34-.14-.5a.5.5,0,0,0-.42-.41,3.41,3.41,0,0,0-.55,0,6.72,6.72,0,0,0-1.6.23l-10.51,2.53-1.79.41a1.58,1.58,0,0,0-1.31,1.35,2.75,2.75,0,0,0,0,1c.07.47.16.93.25,1.39,0,.1,0,.2.07.31Z"/><path class="cls-5" d="M663.34,176.59l16.58-4c0,.1.05.19.07.28.57,2.56,1.14,5.12,1.73,7.68.44,1.95.92,3.89,1.36,5.83.21.88.37,1.77.56,2.66s.4,1.85.59,2.77a1,1,0,0,1,0,.21L668,196C666.42,189.52,664.84,183.07,663.34,176.59Z"/><path class="cls-3" d="M668.43,197.71l16.23-3.94.06.15c.26,1,.52,2,.79,3a1.85,1.85,0,0,1,.06.66.93.93,0,0,1-.33.62,1.92,1.92,0,0,1-.75.39l-4.55,1.19c-2.62.68-5.24,1.35-7.88,1.94-.37.09-.75.16-1.12.23l-.45,0a1.17,1.17,0,0,1-1.06-.58,2.47,2.47,0,0,1-.36-1A3,3,0,0,0,669,200l-.51-2.07A2.25,2.25,0,0,0,668.43,197.71Z"/><path class="cls-3" d="M679.52,170.87l-16.57,4c0-.11-.05-.21-.07-.31-.09-.46-.18-.92-.25-1.39a2.75,2.75,0,0,1,0-1,1.58,1.58,0,0,1,1.31-1.35l1.79-.41,10.51-2.53a6.72,6.72,0,0,1,1.6-.23,3.41,3.41,0,0,1,.55,0,.5.5,0,0,1,.42.41c0,.16.1.33.14.5.18.71.34,1.42.52,2.13C679.5,170.73,679.5,170.79,679.52,170.87Z"/></g><g id="Herbe"><path class="cls-4" d="M560,204.32l-.41-.13a1.46,1.46,0,0,1-.82-.68,4.93,4.93,0,0,1-.36-1.64c-.06-1.31-.1-2.62-.15-3.93,0-.74,0-1.48,0-2.22a1,1,0,0,0,0-.16l-.39.06a12,12,0,0,1-6-.46,19,19,0,0,1-5-2.64,32.39,32.39,0,0,1-3.64-3.08c-1.8-1.71-3.4-3.59-5-5.46l-1.16-1.32a1.63,1.63,0,0,1-.49-1.12s0-.06,0-.09v-.09a.65.65,0,0,0,0-.13,1.4,1.4,0,0,1,.53-1,10.65,10.65,0,0,1,.86-.64,2.12,2.12,0,0,1,1.12-.3c.83,0,1.65,0,2.48,0a28.32,28.32,0,0,1,2.91.25,34.18,34.18,0,0,1,3.62.75,27.88,27.88,0,0,1,6.53,2.53,18.53,18.53,0,0,1,4,2.86c.18.16.35.33.55.53a60.85,60.85,0,0,1,3.11-11.42l-.16,0a11.11,11.11,0,0,1-2.14-.59,13,13,0,0,1-4.27-2.87,19.92,19.92,0,0,1-2.78-3.49,44,44,0,0,1-3.14-6l-2.21-5.07c-.14-.32-.29-.63-.43-1a1.75,1.75,0,0,1,0-1.45,1.65,1.65,0,0,1,1.06-.9,1.31,1.31,0,0,0,.28-.09,2.16,2.16,0,0,1,1.41-.2c.41.08.81.17,1.21.27a27.72,27.72,0,0,1,6.08,2.41,26.62,26.62,0,0,1,7,5.25,15.78,15.78,0,0,1,2.56,3.56l.25.48.14-.21a46.15,46.15,0,0,1,2.68-4,68.42,68.42,0,0,1,5.56-6.45c0-.05.09-.11.14-.17l-.22-.07a10.42,10.42,0,0,1-1.92-.81,12.76,12.76,0,0,1-4-3.4,21.33,21.33,0,0,1-2.52-4.17,46.71,46.71,0,0,1-2.32-6.06q-.83-2.61-1.64-5.24a7.05,7.05,0,0,1-.3-1.09,1.56,1.56,0,0,1,1.11-1.76c.3-.09.61-.16.92-.23a1,1,0,0,1,.24,0,2.79,2.79,0,0,1,1.1.17,25.3,25.3,0,0,1,3.7,1.62c.94.51,1.83,1.12,2.72,1.71a31.94,31.94,0,0,1,5.22,4.29,24.09,24.09,0,0,1,2.89,3.55,16.31,16.31,0,0,1,2.05,4.27.42.42,0,0,0,.07.13c2.91-2.89,5.7-5.88,8.42-9l-.25,0c-.27,0-.54-.07-.81-.12a12.36,12.36,0,0,1-4.1-1.59,21.19,21.19,0,0,1-4.72-3.92,44.08,44.08,0,0,1-3.75-4.65q-2-2.88-4-5.78a2.37,2.37,0,0,1-.19-.35,1.64,1.64,0,0,1,.75-2.07,1.71,1.71,0,0,1,1.4-.08.94.94,0,0,0,.32.08,22.31,22.31,0,0,1,4.59.74,33,33,0,0,1,6.42,2.5,28.5,28.5,0,0,1,5.33,3.5,17.32,17.32,0,0,1,3.5,3.85c.2.3.39.62.59,1l.14-.22q.87-1.45,1.59-3a24.54,24.54,0,0,0,2.43-8.58c0-.2,0-.39,0-.6l-.15,0a12.24,12.24,0,0,1-2,.29,13.12,13.12,0,0,1-4.49-.54,19.1,19.1,0,0,1-5.11-2.45,28.43,28.43,0,0,1-3.18-2.5c-1.59-1.41-3.14-2.87-4.58-4.43l-2.72-3a1.81,1.81,0,0,1-.5-1.08,1.59,1.59,0,0,1,.19-1,1.17,1.17,0,0,1,.83-.61,6.31,6.31,0,0,1,1-.22c.75,0,1.5,0,2.25,0s1.37.05,2.05.11a30.37,30.37,0,0,1,3.29.5,34.33,34.33,0,0,1,6.43,1.88,22.35,22.35,0,0,1,5.53,3.17l.09,0c0-.1,0-.17,0-.23-.08-.31-.15-.61-.22-.91a18.15,18.15,0,0,0-3-6.66,1.71,1.71,0,0,1-.26-.5,1.6,1.6,0,0,1,1.16-2.14.18.18,0,0,0,.07,0h.61s0,0,0,0a1.71,1.71,0,0,1,1,.69,15.3,15.3,0,0,1,1.21,1.8,21.5,21.5,0,0,1,2,5c.18.62.33,1.25.48,1.88,0,.07,0,.13.06.22l.1-.07a17.18,17.18,0,0,1,4.51-3.39,22.8,22.8,0,0,1,5.72-2.14,17.75,17.75,0,0,1,3.41-.41,18.44,18.44,0,0,1,2.78.16,2.72,2.72,0,0,1,.84.25,7.2,7.2,0,0,1,1,.58,1.51,1.51,0,0,1,.6.84.49.49,0,0,0,.1.15v.56a.5.5,0,0,0-.08.14,2,2,0,0,1-.4.76L616.88,111a33.26,33.26,0,0,1-3.58,4.11,17.68,17.68,0,0,1-3.38,2.58,10.7,10.7,0,0,1-6.22,1.54h-.15a27.27,27.27,0,0,1-1,5.61,31.83,31.83,0,0,1-2.14,5.34h.21c.6-.05,1.21-.11,1.82-.13a16.7,16.7,0,0,1,3.79.38,26.28,26.28,0,0,1,7,2.48,35.67,35.67,0,0,1,3.79,2.41,2.18,2.18,0,0,1,1,1.57,1.8,1.8,0,0,1-1,1.89c-.7.34-1.38.72-2.09,1.06a31.62,31.62,0,0,1-5.4,2.1,18.9,18.9,0,0,1-5.65.78,11.82,11.82,0,0,1-2.71-.39,11.59,11.59,0,0,1-5.48-3.26l-.65-.69c-1.25,1.56-2.54,3.08-3.89,4.54s-2.72,2.91-4.1,4.37l.12,0c.58.08,1.18.14,1.76.25a19.42,19.42,0,0,1,5.17,1.93,27.33,27.33,0,0,1,6.65,4.94c.18.18.38.33.56.49a3,3,0,0,1,.26.24,1.66,1.66,0,0,1-.57,2.61l-1.67.68c-1.41.55-2.81,1.13-4.23,1.64a25,25,0,0,1-6.11,1.33,16.9,16.9,0,0,1-4,0,11.61,11.61,0,0,1-3.45-1.06,10.2,10.2,0,0,1-3.84-3.39l-.13-.19a63.61,63.61,0,0,0-7.11,8.81,1.6,1.6,0,0,0,.23,0,12,12,0,0,1,2.07-.2,16,16,0,0,1,4.14.53,24.2,24.2,0,0,1,10.15,5.45,2.74,2.74,0,0,1,.45.51,1.57,1.57,0,0,1,.25,1.14,2,2,0,0,1-.61,1.14,11.46,11.46,0,0,1-2.33,1.75,19.09,19.09,0,0,1-8.56,2.44,16.3,16.3,0,0,1-4.12-.31,12.37,12.37,0,0,1-6-3.07l-.31-.28a50.65,50.65,0,0,0-2.08,5.86,43.44,43.44,0,0,0-1.33,6.06l.21-.1a11.71,11.71,0,0,1,1.9-.79,15.3,15.3,0,0,1,4.4-.68,22.29,22.29,0,0,1,10.27,2.23,5.2,5.2,0,0,1,.69.38,1.53,1.53,0,0,1,.71,1.08,1.88,1.88,0,0,1-.13,1,4.89,4.89,0,0,1-.67,1.12,22.34,22.34,0,0,1-3.62,3.72,21.88,21.88,0,0,1-5.39,3.29,13.69,13.69,0,0,1-4.68,1.06,10,10,0,0,1-4.32-.76l-.19-.06c0,.12,0,.23,0,.33.09,1.37.2,2.73.28,4.09a1.72,1.72,0,0,1-1.25,1.79l-.26.09Zm18.63-52.48,1.25-1.23a1,1,0,0,0,.29-.8,9.72,9.72,0,0,0-1.18-4.08,19.5,19.5,0,0,0-2.8-3.89,30.11,30.11,0,0,0-8.74-6.62c-.37-.18-.75-.34-1.12-.51a.17.17,0,0,0-.14,0,1.54,1.54,0,0,0,.17.19c.73.83,1.47,1.64,2.18,2.48a68.51,68.51,0,0,1,4.54,6c1.82,2.68,3.49,5.46,5.11,8.26l.19.34A1,1,0,0,0,578.63,151.84Zm-28.12,4.75a65,65,0,0,1,5,4.33,40.08,40.08,0,0,1,5.42,6.29,28.7,28.7,0,0,1,2.64,4.68l.1.2a.36.36,0,0,0,.26-.22c.37-.76.73-1.53,1.08-2.3a1.83,1.83,0,0,0,0-1.11,9.32,9.32,0,0,0-1.49-3.61,16.52,16.52,0,0,0-3.44-3.74,26.53,26.53,0,0,0-8.54-4.66l-1.46-.45A1,1,0,0,0,550.51,156.59Zm53.14-41.73a30.06,30.06,0,0,1,4.62-3.88,61.4,61.4,0,0,1,5.93-3.58c1-.55,2-1.08,3.06-1.62a1.58,1.58,0,0,0,.7-.85l-.67-.06a16.1,16.1,0,0,0-5.76.83,19.26,19.26,0,0,0-5.22,2.63,12.36,12.36,0,0,0-3.16,3.33,4.25,4.25,0,0,0-.27.46,2.15,2.15,0,0,0-.21,1.32c.09.63.13,1.27.19,1.91,0,.09,0,.18,0,.31Zm-44.76,77.45c0-.24.06-.48.08-.72a1.43,1.43,0,0,0-.1-.61,9.79,9.79,0,0,0-2.71-3.85,15.3,15.3,0,0,0-3-2,27.3,27.3,0,0,0-7.45-2.62,31,31,0,0,0-4.18-.52h-.66l.23.14c1.36.72,2.7,1.44,4.06,2.14,2.21,1.14,4.45,2.23,6.62,3.46a39.18,39.18,0,0,1,5.12,3.35c.61.49,1.2,1,1.83,1.51C558.82,192.55,558.88,192.46,558.89,192.31Zm18.36-69.58a103.27,103.27,0,0,1,15.51,11.87l.67.62a.3.3,0,0,0,.31.09.87.87,0,0,0,.52-.33.6.6,0,0,0,.11-.55,10.4,10.4,0,0,0-2.62-4.53,21.76,21.76,0,0,0-5.22-4,28.77,28.77,0,0,0-7.09-2.88c-.73-.19-1.47-.31-2.22-.46l-.11,0-.05,0Zm3.15,31.67c1.08-.11,2.16-.23,3.24-.32s2.31-.15,3.46-.22c.27,0,.54,0,.82,0a43.8,43.8,0,0,1,4.44.11,30.37,30.37,0,0,1,4.26.62.3.3,0,0,0,.21,0l-.24-.21a23.19,23.19,0,0,0-6.35-3.55,12.1,12.1,0,0,0-4.17-.75,6.14,6.14,0,0,0-3.26.87,8.6,8.6,0,0,0-1.27,1.06l-1.81,1.77-.28.29c-.14.16-.15.22,0,.45Zm1.47-48.05c1,.44,2,.87,2.92,1.33q2.94,1.38,5.87,2.8,5,2.44,9.8,5.28l.14.08c.15-.13.17-.2.11-.34s0,0,0,0a6.57,6.57,0,0,1-.66-1.26,9.63,9.63,0,0,0-2.11-2.64,16.1,16.1,0,0,0-3.42-2.29,29.43,29.43,0,0,0-7.45-2.6,30.67,30.67,0,0,0-4.66-.62l-.61,0-.19,0A.46.46,0,0,0,581.87,106.35Zm-20.72,87.43a33.85,33.85,0,0,1,5.47-2.17c2-.62,4-1.09,6.1-1.53l4-.85.17,0-.19-.1a19.9,19.9,0,0,0-4.42-1.18,19.05,19.05,0,0,0-3.2-.21,11.81,11.81,0,0,0-5.13,1.16,6.87,6.87,0,0,0-2.46,2,1.64,1.64,0,0,0-.36.92c0,.62-.07,1.23-.1,1.85a.84.84,0,0,0,0,.16Zm23.12-21.27-.2-.17a20.81,20.81,0,0,0-6-3.26,16.05,16.05,0,0,0-3.68-.88,10.31,10.31,0,0,0-4.06.26,6.59,6.59,0,0,0-2.41,1.31.94.94,0,0,1-.34.19.82.82,0,0,0-.5.39l-.26.49a.66.66,0,0,0,.1.86A63.11,63.11,0,0,1,584.27,172.51Zm12.47-36.62c.79,0,1.57-.11,2.36-.13,1.09,0,2.18,0,3.28,0,1.58,0,3.16.08,4.74.21,1.38.13,2.77.25,4.15.4,1,.11,2,.27,3,.4h0a.9.9,0,0,0-.12-.1c-.83-.48-1.65-1-2.51-1.42a22.07,22.07,0,0,0-6.41-2.17,15.14,15.14,0,0,0-3.29-.22,9.73,9.73,0,0,0-3.23.69,4.6,4.6,0,0,0-2.26,2.05c0,.07-.06.14-.09.2A.35.35,0,0,0,596.74,135.89Z"/><path class="cls-2" d="M578.38,152a1,1,0,0,0,.25-.17l1.25-1.23a1,1,0,0,0,.29-.8,9.72,9.72,0,0,0-1.18-4.08,19.5,19.5,0,0,0-2.8-3.89,30.11,30.11,0,0,0-8.74-6.62c-.37-.18-.75-.34-1.12-.51a.17.17,0,0,0-.14,0,1.54,1.54,0,0,0,.17.19c.73.83,1.47,1.64,2.18,2.48a68.51,68.51,0,0,1,4.54,6c1.82,2.68,3.49,5.46,5.11,8.26Z"/><path class="cls-2" d="M550.16,156a1,1,0,0,0,.35.59,65,65,0,0,1,5,4.33,40.08,40.08,0,0,1,5.42,6.29,28.7,28.7,0,0,1,2.64,4.68l.1.2a.36.36,0,0,0,.26-.22c.37-.76.73-1.53,1.08-2.3a1.83,1.83,0,0,0,0-1.11,9.32,9.32,0,0,0-1.49-3.61,16.52,16.52,0,0,0-3.44-3.74,26.53,26.53,0,0,0-8.54-4.66Z"/><path class="cls-2" d="M602.89,115.66l.76-.8a30.06,30.06,0,0,1,4.62-3.88,61.4,61.4,0,0,1,5.93-3.58c1-.55,2-1.08,3.06-1.62a1.58,1.58,0,0,0,.7-.85l-.67-.06a16.1,16.1,0,0,0-5.76.83,19.26,19.26,0,0,0-5.22,2.63,12.36,12.36,0,0,0-3.16,3.33,4.25,4.25,0,0,0-.27.46,2.15,2.15,0,0,0-.21,1.32c.09.63.13,1.27.19,1.91C602.87,115.44,602.88,115.53,602.89,115.66Z"/><path class="cls-2" d="M558.69,192.57c.13,0,.19-.11.2-.26s.06-.48.08-.72a1.43,1.43,0,0,0-.1-.61,9.79,9.79,0,0,0-2.71-3.85,15.3,15.3,0,0,0-3-2,27.3,27.3,0,0,0-7.45-2.62,31,31,0,0,0-4.18-.52h-.66l.23.14c1.36.72,2.7,1.44,4.06,2.14,2.21,1.14,4.45,2.23,6.62,3.46a39.18,39.18,0,0,1,5.12,3.35C557.47,191.55,558.06,192.06,558.69,192.57Z"/><path class="cls-2" d="M577.06,122.61l.19.12a103.27,103.27,0,0,1,15.51,11.87l.67.62a.3.3,0,0,0,.31.09.87.87,0,0,0,.52-.33.6.6,0,0,0,.11-.55,10.4,10.4,0,0,0-2.62-4.53,21.76,21.76,0,0,0-5.22-4,28.77,28.77,0,0,0-7.09-2.88c-.73-.19-1.47-.31-2.22-.46l-.11,0Z"/><path class="cls-2" d="M579.43,154.5l1-.1c1.08-.11,2.16-.23,3.24-.32s2.31-.15,3.46-.22c.27,0,.54,0,.82,0a43.8,43.8,0,0,1,4.44.11,30.37,30.37,0,0,1,4.26.62.3.3,0,0,0,.21,0l-.24-.21a23.19,23.19,0,0,0-6.35-3.55,12.1,12.1,0,0,0-4.17-.75,6.14,6.14,0,0,0-3.26.87,8.6,8.6,0,0,0-1.27,1.06l-1.81,1.77-.28.29C579.31,154.21,579.3,154.27,579.43,154.5Z"/><path class="cls-2" d="M581.58,106.05a.46.46,0,0,0,.29.3c1,.44,2,.87,2.92,1.33q2.94,1.38,5.87,2.8,5,2.44,9.8,5.28l.14.08c.15-.13.17-.2.11-.34s0,0,0,0a6.57,6.57,0,0,1-.66-1.26,9.63,9.63,0,0,0-2.11-2.64,16.1,16.1,0,0,0-3.42-2.29,29.43,29.43,0,0,0-7.45-2.6,30.67,30.67,0,0,0-4.66-.62l-.61,0Z"/><path class="cls-2" d="M561,193.84l.16-.06a33.85,33.85,0,0,1,5.47-2.17c2-.62,4-1.09,6.1-1.53l4-.85.17,0-.19-.1a19.9,19.9,0,0,0-4.42-1.18,19.05,19.05,0,0,0-3.2-.21,11.81,11.81,0,0,0-5.13,1.16,6.87,6.87,0,0,0-2.46,2,1.64,1.64,0,0,0-.36.92c0,.62-.07,1.23-.1,1.85A.84.84,0,0,0,561,193.84Z"/><path class="cls-2" d="M566.92,171.7a63.11,63.11,0,0,1,17.35.81l-.2-.17a20.81,20.81,0,0,0-6-3.26,16.05,16.05,0,0,0-3.68-.88,10.31,10.31,0,0,0-4.06.26,6.59,6.59,0,0,0-2.41,1.31.94.94,0,0,1-.34.19.82.82,0,0,0-.5.39l-.26.49A.66.66,0,0,0,566.92,171.7Z"/><path class="cls-2" d="M596.37,135.75a.35.35,0,0,0,.37.14c.79,0,1.57-.11,2.36-.13,1.09,0,2.18,0,3.28,0,1.58,0,3.16.08,4.74.21,1.38.13,2.77.25,4.15.4,1,.11,2,.27,3,.4h0a.9.9,0,0,0-.12-.1c-.83-.48-1.65-1-2.51-1.42a22.07,22.07,0,0,0-6.41-2.17,15.14,15.14,0,0,0-3.29-.22,9.73,9.73,0,0,0-3.23.69,4.6,4.6,0,0,0-2.26,2.05C596.42,135.62,596.4,135.69,596.37,135.75Z"/></g><g id="Fleur_Pensée"><path class="cls-4" d="M967.6,193.42a16,16,0,0,1-2.64,1.11,25.87,25.87,0,0,0-2.7,1,9.2,9.2,0,0,0-2.5,1.74,9.34,9.34,0,0,1-4.63,2.59,7.11,7.11,0,0,1-3.18,0l-.16,0-.06.25a5.89,5.89,0,0,1-1.13,2.51,5.66,5.66,0,0,1-3,2,9.9,9.9,0,0,1-3.3.29c-.37,0-.74-.05-1.1-.1a11.17,11.17,0,0,0-2.38-.1c-.85,0-1.69.09-2.53.11a8.89,8.89,0,0,1-2.12-.17,5.89,5.89,0,0,1-3-1.58c-.46-.43-.88-.9-1.31-1.35s-.95-1-1.46-1.54a4.25,4.25,0,0,0-.87-.64c-1.07-.64-2.16-1.26-3.24-1.9a15,15,0,0,1-2.3-1.67l-.4-.37-.89-1.08a.36.36,0,0,0,0-.11,5.22,5.22,0,0,1-.89-2.86,7.92,7.92,0,0,1,.38-2.6c.14-.46.31-.92.5-1.38a14.94,14.94,0,0,0,.77-2.46l.06-.31-.13-.06a7.09,7.09,0,0,1-3.3-2.35,10.33,10.33,0,0,1-1.93-4,12.23,12.23,0,0,1-.12-5.83,7.25,7.25,0,0,1,1.52-3.08c.41-.51.83-1,1.24-1.51a2.58,2.58,0,0,0,.54-2.4c-.11-.44-.19-.89-.26-1.34a4.13,4.13,0,0,1,0-1.75,7.71,7.71,0,0,1,.4-1.14,12.09,12.09,0,0,1,2.13-3.31l.42-.43.13-.17,1-.85.47-.29a16.83,16.83,0,0,1,3.24-1.6c.94-.36,1.89-.71,2.83-1.09a8.14,8.14,0,0,0,1.71-.94,5.81,5.81,0,0,0,1.14-1.13,7.51,7.51,0,0,1,1.85-1.75,4.73,4.73,0,0,1,5.07-.29l.1.06h.05l.3-.25a6.91,6.91,0,0,1,2-1.24,5.68,5.68,0,0,1,3.9-.11l.27.1a5.31,5.31,0,0,0,2.59.29,16.17,16.17,0,0,0,2.05-.41c.94-.24,1.88-.49,2.83-.7a9.46,9.46,0,0,1,3.05-.19,8.26,8.26,0,0,1,4,1.58,14.26,14.26,0,0,1,3.18,3.26,4.48,4.48,0,0,1,.66,1.52c0,.09,0,.17.07.25.38-.23.74-.46,1.11-.66a11.47,11.47,0,0,1,3.87-1.2,21.9,21.9,0,0,1,4.72-.08c1.67.12,3.32.37,5,.63l2.48.38a1.61,1.61,0,0,1,.7.23.22.22,0,0,0,.11,0l.31.38a.37.37,0,0,0,0,.15,1.3,1.3,0,0,1,0,.85,16.48,16.48,0,0,1-1.39,3.23,23.35,23.35,0,0,1-3.33,4.57l-.84.89.12,0a18.55,18.55,0,0,1,7,2.32c.73.4,1.44.87,2.16,1.31a1.17,1.17,0,0,1,.44.52,1.14,1.14,0,0,1-.32,1.38c-.74.62-1.49,1.25-2.25,1.85s-1.38,1.06-2.08,1.57a19.94,19.94,0,0,1-5.18,2.74,10,10,0,0,1-4.71.48h-.11a2.26,2.26,0,0,0,0,.26,13.67,13.67,0,0,1-.26,2.11,7.45,7.45,0,0,1-1.67,3.4c-.41.49-.82,1-1.22,1.49a3.17,3.17,0,0,0-.68,2.51c.07.54.15,1.07.22,1.6a8,8,0,0,1-.11,2.88,5.64,5.64,0,0,1-1.44,2.74.44.44,0,0,0-.06.1l-.9.73Zm-8.07-13.26a3.63,3.63,0,0,1,.65,3,3.17,3.17,0,0,1-2.59,2.54,4,4,0,0,1-2.16-.15l-.33-.11a.37.37,0,0,0-.06.1,3.6,3.6,0,0,1-1.44,1.71,9.42,9.42,0,0,1-.88.49,2.07,2.07,0,0,1-1.6.14,4.68,4.68,0,0,1-1.4-.73,11,11,0,0,1-2-2c-.27-.33-.52-.68-.8-1a1,1,0,0,0,0,.12,30.28,30.28,0,0,0,1,7,14.46,14.46,0,0,0,1.3,3.18,8.32,8.32,0,0,0,1,1.45l.17.15a4.94,4.94,0,0,0,.38-.54,11.94,11.94,0,0,0,.51-1.09c.23-.53.41-1.07.65-1.59a5.77,5.77,0,0,1,2-2.37,7.36,7.36,0,0,1,2.26-1.08c.87-.25,1.75-.46,2.63-.68a12.34,12.34,0,0,0,2.21-.7,3.6,3.6,0,0,0,1.55-1.32,5,5,0,0,0,.92-2.87c0-.56,0-1.12.07-1.69a9.35,9.35,0,0,1,1.17-3.67c.36-.7.76-1.38,1.14-2.07.19-.35.36-.72.52-1.09a3.45,3.45,0,0,0,.14-2.22,10.89,10.89,0,0,0-1.09-2.64,9.53,9.53,0,0,0-1.43-2,7.63,7.63,0,0,0-.67-.59.43.43,0,0,0-.44-.1,17.84,17.84,0,0,0-3.27,1.06,44.2,44.2,0,0,0-4.25,2.11l-1.39.79a.18.18,0,0,0-.09.1h.24a15.48,15.48,0,0,1,3,.23,8.63,8.63,0,0,1,1.21.32,4.89,4.89,0,0,1,2.56,2,3.24,3.24,0,0,1,0,3.78,5,5,0,0,1-1.49,1.39l-.23.14C959.22,179.78,959.39,180,959.53,180.16Zm-29,1.17c1.28-.6,2.52-1.29,3.74-2l1.19-.69.28-.18-.34-.05a9.24,9.24,0,0,1-1.88-.39,5,5,0,0,1-2.64-2,3.24,3.24,0,0,1,.13-3.74,4.76,4.76,0,0,1,1.33-1.24l.25-.17c-.11-.14-.22-.26-.31-.39a3.76,3.76,0,0,1-.83-2.79,3.26,3.26,0,0,1,3.38-2.9,4.48,4.48,0,0,1,1.4.24l.23.08s0,0,0-.06a3.59,3.59,0,0,1,1.45-1.7c.27-.18.56-.32.84-.47a2,2,0,0,1,1.48-.14,4.35,4.35,0,0,1,1.55.81,11.26,11.26,0,0,1,2,2.07c.21.26.41.54.63.83a1.31,1.31,0,0,0,0-.15,42.07,42.07,0,0,0-.85-7.83,20.41,20.41,0,0,0-.85-2.86,1.34,1.34,0,0,0-.07-.18l0,0a4.5,4.5,0,0,0-1.42.44,4.09,4.09,0,0,0-1.49,1.31c-.38.53-.74,1.08-1.12,1.6a4.58,4.58,0,0,1-2.75,1.83l-1.15.26c-.6.14-1.2.26-1.79.41a6.25,6.25,0,0,0-2.09.9,4.32,4.32,0,0,0-1,1,1.87,1.87,0,0,0-.39,1.33c0,.35.07.69.11,1s.09.71.11,1.08a6.31,6.31,0,0,1-1.39,4.28c-.41.53-.87,1-1.31,1.52a10.83,10.83,0,0,0-1.12,1.41,3.29,3.29,0,0,0-.44,2.59,12.82,12.82,0,0,0,1.19,3.1,10.63,10.63,0,0,0,1.57,2.3l.38.39A15.3,15.3,0,0,0,930.48,181.33Zm3.26,1.33L931,184.05a.41.41,0,0,0-.24.24,3.78,3.78,0,0,1-.26.43,2.43,2.43,0,0,0-.24.35c-.18.42-.37.84-.51,1.28a3.53,3.53,0,0,0,.22,2.65,2.14,2.14,0,0,0,.88.93c.39.22.78.42,1.18.61l1.62.7a8.72,8.72,0,0,1,3.35,2.57l1.1,1.41a6.2,6.2,0,0,0,1.78,1.64,7.67,7.67,0,0,0,4.57,1,4,4,0,0,0,1.87-.65,3.47,3.47,0,0,0,.93-.94c-.08-.12-.15-.25-.23-.38a17.28,17.28,0,0,1-1.89-4.83,29,29,0,0,1-.71-4.23c0-.09,0-.18,0-.32-.06.1-.1.15-.13.21a5.63,5.63,0,0,1-1.29,1.58,4,4,0,0,1-.82.54,2,2,0,0,1-2.82-1.1,3.55,3.55,0,0,1-.27-1.2c0-.09,0-.17,0-.29-.06.05-.12.08-.16.12l-1.26,1.26a4.75,4.75,0,0,1-1.17.87,1.93,1.93,0,0,1-2.48-.51,3.63,3.63,0,0,1-.49-4.05,7.54,7.54,0,0,1,1.17-1.64l.06-.07,0,0C934.33,182.34,934,182.51,933.74,182.66Zm-8.89-1.4a15.56,15.56,0,0,1-1.74-4.09,5.78,5.78,0,0,1,1.1-5.29c.4-.52.86-1,1.28-1.5a15.85,15.85,0,0,0,1-1.27,3.85,3.85,0,0,0,.71-2.69c0-.32-.09-.64-.12-1s-.07-.62-.09-.94a4.35,4.35,0,0,1,1.16-3.22,7.39,7.39,0,0,1,3.74-2.27c.81-.22,1.63-.38,2.44-.57l1-.23a2.1,2.1,0,0,0,1.24-.81c.32-.43.63-.88.94-1.32a8.51,8.51,0,0,1,1.29-1.52,6.31,6.31,0,0,1,2.39-1.32l.27-.08a1,1,0,0,0-.08-.15,4.8,4.8,0,0,0-1-1,2.07,2.07,0,0,0-2.48-.08,4.73,4.73,0,0,0-1.25,1.15,9.27,9.27,0,0,1-3.64,2.83c-1,.46-2,.81-3.07,1.2a16.74,16.74,0,0,0-2.48,1.13,8.42,8.42,0,0,0-3.29,3.43c-.17.34-.32.69-.48,1a1.56,1.56,0,0,0-.14.95q.07.5.18,1c0,.26.1.51.14.76a4.74,4.74,0,0,1-.8,3.76c-.38.55-.81,1-1.23,1.58-.16.21-.33.41-.5.62a4.31,4.31,0,0,0-.85,1.84,9.44,9.44,0,0,0,.92,6.57,5.25,5.25,0,0,0,1.9,2,5.88,5.88,0,0,0,2.29.69C925.35,182.05,925.08,181.66,924.85,181.26Zm41.81-13.35a13.74,13.74,0,0,1,2,4.24,5.94,5.94,0,0,1-.3,4.19c-.08.19-.17.39-.26.57-.36.65-.73,1.29-1.08,1.94s-.55,1.09-.79,1.65a6,6,0,0,0-.46,2.13c0,.41,0,.81,0,1.21a7.22,7.22,0,0,1-2,4.91,5.52,5.52,0,0,1-2.07,1.39A18.39,18.39,0,0,1,959,191c-.75.18-1.5.38-2.24.59a5.38,5.38,0,0,0-1.36.62,3.5,3.5,0,0,0-1.32,1.53c-.19.42-.35.85-.51,1.27a8.15,8.15,0,0,1-1,2l-.14.21.29.07a4.76,4.76,0,0,0,2.74-.26,6.88,6.88,0,0,0,2.49-1.62,11.33,11.33,0,0,1,3.17-2.24,33,33,0,0,1,3.13-1.2,15.54,15.54,0,0,0,1.95-.78,4,4,0,0,0,1.09-.78,2.89,2.89,0,0,0,.73-1.34,4.77,4.77,0,0,0,.13-1.84c-.06-.49-.14-1-.2-1.46a7.27,7.27,0,0,1-.06-1.92,5.77,5.77,0,0,1,1.22-2.95c.39-.49.78-1,1.2-1.45a5.48,5.48,0,0,0,1.33-3.12,9.84,9.84,0,0,0-1-5.67,5.77,5.77,0,0,0-1.66-2.07,4.24,4.24,0,0,0-1.45-.74l-1-.24a.1.1,0,0,0,0,0Zm-18.5,30.82a6.29,6.29,0,0,1-3.6,1.49,10,10,0,0,1-4.59-.67,7.83,7.83,0,0,1-2.52-1.52,13,13,0,0,1-1.67-1.89,11.76,11.76,0,0,0-1.43-1.64,5.24,5.24,0,0,0-1.39-.94c-.72-.33-1.44-.64-2.16-1a8.09,8.09,0,0,1-1.67-.95A4.72,4.72,0,0,1,927.4,189a6.18,6.18,0,0,1,.14-3.66.88.88,0,0,0,.05-.15s0,0,0-.05l-1.55.09c0,.07,0,.15,0,.23a16.34,16.34,0,0,1-1,3.12,8.54,8.54,0,0,0-.6,2,3.32,3.32,0,0,0,.36,2.31,4.53,4.53,0,0,0,1.06,1.21,17.62,17.62,0,0,0,2.5,1.68l2.48,1.43a8.92,8.92,0,0,1,2,1.68c.5.56,1,1.13,1.5,1.67a8.54,8.54,0,0,0,.88.82,3.44,3.44,0,0,0,2.09.72c.59,0,1.19,0,1.78,0,.87,0,1.73-.09,2.6-.1a12.92,12.92,0,0,1,1.64.12,11.21,11.21,0,0,0,2.59.06,4.67,4.67,0,0,0,1.71-.49,2.78,2.78,0,0,0,1.25-1.39,4.72,4.72,0,0,0,.32-1.62.25.25,0,0,0-.1-.23l-.34-.3C948.56,198.35,948.37,198.55,948.16,198.73ZM946.89,162l.13-.2a5.12,5.12,0,0,1,1.33-1.56,2.67,2.67,0,0,1,1-.49,2,2,0,0,1,2.38,1.21,3.45,3.45,0,0,1,.27,1.14c0,.09,0,.18,0,.28l.19-.06a7.23,7.23,0,0,1,2.14-.63,3.77,3.77,0,0,1,1.42.08,2,2,0,0,1,1.31,1,2,2,0,0,1,.19,1.19,3.73,3.73,0,0,1-.41,1.26,9.46,9.46,0,0,1-1.28,1.86l-.83,1,.2-.08a36.86,36.86,0,0,1,5.21-2.34c.23-.08.47-.17.71-.23a.36.36,0,0,0,.25-.23,2.3,2.3,0,0,0,0-2,12.75,12.75,0,0,0-.63-1.22,11,11,0,0,1-1.31-3.46c-.12-.61-.27-1.22-.43-1.83a3.18,3.18,0,0,0-.7-1.41,2.14,2.14,0,0,0-2.41-.69,7.66,7.66,0,0,0-1.46.73c-.68.41-1.34.84-2,1.23a6,6,0,0,1-3.13.76c-.51,0-1-.07-1.54-.1a7.42,7.42,0,0,0-.82,0,5.12,5.12,0,0,0-.62.07A46.26,46.26,0,0,1,946.89,162Zm18.49,2.76c0-.1,0-.21-.08-.32l-.63-1.82c-.08-.24-.17-.49-.26-.73a9.26,9.26,0,0,1-.5-3.46c0-.81.09-1.61.1-2.41,0-.52,0-1-.06-1.54a2.26,2.26,0,0,0-.32-1,6.26,6.26,0,0,0-.45-.6,11.26,11.26,0,0,0-2-2A5.66,5.66,0,0,0,957,149.7a16.58,16.58,0,0,0-2.08.4c-.89.23-1.77.47-2.66.68a10.32,10.32,0,0,1-2.66.27,7.33,7.33,0,0,1-2.31-.44,4.79,4.79,0,0,0-.74-.21,3,3,0,0,0-2.26.45c-.24.15-.47.33-.73.51A13.9,13.9,0,0,1,945.4,155s.05,0,.06,0a7,7,0,0,1,2.54-.12l.77.06a4.33,4.33,0,0,0,2.77-.73c.69-.45,1.4-.89,2.12-1.3a7,7,0,0,1,1.18-.53,4.36,4.36,0,0,1,4.23.62,5,5,0,0,1,1.78,2.43,11.66,11.66,0,0,1,.51,1.84c0,.26.11.51.16.77a8.69,8.69,0,0,0,1.08,2.83c.28.51.55,1,.78,1.57a4.23,4.23,0,0,1,.33,2.22.81.81,0,0,0,0,.17Zm2.81.49,1,.39a1.09,1.09,0,0,0,.26,0,10,10,0,0,0,3.26-.89,15.5,15.5,0,0,0,3.11-1.92,22,22,0,0,0,5.13-5.78,1.36,1.36,0,0,0,.13-.27,41.18,41.18,0,0,0-13.29,6.65C968,164.06,968.07,164.65,968.19,165.25Zm11.86-10.65a.5.5,0,0,0-.15,0,40.2,40.2,0,0,0-5.37-.54,14.45,14.45,0,0,0-3.53.3,8.36,8.36,0,0,0-2.7,1.06,6.53,6.53,0,0,0-1.54,1.33.43.43,0,0,0-.11.26c0,.73-.06,1.46-.06,2.19a5.14,5.14,0,0,0,.33,1.82l.07.15A44.3,44.3,0,0,1,980.05,154.6ZM947,172a1.08,1.08,0,0,0-.72-.21,3.29,3.29,0,0,0-2.7,1.24c-.06.07-.1.15-.15.22s-.39.44-.58.67a2.54,2.54,0,0,0,.08,3.39,1.67,1.67,0,0,0,.42.32,8,8,0,0,0,2.86.89,3.36,3.36,0,0,0,1.26-.12,1.94,1.94,0,0,0,1.35-1.39,3.52,3.52,0,0,0,.1-1.41,6.19,6.19,0,0,0-1.16-2.93C947.46,172.43,947.21,172.2,947,172Zm28.9,1a8.85,8.85,0,0,0,3.12-.66,15.72,15.72,0,0,0,2.88-1.49c.66-.43,1.29-.88,1.93-1.33a.41.41,0,0,0,.16-.18l-.28,0c-1.73.21-3.47.38-5.21.42a22.25,22.25,0,0,1-5.4-.47l-.11,0c.25.59.5,1.15.7,1.72s.33,1.18.51,1.8A6,6,0,0,0,975.85,173Zm8.06-6.16a14.78,14.78,0,0,0-5.64-1.43c-.48,0-.95,0-1.42,0a1.32,1.32,0,0,0-.84.27,13.67,13.67,0,0,1-2.21,1.23l-.15.1.29.07a19.47,19.47,0,0,0,3.95.34,51.19,51.19,0,0,0,6.06-.48l.08,0Z"/><path class="cls-5" d="M959,179.55c.19.23.36.41.5.61a3.63,3.63,0,0,1,.65,3,3.17,3.17,0,0,1-2.59,2.54,4,4,0,0,1-2.16-.15l-.33-.11a.37.37,0,0,0-.06.1,3.6,3.6,0,0,1-1.44,1.71,9.42,9.42,0,0,1-.88.49,2.07,2.07,0,0,1-1.6.14,4.68,4.68,0,0,1-1.4-.73,11,11,0,0,1-2-2c-.27-.33-.52-.68-.8-1a1,1,0,0,0,0,.12,30.28,30.28,0,0,0,1,7,14.46,14.46,0,0,0,1.3,3.18,8.32,8.32,0,0,0,1,1.45l.17.15a4.94,4.94,0,0,0,.38-.54,11.94,11.94,0,0,0,.51-1.09c.23-.53.41-1.07.65-1.59a5.77,5.77,0,0,1,2-2.37,7.36,7.36,0,0,1,2.26-1.08c.87-.25,1.75-.46,2.63-.68a12.34,12.34,0,0,0,2.21-.7,3.6,3.6,0,0,0,1.55-1.32,5,5,0,0,0,.92-2.87c0-.56,0-1.12.07-1.69a9.35,9.35,0,0,1,1.17-3.67c.36-.7.76-1.38,1.14-2.07.19-.35.36-.72.52-1.09a3.45,3.45,0,0,0,.14-2.22,10.89,10.89,0,0,0-1.09-2.64,9.53,9.53,0,0,0-1.43-2,7.63,7.63,0,0,0-.67-.59.43.43,0,0,0-.44-.1,17.84,17.84,0,0,0-3.27,1.06,44.2,44.2,0,0,0-4.25,2.11l-1.39.79a.18.18,0,0,0-.09.1h.24a15.48,15.48,0,0,1,3,.23,8.63,8.63,0,0,1,1.21.32,4.89,4.89,0,0,1,2.56,2,3.24,3.24,0,0,1,0,3.78,5,5,0,0,1-1.49,1.39Z"/><path class="cls-5" d="M928.49,182.13a15.3,15.3,0,0,0,2-.8c1.28-.6,2.52-1.29,3.74-2l1.19-.69.28-.18-.34-.05a9.24,9.24,0,0,1-1.88-.39,5,5,0,0,1-2.64-2,3.24,3.24,0,0,1,.13-3.74,4.76,4.76,0,0,1,1.33-1.24l.25-.17c-.11-.14-.22-.26-.31-.39a3.76,3.76,0,0,1-.83-2.79,3.26,3.26,0,0,1,3.38-2.9,4.48,4.48,0,0,1,1.4.24l.23.08s0,0,0-.06a3.59,3.59,0,0,1,1.45-1.7c.27-.18.56-.32.84-.47a2,2,0,0,1,1.48-.14,4.35,4.35,0,0,1,1.55.81,11.26,11.26,0,0,1,2,2.07c.21.26.41.54.63.83a1.31,1.31,0,0,0,0-.15,42.07,42.07,0,0,0-.85-7.83,20.41,20.41,0,0,0-.85-2.86,1.34,1.34,0,0,0-.07-.18l0,0a4.5,4.5,0,0,0-1.42.44,4.09,4.09,0,0,0-1.49,1.31c-.38.53-.74,1.08-1.12,1.6a4.58,4.58,0,0,1-2.75,1.83l-1.15.26c-.6.14-1.2.26-1.79.41a6.25,6.25,0,0,0-2.09.9,4.32,4.32,0,0,0-1,1,1.87,1.87,0,0,0-.39,1.33c0,.35.07.69.11,1s.09.71.11,1.08a6.31,6.31,0,0,1-1.39,4.28c-.41.53-.87,1-1.31,1.52a10.83,10.83,0,0,0-1.12,1.41,3.29,3.29,0,0,0-.44,2.59,12.82,12.82,0,0,0,1.19,3.1,10.63,10.63,0,0,0,1.57,2.3Z"/><path class="cls-5" d="M934.63,182.18c-.3.16-.59.33-.89.48L931,184.05a.41.41,0,0,0-.24.24,3.78,3.78,0,0,1-.26.43,2.43,2.43,0,0,0-.24.35c-.18.42-.37.84-.51,1.28a3.53,3.53,0,0,0,.22,2.65,2.14,2.14,0,0,0,.88.93c.39.22.78.42,1.18.61l1.62.7a8.72,8.72,0,0,1,3.35,2.57l1.1,1.41a6.2,6.2,0,0,0,1.78,1.64,7.67,7.67,0,0,0,4.57,1,4,4,0,0,0,1.87-.65,3.47,3.47,0,0,0,.93-.94c-.08-.12-.15-.25-.23-.38a17.28,17.28,0,0,1-1.89-4.83,29,29,0,0,1-.71-4.23c0-.09,0-.18,0-.32-.06.1-.1.15-.13.21a5.63,5.63,0,0,1-1.29,1.58,4,4,0,0,1-.82.54,2,2,0,0,1-2.82-1.1,3.55,3.55,0,0,1-.27-1.2c0-.09,0-.17,0-.29-.06.05-.12.08-.16.12l-1.26,1.26a4.75,4.75,0,0,1-1.17.87,1.93,1.93,0,0,1-2.48-.51,3.63,3.63,0,0,1-.49-4.05,7.54,7.54,0,0,1,1.17-1.64l.06-.07Z"/><path class="cls-3" d="M925.63,182.49c-.28-.44-.55-.83-.78-1.23a15.56,15.56,0,0,1-1.74-4.09,5.78,5.78,0,0,1,1.1-5.29c.4-.52.86-1,1.28-1.5a15.85,15.85,0,0,0,1-1.27,3.85,3.85,0,0,0,.71-2.69c0-.32-.09-.64-.12-1s-.07-.62-.09-.94a4.35,4.35,0,0,1,1.16-3.22,7.39,7.39,0,0,1,3.74-2.27c.81-.22,1.63-.38,2.44-.57l1-.23a2.1,2.1,0,0,0,1.24-.81c.32-.43.63-.88.94-1.32a8.51,8.51,0,0,1,1.29-1.52,6.31,6.31,0,0,1,2.39-1.32l.27-.08a1,1,0,0,0-.08-.15,4.8,4.8,0,0,0-1-1,2.07,2.07,0,0,0-2.48-.08,4.73,4.73,0,0,0-1.25,1.15,9.27,9.27,0,0,1-3.64,2.83c-1,.46-2,.81-3.07,1.2a16.74,16.74,0,0,0-2.48,1.13,8.42,8.42,0,0,0-3.29,3.43c-.17.34-.32.69-.48,1a1.56,1.56,0,0,0-.14.95q.07.5.18,1c0,.26.1.51.14.76a4.74,4.74,0,0,1-.8,3.76c-.38.55-.81,1-1.23,1.58-.16.21-.33.41-.5.62a4.31,4.31,0,0,0-.85,1.84,9.44,9.44,0,0,0,.92,6.57,5.25,5.25,0,0,0,1.9,2A5.88,5.88,0,0,0,925.63,182.49Z"/><path class="cls-3" d="M966.49,167.66l.17.25a13.74,13.74,0,0,1,2,4.24,5.94,5.94,0,0,1-.3,4.19c-.08.19-.17.39-.26.57-.36.65-.73,1.29-1.08,1.94s-.55,1.09-.79,1.65a6,6,0,0,0-.46,2.13c0,.41,0,.81,0,1.21a7.22,7.22,0,0,1-2,4.91,5.52,5.52,0,0,1-2.07,1.39A18.39,18.39,0,0,1,959,191c-.75.18-1.5.38-2.24.59a5.38,5.38,0,0,0-1.36.62,3.5,3.5,0,0,0-1.32,1.53c-.19.42-.35.85-.51,1.27a8.15,8.15,0,0,1-1,2l-.14.21.29.07a4.76,4.76,0,0,0,2.74-.26,6.88,6.88,0,0,0,2.49-1.62,11.33,11.33,0,0,1,3.17-2.24,33,33,0,0,1,3.13-1.2,15.54,15.54,0,0,0,1.95-.78,4,4,0,0,0,1.09-.78,2.89,2.89,0,0,0,.73-1.34,4.77,4.77,0,0,0,.13-1.84c-.06-.49-.14-1-.2-1.46a7.27,7.27,0,0,1-.06-1.92,5.77,5.77,0,0,1,1.22-2.95c.39-.49.78-1,1.2-1.45a5.48,5.48,0,0,0,1.33-3.12,9.84,9.84,0,0,0-1-5.67,5.77,5.77,0,0,0-1.66-2.07,4.24,4.24,0,0,0-1.45-.74l-1-.24A.1.1,0,0,0,966.49,167.66Z"/><path class="cls-3" d="M948.78,198.13c-.22.22-.41.42-.62.6a6.29,6.29,0,0,1-3.6,1.49,10,10,0,0,1-4.59-.67,7.83,7.83,0,0,1-2.52-1.52,13,13,0,0,1-1.67-1.89,11.76,11.76,0,0,0-1.43-1.64,5.24,5.24,0,0,0-1.39-.94c-.72-.33-1.44-.64-2.16-1a8.09,8.09,0,0,1-1.67-.95A4.72,4.72,0,0,1,927.4,189a6.18,6.18,0,0,1,.14-3.66.88.88,0,0,0,.05-.15s0,0,0-.05l-1.55.09c0,.07,0,.15,0,.23a16.34,16.34,0,0,1-1,3.12,8.54,8.54,0,0,0-.6,2,3.32,3.32,0,0,0,.36,2.31,4.53,4.53,0,0,0,1.06,1.21,17.62,17.62,0,0,0,2.5,1.68l2.48,1.43a8.92,8.92,0,0,1,2,1.68c.5.56,1,1.13,1.5,1.67a8.54,8.54,0,0,0,.88.82,3.44,3.44,0,0,0,2.09.72c.59,0,1.19,0,1.78,0,.87,0,1.73-.09,2.6-.1a12.92,12.92,0,0,1,1.64.12,11.21,11.21,0,0,0,2.59.06,4.67,4.67,0,0,0,1.71-.49,2.78,2.78,0,0,0,1.25-1.39,4.72,4.72,0,0,0,.32-1.62.25.25,0,0,0-.1-.23Z"/><path class="cls-5" d="M946.07,157.25a46.26,46.26,0,0,1,.82,4.75l.13-.2a5.12,5.12,0,0,1,1.33-1.56,2.67,2.67,0,0,1,1-.49,2,2,0,0,1,2.38,1.21,3.45,3.45,0,0,1,.27,1.14c0,.09,0,.18,0,.28l.19-.06a7.23,7.23,0,0,1,2.14-.63,3.77,3.77,0,0,1,1.42.08,2,2,0,0,1,1.31,1,2,2,0,0,1,.19,1.19,3.73,3.73,0,0,1-.41,1.26,9.46,9.46,0,0,1-1.28,1.86l-.83,1,.2-.08a36.86,36.86,0,0,1,5.21-2.34c.23-.08.47-.17.71-.23a.36.36,0,0,0,.25-.23,2.3,2.3,0,0,0,0-2,12.75,12.75,0,0,0-.63-1.22,11,11,0,0,1-1.31-3.46c-.12-.61-.27-1.22-.43-1.83a3.18,3.18,0,0,0-.7-1.41,2.14,2.14,0,0,0-2.41-.69,7.66,7.66,0,0,0-1.46.73c-.68.41-1.34.84-2,1.23a6,6,0,0,1-3.13.76c-.51,0-1-.07-1.54-.1a7.42,7.42,0,0,0-.82,0A5.12,5.12,0,0,0,946.07,157.25Z"/><path class="cls-3" d="M963.7,164.81l1.68-.05c0-.1,0-.21-.08-.32l-.63-1.82c-.08-.24-.17-.49-.26-.73a9.26,9.26,0,0,1-.5-3.46c0-.81.09-1.61.1-2.41,0-.52,0-1-.06-1.54a2.26,2.26,0,0,0-.32-1,6.26,6.26,0,0,0-.45-.6,11.26,11.26,0,0,0-2-2A5.66,5.66,0,0,0,957,149.7a16.58,16.58,0,0,0-2.08.4c-.89.23-1.77.47-2.66.68a10.32,10.32,0,0,1-2.66.27,7.33,7.33,0,0,1-2.31-.44,4.79,4.79,0,0,0-.74-.21,3,3,0,0,0-2.26.45c-.24.15-.47.33-.73.51A13.9,13.9,0,0,1,945.4,155s.05,0,.06,0a7,7,0,0,1,2.54-.12l.77.06a4.33,4.33,0,0,0,2.77-.73c.69-.45,1.4-.89,2.12-1.3a7,7,0,0,1,1.18-.53,4.36,4.36,0,0,1,4.23.62,5,5,0,0,1,1.78,2.43,11.66,11.66,0,0,1,.51,1.84c0,.26.11.51.16.77a8.69,8.69,0,0,0,1.08,2.83c.28.51.55,1,.78,1.57a4.23,4.23,0,0,1,.33,2.22A.81.81,0,0,0,963.7,164.81Z"/><path class="cls-2" d="M967.82,163.44c.13.62.25,1.21.37,1.81l1,.39a1.09,1.09,0,0,0,.26,0,10,10,0,0,0,3.26-.89,15.5,15.5,0,0,0,3.11-1.92,22,22,0,0,0,5.13-5.78,1.36,1.36,0,0,0,.13-.27A41.18,41.18,0,0,0,967.82,163.44Z"/><path class="cls-2" d="M967,161.12a44.3,44.3,0,0,1,13.06-6.52.5.5,0,0,0-.15,0,40.2,40.2,0,0,0-5.37-.54,14.45,14.45,0,0,0-3.53.3,8.36,8.36,0,0,0-2.7,1.06,6.53,6.53,0,0,0-1.54,1.33.43.43,0,0,0-.11.26c0,.73-.06,1.46-.06,2.19a5.14,5.14,0,0,0,.33,1.82Z"/><path class="cls-3" d="M947.71,172.66c-.25-.23-.5-.46-.76-.67a1.08,1.08,0,0,0-.72-.21,3.29,3.29,0,0,0-2.7,1.24c-.06.07-.1.15-.15.22s-.39.44-.58.67a2.54,2.54,0,0,0,.08,3.39,1.67,1.67,0,0,0,.42.32,8,8,0,0,0,2.86.89,3.36,3.36,0,0,0,1.26-.12,1.94,1.94,0,0,0,1.35-1.39,3.52,3.52,0,0,0,.1-1.41A6.19,6.19,0,0,0,947.71,172.66Z"/><path class="cls-2" d="M974.15,172.78a6,6,0,0,0,1.7.2,8.85,8.85,0,0,0,3.12-.66,15.72,15.72,0,0,0,2.88-1.49c.66-.43,1.29-.88,1.93-1.33a.41.41,0,0,0,.16-.18l-.28,0c-1.73.21-3.47.38-5.21.42a22.25,22.25,0,0,1-5.4-.47l-.11,0c.25.59.5,1.15.7,1.72S974,172.16,974.15,172.78Z"/><path class="cls-2" d="M984,166.89l-.12-.07a14.78,14.78,0,0,0-5.64-1.43c-.48,0-.95,0-1.42,0a1.32,1.32,0,0,0-.84.27,13.67,13.67,0,0,1-2.21,1.23l-.15.1.29.07a19.47,19.47,0,0,0,3.95.34,51.19,51.19,0,0,0,6.06-.48Z"/></g><g id="Os"><path class="cls-4" d="M1209.53,160.72c0,.19,0,.37,0,.56a6.84,6.84,0,0,1-3.6,5.85,6.22,6.22,0,0,1-3.05.76,40.35,40.35,0,0,1-5.6-.41c-.81-.1-1.62-.2-2.44-.27a9.6,9.6,0,0,0-4.75.89,26.93,26.93,0,0,0-2.93,1.62c-2.56,1.6-5.21,3-7.86,4.49-2.21,1.2-4.41,2.4-6.6,3.62a27,27,0,0,0-3.72,2.48,14,14,0,0,0-3.52,4.09,13.67,13.67,0,0,0-1.12,2.72c-.29,1-.58,1.92-.89,2.86a12.09,12.09,0,0,1-1.06,2.35,6.53,6.53,0,0,1-.9,1.19,3.93,3.93,0,0,1-1.56,1c-.09,0-.17.08-.26.12l-.74.12-.67,0a10.69,10.69,0,0,1-4.3-1.06,5.89,5.89,0,0,1-1.8-1.33,3.74,3.74,0,0,1-1-2.07,5,5,0,0,1,.07-1.63,9.72,9.72,0,0,1,.82-2.26.52.52,0,0,0,.07-.48,1,1,0,0,1,0-.31,2.39,2.39,0,0,0-.4-1.34,4.19,4.19,0,0,0-.84-.94,12,12,0,0,0-1.56-1.08c-.74-.44-1.49-.88-2.22-1.34a8.56,8.56,0,0,1-1.39-1.07,4.85,4.85,0,0,1-1.39-2.11.82.82,0,0,0-.11-.17c0-.29-.09-.59-.13-.88a3.11,3.11,0,0,0,0-.32,6.87,6.87,0,0,1,3.53-6.1,6.19,6.19,0,0,1,3.21-.81,50.37,50.37,0,0,1,5.21.28c1.05.09,2.1.16,3.15.15a13.32,13.32,0,0,0,6.08-1.52c4-2.08,8-4.34,11.91-6.67,1.38-.81,2.78-1.58,4.17-2.38a27.11,27.11,0,0,0,3.76-2.52,12,12,0,0,0,3-3.5,10.21,10.21,0,0,0,.89-2.13c.31-1,.61-2.1.93-3.14a12.31,12.31,0,0,1,1.24-2.8,5.69,5.69,0,0,1,2.24-2.14,10,10,0,0,1,1-.39l.1,0,.84-.13h.69a8.62,8.62,0,0,1,4,1.28,5.66,5.66,0,0,1,1.79,1.62,3.36,3.36,0,0,1,.58,1.31,4.92,4.92,0,0,1,0,1.95,9.06,9.06,0,0,1-.8,2.2.68.68,0,0,0-.08.57.74.74,0,0,1,0,.26,2.45,2.45,0,0,0,.52,1.54,4.27,4.27,0,0,0,.87.88c.42.3.84.59,1.28.87.74.45,1.49.88,2.22,1.34a8.84,8.84,0,0,1,1.88,1.51,4.26,4.26,0,0,1,1,1.81s0,.05,0,.08Zm-9.68-5.88a4.31,4.31,0,0,0-.13,1.54,4.25,4.25,0,0,0,.73,2,1.56,1.56,0,0,1-.67,2.29,1.14,1.14,0,0,1-1.48-.37,8,8,0,0,1-1.33-3,7.16,7.16,0,0,1,.17-3.5,13.23,13.23,0,0,1,1.2-2.69c.3-.54.57-1.09.85-1.64a1.87,1.87,0,0,0,0-1.5,4.45,4.45,0,0,0-1.63-2.12,3.55,3.55,0,0,0-1.34-.61,2,2,0,0,0-1.91.6,7,7,0,0,0-.6.75,8.53,8.53,0,0,0-1,2.21c-.22.72-.43,1.45-.64,2.18a15.13,15.13,0,0,1-2.41,5,17.94,17.94,0,0,1-3.53,3.54,41,41,0,0,1-4.53,3c-1.43.84-2.88,1.64-4.28,2.51-1.59,1-3.14,2-4.7,3a57.39,57.39,0,0,1-5.41,3.16,21.26,21.26,0,0,1-4.63,1.7,10,10,0,0,1-3.62.18c-1.12-.16-2.24-.34-3.36-.52a18.68,18.68,0,0,0-4-.29,4.52,4.52,0,0,0-2.37.78,4.68,4.68,0,0,0-2,3,2.75,2.75,0,0,0,.81,2.63,4.26,4.26,0,0,0,.77.57c.87.5,1.75,1,2.62,1.46a8.76,8.76,0,0,1,2.3,1.75l.09,0A4.66,4.66,0,0,0,1154,181a4.41,4.41,0,0,0-.73-1.95,1.55,1.55,0,0,1,.6-2.26,1.15,1.15,0,0,1,1.57.36,8.14,8.14,0,0,1,1.38,3.16,6.83,6.83,0,0,1-.26,3.44,12.24,12.24,0,0,1-1,2.13c-.33.59-.65,1.19-1,1.8a3.84,3.84,0,0,0-.38,1.29,2,2,0,0,0,.94,2.05,3,3,0,0,0,.39.22,5.71,5.71,0,0,0,2,.57,2.56,2.56,0,0,0,2.53-1.2,4.38,4.38,0,0,0,.37-.67c.19-.44.36-.88.51-1.34.3-.9.55-1.82.86-2.72a16.37,16.37,0,0,1,2.49-4.64,18.53,18.53,0,0,1,3.47-3.44,38.21,38.21,0,0,1,4.5-2.94c1.3-.73,2.62-1.43,3.89-2.19,1.6-1,3.16-2,4.73-3a59.54,59.54,0,0,1,5.41-3.15,20.86,20.86,0,0,1,5.67-2,10.88,10.88,0,0,1,3.22-.15c.94.12,1.88.29,2.81.46a20.73,20.73,0,0,0,4,.42,5.22,5.22,0,0,0,1.84-.29,7.18,7.18,0,0,0,2.79-1.88,3.51,3.51,0,0,0,.53-.77,1.93,1.93,0,0,0,.08-1.63,3.38,3.38,0,0,0-.71-1.12,7.47,7.47,0,0,0-1.2-1,22.05,22.05,0,0,0-2.46-1.49A10.79,10.79,0,0,1,1199.85,154.84Z"/><path class="cls-3" d="M1199.85,154.84a10.79,10.79,0,0,0,3,2.17,22.05,22.05,0,0,1,2.46,1.49,7.47,7.47,0,0,1,1.2,1,3.38,3.38,0,0,1,.71,1.12,1.93,1.93,0,0,1-.08,1.63,3.51,3.51,0,0,1-.53.77,7.18,7.18,0,0,1-2.79,1.88,5.22,5.22,0,0,1-1.84.29,20.73,20.73,0,0,1-4-.42c-.93-.17-1.87-.34-2.81-.46a10.88,10.88,0,0,0-3.22.15,20.86,20.86,0,0,0-5.67,2,59.54,59.54,0,0,0-5.41,3.15c-1.57,1-3.13,2-4.73,3-1.27.76-2.59,1.46-3.89,2.19a38.21,38.21,0,0,0-4.5,2.94,18.53,18.53,0,0,0-3.47,3.44,16.37,16.37,0,0,0-2.49,4.64c-.31.9-.56,1.82-.86,2.72-.15.46-.32.9-.51,1.34a4.38,4.38,0,0,1-.37.67,2.56,2.56,0,0,1-2.53,1.2,5.71,5.71,0,0,1-2-.57,3,3,0,0,1-.39-.22,2,2,0,0,1-.94-2.05,3.84,3.84,0,0,1,.38-1.29c.3-.61.62-1.21,1-1.8a12.24,12.24,0,0,0,1-2.13,6.83,6.83,0,0,0,.26-3.44,8.14,8.14,0,0,0-1.38-3.16,1.15,1.15,0,0,0-1.57-.36,1.55,1.55,0,0,0-.6,2.26A4.41,4.41,0,0,1,1154,181a4.66,4.66,0,0,1-.12,1.53l-.09,0a8.76,8.76,0,0,0-2.3-1.75c-.87-.49-1.75-1-2.62-1.46a4.26,4.26,0,0,1-.77-.57,2.75,2.75,0,0,1-.81-2.63,4.68,4.68,0,0,1,2-3,4.52,4.52,0,0,1,2.37-.78,18.68,18.68,0,0,1,4,.29c1.12.18,2.24.36,3.36.52a10,10,0,0,0,3.62-.18,21.26,21.26,0,0,0,4.63-1.7,57.39,57.39,0,0,0,5.41-3.16c1.56-1,3.11-2.05,4.7-3,1.4-.87,2.85-1.67,4.28-2.51a41,41,0,0,0,4.53-3,17.94,17.94,0,0,0,3.53-3.54,15.13,15.13,0,0,0,2.41-5c.21-.73.42-1.46.64-2.18a8.53,8.53,0,0,1,1-2.21,7,7,0,0,1,.6-.75,2,2,0,0,1,1.91-.6,3.55,3.55,0,0,1,1.34.61,4.45,4.45,0,0,1,1.63,2.12,1.87,1.87,0,0,1,0,1.5c-.28.55-.55,1.1-.85,1.64a13.23,13.23,0,0,0-1.2,2.69,7.16,7.16,0,0,0-.17,3.5,8,8,0,0,0,1.33,3,1.14,1.14,0,0,0,1.48.37,1.56,1.56,0,0,0,.67-2.29,4.25,4.25,0,0,1-.73-2A4.31,4.31,0,0,1,1199.85,154.84Z"/></g><g id="Cornet_Montréal"><path class="cls-1" d="M1540.38,162a3.29,3.29,0,0,0-.46-1.46,6.3,6.3,0,0,0-1.67-1.93,9.63,9.63,0,0,0-3.14-1.64c-.71-.23-1.43-.44-2.16-.64a28.71,28.71,0,0,0-5.89-1,25.34,25.34,0,0,0-5,.18,27.94,27.94,0,0,0-5.18,1.25,34.37,34.37,0,0,0-6.06,2.81c-.88.5-1.77,1-2.67,1.46a18.79,18.79,0,0,1-8.39,2.05l-1.92,0-.28,0c0-.09,0-.17,0-.24-.11-.6-.2-1.2-.32-1.8a38.19,38.19,0,0,0-1.68-5.84,3,3,0,0,1-.08-.32l.34-.2a5.34,5.34,0,0,0,2.52-5.7q-.19-1-.42-1.92a3.73,3.73,0,0,0-.21-.67,5.34,5.34,0,0,0-4.81-3.46l-.39,0,0-.07c-.05-.13-.1-.26-.14-.39a47.63,47.63,0,0,0-3.08-6.93,34.67,34.67,0,0,0-8.94-10.84,1.7,1.7,0,0,1-.19-.19c0-.14.08-.26.11-.38a5.57,5.57,0,0,0-1.3-5.36,4,4,0,0,0-3.47-1.41h-.33l-.45-.71L1446.81,73.3l-5.44-8.48a8.87,8.87,0,0,0-1-1.34,3.47,3.47,0,0,0-1.81-1.11s0,0-.07,0h-.85a.55.55,0,0,1-.15.08,2.34,2.34,0,0,0-1.34,1,4.05,4.05,0,0,0-.57,1.23,8.22,8.22,0,0,0-.26,1.71c-.13,1.9-.25,3.8-.38,5.7s-.25,3.84-.37,5.75-.25,3.83-.38,5.75-.24,3.8-.37,5.7-.25,3.87-.38,5.8-.25,3.8-.37,5.7-.25,3.83-.38,5.75-.25,3.83-.37,5.75-.25,3.83-.38,5.75c-.1,1.68-.21,3.37-.31,5,0,.62-.09,1.24-.14,1.87-.07,1.17-.14,2.33-.22,3.5a2,2,0,0,1,0,.28c-.35.2-.68.34-1,.54a3.87,3.87,0,0,0-1.53,2.07,5.63,5.63,0,0,0,1.34,5.81l.29.3-.19.45c-.23.62-.48,1.23-.69,1.85a34.73,34.73,0,0,0-1.76,10.15,44.23,44.23,0,0,0,.14,5.15c.12,1.39.3,2.76.52,4.14,0,.12,0,.24,0,.32a10.76,10.76,0,0,0-1,.74,5.24,5.24,0,0,0-1.72,5.49c.16.64.34,1.27.55,1.89a5.32,5.32,0,0,0,4,3.7l.36.1c0,.12,0,.21,0,.3a20.4,20.4,0,0,0,.57,3.89c0,.15,0,.3.07.45s-.19.1-.28.13c-.64.25-1.27.51-1.92.73a31.2,31.2,0,0,1-6.47,1.44c-1.18.13-2.37.22-3.55.25a61.08,61.08,0,0,1-7.53-.41l-3-.24c-.71,0-1.43-.1-2.15-.13-1.21,0-2.43-.09-3.65-.09-1,0-1.93,0-2.9.12a18.87,18.87,0,0,0-3.41.59,8.86,8.86,0,0,0-2.79,1.29,5.79,5.79,0,0,0-2.2,3,9.39,9.39,0,0,0-.24,1,.58.58,0,0,1-.18.41v1.31a.64.64,0,0,1,.17.38c0,.14,0,.27.07.41a6.46,6.46,0,0,0,2.06,3.49,10.59,10.59,0,0,0,3.26,1.91,20.78,20.78,0,0,0,5.56,1.21,29.77,29.77,0,0,0,3,.12,23.26,23.26,0,0,0,3.73-.29,12.85,12.85,0,0,1,2-.22,10.35,10.35,0,0,1,2.29.17,10.73,10.73,0,0,1,3.43,1.33,20,20,0,0,1,2.42,1.67c1.14.91,2.26,1.83,3.39,2.74a29.44,29.44,0,0,0,3.77,2.61,17.94,17.94,0,0,0,5,2,41.77,41.77,0,0,0,4.58.67c1.06.11,2.12.19,3.17.31,1.21.14,2.42.29,3.63.46a24.38,24.38,0,0,1,3.25.68,20.18,20.18,0,0,1,2.82,1.12c1.68.79,3.36,1.59,5,2.35a40.11,40.11,0,0,0,6,2.25,23.25,23.25,0,0,0,5.11.87,20,20,0,0,0,3.28-.14,41.57,41.57,0,0,0,4.29-.67,19.48,19.48,0,0,0,7.52-3.35c.85-.63,1.69-1.28,2.53-1.94a31.21,31.21,0,0,1,7.63-4.41,45,45,0,0,0,10.55-6,59,59,0,0,0,6.85-6.18c1.52-1.59,3-3.22,4.51-4.82l4.66-5c1-1.11,2-2.23,3.1-3.32a26.5,26.5,0,0,1,4.33-3.72,16.69,16.69,0,0,1,6-2.6c.68-.15,1.38-.27,2.06-.42a21.06,21.06,0,0,0,3.88-1.22,10.22,10.22,0,0,0,2.56-1.53,5.73,5.73,0,0,0,1.33-1.57,3.07,3.07,0,0,0,.44-1.41,1.38,1.38,0,0,1,.08-.27v-.75A1.57,1.57,0,0,1,1540.38,162Zm-68.67-44.48a2.2,2.2,0,0,1,.27.47l0,0,0,0-.18,0-.13,0c-4,.89-8.07,1.81-12.09,2.79l.6-.14.08-.12.12.07,3.46-.82-2.26-1.42,4.79-7.81,1.73,1.09-2.89-4.51Zm-25.1-19.23,7.7,4.85-4.78,7.82-7.71-4.85Zm-.81-3.51L1438.1,90l4.79-7.82,7.7,4.86Zm2.4,18.35-4.79,7.82-7.7-4.85,4.79-7.82Zm-4,11.32.54.35,1.4-.39-2.3.64Zm1.33-2.16,4.79-7.82,7.7,4.85-1.44,2.35q-3,.74-6,1.51l-2.54.7Zm6.11-10,4.79-7.82,7.7,4.85-4.78,7.82Zm13.13-5.56-7-4.43,2-3.33Zm-5.66-8.83-.83-1.29-2.66,4.35-7.7-4.85,4.79-7.82.39.24Q1456.12,93.27,1459.13,97.94Zm-9.24-14.4L1444.21,80l1.66-2.7Zm-12-12.34c.08-1.21.16-2.42.25-3.63l.71-1.17,6.66,10.38-1.2-1.86-2.27,3.7-4.45-2.8Zm-.75,11.46c.09-1.32.18-2.64.26-4l3.31,2.09-3.86,6.3c0,.44-.05.88-.08,1.32Zm-1.12,17.25c.12-1.92.25-3.84.37-5.75,0-.56.07-1.11.11-1.67l.23-.38,7.71,4.86-4.79,7.82-3.8-2.39C1436,101.57,1436,100.74,1436.06,99.91Zm-1.79,27.39c.08-1.15.16-2.3.23-3.46l.12-1.68c.1-1.68.2-3.37.31-5q.19-2.85.37-5.7c.13-1.93.26-3.87.38-5.8l0-.33,2.65,1.67-3.09,5c-.12,1.71-.23,3.41-.34,5.11l-.09,1.46,7.25,4.56-1.8,2.93-5.71,1.66-.09,0h-.22C1434.27,127.58,1434.26,127.44,1434.27,127.3Zm-2.74,4.83a1.1,1.1,0,0,1,.73-.66c1.43-.41,2.84-.84,4.27-1.26,4.16-1.22,8.33-2.42,12.51-3.55s8.48-2.24,12.75-3.23q5.85-1.37,11.72-2.69c.67-.15,1.35-.27,2-.44a1.06,1.06,0,0,1,1,.24,2.77,2.77,0,0,1,.86,2.63,3.29,3.29,0,0,1-.16.44,1,1,0,0,1-.75.56l-1.69.38c-3.11.69-6.22,1.38-9.32,2.1q-5.46,1.26-10.9,2.67c-3.77,1-7.51,2-11.24,3.07l-9.93,2.9a1,1,0,0,1-.77,0,2.9,2.9,0,0,1-.53-.39,2.32,2.32,0,0,1-.56-1,2.85,2.85,0,0,1-.17-1A2.36,2.36,0,0,1,1431.53,132.13Zm.76,9.2a25.27,25.27,0,0,1,1-2.72c0-.1.1-.2.15-.31,4.9-1.41,9.8-2.83,14.71-4.21s9.58-2.58,14.4-3.73q7-1.68,14-3.2l1.28-.3.38.28a29.46,29.46,0,0,1,6,6.43,41.53,41.53,0,0,1,4.68,9c.13.32.24.64.36,1l-.22.09-1.6.34-.55.14a7.56,7.56,0,0,1-1.71.22,4.28,4.28,0,0,1-2.76-1,6.09,6.09,0,0,1-1.15-1.23c-.5-.7-1-1.42-1.45-2.13s-.85-1.27-1.3-1.89a7.82,7.82,0,0,0-1.24-1.33,4.88,4.88,0,0,0-4.42-1.09,5.93,5.93,0,0,0-.85.24,3.44,3.44,0,0,0-2.3,2.78,7.72,7.72,0,0,0-.11,1.17c0,.53,0,1.06,0,1.59a8.82,8.82,0,0,1,0,.89,1.32,1.32,0,0,1-1,1.25,5.8,5.8,0,0,1-.82.21,1.32,1.32,0,0,1-1.12-.35,3.67,3.67,0,0,1-.59-.66,8.46,8.46,0,0,1-.63-1c-.39-.82-.75-1.65-1.13-2.47s-.61-1.34-.95-2a6,6,0,0,0-1.25-1.68,3,3,0,0,0-2.22-.84,4.94,4.94,0,0,0-1,.16,3.17,3.17,0,0,0-2.24,2,5.69,5.69,0,0,0-.38,1.82,20.73,20.73,0,0,0,0,3,38.09,38.09,0,0,1,.23,4.77,10.45,10.45,0,0,1-.36,2.36,5.33,5.33,0,0,1-2.76,3.38,10,10,0,0,1-2,.75l-2.53.68c-5.67,1.54-11.34,3.09-17,4.72l-.36.09a.52.52,0,0,1-.15-.39c-.17-1.17-.32-2.35-.41-3.53-.1-1.44-.17-2.87-.13-4.31A33.11,33.11,0,0,1,1432.29,141.33Zm26.75,1.53c-.09-1.14-.22-2.27-.2-3.42a7.91,7.91,0,0,1,.07-1,2.3,2.3,0,0,1,.18-.58.92.92,0,0,1,.6-.49.69.69,0,0,1,.81.22,5,5,0,0,1,.53.77c.31.59.6,1.2.88,1.81s.62,1.43.95,2.14a11.58,11.58,0,0,0,1.07,1.87,6.59,6.59,0,0,0,.94,1.1,4,4,0,0,0,2,1,3.81,3.81,0,0,0,1.26,0,5.9,5.9,0,0,0,1.7-.48,3.81,3.81,0,0,0,2.29-3,8.87,8.87,0,0,0,.09-1.63c0-.58,0-1.16,0-1.73a3,3,0,0,1,.08-.51.87.87,0,0,1,.54-.61,2.53,2.53,0,0,1,2.91.49,6.54,6.54,0,0,1,.74.84c.41.57.79,1.16,1.18,1.74s.7,1.08,1.06,1.6a11.27,11.27,0,0,0,2.06,2.3l.16.1,0,.11c-7.57,1.8-15.12,3.7-22.65,5.64a.53.53,0,0,1-.17,0c0-.08.05-.16.08-.22a10.75,10.75,0,0,0,.95-3.7A24.75,24.75,0,0,0,1459,142.86Zm-29.76,23.81c-.19-.6-.36-1.2-.54-1.8a2.21,2.21,0,0,1,1.52-2.72l2.56-.74c4.56-1.27,9.11-2.55,13.66-3.8q8.8-2.43,17.65-4.66c4.7-1.18,9.41-2.36,14.12-3.51,3.76-.92,7.53-1.79,11.3-2.67.85-.2,1.7-.37,2.55-.59a2.22,2.22,0,0,1,2.7,1.68c.12.55.24,1.1.37,1.65a2.2,2.2,0,0,1-.19,1.59,2.16,2.16,0,0,1-1.44,1.11l-2.83.65-11.7,2.77q-4.48,1.08-9,2.21-13.36,3.34-26.65,7c-3.71,1-7.41,2.1-11.12,3.14-.3.09-.61.14-.77.18A2.28,2.28,0,0,1,1429.28,166.67Zm107.52-3.44a4.34,4.34,0,0,1-.52.53,6.05,6.05,0,0,1-1.4.84,16.53,16.53,0,0,1-3.43,1.1c-.83.19-1.68.32-2.52.52a19.8,19.8,0,0,0-6.56,2.9,28.44,28.44,0,0,0-4.36,3.61c-.72.71-1.42,1.45-2.11,2.19q-2.24,2.36-4.46,4.74c-1.86,2-3.7,4-5.55,6a67.07,67.07,0,0,1-5.37,5.16,42.09,42.09,0,0,1-11.59,7.06,34.91,34.91,0,0,0-6.1,3.16c-1,.67-2,1.41-2.95,2.16-.63.48-1.26,1-1.9,1.44a16,16,0,0,1-6.23,2.8,29.3,29.3,0,0,1-3.6.57c-.7.07-1.4.15-2.1.17a17,17,0,0,1-4.82-.6,31.93,31.93,0,0,1-5.28-1.89c-1.82-.82-3.63-1.67-5.44-2.51a26.25,26.25,0,0,0-3.2-1.32,27.15,27.15,0,0,0-3.32-.79c-1.49-.26-3-.44-4.5-.59-1.21-.11-2.43-.23-3.64-.37a33.93,33.93,0,0,1-3.88-.58,15.29,15.29,0,0,1-5-2.18c-1.11-.73-2.15-1.56-3.18-2.39s-2.18-1.77-3.3-2.63a18,18,0,0,0-2.88-1.83,13.65,13.65,0,0,0-4.3-1.4,13.19,13.19,0,0,0-3.55-.06c-.66.07-1.32.2-2,.28a21.58,21.58,0,0,1-3.41.16c-.7,0-1.41-.07-2.11-.14a16.17,16.17,0,0,1-4.54-1,6.75,6.75,0,0,1-1-.46,7.25,7.25,0,0,1-1-.71,3,3,0,0,1-1-3.35,2.16,2.16,0,0,1,.73-1.12,4.39,4.39,0,0,1,1.3-.73,10.9,10.9,0,0,1,2.32-.56,25.71,25.71,0,0,1,3.92-.24c1.25,0,2.5.06,3.75.12s2.21.14,3.32.22l2.75.26c1.26.12,2.52.2,3.78.25a43.14,43.14,0,0,0,4.69-.11c1.13-.08,2.26-.22,3.39-.4a34.61,34.61,0,0,0,7.13-1.91l.45-.17c.08.18.14.34.2.5a26.26,26.26,0,0,0,1.82,4.1,21.5,21.5,0,0,0,4.28,5.35,38.63,38.63,0,0,0,4.91,3.75l1.62,1a1.73,1.73,0,0,0,2.61-1.15,1.62,1.62,0,0,0-.59-1.64,4.39,4.39,0,0,0-.5-.34,49.65,49.65,0,0,1-4.14-2.91,22.77,22.77,0,0,1-3.49-3.38,18.61,18.61,0,0,1-3.14-5.62,31.84,31.84,0,0,1-1.55-5.92c-.12-.71-.14-1.43-.2-2.15a.79.79,0,0,1,0-.21c.13,0,.25-.1.38-.13q10.53-3,21.11-5.83,9.18-2.44,18.4-4.73c4.88-1.2,9.77-2.35,14.65-3.52l3-.7c.14,0,.28,0,.43-.06.08.18.15.33.21.49A35,35,0,0,1,1494,163a23.26,23.26,0,0,1,.28,4.86,21.67,21.67,0,0,1-5.33,13.55c-.13.15-.27.3-.39.46a1.72,1.72,0,0,0,.91,2.71,1.64,1.64,0,0,0,1.71-.47c.2-.21.38-.42.56-.64a25.25,25.25,0,0,0,5.48-11.4,28.23,28.23,0,0,0,.53-5v-.44a2.07,2.07,0,0,1,.3-.05l1.4,0a27.59,27.59,0,0,0,3.74-.3,21.73,21.73,0,0,0,4.93-1.42,33.36,33.36,0,0,0,4.21-2.15A31.94,31.94,0,0,1,1518,160a23.68,23.68,0,0,1,4.91-1.15,22.62,22.62,0,0,1,4.58-.06,29.39,29.39,0,0,1,5.81,1.2,10.18,10.18,0,0,1,1.93.72,4.67,4.67,0,0,1,1.19.82,3.37,3.37,0,0,1,.48.58A.83.83,0,0,1,1536.8,163.23Z"/><path class="cls-4" d="M1477.94,219.23a1.72,1.72,0,0,0-.62-.19,2.76,2.76,0,0,1-2.06-1.86,2.88,2.88,0,0,1,0-1.88A4.35,4.35,0,0,1,1476,214a9.14,9.14,0,0,1,3.12-2.64,6.48,6.48,0,0,1,2-.71c.78-.12,1.56-.28,2.35-.39a3.41,3.41,0,0,1,3.24,1.28,4.27,4.27,0,0,1,1,2,3.16,3.16,0,0,1-.36,2.17,4.46,4.46,0,0,1-1.06,1.23,7.67,7.67,0,0,1-2.42,1.3,19.24,19.24,0,0,1-3.42.78c-.27,0-.54.11-.82.17Zm.8-2.62a16,16,0,0,0,4.48-.86,4.5,4.5,0,0,0,1.28-.68,4,4,0,0,0,.47-.45.71.71,0,0,0,.1-.82,2.47,2.47,0,0,0-.51-.72.71.71,0,0,0-.55-.23c-.22,0-.44,0-.65.05-.5.08-1,.19-1.48.25a5.41,5.41,0,0,0-2.57,1.15,6.22,6.22,0,0,0-.68.57,9.06,9.06,0,0,0-.64.75,2.3,2.3,0,0,0-.24.5c-.08.24,0,.36.24.4S1478.55,216.59,1478.74,216.61Z"/><path class="cls-4" d="M1418.78,175.13a15.68,15.68,0,0,1-2.55-.37c-.64-.13-1.28-.26-1.92-.37a4.11,4.11,0,0,0-1.31,0,19.86,19.86,0,0,1-3.35.29,6.6,6.6,0,0,1-2.21-.35,3.39,3.39,0,0,1-2.07-1.85,3,3,0,0,1-.22-1.78,2.54,2.54,0,0,1,1-1.59,4.59,4.59,0,0,1,1.49-.77,10.94,10.94,0,0,1,2.19-.46,18.06,18.06,0,0,0,3.48-.71,12.28,12.28,0,0,1,1.81-.45,6.89,6.89,0,0,1,4,.51,10.26,10.26,0,0,1,2.54,1.65,5.57,5.57,0,0,1,1,1.13,2.79,2.79,0,0,1-.42,3.74,4.57,4.57,0,0,1-2.4,1.29C1419.5,175.09,1419.14,175.1,1418.78,175.13Zm-2.48-5.92c-.34,0-.69.07-1,.14s-.94.22-1.41.34a16.74,16.74,0,0,1-2.22.55c-.58.08-1.17.15-1.75.25s-1,.22-1.55.35a1.92,1.92,0,0,0-.51.22.22.22,0,0,0-.1.32.66.66,0,0,0,.19.27,1.45,1.45,0,0,0,.44.24,3.75,3.75,0,0,0,1.15.19,16.5,16.5,0,0,0,2.89-.24,7.55,7.55,0,0,1,2.51,0c.63.11,1.25.23,1.88.36a15.93,15.93,0,0,0,1.94.29,2.1,2.1,0,0,0,1.7-.63.31.31,0,0,0,0-.49,3.78,3.78,0,0,0-.5-.56,7.73,7.73,0,0,0-1.53-1.06A4.36,4.36,0,0,0,1416.3,169.21Z"/><path class="cls-4" d="M1498.25,209.26a7.37,7.37,0,0,1-1.69-.23,3.07,3.07,0,0,1-2.25-3.31,3.38,3.38,0,0,1,.92-2.16,5.79,5.79,0,0,1,1.34-1.07,13.54,13.54,0,0,1,2.07-1l1.66-.65a3.85,3.85,0,0,0,1.64-1.2c.26-.31.5-.64.74-1s.55-.76.85-1.11a5.37,5.37,0,0,1,3.32-1.87,16.84,16.84,0,0,1,2.23-.22,4.47,4.47,0,0,1,3.09,1,10.77,10.77,0,0,1,.92.87,2.82,2.82,0,0,1,.34,3.43,5.4,5.4,0,0,1-1.18,1.38,10.63,10.63,0,0,1-2.23,1.47,10.93,10.93,0,0,0-2.1,1.39c-.6.5-1.18,1-1.79,1.52a10.64,10.64,0,0,1-2.27,1.47,12.93,12.93,0,0,1-2,.67A14.9,14.9,0,0,1,1498.25,209.26Zm0-2.58.77-.07a17.34,17.34,0,0,0,2.56-.52,7.1,7.1,0,0,0,2.84-1.48c.38-.32.77-.64,1.14-1a16.13,16.13,0,0,1,3.49-2.42,6.75,6.75,0,0,0,1.65-1.14,4.46,4.46,0,0,0,.49-.57.32.32,0,0,0,0-.43,2.44,2.44,0,0,0-2.24-1c-.5.06-1,.1-1.49.17a2.9,2.9,0,0,0-2,1.11l-.56.75c-.28.38-.55.76-.85,1.12a6.63,6.63,0,0,1-2.71,2c-.43.17-.87.33-1.3.51-.59.25-1.19.49-1.76.77a6.64,6.64,0,0,0-.9.59,1.13,1.13,0,0,0-.41.61.59.59,0,0,0,.48.84C1497.7,206.63,1498,206.65,1498.23,206.68Z"/><path class="cls-2" d="M1432.27,179.38c.08.18.14.34.2.5a26.26,26.26,0,0,0,1.82,4.1,21.5,21.5,0,0,0,4.28,5.35,38.63,38.63,0,0,0,4.91,3.75l1.62,1a1.73,1.73,0,0,0,2.61-1.15,1.62,1.62,0,0,0-.59-1.64,4.39,4.39,0,0,0-.5-.34,49.65,49.65,0,0,1-4.14-2.91,22.77,22.77,0,0,1-3.49-3.38,18.61,18.61,0,0,1-3.14-5.62,31.84,31.84,0,0,1-1.55-5.92c-.12-.71-.14-1.43-.2-2.15a.79.79,0,0,1,0-.21c.13,0,.25-.1.38-.13q10.53-3,21.11-5.83,9.18-2.44,18.4-4.73c4.88-1.2,9.77-2.35,14.65-3.52l3-.7c.14,0,.28,0,.43-.06.08.18.15.33.21.49A35,35,0,0,1,1494,163a23.26,23.26,0,0,1,.28,4.86,21.67,21.67,0,0,1-5.33,13.55c-.13.15-.27.3-.39.46a1.72,1.72,0,0,0,.91,2.71,1.64,1.64,0,0,0,1.71-.47c.2-.21.38-.42.56-.64a25.25,25.25,0,0,0,5.48-11.4,28.23,28.23,0,0,0,.53-5v-.44a2.07,2.07,0,0,1,.3-.05l1.4,0a27.59,27.59,0,0,0,3.74-.3,21.73,21.73,0,0,0,4.93-1.42,33.36,33.36,0,0,0,4.21-2.15A31.94,31.94,0,0,1,1518,160a23.68,23.68,0,0,1,4.91-1.15,22.62,22.62,0,0,1,4.58-.06,29.39,29.39,0,0,1,5.81,1.2,10.18,10.18,0,0,1,1.93.72,4.67,4.67,0,0,1,1.19.82,3.37,3.37,0,0,1,.48.58.83.83,0,0,1,0,1.08,4.34,4.34,0,0,1-.52.53,6.05,6.05,0,0,1-1.4.84,16.53,16.53,0,0,1-3.43,1.1c-.83.19-1.68.32-2.52.52a19.8,19.8,0,0,0-6.56,2.9,28.44,28.44,0,0,0-4.36,3.61c-.72.71-1.42,1.45-2.11,2.19q-2.24,2.36-4.46,4.74c-1.86,2-3.7,4-5.55,6a67.07,67.07,0,0,1-5.37,5.16,42.09,42.09,0,0,1-11.59,7.06,34.91,34.91,0,0,0-6.1,3.16c-1,.67-2,1.41-2.95,2.16-.63.48-1.26,1-1.9,1.44a16,16,0,0,1-6.23,2.8,29.3,29.3,0,0,1-3.6.57c-.7.07-1.4.15-2.1.17a17,17,0,0,1-4.82-.6,31.93,31.93,0,0,1-5.28-1.89c-1.82-.82-3.63-1.67-5.44-2.51a26.25,26.25,0,0,0-3.2-1.32,27.15,27.15,0,0,0-3.32-.79c-1.49-.26-3-.44-4.5-.59-1.21-.11-2.43-.23-3.64-.37a33.93,33.93,0,0,1-3.88-.58,15.29,15.29,0,0,1-5-2.18c-1.11-.73-2.15-1.56-3.18-2.39s-2.18-1.77-3.3-2.63a18,18,0,0,0-2.88-1.83,13.65,13.65,0,0,0-4.3-1.4,13.19,13.19,0,0,0-3.55-.06c-.66.07-1.32.2-2,.28a21.58,21.58,0,0,1-3.41.16c-.7,0-1.41-.07-2.11-.14a16.17,16.17,0,0,1-4.54-1,6.75,6.75,0,0,1-1-.46,7.25,7.25,0,0,1-1-.71,3,3,0,0,1-1-3.35,2.16,2.16,0,0,1,.73-1.12,4.39,4.39,0,0,1,1.3-.73,10.9,10.9,0,0,1,2.32-.56,25.71,25.71,0,0,1,3.92-.24c1.25,0,2.5.06,3.75.12s2.21.14,3.32.22l2.75.26c1.26.12,2.52.2,3.78.25a43.14,43.14,0,0,0,4.69-.11c1.13-.08,2.26-.22,3.39-.4a34.61,34.61,0,0,0,7.13-1.91Z"/><path class="cls-6" d="M1449.89,83.54l-4-6.27-1.66,2.7ZM1444.48,97l-7.71-4.86-.23.38c0,.56-.07,1.11-.11,1.67-.12,1.91-.25,3.83-.37,5.75-.06.83-.11,1.66-.17,2.49l3.8,2.39Zm-3.73-16.18-3.31-2.09c-.08,1.32-.17,2.64-.26,4l-.37,5.75c0-.44,0-.88.08-1.32Zm3.6-5.87,1.2,1.86-6.66-10.38-.71,1.17c-.09,1.21-.17,2.42-.25,3.63l-.3,4.62,4.45,2.8ZM1455.64,101l2.66-4.35.83,1.29q-3-4.68-6-9.37l-.39-.24-4.79,7.82ZM1438.1,90l7.7,4.85,4.79-7.81-7.7-4.86Zm3.72,16.18,7.71,4.85,4.78-7.82-7.7-4.85Zm23,.64-5-7.76-2,3.33Zm-26.43.18-2.65-1.67,0,.33c-.12,1.93-.25,3.87-.38,5.8s-.24,3.8-.37,5.7c.11-1.7.22-3.4.34-5.11Zm33.35,10.59-6.58-10.25,2.89,4.51-1.73-1.09-4.79,7.81,2.26,1.42-3.46.82-.12-.07-.08.12-.6.14c4-1,8-1.9,12.09-2.79l.13,0,.18,0,0,0,0,0A2.2,2.2,0,0,0,1471.71,117.54Zm-26.16,4.77,2.52,1.59,2.54-.7q3-.78,6-1.51l1.44-2.35-7.7-4.85Zm10.9-17.8-4.79,7.82,7.71,4.85,4.78-7.82Zm-21.52,12.6c-.11,1.68-.21,3.37-.31,5l-.12,1.68c-.07,1.16-.15,2.31-.23,3.46,0,.14,0,.28,0,.45h.22l.09,0,5.71-1.66,1.8-2.93-7.25-4.56Zm5.57-8.81-4.79,7.82,7.7,4.85,4.79-7.82Zm3.72,16.17-.36.6,2.3-.64-1.4.39Z"/><path class="cls-5" d="M1477.85,126.86l.38.28a29.46,29.46,0,0,1,6,6.43,41.53,41.53,0,0,1,4.68,9c.13.32.24.64.36,1l-.22.09-1.6.34-.55.14a7.56,7.56,0,0,1-1.71.22,4.28,4.28,0,0,1-2.76-1,6.09,6.09,0,0,1-1.15-1.23c-.5-.7-1-1.42-1.45-2.13s-.85-1.27-1.3-1.89a7.82,7.82,0,0,0-1.24-1.33,4.88,4.88,0,0,0-4.42-1.09,5.93,5.93,0,0,0-.85.24,3.44,3.44,0,0,0-2.3,2.78,7.72,7.72,0,0,0-.11,1.17c0,.53,0,1.06,0,1.59a8.82,8.82,0,0,1,0,.89,1.32,1.32,0,0,1-1,1.25,5.8,5.8,0,0,1-.82.21,1.32,1.32,0,0,1-1.12-.35,3.67,3.67,0,0,1-.59-.66,8.46,8.46,0,0,1-.63-1c-.39-.82-.75-1.65-1.13-2.47s-.61-1.34-.95-2a6,6,0,0,0-1.25-1.68,3,3,0,0,0-2.22-.84,4.94,4.94,0,0,0-1,.16,3.17,3.17,0,0,0-2.24,2,5.69,5.69,0,0,0-.38,1.82,20.73,20.73,0,0,0,0,3,38.09,38.09,0,0,1,.23,4.77,10.45,10.45,0,0,1-.36,2.36,5.33,5.33,0,0,1-2.76,3.38,10,10,0,0,1-2,.75l-2.53.68c-5.67,1.54-11.34,3.09-17,4.72l-.36.09a.52.52,0,0,1-.15-.39c-.17-1.17-.32-2.35-.41-3.53-.1-1.44-.17-2.87-.13-4.31a33.11,33.11,0,0,1,1.38-8.9,25.27,25.27,0,0,1,1-2.72c0-.1.1-.2.15-.31,4.9-1.41,9.8-2.83,14.71-4.21s9.58-2.58,14.4-3.73q7-1.68,14-3.2Z"/><path class="cls-5" d="M1431.52,168.19a2.28,2.28,0,0,1-2.24-1.52c-.19-.6-.36-1.2-.54-1.8a2.21,2.21,0,0,1,1.52-2.72l2.56-.74c4.56-1.27,9.11-2.55,13.66-3.8q8.8-2.43,17.65-4.66c4.7-1.18,9.41-2.36,14.12-3.51,3.76-.92,7.53-1.79,11.3-2.67.85-.2,1.7-.37,2.55-.59a2.22,2.22,0,0,1,2.7,1.68c.12.55.24,1.1.37,1.65a2.2,2.2,0,0,1-.19,1.59,2.16,2.16,0,0,1-1.44,1.11l-2.83.65-11.7,2.77q-4.48,1.08-9,2.21-13.36,3.34-26.65,7c-3.71,1-7.41,2.1-11.12,3.14C1432,168.1,1431.68,168.15,1431.52,168.19Z"/><path class="cls-5" d="M1431.36,133a2.36,2.36,0,0,1,.17-.87,1.1,1.1,0,0,1,.73-.66c1.43-.41,2.84-.84,4.27-1.26,4.16-1.22,8.33-2.42,12.51-3.55s8.48-2.24,12.75-3.23q5.85-1.37,11.72-2.69c.67-.15,1.35-.27,2-.44a1.06,1.06,0,0,1,1,.24,2.77,2.77,0,0,1,.86,2.63,3.29,3.29,0,0,1-.16.44,1,1,0,0,1-.75.56l-1.69.38c-3.11.69-6.22,1.38-9.32,2.1q-5.46,1.26-10.9,2.67c-3.77,1-7.51,2-11.24,3.07l-9.93,2.9a1,1,0,0,1-.77,0,2.9,2.9,0,0,1-.53-.39,2.32,2.32,0,0,1-.56-1A2.85,2.85,0,0,1,1431.36,133Z"/><path class="cls-7" d="M1458.46,150.88c8.15-2.11,15.36-3.9,22-5.49a11.12,11.12,0,0,1-2-2.22c-.22-.32-.44-.65-.65-1l-.41-.62-.23-.34c-.3-.47-.62-.94-1-1.4a7,7,0,0,0-.71-.81,2.11,2.11,0,0,0-1.52-.66,3.3,3.3,0,0,0-1.13.23.6.6,0,0,0-.39.44,1.83,1.83,0,0,0-.07.45c0,.62,0,1.22,0,1.72a9.93,9.93,0,0,1-.09,1.68,4,4,0,0,1-2.43,3.23,6.56,6.56,0,0,1-1.77.51,4.15,4.15,0,0,1-3.46-1.13,6.45,6.45,0,0,1-1-1.14,12.17,12.17,0,0,1-1.09-1.91c-.17-.37-.33-.74-.49-1.1s-.3-.7-.46-1c-.27-.58-.55-1.19-.87-1.8a3.84,3.84,0,0,0-.42-.6l-.1-.13a.4.4,0,0,0-.33-.17.59.59,0,0,0-.21,0,.62.62,0,0,0-.44.35,1.83,1.83,0,0,0-.16.51,6.19,6.19,0,0,0-.08.95c0,.89.07,1.81.14,2.69,0,.23,0,.46.06.7a25.19,25.19,0,0,1,.08,4.44A11.18,11.18,0,0,1,1458.46,150.88Z"/><path class="cls-2" d="M1478.74,216.61c-.19,0-.47,0-.75-.09s-.32-.16-.24-.4a2.3,2.3,0,0,1,.24-.5,9.06,9.06,0,0,1,.64-.75,6.22,6.22,0,0,1,.68-.57,5.41,5.41,0,0,1,2.57-1.15c.5-.06,1-.17,1.48-.25.21,0,.43,0,.65-.05a.71.71,0,0,1,.55.23,2.47,2.47,0,0,1,.51.72.71.71,0,0,1-.1.82,4,4,0,0,1-.47.45,4.5,4.5,0,0,1-1.28.68A16,16,0,0,1,1478.74,216.61Z"/><path class="cls-2" d="M1416.3,169.21a4.36,4.36,0,0,1,2.15.56,7.73,7.73,0,0,1,1.53,1.06,3.78,3.78,0,0,1,.5.56.31.31,0,0,1,0,.49,2.1,2.1,0,0,1-1.7.63,15.93,15.93,0,0,1-1.94-.29c-.63-.13-1.25-.25-1.88-.36a7.55,7.55,0,0,0-2.51,0,16.5,16.5,0,0,1-2.89.24,3.75,3.75,0,0,1-1.15-.19,1.45,1.45,0,0,1-.44-.24.66.66,0,0,1-.19-.27.22.22,0,0,1,.1-.32,1.92,1.92,0,0,1,.51-.22c.51-.13,1-.26,1.55-.35s1.17-.17,1.75-.25a16.74,16.74,0,0,0,2.22-.55c.47-.12.94-.24,1.41-.34S1416,169.26,1416.3,169.21Z"/><path class="cls-2" d="M1498.23,206.68c-.23,0-.53-.05-.82-.11a.59.59,0,0,1-.48-.84,1.13,1.13,0,0,1,.41-.61,6.64,6.64,0,0,1,.9-.59c.57-.28,1.17-.52,1.76-.77.43-.18.87-.34,1.3-.51a6.63,6.63,0,0,0,2.71-2c.3-.36.57-.74.85-1.12l.56-.75a2.9,2.9,0,0,1,2-1.11c.49-.07,1-.11,1.49-.17a2.44,2.44,0,0,1,2.24,1,.32.32,0,0,1,0,.43,4.46,4.46,0,0,1-.49.57,6.75,6.75,0,0,1-1.65,1.14,16.13,16.13,0,0,0-3.49,2.42c-.37.33-.76.65-1.14,1a7.1,7.1,0,0,1-2.84,1.48,17.34,17.34,0,0,1-2.56.52Z"/></g><g id="Smiley"><path class="cls-4" d="M1128.17,142.5a14.71,14.71,0,0,1-4-1.75,17.58,17.58,0,0,1-5.37-5.18,19.21,19.21,0,0,1-3.36-12.28,16.71,16.71,0,0,1,1.09-5,14.93,14.93,0,0,1,5.24-6.83,17.14,17.14,0,0,1,10.67-3.13,21.57,21.57,0,0,1,2.41.21,15.14,15.14,0,0,1,3.56.91,16.27,16.27,0,0,1,5,3.13,19.19,19.19,0,0,1,5.4,8.46,18.91,18.91,0,0,1,.8,7.87,16.77,16.77,0,0,1-.82,3.7,15.2,15.2,0,0,1-3.91,6.15,15.82,15.82,0,0,1-7.29,3.91,20.42,20.42,0,0,1-7.35.34C1129.56,142.82,1128.86,142.69,1128.17,142.5Zm-.47-30.71a12.81,12.81,0,0,0-6.46,4.15,12.17,12.17,0,0,0-2.34,4.44,15.86,15.86,0,0,0,.57,10.31A15.61,15.61,0,0,0,1124,137a13.21,13.21,0,0,0,4.2,2.44,12.35,12.35,0,0,0,2.75.64,18,18,0,0,0,4.08,0,14,14,0,0,0,6.25-2.24,12.18,12.18,0,0,0,4.73-6,13.71,13.71,0,0,0,.82-3.9A16.31,16.31,0,0,0,1144,117.5a14.41,14.41,0,0,0-5-4.64,12.53,12.53,0,0,0-3.86-1.4A16.86,16.86,0,0,0,1127.7,111.79Z"/><path class="cls-5" d="M1139,112.86a14.41,14.41,0,0,1,5,4.64,16.31,16.31,0,0,1,2.84,10.45,13.71,13.71,0,0,1-.82,3.9,12.18,12.18,0,0,1-4.73,6,14,14,0,0,1-6.25,2.24,18,18,0,0,1-4.08,0,12.35,12.35,0,0,1-2.75-.64A13.21,13.21,0,0,1,1124,137a15.61,15.61,0,0,1-4.49-6.33,15.86,15.86,0,0,1-.57-10.31,12.17,12.17,0,0,1,2.34-4.44,12.81,12.81,0,0,1,6.46-4.15,16.86,16.86,0,0,1,7.4-.33A12.53,12.53,0,0,1,1139,112.86Zm-3.81,22.94a8.76,8.76,0,0,0,3.54-2,11.75,11.75,0,0,0,2.87-4,1.73,1.73,0,0,0,.15-.49,1.15,1.15,0,0,0-.82-1.28,1.18,1.18,0,0,0-1.36.53c0,.09-.09.19-.14.29a9.17,9.17,0,0,1-2.35,3.2,6.25,6.25,0,0,1-3.84,1.6,7.33,7.33,0,0,1-6.53-3,6.83,6.83,0,0,1-1-1.72,1.22,1.22,0,0,0-.69-.7,1.16,1.16,0,0,0-1.58,1.36,1.42,1.42,0,0,0,.11.35,10,10,0,0,0,5.48,5.43,7.21,7.21,0,0,0,1.93.52A9.17,9.17,0,0,0,1135.15,135.8ZM1126.66,123a3,3,0,0,0,.43,1,2.74,2.74,0,0,0,.47.55,1.29,1.29,0,0,0,1.73,0,2.18,2.18,0,0,0,.5-.63,3.58,3.58,0,0,0,.4-1.09,4.82,4.82,0,0,0-.14-2.47,3.15,3.15,0,0,0-.35-.77,2.43,2.43,0,0,0-.44-.52,1.28,1.28,0,0,0-1.76,0,2.36,2.36,0,0,0-.67,1c-.1.27-.17.56-.26.84A5.89,5.89,0,0,0,1126.66,123Zm11.59-2.31a2.91,2.91,0,0,0-.65-1.11,1.48,1.48,0,0,0-.64-.4,1.28,1.28,0,0,0-1.15.22,2.22,2.22,0,0,0-.75,1,4.8,4.8,0,0,0,0,3.44,2.43,2.43,0,0,0,.56.92,1.46,1.46,0,0,0,.56.39,1.28,1.28,0,0,0,1.39-.28,2.63,2.63,0,0,0,.71-1.16c.08-.24.13-.49.19-.74A5.07,5.07,0,0,0,1138.25,120.73Z"/><path class="cls-4" d="M1130.94,135.94a9.17,9.17,0,0,0,4.21-.14,8.76,8.76,0,0,0,3.54-2,11.75,11.75,0,0,0,2.87-4,1.73,1.73,0,0,0,.15-.49,1.15,1.15,0,0,0-.82-1.28,1.18,1.18,0,0,0-1.36.53c0,.09-.09.19-.14.29a9.17,9.17,0,0,1-2.35,3.2,6.25,6.25,0,0,1-3.84,1.6,7.33,7.33,0,0,1-6.53-3,6.83,6.83,0,0,1-1-1.72,1.22,1.22,0,0,0-.69-.7,1.16,1.16,0,0,0-1.58,1.36,1.42,1.42,0,0,0,.11.35,10,10,0,0,0,5.48,5.43A7.21,7.21,0,0,0,1130.94,135.94Z"/><path class="cls-4" d="M1126.57,121a5.89,5.89,0,0,0,.09,2.05,3,3,0,0,0,.43,1,2.74,2.74,0,0,0,.47.55,1.29,1.29,0,0,0,1.73,0,2.18,2.18,0,0,0,.5-.63,3.58,3.58,0,0,0,.4-1.09,4.82,4.82,0,0,0-.14-2.47,3.15,3.15,0,0,0-.35-.77,2.43,2.43,0,0,0-.44-.52,1.28,1.28,0,0,0-1.76,0,2.36,2.36,0,0,0-.67,1C1126.73,120.42,1126.66,120.71,1126.57,121Z"/><path class="cls-4" d="M1138.45,123.05a5.07,5.07,0,0,0-.2-2.32,2.91,2.91,0,0,0-.65-1.11,1.48,1.48,0,0,0-.64-.4,1.28,1.28,0,0,0-1.15.22,2.22,2.22,0,0,0-.75,1,4.8,4.8,0,0,0,0,3.44,2.43,2.43,0,0,0,.56.92,1.46,1.46,0,0,0,.56.39,1.28,1.28,0,0,0,1.39-.28,2.63,2.63,0,0,0,.71-1.16C1138.34,123.55,1138.39,123.3,1138.45,123.05Z"/></g></g><g id="Calque_3" data-name="Calque 3"><path class="cls-1" d="M1614,197.32h0c-1.37.12-2.42.17-3.32.17-2.18,0-3.56-.33-4.37-1-1.3-1.13-1.71-3.81-1.93-7.58a1.16,1.16,0,0,0-1.29-1,1.14,1.14,0,0,0-1,1.19c.45,7.73-.67,8.77-5.26,9.54-.92.15-2,.28-3.44.4a1.14,1.14,0,0,0,.25,2.26h0c1.37-.11,2.43-.16,3.33-.16,2.17,0,3.56.32,4.37,1,1.3,1.14,1.71,3.82,1.93,7.58a1.16,1.16,0,0,0,1.13,1h.19a1.14,1.14,0,0,0,.95-1.19c-.45-7.73.67-8.77,5.27-9.54.91-.16,2-.29,3.36-.4l.13,0a1.13,1.13,0,0,0,.91-1.3A1.17,1.17,0,0,0,1614,197.32Z"/><path class="cls-1" d="M289.83,74.3h0c-1.37.11-2.42.17-3.32.17-2.18,0-3.56-.33-4.37-1-1.3-1.13-1.71-3.82-1.93-7.58a1.16,1.16,0,0,0-1.29-1,1.14,1.14,0,0,0-1,1.19c.45,7.73-.67,8.77-5.26,9.55-.92.15-2,.28-3.44.4a1.14,1.14,0,0,0,.25,2.26h0c1.37-.11,2.43-.17,3.33-.17,2.17,0,3.56.33,4.37,1,1.3,1.13,1.71,3.82,1.93,7.58a1.16,1.16,0,0,0,1.13,1h.07l.12,0a1.13,1.13,0,0,0,.95-1.18c-.45-7.74.67-8.77,5.27-9.55.91-.15,2-.28,3.36-.39l.13,0a1.14,1.14,0,0,0,.91-1.31A1.16,1.16,0,0,0,289.83,74.3Z"/><path class="cls-4" d="M509.19,40.28a1.35,1.35,0,0,0-.26.15,2.14,2.14,0,0,1-.79.45,15.32,15.32,0,0,0-4,2,12.9,12.9,0,0,0-4.39,5.31c-.42.94-.76,1.91-1.09,2.89a5.62,5.62,0,0,0-.32,1.82,4.9,4.9,0,0,1-.06.77,1.45,1.45,0,0,1-.42.81,1.31,1.31,0,0,1-1,.35,1,1,0,0,1-.9-.71c0-.11-.05-.2-.06-.31s0-.41,0-.62a6.64,6.64,0,0,0-.48-2.41c-.16-.44-.33-.87-.53-1.29a20.6,20.6,0,0,0-4.18-5.91,15.66,15.66,0,0,0-1.65-1.4,10.73,10.73,0,0,0-3.15-1.63,2.9,2.9,0,0,1-.84-.38.85.85,0,0,1-.28-.37,1,1,0,0,1,.25-1.12,1.25,1.25,0,0,1,.4-.24,2.23,2.23,0,0,1,.45-.08q.69-.12,1.38-.21a6.38,6.38,0,0,0,2.45-.91,9.65,9.65,0,0,0,1.83-1.42,14.73,14.73,0,0,0,3.2-5.06,22.27,22.27,0,0,0,.89-3.6c.06-.51.19-1,.3-1.52a.86.86,0,0,1,.69-.54,1,1,0,0,1,1.06.71c.13.66.27,1.32.36,2a12.94,12.94,0,0,0,1,3.57,19.19,19.19,0,0,0,1.52,2.87,10.15,10.15,0,0,0,1.81,2.11A7.61,7.61,0,0,0,505.45,38a16.32,16.32,0,0,0,2,.31l.93.09a.75.75,0,0,1,.52.29c.1.11.21.22.31.34Zm-12.6-7.91s-.12,0-.15,0a.6.6,0,0,0-.21.21c-.37.74-.71,1.49-1.08,2.23a10.27,10.27,0,0,1-4,4.22l-.93.55a.22.22,0,0,0-.07.36,14.26,14.26,0,0,0,1.23.94c.45.35.91.68,1.34,1a15.83,15.83,0,0,1,3.61,4.6,5.42,5.42,0,0,0,.55.93.27.27,0,0,0,.4,0c.15-.27.3-.54.44-.81a16.45,16.45,0,0,1,4.87-5.74l.61-.47a.31.31,0,0,0,0-.41l-.62-.46-1.78-1.24a8.65,8.65,0,0,1-2.12-2.23c-.25-.39-.49-.79-.71-1.2-.32-.59-.61-1.19-.92-1.79-.12-.23-.25-.45-.39-.67A.53.53,0,0,0,496.59,32.37Z"/><path class="cls-3" d="M496.59,32.37a.53.53,0,0,1,.11.09c.14.22.27.44.39.67.31.6.6,1.2.92,1.79.22.41.46.81.71,1.2a8.65,8.65,0,0,0,2.12,2.23l1.78,1.24.62.46a.31.31,0,0,1,0,.41l-.61.47a16.45,16.45,0,0,0-4.87,5.74c-.14.27-.29.54-.44.81a.27.27,0,0,1-.4,0,5.42,5.42,0,0,1-.55-.93,15.83,15.83,0,0,0-3.61-4.6c-.43-.37-.89-.7-1.34-1a14.26,14.26,0,0,1-1.23-.94.22.22,0,0,1,.07-.36l.93-.55a10.27,10.27,0,0,0,4-4.22c.37-.74.71-1.49,1.08-2.23a.6.6,0,0,1,.21-.21S496.54,32.39,496.59,32.37Z"/><path class="cls-4" d="M1547.18,60.51a1.4,1.4,0,0,1-1.14-.86c0-.12-.07-.24-.09-.36-.14-.92-.3-1.84-.41-2.77a8.55,8.55,0,0,0-.64-2.34,15.88,15.88,0,0,0-1.55-2.76,6.93,6.93,0,0,0-3-2.46,8.23,8.23,0,0,0-2.34-.6c-.31,0-.62,0-.93-.08a1.8,1.8,0,0,1-.85-.37,1.26,1.26,0,0,1,0-1.95,1.17,1.17,0,0,1,.31-.2,20.65,20.65,0,0,0,4.47-2.33,15.47,15.47,0,0,0,1.8-1.33,9.24,9.24,0,0,0,1.61-1.81,6.34,6.34,0,0,0,1.08-3.34c0-.68,0-1.37,0-2.05a1.38,1.38,0,0,1,.53-1,1.26,1.26,0,0,1,1.24-.19,1.16,1.16,0,0,1,.74.78,2,2,0,0,1,.1.55c0,.43,0,.87,0,1.31a8.55,8.55,0,0,0,1.42,4.57,11.59,11.59,0,0,0,6,4.8c.41.14.83.27,1.23.44a2.39,2.39,0,0,1,.62.41,1.07,1.07,0,0,1-.35,1.71,4.41,4.41,0,0,1-.71.2c-.37.06-.75.09-1.12.13a6.49,6.49,0,0,0-4.81,2.88,13.38,13.38,0,0,0-1.89,4.45,7,7,0,0,0-.1,1.12c0,.68,0,1.37-.08,2a1.72,1.72,0,0,1-.33.87A1.23,1.23,0,0,1,1547.18,60.51Zm.07-8.26a.55.55,0,0,0,.14-.12c.3-.47.58-1,.88-1.43a9.24,9.24,0,0,1,2.82-3l.92-.64c.13-.08.1-.33-.06-.47-.37-.33-.74-.66-1.13-1a14.24,14.24,0,0,1-2.79-3c-.24-.36-.49-.72-.75-1.07a2.16,2.16,0,0,0-.27-.25c-.12-.12-.21-.09-.33,0a4.81,4.81,0,0,0-.64.91,13.58,13.58,0,0,1-2.9,3.15l-.45.35-.42.36a.45.45,0,0,0,.07.65c.49.38,1,.76,1.48,1.13a8,8,0,0,1,2,2.23l1,1.6a3.75,3.75,0,0,0,.35.44S1547.2,52.22,1547.25,52.25Z"/><path class="cls-3" d="M1547.25,52.25s-.12,0-.15-.07a3.75,3.75,0,0,1-.35-.44l-1-1.6a8,8,0,0,0-2-2.23c-.5-.37-1-.75-1.48-1.13a.45.45,0,0,1-.07-.65l.42-.36.45-.35a13.58,13.58,0,0,0,2.9-3.15,4.81,4.81,0,0,1,.64-.91c.12-.11.21-.14.33,0a2.16,2.16,0,0,1,.27.25c.26.35.51.71.75,1.07a14.24,14.24,0,0,0,2.79,3c.39.31.76.64,1.13,1,.16.14.19.39.06.47l-.92.64a9.24,9.24,0,0,0-2.82,3c-.3.48-.58,1-.88,1.43A.55.55,0,0,1,1547.25,52.25Z"/><path class="cls-4" d="M854,144.38a1.39,1.39,0,0,1-1.13-.86c0-.12-.08-.24-.1-.36-.14-.92-.29-1.85-.41-2.77a8.9,8.9,0,0,0-.63-2.34,15.39,15.39,0,0,0-1.56-2.77,6.76,6.76,0,0,0-3-2.45,8,8,0,0,0-2.34-.6c-.31,0-.63-.06-.94-.09a1.63,1.63,0,0,1-.84-.36,1.31,1.31,0,0,1,.34-2.16,20.33,20.33,0,0,0,4.46-2.32,14,14,0,0,0,1.8-1.34,8.47,8.47,0,0,0,1.62-1.81,6.27,6.27,0,0,0,1.07-3.33c0-.69,0-1.37.06-2.06a1.32,1.32,0,0,1,.53-1,1.22,1.22,0,0,1,1.23-.19,1.16,1.16,0,0,1,.75.77,1.76,1.76,0,0,1,.09.55c0,.44,0,.88,0,1.31a8.48,8.48,0,0,0,1.43,4.58,11.59,11.59,0,0,0,6,4.8c.41.14.83.27,1.23.44a2.3,2.3,0,0,1,.62.41,1.08,1.08,0,0,1-.35,1.71,4.84,4.84,0,0,1-.72.2c-.37.06-.74.09-1.11.13a6.43,6.43,0,0,0-4.81,2.88,13.18,13.18,0,0,0-1.89,4.45,5.91,5.91,0,0,0-.1,1.12c0,.68-.05,1.37-.09,2.05a1.56,1.56,0,0,1-.32.86A1.27,1.27,0,0,1,854,144.38Zm.07-8.27a.42.42,0,0,0,.15-.11l.87-1.43a9.49,9.49,0,0,1,2.82-3c.31-.2.62-.42.92-.63.13-.09.11-.33,0-.47-.38-.33-.74-.67-1.13-1a13.71,13.71,0,0,1-2.79-3c-.25-.36-.49-.72-.75-1.07a1.67,1.67,0,0,0-.28-.25c-.11-.12-.2-.09-.32,0a4.4,4.4,0,0,0-.64.91,13.62,13.62,0,0,1-2.91,3.15c-.14.12-.29.23-.44.34l-.43.37a.44.44,0,0,0,.07.64l1.48,1.14a7.63,7.63,0,0,1,2,2.22c.32.54.63,1.08,1,1.61a2.81,2.81,0,0,0,.35.44A.45.45,0,0,0,854,136.11Z"/><path class="cls-3" d="M854,136.11a.45.45,0,0,1-.14-.06,2.81,2.81,0,0,1-.35-.44c-.33-.53-.64-1.07-1-1.61a7.63,7.63,0,0,0-2-2.22l-1.48-1.14a.44.44,0,0,1-.07-.64l.43-.37c.15-.11.3-.22.44-.34a13.62,13.62,0,0,0,2.91-3.15,4.4,4.4,0,0,1,.64-.91c.12-.11.21-.14.32,0a1.67,1.67,0,0,1,.28.25c.26.35.5.71.75,1.07a13.71,13.71,0,0,0,2.79,3c.39.31.75.65,1.13,1,.16.14.18.38,0,.47-.3.21-.61.43-.92.63a9.49,9.49,0,0,0-2.82,3l-.87,1.43A.42.42,0,0,1,854,136.11Z"/><path class="cls-1" d="M774.57,161.06c-1.12-.1-2-.2-2.72-.32-3.71-.63-4.61-1.46-4.25-7.7a.92.92,0,0,0-.79-1,.94.94,0,0,0-1,.86c-.17,3-.51,5.14-1.56,6-.65.57-1.77.83-3.52.83-.73,0-1.58,0-2.64-.13h-.14a.92.92,0,0,0-.17,1.82l.11,0c1.11.09,2,.19,2.71.31,3.71.63,4.61,1.47,4.25,7.7a.93.93,0,0,0,.77,1h.15a1,1,0,0,0,.92-.87c.17-3,.5-5.13,1.55-6,.65-.56,1.77-.83,3.53-.83.73,0,1.58.05,2.76.14a.92.92,0,0,0,.08-1.83Z"/><path class="cls-1" d="M133.57,194c-1.11,0-2-.07-2.73-.15-3.74-.4-4.69-1.19-4.7-7.43a.92.92,0,0,0-.84-.92,1,1,0,0,0-1,.92c0,3-.19,5.16-1.19,6.13-.61.61-1.72.94-3.47,1-.72,0-1.58,0-2.64,0h-.13a.92.92,0,0,0-.06,1.83h.1c1.11,0,2,.08,2.73.16,3.74.4,4.69,1.18,4.7,7.43a.91.91,0,0,0,.82.91h.15a1,1,0,0,0,.87-.92c0-3,.19-5.16,1.19-6.14.62-.6,1.72-.93,3.47-1,.73-.05,1.58-.06,2.77,0a.92.92,0,0,0,0-1.84Z"/><path class="cls-1" d="M1382.69,127c-1.12,0-2-.08-2.73-.16-3.74-.4-4.69-1.18-4.71-7.43a.91.91,0,0,0-.84-.91.93.93,0,0,0-1,.91c0,3-.2,5.16-1.19,6.14-.62.6-1.72.93-3.47,1-.73,0-1.58.06-2.64,0H1366a.92.92,0,0,0-.06,1.83h.1c1.12,0,2,.07,2.73.15,3.74.4,4.69,1.19,4.71,7.43a.92.92,0,0,0,.82.92.33.33,0,0,0,.1,0h0a.94.94,0,0,0,.86-.92c0-3,.2-5.15,1.2-6.13.61-.6,1.71-.93,3.47-1,.72,0,1.58,0,2.76,0a.91.91,0,0,0,.86-.89A.93.93,0,0,0,1382.69,127Z"/></g></svg>