<?xml version="1.0" standalone="no"?>
<!DOCTYPE svg PUBLIC "-//W3C//DTD SVG 1.1//EN" "http://www.w3.org/Graphics/SVG/1.1/DTD/svg11.dtd" >
<svg xmlns="http://www.w3.org/2000/svg" xmlns:xlink="http://www.w3.org/1999/xlink" version="1.1">
<metadata>
Created by FontForge 20170731 at Fri Apr 22 16:09:40 2016
 By Aleksey,,,
Copyright 2016 Dalton Maag Ltd. All rights reserved. This font may not be altered in any way without prior permission of Dalton Maag Ltd.
</metadata>
<defs>
<font id="AktivGroteskTrial-MediumItalic" horiz-adv-x="592" >
  <font-face 
    font-family="Aktiv Grotesk Trial Medium"
    font-weight="500"
    font-style="italic"
    font-stretch="normal"
    units-per-em="1000"
    panose-1="2 11 5 4 2 2 2 9 2 4"
    ascent="714"
    descent="-286"
    x-height="520"
    cap-height="714"
    bbox="-374 -831 1409 1160"
    underline-thickness="68"
    underline-position="-201"
    slope="-11.94"
    unicode-range="U+0008-FFFD"
  />
<missing-glyph horiz-adv-x="500" 
d="M50 0v750h400v-750h-400zM400 50v650h-300v-650h300z" />
    <glyph glyph-name="f_f.liga" unicode="ff" horiz-adv-x="712" 
d="M288 520h125l-19 -90h-126l-91 -430h-113l91 430h-82l19 90h82l9 41q19 86 63 123.5t122 37.5q36 0 64 -7.5t40 -13.5l-32 -81q-11 5 -26.5 8.5t-35.5 3.5q-36 0 -55.5 -18t-27.5 -60zM644 520h125l-19 -90h-126l-91 -430h-113l91 430h-82l19 90h82l9 41q19 86 63 123.5
t122 37.5q36 0 64 -7.5t40 -13.5l-32 -81q-11 5 -26.5 8.5t-35.5 3.5q-36 0 -55.5 -18t-27.5 -60z" />
    <glyph glyph-name="f_i.liga" unicode="fi" horiz-adv-x="602" 
d="M288 520h125l-19 -90h-126l-91 -430h-113l91 430h-82l19 90h82l9 41q19 86 63 123.5t122 37.5q36 0 64 -7.5t40 -13.5l-32 -81q-11 5 -26.5 8.5t-35.5 3.5q-36 0 -55.5 -18t-27.5 -60zM389 0l110 520h114l-110 -520h-114zM511 601l24 113h119l-24 -113h-119z" />
    <glyph glyph-name="f_l.liga" unicode="fl" horiz-adv-x="602" 
d="M288 520h125l-19 -90h-126l-91 -430h-113l91 430h-82l19 90h82l9 41q19 86 63 123.5t122 37.5q36 0 64 -7.5t40 -13.5l-32 -81q-11 5 -26.5 8.5t-35.5 3.5q-36 0 -55.5 -18t-27.5 -60zM389 0l151 714h114l-151 -714h-114z" />
    <glyph glyph-name="f_f_i.liga" unicode="ffi" horiz-adv-x="958" 
d="M288 520h125l-19 -90h-126l-91 -430h-113l91 430h-82l19 90h82l9 41q19 86 63 123.5t122 37.5q36 0 64 -7.5t40 -13.5l-32 -81q-11 5 -26.5 8.5t-35.5 3.5q-36 0 -55.5 -18t-27.5 -60zM745 0l110 520h114l-110 -520h-114zM867 601l24 113h119l-24 -113h-119zM644 520h125
l-19 -90h-126l-91 -430h-113l91 430h-82l19 90h82l9 41q19 86 63 123.5t122 37.5q36 0 64 -7.5t40 -13.5l-32 -81q-11 5 -26.5 8.5t-35.5 3.5q-36 0 -55.5 -18t-27.5 -60z" />
    <glyph glyph-name="f_f_l.liga" unicode="ffl" horiz-adv-x="958" 
d="M288 520h125l-19 -90h-126l-91 -430h-113l91 430h-82l19 90h82l9 41q19 86 63 123.5t122 37.5q36 0 64 -7.5t40 -13.5l-32 -81q-11 5 -26.5 8.5t-35.5 3.5q-36 0 -55.5 -18t-27.5 -60zM745 0l151 714h114l-151 -714h-114zM644 520h125l-19 -90h-126l-91 -430h-113l91 430
h-82l19 90h82l9 41q19 86 63 123.5t122 37.5q36 0 64 -7.5t40 -13.5l-32 -81q-11 5 -26.5 8.5t-35.5 3.5q-36 0 -55.5 -18t-27.5 -60z" />
    <glyph glyph-name=".notdef" horiz-adv-x="500" 
d="M50 0v750h400v-750h-400zM400 50v650h-300v-650h300z" />
    <glyph glyph-name=".null" horiz-adv-x="0" 
 />
    <glyph glyph-name=".null" horiz-adv-x="0" 
 />
    <glyph glyph-name=".null" horiz-adv-x="0" 
 />
    <glyph glyph-name="nonmarkingreturn" unicode="&#x9;" horiz-adv-x="223" 
 />
    <glyph glyph-name="nonmarkingreturn" unicode="&#xd;" horiz-adv-x="223" 
 />
    <glyph glyph-name="space" unicode=" " horiz-adv-x="223" 
 />
    <glyph glyph-name="exclam" unicode="!" horiz-adv-x="252" 
d="M183 137l-29 -137h-117l29 137h117zM305 714l-114 -499h-105l97 499h122z" />
    <glyph glyph-name="quotedbl" unicode="&#x22;" horiz-adv-x="367" 
d="M192 449h-100l49 262h113zM372 449h-100l49 262h113z" />
    <glyph glyph-name="numbersign" unicode="#" 
d="M111 167h-85l16 84h100l64 176h-97l17 84h110l60 167h99l-61 -167h129l60 167h99l-60 -167h77l-17 -84h-90l-64 -176h85l-16 -84h-99l-60 -167h-99l61 167h-130l-60 -167h-98zM370 251l63 176h-129l-64 -176h130z" />
    <glyph glyph-name="dollar" unicode="$" 
d="M555 210q0 -115 -69.5 -171.5t-190.5 -56.5h-8l-21 -98h-66l22 104q-39 7 -73 22.5t-59 41.5t-40 64t-16 90h112q2 -54 24.5 -84.5t70.5 -41.5l49 228l-3 1q-93 22 -132 67.5t-39 114.5q0 51 18.5 91t52 68t81 43t106.5 15l19 87h66l-20 -92q79 -14 122.5 -64t51.5 -128
l-108 -13q-9 48 -27 76.5t-57 39.5l-47 -219l11 -2q91 -24 130.5 -70.5t39.5 -112.5zM353 293l-47 -219q36 0 61 9.5t41 26t23 38.5t7 48q0 13 -3 28t-12 28t-25 24t-42 17h-3zM228 505q0 -39 19.5 -61t64.5 -33l44 208q-69 -4 -98.5 -36.5t-29.5 -77.5z" />
    <glyph glyph-name="percent" unicode="%" horiz-adv-x="944" 
d="M320 0h-113l495 691h113zM785 418q31 0 58.5 -11.5t47.5 -33t31.5 -51.5t11.5 -67q0 -49 -13 -97.5t-40.5 -87t-69.5 -62.5t-100 -24q-33 0 -60 11t-47 32t-31 51t-11 68q0 48 13.5 96.5t41.5 87.5t70 63.5t98 24.5zM773 331q-30 0 -51.5 -18.5t-35 -46t-19.5 -60
t-6 -59.5q0 -77 61 -77q31 0 52.5 18.5t35 46t19.5 59.5t6 60q0 77 -62 77zM311 708q31 0 58.5 -11.5t47.5 -33t31.5 -51.5t11.5 -67q0 -49 -13 -97.5t-40.5 -87t-69.5 -62.5t-100 -24q-33 0 -60 11t-47 32t-31 51t-11 68q0 48 13.5 96.5t41.5 87.5t70 63.5t98 24.5z
M299 621q-30 0 -51.5 -18.5t-35 -46t-19.5 -60t-6 -59.5q0 -77 61 -77q31 0 52.5 18.5t35 46t19.5 59.5t6 60q0 77 -62 77z" />
    <glyph glyph-name="ampersand" unicode="&#x26;" horiz-adv-x="653" 
d="M282 -16q-55 0 -99 11.5t-75.5 34.5t-48.5 57t-17 78q0 42 12.5 74.5t38 59.5t62.5 50.5t87 47.5q-4 5 -6.5 9t-4.5 9q-14 25 -26 58t-12 65q0 39 12.5 72.5t36.5 58t60 38t84 13.5q40 0 70 -11.5t49.5 -30.5t29 -44t9.5 -51q0 -43 -13 -75t-35.5 -57t-53 -44t-64.5 -35
l114 -178q22 38 33 78t14 76h102q-5 -63 -27.5 -123.5t-65.5 -111.5l74 -113h-121l-29 44q-40 -28 -86.5 -44t-103.5 -16zM292 75q45 0 76.5 11.5t55.5 30.5l-138 212q-30 -15 -53.5 -29.5t-40.5 -32t-26 -39t-9 -49.5q0 -20 6 -38.5t21.5 -33t41.5 -23.5t66 -9zM295 545
q0 -28 12 -54t20 -41q2 -3 3.5 -6t3.5 -5q25 12 45.5 24.5t35 27.5t22.5 35t8 47q0 29 -17.5 46.5t-47.5 17.5q-38 0 -61.5 -23t-23.5 -69z" />
    <glyph glyph-name="quotesingle" unicode="'" horiz-adv-x="187" 
d="M192 449h-100l49 262h113z" />
    <glyph glyph-name="parenleft" unicode="(" horiz-adv-x="281" 
d="M395 734q-102 -134 -161.5 -288t-59.5 -327q0 -66 8 -123t30 -120h-107q-10 24 -19 55t-15.5 65.5t-10.5 70t-4 67.5q0 81 16 162t46 158t72.5 148t95.5 132h109z" />
    <glyph glyph-name="parenright" unicode=")" horiz-adv-x="281" 
d="M-52 -124q102 134 161.5 288t59.5 327q0 66 -8 123t-30 120h107q10 -24 18.5 -55t15.5 -65.5t11 -70t4 -67.5q0 -81 -16 -162t-46 -158t-72.5 -148t-95.5 -132h-109z" />
    <glyph glyph-name="asterisk" unicode="*" horiz-adv-x="403" 
d="M370 714l-45 -126l111 56l28 -91l-130 -30l77 -107l-81 -51l-57 111l-92 -109l-71 60l117 97l-112 35l44 89l99 -60l7 126h105z" />
    <glyph glyph-name="plus" unicode="+" 
d="M375 291l-41 -198h-103l42 198h-184l22 99h183l42 198h103l-42 -198h183l-21 -99h-184z" />
    <glyph glyph-name="comma" unicode="," horiz-adv-x="235" 
d="M-12 -95l81 235h115l-107 -235h-89z" />
    <glyph glyph-name="hyphen" unicode="-" horiz-adv-x="390" 
d="M64 239l24 113h296l-24 -113h-296z" />
    <glyph glyph-name="period" unicode="." horiz-adv-x="235" 
d="M24 0l29 139h121l-29 -139h-121z" />
    <glyph glyph-name="slash" unicode="/" horiz-adv-x="357" 
d="M89 0h-117l385 734h117z" />
    <glyph glyph-name="zero" unicode="0" 
d="M392 710q48 0 87 -16.5t67.5 -48t44 -77.5t15.5 -104q0 -49 -7 -103.5t-23 -108t-41.5 -102.5t-62 -86.5t-85 -59.5t-110.5 -22q-48 0 -87 16.5t-67.5 48t-44 77.5t-15.5 105q0 48 7.5 102.5t24 107.5t42.5 102.5t62.5 86.5t84.5 59.5t108 22.5zM385 610q-53 0 -91 -37.5
t-63 -94.5t-37 -124t-12 -127q0 -67 25 -106t77 -39t90.5 37t63.5 94t37 124t12 127q0 69 -25 107.5t-77 38.5z" />
    <glyph glyph-name="one" unicode="1" 
d="M252 0l119 562l-156 -82l-46 86l234 125h111l-146 -691h-116z" />
    <glyph glyph-name="two" unicode="2" 
d="M378 610q-59 0 -95 -25t-58 -91l-108 15q12 43 32 80t51.5 64t77 42t108.5 15q55 0 95 -15t65.5 -41t38 -60.5t12.5 -72.5q0 -51 -18 -92.5t-49.5 -78t-73 -70t-88.5 -68.5q-38 -28 -77.5 -56.5t-74.5 -54.5h307l-34 -101h-466l19 89q21 16 46.5 35.5t53.5 40t55.5 41
t51.5 38.5q46 35 87.5 67t73 63.5t50 65.5t18.5 74q0 48 -27.5 72t-72.5 24z" />
    <glyph glyph-name="three" unicode="3" 
d="M355 409q27 0 50.5 6t41.5 19.5t28 35t10 53.5q0 38 -27 63.5t-78 25.5q-63 0 -99 -23.5t-53 -84.5l-105 15q10 42 29.5 77t50.5 60.5t76 39.5t106 14q50 0 89.5 -12.5t67.5 -35t42.5 -54.5t14.5 -70q0 -66 -32 -112t-99 -69q47 -24 67 -63.5t20 -78.5
q0 -112 -64.5 -172.5t-190.5 -60.5q-56 0 -101 15.5t-77.5 44t-50 70t-17.5 93.5h115q2 -60 36.5 -92.5t97.5 -32.5q61 0 98 30.5t37 97.5q0 48 -27 74t-79 26h-80l22 101h81z" />
    <glyph glyph-name="four" unicode="4" 
d="M322 0l34 163h-319l18 85l409 443h112l-92 -436h92l-32 -92h-80l-34 -163h-108zM177 255h198l60 285z" />
    <glyph glyph-name="five" unicode="5" 
d="M179 189q3 -57 31 -82.5t88 -25.5q61 0 102 41.5t41 122.5q0 48 -25.5 79.5t-79.5 31.5q-44 0 -74.5 -13.5t-59.5 -39.5h-97l108 388h389l-20 -100h-293l-49 -181q32 20 63 29.5t69 9.5q44 0 78 -15.5t57 -42.5t35 -62t12 -74q0 -58 -16.5 -108t-49.5 -86.5t-82 -57.5
t-114 -21q-49 0 -90.5 12.5t-71.5 38t-47 64.5t-17 92h113z" />
    <glyph glyph-name="six" unicode="6" 
d="M508 527q-8 51 -32.5 69.5t-69.5 18.5q-65 0 -116 -56.5t-77 -176.5q35 39 75 53.5t88 14.5q44 0 79 -15t59 -41.5t36.5 -62t12.5 -76.5q0 -132 -70 -202.5t-194 -70.5q-57 0 -98.5 18t-68.5 50.5t-40.5 77.5t-13.5 99q0 45 8 98t25 106.5t43.5 104t64 89t86.5 62
t111 23.5q177 0 197 -165zM343 358q-32 0 -60.5 -10t-49.5 -30.5t-33.5 -51t-12.5 -71.5q0 -25 7.5 -46.5t22 -38t36 -26t50.5 -9.5q69 0 108.5 40t39.5 131q0 48 -27 80t-81 32z" />
    <glyph glyph-name="seven" unicode="7" 
d="M617 600q-106 -140 -199 -290.5t-168 -309.5h-126q47 91 87 164.5t81 141.5t87.5 136t106.5 149h-350l20 100h480z" />
    <glyph glyph-name="eight" unicode="8" 
d="M565 212q0 -59 -22 -102t-60 -71.5t-90.5 -42.5t-112.5 -14q-61 0 -105.5 14t-74 38t-44 56.5t-14.5 68.5q0 45 13.5 77.5t36 56t51 39.5t58.5 27q-33 19 -54 52.5t-21 78.5q0 46 17.5 86.5t51.5 70t84 46.5t116 17q52 0 92.5 -13.5t68 -37t41.5 -54.5t14 -65
q0 -38 -10.5 -67.5t-29 -52.5t-44 -39.5t-55.5 -28.5q38 -17 65.5 -53t27.5 -87zM348 399q31 0 59 6.5t49 21.5t33.5 39t12.5 59q0 18 -6.5 35t-20.5 30.5t-36 22t-52 8.5q-42 0 -71.5 -10.5t-47.5 -28t-26 -40.5t-8 -48q0 -38 28 -66.5t86 -28.5zM286 73q34 0 64 7t53 22.5
t36.5 41t13.5 63.5q0 20 -7 38t-22.5 31.5t-40 21.5t-58.5 8q-91 0 -130.5 -36.5t-39.5 -96.5q0 -41 31.5 -70.5t99.5 -29.5z" />
    <glyph glyph-name="nine" unicode="9" 
d="M160 163q8 -52 37 -68.5t77 -16.5q72 0 119 60.5t66 175.5q-35 -39 -75.5 -55t-88.5 -16q-45 0 -80.5 15.5t-61 42.5t-39 63t-13.5 77q0 61 18 110.5t51.5 84.5t82 54.5t110.5 19.5q103 0 162 -63.5t59 -189.5q0 -45 -5.5 -97.5t-19.5 -105.5t-37 -102t-58.5 -87
t-84 -60.5t-113.5 -22.5q-97 0 -153 43.5t-62 137.5h109zM322 335q31 0 59 9t49 28t33.5 48t12.5 70q0 25 -7.5 48.5t-21.5 40.5t-35.5 27.5t-49.5 10.5q-66 0 -107 -39t-41 -123q0 -23 6 -44.5t18.5 -38.5t33 -27t50.5 -10z" />
    <glyph glyph-name="colon" unicode=":" horiz-adv-x="235" 
d="M24 0l29 139h121l-29 -139h-121zM105 381l29 139h121l-29 -139h-121z" />
    <glyph glyph-name="semicolon" unicode=";" horiz-adv-x="235" 
d="M-12 -95l81 235h115l-107 -235h-89zM105 381l29 139h121l-29 -139h-121z" />
    <glyph glyph-name="less" unicode="&#x3c;" 
d="M122 383l498 205l-23 -111l-356 -140l296 -145l-23 -102l-410 205z" />
    <glyph glyph-name="equal" unicode="=" 
d="M84 180l21 100h436l-21 -100h-436zM129 402l21 100h435l-21 -100h-435z" />
    <glyph glyph-name="greater" unicode="&#x3e;" 
d="M565 383l-19 -88l-497 -205l23 114l355 138l-295 146l23 100z" />
    <glyph glyph-name="question" unicode="?" horiz-adv-x="507" 
d="M554 562q0 -36 -9 -64t-24.5 -50.5t-36 -41.5t-43.5 -38q-20 -17 -39.5 -32t-36 -30.5t-28 -33.5t-15.5 -42l-3 -15h-112l3 19q6 30 17 52t27 40.5t36.5 36t46.5 37.5q21 16 39 31t31.5 32.5t21.5 38t8 47.5q-1 37 -25 59t-69 22q-25 0 -46.5 -5t-39.5 -17.5t-32 -34.5
t-24 -56l-101 14q12 44 31.5 80t49.5 61.5t72.5 39.5t100.5 14q45 0 82 -12t63.5 -33.5t40.5 -52t14 -66.5zM163 0l29 137h117l-29 -137h-117z" />
    <glyph glyph-name="at" unicode="@" horiz-adv-x="979" 
d="M717 73q38 0 67 19.5t48.5 54t29.5 82t10 104.5q0 63 -22 113t-62 84.5t-97 53t-127 18.5q-93 0 -168 -31t-128.5 -86.5t-82.5 -133t-29 -170.5q0 -65 19.5 -122.5t59 -100.5t99.5 -68t140 -25q85 0 143.5 19t100.5 64h107q-54 -88 -141 -126.5t-217 -38.5
q-90 0 -164.5 28t-128.5 79t-84 123.5t-30 162.5q0 105 35.5 197.5t101.5 161.5t160 108.5t211 39.5q86 0 158.5 -25t125 -70.5t81.5 -109.5t29 -141q0 -72 -16 -134.5t-48.5 -108.5t-81 -72t-114.5 -26q-51 0 -77.5 17t-34.5 59q-33 -45 -71 -64t-83 -19q-42 0 -72 15
t-49.5 40.5t-28.5 59t-9 71.5q0 62 18 115t50.5 92t76 61t94.5 22q38 0 69.5 -16.5t53.5 -53.5l12 59h102l-70 -331q-1 -3 -1 -15q0 -15 8 -25t27 -10zM461 78q38 0 64 18.5t43 47.5q22 40 30 87l7 45q1 5 1 11v11q0 17 -4.5 32.5t-16.5 27.5q-11 11 -26 17t-36 6
q-26 0 -50.5 -13.5t-44 -38t-31 -60t-11.5 -80.5q0 -111 75 -111z" />
    <glyph glyph-name="A" unicode="A" horiz-adv-x="686" 
d="M521 714l121 -714h-124l-28 182h-278l-105 -182h-130l424 714h120zM266 283h211l-44 294z" />
    <glyph glyph-name="B" unicode="B" horiz-adv-x="640" 
d="M662 552q0 -74 -36.5 -116t-102.5 -65q48 -23 71 -59.5t23 -82.5q0 -52 -18 -94t-55.5 -72t-95.5 -46.5t-137 -16.5h-268l151 714h238q65 0 109 -13.5t71 -36t38.5 -52t11.5 -60.5zM390 421q29 0 56.5 5t48.5 18t33.5 35t12.5 56q0 37 -27 60t-98 23h-126l-41 -197h141z
M179 97h141q95 0 136 33t41 98q0 45 -30 69.5t-97 24.5h-142z" />
    <glyph glyph-name="C" unicode="C" horiz-adv-x="712" 
d="M610 473q-10 76 -44 115.5t-110 39.5q-57 0 -102 -26t-76.5 -70.5t-48.5 -103.5t-17 -125q0 -45 9.5 -84.5t30 -69t53 -46.5t78.5 -17q83 0 126.5 40.5t57.5 111.5h131q-12 -57 -36 -104.5t-62.5 -81t-94 -52t-130.5 -18.5q-72 0 -126 23.5t-90.5 65.5t-54.5 99t-18 125
q0 86 26 165t74.5 139.5t118 96.5t156.5 36q66 0 114.5 -17t81.5 -48.5t50.5 -76.5t22.5 -100z" />
    <glyph glyph-name="D" unicode="D" horiz-adv-x="726" 
d="M43 0l151 714h234q68 0 122.5 -22.5t92.5 -62t58 -92.5t20 -114q0 -95 -27.5 -173t-82.5 -133.5t-137.5 -86t-191.5 -30.5h-239zM297 103q76 0 132.5 23t93.5 65t55 100t18 129q0 39 -11 74t-33.5 61t-56 41t-78.5 15h-126l-107 -508h113z" />
    <glyph glyph-name="E" unicode="E" horiz-adv-x="599" 
d="M292 610l-40 -190h334l-22 -105h-334l-45 -211h375l-36 -104h-481l151 714h474l-21 -104h-355z" />
    <glyph glyph-name="F" unicode="F" horiz-adv-x="574" 
d="M292 610l-43 -202h316l-23 -105h-315l-64 -303h-120l151 714h456l-22 -104h-336z" />
    <glyph glyph-name="G" unicode="G" horiz-adv-x="721" 
d="M609 502q-11 67 -47.5 97t-102.5 30q-60 0 -106.5 -27t-78 -72.5t-48 -104.5t-16.5 -123q0 -44 10 -83.5t31 -69t54 -47t79 -17.5q57 0 96.5 12.5t68.5 32.5l31 147h-158l22 102h271l-66 -303q-42 -38 -110.5 -66t-162.5 -28q-73 0 -127.5 24t-91 66t-54.5 98.5
t-18 122.5q0 86 25.5 165.5t75 140t120.5 97t163 36.5q115 0 180.5 -55t77.5 -158z" />
    <glyph glyph-name="H" unicode="H" horiz-adv-x="715" 
d="M485 0l66 313h-321l-66 -313h-121l151 714h121l-61 -289h321l61 289h121l-151 -714h-121z" />
    <glyph glyph-name="I" unicode="I" horiz-adv-x="272" 
d="M43 0l151 714h121l-151 -714h-121z" />
    <glyph glyph-name="J" unicode="J" horiz-adv-x="617" 
d="M564 229q-14 -65 -38 -112t-59.5 -77t-82.5 -44t-107 -14q-51 0 -94 13t-73.5 38.5t-48 64.5t-17.5 90q0 10 0.5 20.5t2.5 21.5h119q-1 -7 -1 -12.5v-11.5q0 -26 5.5 -47.5t19 -38t37 -25.5t58.5 -9q37 0 64 11.5t45.5 33t31 52t21.5 69.5l98 462h121z" />
    <glyph glyph-name="K" unicode="K" horiz-adv-x="662" 
d="M349 370l-129 -107l-56 -263h-121l151 714h121l-65 -307l359 307h139l-304 -273l179 -441h-131z" />
    <glyph glyph-name="L" unicode="L" horiz-adv-x="573" 
d="M43 0l151 714h121l-129 -609h354l-38 -105h-459z" />
    <glyph glyph-name="M" unicode="M" horiz-adv-x="853" 
d="M194 714h143l85 -568l327 568h146l-151 -714h-111l110 519l-303 -519h-95l-83 518l-110 -518h-109z" />
    <glyph glyph-name="N" unicode="N" horiz-adv-x="710" 
d="M500 0l-230 518l-110 -518h-117l151 714h102l228 -520l110 520h118l-151 -714h-101z" />
    <glyph glyph-name="O" unicode="O" horiz-adv-x="772" 
d="M482 732q66 0 119 -21.5t89.5 -60.5t56.5 -94t20 -122q0 -86 -25 -167.5t-74.5 -144.5t-123 -101.5t-169.5 -38.5q-66 0 -119.5 21.5t-91 60.5t-57.5 94t-20 122q0 85 26 166.5t76.5 145t124 102t168.5 38.5zM473 628q-65 0 -114 -30t-81.5 -79t-49 -110t-16.5 -123
q0 -91 42.5 -145.5t127.5 -54.5q64 0 113 30t81.5 79t49 110t16.5 124q0 45 -10.5 81.5t-32 62.5t-53 40.5t-73.5 14.5z" />
    <glyph glyph-name="P" unicode="P" horiz-adv-x="633" 
d="M667 524q0 -68 -22 -116.5t-63.5 -80t-100 -46.5t-131.5 -15h-132l-56 -266h-119l151 714h239q65 0 109.5 -17.5t72.5 -45t40 -61.5t12 -66zM363 367q40 0 74 7t58.5 24t38 46t13.5 73q0 20 -7 38t-23 31t-41 20.5t-62 7.5h-123l-52 -247h124z" />
    <glyph glyph-name="Q" unicode="Q" horiz-adv-x="772" 
d="M531 14q-34 -15 -72.5 -23.5t-83.5 -8.5q-66 0 -119.5 21.5t-91 60.5t-57.5 94t-20 122q0 85 26 166.5t76.5 145t124 102t168.5 38.5q66 0 119 -21.5t89.5 -60.5t56.5 -94t20 -122q0 -54 -10 -106t-29.5 -99.5t-48 -89t-66.5 -73.5l62 -102l-82 -52zM473 628
q-65 0 -114 -30t-81.5 -79t-49 -110t-16.5 -123q0 -91 42.5 -145.5t127.5 -54.5q49 0 94 20l-69 116l81 52l66 -110q45 51 66.5 121.5t21.5 143.5q0 45 -10.5 81.5t-32 62.5t-53 40.5t-73.5 14.5z" />
    <glyph glyph-name="R" unicode="R" horiz-adv-x="644" 
d="M162 0h-119l151 714h231q68 0 114 -17t74.5 -44t40.5 -62t12 -71q0 -88 -44.5 -140t-119.5 -74l86 -306h-128l-71 283q-10 -1 -20.5 -1h-21.5h-126zM379 384q36 0 66.5 6.5t52.5 22t34 41.5t12 64q0 19 -6.5 36.5t-22 30.5t-41 21t-63.5 8h-120l-48 -230h136z" />
    <glyph glyph-name="S" unicode="S" horiz-adv-x="644" 
d="M607 221q0 -62 -20 -107t-57 -74t-89.5 -43.5t-117.5 -14.5q-53 0 -103.5 11t-90.5 38t-64.5 72.5t-26.5 114.5h122q6 -69 45.5 -101.5t126.5 -32.5q40 0 68.5 9.5t46.5 26t26 39t8 49.5q0 30 -20 56.5t-72 37.5l-86 18q-94 19 -138.5 66t-44.5 119q0 58 20 101t56.5 71
t89 41.5t117.5 13.5q117 0 183 -52.5t75 -154.5l-116 -16q-8 63 -42.5 93t-106.5 30q-44 0 -73.5 -9t-47 -24t-25 -34t-7.5 -38q0 -42 22.5 -65t73.5 -34l86 -19q51 -12 86 -30.5t56.5 -42.5t30.5 -53t9 -62z" />
    <glyph glyph-name="T" unicode="T" horiz-adv-x="610" 
d="M462 609l-129 -609h-121l129 609h-226l22 105h572l-22 -105h-225z" />
    <glyph glyph-name="U" unicode="U" horiz-adv-x="688" 
d="M330 -18q-56 0 -101.5 13.5t-78.5 40.5t-51 68.5t-18 97.5q0 43 10 87l90 425h120l-90 -428q-10 -39 -10 -74q0 -66 34 -96t103 -30q43 0 73.5 12.5t52.5 37.5t36.5 62.5t25.5 87.5l91 428h121l-90 -428q-17 -80 -43.5 -137.5t-65 -94.5t-90.5 -54.5t-119 -17.5z" />
    <glyph glyph-name="V" unicode="V" horiz-adv-x="682" 
d="M366 0h-117l-120 714h129l83 -550l314 550h133z" />
    <glyph glyph-name="W" unicode="W" horiz-adv-x="950" 
d="M709 0h-121l-26 562l-262 -562h-118l-53 714h134l16 -542l249 538h128l26 -537l244 541h130z" />
    <glyph glyph-name="X" unicode="X" horiz-adv-x="661" 
d="M441 370l180 -370h-133l-132 284l-243 -284h-138l330 379l-162 335h132l113 -251l219 251h136z" />
    <glyph glyph-name="Y" unicode="Y" horiz-adv-x="635" 
d="M129 714h130l108 -310l240 310h134l-332 -417l-62 -297h-121l63 297z" />
    <glyph glyph-name="Z" unicode="Z" horiz-adv-x="586" 
d="M523 0h-528l18 90l486 520h-370l22 104h520l-19 -91l-484 -518h391z" />
    <glyph glyph-name="bracketleft" unicode="[" horiz-adv-x="308" 
d="M13 -124l183 858h225l-21 -97h-110l-141 -664h110l-21 -97h-225z" />
    <glyph glyph-name="backslash" unicode="\" horiz-adv-x="357" 
d="M314 0h-109l-73 734h109z" />
    <glyph glyph-name="bracketright" unicode="]" horiz-adv-x="308" 
d="M358 734l-183 -858h-225l21 97h110l141 664h-110l21 97h225z" />
    <glyph glyph-name="asciicircum" unicode="^" 
d="M460 299l-72 279l-191 -279h-121l290 413h94l115 -413h-115z" />
    <glyph glyph-name="underscore" unicode="_" horiz-adv-x="500" 
d="M-70 -175l11 52h499l-11 -52h-499z" />
    <glyph glyph-name="grave" unicode="`" horiz-adv-x="581" 
d="M296 593l-113 148h126l88 -148h-101z" />
    <glyph glyph-name="a" unicode="a" horiz-adv-x="549" 
d="M182 -13q-69 0 -110 36.5t-41 105.5q0 56 24 92t64 57t92 30t108 11l95 4l3 16q3 18 3 34q0 36 -21 56t-69 20q-54 0 -82 -14.5t-43 -56.5l-103 11q25 80 84 113.5t156 33.5q91 0 139 -41.5t49 -116.5q0 -14 -2 -29t-5 -31l-68 -318h-108l14 68q-36 -36 -76 -58.5
t-103 -22.5zM397 247l-77 -4q-50 -3 -84 -10.5t-54 -20.5t-28.5 -31.5t-8.5 -42.5q0 -26 18 -44.5t55 -18.5q31 0 59 9.5t50.5 26t38 40t21.5 52.5z" />
    <glyph glyph-name="b" unicode="b" horiz-adv-x="610" 
d="M329 -16q-57 0 -99.5 21.5t-71.5 72.5l-16 -78h-111l151 714h114l-55 -262q31 38 72.5 61t95.5 23q48 0 82.5 -18t57 -49t33 -71t10.5 -85q0 -67 -19.5 -126.5t-54 -104.5t-83 -71.5t-106.5 -26.5zM195 253q-4 -16 -5 -29.5t-1 -27.5q0 -54 30 -86.5t90 -32.5
q39 0 69.5 19.5t51.5 52.5t32 75.5t11 88.5q0 63 -28 96t-73 33q-31 0 -58.5 -11.5t-50 -32t-38 -48t-22.5 -59.5z" />
    <glyph glyph-name="c" unicode="c" horiz-adv-x="564" 
d="M444 337q-4 46 -25 76.5t-75 30.5q-35 0 -64.5 -16t-51 -46.5t-34 -75t-12.5 -101.5t26.5 -93t86.5 -36q54 0 84.5 27.5t42.5 76.5h115q-20 -94 -81 -145t-173 -51q-52 0 -92.5 16.5t-68.5 46t-43 69.5t-15 88q0 80 23 142t62.5 104t93 64t114.5 22q50 0 86.5 -14
t61 -38.5t37.5 -58t16 -72.5z" />
    <glyph glyph-name="d" unicode="d" horiz-adv-x="609" 
d="M325 536q54 0 95.5 -22t69.5 -70l58 270h114l-152 -714h-111l14 68q-33 -42 -73.5 -63t-91.5 -21q-48 0 -83.5 17.5t-59 47.5t-35 70.5t-11.5 86.5q0 67 20 127t55.5 105t84 71.5t106.5 26.5zM456 271q6 27 6 54q0 44 -27 77q-15 19 -38 30t-56 11q-39 0 -69 -19
t-51 -51.5t-32 -75.5t-11 -91q0 -57 26.5 -93t80.5 -36q52 0 96 36q25 21 41.5 48t25.5 69z" />
    <glyph glyph-name="e" unicode="e" horiz-adv-x="580" 
d="M344 449q-54 0 -95.5 -31.5t-59.5 -106.5h257q3 15 3 31q0 49 -27 78t-78 29zM179 232q-1 -4 -1.5 -12.5t-0.5 -14.5q0 -27 7 -51t21.5 -42t37.5 -28.5t55 -10.5q54 0 81 19.5t40 61.5h111q-11 -41 -30 -73t-48 -53.5t-69.5 -32.5t-95.5 -11q-53 0 -94.5 16.5t-70 46
t-43.5 70t-15 88.5q0 79 22 141t60.5 104t91.5 64t116 22q49 0 87 -15t64 -41.5t39.5 -63t13.5 -79.5q0 -17 -2.5 -40.5t-6.5 -46.5l-3 -18h-367z" />
    <glyph glyph-name="f" unicode="f" horiz-adv-x="356" 
d="M288 520h125l-19 -90h-126l-91 -430h-113l91 430h-82l19 90h82l9 41q19 86 63 123.5t122 37.5q36 0 64 -7.5t40 -13.5l-32 -81q-11 5 -26.5 8.5t-35.5 3.5q-36 0 -55.5 -18t-27.5 -60z" />
    <glyph glyph-name="g" unicode="g" horiz-adv-x="609" 
d="M458 274q5 20 5 37q0 61 -27 96.5t-93 35.5q-39 0 -69 -19.5t-50.5 -50.5t-31 -70.5t-10.5 -79.5q0 -58 27.5 -88.5t75.5 -30.5q62 0 107.5 39t59.5 105zM527 78q-14 -65 -32.5 -117.5t-49 -89.5t-78.5 -56.5t-122 -19.5q-114 0 -166 43t-55 122h114q7 -42 32 -58.5
t84 -16.5q39 0 65.5 13t44 36t28 54.5t18.5 69.5l7 32q-33 -42 -74 -59.5t-93 -17.5q-47 0 -82.5 16t-58.5 44t-34.5 66.5t-11.5 83.5q0 56 18 111.5t52 100t82.5 72t109.5 27.5t100.5 -21t69.5 -69l16 76h111z" />
    <glyph glyph-name="h" unicode="h" horiz-adv-x="581" 
d="M373 440q-50 0 -100 -38q-22 -17 -40 -40.5t-23 -51.5l-65 -310h-114l151 714h114l-57 -265q42 48 86 67.5t89 19.5q73 0 111.5 -39.5t38.5 -109.5q0 -32 -7 -61l-69 -326h-114l67 314q2 13 3.5 24t1.5 22q0 38 -18 59t-55 21z" />
    <glyph glyph-name="i" unicode="i" horiz-adv-x="246" 
d="M33 0l110 520h114l-110 -520h-114zM155 601l24 113h119l-24 -113h-119z" />
    <glyph glyph-name="j" unicode="j" horiz-adv-x="246" 
d="M155 601l24 113h119l-24 -113h-119zM143 520h114l-116 -541q-9 -42 -22.5 -73t-33.5 -51.5t-49 -30.5t-69 -10q-33 0 -59.5 6t-48.5 15l34 86q12 -5 27.5 -9t35.5 -4q31 0 47.5 17.5t25.5 59.5z" />
    <glyph glyph-name="k" unicode="k" horiz-adv-x="550" 
d="M31 0l151 714h113l-83 -392l256 198h139l-226 -181l132 -339h-118l-103 279l-107 -80l-41 -199h-113z" />
    <glyph glyph-name="l" unicode="l" horiz-adv-x="246" 
d="M33 0l151 714h114l-151 -714h-114z" />
    <glyph glyph-name="m" unicode="m" horiz-adv-x="868" 
d="M345 0l67 312q3 17 5 32t2 26q0 37 -17 53.5t-47 16.5q-24 0 -47.5 -11.5t-43.5 -30t-34.5 -42t-19.5 -48.5l-65 -308h-114l110 520h111l-15 -74q42 48 82.5 69t78.5 21q107 0 129 -94q48 54 92 74t92 20q66 0 103 -37.5t37 -101.5q0 -33 -9 -75l-68 -322h-114l67 311
q3 16 5 32t2 28q0 36 -17 52.5t-46 16.5q-26 0 -48 -9t-44 -26q-20 -17 -33.5 -38t-18.5 -48l-68 -319h-114z" />
    <glyph glyph-name="n" unicode="n" horiz-adv-x="581" 
d="M374 0l67 314q2 13 3.5 24t1.5 22q0 38 -18 59t-55 21q-50 0 -100 -38q-22 -17 -40 -40.5t-23 -51.5l-65 -310h-114l110 520h111l-16 -75q42 49 87 70t91 21q73 0 111.5 -39.5t38.5 -109.5q0 -32 -7 -61l-69 -326h-114z" />
    <glyph glyph-name="o" unicode="o" horiz-adv-x="609" 
d="M368 536q51 0 91.5 -17t69.5 -46t44.5 -69.5t15.5 -86.5q0 -79 -22.5 -141t-63 -104.5t-96 -65t-121.5 -22.5q-50 0 -91 17t-70 46t-45 69t-16 87q0 78 23.5 139.5t64.5 104.5t96.5 66t119.5 23zM360 444q-38 0 -70.5 -16.5t-56.5 -47.5t-37.5 -75.5t-13.5 -99.5
q0 -60 29 -94.5t83 -34.5q38 0 70.5 16.5t56 47t37 74.5t13.5 100q0 60 -28.5 95t-82.5 35z" />
    <glyph glyph-name="p" unicode="p" horiz-adv-x="610" 
d="M238 451q31 39 74 62t97 23q48 0 82.5 -17.5t57 -48t33 -71.5t10.5 -87q0 -67 -19.5 -126.5t-54.5 -104.5t-83 -71t-106 -26q-57 0 -98 21t-70 69l-57 -268h-114l151 714h111zM195 253q-4 -15 -5 -29t-1 -27q0 -54 30 -87t90 -33q39 0 69.5 19.5t51.5 52.5t32 75.5
t11 88.5q0 63 -28 96t-73 33q-31 0 -58.5 -11.5t-50 -32t-38 -48t-22.5 -59.5z" />
    <glyph glyph-name="q" unicode="q" horiz-adv-x="610" 
d="M511 520h110l-152 -714h-114l54 257q-32 -38 -70.5 -58.5t-89.5 -20.5q-49 0 -84.5 17.5t-59 48t-34.5 71.5t-11 88q1 67 21 126.5t55 104t83.5 70.5t105.5 26q55 0 98.5 -22t70.5 -73zM457 271q6 27 6 53q0 43 -27 78q-15 19 -38.5 30t-56.5 11q-39 0 -69 -19
t-50.5 -51.5t-31.5 -75.5t-11 -91q0 -57 26 -93t80 -36q53 0 97 36q25 21 41.5 48t25.5 69z" />
    <glyph glyph-name="r" unicode="r" horiz-adv-x="393" 
d="M412 420q-10 2 -21 3.5t-28 1.5q-20 0 -44 -6.5t-47 -23.5q-24 -20 -40.5 -42t-22.5 -51l-64 -302h-114l110 520h111l-16 -77q39 46 76 65.5t82 19.5q17 0 28.5 -1.5t19.5 -3.5z" />
    <glyph glyph-name="s" unicode="s" horiz-adv-x="530" 
d="M482 154q0 -48 -19 -80.5t-50.5 -52.5t-74 -28.5t-88.5 -8.5q-41 0 -80 8.5t-69 29t-49 53.5t-20 82h109q3 -49 35 -66.5t83 -17.5q57 0 82.5 19.5t25.5 54.5q0 26 -14.5 41.5t-53.5 23.5l-57 12q-82 18 -115 54t-33 90q0 43 17 74.5t47 52.5t70.5 31t87.5 10q42 0 78 -9
t63 -27.5t43.5 -48t20.5 -70.5l-104 -14q-6 38 -28.5 60t-76.5 22q-33 0 -54 -6.5t-33 -16.5t-16.5 -22.5t-4.5 -24.5q0 -26 17 -40.5t60 -23.5l57 -12q80 -17 112 -54.5t32 -94.5z" />
    <glyph glyph-name="t" unicode="t" horiz-adv-x="363" 
d="M211 166l-3.5 -17.5t-1.5 -15.5q0 -29 14.5 -40t39.5 -11q18 0 33.5 2.5t28.5 6.5l17 -85q-48 -16 -105 -16q-69 0 -106 31t-37 94q0 28 7 55l55 260h-81l19 90h81l30 140h114l-30 -140h128l-19 -90h-128z" />
    <glyph glyph-name="u" unicode="u" horiz-adv-x="574" 
d="M250 520l-68 -319q-5 -28 -5 -45q0 -35 17 -55.5t54 -20.5q28 0 49 9t44 28q21 16 40 41t25 55l65 307h114l-109 -520h-112l16 75q-42 -49 -84.5 -70t-88.5 -21q-75 0 -111 40t-36 107q0 31 7 63l69 326h114z" />
    <glyph glyph-name="v" unicode="v" horiz-adv-x="544" 
d="M178 0l-96 520h127l53 -392l220 392h129l-316 -520h-117z" />
    <glyph glyph-name="w" unicode="w" horiz-adv-x="753" 
d="M123 0l-42 520h124l6 -380l188 376h105l27 -376l170 380h120l-262 -520h-114l-24 378l-186 -378h-112z" />
    <glyph glyph-name="x" unicode="x" horiz-adv-x="525" 
d="M354 269l129 -269h-125l-88 191l-162 -191h-132l247 276l-121 244h127l75 -169l146 169h127z" />
    <glyph glyph-name="y" unicode="y" horiz-adv-x="545" 
d="M82 520h126l66 -375l208 375h130l-335 -552q-24 -40 -44.5 -70.5t-43 -50.5t-49.5 -30.5t-64 -10.5q-25 0 -45.5 4.5t-40.5 12.5l30 86q11 -4 25 -7.5t30 -3.5q30 0 48.5 16.5t41.5 55.5l30 51z" />
    <glyph glyph-name="z" unicode="z" horiz-adv-x="484" 
d="M424 0h-424l17 80l345 350h-267l19 90h414l-16 -80l-345 -350h287z" />
    <glyph glyph-name="braceleft" unicode="{" horiz-adv-x="310" 
d="M66 353h7q34 0 53 18.5t27 53.5l37 173q16 76 56.5 106t103.5 30h78l-20 -95h-49q-29 0 -43.5 -12t-19.5 -37l-41 -191q-7 -31 -25.5 -57t-55.5 -37q25 -8 34.5 -25.5t9.5 -39.5q0 -14 -3 -29l-40 -191q-3 -11 -3 -18q0 -15 8.5 -23t30.5 -8h55l-21 -95h-74
q-54 0 -82 24.5t-28 72.5q0 22 4 39l37 173q2 7 2 13v12q0 23 -12 35t-40 12h-6z" />
    <glyph glyph-name="bar" unicode="|" horiz-adv-x="252" 
d="M12 -124l183 858h108l-183 -858h-108z" />
    <glyph glyph-name="braceright" unicode="}" horiz-adv-x="310" 
d="M307 257h-7q-34 0 -53 -18.5t-27 -53.5l-37 -173q-16 -76 -57 -106t-103 -30h-78l20 95h49q29 0 43.5 12t19.5 37l41 191q7 31 25.5 57t55.5 37q-25 8 -34.5 25.5t-9.5 39.5q0 14 3 29l40 191q3 10 3 18q0 15 -8.5 23t-30.5 8h-55l21 95h74q54 0 82 -24.5t28 -72.5
q0 -22 -4 -39l-37 -173q-2 -7 -2 -13v-12q0 -23 12 -35t40 -12h6z" />
    <glyph glyph-name="asciitilde" unicode="~" 
d="M603 424q-6 -59 -21 -96t-37.5 -59t-51 -30t-60.5 -8q-34 0 -60 14t-48.5 31.5t-43 31.5t-43.5 14q-32 0 -49.5 -17t-25.5 -67h-101q6 59 21 96.5t37 59t50.5 29.5t60.5 8q34 0 60 -14t48.5 -30.5t43 -30.5t43.5 -14q32 0 49.5 17t26.5 65h101z" />
    <glyph glyph-name="uni00A0" unicode="&#xa0;" horiz-adv-x="223" 
 />
    <glyph glyph-name="exclamdown" unicode="&#xa1;" horiz-adv-x="252" 
d="M259 520l-29 -138h-116l28 138h117zM209 304l-96 -498h-122l113 498h105z" />
    <glyph glyph-name="cent" unicode="&#xa2;" 
d="M473 429q-3 35 -15.5 60t-42.5 36l-75 -353q48 5 74 32t37 72h115q-20 -93 -78.5 -143.5t-166.5 -52.5l-19 -90h-66l20 95q-78 17 -120.5 73.5t-42.5 134.5q0 77 21 137t58.5 102t88.5 65.5t110 26.5l19 89h65l-20 -93q75 -13 110.5 -60t41.5 -116zM210 297
q0 -42 15.5 -73t50.5 -44l75 350q-64 -9 -102.5 -69.5t-38.5 -163.5z" />
    <glyph glyph-name="sterling" unicode="&#xa3;" 
d="M287 302q-2 -60 -24.5 -109t-73.5 -94h356l-34 -99h-463l18 85q48 40 75.5 81.5t34.5 92.5q2 10 3 21t1 22h-87l20 90h61q-2 15 -4 36t-2 41q0 118 58.5 179.5t175.5 61.5q87 0 137 -41t62 -132l-99 -15q-9 51 -34 72.5t-70 21.5q-38 0 -62 -11.5t-38 -31t-19 -46
t-5 -56.5q0 -20 2 -39.5t4 -39.5h221l-19 -90h-195z" />
    <glyph glyph-name="currency" unicode="&#xa4;" 
d="M369 586q33 0 61.5 -10t51.5 -27l67 61l58 -70l-68 -58q9 -19 14.5 -40t5.5 -44q0 -63 -17 -113t-46 -87l52 -63l-74 -62l-50 63q-55 -31 -127 -31q-34 0 -62.5 9.5t-51.5 26.5l-68 -61l-60 71l70 60q-17 36 -17 82q0 63 17.5 114t49.5 88l-50 63l73 61l50 -63
q27 14 57.5 22t63.5 8zM361 504q-32 0 -60.5 -13.5t-50 -39.5t-34 -64.5t-12.5 -88.5q0 -51 25.5 -81t73.5 -30q33 0 62 13.5t50.5 39.5t34 64.5t12.5 88.5q0 49 -25 80t-76 31z" />
    <glyph glyph-name="yen" unicode="&#xa5;" 
d="M345 146l-30 -146h-112l30 146h-173l18 82h173l14 68l-3 14h-170l18 83h119l-105 298h117l97 -305l225 305h119l-230 -298h119l-17 -83h-168l-9 -14l-14 -68h176l-17 -82h-177z" />
    <glyph glyph-name="brokenbar" unicode="&#xa6;" horiz-adv-x="252" 
d="M122 390l73 344h108l-73 -344h-108zM195 225l-75 -349h-108l75 349h108z" />
    <glyph glyph-name="section" unicode="&#xa7;" horiz-adv-x="543" 
d="M249 -121q-111 0 -169 49t-61 142h112q1 -21 7.5 -39.5t20 -32t36.5 -21t57 -7.5t56 6.5t35 18t17.5 27t4.5 34.5q0 21 -13.5 40.5t-53.5 30.5l-79 21q-73 19 -107 57t-34 89q0 54 24 92t87 57q-31 17 -44.5 46.5t-13.5 64.5q0 90 64.5 134t173.5 44q58 0 97 -14.5
t63.5 -37.5t37 -50.5t17.5 -54.5l-104 -23q-8 38 -35 63t-85 25q-34 0 -56.5 -6t-36 -16.5t-19 -25.5t-5.5 -32q0 -20 12.5 -38.5t50.5 -29.5l91 -25q73 -20 102 -56.5t29 -85.5q0 -54 -23.5 -92t-87.5 -58q32 -17 45 -48t13 -64q0 -98 -60 -141t-166 -43zM316 399
q-20 5 -43 5q-19 0 -36 -6t-30.5 -18t-21.5 -31t-8 -45q0 -22 14.5 -42.5t55.5 -31.5l35 -10q10 -3 23.5 -4.5t25.5 -1.5q19 0 36.5 5.5t31 17.5t22 30.5t8.5 44.5q0 22 -14.5 42.5t-55.5 32.5z" />
    <glyph glyph-name="dieresis" unicode="&#xa8;" horiz-adv-x="581" 
d="M130 612l23 112h109l-23 -112h-109zM318 612l24 112h109l-23 -112h-110z" />
    <glyph glyph-name="copyright" unicode="&#xa9;" horiz-adv-x="775" 
d="M424 714q76 0 138.5 -25.5t107.5 -72t70 -112.5t25 -147t-26.5 -147t-72.5 -112.5t-108.5 -72t-133.5 -25.5q-76 0 -139 25.5t-108.5 72t-70.5 112.5t-25 147t27 147t73.5 112.5t109 72t133.5 25.5zM424 648q-59 0 -108.5 -20.5t-85.5 -58.5t-56 -92t-20 -120t20 -120
t56 -92.5t85.5 -59t108.5 -20.5q58 0 107 20.5t85 59t56 92.5t20 120t-20 120t-56 92t-85 58.5t-107 20.5zM506 413q-6 34 -24 55.5t-55 21.5q-27 0 -46 -11t-30.5 -29t-16.5 -42t-5 -51t5 -51t16 -42.5t30 -29t46 -10.5q72 0 83 79h91q-8 -70 -51 -110.5t-124 -40.5
q-94 0 -140.5 56t-46.5 148q0 45 13 83t38 65t60.5 42t80.5 15q75 0 115 -36.5t49 -96.5z" />
    <glyph glyph-name="ordfeminine" unicode="&#xaa;" horiz-adv-x="425" 
d="M100 435q0 44 18.5 71t49 42.5t70.5 21.5t83 8l57 2l2 16t1 15q0 25 -14 39t-46 14q-42 0 -61 -11.5t-28 -39.5l-79 9q20 63 62 86.5t114 23.5q66 0 101.5 -30t35.5 -87q0 -17 -5 -45l-49 -230h-84l10 47q-25 -25 -52.5 -41t-73.5 -16q-51 0 -81.5 30t-30.5 75zM365 520
l-52 -3q-38 -2 -62.5 -7t-38.5 -14t-19 -22t-5 -31q0 -17 11 -30.5t40 -13.5q45 0 78 24.5t42 67.5z" />
    <glyph glyph-name="guillemotleft" unicode="&#xab;" horiz-adv-x="518" 
d="M240 481h118l-174 -229l73 -221h-114l-82 227zM446 481h118l-174 -229l73 -221h-114l-82 227z" />
    <glyph glyph-name="logicalnot" unicode="&#xac;" 
d="M512 168h-102l37 170h-340l21 98h441z" />
    <glyph glyph-name="uni00AD" unicode="&#xad;" horiz-adv-x="390" 
d="M64 239l24 113h296l-24 -113h-296z" />
    <glyph glyph-name="registered" unicode="&#xae;" horiz-adv-x="486" 
d="M234 622h79q29 0 47 -5.5t28 -14t13.5 -20t3.5 -23.5q0 -23 -7.5 -36t-27.5 -23l45 -86h-55l-37 75h-40v-75h-49v208zM354 558q0 11 -8 18t-34 7h-29v-54h35q23 0 29.5 8.5t6.5 20.5zM317 342q72 0 115 44t43 128t-43 128t-115 44t-114.5 -44t-42.5 -128t42.5 -128
t114.5 -44zM317 296q-47 0 -86 15t-67 43.5t-43 68.5t-15 91t16.5 91t45 68.5t67 43.5t82.5 15q48 0 86.5 -15t66.5 -43.5t43 -68.5t15 -91t-16.5 -91t-45 -68.5t-67 -43.5t-82.5 -15z" />
    <glyph glyph-name="macron" unicode="&#xaf;" horiz-adv-x="581" 
d="M162 706h276l-18 -89h-277z" />
    <glyph glyph-name="degree" unicode="&#xb0;" horiz-adv-x="340" 
d="M85 570q0 30 11 56.5t30.5 45.5t46 30t58.5 11q31 0 57.5 -11t45.5 -30t30 -45.5t11 -56.5q0 -31 -11 -57.5t-30 -46t-45.5 -30.5t-57.5 -11q-32 0 -58.5 11t-46 30.5t-30.5 46t-11 57.5zM231 498q30 0 48.5 19.5t18.5 52.5q0 32 -18.5 51.5t-48.5 19.5
q-32 0 -50.5 -19.5t-18.5 -51.5q0 -33 18.5 -52.5t50.5 -19.5z" />
    <glyph glyph-name="plusminus" unicode="&#xb1;" 
d="M72 99h160l41 192h-184l22 99h183l42 198h103l-42 -198h183l-21 -99h-184l-40 -192h187l-21 -99h-451z" />
    <glyph glyph-name="twosuperior" unicode="&#xb2;" horiz-adv-x="412" 
d="M292 633q-29 0 -49.5 -13t-33.5 -56l-83 13q9 31 23 55.5t35 41.5t50 25.5t69 8.5q29 0 53 -8.5t41 -24t26.5 -36t9.5 -44.5q0 -29 -7.5 -52t-22.5 -43t-36.5 -38.5t-48.5 -37.5q-20 -14 -38.5 -28t-38.5 -28h157l-27 -78h-286l13 65q23 17 52 37.5t77 55.5
q27 19 48.5 35t36.5 31.5t22.5 32.5t7.5 39q0 18 -12.5 32.5t-37.5 14.5z" />
    <glyph glyph-name="threesuperior" unicode="&#xb3;" horiz-adv-x="412" 
d="M273 532q70 0 70 61q0 19 -14 31.5t-43 12.5q-33 0 -53 -11.5t-31 -50.5l-78 12q15 58 53 89.5t115 31.5q63 0 97.5 -31.5t34.5 -76.5q0 -37 -17 -62t-56 -42q26 -14 39 -37.5t13 -51.5q0 -61 -39.5 -97t-120.5 -36q-70 0 -111.5 36.5t-41.5 105.5h78q3 -71 77 -71
q32 0 52.5 14.5t20.5 49.5q0 27 -15.5 39t-41.5 12h-48l14 72h46z" />
    <glyph glyph-name="acute" unicode="&#xb4;" horiz-adv-x="581" 
d="M148 593l146 148h138l-171 -148h-113z" />
    <glyph glyph-name="mu" unicode="&#xb5;" horiz-adv-x="574" 
d="M380 75q-32 -42 -67.5 -65t-84.5 -23q-30 0 -49.5 8.5t-33.5 26.5l-47 -216h-113l151 714h114l-68 -319q-5 -25 -5 -42q0 -36 16.5 -57.5t54.5 -21.5q28 0 49 9t44 28q21 16 40 41t25 55l65 307h114l-109 -520h-112z" />
    <glyph glyph-name="paragraph" unicode="&#xb6;" horiz-adv-x="632" 
d="M391 -139l161 759h-102l-161 -759h-110l89 418q-51 3 -86.5 19.5t-57 42t-31.5 56t-10 62.5q0 54 17.5 100.5t57.5 81t104.5 54t158.5 19.5h261l-181 -853h-110z" />
    <glyph glyph-name="periodcentered" unicode="&#xb7;" horiz-adv-x="231" 
d="M86 303l29 139h121l-29 -139h-121z" />
    <glyph glyph-name="cedilla" unicode="&#xb8;" horiz-adv-x="581" 
d="M274 6h66l-28 -56q47 -6 65 -27.5t18 -43.5q0 -29 -11 -47t-30 -28t-45.5 -14t-57.5 -4t-66 7l10 65q20 -4 34 -5t27 -1q28 0 41 6t13 23q0 14 -13.5 20.5t-45.5 6.5h-27z" />
    <glyph glyph-name="onesuperior" unicode="&#xb9;" horiz-adv-x="412" 
d="M205 290l66 313l-96 -47l-29 64l141 72h97l-85 -402h-94z" />
    <glyph glyph-name="ordmasculine" unicode="&#xba;" horiz-adv-x="425" 
d="M317 732q37 0 67.5 -12.5t52 -34.5t33.5 -51.5t12 -63.5q0 -59 -16.5 -104.5t-46 -77t-70.5 -47.5t-89 -16q-38 0 -68 12.5t-52 34.5t-33.5 51.5t-11.5 64.5q0 57 17 102t47 76.5t70.5 48.5t87.5 17zM310 656q-54 0 -88 -42t-34 -121q0 -42 20 -67t58 -25q55 0 89 41.5
t34 122.5q0 42 -20.5 66.5t-58.5 24.5z" />
    <glyph glyph-name="guillemotright" unicode="&#xbb;" horiz-adv-x="518" 
d="M118 31h-120l175 229l-73 221h113l84 -227zM324 31h-120l175 229l-73 221h113l84 -227z" />
    <glyph glyph-name="onequarter" unicode="&#xbc;" horiz-adv-x="924" 
d="M284 0h-113l495 691h113zM721 0l19 86h-197l11 59l250 257h82l-52 -244h51l-24 -72h-42l-18 -86h-80zM647 158h107l30 142zM159 290l66 313l-96 -47l-29 64l141 72h97l-85 -402h-94z" />
    <glyph glyph-name="onehalf" unicode="&#xbd;" horiz-adv-x="924" 
d="M254 0h-113l495 691h113zM757 343q-29 0 -49.5 -13t-33.5 -56l-83 13q9 31 23 55.5t35 41.5t50 25.5t69 8.5q29 0 53 -8.5t41 -24t26.5 -36t9.5 -44.5q0 -29 -7.5 -52t-22.5 -43t-36.5 -38.5t-48.5 -37.5q-20 -14 -38.5 -28t-38.5 -28h157l-27 -78h-286l13 65
q23 17 52 37.5t77 55.5q27 19 48.5 35t36.5 31.5t22.5 32.5t7.5 39q0 18 -12.5 32.5t-37.5 14.5zM159 290l66 313l-96 -47l-29 64l141 72h97l-85 -402h-94z" />
    <glyph glyph-name="threequarters" unicode="&#xbe;" horiz-adv-x="924" 
d="M340 0h-113l495 691h113zM721 0l19 86h-197l11 59l250 257h82l-52 -244h51l-24 -72h-42l-18 -86h-80zM647 158h107l30 142zM277 532q70 0 70 61q0 19 -14 31.5t-43 12.5q-33 0 -53 -11.5t-31 -50.5l-78 12q15 58 53 89.5t115 31.5q63 0 97.5 -31.5t34.5 -76.5
q0 -37 -17 -62t-56 -42q26 -14 39 -37.5t13 -51.5q0 -61 -39.5 -97t-120.5 -36q-70 0 -111.5 36.5t-41.5 105.5h78q3 -71 77 -71q32 0 52.5 14.5t20.5 49.5q0 27 -15.5 39t-41.5 12h-48l14 72h46z" />
    <glyph glyph-name="questiondown" unicode="&#xbf;" horiz-adv-x="497" 
d="M0 -41q0 36 9 63.5t24.5 50t35.5 41.5t43 38q20 17 39.5 32t36 30.5t28 33.5t16.5 42l2 14h113l-4 -18q-6 -30 -17 -52t-27 -41t-36.5 -36t-45.5 -37q-21 -17 -39 -32t-31.5 -31.5t-21.5 -37t-8 -47.5q0 -38 24 -59.5t69 -21.5q25 0 46.5 5t39.5 17.5t32 34.5t24 56
l102 -14q-12 -44 -31.5 -80t-49.5 -61.5t-72.5 -39.5t-100.5 -14q-46 0 -83 12t-63 33.5t-40 52t-14 66.5zM390 520l-28 -137h-118l29 137h117z" />
    <glyph glyph-name="Agrave" unicode="&#xc0;" horiz-adv-x="686" 
d="M521 714l121 -714h-124l-28 182h-278l-105 -182h-130l424 714h120zM266 283h211l-44 294zM442 773l-120 139h130l95 -139h-105z" />
    <glyph glyph-name="Aacute" unicode="&#xc1;" horiz-adv-x="686" 
d="M521 714l121 -714h-124l-28 182h-278l-105 -182h-130l424 714h120zM266 283h211l-44 294zM390 773l150 139h140l-177 -139h-113z" />
    <glyph glyph-name="Acircumflex" unicode="&#xc2;" horiz-adv-x="686" 
d="M521 714l121 -714h-124l-28 182h-278l-105 -182h-130l424 714h120zM266 283h211l-44 294zM297 773l146 139h114l91 -139h-101l-56 75l-92 -75h-102z" />
    <glyph glyph-name="Atilde" unicode="&#xc3;" horiz-adv-x="686" 
d="M521 714l121 -714h-124l-28 182h-278l-105 -182h-130l424 714h120zM266 283h211l-44 294zM531 858q23 0 34 9.5t15 35.5h83q-7 -69 -36 -99t-83 -30q-21 0 -39 7.5t-33 17t-29 17t-27 7.5q-23 0 -35 -10.5t-16 -36.5h-83q7 69 36.5 99.5t83.5 30.5q21 0 38.5 -7.5
t33 -16.5t29.5 -16.5t28 -7.5z" />
    <glyph glyph-name="Adieresis" unicode="&#xc4;" horiz-adv-x="686" 
d="M521 714l121 -714h-124l-28 182h-278l-105 -182h-130l424 714h120zM266 283h211l-44 294zM316 786l24 116h113l-25 -116h-112zM510 786l24 116h113l-25 -116h-112z" />
    <glyph glyph-name="Aring" unicode="&#xc5;" horiz-adv-x="686" 
d="M350 787q0 28 9 48.5t24.5 34.5t35.5 21t43 7q22 0 42.5 -7t36.5 -21t25 -34.5t9 -48.5q0 -35 -14 -58t-37 -36l118 -693h-124l-28 182h-278l-105 -182h-130l414 698q-19 14 -30 35.5t-11 53.5zM266 283h211l-44 294zM415 787q0 -26 12.5 -38t34.5 -12q48 0 48 50
q0 27 -12.5 39t-35.5 12q-22 0 -34.5 -12t-12.5 -39z" />
    <glyph glyph-name="AE" unicode="&#xc6;" horiz-adv-x="1040" 
d="M555 225h-278l-175 -225h-138l560 714h585l-22 -104h-334l-40 -190h313l-22 -105h-313l-45 -211h354l-36 -104h-456zM352 327h225l60 283h-67z" />
    <glyph glyph-name="Ccedilla" unicode="&#xc7;" horiz-adv-x="712" 
d="M336 -16q-62 6 -109 32t-78.5 67t-47 95t-15.5 117q0 86 26 165t74.5 139.5t118 96.5t156.5 36q66 0 114.5 -17t81.5 -48.5t50.5 -76.5t22.5 -100l-120 -17q-10 76 -44 115.5t-110 39.5q-57 0 -102 -26t-76.5 -70.5t-48.5 -103.5t-17 -125q0 -45 9.5 -84.5t30 -69
t53 -46.5t78.5 -17q83 0 126.5 40.5t57.5 111.5h131q-12 -55 -34.5 -100.5t-57.5 -79t-85 -53t-117 -22.5l-18 -36q48 -8 66 -28.5t18 -45.5q0 -54 -38 -75t-110 -21q-14 0 -30.5 2t-36.5 6l10 64q21 -3 35 -4.5t28 -1.5q29 0 42.5 7.5t13.5 25.5q0 13 -13.5 20t-47.5 7h-28
z" />
    <glyph glyph-name="Egrave" unicode="&#xc8;" horiz-adv-x="599" 
d="M292 610l-40 -190h334l-22 -105h-334l-45 -211h375l-36 -104h-481l151 714h474l-21 -104h-355zM429 773l-120 139h130l95 -139h-105z" />
    <glyph glyph-name="Eacute" unicode="&#xc9;" horiz-adv-x="599" 
d="M292 610l-40 -190h334l-22 -105h-334l-45 -211h375l-36 -104h-481l151 714h474l-21 -104h-355zM345 773l150 139h140l-177 -139h-113z" />
    <glyph glyph-name="Ecircumflex" unicode="&#xca;" horiz-adv-x="599" 
d="M292 610l-40 -190h334l-22 -105h-334l-45 -211h375l-36 -104h-481l151 714h474l-21 -104h-355zM268 773l146 139h114l91 -139h-101l-56 75l-92 -75h-102z" />
    <glyph glyph-name="Edieresis" unicode="&#xcb;" horiz-adv-x="599" 
d="M292 610l-40 -190h334l-22 -105h-334l-45 -211h375l-36 -104h-481l151 714h474l-21 -104h-355zM289 786l24 116h113l-25 -116h-112zM483 786l24 116h113l-25 -116h-112z" />
    <glyph glyph-name="Igrave" unicode="&#xcc;" horiz-adv-x="272" 
d="M43 0l151 714h121l-151 -714h-121zM237 773l-120 139h130l95 -139h-105z" />
    <glyph glyph-name="Iacute" unicode="&#xcd;" horiz-adv-x="272" 
d="M43 0l151 714h121l-151 -714h-121zM182 773l150 139h140l-177 -139h-113z" />
    <glyph glyph-name="Icircumflex" unicode="&#xce;" horiz-adv-x="272" 
d="M43 0l151 714h121l-151 -714h-121zM89 773l146 139h114l91 -139h-101l-56 75l-92 -75h-102z" />
    <glyph glyph-name="Idieresis" unicode="&#xcf;" horiz-adv-x="272" 
d="M43 0l151 714h121l-151 -714h-121zM109 786l24 116h113l-25 -116h-112zM303 786l24 116h113l-25 -116h-112z" />
    <glyph glyph-name="Eth" unicode="&#xd0;" horiz-adv-x="741" 
d="M58 0l67 318h-78l21 101h79l62 295h234q68 0 122.5 -22.5t92.5 -62t58 -92.5t20 -114q0 -95 -27.5 -173t-82.5 -133.5t-137.5 -86t-191.5 -30.5h-239zM312 103q76 0 132.5 23t93.5 65t55 100t18 129q0 39 -11 74t-33.5 61t-56 41t-78.5 15h-126l-41 -192h170l-22 -101
h-169l-45 -215h113z" />
    <glyph glyph-name="Ntilde" unicode="&#xd1;" horiz-adv-x="710" 
d="M500 0l-230 518l-110 -518h-117l151 714h102l228 -520l110 520h118l-151 -714h-101zM550 858q23 0 34 9.5t15 35.5h83q-7 -69 -36 -99t-83 -30q-21 0 -39 7.5t-33 17t-29 17t-27 7.5q-23 0 -35 -10.5t-16 -36.5h-83q7 69 36.5 99.5t83.5 30.5q21 0 38.5 -7.5t33 -16.5
t29.5 -16.5t28 -7.5z" />
    <glyph glyph-name="Ograve" unicode="&#xd2;" horiz-adv-x="772" 
d="M482 732q66 0 119 -21.5t89.5 -60.5t56.5 -94t20 -122q0 -86 -25 -167.5t-74.5 -144.5t-123 -101.5t-169.5 -38.5q-66 0 -119.5 21.5t-91 60.5t-57.5 94t-20 122q0 85 26 166.5t76.5 145t124 102t168.5 38.5zM473 628q-65 0 -114 -30t-81.5 -79t-49 -110t-16.5 -123
q0 -91 42.5 -145.5t127.5 -54.5q64 0 113 30t81.5 79t49 110t16.5 124q0 45 -10.5 81.5t-32 62.5t-53 40.5t-73.5 14.5zM488 773l-120 139h130l95 -139h-105z" />
    <glyph glyph-name="Oacute" unicode="&#xd3;" horiz-adv-x="772" 
d="M482 732q66 0 119 -21.5t89.5 -60.5t56.5 -94t20 -122q0 -86 -25 -167.5t-74.5 -144.5t-123 -101.5t-169.5 -38.5q-66 0 -119.5 21.5t-91 60.5t-57.5 94t-20 122q0 85 26 166.5t76.5 145t124 102t168.5 38.5zM473 628q-65 0 -114 -30t-81.5 -79t-49 -110t-16.5 -123
q0 -91 42.5 -145.5t127.5 -54.5q64 0 113 30t81.5 79t49 110t16.5 124q0 45 -10.5 81.5t-32 62.5t-53 40.5t-73.5 14.5zM403 773l150 139h140l-177 -139h-113z" />
    <glyph glyph-name="Ocircumflex" unicode="&#xd4;" horiz-adv-x="772" 
d="M482 732q66 0 119 -21.5t89.5 -60.5t56.5 -94t20 -122q0 -86 -25 -167.5t-74.5 -144.5t-123 -101.5t-169.5 -38.5q-66 0 -119.5 21.5t-91 60.5t-57.5 94t-20 122q0 85 26 166.5t76.5 145t124 102t168.5 38.5zM473 628q-65 0 -114 -30t-81.5 -79t-49 -110t-16.5 -123
q0 -91 42.5 -145.5t127.5 -54.5q64 0 113 30t81.5 79t49 110t16.5 124q0 45 -10.5 81.5t-32 62.5t-53 40.5t-73.5 14.5zM324 773l146 139h114l91 -139h-101l-56 75l-92 -75h-102z" />
    <glyph glyph-name="Otilde" unicode="&#xd5;" horiz-adv-x="772" 
d="M482 732q66 0 119 -21.5t89.5 -60.5t56.5 -94t20 -122q0 -86 -25 -167.5t-74.5 -144.5t-123 -101.5t-169.5 -38.5q-66 0 -119.5 21.5t-91 60.5t-57.5 94t-20 122q0 85 26 166.5t76.5 145t124 102t168.5 38.5zM473 628q-65 0 -114 -30t-81.5 -79t-49 -110t-16.5 -123
q0 -91 42.5 -145.5t127.5 -54.5q64 0 113 30t81.5 79t49 110t16.5 124q0 45 -10.5 81.5t-32 62.5t-53 40.5t-73.5 14.5zM564 858q23 0 34 9.5t15 35.5h83q-7 -69 -36 -99t-83 -30q-21 0 -39 7.5t-33 17t-29 17t-27 7.5q-23 0 -35 -10.5t-16 -36.5h-83q7 69 36.5 99.5
t83.5 30.5q21 0 38.5 -7.5t33 -16.5t29.5 -16.5t28 -7.5z" />
    <glyph glyph-name="Odieresis" unicode="&#xd6;" horiz-adv-x="772" 
d="M482 732q66 0 119 -21.5t89.5 -60.5t56.5 -94t20 -122q0 -86 -25 -167.5t-74.5 -144.5t-123 -101.5t-169.5 -38.5q-66 0 -119.5 21.5t-91 60.5t-57.5 94t-20 122q0 85 26 166.5t76.5 145t124 102t168.5 38.5zM473 628q-65 0 -114 -30t-81.5 -79t-49 -110t-16.5 -123
q0 -91 42.5 -145.5t127.5 -54.5q64 0 113 30t81.5 79t49 110t16.5 124q0 45 -10.5 81.5t-32 62.5t-53 40.5t-73.5 14.5zM342 786l24 116h113l-25 -116h-112zM536 786l24 116h113l-25 -116h-112z" />
    <glyph glyph-name="multiply" unicode="&#xd7;" 
d="M92 193l177 149l-123 153l80 64l122 -150l177 149l60 -70l-179 -151l121 -151l-81 -64l-119 149l-176 -148z" />
    <glyph glyph-name="Oslash" unicode="&#xd8;" horiz-adv-x="772" 
d="M482 732q104 0 175 -53l66 76l54 -45l-70 -81q60 -77 60 -195q0 -86 -25 -167.5t-74.5 -144.5t-123 -101.5t-169.5 -38.5q-55 0 -100.5 14.5t-81.5 41.5l-67 -78l-54 45l72 83q-57 76 -57 192q0 85 26 166.5t76.5 145t124 102t168.5 38.5zM642 429q0 62 -19 104
l-354 -408q43 -39 113 -39q64 0 113 30t81.5 79t49 110t16.5 124zM473 628q-65 0 -114 -30t-81.5 -79t-49 -110t-16.5 -123q0 -60 17 -100l352 406q-42 36 -108 36z" />
    <glyph glyph-name="Ugrave" unicode="&#xd9;" horiz-adv-x="688" 
d="M330 -18q-56 0 -101.5 13.5t-78.5 40.5t-51 68.5t-18 97.5q0 43 10 87l90 425h120l-90 -428q-10 -39 -10 -74q0 -66 34 -96t103 -30q43 0 73.5 12.5t52.5 37.5t36.5 62.5t25.5 87.5l91 428h121l-90 -428q-17 -80 -43.5 -137.5t-65 -94.5t-90.5 -54.5t-119 -17.5zM442 773
l-120 139h130l95 -139h-105z" />
    <glyph glyph-name="Uacute" unicode="&#xda;" horiz-adv-x="688" 
d="M330 -18q-56 0 -101.5 13.5t-78.5 40.5t-51 68.5t-18 97.5q0 43 10 87l90 425h120l-90 -428q-10 -39 -10 -74q0 -66 34 -96t103 -30q43 0 73.5 12.5t52.5 37.5t36.5 62.5t25.5 87.5l91 428h121l-90 -428q-17 -80 -43.5 -137.5t-65 -94.5t-90.5 -54.5t-119 -17.5zM383 773
l150 139h140l-177 -139h-113z" />
    <glyph glyph-name="Ucircumflex" unicode="&#xdb;" horiz-adv-x="688" 
d="M330 -18q-56 0 -101.5 13.5t-78.5 40.5t-51 68.5t-18 97.5q0 43 10 87l90 425h120l-90 -428q-10 -39 -10 -74q0 -66 34 -96t103 -30q43 0 73.5 12.5t52.5 37.5t36.5 62.5t25.5 87.5l91 428h121l-90 -428q-17 -80 -43.5 -137.5t-65 -94.5t-90.5 -54.5t-119 -17.5zM293 773
l146 139h114l91 -139h-101l-56 75l-92 -75h-102z" />
    <glyph glyph-name="Udieresis" unicode="&#xdc;" horiz-adv-x="688" 
d="M330 -18q-56 0 -101.5 13.5t-78.5 40.5t-51 68.5t-18 97.5q0 43 10 87l90 425h120l-90 -428q-10 -39 -10 -74q0 -66 34 -96t103 -30q43 0 73.5 12.5t52.5 37.5t36.5 62.5t25.5 87.5l91 428h121l-90 -428q-17 -80 -43.5 -137.5t-65 -94.5t-90.5 -54.5t-119 -17.5zM315 786
l24 116h113l-25 -116h-112zM509 786l24 116h113l-25 -116h-112z" />
    <glyph glyph-name="Yacute" unicode="&#xdd;" horiz-adv-x="635" 
d="M129 714h130l108 -310l240 310h134l-332 -417l-62 -297h-121l63 297zM356 773l150 139h140l-177 -139h-113z" />
    <glyph glyph-name="Thorn" unicode="&#xde;" horiz-adv-x="633" 
d="M640 396q0 -68 -22 -116.5t-63 -80t-99.5 -46.5t-131.5 -15h-133l-29 -138h-119l151 714h119l-27 -128h120q65 0 110 -17.5t72.5 -45t39.5 -61.5t12 -66zM335 239q40 0 74 7t59 24t38.5 46t13.5 73q0 20 -7 38t-23 31t-41.5 20.5t-61.5 7.5h-123l-52 -247h123z" />
    <glyph glyph-name="germandbls" unicode="&#xdf;" horiz-adv-x="590" 
d="M326 -10q-68 0 -119 22l30 84q17 -7 39 -11.5t51 -4.5q66 0 97 37.5t31 106.5q0 51 -32 80t-98 29h-41l18 89h38q25 0 48.5 6.5t41.5 21t29 38.5t11 60q0 38 -22.5 62.5t-67.5 24.5q-57 0 -87.5 -30.5t-45.5 -100.5l-106 -504h-109l109 517q21 102 80 153.5t162 51.5
q50 0 87 -12.5t61.5 -34.5t36.5 -52t12 -65q0 -66 -32 -109t-92 -62q54 -20 82.5 -63.5t28.5 -97.5q0 -50 -13 -93t-41.5 -74.5t-74.5 -50t-112 -18.5z" />
    <glyph glyph-name="agrave" unicode="&#xe0;" horiz-adv-x="549" 
d="M182 -13q-69 0 -110 36.5t-41 105.5q0 56 24 92t64 57t92 30t108 11l95 4l3 16q3 18 3 34q0 36 -21 56t-69 20q-54 0 -82 -14.5t-43 -56.5l-103 11q25 80 84 113.5t156 33.5q91 0 139 -41.5t49 -116.5q0 -14 -2 -29t-5 -31l-68 -318h-108l14 68q-36 -36 -76 -58.5
t-103 -22.5zM397 247l-77 -4q-50 -3 -84 -10.5t-54 -20.5t-28.5 -31.5t-8.5 -42.5q0 -26 18 -44.5t55 -18.5q31 0 59 9.5t50.5 26t38 40t21.5 52.5zM347 593l-113 148h126l88 -148h-101z" />
    <glyph glyph-name="aacute" unicode="&#xe1;" horiz-adv-x="549" 
d="M182 -13q-69 0 -110 36.5t-41 105.5q0 56 24 92t64 57t92 30t108 11l95 4l3 16q3 18 3 34q0 36 -21 56t-69 20q-54 0 -82 -14.5t-43 -56.5l-103 11q25 80 84 113.5t156 33.5q91 0 139 -41.5t49 -116.5q0 -14 -2 -29t-5 -31l-68 -318h-108l14 68q-36 -36 -76 -58.5
t-103 -22.5zM397 247l-77 -4q-50 -3 -84 -10.5t-54 -20.5t-28.5 -31.5t-8.5 -42.5q0 -26 18 -44.5t55 -18.5q31 0 59 9.5t50.5 26t38 40t21.5 52.5zM270 593l146 148h138l-171 -148h-113z" />
    <glyph glyph-name="acircumflex" unicode="&#xe2;" horiz-adv-x="549" 
d="M182 -13q-69 0 -110 36.5t-41 105.5q0 56 24 92t64 57t92 30t108 11l95 4l3 16q3 18 3 34q0 36 -21 56t-69 20q-54 0 -82 -14.5t-43 -56.5l-103 11q25 80 84 113.5t156 33.5q91 0 139 -41.5t49 -116.5q0 -14 -2 -29t-5 -31l-68 -318h-108l14 68q-36 -36 -76 -58.5
t-103 -22.5zM397 247l-77 -4q-50 -3 -84 -10.5t-54 -20.5t-28.5 -31.5t-8.5 -42.5q0 -26 18 -44.5t55 -18.5q31 0 59 9.5t50.5 26t38 40t21.5 52.5zM179 593l147 148h114l88 -148h-99l-55 85l-94 -85h-101z" />
    <glyph glyph-name="atilde" unicode="&#xe3;" horiz-adv-x="549" 
d="M182 -13q-69 0 -110 36.5t-41 105.5q0 56 24 92t64 57t92 30t108 11l95 4l3 16q3 18 3 34q0 36 -21 56t-69 20q-54 0 -82 -14.5t-43 -56.5l-103 11q25 80 84 113.5t156 33.5q91 0 139 -41.5t49 -116.5q0 -14 -2 -29t-5 -31l-68 -318h-108l14 68q-36 -36 -76 -58.5
t-103 -22.5zM397 247l-77 -4q-50 -3 -84 -10.5t-54 -20.5t-28.5 -31.5t-8.5 -42.5q0 -26 18 -44.5t55 -18.5q31 0 59 9.5t50.5 26t38 40t21.5 52.5zM417 685q23 0 34.5 9.5t15.5 35.5h79q-7 -69 -36 -99t-81 -30q-21 0 -38.5 7.5t-32.5 16.5t-28.5 16.5t-26.5 7.5
q-23 0 -35 -10t-16 -36h-79q7 69 36 99.5t81 30.5q21 0 38.5 -7.5t32.5 -16.5t28.5 -16.5t27.5 -7.5z" />
    <glyph glyph-name="adieresis" unicode="&#xe4;" horiz-adv-x="549" 
d="M182 -13q-69 0 -110 36.5t-41 105.5q0 56 24 92t64 57t92 30t108 11l95 4l3 16q3 18 3 34q0 36 -21 56t-69 20q-54 0 -82 -14.5t-43 -56.5l-103 11q25 80 84 113.5t156 33.5q91 0 139 -41.5t49 -116.5q0 -14 -2 -29t-5 -31l-68 -318h-108l14 68q-36 -36 -76 -58.5
t-103 -22.5zM397 247l-77 -4q-50 -3 -84 -10.5t-54 -20.5t-28.5 -31.5t-8.5 -42.5q0 -26 18 -44.5t55 -18.5q31 0 59 9.5t50.5 26t38 40t21.5 52.5zM208 612l23 112h109l-23 -112h-109zM396 612l24 112h109l-23 -112h-110z" />
    <glyph glyph-name="aring" unicode="&#xe5;" horiz-adv-x="549" 
d="M182 -13q-69 0 -110 36.5t-41 105.5q0 56 24 92t64 57t92 30t108 11l95 4l3 16q3 18 3 34q0 36 -21 56t-69 20q-54 0 -82 -14.5t-43 -56.5l-103 11q25 80 84 113.5t156 33.5q91 0 139 -41.5t49 -116.5q0 -14 -2 -29t-5 -31l-68 -318h-108l14 68q-36 -36 -76 -58.5
t-103 -22.5zM397 247l-77 -4q-50 -3 -84 -10.5t-54 -20.5t-28.5 -31.5t-8.5 -42.5q0 -26 18 -44.5t55 -18.5q31 0 59 9.5t50.5 26t38 40t21.5 52.5zM250 695q0 27 9 47t24 33.5t34.5 20t41.5 6.5q21 0 41 -6.5t35 -20t24 -33.5t9 -47t-9 -47t-24 -33t-35 -19.5t-41 -6.5
q-22 0 -41.5 6.5t-34.5 19.5t-24 33t-9 47zM313 695q0 -25 12.5 -37t33.5 -12t33.5 12t12.5 37q0 26 -12.5 37.5t-33.5 11.5t-33.5 -11.5t-12.5 -37.5z" />
    <glyph glyph-name="ae" unicode="&#xe6;" horiz-adv-x="895" 
d="M845 154q-22 -85 -79 -127.5t-160 -42.5q-75 0 -118.5 31.5t-67.5 81.5q-20 -25 -41 -45.5t-47 -34.5t-59 -22t-76 -8q-79 0 -122.5 36.5t-43.5 105.5q0 56 23.5 92t63 57t90.5 30t105 11l94 4l3 16q3 15 3 29q0 40 -23 60.5t-65 20.5q-51 0 -78.5 -14.5t-42.5 -56.5
l-102 11q24 80 81.5 113.5t146.5 33.5q63 0 100.5 -22t55.5 -65q35 43 79.5 65t107.5 22q48 0 85.5 -15t63 -41.5t38.5 -63t13 -79.5q0 -17 -2 -37.5t-6 -43.5l-4 -24h-363v-24q0 -60 30 -97.5t87 -37.5q51 0 79 19.5t40 61.5h111zM390 247l-76 -4q-49 -3 -81.5 -10.5
t-52 -20.5t-27.5 -31.5t-8 -42.5q0 -26 18.5 -44.5t57.5 -18.5q38 0 65.5 10.5t46.5 28t30.5 40.5t17.5 49zM662 449q-52 0 -93.5 -31.5t-60.5 -106.5h253q3 15 3 31q0 46 -25 76.5t-77 30.5z" />
    <glyph glyph-name="ccedilla" unicode="&#xe7;" horiz-adv-x="564" 
d="M239 -13q-42 6 -74.5 25t-55 47.5t-34 65.5t-11.5 79q0 80 23 142t62.5 104t93 64t114.5 22q50 0 86.5 -14t61 -38.5t37.5 -58t16 -72.5l-114 -16q-4 46 -25 76.5t-75 30.5q-35 0 -64.5 -16t-51 -46.5t-34 -75t-12.5 -101.5t26.5 -93t86.5 -36q54 0 84.5 27.5t42.5 76.5
h115q-19 -89 -75 -139.5t-158 -55.5l-17 -35q47 -6 65 -27.5t18 -43.5q0 -29 -11 -47t-30 -28t-45.5 -14t-57.5 -4t-66 7l10 65q20 -4 34 -5t27 -1q28 0 41 6t13 23q0 14 -13.5 20.5t-45.5 6.5h-27z" />
    <glyph glyph-name="egrave" unicode="&#xe8;" horiz-adv-x="580" 
d="M344 449q-54 0 -95.5 -31.5t-59.5 -106.5h257q3 15 3 31q0 49 -27 78t-78 29zM179 232q-1 -4 -1.5 -12.5t-0.5 -14.5q0 -27 7 -51t21.5 -42t37.5 -28.5t55 -10.5q54 0 81 19.5t40 61.5h111q-11 -41 -30 -73t-48 -53.5t-69.5 -32.5t-95.5 -11q-53 0 -94.5 16.5t-70 46
t-43.5 70t-15 88.5q0 79 22 141t60.5 104t91.5 64t116 22q49 0 87 -15t64 -41.5t39.5 -63t13.5 -79.5q0 -17 -2.5 -40.5t-6.5 -46.5l-3 -18h-367zM358 593l-113 148h126l88 -148h-101z" />
    <glyph glyph-name="eacute" unicode="&#xe9;" horiz-adv-x="580" 
d="M344 449q-54 0 -95.5 -31.5t-59.5 -106.5h257q3 15 3 31q0 49 -27 78t-78 29zM179 232q-1 -4 -1.5 -12.5t-0.5 -14.5q0 -27 7 -51t21.5 -42t37.5 -28.5t55 -10.5q54 0 81 19.5t40 61.5h111q-11 -41 -30 -73t-48 -53.5t-69.5 -32.5t-95.5 -11q-53 0 -94.5 16.5t-70 46
t-43.5 70t-15 88.5q0 79 22 141t60.5 104t91.5 64t116 22q49 0 87 -15t64 -41.5t39.5 -63t13.5 -79.5q0 -17 -2.5 -40.5t-6.5 -46.5l-3 -18h-367zM277 593l146 148h138l-171 -148h-113z" />
    <glyph glyph-name="ecircumflex" unicode="&#xea;" horiz-adv-x="580" 
d="M344 449q-54 0 -95.5 -31.5t-59.5 -106.5h257q3 15 3 31q0 49 -27 78t-78 29zM179 232q-1 -4 -1.5 -12.5t-0.5 -14.5q0 -27 7 -51t21.5 -42t37.5 -28.5t55 -10.5q54 0 81 19.5t40 61.5h111q-11 -41 -30 -73t-48 -53.5t-69.5 -32.5t-95.5 -11q-53 0 -94.5 16.5t-70 46
t-43.5 70t-15 88.5q0 79 22 141t60.5 104t91.5 64t116 22q49 0 87 -15t64 -41.5t39.5 -63t13.5 -79.5q0 -17 -2.5 -40.5t-6.5 -46.5l-3 -18h-367zM191 593l147 148h114l88 -148h-99l-55 85l-94 -85h-101z" />
    <glyph glyph-name="edieresis" unicode="&#xeb;" horiz-adv-x="580" 
d="M344 449q-54 0 -95.5 -31.5t-59.5 -106.5h257q3 15 3 31q0 49 -27 78t-78 29zM179 232q-1 -4 -1.5 -12.5t-0.5 -14.5q0 -27 7 -51t21.5 -42t37.5 -28.5t55 -10.5q54 0 81 19.5t40 61.5h111q-11 -41 -30 -73t-48 -53.5t-69.5 -32.5t-95.5 -11q-53 0 -94.5 16.5t-70 46
t-43.5 70t-15 88.5q0 79 22 141t60.5 104t91.5 64t116 22q49 0 87 -15t64 -41.5t39.5 -63t13.5 -79.5q0 -17 -2.5 -40.5t-6.5 -46.5l-3 -18h-367zM218 612l23 112h109l-23 -112h-109zM406 612l24 112h109l-23 -112h-110z" />
    <glyph glyph-name="igrave" unicode="&#xec;" horiz-adv-x="246" 
d="M33 0l110 520h114l-110 -520h-114zM175 593l-113 148h126l88 -148h-101z" />
    <glyph glyph-name="iacute" unicode="&#xed;" horiz-adv-x="246" 
d="M33 0l110 520h114l-110 -520h-114zM135 593l146 148h138l-171 -148h-113z" />
    <glyph glyph-name="icircumflex" unicode="&#xee;" horiz-adv-x="246" 
d="M33 0l110 520h114l-110 -520h-114zM36 593l147 148h114l88 -148h-99l-55 85l-94 -85h-101z" />
    <glyph glyph-name="idieresis" unicode="&#xef;" horiz-adv-x="246" 
d="M33 0l110 520h114l-110 -520h-114zM59 612l23 112h109l-23 -112h-109zM247 612l24 112h109l-23 -112h-110z" />
    <glyph glyph-name="eth" unicode="&#xf0;" horiz-adv-x="616" 
d="M285 579l55 47q-23 8 -48 14t-51 8l29 85q42 -5 76.5 -15.5t66.5 -25.5l76 65l45 -50l-62 -53q63 -51 93.5 -125.5t30.5 -168.5q0 -186 -81 -281t-223 -95q-56 0 -98.5 17.5t-71.5 47t-43.5 68t-14.5 80.5q0 70 22 125t59 92.5t85 57.5t101 20q54 0 92.5 -18.5
t61.5 -50.5q-2 61 -24.5 102.5t-57.5 67.5l-73 -63zM302 76q40 0 71 15.5t52.5 42.5t32.5 64t11 80q0 26 -8 49.5t-28 40.5q-35 32 -93 32q-38 0 -67.5 -15.5t-49.5 -41.5t-30.5 -61t-10.5 -75q0 -55 29 -93t91 -38z" />
    <glyph glyph-name="ntilde" unicode="&#xf1;" horiz-adv-x="581" 
d="M374 0l67 314q2 13 3.5 24t1.5 22q0 38 -18 59t-55 21q-50 0 -100 -38q-22 -17 -40 -40.5t-23 -51.5l-65 -310h-114l110 520h111l-16 -75q42 49 87 70t91 21q73 0 111.5 -39.5t38.5 -109.5q0 -32 -7 -61l-69 -326h-114zM446 685q23 0 34.5 9.5t15.5 35.5h79
q-7 -69 -36 -99t-81 -30q-21 0 -38.5 7.5t-32.5 16.5t-28.5 16.5t-26.5 7.5q-23 0 -35 -10t-16 -36h-79q7 69 36 99.5t81 30.5q21 0 38.5 -7.5t32.5 -16.5t28.5 -16.5t27.5 -7.5z" />
    <glyph glyph-name="ograve" unicode="&#xf2;" horiz-adv-x="609" 
d="M368 536q51 0 91.5 -17t69.5 -46t44.5 -69.5t15.5 -86.5q0 -79 -22.5 -141t-63 -104.5t-96 -65t-121.5 -22.5q-50 0 -91 17t-70 46t-45 69t-16 87q0 78 23.5 139.5t64.5 104.5t96.5 66t119.5 23zM360 444q-38 0 -70.5 -16.5t-56.5 -47.5t-37.5 -75.5t-13.5 -99.5
q0 -60 29 -94.5t83 -34.5q38 0 70.5 16.5t56 47t37 74.5t13.5 100q0 60 -28.5 95t-82.5 35zM371 593l-113 148h126l88 -148h-101z" />
    <glyph glyph-name="oacute" unicode="&#xf3;" horiz-adv-x="609" 
d="M368 536q51 0 91.5 -17t69.5 -46t44.5 -69.5t15.5 -86.5q0 -79 -22.5 -141t-63 -104.5t-96 -65t-121.5 -22.5q-50 0 -91 17t-70 46t-45 69t-16 87q0 78 23.5 139.5t64.5 104.5t96.5 66t119.5 23zM360 444q-38 0 -70.5 -16.5t-56.5 -47.5t-37.5 -75.5t-13.5 -99.5
q0 -60 29 -94.5t83 -34.5q38 0 70.5 16.5t56 47t37 74.5t13.5 100q0 60 -28.5 95t-82.5 35zM288 593l146 148h138l-171 -148h-113z" />
    <glyph glyph-name="ocircumflex" unicode="&#xf4;" horiz-adv-x="609" 
d="M368 536q51 0 91.5 -17t69.5 -46t44.5 -69.5t15.5 -86.5q0 -79 -22.5 -141t-63 -104.5t-96 -65t-121.5 -22.5q-50 0 -91 17t-70 46t-45 69t-16 87q0 78 23.5 139.5t64.5 104.5t96.5 66t119.5 23zM360 444q-38 0 -70.5 -16.5t-56.5 -47.5t-37.5 -75.5t-13.5 -99.5
q0 -60 29 -94.5t83 -34.5q38 0 70.5 16.5t56 47t37 74.5t13.5 100q0 60 -28.5 95t-82.5 35zM205 593l147 148h114l88 -148h-99l-55 85l-94 -85h-101z" />
    <glyph glyph-name="otilde" unicode="&#xf5;" horiz-adv-x="609" 
d="M368 536q51 0 91.5 -17t69.5 -46t44.5 -69.5t15.5 -86.5q0 -79 -22.5 -141t-63 -104.5t-96 -65t-121.5 -22.5q-50 0 -91 17t-70 46t-45 69t-16 87q0 78 23.5 139.5t64.5 104.5t96.5 66t119.5 23zM360 444q-38 0 -70.5 -16.5t-56.5 -47.5t-37.5 -75.5t-13.5 -99.5
q0 -60 29 -94.5t83 -34.5q38 0 70.5 16.5t56 47t37 74.5t13.5 100q0 60 -28.5 95t-82.5 35zM442 685q23 0 34.5 9.5t15.5 35.5h79q-7 -69 -36 -99t-81 -30q-21 0 -38.5 7.5t-32.5 16.5t-28.5 16.5t-26.5 7.5q-23 0 -35 -10t-16 -36h-79q7 69 36 99.5t81 30.5q21 0 38.5 -7.5
t32.5 -16.5t28.5 -16.5t27.5 -7.5z" />
    <glyph glyph-name="odieresis" unicode="&#xf6;" horiz-adv-x="609" 
d="M368 536q51 0 91.5 -17t69.5 -46t44.5 -69.5t15.5 -86.5q0 -79 -22.5 -141t-63 -104.5t-96 -65t-121.5 -22.5q-50 0 -91 17t-70 46t-45 69t-16 87q0 78 23.5 139.5t64.5 104.5t96.5 66t119.5 23zM360 444q-38 0 -70.5 -16.5t-56.5 -47.5t-37.5 -75.5t-13.5 -99.5
q0 -60 29 -94.5t83 -34.5q38 0 70.5 16.5t56 47t37 74.5t13.5 100q0 60 -28.5 95t-82.5 35zM231 612l23 112h109l-23 -112h-109zM419 612l24 112h109l-23 -112h-110z" />
    <glyph glyph-name="divide" unicode="&#xf7;" 
d="M561 390l-21 -99h-436l22 99h435zM363 218l-28 -132h-117l28 132h117zM444 595l-28 -132h-117l28 132h117z" />
    <glyph glyph-name="oslash" unicode="&#xf8;" horiz-adv-x="609" 
d="M543 456q22 -28 34 -63.5t12 -75.5q0 -79 -22.5 -141t-63 -104.5t-96 -65t-121.5 -22.5q-38 0 -70 9.5t-58 26.5l-62 -70l-50 44l63 71q-45 57 -45 138q0 78 23.5 139.5t64.5 104.5t96.5 66t119.5 23q73 0 126 -35l55 62l50 -43zM471 314q0 14 -2 27.5t-5 24.5l-238 -269
q27 -21 68 -21q38 0 70.5 16.5t56 47t37 74.5t13.5 100zM360 444q-38 0 -70.5 -16.5t-56.5 -47.5t-37.5 -75.5t-13.5 -99.5q0 -28 6 -50l238 269q-29 20 -66 20z" />
    <glyph glyph-name="ugrave" unicode="&#xf9;" horiz-adv-x="574" 
d="M250 520l-68 -319q-5 -28 -5 -45q0 -35 17 -55.5t54 -20.5q28 0 49 9t44 28q21 16 40 41t25 55l65 307h114l-109 -520h-112l16 75q-42 -49 -84.5 -70t-88.5 -21q-75 0 -111 40t-36 107q0 31 7 63l69 326h114zM349 593l-113 148h126l88 -148h-101z" />
    <glyph glyph-name="uacute" unicode="&#xfa;" horiz-adv-x="574" 
d="M250 520l-68 -319q-5 -28 -5 -45q0 -35 17 -55.5t54 -20.5q28 0 49 9t44 28q21 16 40 41t25 55l65 307h114l-109 -520h-112l16 75q-42 -49 -84.5 -70t-88.5 -21q-75 0 -111 40t-36 107q0 31 7 63l69 326h114zM281 593l146 148h138l-171 -148h-113z" />
    <glyph glyph-name="ucircumflex" unicode="&#xfb;" horiz-adv-x="574" 
d="M250 520l-68 -319q-5 -28 -5 -45q0 -35 17 -55.5t54 -20.5q28 0 49 9t44 28q21 16 40 41t25 55l65 307h114l-109 -520h-112l16 75q-42 -49 -84.5 -70t-88.5 -21q-75 0 -111 40t-36 107q0 31 7 63l69 326h114zM198 593l147 148h114l88 -148h-99l-55 85l-94 -85h-101z" />
    <glyph glyph-name="udieresis" unicode="&#xfc;" horiz-adv-x="574" 
d="M250 520l-68 -319q-5 -28 -5 -45q0 -35 17 -55.5t54 -20.5q28 0 49 9t44 28q21 16 40 41t25 55l65 307h114l-109 -520h-112l16 75q-42 -49 -84.5 -70t-88.5 -21q-75 0 -111 40t-36 107q0 31 7 63l69 326h114zM221 612l23 112h109l-23 -112h-109zM409 612l24 112h109
l-23 -112h-110z" />
    <glyph glyph-name="yacute" unicode="&#xfd;" horiz-adv-x="545" 
d="M82 520h126l66 -375l208 375h130l-335 -552q-24 -40 -44.5 -70.5t-43 -50.5t-49.5 -30.5t-64 -10.5q-25 0 -45.5 4.5t-40.5 12.5l30 86q11 -4 25 -7.5t30 -3.5q30 0 48.5 16.5t41.5 55.5l30 51zM263 593l146 148h138l-171 -148h-113z" />
    <glyph glyph-name="thorn" unicode="&#xfe;" horiz-adv-x="610" 
d="M240 451q31 39 73 62t96 23q48 0 82.5 -18t57 -49t33 -71t10.5 -85q0 -68 -19.5 -127.5t-54 -104.5t-83 -71t-106.5 -26q-57 0 -98 21t-70 69l-57 -268h-114l192 908h114zM195 253q-4 -16 -5 -30t-1 -28q0 -52 30 -85t90 -33q39 0 69.5 19.5t51.5 52.5t32 75.5t11 88.5
q0 63 -28 96t-73 33q-31 0 -58.5 -11.5t-50 -32t-38 -48t-22.5 -59.5z" />
    <glyph glyph-name="ydieresis" unicode="&#xff;" horiz-adv-x="545" 
d="M82 520h126l66 -375l208 375h130l-335 -552q-24 -40 -44.5 -70.5t-43 -50.5t-49.5 -30.5t-64 -10.5q-25 0 -45.5 4.5t-40.5 12.5l30 86q11 -4 25 -7.5t30 -3.5q30 0 48.5 16.5t41.5 55.5l30 51zM203 612l23 112h109l-23 -112h-109zM391 612l24 112h109l-23 -112h-110z
" />
    <glyph glyph-name="Amacron" unicode="&#x100;" horiz-adv-x="686" 
d="M521 714l121 -714h-124l-28 182h-278l-105 -182h-130l424 714h120zM266 283h211l-44 294zM339 885h301l-19 -92h-301z" />
    <glyph glyph-name="amacron" unicode="&#x101;" horiz-adv-x="549" 
d="M182 -13q-69 0 -110 36.5t-41 105.5q0 56 24 92t64 57t92 30t108 11l95 4l3 16q3 18 3 34q0 36 -21 56t-69 20q-54 0 -82 -14.5t-43 -56.5l-103 11q25 80 84 113.5t156 33.5q91 0 139 -41.5t49 -116.5q0 -14 -2 -29t-5 -31l-68 -318h-108l14 68q-36 -36 -76 -58.5
t-103 -22.5zM397 247l-77 -4q-50 -3 -84 -10.5t-54 -20.5t-28.5 -31.5t-8.5 -42.5q0 -26 18 -44.5t55 -18.5q31 0 59 9.5t50.5 26t38 40t21.5 52.5zM231 706h276l-18 -89h-277z" />
    <glyph glyph-name="Abreve" unicode="&#x102;" horiz-adv-x="686" 
d="M521 714l121 -714h-124l-28 182h-278l-105 -182h-130l424 714h120zM266 283h211l-44 294zM466 773q-57 0 -93.5 29t-36.5 80q0 17 3 37h85q-1 -5 -1.5 -11.5t-0.5 -11.5q0 -24 13 -37.5t39 -13.5q30 0 49.5 16t26.5 58h85q-12 -75 -51.5 -110.5t-117.5 -35.5z" />
    <glyph glyph-name="abreve" unicode="&#x103;" horiz-adv-x="549" 
d="M182 -13q-69 0 -110 36.5t-41 105.5q0 56 24 92t64 57t92 30t108 11l95 4l3 16q3 18 3 34q0 36 -21 56t-69 20q-54 0 -82 -14.5t-43 -56.5l-103 11q25 80 84 113.5t156 33.5q91 0 139 -41.5t49 -116.5q0 -14 -2 -29t-5 -31l-68 -318h-108l14 68q-36 -36 -76 -58.5
t-103 -22.5zM397 247l-77 -4q-50 -3 -84 -10.5t-54 -20.5t-28.5 -31.5t-8.5 -42.5q0 -26 18 -44.5t55 -18.5q31 0 59 9.5t50.5 26t38 40t21.5 52.5zM359 590q-57 0 -93 29.5t-36 80.5q0 9 0.5 18t2.5 20h82q-2 -7 -2 -13v-11q0 -26 14.5 -38.5t38.5 -12.5q29 0 49 16t27 59
h83q-12 -78 -53 -113t-113 -35z" />
    <glyph glyph-name="Aogonek" unicode="&#x104;" horiz-adv-x="686" 
d="M604 -191q-10 -1 -20.5 -1.5t-23.5 -0.5q-20 0 -39 4t-34 13t-24.5 23.5t-9.5 34.5q0 36 22 64t68 54h-25l-28 182h-278l-105 -182h-130l424 714h120l121 -714q-38 -22 -64 -44.5t-26 -45.5q0 -16 11 -22.5t28 -6.5q8 0 14 0.5t14 1.5zM266 283h211l-44 294z" />
    <glyph glyph-name="aogonek" unicode="&#x105;" horiz-adv-x="549" 
d="M418 -185q-18 -3 -42 -3q-19 0 -37.5 3.5t-32.5 12t-23 22.5t-9 34q0 68 88 116h-15l14 68q-36 -36 -76 -58.5t-103 -22.5q-69 0 -110 36.5t-41 105.5q0 56 24 92t64 57t92 30t108 11l95 4l3 16q3 18 3 34q0 36 -21 56t-69 20q-54 0 -82 -14.5t-43 -56.5l-103 11
q25 80 84 113.5t156 33.5q91 0 139 -41.5t49 -116.5q0 -14 -2 -29t-5 -31l-68 -318q-38 -22 -62.5 -43t-24.5 -44q0 -16 11 -22t28 -6h12.5t13.5 1zM397 247l-77 -4q-50 -3 -84 -10.5t-54 -20.5t-28.5 -31.5t-8.5 -42.5q0 -26 18 -44.5t55 -18.5q31 0 59 9.5t50.5 26t38 40
t21.5 52.5z" />
    <glyph glyph-name="Cacute" unicode="&#x106;" horiz-adv-x="712" 
d="M610 473q-10 76 -44 115.5t-110 39.5q-57 0 -102 -26t-76.5 -70.5t-48.5 -103.5t-17 -125q0 -45 9.5 -84.5t30 -69t53 -46.5t78.5 -17q83 0 126.5 40.5t57.5 111.5h131q-12 -57 -36 -104.5t-62.5 -81t-94 -52t-130.5 -18.5q-72 0 -126 23.5t-90.5 65.5t-54.5 99t-18 125
q0 86 26 165t74.5 139.5t118 96.5t156.5 36q66 0 114.5 -17t81.5 -48.5t50.5 -76.5t22.5 -100zM391 773l150 139h140l-177 -139h-113z" />
    <glyph glyph-name="cacute" unicode="&#x107;" horiz-adv-x="564" 
d="M444 337q-4 46 -25 76.5t-75 30.5q-35 0 -64.5 -16t-51 -46.5t-34 -75t-12.5 -101.5t26.5 -93t86.5 -36q54 0 84.5 27.5t42.5 76.5h115q-20 -94 -81 -145t-173 -51q-52 0 -92.5 16.5t-68.5 46t-43 69.5t-15 88q0 80 23 142t62.5 104t93 64t114.5 22q50 0 86.5 -14
t61 -38.5t37.5 -58t16 -72.5zM277 593l146 148h138l-171 -148h-113z" />
    <glyph glyph-name="Ccircumflex" unicode="&#x108;" horiz-adv-x="712" 
d="M610 473q-10 76 -44 115.5t-110 39.5q-57 0 -102 -26t-76.5 -70.5t-48.5 -103.5t-17 -125q0 -45 9.5 -84.5t30 -69t53 -46.5t78.5 -17q83 0 126.5 40.5t57.5 111.5h131q-12 -57 -36 -104.5t-62.5 -81t-94 -52t-130.5 -18.5q-72 0 -126 23.5t-90.5 65.5t-54.5 99t-18 125
q0 86 26 165t74.5 139.5t118 96.5t156.5 36q66 0 114.5 -17t81.5 -48.5t50.5 -76.5t22.5 -100zM304 773l146 139h114l91 -139h-101l-56 75l-92 -75h-102z" />
    <glyph glyph-name="ccircumflex" unicode="&#x109;" horiz-adv-x="564" 
d="M444 337q-4 46 -25 76.5t-75 30.5q-35 0 -64.5 -16t-51 -46.5t-34 -75t-12.5 -101.5t26.5 -93t86.5 -36q54 0 84.5 27.5t42.5 76.5h115q-20 -94 -81 -145t-173 -51q-52 0 -92.5 16.5t-68.5 46t-43 69.5t-15 88q0 80 23 142t62.5 104t93 64t114.5 22q50 0 86.5 -14
t61 -38.5t37.5 -58t16 -72.5zM195 593l147 148h114l88 -148h-99l-55 85l-94 -85h-101z" />
    <glyph glyph-name="Cdotaccent" unicode="&#x10a;" horiz-adv-x="712" 
d="M610 473q-10 76 -44 115.5t-110 39.5q-57 0 -102 -26t-76.5 -70.5t-48.5 -103.5t-17 -125q0 -45 9.5 -84.5t30 -69t53 -46.5t78.5 -17q83 0 126.5 40.5t57.5 111.5h131q-12 -57 -36 -104.5t-62.5 -81t-94 -52t-130.5 -18.5q-72 0 -126 23.5t-90.5 65.5t-54.5 99t-18 125
q0 86 26 165t74.5 139.5t118 96.5t156.5 36q66 0 114.5 -17t81.5 -48.5t50.5 -76.5t22.5 -100zM416 784l26 120h117l-26 -120h-117z" />
    <glyph glyph-name="cdotaccent" unicode="&#x10b;" horiz-adv-x="564" 
d="M444 337q-4 46 -25 76.5t-75 30.5q-35 0 -64.5 -16t-51 -46.5t-34 -75t-12.5 -101.5t26.5 -93t86.5 -36q54 0 84.5 27.5t42.5 76.5h115q-20 -94 -81 -145t-173 -51q-52 0 -92.5 16.5t-68.5 46t-43 69.5t-15 88q0 80 23 142t62.5 104t93 64t114.5 22q50 0 86.5 -14
t61 -38.5t37.5 -58t16 -72.5zM310 611l24 114h111l-24 -114h-111z" />
    <glyph glyph-name="Ccaron" unicode="&#x10c;" horiz-adv-x="712" 
d="M610 473q-10 76 -44 115.5t-110 39.5q-57 0 -102 -26t-76.5 -70.5t-48.5 -103.5t-17 -125q0 -45 9.5 -84.5t30 -69t53 -46.5t78.5 -17q83 0 126.5 40.5t57.5 111.5h131q-12 -57 -36 -104.5t-62.5 -81t-94 -52t-130.5 -18.5q-72 0 -126 23.5t-90.5 65.5t-54.5 99t-18 125
q0 86 26 165t74.5 139.5t118 96.5t156.5 36q66 0 114.5 -17t81.5 -48.5t50.5 -76.5t22.5 -100zM683 916l-146 -140h-114l-90 140h101l55 -75l93 75h101z" />
    <glyph glyph-name="ccaron" unicode="&#x10d;" horiz-adv-x="564" 
d="M444 337q-4 46 -25 76.5t-75 30.5q-35 0 -64.5 -16t-51 -46.5t-34 -75t-12.5 -101.5t26.5 -93t86.5 -36q54 0 84.5 27.5t42.5 76.5h115q-20 -94 -81 -145t-173 -51q-52 0 -92.5 16.5t-68.5 46t-43 69.5t-15 88q0 80 23 142t62.5 104t93 64t114.5 22q50 0 86.5 -14
t61 -38.5t37.5 -58t16 -72.5zM569 741l-147 -148h-114l-88 148h99l55 -85l94 85h101z" />
    <glyph glyph-name="Dcaron" unicode="&#x10e;" horiz-adv-x="726" 
d="M43 0l151 714h234q68 0 122.5 -22.5t92.5 -62t58 -92.5t20 -114q0 -95 -27.5 -173t-82.5 -133.5t-137.5 -86t-191.5 -30.5h-239zM297 103q76 0 132.5 23t93.5 65t55 100t18 129q0 39 -11 74t-33.5 61t-56 41t-78.5 15h-126l-107 -508h113zM621 916l-146 -140h-114
l-90 140h101l55 -75l93 75h101z" />
    <glyph glyph-name="dcaron" unicode="&#x10f;" horiz-adv-x="609" 
d="M325 536q54 0 95.5 -22t69.5 -70l58 270h114l-152 -714h-111l14 68q-33 -42 -73.5 -63t-91.5 -21q-48 0 -83.5 17.5t-59 47.5t-35 70.5t-11.5 86.5q0 67 20 127t55.5 105t84 71.5t106.5 26.5zM456 271q6 27 6 54q0 44 -27 77q-15 19 -38 30t-56 11q-39 0 -69 -19
t-51 -51.5t-32 -75.5t-11 -91q0 -57 26.5 -93t80.5 -36q52 0 96 36q25 21 41.5 48t25.5 69zM684 490l74 224h109l-97 -224h-86z" />
    <glyph glyph-name="Dcroat" unicode="&#x110;" horiz-adv-x="741" 
d="M58 0l67 318h-78l21 101h79l62 295h234q68 0 122.5 -22.5t92.5 -62t58 -92.5t20 -114q0 -95 -27.5 -173t-82.5 -133.5t-137.5 -86t-191.5 -30.5h-239zM312 103q76 0 132.5 23t93.5 65t55 100t18 129q0 39 -11 74t-33.5 61t-56 41t-78.5 15h-126l-41 -192h170l-22 -101
h-169l-45 -215h113z" />
    <glyph glyph-name="dcroat" unicode="&#x111;" horiz-adv-x="616" 
d="M325 509q54 0 93 -20.5t67 -68.5l32 149h-162l15 74h162l16 71h114l-16 -71h68l-15 -74h-68l-121 -569h-111l14 68q-33 -40 -73.5 -62t-91.5 -22q-47 0 -82 17t-59 46t-36 67.5t-12 80.5q0 65 20 122.5t55.5 100t84 67t106.5 24.5zM455 257q3 14 4 26t1 23q0 41 -25 69
q-15 19 -38 30t-56 11q-39 0 -69 -17.5t-51 -47.5t-32 -70t-11 -85q0 -23 6.5 -44.5t20 -38t33.5 -26.5t47 -10q53 0 96 37q24 21 41 44t25 62z" />
    <glyph glyph-name="Emacron" unicode="&#x112;" horiz-adv-x="599" 
d="M292 610l-40 -190h334l-22 -105h-334l-45 -211h375l-36 -104h-481l151 714h474l-21 -104h-355zM309 885h301l-19 -92h-301z" />
    <glyph glyph-name="emacron" unicode="&#x113;" horiz-adv-x="580" 
d="M344 449q-54 0 -95.5 -31.5t-59.5 -106.5h257q3 15 3 31q0 49 -27 78t-78 29zM179 232q-1 -4 -1.5 -12.5t-0.5 -14.5q0 -27 7 -51t21.5 -42t37.5 -28.5t55 -10.5q54 0 81 19.5t40 61.5h111q-11 -41 -30 -73t-48 -53.5t-69.5 -32.5t-95.5 -11q-53 0 -94.5 16.5t-70 46
t-43.5 70t-15 88.5q0 79 22 141t60.5 104t91.5 64t116 22q49 0 87 -15t64 -41.5t39.5 -63t13.5 -79.5q0 -17 -2.5 -40.5t-6.5 -46.5l-3 -18h-367zM244 706h276l-18 -89h-277z" />
    <glyph glyph-name="Ebreve" unicode="&#x114;" horiz-adv-x="599" 
d="M292 610l-40 -190h334l-22 -105h-334l-45 -211h375l-36 -104h-481l151 714h474l-21 -104h-355zM436 773q-57 0 -93.5 29t-36.5 80q0 17 3 37h85q-1 -5 -1.5 -11.5t-0.5 -11.5q0 -24 13 -37.5t39 -13.5q30 0 49.5 16t26.5 58h85q-12 -75 -51.5 -110.5t-117.5 -35.5z" />
    <glyph glyph-name="ebreve" unicode="&#x115;" horiz-adv-x="580" 
d="M344 449q-54 0 -95.5 -31.5t-59.5 -106.5h257q3 15 3 31q0 49 -27 78t-78 29zM179 232q-1 -4 -1.5 -12.5t-0.5 -14.5q0 -27 7 -51t21.5 -42t37.5 -28.5t55 -10.5q54 0 81 19.5t40 61.5h111q-11 -41 -30 -73t-48 -53.5t-69.5 -32.5t-95.5 -11q-53 0 -94.5 16.5t-70 46
t-43.5 70t-15 88.5q0 79 22 141t60.5 104t91.5 64t116 22q49 0 87 -15t64 -41.5t39.5 -63t13.5 -79.5q0 -17 -2.5 -40.5t-6.5 -46.5l-3 -18h-367zM367 590q-57 0 -93 29.5t-36 80.5q0 9 0.5 18t2.5 20h82q-2 -7 -2 -13v-11q0 -26 14.5 -38.5t38.5 -12.5q29 0 49 16t27 59h83
q-12 -78 -53 -113t-113 -35z" />
    <glyph glyph-name="Edotaccent" unicode="&#x116;" horiz-adv-x="599" 
d="M292 610l-40 -190h334l-22 -105h-334l-45 -211h375l-36 -104h-481l151 714h474l-21 -104h-355zM380 784l26 120h117l-26 -120h-117z" />
    <glyph glyph-name="edotaccent" unicode="&#x117;" horiz-adv-x="580" 
d="M344 449q-54 0 -95.5 -31.5t-59.5 -106.5h257q3 15 3 31q0 49 -27 78t-78 29zM179 232q-1 -4 -1.5 -12.5t-0.5 -14.5q0 -27 7 -51t21.5 -42t37.5 -28.5t55 -10.5q54 0 81 19.5t40 61.5h111q-11 -41 -30 -73t-48 -53.5t-69.5 -32.5t-95.5 -11q-53 0 -94.5 16.5t-70 46
t-43.5 70t-15 88.5q0 79 22 141t60.5 104t91.5 64t116 22q49 0 87 -15t64 -41.5t39.5 -63t13.5 -79.5q0 -17 -2.5 -40.5t-6.5 -46.5l-3 -18h-367zM306 611l24 114h111l-24 -114h-111z" />
    <glyph glyph-name="Eogonek" unicode="&#x118;" horiz-adv-x="599" 
d="M486 -191q-10 -1 -20.5 -1.5t-23.5 -0.5q-20 0 -39 4t-34 13t-24.5 23.5t-9.5 34.5q0 36 22 64t68 54h-382l151 714h474l-21 -104h-355l-40 -190h334l-22 -105h-334l-45 -211h375l-36 -104q-38 -22 -64 -44.5t-26 -45.5q0 -16 11 -22.5t28 -6.5q8 0 14 0.5t14 1.5z" />
    <glyph glyph-name="eogonek" unicode="&#x119;" horiz-adv-x="580" 
d="M359 -185q-18 -3 -42 -3q-19 0 -37.5 3.5t-32.5 12t-23 22.5t-9 34q0 59 62 100q-51 2 -90.5 19.5t-66.5 46.5t-41.5 68.5t-14.5 86.5q0 79 22 141t60.5 104t91.5 64t116 22q49 0 87 -15t64 -41.5t39.5 -63t13.5 -79.5q0 -17 -2.5 -40.5t-6.5 -46.5l-3 -18h-367
q-1 -4 -1.5 -12.5t-0.5 -14.5q0 -27 7 -51t21.5 -42t37.5 -28.5t55 -10.5q54 0 81 19.5t40 61.5h111q-17 -60 -49 -99.5t-89 -56.5q-37 -21 -60 -41.5t-23 -43.5q0 -16 11 -22t28 -6h12.5t13.5 1zM344 449q-54 0 -95.5 -31.5t-59.5 -106.5h257q2 12 2.5 24t-0.5 23
q-4 42 -30 66.5t-74 24.5z" />
    <glyph glyph-name="Ecaron" unicode="&#x11a;" horiz-adv-x="599" 
d="M292 610l-40 -190h334l-22 -105h-334l-45 -211h375l-36 -104h-481l151 714h474l-21 -104h-355zM643 916l-146 -140h-114l-90 140h101l55 -75l93 75h101z" />
    <glyph glyph-name="ecaron" unicode="&#x11b;" horiz-adv-x="580" 
d="M344 449q-54 0 -95.5 -31.5t-59.5 -106.5h257q3 15 3 31q0 49 -27 78t-78 29zM179 232q-1 -4 -1.5 -12.5t-0.5 -14.5q0 -27 7 -51t21.5 -42t37.5 -28.5t55 -10.5q54 0 81 19.5t40 61.5h111q-11 -41 -30 -73t-48 -53.5t-69.5 -32.5t-95.5 -11q-53 0 -94.5 16.5t-70 46
t-43.5 70t-15 88.5q0 79 22 141t60.5 104t91.5 64t116 22q49 0 87 -15t64 -41.5t39.5 -63t13.5 -79.5q0 -17 -2.5 -40.5t-6.5 -46.5l-3 -18h-367zM567 741l-147 -148h-114l-88 148h99l55 -85l94 85h101z" />
    <glyph glyph-name="Gcircumflex" unicode="&#x11c;" horiz-adv-x="721" 
d="M609 502q-11 67 -47.5 97t-102.5 30q-60 0 -106.5 -27t-78 -72.5t-48 -104.5t-16.5 -123q0 -44 10 -83.5t31 -69t54 -47t79 -17.5q57 0 96.5 12.5t68.5 32.5l31 147h-158l22 102h271l-66 -303q-42 -38 -110.5 -66t-162.5 -28q-73 0 -127.5 24t-91 66t-54.5 98.5
t-18 122.5q0 86 25.5 165.5t75 140t120.5 97t163 36.5q115 0 180.5 -55t77.5 -158zM305 773l146 139h114l91 -139h-101l-56 75l-92 -75h-102z" />
    <glyph glyph-name="gcircumflex" unicode="&#x11d;" horiz-adv-x="609" 
d="M458 274q5 20 5 37q0 61 -27 96.5t-93 35.5q-39 0 -69 -19.5t-50.5 -50.5t-31 -70.5t-10.5 -79.5q0 -58 27.5 -88.5t75.5 -30.5q62 0 107.5 39t59.5 105zM527 78q-14 -65 -32.5 -117.5t-49 -89.5t-78.5 -56.5t-122 -19.5q-114 0 -166 43t-55 122h114q7 -42 32 -58.5
t84 -16.5q39 0 65.5 13t44 36t28 54.5t18.5 69.5l7 32q-33 -42 -74 -59.5t-93 -17.5q-47 0 -82.5 16t-58.5 44t-34.5 66.5t-11.5 83.5q0 56 18 111.5t52 100t82.5 72t109.5 27.5t100.5 -21t69.5 -69l16 76h111zM223 593l147 148h114l88 -148h-99l-55 85l-94 -85h-101z" />
    <glyph glyph-name="Gbreve" unicode="&#x11e;" horiz-adv-x="721" 
d="M609 502q-11 67 -47.5 97t-102.5 30q-60 0 -106.5 -27t-78 -72.5t-48 -104.5t-16.5 -123q0 -44 10 -83.5t31 -69t54 -47t79 -17.5q57 0 96.5 12.5t68.5 32.5l31 147h-158l22 102h271l-66 -303q-42 -38 -110.5 -66t-162.5 -28q-73 0 -127.5 24t-91 66t-54.5 98.5
t-18 122.5q0 86 25.5 165.5t75 140t120.5 97t163 36.5q115 0 180.5 -55t77.5 -158zM475 773q-57 0 -93.5 29t-36.5 80q0 17 3 37h85q-1 -5 -1.5 -11.5t-0.5 -11.5q0 -24 13 -37.5t39 -13.5q30 0 49.5 16t26.5 58h85q-12 -75 -51.5 -110.5t-117.5 -35.5z" />
    <glyph glyph-name="gbreve" unicode="&#x11f;" horiz-adv-x="609" 
d="M458 274q5 20 5 37q0 61 -27 96.5t-93 35.5q-39 0 -69 -19.5t-50.5 -50.5t-31 -70.5t-10.5 -79.5q0 -58 27.5 -88.5t75.5 -30.5q62 0 107.5 39t59.5 105zM527 78q-14 -65 -32.5 -117.5t-49 -89.5t-78.5 -56.5t-122 -19.5q-114 0 -166 43t-55 122h114q7 -42 32 -58.5
t84 -16.5q39 0 65.5 13t44 36t28 54.5t18.5 69.5l7 32q-33 -42 -74 -59.5t-93 -17.5q-47 0 -82.5 16t-58.5 44t-34.5 66.5t-11.5 83.5q0 56 18 111.5t52 100t82.5 72t109.5 27.5t100.5 -21t69.5 -69l16 76h111zM390 590q-57 0 -93 29.5t-36 80.5q0 9 0.5 18t2.5 20h82
q-2 -7 -2 -13v-11q0 -26 14.5 -38.5t38.5 -12.5q29 0 49 16t27 59h83q-12 -78 -53 -113t-113 -35z" />
    <glyph glyph-name="Gdotaccent" unicode="&#x120;" horiz-adv-x="721" 
d="M609 502q-11 67 -47.5 97t-102.5 30q-60 0 -106.5 -27t-78 -72.5t-48 -104.5t-16.5 -123q0 -44 10 -83.5t31 -69t54 -47t79 -17.5q57 0 96.5 12.5t68.5 32.5l31 147h-158l22 102h271l-66 -303q-42 -38 -110.5 -66t-162.5 -28q-73 0 -127.5 24t-91 66t-54.5 98.5
t-18 122.5q0 86 25.5 165.5t75 140t120.5 97t163 36.5q115 0 180.5 -55t77.5 -158zM414 784l26 120h117l-26 -120h-117z" />
    <glyph glyph-name="gdotaccent" unicode="&#x121;" horiz-adv-x="609" 
d="M458 274q5 20 5 37q0 61 -27 96.5t-93 35.5q-39 0 -69 -19.5t-50.5 -50.5t-31 -70.5t-10.5 -79.5q0 -58 27.5 -88.5t75.5 -30.5q62 0 107.5 39t59.5 105zM527 78q-14 -65 -32.5 -117.5t-49 -89.5t-78.5 -56.5t-122 -19.5q-114 0 -166 43t-55 122h114q7 -42 32 -58.5
t84 -16.5q39 0 65.5 13t44 36t28 54.5t18.5 69.5l7 32q-33 -42 -74 -59.5t-93 -17.5q-47 0 -82.5 16t-58.5 44t-34.5 66.5t-11.5 83.5q0 56 18 111.5t52 100t82.5 72t109.5 27.5t100.5 -21t69.5 -69l16 76h111zM322 611l24 114h111l-24 -114h-111z" />
    <glyph glyph-name="Gcommaaccent" unicode="&#x122;" horiz-adv-x="721" 
d="M609 502q-11 67 -47.5 97t-102.5 30q-60 0 -106.5 -27t-78 -72.5t-48 -104.5t-16.5 -123q0 -44 10 -83.5t31 -69t54 -47t79 -17.5q57 0 96.5 12.5t68.5 32.5l31 147h-158l22 102h271l-66 -303q-42 -38 -110.5 -66t-162.5 -28q-73 0 -127.5 24t-91 66t-54.5 98.5
t-18 122.5q0 86 25.5 165.5t75 140t120.5 97t163 36.5q115 0 180.5 -55t77.5 -158zM187 -222l111 155h131l-136 -155h-106z" />
    <glyph glyph-name="gcommaaccent" unicode="&#x123;" horiz-adv-x="609" 
d="M458 274q5 20 5 37q0 61 -27 96.5t-93 35.5q-39 0 -69 -19.5t-50.5 -50.5t-31 -70.5t-10.5 -79.5q0 -58 27.5 -88.5t75.5 -30.5q62 0 107.5 39t59.5 105zM527 78q-14 -65 -32.5 -117.5t-49 -89.5t-78.5 -56.5t-122 -19.5q-114 0 -166 43t-55 122h114q7 -42 32 -58.5
t84 -16.5q39 0 65.5 13t44 36t28 54.5t18.5 69.5l7 32q-33 -42 -74 -59.5t-93 -17.5q-47 0 -82.5 16t-58.5 44t-34.5 66.5t-11.5 83.5q0 56 18 111.5t52 100t82.5 72t109.5 27.5t100.5 -21t69.5 -69l16 76h111zM549 741l-105 -150h-125l131 150h99z" />
    <glyph glyph-name="Hcircumflex" unicode="&#x124;" horiz-adv-x="715" 
d="M485 0l66 313h-321l-66 -313h-121l151 714h121l-61 -289h321l61 289h121l-151 -714h-121zM310 773l146 139h114l91 -139h-101l-56 75l-92 -75h-102z" />
    <glyph glyph-name="hcircumflex" unicode="&#x125;" horiz-adv-x="581" 
d="M373 440q-50 0 -100 -38q-22 -17 -40 -40.5t-23 -51.5l-65 -310h-114l151 714h114l-57 -265q42 48 86 67.5t89 19.5q73 0 111.5 -39.5t38.5 -109.5q0 -32 -7 -61l-69 -326h-114l67 314q2 13 3.5 24t1.5 22q0 38 -18 59t-55 21zM200 773l146 139h114l91 -139h-101l-56 75
l-92 -75h-102z" />
    <glyph glyph-name="Hbar" unicode="&#x126;" horiz-adv-x="746" 
d="M500 0l64 303h-321l-64 -303h-121l110 519h-79l20 94h79l21 101h121l-21 -101h321l21 101h121l-21 -101h79l-20 -94h-79l-110 -519h-121zM588 415l22 104h-321l-22 -104h321z" />
    <glyph glyph-name="hbar" unicode="&#x127;" horiz-adv-x="582" 
d="M374 413q-50 0 -100 -38q-22 -17 -40 -40.5t-23 -51.5l-60 -283h-114l120 569h-66l15 74h67l15 71h114l-15 -71h164l-15 -74h-165l-31 -147q42 48 86 67.5t89 19.5q72 0 111 -39.5t39 -109.5q0 -32 -7 -61l-63 -299h-114l61 287q2 12 3.5 23t1.5 22q0 38 -18 59.5
t-55 21.5z" />
    <glyph glyph-name="Itilde" unicode="&#x128;" horiz-adv-x="272" 
d="M43 0l151 714h121l-151 -714h-121zM328 858q23 0 34 9.5t15 35.5h83q-7 -69 -36 -99t-83 -30q-21 0 -39 7.5t-33 17t-29 17t-27 7.5q-23 0 -35 -10.5t-16 -36.5h-83q7 69 36.5 99.5t83.5 30.5q21 0 38.5 -7.5t33 -16.5t29.5 -16.5t28 -7.5z" />
    <glyph glyph-name="itilde" unicode="&#x129;" horiz-adv-x="246" 
d="M33 0l110 520h114l-110 -520h-114zM271 685q23 0 34.5 9.5t15.5 35.5h79q-7 -69 -36 -99t-81 -30q-21 0 -38.5 7.5t-32.5 16.5t-28.5 16.5t-26.5 7.5q-23 0 -35 -10t-16 -36h-79q7 69 36 99.5t81 30.5q21 0 38.5 -7.5t32.5 -16.5t28.5 -16.5t27.5 -7.5z" />
    <glyph glyph-name="Imacron" unicode="&#x12a;" horiz-adv-x="272" 
d="M43 0l151 714h121l-151 -714h-121zM132 885h301l-19 -92h-301z" />
    <glyph glyph-name="imacron" unicode="&#x12b;" horiz-adv-x="246" 
d="M33 0l110 520h114l-110 -520h-114zM89 706h276l-18 -89h-277z" />
    <glyph glyph-name="Ibreve" unicode="&#x12c;" horiz-adv-x="272" 
d="M43 0l151 714h121l-151 -714h-121zM261 773q-57 0 -93.5 29t-36.5 80q0 17 3 37h85q-1 -5 -1.5 -11.5t-0.5 -11.5q0 -24 13 -37.5t39 -13.5q30 0 49.5 16t26.5 58h85q-12 -75 -51.5 -110.5t-117.5 -35.5z" />
    <glyph glyph-name="ibreve" unicode="&#x12d;" horiz-adv-x="246" 
d="M33 0l110 520h114l-110 -520h-114zM211 590q-57 0 -93 29.5t-36 80.5q0 9 0.5 18t2.5 20h82q-2 -7 -2 -13v-11q0 -26 14.5 -38.5t38.5 -12.5q29 0 49 16t27 59h83q-12 -78 -53 -113t-113 -35z" />
    <glyph glyph-name="Iogonek" unicode="&#x12e;" horiz-adv-x="272" 
d="M126 -191q-10 -1 -20.5 -1.5t-23.5 -0.5q-20 0 -39 4t-34 13t-24.5 23.5t-9.5 34.5q0 36 22 64t68 54h-22l151 714h121l-151 -714q-38 -22 -64 -44.5t-26 -45.5q0 -16 11 -22.5t28 -6.5q8 0 14 0.5t14 1.5z" />
    <glyph glyph-name="iogonek" unicode="&#x12f;" horiz-adv-x="246" 
d="M110 -185q-18 -3 -42 -3q-19 0 -37.5 3.5t-32.5 12t-23 22.5t-9 34q0 68 88 116h-21l110 520h114l-110 -520q-38 -22 -62.5 -43t-24.5 -44q0 -16 11 -22t28 -6h12.5t13.5 1zM155 601l24 113h119l-24 -113h-119z" />
    <glyph glyph-name="Idotaccent" unicode="&#x130;" horiz-adv-x="272" 
d="M43 0l151 714h121l-151 -714h-121zM208 784l26 120h117l-26 -120h-117z" />
    <glyph glyph-name="dotlessi" unicode="&#x131;" horiz-adv-x="246" 
d="M33 0l110 520h114l-110 -520h-114z" />
    <glyph glyph-name="IJ" unicode="&#x132;" horiz-adv-x="891" 
d="M838 229q-14 -65 -38 -112t-59.5 -77t-82.5 -44t-107 -14q-51 0 -94 13t-73.5 38.5t-48 64.5t-17.5 90q0 10 0.5 20.5t2.5 21.5h119q-1 -7 -1 -12.5v-11.5q0 -26 5.5 -47.5t19 -38t37 -25.5t58.5 -9q37 0 64 11.5t45.5 33t31 52t21.5 69.5l98 462h121zM43 0l151 714h121
l-151 -714h-121z" />
    <glyph glyph-name="ij" unicode="&#x133;" horiz-adv-x="492" 
d="M401 601l24 113h119l-24 -113h-119zM389 520h114l-116 -541q-9 -42 -22.5 -73t-33.5 -51.5t-49 -30.5t-69 -10q-33 0 -59.5 6t-48.5 15l34 86q12 -5 27.5 -9t35.5 -4q31 0 47.5 17.5t25.5 59.5zM33 0l110 520h114l-110 -520h-114zM155 601l24 113h119l-24 -113h-119z" />
    <glyph glyph-name="Jcircumflex" unicode="&#x134;" horiz-adv-x="617" 
d="M564 229q-14 -65 -38 -112t-59.5 -77t-82.5 -44t-107 -14q-51 0 -94 13t-73.5 38.5t-48 64.5t-17.5 90q0 10 0.5 20.5t2.5 21.5h119q-1 -7 -1 -12.5v-11.5q0 -26 5.5 -47.5t19 -38t37 -25.5t58.5 -9q37 0 64 11.5t45.5 33t31 52t21.5 69.5l98 462h121zM436 773l146 139
h114l91 -139h-101l-56 75l-92 -75h-102z" />
    <glyph glyph-name="jcircumflex" unicode="&#x135;" horiz-adv-x="246" 
d="M143 520h114l-116 -541q-9 -42 -22.5 -73t-33.5 -51.5t-49 -30.5t-69 -10q-33 0 -59.5 6t-48.5 15l34 86q12 -5 27.5 -9t35.5 -4q31 0 47.5 17.5t25.5 59.5zM34 593l147 148h114l88 -148h-99l-55 85l-94 -85h-101z" />
    <glyph glyph-name="Kcommaaccent" unicode="&#x136;" horiz-adv-x="662" 
d="M349 370l-129 -107l-56 -263h-121l151 714h121l-65 -307l359 307h139l-304 -273l179 -441h-131zM143 -222l111 155h131l-136 -155h-106z" />
    <glyph glyph-name="kcommaaccent" unicode="&#x137;" horiz-adv-x="550" 
d="M31 0l151 714h113l-83 -392l256 198h139l-226 -181l132 -339h-118l-103 279l-107 -80l-41 -199h-113zM82 -217l106 150h124l-130 -150h-100z" />
    <glyph glyph-name="kgreenlandic" unicode="&#x138;" horiz-adv-x="550" 
d="M31 0l110 520h113l-47 -221l265 221h135l-229 -198l136 -322h-121l-103 261l-109 -87l-37 -174h-113z" />
    <glyph glyph-name="Lacute" unicode="&#x139;" horiz-adv-x="573" 
d="M43 0l151 714h121l-129 -609h354l-38 -105h-459zM190 773l150 139h140l-177 -139h-113z" />
    <glyph glyph-name="lacute" unicode="&#x13a;" horiz-adv-x="246" 
d="M33 0l151 714h114l-151 -714h-114zM178 773l150 139h140l-177 -139h-113z" />
    <glyph glyph-name="Lcommaaccent" unicode="&#x13b;" horiz-adv-x="573" 
d="M43 0l151 714h121l-129 -609h354l-38 -105h-459zM93 -222l111 155h131l-136 -155h-106z" />
    <glyph glyph-name="lcommaaccent" unicode="&#x13c;" horiz-adv-x="246" 
d="M33 0l151 714h114l-151 -714h-114zM-92 -217l106 150h124l-130 -150h-100z" />
    <glyph glyph-name="Lcaron" unicode="&#x13d;" horiz-adv-x="573" 
d="M43 0l151 714h121l-129 -609h354l-38 -105h-459zM402 480l74 224h109l-97 -224h-86z" />
    <glyph glyph-name="lcaron" unicode="&#x13e;" horiz-adv-x="246" 
d="M33 0l151 714h114l-151 -714h-114zM316 490l74 224h109l-97 -224h-86z" />
    <glyph glyph-name="Ldot" unicode="&#x13f;" horiz-adv-x="573" 
d="M43 0l151 714h121l-129 -609h354l-38 -105h-459zM387 330l29 139h121l-29 -139h-121z" />
    <glyph glyph-name="ldot" unicode="&#x140;" horiz-adv-x="389" 
d="M33 0l151 714h114l-151 -714h-114zM289 303l29 139h121l-29 -139h-121z" />
    <glyph glyph-name="Lslash" unicode="&#x141;" horiz-adv-x="588" 
d="M37 292l94 55l78 367h121l-62 -291l207 124l-23 -112l-207 -124l-44 -206h354l-37 -105h-460l50 234l-94 -56z" />
    <glyph glyph-name="lslash" unicode="&#x142;" horiz-adv-x="298" 
d="M41 348l105 59l64 307h114l-52 -243l103 59l-20 -100l-103 -59l-79 -371h-114l66 308l-104 -60z" />
    <glyph glyph-name="Nacute" unicode="&#x143;" horiz-adv-x="710" 
d="M500 0l-230 518l-110 -518h-117l151 714h102l228 -520l110 520h118l-151 -714h-101zM387 773l150 139h140l-177 -139h-113z" />
    <glyph glyph-name="nacute" unicode="&#x144;" horiz-adv-x="581" 
d="M374 0l67 314q2 13 3.5 24t1.5 22q0 38 -18 59t-55 21q-50 0 -100 -38q-22 -17 -40 -40.5t-23 -51.5l-65 -310h-114l110 520h111l-16 -75q42 49 87 70t91 21q73 0 111.5 -39.5t38.5 -109.5q0 -32 -7 -61l-69 -326h-114zM287 593l146 148h138l-171 -148h-113z" />
    <glyph glyph-name="Ncommaaccent" unicode="&#x145;" horiz-adv-x="710" 
d="M500 0l-230 518l-110 -518h-117l151 714h102l228 -520l110 520h118l-151 -714h-101zM150 -222l111 155h131l-136 -155h-106z" />
    <glyph glyph-name="ncommaaccent" unicode="&#x146;" horiz-adv-x="581" 
d="M374 0l67 314q2 13 3.5 24t1.5 22q0 38 -18 59t-55 21q-50 0 -100 -38q-22 -17 -40 -40.5t-23 -51.5l-65 -310h-114l110 520h111l-16 -75q42 49 87 70t91 21q73 0 111.5 -39.5t38.5 -109.5q0 -32 -7 -61l-69 -326h-114zM91 -217l106 150h124l-130 -150h-100z" />
    <glyph glyph-name="Ncaron" unicode="&#x147;" horiz-adv-x="710" 
d="M500 0l-230 518l-110 -518h-117l151 714h102l228 -520l110 520h118l-151 -714h-101zM673 916l-146 -140h-114l-90 140h101l55 -75l93 75h101z" />
    <glyph glyph-name="ncaron" unicode="&#x148;" horiz-adv-x="581" 
d="M374 0l67 314q2 13 3.5 24t1.5 22q0 38 -18 59t-55 21q-50 0 -100 -38q-22 -17 -40 -40.5t-23 -51.5l-65 -310h-114l110 520h111l-16 -75q42 49 87 70t91 21q73 0 111.5 -39.5t38.5 -109.5q0 -32 -7 -61l-69 -326h-114zM582 741l-147 -148h-114l-88 148h99l55 -85l94 85
h101z" />
    <glyph glyph-name="napostrophe" unicode="&#x149;" horiz-adv-x="671" 
d="M464 0l67 314q2 13 3.5 24t1.5 22q0 38 -18 59t-55 21q-50 0 -100 -38q-22 -17 -40 -40.5t-23 -51.5l-65 -310h-114l110 520h111l-16 -75q42 49 87 70t91 21q73 0 111.5 -39.5t38.5 -109.5q0 -32 -7 -61l-69 -326h-114zM66 482l80 232h116l-107 -232h-89z" />
    <glyph glyph-name="Eng" unicode="&#x14a;" horiz-adv-x="710" 
d="M237 -79q23 -9 47 -15.5t62 -6.5q62 0 94.5 28t47.5 98l-218 493l-110 -518h-117l151 714h102l228 -520l110 520h118l-148 -696q-14 -64 -36 -106.5t-54 -68.5t-74.5 -37t-96.5 -11q-42 0 -79 8t-66 22z" />
    <glyph glyph-name="eng" unicode="&#x14b;" horiz-adv-x="581" 
d="M145 0h-114l110 520h111l-16 -76q42 49 87 70.5t91 21.5q73 0 111.5 -39.5t38.5 -109.5q0 -32 -7 -61l-74 -347q-9 -42 -22.5 -73t-33.5 -51.5t-49 -30.5t-69 -10q-33 0 -59.5 6t-48.5 15l34 86q12 -5 27.5 -9t35.5 -4q31 0 48 17.5t25 59.5l70 329q2 13 3.5 24t1.5 22
q0 38 -18 59t-55 21q-50 0 -100 -38q-22 -17 -40 -40.5t-23 -51.5z" />
    <glyph glyph-name="Omacron" unicode="&#x14c;" horiz-adv-x="772" 
d="M482 732q66 0 119 -21.5t89.5 -60.5t56.5 -94t20 -122q0 -86 -25 -167.5t-74.5 -144.5t-123 -101.5t-169.5 -38.5q-66 0 -119.5 21.5t-91 60.5t-57.5 94t-20 122q0 85 26 166.5t76.5 145t124 102t168.5 38.5zM473 628q-65 0 -114 -30t-81.5 -79t-49 -110t-16.5 -123
q0 -91 42.5 -145.5t127.5 -54.5q64 0 113 30t81.5 79t49 110t16.5 124q0 45 -10.5 81.5t-32 62.5t-53 40.5t-73.5 14.5zM378 885h301l-19 -92h-301z" />
    <glyph glyph-name="omacron" unicode="&#x14d;" horiz-adv-x="609" 
d="M368 536q51 0 91.5 -17t69.5 -46t44.5 -69.5t15.5 -86.5q0 -79 -22.5 -141t-63 -104.5t-96 -65t-121.5 -22.5q-50 0 -91 17t-70 46t-45 69t-16 87q0 78 23.5 139.5t64.5 104.5t96.5 66t119.5 23zM360 444q-38 0 -70.5 -16.5t-56.5 -47.5t-37.5 -75.5t-13.5 -99.5
q0 -60 29 -94.5t83 -34.5q38 0 70.5 16.5t56 47t37 74.5t13.5 100q0 60 -28.5 95t-82.5 35zM260 706h276l-18 -89h-277z" />
    <glyph glyph-name="Obreve" unicode="&#x14e;" horiz-adv-x="772" 
d="M482 732q66 0 119 -21.5t89.5 -60.5t56.5 -94t20 -122q0 -86 -25 -167.5t-74.5 -144.5t-123 -101.5t-169.5 -38.5q-66 0 -119.5 21.5t-91 60.5t-57.5 94t-20 122q0 85 26 166.5t76.5 145t124 102t168.5 38.5zM473 628q-65 0 -114 -30t-81.5 -79t-49 -110t-16.5 -123
q0 -91 42.5 -145.5t127.5 -54.5q64 0 113 30t81.5 79t49 110t16.5 124q0 45 -10.5 81.5t-32 62.5t-53 40.5t-73.5 14.5zM491 773q-57 0 -93.5 29t-36.5 80q0 17 3 37h85q-1 -5 -1.5 -11.5t-0.5 -11.5q0 -24 13 -37.5t39 -13.5q30 0 49.5 16t26.5 58h85q-12 -75 -51.5 -110.5
t-117.5 -35.5z" />
    <glyph glyph-name="obreve" unicode="&#x14f;" horiz-adv-x="609" 
d="M368 536q51 0 91.5 -17t69.5 -46t44.5 -69.5t15.5 -86.5q0 -79 -22.5 -141t-63 -104.5t-96 -65t-121.5 -22.5q-50 0 -91 17t-70 46t-45 69t-16 87q0 78 23.5 139.5t64.5 104.5t96.5 66t119.5 23zM360 444q-38 0 -70.5 -16.5t-56.5 -47.5t-37.5 -75.5t-13.5 -99.5
q0 -60 29 -94.5t83 -34.5q38 0 70.5 16.5t56 47t37 74.5t13.5 100q0 60 -28.5 95t-82.5 35zM383 590q-57 0 -93 29.5t-36 80.5q0 9 0.5 18t2.5 20h82q-2 -7 -2 -13v-11q0 -26 14.5 -38.5t38.5 -12.5q29 0 49 16t27 59h83q-12 -78 -53 -113t-113 -35z" />
    <glyph glyph-name="Ohungarumlaut" unicode="&#x150;" horiz-adv-x="772" 
d="M482 732q66 0 119 -21.5t89.5 -60.5t56.5 -94t20 -122q0 -86 -25 -167.5t-74.5 -144.5t-123 -101.5t-169.5 -38.5q-66 0 -119.5 21.5t-91 60.5t-57.5 94t-20 122q0 85 26 166.5t76.5 145t124 102t168.5 38.5zM473 628q-65 0 -114 -30t-81.5 -79t-49 -110t-16.5 -123
q0 -91 42.5 -145.5t127.5 -54.5q64 0 113 30t81.5 79t49 110t16.5 124q0 45 -10.5 81.5t-32 62.5t-53 40.5t-73.5 14.5zM586 773l141 139h132l-167 -139h-106zM388 773l141 139h131l-167 -139h-105z" />
    <glyph glyph-name="ohungarumlaut" unicode="&#x151;" horiz-adv-x="609" 
d="M368 536q51 0 91.5 -17t69.5 -46t44.5 -69.5t15.5 -86.5q0 -79 -22.5 -141t-63 -104.5t-96 -65t-121.5 -22.5q-50 0 -91 17t-70 46t-45 69t-16 87q0 78 23.5 139.5t64.5 104.5t96.5 66t119.5 23zM360 444q-38 0 -70.5 -16.5t-56.5 -47.5t-37.5 -75.5t-13.5 -99.5
q0 -60 29 -94.5t83 -34.5q38 0 70.5 16.5t56 47t37 74.5t13.5 100q0 60 -28.5 95t-82.5 35zM232 593l141 148h124l-166 -148h-99zM419 593l141 148h123l-166 -148h-98z" />
    <glyph glyph-name="OE" unicode="&#x152;" horiz-adv-x="1069" 
d="M784 610l-40 -190h312l-22 -105h-312l-45 -211h353l-36 -104h-456l16 75q-35 -42 -83.5 -67.5t-117.5 -25.5q-57 0 -105.5 21.5t-84.5 60.5t-56 94t-20 122q0 85 26.5 166.5t75 145t118 102t155.5 38.5q83 0 131.5 -36t72.5 -90l23 108h449l-21 -104h-333zM462 628
q-61 0 -107.5 -30t-78 -79t-48 -110t-16.5 -123q0 -91 41.5 -145.5t116.5 -54.5q63 0 109.5 30t77 79t45.5 110.5t15 123.5q0 91 -39.5 145t-115.5 54z" />
    <glyph glyph-name="oe" unicode="&#x153;" horiz-adv-x="964" 
d="M356 536q72 0 114 -31t64 -80q37 54 86.5 82.5t121.5 28.5q48 0 85 -15t62.5 -41.5t39 -63t13.5 -79.5q0 -17 -2 -37.5t-6 -43.5l-4 -24h-362v-24q0 -60 29.5 -97.5t86.5 -37.5q51 0 78.5 19.5t40.5 61.5h111q-22 -85 -78 -127.5t-155 -42.5q-42 0 -72.5 9.5t-52.5 25.5
t-37 35.5t-27 40.5q-39 -55 -90 -83t-123 -28q-49 0 -88.5 17t-67.5 46t-43.5 69t-15.5 87q0 78 23.5 139.5t63 104.5t92.5 66t113 23zM357 444q-37 0 -69 -16.5t-55.5 -47.5t-37 -75.5t-13.5 -99.5q0 -60 28.5 -94.5t80.5 -34.5q38 0 70 16.5t55.5 47t36.5 74.5t13 100
q0 60 -27.5 95t-81.5 35zM730 449q-51 0 -92 -31.5t-60 -106.5h252q3 15 3 31q0 45 -25.5 76t-77.5 31z" />
    <glyph glyph-name="Racute" unicode="&#x154;" horiz-adv-x="644" 
d="M162 0h-119l151 714h231q68 0 114 -17t74.5 -44t40.5 -62t12 -71q0 -88 -44.5 -140t-119.5 -74l86 -306h-128l-71 283q-10 -1 -20.5 -1h-21.5h-126zM379 384q36 0 66.5 6.5t52.5 22t34 41.5t12 64q0 19 -6.5 36.5t-22 30.5t-41 21t-63.5 8h-120l-48 -230h136zM333 773
l150 139h140l-177 -139h-113z" />
    <glyph glyph-name="racute" unicode="&#x155;" horiz-adv-x="393" 
d="M412 420q-10 2 -21 3.5t-28 1.5q-20 0 -44 -6.5t-47 -23.5q-24 -20 -40.5 -42t-22.5 -51l-64 -302h-114l110 520h111l-16 -77q39 46 76 65.5t82 19.5q17 0 28.5 -1.5t19.5 -3.5zM224 593l146 148h138l-171 -148h-113z" />
    <glyph glyph-name="Rcommaaccent" unicode="&#x156;" horiz-adv-x="644" 
d="M162 0h-119l151 714h231q68 0 114 -17t74.5 -44t40.5 -62t12 -71q0 -88 -44.5 -140t-119.5 -74l86 -306h-128l-71 283q-10 -1 -20.5 -1h-21.5h-126zM379 384q36 0 66.5 6.5t52.5 22t34 41.5t12 64q0 19 -6.5 36.5t-22 30.5t-41 21t-63.5 8h-120l-48 -230h136zM125 -222
l111 155h131l-136 -155h-106z" />
    <glyph glyph-name="rcommaaccent" unicode="&#x157;" horiz-adv-x="393" 
d="M412 420q-10 2 -21 3.5t-28 1.5q-20 0 -44 -6.5t-47 -23.5q-24 -20 -40.5 -42t-22.5 -51l-64 -302h-114l110 520h111l-16 -77q39 46 76 65.5t82 19.5q17 0 28.5 -1.5t19.5 -3.5zM-88 -217l106 150h124l-130 -150h-100z" />
    <glyph glyph-name="Rcaron" unicode="&#x158;" horiz-adv-x="644" 
d="M162 0h-119l151 714h231q68 0 114 -17t74.5 -44t40.5 -62t12 -71q0 -88 -44.5 -140t-119.5 -74l86 -306h-128l-71 283q-10 -1 -20.5 -1h-21.5h-126zM379 384q36 0 66.5 6.5t52.5 22t34 41.5t12 64q0 19 -6.5 36.5t-22 30.5t-41 21t-63.5 8h-120l-48 -230h136zM612 916
l-146 -140h-114l-90 140h101l55 -75l93 75h101z" />
    <glyph glyph-name="rcaron" unicode="&#x159;" horiz-adv-x="393" 
d="M412 420q-10 2 -21 3.5t-28 1.5q-20 0 -44 -6.5t-47 -23.5q-24 -20 -40.5 -42t-22.5 -51l-64 -302h-114l110 520h111l-16 -77q39 46 76 65.5t82 19.5q17 0 28.5 -1.5t19.5 -3.5zM487 741l-147 -148h-114l-88 148h99l55 -85l94 85h101z" />
    <glyph glyph-name="Sacute" unicode="&#x15a;" horiz-adv-x="644" 
d="M607 221q0 -62 -20 -107t-57 -74t-89.5 -43.5t-117.5 -14.5q-53 0 -103.5 11t-90.5 38t-64.5 72.5t-26.5 114.5h122q6 -69 45.5 -101.5t126.5 -32.5q40 0 68.5 9.5t46.5 26t26 39t8 49.5q0 30 -20 56.5t-72 37.5l-86 18q-94 19 -138.5 66t-44.5 119q0 58 20 101t56.5 71
t89 41.5t117.5 13.5q117 0 183 -52.5t75 -154.5l-116 -16q-8 63 -42.5 93t-106.5 30q-44 0 -73.5 -9t-47 -24t-25 -34t-7.5 -38q0 -42 22.5 -65t73.5 -34l86 -19q51 -12 86 -30.5t56.5 -42.5t30.5 -53t9 -62zM334 773l150 139h140l-177 -139h-113z" />
    <glyph glyph-name="sacute" unicode="&#x15b;" horiz-adv-x="530" 
d="M482 154q0 -48 -19 -80.5t-50.5 -52.5t-74 -28.5t-88.5 -8.5q-41 0 -80 8.5t-69 29t-49 53.5t-20 82h109q3 -49 35 -66.5t83 -17.5q57 0 82.5 19.5t25.5 54.5q0 26 -14.5 41.5t-53.5 23.5l-57 12q-82 18 -115 54t-33 90q0 43 17 74.5t47 52.5t70.5 31t87.5 10q42 0 78 -9
t63 -27.5t43.5 -48t20.5 -70.5l-104 -14q-6 38 -28.5 60t-76.5 22q-33 0 -54 -6.5t-33 -16.5t-16.5 -22.5t-4.5 -24.5q0 -26 17 -40.5t60 -23.5l57 -12q80 -17 112 -54.5t32 -94.5zM255 593l146 148h138l-171 -148h-113z" />
    <glyph glyph-name="Scircumflex" unicode="&#x15c;" horiz-adv-x="644" 
d="M607 221q0 -62 -20 -107t-57 -74t-89.5 -43.5t-117.5 -14.5q-53 0 -103.5 11t-90.5 38t-64.5 72.5t-26.5 114.5h122q6 -69 45.5 -101.5t126.5 -32.5q40 0 68.5 9.5t46.5 26t26 39t8 49.5q0 30 -20 56.5t-72 37.5l-86 18q-94 19 -138.5 66t-44.5 119q0 58 20 101t56.5 71
t89 41.5t117.5 13.5q117 0 183 -52.5t75 -154.5l-116 -16q-8 63 -42.5 93t-106.5 30q-44 0 -73.5 -9t-47 -24t-25 -34t-7.5 -38q0 -42 22.5 -65t73.5 -34l86 -19q51 -12 86 -30.5t56.5 -42.5t30.5 -53t9 -62zM247 773l146 139h114l91 -139h-101l-56 75l-92 -75h-102z" />
    <glyph glyph-name="scircumflex" unicode="&#x15d;" horiz-adv-x="530" 
d="M482 154q0 -48 -19 -80.5t-50.5 -52.5t-74 -28.5t-88.5 -8.5q-41 0 -80 8.5t-69 29t-49 53.5t-20 82h109q3 -49 35 -66.5t83 -17.5q57 0 82.5 19.5t25.5 54.5q0 26 -14.5 41.5t-53.5 23.5l-57 12q-82 18 -115 54t-33 90q0 43 17 74.5t47 52.5t70.5 31t87.5 10q42 0 78 -9
t63 -27.5t43.5 -48t20.5 -70.5l-104 -14q-6 38 -28.5 60t-76.5 22q-33 0 -54 -6.5t-33 -16.5t-16.5 -22.5t-4.5 -24.5q0 -26 17 -40.5t60 -23.5l57 -12q80 -17 112 -54.5t32 -94.5zM154 593l147 148h114l88 -148h-99l-55 85l-94 -85h-101z" />
    <glyph glyph-name="Scedilla" unicode="&#x15e;" horiz-adv-x="644" 
d="M267 -15q-45 5 -86 19.5t-72.5 42t-50.5 69.5t-20 102h122q6 -69 45.5 -101.5t126.5 -32.5q40 0 68.5 9.5t46.5 26t26 39t8 49.5q0 30 -20 56.5t-72 37.5l-86 18q-94 19 -138.5 66t-44.5 119q0 58 20 101t56.5 71t89 41.5t117.5 13.5q117 0 183 -52.5t75 -154.5l-116 -16
q-8 63 -42.5 93t-106.5 30q-44 0 -73.5 -9t-47 -24t-25 -34t-7.5 -38q0 -42 22.5 -65t73.5 -34l86 -19q51 -12 86 -30.5t56.5 -42.5t30.5 -53t9 -62q0 -120 -73.5 -178.5t-199.5 -60.5l-17 -35q48 -8 66 -28.5t18 -45.5q0 -54 -38 -75t-110 -21q-14 0 -30.5 2t-36.5 6l10 64
q21 -3 35 -4.5t28 -1.5q29 0 42.5 7.5t13.5 25.5q0 13 -13.5 20t-47.5 7h-28z" />
    <glyph glyph-name="scedilla" unicode="&#x15f;" horiz-adv-x="530" 
d="M205 -13q-35 4 -66 15t-55 31.5t-38 51t-14 72.5h109q3 -49 35 -66.5t83 -17.5q57 0 82.5 19.5t25.5 54.5q0 26 -14.5 41.5t-53.5 23.5l-57 12q-82 18 -115 54t-33 90q0 43 17 74.5t47 52.5t70.5 31t87.5 10q42 0 78 -9t63 -27.5t43.5 -48t20.5 -70.5l-104 -14
q-6 38 -28.5 60t-76.5 22q-33 0 -54 -6.5t-33 -16.5t-16.5 -22.5t-4.5 -24.5q0 -26 17 -40.5t60 -23.5l57 -12q80 -17 112 -54.5t32 -94.5q0 -45 -17 -76.5t-46 -51.5t-67.5 -30t-81.5 -11l-17 -35q47 -6 65 -27.5t18 -43.5q0 -29 -11 -47t-30 -28t-45.5 -14t-57.5 -4t-66 7
l10 65q20 -4 34 -5t27 -1q28 0 41 6t13 23q0 14 -13.5 20.5t-45.5 6.5h-27z" />
    <glyph glyph-name="Scaron" unicode="&#x160;" horiz-adv-x="644" 
d="M607 221q0 -62 -20 -107t-57 -74t-89.5 -43.5t-117.5 -14.5q-53 0 -103.5 11t-90.5 38t-64.5 72.5t-26.5 114.5h122q6 -69 45.5 -101.5t126.5 -32.5q40 0 68.5 9.5t46.5 26t26 39t8 49.5q0 30 -20 56.5t-72 37.5l-86 18q-94 19 -138.5 66t-44.5 119q0 58 20 101t56.5 71
t89 41.5t117.5 13.5q117 0 183 -52.5t75 -154.5l-116 -16q-8 63 -42.5 93t-106.5 30q-44 0 -73.5 -9t-47 -24t-25 -34t-7.5 -38q0 -42 22.5 -65t73.5 -34l86 -19q51 -12 86 -30.5t56.5 -42.5t30.5 -53t9 -62zM621 916l-146 -140h-114l-90 140h101l55 -75l93 75h101z" />
    <glyph glyph-name="scaron" unicode="&#x161;" horiz-adv-x="530" 
d="M482 154q0 -48 -19 -80.5t-50.5 -52.5t-74 -28.5t-88.5 -8.5q-41 0 -80 8.5t-69 29t-49 53.5t-20 82h109q3 -49 35 -66.5t83 -17.5q57 0 82.5 19.5t25.5 54.5q0 26 -14.5 41.5t-53.5 23.5l-57 12q-82 18 -115 54t-33 90q0 43 17 74.5t47 52.5t70.5 31t87.5 10q42 0 78 -9
t63 -27.5t43.5 -48t20.5 -70.5l-104 -14q-6 38 -28.5 60t-76.5 22q-33 0 -54 -6.5t-33 -16.5t-16.5 -22.5t-4.5 -24.5q0 -26 17 -40.5t60 -23.5l57 -12q80 -17 112 -54.5t32 -94.5zM536 741l-147 -148h-114l-88 148h99l55 -85l94 85h101z" />
    <glyph glyph-name="Tcommaaccent" unicode="&#x162;" horiz-adv-x="610" 
d="M462 609l-129 -609h-24l-25 -50q47 -6 65 -27.5t18 -43.5q0 -29 -11 -47t-30 -28t-45.5 -14t-57.5 -4t-66 7l10 65q20 -4 34 -5t27 -1q28 0 41 6t13 23q0 14 -13.5 20.5t-45.5 6.5h-27l47 92h-31l129 609h-226l22 105h572l-22 -105h-225z" />
    <glyph glyph-name="tcommaaccent" unicode="&#x163;" horiz-adv-x="363" 
d="M211 166l-4 -18q-1 -5 -1 -15q0 -29 14.5 -40t39.5 -11q18 0 33.5 2.5t28.5 6.5l17 -85q-23 -7 -46.5 -11t-48.5 -5l-20 -40q47 -6 65 -27.5t18 -43.5q0 -29 -11 -47t-30 -28t-45.5 -14t-57.5 -4t-66 7l10 65q20 -4 34 -5t27 -1q28 0 41 6t13 23q0 14 -13.5 20.5
t-45.5 6.5h-27l44 88q-32 8 -52 25q-37 31 -37 94q0 28 7 55l55 260h-81l19 90h81l30 140h114l-30 -140h128l-19 -90h-128z" />
    <glyph glyph-name="Tcaron" unicode="&#x164;" horiz-adv-x="610" 
d="M462 609l-129 -609h-121l129 609h-226l22 105h572l-22 -105h-225zM627 916l-146 -140h-114l-90 140h101l55 -75l93 75h101z" />
    <glyph glyph-name="tcaron" unicode="&#x165;" horiz-adv-x="363" 
d="M211 166l-3.5 -17.5t-1.5 -15.5q0 -29 14.5 -40t39.5 -11q18 0 33.5 2.5t28.5 6.5l17 -85q-48 -16 -105 -16q-69 0 -106 31t-37 94q0 28 7 55l55 260h-81l19 90h81l30 140h114l-30 -140h128l-19 -90h-128zM351 577l61 165h100l-84 -165h-77z" />
    <glyph glyph-name="Tbar" unicode="&#x166;" horiz-adv-x="610" 
d="M150 392h145l46 217h-226l22 105h572l-22 -105h-225l-46 -217h144l-22 -101h-143l-62 -291h-121l62 291h-146z" />
    <glyph glyph-name="tbar" unicode="&#x167;" horiz-adv-x="363" 
d="M243 317h128l-19 -90h-128l-13 -61l-3.5 -17.5t-1.5 -15.5q0 -29 14.5 -40t39.5 -11q18 0 33.5 2.5t28.5 6.5l17 -85q-48 -16 -105 -16q-69 0 -106 31t-37 94q0 28 7 55l12 57h-81l19 90h81l24 113h-81l19 90h81l30 140h114l-30 -140h128l-19 -90h-128z" />
    <glyph glyph-name="Utilde" unicode="&#x168;" horiz-adv-x="688" 
d="M330 -18q-56 0 -101.5 13.5t-78.5 40.5t-51 68.5t-18 97.5q0 43 10 87l90 425h120l-90 -428q-10 -39 -10 -74q0 -66 34 -96t103 -30q43 0 73.5 12.5t52.5 37.5t36.5 62.5t25.5 87.5l91 428h121l-90 -428q-17 -80 -43.5 -137.5t-65 -94.5t-90.5 -54.5t-119 -17.5zM540 858
q23 0 34 9.5t15 35.5h83q-7 -69 -36 -99t-83 -30q-21 0 -39 7.5t-33 17t-29 17t-27 7.5q-23 0 -35 -10.5t-16 -36.5h-83q7 69 36.5 99.5t83.5 30.5q21 0 38.5 -7.5t33 -16.5t29.5 -16.5t28 -7.5z" />
    <glyph glyph-name="utilde" unicode="&#x169;" horiz-adv-x="574" 
d="M250 520l-68 -319q-5 -28 -5 -45q0 -35 17 -55.5t54 -20.5q28 0 49 9t44 28q21 16 40 41t25 55l65 307h114l-109 -520h-112l16 75q-42 -49 -84.5 -70t-88.5 -21q-75 0 -111 40t-36 107q0 31 7 63l69 326h114zM436 685q23 0 34.5 9.5t15.5 35.5h79q-7 -69 -36 -99t-81 -30
q-21 0 -38.5 7.5t-32.5 16.5t-28.5 16.5t-26.5 7.5q-23 0 -35 -10t-16 -36h-79q7 69 36 99.5t81 30.5q21 0 38.5 -7.5t32.5 -16.5t28.5 -16.5t27.5 -7.5z" />
    <glyph glyph-name="Umacron" unicode="&#x16a;" horiz-adv-x="688" 
d="M330 -18q-56 0 -101.5 13.5t-78.5 40.5t-51 68.5t-18 97.5q0 43 10 87l90 425h120l-90 -428q-10 -39 -10 -74q0 -66 34 -96t103 -30q43 0 73.5 12.5t52.5 37.5t36.5 62.5t25.5 87.5l91 428h121l-90 -428q-17 -80 -43.5 -137.5t-65 -94.5t-90.5 -54.5t-119 -17.5zM338 885
h301l-19 -92h-301z" />
    <glyph glyph-name="umacron" unicode="&#x16b;" horiz-adv-x="574" 
d="M250 520l-68 -319q-5 -28 -5 -45q0 -35 17 -55.5t54 -20.5q28 0 49 9t44 28q21 16 40 41t25 55l65 307h114l-109 -520h-112l16 75q-42 -49 -84.5 -70t-88.5 -21q-75 0 -111 40t-36 107q0 31 7 63l69 326h114zM251 706h276l-18 -89h-277z" />
    <glyph glyph-name="Ubreve" unicode="&#x16c;" horiz-adv-x="688" 
d="M330 -18q-56 0 -101.5 13.5t-78.5 40.5t-51 68.5t-18 97.5q0 43 10 87l90 425h120l-90 -428q-10 -39 -10 -74q0 -66 34 -96t103 -30q43 0 73.5 12.5t52.5 37.5t36.5 62.5t25.5 87.5l91 428h121l-90 -428q-17 -80 -43.5 -137.5t-65 -94.5t-90.5 -54.5t-119 -17.5zM468 773
q-57 0 -93.5 29t-36.5 80q0 17 3 37h85q-1 -5 -1.5 -11.5t-0.5 -11.5q0 -24 13 -37.5t39 -13.5q30 0 49.5 16t26.5 58h85q-12 -75 -51.5 -110.5t-117.5 -35.5z" />
    <glyph glyph-name="ubreve" unicode="&#x16d;" horiz-adv-x="574" 
d="M250 520l-68 -319q-5 -28 -5 -45q0 -35 17 -55.5t54 -20.5q28 0 49 9t44 28q21 16 40 41t25 55l65 307h114l-109 -520h-112l16 75q-42 -49 -84.5 -70t-88.5 -21q-75 0 -111 40t-36 107q0 31 7 63l69 326h114zM371 590q-57 0 -93 29.5t-36 80.5q0 9 0.5 18t2.5 20h82
q-2 -7 -2 -13v-11q0 -26 14.5 -38.5t38.5 -12.5q29 0 49 16t27 59h83q-12 -78 -53 -113t-113 -35z" />
    <glyph glyph-name="Uring" unicode="&#x16e;" horiz-adv-x="688" 
d="M330 -18q-56 0 -101.5 13.5t-78.5 40.5t-51 68.5t-18 97.5q0 43 10 87l90 425h120l-90 -428q-10 -39 -10 -74q0 -66 34 -96t103 -30q43 0 73.5 12.5t52.5 37.5t36.5 62.5t25.5 87.5l91 428h121l-90 -428q-17 -80 -43.5 -137.5t-65 -94.5t-90.5 -54.5t-119 -17.5zM352 848
q0 28 9 48.5t24.5 34.5t35.5 21t43 7q22 0 42.5 -7t36.5 -21t25 -34.5t9 -48.5t-9 -48.5t-25 -34t-36.5 -20.5t-42.5 -7q-23 0 -43 7t-35.5 20.5t-24.5 34t-9 48.5zM417 848q0 -26 12.5 -38t34.5 -12q48 0 48 50q0 27 -12.5 39t-35.5 12q-22 0 -34.5 -12t-12.5 -39z" />
    <glyph glyph-name="uring" unicode="&#x16f;" horiz-adv-x="574" 
d="M250 520l-68 -319q-5 -28 -5 -45q0 -35 17 -55.5t54 -20.5q28 0 49 9t44 28q21 16 40 41t25 55l65 307h114l-109 -520h-112l16 75q-42 -49 -84.5 -70t-88.5 -21q-75 0 -111 40t-36 107q0 31 7 63l69 326h114zM265 695q0 27 9 47t24 33.5t34.5 20t41.5 6.5q21 0 41 -6.5
t35 -20t24 -33.5t9 -47t-9 -47t-24 -33t-35 -19.5t-41 -6.5q-22 0 -41.5 6.5t-34.5 19.5t-24 33t-9 47zM328 695q0 -25 12.5 -37t33.5 -12t33.5 12t12.5 37q0 26 -12.5 37.5t-33.5 11.5t-33.5 -11.5t-12.5 -37.5z" />
    <glyph glyph-name="Uhungarumlaut" unicode="&#x170;" horiz-adv-x="688" 
d="M330 -18q-56 0 -101.5 13.5t-78.5 40.5t-51 68.5t-18 97.5q0 43 10 87l90 425h120l-90 -428q-10 -39 -10 -74q0 -66 34 -96t103 -30q43 0 73.5 12.5t52.5 37.5t36.5 62.5t25.5 87.5l91 428h121l-90 -428q-17 -80 -43.5 -137.5t-65 -94.5t-90.5 -54.5t-119 -17.5zM541 773
l141 139h132l-167 -139h-106zM343 773l141 139h131l-167 -139h-105z" />
    <glyph glyph-name="uhungarumlaut" unicode="&#x171;" horiz-adv-x="574" 
d="M250 520l-68 -319q-5 -28 -5 -45q0 -35 17 -55.5t54 -20.5q28 0 49 9t44 28q21 16 40 41t25 55l65 307h114l-109 -520h-112l16 75q-42 -49 -84.5 -70t-88.5 -21q-75 0 -111 40t-36 107q0 31 7 63l69 326h114zM216 593l141 148h124l-166 -148h-99zM403 593l141 148h123
l-166 -148h-98z" />
    <glyph glyph-name="Uogonek" unicode="&#x172;" horiz-adv-x="688" 
d="M412 -191q-10 -1 -20.5 -1.5t-23.5 -0.5q-20 0 -39 4t-34 13t-24.5 23.5t-9.5 34.5q0 58 60 100q-54 1 -98 15t-75.5 41t-49 68t-17.5 96q0 43 10 87l90 425h120l-90 -428q-10 -39 -10 -74q0 -66 34 -96t103 -30q43 0 73.5 12.5t52.5 37.5t36.5 62.5t25.5 87.5l91 428
h121l-90 -428q-26 -121 -73.5 -191t-126.5 -96q-37 -21 -62.5 -43.5t-25.5 -45.5q0 -16 11 -22.5t28 -6.5q8 0 14 0.5t14 1.5z" />
    <glyph glyph-name="uogonek" unicode="&#x173;" horiz-adv-x="574" 
d="M439 -185q-18 -3 -42 -3q-19 0 -37.5 3.5t-32.5 12t-23 22.5t-9 34q0 68 88 116h-19l16 75q-42 -49 -84.5 -70t-88.5 -21q-75 0 -111 40t-36 107q0 31 7 63l69 326h114l-68 -319q-5 -28 -5 -45q0 -35 17 -55.5t54 -20.5q28 0 49 9t44 28q21 16 40 41t25 55l65 307h114
l-109 -520q-38 -22 -62.5 -43t-24.5 -44q0 -16 11 -22t28 -6h12.5t13.5 1z" />
    <glyph glyph-name="Wcircumflex" unicode="&#x174;" horiz-adv-x="950" 
d="M709 0h-121l-26 562l-262 -562h-118l-53 714h134l16 -542l249 538h128l26 -537l244 541h130zM430 773l146 139h114l91 -139h-101l-56 75l-92 -75h-102z" />
    <glyph glyph-name="wcircumflex" unicode="&#x175;" horiz-adv-x="753" 
d="M123 0l-42 520h124l6 -380l188 376h105l27 -376l170 380h120l-262 -520h-114l-24 378l-186 -378h-112zM284 593l147 148h114l88 -148h-99l-55 85l-94 -85h-101z" />
    <glyph glyph-name="Ycircumflex" unicode="&#x176;" horiz-adv-x="635" 
d="M129 714h130l108 -310l240 310h134l-332 -417l-62 -297h-121l63 297zM264 773l146 139h114l91 -139h-101l-56 75l-92 -75h-102z" />
    <glyph glyph-name="ycircumflex" unicode="&#x177;" horiz-adv-x="545" 
d="M82 520h126l66 -375l208 375h130l-335 -552q-24 -40 -44.5 -70.5t-43 -50.5t-49.5 -30.5t-64 -10.5q-25 0 -45.5 4.5t-40.5 12.5l30 86q11 -4 25 -7.5t30 -3.5q30 0 48.5 16.5t41.5 55.5l30 51zM175 593l147 148h114l88 -148h-99l-55 85l-94 -85h-101z" />
    <glyph glyph-name="Ydieresis" unicode="&#x178;" horiz-adv-x="635" 
d="M129 714h130l108 -310l240 310h134l-332 -417l-62 -297h-121l63 297zM286 786l24 116h113l-25 -116h-112zM480 786l24 116h113l-25 -116h-112z" />
    <glyph glyph-name="Zacute" unicode="&#x179;" horiz-adv-x="586" 
d="M523 0h-528l18 90l486 520h-370l22 104h520l-19 -91l-484 -518h391zM319 773l150 139h140l-177 -139h-113z" />
    <glyph glyph-name="zacute" unicode="&#x17a;" horiz-adv-x="484" 
d="M424 0h-424l17 80l345 350h-267l19 90h414l-16 -80l-345 -350h287zM249 593l146 148h138l-171 -148h-113z" />
    <glyph glyph-name="Zdotaccent" unicode="&#x17b;" horiz-adv-x="586" 
d="M523 0h-528l18 90l486 520h-370l22 104h520l-19 -91l-484 -518h391zM343 784l26 120h117l-26 -120h-117z" />
    <glyph glyph-name="zdotaccent" unicode="&#x17c;" horiz-adv-x="484" 
d="M424 0h-424l17 80l345 350h-267l19 90h414l-16 -80l-345 -350h287zM267 611l24 114h111l-24 -114h-111z" />
    <glyph glyph-name="Zcaron" unicode="&#x17d;" horiz-adv-x="586" 
d="M523 0h-528l18 90l486 520h-370l22 104h520l-19 -91l-484 -518h391zM617 916l-146 -140h-114l-90 140h101l55 -75l93 75h101z" />
    <glyph glyph-name="zcaron" unicode="&#x17e;" horiz-adv-x="484" 
d="M424 0h-424l17 80l345 350h-267l19 90h414l-16 -80l-345 -350h287zM525 741l-147 -148h-114l-88 148h99l55 -85l94 85h101z" />
    <glyph glyph-name="longs" unicode="&#x17f;" horiz-adv-x="250" 
d="M147 0h-114l117 552q20 94 64 132t123 38q28 0 55.5 -5.5t48.5 -15.5l-32 -81q-27 12 -61 12q-37 0 -56.5 -18t-27.5 -60z" />
    <glyph glyph-name="uni0180" unicode="&#x180;" horiz-adv-x="612" 
d="M37 0l120 568h-69l17 76h67l16 70h114l-15 -70h163l-16 -76h-163l-29 -143q66 84 168 84q55 0 96 -25t64.5 -73.5t23.5 -111.5q0 -83 -32.5 -155t-91.5 -115.5t-136 -43.5q-120 0 -169 93l-16 -78h-112zM200 242q-6 -30 -6 -54q0 -48 31.5 -79.5t85.5 -31.5q46 0 83 27.5
t59 79.5t22 115q0 52 -28 84t-74 32q-38 0 -73 -18.5t-60.5 -52.5t-34.5 -78z" />
    <glyph glyph-name="uni0181" unicode="&#x181;" horiz-adv-x="760" 
d="M782 552q0 -68 -33 -111.5t-106 -69.5q94 -46 94 -142q0 -111 -78.5 -170t-227.5 -59h-268l130 617q-53 0 -78 -22t-25 -66q0 -10 4 -30l-95 -15q-8 19 -8 48q0 86 57 134t160 48h244q111 0 170.5 -42.5t59.5 -119.5zM299 97h141q91 0 134 31.5t43 99.5q0 94 -127 94
h-142zM510 421q151 0 151 114q0 42 -30.5 62.5t-94.5 20.5h-126l-41 -197h141z" />
    <glyph glyph-name="uni0182" unicode="&#x182;" horiz-adv-x="632" 
d="M194 714h430l-22 -105h-309l-34 -162h106q114 0 180 -48.5t66 -145.5q0 -129 -80.5 -191t-238.5 -62h-249zM237 347l-52 -247h127q89 0 134 35t45 113q0 46 -32.5 72.5t-101.5 26.5h-120z" />
    <glyph glyph-name="uni0183" unicode="&#x183;" horiz-adv-x="610" 
d="M31 0l151 714h428l-19 -90h-313l-40 -187q69 85 169 85q86 0 135 -59t49 -157q0 -86 -33.5 -159.5t-93.5 -118t-136 -44.5q-118 0 -169 94l-16 -78h-112zM196 252q-6 -25 -6 -57q0 -55 31.5 -86.5t86.5 -31.5q34 0 63 15.5t51.5 46.5t36 74t13.5 93q0 57 -27.5 90
t-74.5 33q-58 0 -106 -42.5t-62 -107.5z" />
    <glyph glyph-name="uni0184" unicode="&#x184;" horiz-adv-x="625" 
d="M312 100q93 0 138 37t45 114q0 47 -35 71.5t-102 24.5h-117l-52 -247h123zM47 0l121 572l-50 87l204 65l-59 -276h115q112 0 174.5 -52t62.5 -140q0 -123 -84 -189.5t-239 -66.5h-245z" />
    <glyph glyph-name="uni0185" unicode="&#x185;" horiz-adv-x="609" 
d="M30 0l123 579l-51 86l197 63l-58 -276q66 84 167 84q86 0 134.5 -60.5t48.5 -162.5q0 -89 -33.5 -163.5t-93.5 -119t-137 -44.5q-117 0 -169 92l-16 -78h-112zM195 252q-6 -24 -6 -56q0 -55 31.5 -87t86.5 -32q47 0 84 29.5t59 84t22 122.5q0 60 -27 94.5t-74 34.5
q-38 0 -73 -18.5t-60.5 -53t-34.5 -79.5z" />
    <glyph glyph-name="uni0186" unicode="&#x186;" horiz-adv-x="713" 
d="M182 238q6 -75 48.5 -113.5t119.5 -38.5q68 0 119.5 40.5t82 117.5t30.5 171q0 103 -42.5 158t-123.5 55q-73 0 -120.5 -38t-75.5 -118l-119 22q36 118 117 178t202 60q138 0 213 -82.5t75 -231.5q0 -126 -45 -225.5t-129 -155t-201 -55.5q-123 0 -196.5 67t-81.5 189
h127z" />
    <glyph glyph-name="uni0187" unicode="&#x187;" horiz-adv-x="789" 
d="M698 238q-28 -130 -108 -193t-216 -63q-88 0 -152.5 37t-100 108t-35.5 167q0 118 46.5 218.5t131.5 160t197 59.5q73 0 120.5 -23t77.5 -74q12 64 49 97.5t95 33.5q29 0 58 -8.5t50 -22.5l-42 -84q-24 15 -57 15q-36 0 -53.5 -22t-26.5 -78l-11 -63l-113 -20
q-11 77 -47.5 111t-104.5 34q-69 0 -124 -40.5t-87.5 -115.5t-32.5 -169q0 -103 44 -160t126 -57q78 0 124 37.5t61 114.5h131z" />
    <glyph glyph-name="uni0188" unicode="&#x188;" horiz-adv-x="636" 
d="M537 180q-22 -99 -85 -147.5t-170 -48.5q-100 0 -159 60.5t-59 159.5q0 97 35.5 171.5t102.5 117.5t153 43q45 0 81.5 -16.5t55.5 -44.5q38 108 134 108q26 0 52 -7.5t47 -21.5l-39 -77q-24 15 -52 15q-33 0 -49.5 -20.5t-25.5 -72.5l-8 -40l-107 -17q-7 54 -31 78
t-69 24q-47 0 -84 -29t-57.5 -83t-20.5 -127q0 -62 29 -95.5t83 -33.5q102 0 128 104h115z" />
    <glyph glyph-name="uni0189" unicode="&#x189;" horiz-adv-x="741" 
d="M58 0l67 318h-78l21 101h79l62 295h234q68 0 122.5 -22.5t92.5 -62t58 -92.5t20 -114q0 -95 -27.5 -173t-82.5 -133.5t-137.5 -86t-191.5 -30.5h-239zM312 103q76 0 132.5 23t93.5 65t55 100t18 129q0 39 -11 74t-33.5 61t-56 41t-78.5 15h-126l-41 -192h170l-22 -101
h-169l-45 -215h113z" />
    <glyph glyph-name="uni018A" unicode="&#x18a;" horiz-adv-x="846" 
d="M163 0l129 611q-55 0 -78.5 -19.5t-23.5 -62.5q0 -10 4 -30l-95 -15q-8 19 -8 48q0 86 57 134t160 48h240q84 0 150 -35.5t104.5 -102.5t38.5 -153q0 -131 -51 -226t-149.5 -146t-238.5 -51h-239zM417 103q144 0 221.5 83t77.5 234q0 56 -21.5 99.5t-61.5 67.5t-96 24
h-126l-107 -508h113z" />
    <glyph glyph-name="uni018B" unicode="&#x18b;" horiz-adv-x="630" 
d="M473 347h-121q-93 0 -138 -37t-45 -113q0 -48 34.5 -72.5t101.5 -24.5h116zM286 0q-111 0 -173.5 51.5t-62.5 140.5q0 123 84 189t238 66h122l35 162h-316l22 105h437l-151 -714h-235z" />
    <glyph glyph-name="uni018C" unicode="&#x18c;" horiz-adv-x="608" 
d="M453 260q7 32 7 54q0 41 -27 75q-33 41 -93 41q-73 0 -117.5 -64t-44.5 -165q0 -57 28.5 -90.5t77.5 -33.5q54 0 95 35q51 42 67 115zM398 0l14 68q-67 -84 -164 -84q-87 0 -138 59.5t-51 156.5q0 88 33 161.5t93 117t139 43.5q111 0 163 -89l41 191h-313l18 90h428
l-152 -714h-111z" />
    <glyph glyph-name="uni018D" unicode="&#x18d;" horiz-adv-x="582" 
d="M145 -38q3 -41 25.5 -59.5t69.5 -18.5q43 0 65 13.5t22 38.5q0 17 -14 32t-41.5 33.5t-68.5 46.5q-54 37 -83 70t-41 70t-12 84q0 71 35 131t98.5 96.5t143.5 36.5q63 0 114.5 -25.5t82 -72.5t30.5 -109q0 -96 -54 -165.5t-154 -104.5q40 -29 56 -56.5t16 -64.5
q0 -69 -53 -106t-147 -37q-194 0 -197 167h107zM297 109q73 21 115.5 77t42.5 132q0 58 -31 92t-85 34q-69 0 -111 -46t-42 -123q0 -37 11 -66t33.5 -52t66.5 -48z" />
    <glyph glyph-name="uni018E" unicode="&#x18e;" horiz-adv-x="598" 
d="M-4 0l35 104h359l45 211h-333l22 105h333l41 190h-355l23 104h474l-151 -714h-493z" />
    <glyph glyph-name="uni018F" unicode="&#x18f;" horiz-adv-x="747" 
d="M144 537q44 105 124.5 150t185.5 45q68 0 121.5 -21.5t90.5 -62t56.5 -97.5t19.5 -129q0 -85 -24 -164.5t-71 -140.5t-116 -98t-159 -37q-68 0 -119 22.5t-85 61t-51.5 90t-17.5 109.5q0 79 12 135h506q2 11 2 23v23q0 36 -9.5 69t-30 58.5t-52.5 41t-77 15.5
q-77 0 -122 -31.5t-74 -93.5zM222 306q-1 -9 -2 -21.5t-1 -25.5q0 -85 42 -131t114 -46q89 0 147 59t81 165h-381z" />
    <glyph glyph-name="uni0190" unicode="&#x190;" horiz-adv-x="625" 
d="M603 204q-20 -112 -95 -167t-209 -55q-120 0 -187 52t-67 144q0 77 39.5 129t113.5 74q-35 20 -53.5 54t-18.5 77q0 107 73.5 163.5t203.5 56.5q107 0 173.5 -52t77.5 -142l-112 -16q-18 112 -145 112q-75 0 -115.5 -31t-40.5 -91q0 -93 104 -93h109l-21 -98h-109
q-76 0 -118 -34t-42 -97q0 -52 38 -80.5t108 -28.5q78 0 120 29t55 94h118z" />
    <glyph glyph-name="uni0191" unicode="&#x191;" horiz-adv-x="574" 
d="M227 303l-65 -309q-15 -70 -38 -108t-59 -55t-89 -17t-102 22l35 91q29 -11 57 -11q32 0 49.5 17.5t25.5 56.5l153 724h456l-22 -104h-336l-43 -202h316l-23 -105h-315z" />
    <glyph glyph-name="florin" unicode="&#x192;" 
d="M230 -28q-14 -39 -30 -66.5t-38 -45.5t-51 -26.5t-68 -8.5q-35 0 -60.5 7.5t-43.5 16.5l35 83q15 -6 29.5 -10t34.5 -4q36 0 52.5 15.5t30.5 54.5l150 422h-78l25 94h86l20 56q27 78 73.5 113.5t125.5 35.5q31 0 56.5 -7t42.5 -16l-34 -84q-15 7 -29.5 11t-34.5 4
q-37 0 -56.5 -15t-33.5 -57l-15 -41h124l-25 -94h-132z" />
    <glyph glyph-name="uni0193" unicode="&#x193;" horiz-adv-x="789" 
d="M580 277h-158l22 102h271l-66 -303q-49 -45 -120 -69.5t-153 -24.5q-89 0 -154 37t-101 108t-36 166q0 87 26 166t75.5 140.5t120.5 97t158 35.5q70 0 116 -22.5t77 -71.5q28 128 146 128q29 0 58 -8.5t49 -22.5l-41 -84q-24 15 -57 15q-37 0 -55 -22.5t-26 -78.5l-7 -42
l-113 -20q-15 66 -51 96t-102 30q-72 0 -127.5 -40.5t-88 -116t-32.5 -170.5q0 -101 45 -159t128 -58q100 0 165 45z" />
    <glyph glyph-name="uni0194" unicode="&#x194;" horiz-adv-x="682" 
d="M325 88l-50 -70q-22 -31 -29.5 -49.5t-7.5 -35.5q0 -21 12 -33t34 -12q33 0 50.5 18.5t17.5 51.5q0 27 -11 68zM430 105q29 -92 29 -138q0 -84 -47 -128t-134 -44q-67 0 -105.5 33.5t-38.5 91.5q0 25 7 49t21.5 50t52.5 76l52 67l-138 552h126l106 -466l298 466h129
l-372 -566z" />
    <glyph glyph-name="uni0195" unicode="&#x195;" horiz-adv-x="905" 
d="M806 520h114l-64 -300q-28 -130 -85.5 -183t-164.5 -53q-196 0 -196 170q0 33 12 93l14 65q6 34 6 48q0 39 -18.5 59.5t-53.5 20.5q-50 0 -97 -37q-51 -38 -63 -93l-65 -310h-114l151 714h114l-57 -265q76 87 173 87q70 0 108.5 -39t38.5 -110q0 -27 -8 -62l-18 -84
q-9 -43 -9 -75q0 -45 21 -66t65 -21q38 0 64 17t43.5 53t33.5 113z" />
    <glyph glyph-name="uni0196" unicode="&#x196;" horiz-adv-x="355" 
d="M321 -1q-57 -17 -107 -17q-70 0 -106.5 33.5t-36.5 95.5q0 26 6 54l116 549h121l-117 -550q-3 -16 -3 -27q0 -26 13 -38t41 -12q27 0 59 9z" />
    <glyph glyph-name="uni0197" unicode="&#x197;" horiz-adv-x="349" 
d="M82 0l67 318h-102l22 102h101l63 294h121l-62 -294h102l-22 -102h-101l-68 -318h-121z" />
    <glyph glyph-name="uni0198" unicode="&#x198;" horiz-adv-x="666" 
d="M492 0l-144 373l-128 -110l-56 -263h-121l151 714h121l-65 -307l241 221q63 57 99.5 76.5t78.5 19.5q34 0 57.5 -9.5t49.5 -35.5l-63 -85q-23 23 -53 23q-22 0 -43.5 -12.5t-67.5 -55.5l-108 -100l182 -449h-131z" />
    <glyph glyph-name="uni0199" unicode="&#x199;" horiz-adv-x="552" 
d="M214 322l256 198h139l-226 -181l132 -339h-118l-103 279l-107 -80l-41 -199h-113l120 566q17 81 56 118.5t110 37.5q51 0 93 -15l-30 -86q-23 7 -49 7q-32 0 -47.5 -18t-23.5 -61z" />
    <glyph glyph-name="uni019A" unicode="&#x19a;" horiz-adv-x="313" 
d="M66 0l68 322h-92l19 93h92l64 299h114l-63 -299h92l-19 -93h-92l-69 -322h-114z" />
    <glyph glyph-name="uni019B" unicode="&#x19b;" horiz-adv-x="548" 
d="M389 0l-50 374l-231 -374h-129l337 506l-7 37l-90 -59l-36 57l107 69q-15 21 -53 21q-30 0 -59 -10l-11 86q45 15 96 15q78 0 112 -57l77 50l36 -57l-88 -57q5 -17 8 -34l108 -567h-127z" />
    <glyph glyph-name="uni019C" unicode="&#x19c;" horiz-adv-x="992" 
d="M765 0l21 97q-44 -60 -93 -88.5t-108 -28.5q-122 0 -140 121q-95 -121 -223 -121q-72 0 -111.5 40.5t-39.5 114.5q0 36 9 81l105 495h121l-103 -487q-7 -33 -7 -56q0 -37 20.5 -57.5t57.5 -20.5q68 0 122 59q45 47 58 109l96 453h120l-102 -485q-8 -34 -8 -56
q0 -39 20.5 -59.5t57.5 -20.5q33 0 62 14.5t57 46.5q48 51 62 115l94 445h121l-151 -711h-118z" />
    <glyph glyph-name="uni019D" unicode="&#x19d;" horiz-adv-x="710" 
d="M500 0l-230 518l-112 -527q-21 -100 -62.5 -138.5t-118.5 -38.5q-53 0 -102 22l35 91q29 -11 57 -11q31 0 48.5 17.5t25.5 56.5l153 724h102l228 -520l110 520h118l-151 -714h-101z" />
    <glyph glyph-name="uni019E" unicode="&#x19e;" horiz-adv-x="582" 
d="M332 -194l108 504q3 13 4.5 26t1.5 24q0 38 -18 59t-55 21q-51 0 -100 -38q-22 -17 -39.5 -40.5t-23.5 -51.5l-65 -310h-114l110 520h111l-16 -75q42 49 87 70t91 21q73 0 111.5 -39.5t38.5 -109.5q0 -30 -7 -61l-111 -520h-114z" />
    <glyph glyph-name="uni019F" unicode="&#x19f;" horiz-adv-x="772" 
d="M482 732q66 0 119 -21.5t89.5 -60.5t56.5 -94t20 -122q0 -86 -25 -167.5t-74.5 -144.5t-123 -101.5t-169.5 -38.5q-66 0 -119.5 21.5t-91 60.5t-57.5 94t-20 122q0 85 26 166.5t76.5 145t124 102t168.5 38.5zM382 86q50 0 90.5 18.5t71 50t52 73t32.5 88.5h-414
q-1 -8 -1 -15v-15q0 -91 42.5 -145.5t126.5 -54.5zM473 628q-47 0 -85.5 -16.5t-68.5 -44.5t-51.5 -66t-34.5 -80h409q0 38 -7.5 75t-27 66.5t-52 47.5t-82.5 18z" />
    <glyph glyph-name="Ohorn" unicode="&#x1a0;" horiz-adv-x="772" 
d="M861 814q-1 -69 -33.5 -128t-92.5 -101q32 -66 32 -151q0 -123 -48.5 -227t-136.5 -164.5t-208 -60.5q-85 0 -149.5 36t-101 103.5t-36.5 158.5q0 88 27.5 170t78.5 145.5t124.5 100t164.5 36.5q123 0 199 -73q30 28 47 68.5t17 86.5h116zM382 86q75 0 133 42.5t92.5 123
t34.5 177.5q0 94 -44.5 146.5t-124.5 52.5q-75 0 -133 -43t-93 -123t-35 -176q0 -95 44.5 -147.5t125.5 -52.5z" />
    <glyph glyph-name="ohorn" unicode="&#x1a1;" horiz-adv-x="609" 
d="M667 628q0 -60 -28 -110t-80 -85q30 -54 30 -116q0 -99 -36.5 -174t-105.5 -117t-161 -42q-63 0 -113 27t-79.5 77t-29.5 115q0 96 37 171t107 118.5t160 43.5q79 0 134 -42q56 44 56 134h109zM294 76q50 0 90.5 28.5t63.5 82.5t23 127q0 60 -29.5 95t-81.5 35
q-51 0 -91.5 -29t-63.5 -83t-23 -127q0 -60 29.5 -94.5t82.5 -34.5z" />
    <glyph glyph-name="uni01A2" unicode="&#x1a2;" horiz-adv-x="1063" 
d="M832 0l102 480q8 38 8 62q0 40 -21.5 59.5t-65.5 19.5q-31 0 -64.5 -14.5t-60.5 -40.5q24 -58 24 -132q0 -90 -26.5 -172t-76.5 -145t-121.5 -99t-161.5 -36q-83 0 -146.5 36t-99 103.5t-35.5 158.5q0 120 48.5 224t136 166t204.5 62q65 0 118.5 -22.5t90.5 -65.5
q93 88 207 88q85 0 128 -44t43 -129q0 -43 -10 -92l-99 -467h-122zM375 86q73 0 129.5 43t90.5 123.5t34 176.5q0 92 -42.5 145.5t-119.5 53.5q-73 0 -130 -43t-91 -123.5t-34 -175.5q0 -94 42.5 -147t120.5 -53z" />
    <glyph glyph-name="uni01A3" unicode="&#x1a3;" horiz-adv-x="830" 
d="M623 0l71 331q4 20 4 39q0 60 -58 60q-42 0 -80 -31q16 -40 16 -82q0 -99 -35.5 -174t-103.5 -117t-158 -42q-61 0 -109.5 27t-77 77t-28.5 115q0 96 36 171t104 118.5t157 43.5q49 0 90.5 -17.5t69.5 -50.5q69 57 149 57q69 0 107 -34t38 -98q0 -29 -7 -58l-71 -335
h-114zM287 76q49 0 87.5 29t60.5 83t22 126q0 61 -27.5 95.5t-76.5 34.5t-88 -29t-61.5 -83.5t-22.5 -126.5q0 -61 28 -95t78 -34z" />
    <glyph glyph-name="uni01A4" unicode="&#x1a4;" horiz-adv-x="753" 
d="M787 524q0 -127 -80.5 -192.5t-236.5 -65.5h-132l-56 -266h-119l130 614q-56 0 -79.5 -20.5t-23.5 -64.5q0 -10 4 -30l-95 -15q-8 19 -8 48q0 86 57 134t160 48h245q71 0 123 -23t81.5 -67.5t29.5 -99.5zM483 367q96 0 140 36.5t44 113.5q0 47 -34 72t-99 25h-123
l-52 -247h124z" />
    <glyph glyph-name="uni01A5" unicode="&#x1a5;" horiz-adv-x="610" 
d="M151 566q17 81 56 118.5t110 37.5q51 0 93 -15l-30 -86q-23 7 -49 7q-32 0 -47.5 -17.5t-24.5 -59.5l-21 -100q33 42 76.5 63.5t94.5 21.5q87 0 135 -60t48 -164q0 -88 -33 -162.5t-93 -120t-137 -45.5q-59 0 -99.5 22t-68.5 68l-57 -268h-114zM195 253q-6 -24 -6 -56
q0 -56 31 -88t89 -32q46 0 83 29t59 84t22 123q0 60 -27 94.5t-74 34.5q-60 0 -107 -42.5t-62 -108.5z" />
    <glyph glyph-name="uni01A6" unicode="&#x1a6;" horiz-adv-x="643" 
d="M379 384q84 0 124.5 33t40.5 101q0 47 -34 71.5t-100 24.5h-119l-48 -230h136zM484 -93l-95 376q-23 -1 -72 -1h-96l-59 -282h-119l167 790h118l-16 -76h118q114 0 175 -51t61 -143q0 -82 -42 -136.5t-122 -77.5l109 -399h-127z" />
    <glyph glyph-name="uni01A7" unicode="&#x1a7;" horiz-adv-x="644" 
d="M624 218q-27 -123 -103.5 -179.5t-214.5 -56.5q-120 0 -188 52.5t-68 140.5q0 67 27 114t83.5 76.5t149.5 46.5l103 19q67 12 98 37.5t31 67.5q0 46 -34 71t-98 25q-75 0 -115 -27.5t-60 -92.5l-111 16q26 106 98.5 155t199.5 49q113 0 178.5 -53t65.5 -142
q0 -64 -26 -106t-82 -68t-155 -43l-95 -17q-67 -12 -98 -41.5t-31 -81.5q0 -44 35.5 -70t98.5 -26q83 0 127 30.5t62 103.5h122z" />
    <glyph glyph-name="uni01A8" unicode="&#x1a8;" horiz-adv-x="525" 
d="M490 159q-17 -91 -76.5 -133t-178.5 -42q-92 0 -147.5 41.5t-55.5 106.5q0 52 20.5 86.5t63 55t124.5 33.5l72 12q24 4 45.5 9.5t35 18.5t13.5 39q0 28 -25 45.5t-69 17.5q-36 0 -59 -7.5t-37.5 -24t-24.5 -47.5l-102 14q22 80 78 116t152 36q57 0 101.5 -18t70 -52
t25.5 -77q0 -50 -19.5 -82.5t-60 -51.5t-132.5 -34l-70 -11q-50 -8 -68.5 -25t-18.5 -49q0 -30 24.5 -46.5t70.5 -16.5q64 0 94.5 19t43.5 67h110z" />
    <glyph glyph-name="uni01A9" unicode="&#x1a9;" horiz-adv-x="581" 
d="M161 105h396l-36 -105h-524l18 90l274 281l-161 253l18 90h514l-21 -105h-376l156 -248z" />
    <glyph glyph-name="uni01AA" unicode="&#x1aa;" horiz-adv-x="373" 
d="M117 -192l140 658q-34 -27 -79 -27q-50 0 -80.5 32.5t-30.5 85.5q0 76 50.5 126t127.5 50q71 0 110 -37t39 -103q0 -26 -5 -49l-157 -736h-115zM257 538q20 14 25 38q3 15 3 21q0 21 -13 33.5t-36 12.5q-31 0 -49 -20.5t-18 -54.5q0 -21 11.5 -32.5t33.5 -11.5
q20 0 43 14z" />
    <glyph glyph-name="uni01AB" unicode="&#x1ab;" horiz-adv-x="363" 
d="M139 -85q28 0 47 21t25 56l-14 2t-14 3q-91 18 -91 116q0 29 8 67l53 250h-81l19 90h81l30 140h114l-30 -140h128l-19 -90h-128l-56 -265q-5 -22 -5 -33q0 -50 54 -50q35 0 70 8l-23 -107q-18 -84 -55.5 -119.5t-105.5 -35.5q-28 0 -55.5 6t-43.5 16l33 77q26 -12 59 -12
z" />
    <glyph glyph-name="uni01AC" unicode="&#x1ac;" horiz-adv-x="648" 
d="M250 0l129 609h-76q-55 0 -78.5 -20t-23.5 -64q0 -16 4 -29l-100 -15q-8 24 -8 51q0 85 58.5 133.5t162.5 48.5h429l-22 -105h-224l-129 -609h-122z" />
    <glyph glyph-name="uni01AD" unicode="&#x1ad;" horiz-adv-x="363" 
d="M267 430l-56 -264q-5 -22 -5 -33q0 -26 12.5 -38.5t41.5 -12.5q31 0 62 9l17 -85q-47 -16 -105 -16q-143 0 -143 125q0 18 7 55l55 260h-81l19 90h81l9 41q20 85 63.5 123t121.5 38q30 0 58 -6t46 -15l-32 -80q-27 11 -62 11t-54 -18t-28 -59l-8 -35h129l-20 -90h-128z
" />
    <glyph glyph-name="uni01AE" unicode="&#x1ae;" horiz-adv-x="611" 
d="M450 -169q-54 -16 -106 -16q-67 0 -103 33t-36 93q0 17 6 55l131 613h-226l22 105h572l-22 -105h-225l-131 -615q-4 -16 -4 -33q0 -45 49 -45q26 0 58 8z" />
    <glyph glyph-name="Uhorn" unicode="&#x1af;" horiz-adv-x="743" 
d="M330 -18q-118 0 -183.5 57t-65.5 163q0 44 10 87l90 425h120l-90 -428q-10 -37 -10 -74q0 -64 33 -95t104 -31q78 0 121 44.5t67 155.5l91 428h80q43 0 63 23.5t20 76.5h112q-4 -171 -173 -189l-71 -339q-34 -161 -109 -232.5t-209 -71.5z" />
    <glyph glyph-name="uhorn" unicode="&#x1b0;" horiz-adv-x="627" 
d="M250 520l-68 -319q-5 -32 -5 -45q0 -37 18 -56.5t53 -19.5q25 0 46 8t47 29q25 19 42.5 44.5t22.5 51.5l65 307h76q38 0 56.5 26t18.5 82h107q-2 -95 -41.5 -140.5t-120.5 -52.5l-91 -435h-112l16 75q-78 -91 -173 -91q-71 0 -109 38t-38 109q0 34 7 63l69 326h114z" />
    <glyph glyph-name="uni01B1" unicode="&#x1b1;" horiz-adv-x="740" 
d="M649 615q78 -95 78 -221q0 -119 -45 -213t-129 -146.5t-202 -52.5q-78 0 -138 31.5t-94 92t-34 142.5q0 112 45 203t138 164h-140l20 99h269l-19 -93q-90 -59 -140.5 -156t-50.5 -211q0 -82 40 -128t112 -46q76 0 131.5 40t87 117.5t31.5 175.5q0 58 -22.5 115t-59.5 93
l20 93h263l-20 -99h-141z" />
    <glyph glyph-name="uni01B2" unicode="&#x1b2;" horiz-adv-x="685" 
d="M672 359q-30 -135 -76.5 -217.5t-113 -121t-157.5 -38.5q-116 0 -180 57t-64 162q0 42 10 88l90 425h120l-90 -428q-10 -48 -10 -75q0 -125 131 -125q80 0 131.5 64t85.5 209l8 33q15 62 15 110q0 119 -103 119q-24 0 -42 -5l-5 95q34 10 75 10q95 0 145 -58t50 -163
q0 -49 -13 -108z" />
    <glyph glyph-name="uni01B3" unicode="&#x1b3;" horiz-adv-x="689" 
d="M226 0l62 297l-159 417h130l107 -310l144 201q48 68 86 93.5t94 25.5q67 0 111 -46l-62 -86q-15 13 -27 18t-28 5q-24 0 -42 -13.5t-47 -52.5l-186 -253l-62 -296h-121z" />
    <glyph glyph-name="uni01B4" unicode="&#x1b4;" horiz-adv-x="626" 
d="M195 21l-113 499h126l66 -376l141 266q37 70 73.5 98t91.5 28q66 0 108 -42l-56 -85q-26 20 -52 20q-20 0 -33 -10t-32 -43l-238 -409q-42 -74 -70.5 -105t-60 -43.5t-70.5 -12.5q-44 0 -86 17l30 86q31 -11 54 -11q28 0 46.5 14t43.5 57z" />
    <glyph glyph-name="uni01B5" unicode="&#x1b5;" horiz-adv-x="586" 
d="M351 305l-189 -200h397l-36 -105h-528l18 90l203 215h-130l21 102h205l192 203h-375l22 104h520l-19 -91l-205 -216h142l-21 -102h-217z" />
    <glyph glyph-name="uni01B6" unicode="&#x1b6;" horiz-adv-x="484" 
d="M295 226l-138 -136h297l-31 -90h-423l17 80l147 146h-93l17 81h158l125 123h-276l19 90h414l-16 -80l-135 -133h95l-17 -81h-160z" />
    <glyph glyph-name="uni01B7" unicode="&#x1b7;" horiz-adv-x="599" 
d="M140 609l20 105h472l-19 -91l-243 -205q92 -8 145.5 -55.5t53.5 -129.5q0 -118 -73 -184.5t-208 -66.5q-69 0 -117.5 17t-79.5 47t-46 71t-15 89h113q5 -64 40 -93.5t110 -29.5q77 0 117.5 34t40.5 110q0 45 -33.5 76t-102.5 31h-93l17 83l219 192h-318z" />
    <glyph glyph-name="uni01B8" unicode="&#x1b8;" horiz-adv-x="599" 
d="M585 206q-18 -113 -91 -168.5t-203 -55.5q-115 0 -179.5 55t-64.5 150q0 108 66 165.5t205 68.5l-152 202l19 91h463l-22 -105h-321l145 -195l-17 -80h-82q-92 0 -139 -36.5t-47 -106.5q0 -52 36 -80t103 -28q73 0 113.5 30t52.5 93h115z" />
    <glyph glyph-name="uni01B9" unicode="&#x1b9;" horiz-adv-x="508" 
d="M479 -18q-21 -95 -86 -140.5t-178 -45.5q-100 0 -157.5 51t-57.5 138q0 75 30.5 129t91 84t144.5 32l-150 216l16 74h419l-19 -91h-291l141 -205l-17 -76h-76q-86 0 -130.5 -39.5t-44.5 -116.5q0 -48 30 -77t80 -29q117 0 145 96h110z" />
    <glyph glyph-name="uni01BA" unicode="&#x1ba;" horiz-adv-x="487" 
d="M155 -75q-52 -10 -69.5 -22t-17.5 -35q0 -15 14 -41l-93 -33q-26 33 -26 76q0 61 37.5 93t130.5 49l56 11q78 14 105.5 26t39 30t11.5 44q0 34 -27.5 50t-86.5 16h-101l15 73l212 167h-283l18 91h408l-19 -91l-206 -162q88 -3 133.5 -38t45.5 -99q0 -55 -21 -92
t-65.5 -59.5t-125.5 -37.5z" />
    <glyph glyph-name="uni01BB" unicode="&#x1bb;" horiz-adv-x="585" 
d="M16 0l18 90q63 48 129.5 96t130.5 97h-178l20 94h259q79 74 79 157q0 46 -26.5 71.5t-72.5 25.5q-62 0 -97.5 -27t-56.5 -90l-110 14q31 106 97 154.5t175 48.5q99 0 154.5 -50.5t55.5 -137.5q0 -44 -17 -86.5t-48 -79.5h58l-19 -94h-123q-38 -33 -76.5 -60.5
t-79.5 -56.5t-89 -65h320l-34 -101h-469z" />
    <glyph glyph-name="uni01BC" unicode="&#x1bc;" horiz-adv-x="577" 
d="M294 614l-52 -191q63 39 134 39q54 0 94.5 -24t64 -69t23.5 -104q0 -83 -32 -147t-92 -100t-144 -36q-108 0 -168 53.5t-61 152.5h113q3 -56 32.5 -81.5t89.5 -25.5q68 0 108.5 45.5t40.5 125.5q0 55 -27.5 85.5t-77.5 30.5q-42 0 -74.5 -12.5t-61.5 -39.5h-97l83 298
h-80l21 100h483l-21 -100h-299z" />
    <glyph glyph-name="uni01BD" unicode="&#x1bd;" horiz-adv-x="524" 
d="M240 430l-36 -115q25 15 58.5 23.5t65.5 8.5q80 0 124.5 -42t44.5 -113q0 -97 -66 -153t-174 -56q-106 0 -158 39t-53 119h110q2 -37 26.5 -52.5t78.5 -15.5q58 0 91.5 29.5t33.5 82.5q0 37 -23.5 56.5t-68.5 19.5q-66 0 -121 -39h-93l64 212h-64l18 86h433l-19 -90h-272
z" />
    <glyph glyph-name="uni01BE" unicode="&#x1be;" horiz-adv-x="529" 
d="M280 222q-74 15 -106 45t-32 87q0 23 4 42l7 34h-81l19 90h81l30 140h114l-30 -140h127l-18 -90h-128l-7 -31q-2 -9 -3 -16.5t-1 -14.5q0 -22 14 -34t51 -19l31 -6q73 -16 108.5 -54t35.5 -101q0 -83 -60 -126.5t-173 -43.5q-103 0 -160 44.5t-58 128.5h109
q5 -84 118 -84q107 0 107 74q0 28 -16 44t-51 24z" />
    <glyph glyph-name="uni01BF" unicode="&#x1bf;" horiz-adv-x="590" 
d="M-10 -194l151 714h111l-14 -69q32 41 76.5 63t95.5 22q82 0 128 -49.5t46 -132.5q0 -68 -24.5 -124.5t-75 -103t-128.5 -87t-224 -93.5l-29 -140h-113zM155 56q112 45 164.5 75.5t84 63.5t46 70t14.5 79q0 48 -23.5 73t-68.5 25q-52 0 -99 -36q-53 -42 -70 -121z" />
    <glyph glyph-name="uni01C0" unicode="&#x1c0;" horiz-adv-x="252" 
d="M12 -124l183 858h108l-183 -858h-108z" />
    <glyph glyph-name="uni01C1" unicode="&#x1c1;" horiz-adv-x="496" 
d="M12 -124l183 858h108l-183 -858h-108zM256 -124l183 858h108l-183 -858h-108z" />
    <glyph glyph-name="uni01C2" unicode="&#x1c2;" horiz-adv-x="458" 
d="M112 -124l60 283h-161l21 101h161l23 102h-162l20 101h162l59 271h114l-59 -271h162l-20 -101h-162l-23 -102h162l-21 -101h-162l-60 -283h-114z" />
    <glyph glyph-name="uni01C3" unicode="&#x1c3;" horiz-adv-x="252" 
d="M183 137l-29 -137h-117l29 137h117zM305 714l-114 -499h-105l97 499h122z" />
    <glyph glyph-name="uni01C4" unicode="&#x1c4;" horiz-adv-x="1300" 
d="M43 0l151 714h234q68 0 122.5 -22.5t92.5 -62t58 -92.5t20 -114q0 -95 -27.5 -173t-82.5 -133.5t-137.5 -86t-191.5 -30.5h-239zM297 103q76 0 132.5 23t93.5 65t55 100t18 129q0 39 -11 74t-33.5 61t-56 41t-78.5 15h-126l-107 -508h113zM1237 0h-528l18 90l486 520
h-370l22 104h520l-19 -91l-484 -518h391zM1331 916l-146 -140h-114l-90 140h101l55 -75l93 75h101z" />
    <glyph glyph-name="uni01C5" unicode="&#x1c5;" horiz-adv-x="1203" 
d="M43 0l151 714h234q68 0 122.5 -22.5t92.5 -62t58 -92.5t20 -114q0 -95 -27.5 -173t-82.5 -133.5t-137.5 -86t-191.5 -30.5h-239zM297 103q76 0 132.5 23t93.5 65t55 100t18 129q0 39 -11 74t-33.5 61t-56 41t-78.5 15h-126l-107 -508h113zM1143 0h-424l17 80l345 350
h-267l19 90h414l-16 -80l-345 -350h287zM1244 741l-147 -148h-114l-88 148h99l55 -85l94 85h101z" />
    <glyph glyph-name="uni01C6" unicode="&#x1c6;" horiz-adv-x="1092" 
d="M325 536q54 0 95.5 -22t69.5 -70l58 270h114l-152 -714h-111l14 68q-33 -42 -73.5 -63t-91.5 -21q-48 0 -83.5 17.5t-59 47.5t-35 70.5t-11.5 86.5q0 67 20 127t55.5 105t84 71.5t106.5 26.5zM456 271q6 27 6 54q0 44 -27 77q-15 19 -38 30t-56 11q-39 0 -69 -19
t-51 -51.5t-32 -75.5t-11 -91q0 -57 26.5 -93t80.5 -36q52 0 96 36q25 21 41.5 48t25.5 69zM1032 0h-424l17 80l345 350h-267l19 90h414l-16 -80l-345 -350h287zM1133 741l-147 -148h-114l-88 148h99l55 -85l94 85h101z" />
    <glyph glyph-name="uni01C7" unicode="&#x1c7;" horiz-adv-x="1177" 
d="M1124 229q-14 -65 -38 -112t-59.5 -77t-82.5 -44t-107 -14q-51 0 -94 13t-73.5 38.5t-48 64.5t-17.5 90q0 10 0.5 20.5t2.5 21.5h119q-1 -7 -1 -12.5v-11.5q0 -26 5.5 -47.5t19 -38t37 -25.5t58.5 -9q37 0 64 11.5t45.5 33t31 52t21.5 69.5l98 462h121zM43 0l151 714h121
l-129 -609h354l-38 -105h-459z" />
    <glyph glyph-name="uni01C8" unicode="&#x1c8;" horiz-adv-x="819" 
d="M728 601l24 113h119l-24 -113h-119zM716 520h114l-116 -541q-9 -42 -22.5 -73t-33.5 -51.5t-49 -30.5t-69 -10q-33 0 -59.5 6t-48.5 15l34 86q12 -5 27.5 -9t35.5 -4q31 0 47.5 17.5t25.5 59.5zM43 0l151 714h121l-129 -609h354l-38 -105h-459z" />
    <glyph glyph-name="uni01C9" unicode="&#x1c9;" horiz-adv-x="491" 
d="M400 601l24 113h119l-24 -113h-119zM388 520h114l-116 -541q-9 -42 -22.5 -73t-33.5 -51.5t-49 -30.5t-69 -10q-33 0 -59.5 6t-48.5 15l34 86q12 -5 27.5 -9t35.5 -4q31 0 47.5 17.5t25.5 59.5zM33 0l151 714h114l-151 -714h-114z" />
    <glyph glyph-name="uni01CA" unicode="&#x1ca;" horiz-adv-x="1327" 
d="M1274 229q-14 -65 -38 -112t-59.5 -77t-82.5 -44t-107 -14q-51 0 -94 13t-73.5 38.5t-48 64.5t-17.5 90q0 10 0.5 20.5t2.5 21.5h119q-1 -7 -1 -12.5v-11.5q0 -26 5.5 -47.5t19 -38t37 -25.5t58.5 -9q37 0 64 11.5t45.5 33t31 52t21.5 69.5l98 462h121zM500 0l-230 518
l-110 -518h-117l151 714h102l228 -520l110 520h118l-151 -714h-101z" />
    <glyph glyph-name="uni01CB" unicode="&#x1cb;" horiz-adv-x="955" 
d="M864 601l24 113h119l-24 -113h-119zM852 520h114l-116 -541q-9 -42 -22.5 -73t-33.5 -51.5t-49 -30.5t-69 -10q-33 0 -59.5 6t-48.5 15l34 86q12 -5 27.5 -9t35.5 -4q31 0 47.5 17.5t25.5 59.5zM500 0l-230 518l-110 -518h-117l151 714h102l228 -520l110 520h118
l-151 -714h-101z" />
    <glyph glyph-name="uni01CC" unicode="&#x1cc;" horiz-adv-x="827" 
d="M736 601l24 113h119l-24 -113h-119zM724 520h114l-116 -541q-9 -42 -22.5 -73t-33.5 -51.5t-49 -30.5t-69 -10q-33 0 -59.5 6t-48.5 15l34 86q12 -5 27.5 -9t35.5 -4q31 0 47.5 17.5t25.5 59.5zM374 0l67 314q2 13 3.5 24t1.5 22q0 38 -18 59t-55 21q-50 0 -100 -38
q-22 -17 -40 -40.5t-23 -51.5l-65 -310h-114l110 520h111l-16 -75q42 49 87 70t91 21q73 0 111.5 -39.5t38.5 -109.5q0 -32 -7 -61l-69 -326h-114z" />
    <glyph glyph-name="uni01CD" unicode="&#x1cd;" horiz-adv-x="686" 
d="M521 714l121 -714h-124l-28 182h-278l-105 -182h-130l424 714h120zM266 283h211l-44 294zM667 916l-146 -140h-114l-90 140h101l55 -75l93 75h101z" />
    <glyph glyph-name="uni01CE" unicode="&#x1ce;" horiz-adv-x="549" 
d="M182 -13q-69 0 -110 36.5t-41 105.5q0 56 24 92t64 57t92 30t108 11l95 4l3 16q3 18 3 34q0 36 -21 56t-69 20q-54 0 -82 -14.5t-43 -56.5l-103 11q25 80 84 113.5t156 33.5q91 0 139 -41.5t49 -116.5q0 -14 -2 -29t-5 -31l-68 -318h-108l14 68q-36 -36 -76 -58.5
t-103 -22.5zM397 247l-77 -4q-50 -3 -84 -10.5t-54 -20.5t-28.5 -31.5t-8.5 -42.5q0 -26 18 -44.5t55 -18.5q31 0 59 9.5t50.5 26t38 40t21.5 52.5zM546 741l-147 -148h-114l-88 148h99l55 -85l94 85h101z" />
    <glyph glyph-name="uni01CF" unicode="&#x1cf;" horiz-adv-x="272" 
d="M43 0l151 714h121l-151 -714h-121zM466 916l-146 -140h-114l-90 140h101l55 -75l93 75h101z" />
    <glyph glyph-name="uni01D0" unicode="&#x1d0;" horiz-adv-x="246" 
d="M33 0l110 520h114l-110 -520h-114zM410 741l-147 -148h-114l-88 148h99l55 -85l94 85h101z" />
    <glyph glyph-name="uni01D1" unicode="&#x1d1;" horiz-adv-x="772" 
d="M482 732q66 0 119 -21.5t89.5 -60.5t56.5 -94t20 -122q0 -86 -25 -167.5t-74.5 -144.5t-123 -101.5t-169.5 -38.5q-66 0 -119.5 21.5t-91 60.5t-57.5 94t-20 122q0 85 26 166.5t76.5 145t124 102t168.5 38.5zM473 628q-65 0 -114 -30t-81.5 -79t-49 -110t-16.5 -123
q0 -91 42.5 -145.5t127.5 -54.5q64 0 113 30t81.5 79t49 110t16.5 124q0 45 -10.5 81.5t-32 62.5t-53 40.5t-73.5 14.5zM696 916l-146 -140h-114l-90 140h101l55 -75l93 75h101z" />
    <glyph glyph-name="uni01D2" unicode="&#x1d2;" horiz-adv-x="609" 
d="M368 536q51 0 91.5 -17t69.5 -46t44.5 -69.5t15.5 -86.5q0 -79 -22.5 -141t-63 -104.5t-96 -65t-121.5 -22.5q-50 0 -91 17t-70 46t-45 69t-16 87q0 78 23.5 139.5t64.5 104.5t96.5 66t119.5 23zM360 444q-38 0 -70.5 -16.5t-56.5 -47.5t-37.5 -75.5t-13.5 -99.5
q0 -60 29 -94.5t83 -34.5q38 0 70.5 16.5t56 47t37 74.5t13.5 100q0 60 -28.5 95t-82.5 35zM571 741l-147 -148h-114l-88 148h99l55 -85l94 85h101z" />
    <glyph glyph-name="uni01D3" unicode="&#x1d3;" horiz-adv-x="688" 
d="M330 -18q-56 0 -101.5 13.5t-78.5 40.5t-51 68.5t-18 97.5q0 43 10 87l90 425h120l-90 -428q-10 -39 -10 -74q0 -66 34 -96t103 -30q43 0 73.5 12.5t52.5 37.5t36.5 62.5t25.5 87.5l91 428h121l-90 -428q-17 -80 -43.5 -137.5t-65 -94.5t-90.5 -54.5t-119 -17.5zM666 916
l-146 -140h-114l-90 140h101l55 -75l93 75h101z" />
    <glyph glyph-name="uni01D4" unicode="&#x1d4;" horiz-adv-x="574" 
d="M250 520l-68 -319q-5 -28 -5 -45q0 -35 17 -55.5t54 -20.5q28 0 49 9t44 28q21 16 40 41t25 55l65 307h114l-109 -520h-112l16 75q-42 -49 -84.5 -70t-88.5 -21q-75 0 -111 40t-36 107q0 31 7 63l69 326h114zM561 741l-147 -148h-114l-88 148h99l55 -85l94 85h101z" />
    <glyph glyph-name="uni01D5" unicode="&#x1d5;" horiz-adv-x="688" 
d="M330 -18q-56 0 -101.5 13.5t-78.5 40.5t-51 68.5t-18 97.5q0 43 10 87l90 425h120l-90 -428q-10 -39 -10 -74q0 -66 34 -96t103 -30q43 0 73.5 12.5t52.5 37.5t36.5 62.5t25.5 87.5l91 428h121l-90 -428q-17 -80 -43.5 -137.5t-65 -94.5t-90.5 -54.5t-119 -17.5zM329 758
l22 104h101l-22 -104h-101zM360 902l16 81h270l-16 -81h-270zM504 758l22 104h101l-22 -104h-101z" />
    <glyph glyph-name="uni01D6" unicode="&#x1d6;" horiz-adv-x="574" 
d="M250 520l-68 -319q-5 -28 -5 -45q0 -35 17 -55.5t54 -20.5q28 0 49 9t44 28q21 16 40 41t25 55l65 307h114l-109 -520h-112l16 75q-42 -49 -84.5 -70t-88.5 -21q-75 0 -111 40t-36 107q0 31 7 63l69 326h114zM282 819h276l-17 -83h-277zM236 592l22 102h99l-21 -102h-100
zM411 592l22 102h99l-21 -102h-100z" />
    <glyph glyph-name="uni01D7" unicode="&#x1d7;" horiz-adv-x="688" 
d="M330 -18q-56 0 -101.5 13.5t-78.5 40.5t-51 68.5t-18 97.5q0 43 10 87l90 425h120l-90 -428q-10 -39 -10 -74q0 -66 34 -96t103 -30q43 0 73.5 12.5t52.5 37.5t36.5 62.5t25.5 87.5l91 428h121l-90 -428q-17 -80 -43.5 -137.5t-65 -94.5t-90.5 -54.5t-119 -17.5zM420 831
l90 128h112l-117 -128h-85zM283 758l21 102h100l-22 -102h-99zM541 758l22 102h99l-21 -102h-100z" />
    <glyph glyph-name="uni01D8" unicode="&#x1d8;" horiz-adv-x="574" 
d="M250 520l-68 -319q-5 -28 -5 -45q0 -35 17 -55.5t54 -20.5q28 0 49 9t44 28q21 16 40 41t25 55l65 307h114l-109 -520h-112l16 75q-42 -49 -84.5 -70t-88.5 -21q-75 0 -111 40t-36 107q0 31 7 63l69 326h114zM322 658l103 153h113l-131 -153h-85zM187 592l21 101h99
l-21 -101h-99zM445 592l22 101h99l-22 -101h-99z" />
    <glyph glyph-name="uni01D9" unicode="&#x1d9;" horiz-adv-x="688" 
d="M330 -18q-56 0 -101.5 13.5t-78.5 40.5t-51 68.5t-18 97.5q0 43 10 87l90 425h120l-90 -428q-10 -39 -10 -74q0 -66 34 -96t103 -30q43 0 73.5 12.5t52.5 37.5t36.5 62.5t25.5 87.5l91 428h121l-90 -428q-17 -80 -43.5 -137.5t-65 -94.5t-90.5 -54.5t-119 -17.5zM434 832
l-76 127h83l47 -72l74 72h88l-127 -127h-89zM545 758l22 102h99l-21 -102h-100zM283 758l21 102h99l-22 -102h-98z" />
    <glyph glyph-name="uni01DA" unicode="&#x1da;" horiz-adv-x="574" 
d="M250 520l-68 -319q-5 -28 -5 -45q0 -35 17 -55.5t54 -20.5q28 0 49 9t44 28q21 16 40 41t25 55l65 307h114l-109 -520h-112l16 75q-42 -49 -84.5 -70t-88.5 -21q-75 0 -111 40t-36 107q0 31 7 63l69 326h114zM344 682l-71 140h81l39 -79l69 79h88l-127 -140h-79zM193 592
l22 101h98l-21 -101h-99zM438 592l22 101h98l-22 -101h-98z" />
    <glyph glyph-name="uni01DB" unicode="&#x1db;" horiz-adv-x="688" 
d="M330 -18q-56 0 -101.5 13.5t-78.5 40.5t-51 68.5t-18 97.5q0 43 10 87l90 425h120l-90 -428q-10 -39 -10 -74q0 -66 34 -96t103 -30q43 0 73.5 12.5t52.5 37.5t36.5 62.5t25.5 87.5l91 428h121l-90 -428q-17 -80 -43.5 -137.5t-65 -94.5t-90.5 -54.5t-119 -17.5zM451 831
l-84 128h113l55 -128h-84zM283 758l21 102h100l-22 -102h-99zM541 758l22 102h99l-21 -102h-100z" />
    <glyph glyph-name="uni01DC" unicode="&#x1dc;" horiz-adv-x="574" 
d="M250 520l-68 -319q-5 -28 -5 -45q0 -35 17 -55.5t54 -20.5q28 0 49 9t44 28q21 16 40 41t25 55l65 307h114l-109 -520h-112l16 75q-42 -49 -84.5 -70t-88.5 -21q-75 0 -111 40t-36 107q0 31 7 63l69 326h114zM355 658l-95 153h114l64 -153h-83zM187 592l21 101h99
l-21 -101h-99zM445 592l22 101h99l-22 -101h-99z" />
    <glyph glyph-name="uni01DD" unicode="&#x1dd;" horiz-adv-x="588" 
d="M93 385q35 81 95 118.5t160 37.5q54 0 95 -17t68.5 -48t42 -74t14.5 -94q0 -73 -21 -133t-58.5 -102.5t-90 -65.5t-114.5 -23q-109 0 -164.5 56t-55.5 155q0 17 3.5 44.5t8.5 51.5h378q1 7 1.5 15t0.5 15q0 58 -30.5 94t-87.5 36t-89.5 -21.5t-54.5 -68.5zM175 212
q-2 -8 -2 -15.5v-14.5q0 -49 26 -80.5t85 -31.5q71 0 110 39t51 103h-270z" />
    <glyph glyph-name="uni01DE" unicode="&#x1de;" horiz-adv-x="686" 
d="M521 714l121 -714h-124l-28 182h-278l-105 -182h-130l424 714h120zM266 283h211l-44 294zM327 758l22 104h101l-22 -104h-101zM358 902l16 81h270l-16 -81h-270zM502 758l22 104h101l-22 -104h-101z" />
    <glyph glyph-name="uni01DF" unicode="&#x1df;" horiz-adv-x="549" 
d="M182 -13q-69 0 -110 36.5t-41 105.5q0 56 24 92t64 57t92 30t108 11l95 4l3 16q3 18 3 34q0 36 -21 56t-69 20q-54 0 -82 -14.5t-43 -56.5l-103 11q25 80 84 113.5t156 33.5q91 0 139 -41.5t49 -116.5q0 -14 -2 -29t-5 -31l-68 -318h-108l14 68q-36 -36 -76 -58.5
t-103 -22.5zM397 247l-77 -4q-50 -3 -84 -10.5t-54 -20.5t-28.5 -31.5t-8.5 -42.5q0 -26 18 -44.5t55 -18.5q31 0 59 9.5t50.5 26t38 40t21.5 52.5zM240 819h276l-17 -83h-277zM194 592l22 102h99l-21 -102h-100zM369 592l22 102h99l-21 -102h-100z" />
    <glyph glyph-name="uni01E0" unicode="&#x1e0;" horiz-adv-x="686" 
d="M521 714l121 -714h-124l-28 182h-278l-105 -182h-130l424 714h120zM266 283h211l-44 294zM415 758l22 104h101l-22 -104h-101zM360 902l16 81h270l-16 -81h-270z" />
    <glyph glyph-name="uni01E1" unicode="&#x1e1;" horiz-adv-x="549" 
d="M182 -13q-69 0 -110 36.5t-41 105.5q0 56 24 92t64 57t92 30t108 11l95 4l3 16q3 18 3 34q0 36 -21 56t-69 20q-54 0 -82 -14.5t-43 -56.5l-103 11q25 80 84 113.5t156 33.5q91 0 139 -41.5t49 -116.5q0 -14 -2 -29t-5 -31l-68 -318h-108l14 68q-36 -36 -76 -58.5
t-103 -22.5zM397 247l-77 -4q-50 -3 -84 -10.5t-54 -20.5t-28.5 -31.5t-8.5 -42.5q0 -26 18 -44.5t55 -18.5q31 0 59 9.5t50.5 26t38 40t21.5 52.5zM255 819h276l-17 -83h-277zM294 592l22 103h101l-21 -103h-102z" />
    <glyph glyph-name="uni01E2" unicode="&#x1e2;" horiz-adv-x="1040" 
d="M555 225h-278l-175 -225h-138l560 714h585l-22 -104h-334l-40 -190h313l-22 -105h-313l-45 -211h354l-36 -104h-456zM352 327h225l60 283h-67zM569 885h301l-19 -92h-301z" />
    <glyph glyph-name="uni01E3" unicode="&#x1e3;" horiz-adv-x="895" 
d="M845 154q-22 -85 -79 -127.5t-160 -42.5q-75 0 -118.5 31.5t-67.5 81.5q-20 -25 -41 -45.5t-47 -34.5t-59 -22t-76 -8q-79 0 -122.5 36.5t-43.5 105.5q0 56 23.5 92t63 57t90.5 30t105 11l94 4l3 16q3 15 3 29q0 40 -23 60.5t-65 20.5q-51 0 -78.5 -14.5t-42.5 -56.5
l-102 11q24 80 81.5 113.5t146.5 33.5q63 0 100.5 -22t55.5 -65q35 43 79.5 65t107.5 22q48 0 85.5 -15t63 -41.5t38.5 -63t13 -79.5q0 -17 -2 -37.5t-6 -43.5l-4 -24h-363v-24q0 -60 30 -97.5t87 -37.5q51 0 79 19.5t40 61.5h111zM390 247l-76 -4q-49 -3 -81.5 -10.5
t-52 -20.5t-27.5 -31.5t-8 -42.5q0 -26 18.5 -44.5t57.5 -18.5q38 0 65.5 10.5t46.5 28t30.5 40.5t17.5 49zM662 449q-52 0 -93.5 -31.5t-60.5 -106.5h253q3 15 3 31q0 46 -25 76.5t-77 30.5zM402 706h276l-18 -89h-277z" />
    <glyph glyph-name="uni01E4" unicode="&#x1e4;" horiz-adv-x="731" 
d="M672 179l-23 -103q-49 -45 -120 -69.5t-153 -24.5q-89 0 -154 37t-101 108t-36 166q0 120 47.5 220.5t134.5 159.5t202 59q114 0 179.5 -54.5t78.5 -158.5l-118 -17q-11 66 -47.5 96.5t-102.5 30.5q-72 0 -127.5 -40.5t-88 -116t-32.5 -170.5q0 -101 45 -159t128 -58
q101 0 165 45l10 49h-158l16 77h158l14 61h-159l17 77h271l-30 -138h81l-16 -77h-81z" />
    <glyph glyph-name="uni01E5" unicode="&#x1e5;" horiz-adv-x="622" 
d="M577 311h73l-16 -76h-74l-33 -157q-20 -94 -43.5 -145.5t-57 -81.5t-78.5 -43t-103 -13q-109 0 -163.5 41t-57.5 124h114q7 -43 32 -59t84 -16q43 0 73 17t49 52.5t34 103.5l7 32q-31 -40 -71.5 -58.5t-95.5 -18.5q-88 0 -137.5 56t-49.5 154q0 78 33.5 150t92.5 116.5
t136 44.5q61 0 100.5 -21t69.5 -69l16 76h111zM348 311h118q2 13 2 30q0 29 -15 52.5t-43 36.5t-67 13q-45 0 -81 -27.5t-58 -79.5t-22 -113q0 -57 27 -88t76 -31q62 0 106.5 34.5t62.5 96.5h-122z" />
    <glyph glyph-name="Gcaron" unicode="&#x1e6;" horiz-adv-x="721" 
d="M609 502q-11 67 -47.5 97t-102.5 30q-60 0 -106.5 -27t-78 -72.5t-48 -104.5t-16.5 -123q0 -44 10 -83.5t31 -69t54 -47t79 -17.5q57 0 96.5 12.5t68.5 32.5l31 147h-158l22 102h271l-66 -303q-42 -38 -110.5 -66t-162.5 -28q-73 0 -127.5 24t-91 66t-54.5 98.5
t-18 122.5q0 86 25.5 165.5t75 140t120.5 97t163 36.5q115 0 180.5 -55t77.5 -158zM687 916l-146 -140h-114l-90 140h101l55 -75l93 75h101z" />
    <glyph glyph-name="gcaron" unicode="&#x1e7;" horiz-adv-x="609" 
d="M458 274q5 20 5 37q0 61 -27 96.5t-93 35.5q-39 0 -69 -19.5t-50.5 -50.5t-31 -70.5t-10.5 -79.5q0 -58 27.5 -88.5t75.5 -30.5q62 0 107.5 39t59.5 105zM527 78q-14 -65 -32.5 -117.5t-49 -89.5t-78.5 -56.5t-122 -19.5q-114 0 -166 43t-55 122h114q7 -42 32 -58.5
t84 -16.5q39 0 65.5 13t44 36t28 54.5t18.5 69.5l7 32q-33 -42 -74 -59.5t-93 -17.5q-47 0 -82.5 16t-58.5 44t-34.5 66.5t-11.5 83.5q0 56 18 111.5t52 100t82.5 72t109.5 27.5t100.5 -21t69.5 -69l16 76h111zM579 741l-147 -148h-114l-88 148h99l55 -85l94 85h101z" />
    <glyph glyph-name="uni01E8" unicode="&#x1e8;" horiz-adv-x="662" 
d="M349 370l-129 -107l-56 -263h-121l151 714h121l-65 -307l359 307h139l-304 -273l179 -441h-131zM658 916l-146 -140h-114l-90 140h101l55 -75l93 75h101z" />
    <glyph glyph-name="uni01E9" unicode="&#x1e9;" horiz-adv-x="550" 
d="M31 0l151 714h113l-83 -392l256 198h139l-226 -181l132 -339h-118l-103 279l-107 -80l-41 -199h-113zM545 916l-146 -140h-114l-90 140h101l55 -75l93 75h101z" />
    <glyph glyph-name="uni01EA" unicode="&#x1ea;" horiz-adv-x="772" 
d="M465 -191q-14 -2 -44 -2q-48 0 -77.5 20t-29.5 55q0 30 15.5 54t47.5 46q-21 0 -53 4q-110 16 -173.5 94.5t-63.5 199.5q0 88 27.5 170t78.5 145.5t124.5 100t164.5 36.5q84 0 148 -35.5t100.5 -103.5t36.5 -159q0 -142 -66 -256.5t-180 -167.5q-51 -23 -79 -49t-28 -51
q0 -29 38 -29q8 0 15 0.5t14 1.5zM382 86q74 0 132 43t93 123.5t35 176.5q0 94 -44.5 147t-124.5 53q-75 0 -133 -43t-93 -123.5t-35 -176.5q0 -95 44.5 -147.5t125.5 -52.5z" />
    <glyph glyph-name="uni01EB" unicode="&#x1eb;" horiz-adv-x="609" 
d="M363 -185q-18 -3 -42 -3q-49 0 -75.5 18.5t-26.5 53.5q0 58 63 100q-64 2 -113 29.5t-77 76.5t-28 113q0 95 37 170.5t106.5 119t160.5 43.5q97 0 159 -61.5t62 -157.5q0 -82 -23 -141t-71 -105t-129 -88q-26 -14 -39.5 -32t-13.5 -38q0 -13 10 -20.5t28 -7.5q20 0 27 1z
M294 76q51 0 91 29t63 83t23 126q0 60 -29.5 95t-81.5 35q-79 0 -128.5 -66t-49.5 -173q0 -60 30 -94.5t82 -34.5z" />
    <glyph glyph-name="uni01EC" unicode="&#x1ec;" horiz-adv-x="772" 
d="M465 -191q-14 -2 -44 -2q-48 0 -77.5 20t-29.5 55q0 30 15.5 54t47.5 46q-21 0 -53 4q-110 16 -173.5 94.5t-63.5 199.5q0 88 27.5 170t78.5 145.5t124.5 100t164.5 36.5q84 0 148 -35.5t100.5 -103.5t36.5 -159q0 -142 -66 -256.5t-180 -167.5q-51 -23 -79 -49t-28 -51
q0 -29 38 -29q8 0 15 0.5t14 1.5zM382 86q74 0 132 43t93 123.5t35 176.5q0 94 -44.5 147t-124.5 53q-75 0 -133 -43t-93 -123.5t-35 -176.5q0 -95 44.5 -147.5t125.5 -52.5zM379 885h301l-19 -92h-301z" />
    <glyph glyph-name="uni01ED" unicode="&#x1ed;" horiz-adv-x="609" 
d="M363 -185q-18 -3 -42 -3q-49 0 -75.5 18.5t-26.5 53.5q0 58 63 100q-64 2 -113 29.5t-77 76.5t-28 113q0 95 37 170.5t106.5 119t160.5 43.5q97 0 159 -61.5t62 -157.5q0 -82 -23 -141t-71 -105t-129 -88q-26 -14 -39.5 -32t-13.5 -38q0 -13 10 -20.5t28 -7.5q20 0 27 1z
M294 76q51 0 91 29t63 83t23 126q0 60 -29.5 95t-81.5 35q-79 0 -128.5 -66t-49.5 -173q0 -60 30 -94.5t82 -34.5zM261 706h276l-18 -89h-277z" />
    <glyph glyph-name="uni01EE" unicode="&#x1ee;" horiz-adv-x="599" 
d="M140 609l20 105h472l-19 -91l-243 -205q92 -8 145.5 -55.5t53.5 -129.5q0 -118 -73 -184.5t-208 -66.5q-69 0 -117.5 17t-79.5 47t-46 71t-15 89h113q5 -64 40 -93.5t110 -29.5q77 0 117.5 34t40.5 110q0 45 -33.5 76t-102.5 31h-93l17 83l219 192h-318zM603 916
l-146 -140h-114l-90 140h101l55 -75l93 75h101z" />
    <glyph glyph-name="uni01EF" unicode="&#x1ef;" horiz-adv-x="508" 
d="M137 148l13 77l224 204h-276l18 91h419l-13 -70l-246 -221q93 -10 142.5 -57.5t49.5 -129.5q0 -121 -64.5 -183.5t-189.5 -62.5q-108 0 -167 47.5t-63 138.5h108q8 -51 37.5 -73.5t89.5 -22.5q66 0 100 37t34 108q0 56 -35 86.5t-99 30.5h-82zM530 741l-147 -148h-114
l-88 148h99l55 -85l94 85h101z" />
    <glyph glyph-name="uni01F0" unicode="&#x1f0;" horiz-adv-x="246" 
d="M143 520h114l-116 -541q-9 -42 -22.5 -73t-33.5 -51.5t-49 -30.5t-69 -10q-33 0 -59.5 6t-48.5 15l34 86q12 -5 27.5 -9t35.5 -4q31 0 47.5 17.5t25.5 59.5zM412 741l-147 -148h-114l-88 148h99l55 -85l94 85h101z" />
    <glyph glyph-name="uni01F1" unicode="&#x1f1;" horiz-adv-x="1300" 
d="M43 0l151 714h234q68 0 122.5 -22.5t92.5 -62t58 -92.5t20 -114q0 -95 -27.5 -173t-82.5 -133.5t-137.5 -86t-191.5 -30.5h-239zM297 103q76 0 132.5 23t93.5 65t55 100t18 129q0 39 -11 74t-33.5 61t-56 41t-78.5 15h-126l-107 -508h113zM1237 0h-528l18 90l486 520
h-370l22 104h520l-19 -91l-484 -518h391z" />
    <glyph glyph-name="uni01F2" unicode="&#x1f2;" horiz-adv-x="1203" 
d="M43 0l151 714h234q68 0 122.5 -22.5t92.5 -62t58 -92.5t20 -114q0 -95 -27.5 -173t-82.5 -133.5t-137.5 -86t-191.5 -30.5h-239zM297 103q76 0 132.5 23t93.5 65t55 100t18 129q0 39 -11 74t-33.5 61t-56 41t-78.5 15h-126l-107 -508h113zM1143 0h-424l17 80l345 350
h-267l19 90h414l-16 -80l-345 -350h287z" />
    <glyph glyph-name="uni01F3" unicode="&#x1f3;" horiz-adv-x="1092" 
d="M325 536q54 0 95.5 -22t69.5 -70l58 270h114l-152 -714h-111l14 68q-33 -42 -73.5 -63t-91.5 -21q-48 0 -83.5 17.5t-59 47.5t-35 70.5t-11.5 86.5q0 67 20 127t55.5 105t84 71.5t106.5 26.5zM456 271q6 27 6 54q0 44 -27 77q-15 19 -38 30t-56 11q-39 0 -69 -19
t-51 -51.5t-32 -75.5t-11 -91q0 -57 26.5 -93t80.5 -36q52 0 96 36q25 21 41.5 48t25.5 69zM1032 0h-424l17 80l345 350h-267l19 90h414l-16 -80l-345 -350h287z" />
    <glyph glyph-name="uni01F4" unicode="&#x1f4;" horiz-adv-x="721" 
d="M609 502q-11 67 -47.5 97t-102.5 30q-60 0 -106.5 -27t-78 -72.5t-48 -104.5t-16.5 -123q0 -44 10 -83.5t31 -69t54 -47t79 -17.5q57 0 96.5 12.5t68.5 32.5l31 147h-158l22 102h271l-66 -303q-42 -38 -110.5 -66t-162.5 -28q-73 0 -127.5 24t-91 66t-54.5 98.5
t-18 122.5q0 86 25.5 165.5t75 140t120.5 97t163 36.5q115 0 180.5 -55t77.5 -158zM404 773l150 139h140l-177 -139h-113z" />
    <glyph glyph-name="uni01F5" unicode="&#x1f5;" horiz-adv-x="609" 
d="M458 274q5 20 5 37q0 61 -27 96.5t-93 35.5q-39 0 -69 -19.5t-50.5 -50.5t-31 -70.5t-10.5 -79.5q0 -58 27.5 -88.5t75.5 -30.5q62 0 107.5 39t59.5 105zM527 78q-14 -65 -32.5 -117.5t-49 -89.5t-78.5 -56.5t-122 -19.5q-114 0 -166 43t-55 122h114q7 -42 32 -58.5
t84 -16.5q39 0 65.5 13t44 36t28 54.5t18.5 69.5l7 32q-33 -42 -74 -59.5t-93 -17.5q-47 0 -82.5 16t-58.5 44t-34.5 66.5t-11.5 83.5q0 56 18 111.5t52 100t82.5 72t109.5 27.5t100.5 -21t69.5 -69l16 76h111zM303 593l146 148h138l-171 -148h-113z" />
    <glyph glyph-name="uni01F6" unicode="&#x1f6;" horiz-adv-x="1058" 
d="M951 520h122l-66 -303q-27 -127 -89.5 -180.5t-178.5 -53.5q-101 0 -157.5 46.5t-56.5 128.5q0 30 8 72l18 83h-321l-66 -313h-121l151 714h121l-61 -289h321l61 289h121l-104 -491q-7 -31 -7 -51q0 -41 27 -63.5t74 -22.5q59 0 93 32.5t48 101.5z" />
    <glyph glyph-name="uni01F7" unicode="&#x1f7;" horiz-adv-x="677" 
d="M2 -194l192 908h116l-19 -90q48 56 100.5 82.5t114.5 26.5q92 0 143.5 -59t51.5 -159q0 -68 -19.5 -127t-59 -110.5t-99 -97t-141.5 -87t-221 -94.5l-41 -193h-118zM187 121q53 22 107 47t104 56t89 70.5t62 90.5t23 116q0 62 -28.5 95t-80.5 33q-75 0 -133.5 -56
t-78.5 -149z" />
    <glyph glyph-name="uni01F8" unicode="&#x1f8;" horiz-adv-x="710" 
d="M500 0l-230 518l-110 -518h-117l151 714h102l228 -520l110 520h118l-151 -714h-101zM457 773l-120 139h130l95 -139h-105z" />
    <glyph glyph-name="uni01F9" unicode="&#x1f9;" horiz-adv-x="581" 
d="M374 0l67 314q2 13 3.5 24t1.5 22q0 38 -18 59t-55 21q-50 0 -100 -38q-22 -17 -40 -40.5t-23 -51.5l-65 -310h-114l110 520h111l-16 -75q42 49 87 70t91 21q73 0 111.5 -39.5t38.5 -109.5q0 -32 -7 -61l-69 -326h-114zM360 593l-113 148h126l88 -148h-101z" />
    <glyph glyph-name="Aringacute" unicode="&#x1fa;" horiz-adv-x="687" 
d="M509 902h-95l111 114h121zM-23 0l421 709q-29 24 -29 71q0 43 26 68.5t68 25.5q43 0 70 -25.5t27 -68.5q0 -24 -10 -43.5t-28 -31.5l120 -705h-124l-28 182h-278l-105 -182h-130zM266 283h211l-44 294zM464 741q17 0 27 10.5t10 28.5t-9.5 28.5t-27.5 10.5
q-17 0 -26.5 -10t-9.5 -29q0 -18 9.5 -28.5t26.5 -10.5z" />
    <glyph glyph-name="aringacute" unicode="&#x1fb;" horiz-adv-x="549" 
d="M182 -13q-69 0 -110 36.5t-41 105.5q0 56 24 92t64 57t92 30t108 11l95 4l3 16q3 18 3 34q0 36 -21 56t-69 20q-54 0 -82 -14.5t-43 -56.5l-103 11q25 80 84 113.5t156 33.5q91 0 139 -41.5t49 -116.5q0 -14 -2 -29t-5 -31l-68 -318h-108l14 68q-36 -36 -76 -58.5
t-103 -22.5zM397 247l-77 -4q-50 -3 -84 -10.5t-54 -20.5t-28.5 -31.5t-8.5 -42.5q0 -26 18 -44.5t55 -18.5q31 0 59 9.5t50.5 26t38 40t21.5 52.5zM403 783h-88l103 104h111zM443 668q0 -40 -24.5 -63.5t-63.5 -23.5q-40 0 -64 23.5t-24 63.5q0 39 24.5 63t63.5 24
q38 0 63 -24t25 -63zM355 630q16 0 25 10t9 28t-9 27.5t-25 9.5q-34 0 -34 -37q0 -38 34 -38z" />
    <glyph glyph-name="AEacute" unicode="&#x1fc;" horiz-adv-x="1040" 
d="M555 225h-278l-175 -225h-138l560 714h585l-22 -104h-334l-40 -190h313l-22 -105h-313l-45 -211h354l-36 -104h-456zM352 327h225l60 283h-67zM582 792l146 148h138l-171 -148h-113z" />
    <glyph glyph-name="aeacute" unicode="&#x1fd;" horiz-adv-x="895" 
d="M845 154q-22 -85 -79 -127.5t-160 -42.5q-75 0 -118.5 31.5t-67.5 81.5q-20 -25 -41 -45.5t-47 -34.5t-59 -22t-76 -8q-79 0 -122.5 36.5t-43.5 105.5q0 56 23.5 92t63 57t90.5 30t105 11l94 4l3 16q3 15 3 29q0 40 -23 60.5t-65 20.5q-51 0 -78.5 -14.5t-42.5 -56.5
l-102 11q24 80 81.5 113.5t146.5 33.5q63 0 100.5 -22t55.5 -65q35 43 79.5 65t107.5 22q48 0 85.5 -15t63 -41.5t38.5 -63t13 -79.5q0 -17 -2 -37.5t-6 -43.5l-4 -24h-363v-24q0 -60 30 -97.5t87 -37.5q51 0 79 19.5t40 61.5h111zM390 247l-76 -4q-49 -3 -81.5 -10.5
t-52 -20.5t-27.5 -31.5t-8 -42.5q0 -26 18.5 -44.5t57.5 -18.5q38 0 65.5 10.5t46.5 28t30.5 40.5t17.5 49zM662 449q-52 0 -93.5 -31.5t-60.5 -106.5h253q3 15 3 31q0 46 -25 76.5t-77 30.5zM451 593l146 148h138l-171 -148h-113z" />
    <glyph glyph-name="Oslashacute" unicode="&#x1fe;" horiz-adv-x="772" 
d="M482 732q104 0 175 -53l66 76l54 -45l-70 -81q60 -77 60 -195q0 -86 -25 -167.5t-74.5 -144.5t-123 -101.5t-169.5 -38.5q-55 0 -100.5 14.5t-81.5 41.5l-67 -78l-54 45l72 83q-57 76 -57 192q0 85 26 166.5t76.5 145t124 102t168.5 38.5zM642 429q0 62 -19 104
l-354 -408q43 -39 113 -39q64 0 113 30t81.5 79t49 110t16.5 124zM473 628q-65 0 -114 -30t-81.5 -79t-49 -110t-16.5 -123q0 -60 17 -100l352 406q-42 36 -108 36zM403 773l150 139h140l-177 -139h-113z" />
    <glyph glyph-name="oslashacute" unicode="&#x1ff;" horiz-adv-x="609" 
d="M543 456q22 -28 34 -63.5t12 -75.5q0 -79 -22.5 -141t-63 -104.5t-96 -65t-121.5 -22.5q-38 0 -70 9.5t-58 26.5l-62 -70l-50 44l63 71q-45 57 -45 138q0 78 23.5 139.5t64.5 104.5t96.5 66t119.5 23q73 0 126 -35l55 62l50 -43zM471 314q0 14 -2 27.5t-5 24.5l-238 -269
q27 -21 68 -21q38 0 70.5 16.5t56 47t37 74.5t13.5 100zM360 444q-38 0 -70.5 -16.5t-56.5 -47.5t-37.5 -75.5t-13.5 -99.5q0 -28 6 -50l238 269q-29 20 -66 20zM290 593l146 148h138l-171 -148h-113z" />
    <glyph glyph-name="Scommaaccent" unicode="&#x218;" horiz-adv-x="644" 
d="M607 221q0 -62 -20 -107t-57 -74t-89.5 -43.5t-117.5 -14.5q-53 0 -103.5 11t-90.5 38t-64.5 72.5t-26.5 114.5h122q6 -69 45.5 -101.5t126.5 -32.5q40 0 68.5 9.5t46.5 26t26 39t8 49.5q0 30 -20 56.5t-72 37.5l-86 18q-94 19 -138.5 66t-44.5 119q0 58 20 101t56.5 71
t89 41.5t117.5 13.5q117 0 183 -52.5t75 -154.5l-116 -16q-8 63 -42.5 93t-106.5 30q-44 0 -73.5 -9t-47 -24t-25 -34t-7.5 -38q0 -42 22.5 -65t73.5 -34l86 -19q51 -12 86 -30.5t56.5 -42.5t30.5 -53t9 -62zM127 -222l111 155h131l-136 -155h-106z" />
    <glyph glyph-name="scommaaccent" unicode="&#x219;" horiz-adv-x="530" 
d="M482 154q0 -48 -19 -80.5t-50.5 -52.5t-74 -28.5t-88.5 -8.5q-41 0 -80 8.5t-69 29t-49 53.5t-20 82h109q3 -49 35 -66.5t83 -17.5q57 0 82.5 19.5t25.5 54.5q0 26 -14.5 41.5t-53.5 23.5l-57 12q-82 18 -115 54t-33 90q0 43 17 74.5t47 52.5t70.5 31t87.5 10q42 0 78 -9
t63 -27.5t43.5 -48t20.5 -70.5l-104 -14q-6 38 -28.5 60t-76.5 22q-33 0 -54 -6.5t-33 -16.5t-16.5 -22.5t-4.5 -24.5q0 -26 17 -40.5t60 -23.5l57 -12q80 -17 112 -54.5t32 -94.5zM80 -217l106 150h124l-130 -150h-100z" />
    <glyph glyph-name="uni021A" unicode="&#x21a;" horiz-adv-x="610" 
d="M462 609l-129 -609h-121l129 609h-226l22 105h572l-22 -105h-225zM85 -222l111 155h131l-136 -155h-106z" />
    <glyph glyph-name="uni021B" unicode="&#x21b;" horiz-adv-x="363" 
d="M211 166l-3.5 -17.5t-1.5 -15.5q0 -29 14.5 -40t39.5 -11q18 0 33.5 2.5t28.5 6.5l17 -85q-48 -16 -105 -16q-69 0 -106 31t-37 94q0 28 7 55l55 260h-81l19 90h81l30 140h114l-30 -140h128l-19 -90h-128zM14 -217l106 150h124l-130 -150h-100z" />
    <glyph glyph-name="uni021E" unicode="&#x21e;" horiz-adv-x="715" 
d="M485 0l66 313h-321l-66 -313h-121l151 714h121l-61 -289h321l61 289h121l-151 -714h-121zM682 916l-146 -140h-114l-90 140h101l55 -75l93 75h101z" />
    <glyph glyph-name="uni021F" unicode="&#x21f;" horiz-adv-x="581" 
d="M373 440q-50 0 -100 -38q-22 -17 -40 -40.5t-23 -51.5l-65 -310h-114l151 714h114l-57 -265q42 48 86 67.5t89 19.5q73 0 111.5 -39.5t38.5 -109.5q0 -32 -7 -61l-69 -326h-114l67 314q2 13 3.5 24t1.5 22q0 38 -18 59t-55 21zM545 916l-146 -140h-114l-90 140h101
l55 -75l93 75h101z" />
    <glyph glyph-name="uni0237" unicode="&#x237;" horiz-adv-x="246" 
d="M143 520h114l-116 -541q-9 -42 -22.5 -73t-33.5 -51.5t-49 -30.5t-69 -10q-33 0 -59.5 6t-48.5 15l34 86q12 -5 27.5 -9t35.5 -4q31 0 47.5 17.5t25.5 59.5z" />
    <glyph glyph-name="uni0259" unicode="&#x259;" horiz-adv-x="583" 
d="M88 385q35 81 95 118.5t160 37.5q54 0 95 -17t68.5 -48t42 -74t14.5 -94q0 -73 -21 -133t-58.5 -102.5t-90 -65.5t-114.5 -23q-109 0 -164.5 56t-55.5 155q0 17 3.5 44.5t8.5 51.5h378q1 7 1.5 15t0.5 15q0 58 -30.5 94t-87.5 36t-89.5 -21.5t-54.5 -68.5zM170 212
q-2 -8 -2 -15.5v-14.5q0 -49 26 -80.5t85 -31.5q71 0 110 39t51 103h-270z" />
    <glyph glyph-name="uni027C" unicode="&#x27c;" horiz-adv-x="401" 
d="M420 420q-22 5 -49 5q-51 0 -91 -30q-29 -24 -43.5 -46t-19.5 -47l-113 -537h-114l159 755h111l-16 -77q38 45 75 65t83 20q30 0 48 -5z" />
    <glyph glyph-name="uni0292" unicode="&#x292;" horiz-adv-x="508" 
d="M137 148l13 77l224 204h-276l18 91h419l-13 -70l-246 -221q93 -10 142.5 -57.5t49.5 -129.5q0 -121 -64.5 -183.5t-189.5 -62.5q-108 0 -167 47.5t-63 138.5h108q8 -51 37.5 -73.5t89.5 -22.5q66 0 100 37t34 108q0 56 -35 86.5t-99 30.5h-82z" />
    <glyph glyph-name="uni02BB" unicode="&#x2bb;" horiz-adv-x="581" 
d="M388 714l-81 -235h-115l107 235h89z" />
    <glyph glyph-name="afii57929" unicode="&#x2bc;" horiz-adv-x="581" 
d="M192 482l80 232h116l-107 -232h-89z" />
    <glyph glyph-name="afii64937" unicode="&#x2bd;" horiz-adv-x="581" 
d="M264 480l-31 234h114l1 -234h-84z" />
    <glyph glyph-name="circumflex" unicode="&#x2c6;" horiz-adv-x="581" 
d="M116 593l147 148h114l88 -148h-99l-55 85l-94 -85h-101z" />
    <glyph glyph-name="caron" unicode="&#x2c7;" horiz-adv-x="581" 
d="M465 741l-147 -148h-114l-88 148h99l55 -85l94 85h101z" />
    <glyph glyph-name="uni02C9" unicode="&#x2c9;" horiz-adv-x="581" 
d="M162 706h276l-18 -89h-277z" />
    <glyph glyph-name="uni02D6" unicode="&#x2d6;" horiz-adv-x="581" 
d="M319 246l-18 -83h-72l18 83h-76l14 69h76l18 82h71l-18 -82h77l-13 -69h-77z" />
    <glyph glyph-name="breve" unicode="&#x2d8;" horiz-adv-x="581" 
d="M272 590q-57 0 -93 29.5t-36 80.5q0 9 0.5 18t2.5 20h82q-2 -7 -2 -13v-11q0 -26 14.5 -38.5t38.5 -12.5q29 0 49 16t27 59h83q-12 -78 -53 -113t-113 -35z" />
    <glyph glyph-name="dotaccent" unicode="&#x2d9;" horiz-adv-x="581" 
d="M223 611l24 114h111l-24 -114h-111z" />
    <glyph glyph-name="ring" unicode="&#x2da;" horiz-adv-x="581" 
d="M181 695q0 27 9 47t24 33.5t34.5 20t41.5 6.5q21 0 41 -6.5t35 -20t24 -33.5t9 -47t-9 -47t-24 -33t-35 -19.5t-41 -6.5q-22 0 -41.5 6.5t-34.5 19.5t-24 33t-9 47zM244 695q0 -25 12.5 -37t33.5 -12t33.5 12t12.5 37q0 26 -12.5 37.5t-33.5 11.5t-33.5 -11.5
t-12.5 -37.5z" />
    <glyph glyph-name="ogonek" unicode="&#x2db;" horiz-adv-x="581" 
d="M344 -185q-18 -3 -42 -3q-19 0 -37.5 3.5t-32.5 12t-23 22.5t-9 34q0 68 88 116h93q-38 -22 -62.5 -43t-24.5 -44q0 -16 11 -22t28 -6h12.5t13.5 1z" />
    <glyph glyph-name="tilde" unicode="&#x2dc;" horiz-adv-x="581" 
d="M348 685q23 0 34.5 9.5t15.5 35.5h79q-7 -69 -36 -99t-81 -30q-21 0 -38.5 7.5t-32.5 16.5t-28.5 16.5t-26.5 7.5q-23 0 -35 -10t-16 -36h-79q7 69 36 99.5t81 30.5q21 0 38.5 -7.5t32.5 -16.5t28.5 -16.5t27.5 -7.5z" />
    <glyph glyph-name="hungarumlaut" unicode="&#x2dd;" horiz-adv-x="581" 
d="M65 593l141 148h124l-166 -148h-99zM252 593l141 148h123l-166 -148h-98z" />
    <glyph glyph-name="uni02DF" unicode="&#x2df;" horiz-adv-x="581" 
d="M357 424l-77 95l-115 -99l-53 65l117 98l-79 97l73 56l77 -95l115 98l53 -64l-117 -98l79 -97z" />
    <glyph glyph-name="uni02EE" unicode="&#x2ee;" horiz-adv-x="581" 
d="M104 479l81 235h115l-107 -235h-89zM280 479l81 235h115l-107 -235h-89z" />
    <glyph glyph-name="gravecomb" unicode="&#x300;" horiz-adv-x="0" 
d="M103 593l-113 148h126l88 -148h-101z" />
    <glyph glyph-name="acutecomb" unicode="&#x301;" horiz-adv-x="0" 
d="M-43 593l146 148h138l-171 -148h-113z" />
    <glyph glyph-name="tildecomb" unicode="&#x303;" horiz-adv-x="0" 
d="M149 685q23 0 34.5 9.5t15.5 35.5h79q-7 -69 -36 -99t-81 -30q-21 0 -38.5 7.5t-32.5 16.5t-28.5 16.5t-26.5 7.5q-23 0 -35 -10t-16 -36h-79q7 69 36 99.5t81 30.5q21 0 38.5 -7.5t32.5 -16.5t28.5 -16.5t27.5 -7.5z" />
    <glyph glyph-name="hookabovecomb" unicode="&#x309;" horiz-adv-x="0" 
d="M26 588l15 71q41 0 59 8.5t18 26.5q0 27 -42 27q-24 0 -46 -3l12 59q17 3 44 3q114 0 114 -79q0 -37 -22.5 -57t-77.5 -27l-6 -29h-68z" />
    <glyph glyph-name="dotbelowcomb" unicode="&#x323;" horiz-adv-x="0" 
d="M-148 -184l24 115h110l-24 -115h-110z" />
    <glyph glyph-name="uni0326" unicode="&#x326;" horiz-adv-x="0" 
d="M-177 -217l106 150h124l-130 -150h-100z" />
    <glyph glyph-name="uni0374" unicode="&#x374;" horiz-adv-x="581" 
d="M286 754h119l-133 -161h-96z" />
    <glyph glyph-name="uni0375" unicode="&#x375;" horiz-adv-x="581" 
d="M186 -210l118 131h90l-92 -131h-116z" />
    <glyph glyph-name="uni037A" unicode="&#x37a;" horiz-adv-x="581" 
d="M326 -78q-9 -38 -9 -46q0 -17 20 -17q12 0 28 5l-5 -67q-27 -10 -62 -10q-82 0 -82 64q0 16 10 61l6 28h98z" />
    <glyph glyph-name="uni037E" unicode="&#x37e;" horiz-adv-x="234" 
d="M-12 -95l81 235h115l-107 -235h-89zM104 381l29 139h121l-29 -139h-121z" />
    <glyph glyph-name="tonos" unicode="&#x384;" horiz-adv-x="581" 
d="M286 754h119l-133 -161h-96z" />
    <glyph glyph-name="dieresistonos" unicode="&#x385;" horiz-adv-x="581" 
d="M83 620l20 96h92l-19 -96h-93zM384 620l20 96h93l-20 -96h-93zM279 746h106l-92 -146h-83z" />
    <glyph glyph-name="Alphatonos" unicode="&#x386;" horiz-adv-x="829" 
d="M664 714l121 -714h-124l-28 182h-278l-105 -182h-130l424 714h120zM409 283h211l-44 294zM333 714h116l-116 -161h-93z" />
    <glyph glyph-name="anoteleia" unicode="&#x387;" horiz-adv-x="234" 
d="M104 381l29 139h121l-29 -139h-121z" />
    <glyph glyph-name="Epsilontonos" unicode="&#x388;" horiz-adv-x="804" 
d="M497 610l-40 -190h334l-22 -105h-334l-45 -211h375l-36 -104h-481l151 714h474l-21 -104h-355zM214 714h116l-116 -161h-93z" />
    <glyph glyph-name="Etatonos" unicode="&#x389;" horiz-adv-x="920" 
d="M690 0l66 313h-321l-66 -313h-121l151 714h121l-61 -289h321l61 289h121l-151 -714h-121zM214 714h116l-116 -161h-93z" />
    <glyph glyph-name="Iotatonos" unicode="&#x38a;" horiz-adv-x="476" 
d="M247 0l151 714h121l-151 -714h-121zM214 714h116l-116 -161h-93z" />
    <glyph glyph-name="Omicrontonos" unicode="&#x38c;" horiz-adv-x="929" 
d="M639 732q66 0 119 -21.5t89.5 -60.5t56.5 -94t20 -122q0 -86 -25 -167.5t-74.5 -144.5t-123 -101.5t-169.5 -38.5q-66 0 -119.5 21.5t-91 60.5t-57.5 94t-20 122q0 85 26 166.5t76.5 145t124 102t168.5 38.5zM630 628q-65 0 -114 -30t-81.5 -79t-49 -110t-16.5 -123
q0 -91 42.5 -145.5t127.5 -54.5q64 0 113 30t81.5 79t49 110t16.5 124q0 45 -10.5 81.5t-32 62.5t-53 40.5t-73.5 14.5zM214 714h116l-116 -161h-93z" />
    <glyph glyph-name="Upsilontonos" unicode="&#x38e;" horiz-adv-x="874" 
d="M368 714h130l108 -310l240 310h134l-332 -417l-62 -297h-121l63 297zM214 714h116l-116 -161h-93z" />
    <glyph glyph-name="Omegatonos" unicode="&#x38f;" horiz-adv-x="888" 
d="M577 94q46 30 81.5 70t59.5 87.5t36.5 100t12.5 108.5q0 78 -38 125t-110 47q-70 0 -118.5 -30t-78.5 -77.5t-43.5 -107.5t-13.5 -120q0 -28 6 -57t17 -55.5t25.5 -50t32.5 -40.5l-20 -94h-263l20 99h141q-32 38 -54.5 92t-22.5 113q0 84 25 161.5t73.5 136.5t120 94.5
t164.5 35.5q58 0 106 -19t82 -54t52.5 -84t18.5 -109q0 -69 -14.5 -124t-39.5 -99.5t-58 -79.5t-69 -64h146l-33 -99h-264zM214 714h116l-116 -161h-93z" />
    <glyph glyph-name="iotadieresistonos" unicode="&#x390;" horiz-adv-x="301" 
d="M145 521h112l-75 -353q-3 -13 -5 -24.5t-2 -18.5q0 -19 9 -31.5t37 -12.5q12 0 25.5 2t24.5 5l9 -84q-16 -6 -41.5 -10.5t-57.5 -4.5q-68 0 -94.5 32.5t-26.5 82.5q0 26 6.5 53t12.5 58zM15 620l20 96h92l-19 -96h-93zM316 620l20 96h93l-20 -96h-93zM211 746h106
l-92 -146h-83z" />
    <glyph glyph-name="Alpha" unicode="&#x391;" horiz-adv-x="686" 
d="M521 714l121 -714h-124l-28 182h-278l-105 -182h-130l424 714h120zM266 283h211l-44 294z" />
    <glyph glyph-name="Beta" unicode="&#x392;" horiz-adv-x="640" 
d="M662 552q0 -74 -36.5 -116t-102.5 -65q48 -23 71 -59.5t23 -82.5q0 -52 -18 -94t-55.5 -72t-95.5 -46.5t-137 -16.5h-268l151 714h238q65 0 109 -13.5t71 -36t38.5 -52t11.5 -60.5zM390 421q29 0 56.5 5t48.5 18t33.5 35t12.5 56q0 37 -27 60t-98 23h-126l-41 -197h141z
M179 97h141q95 0 136 33t41 98q0 45 -30 69.5t-97 24.5h-142z" />
    <glyph glyph-name="Gamma" unicode="&#x393;" horiz-adv-x="534" 
d="M193 714h443l-23 -105h-322l-128 -609h-120z" />
    <glyph glyph-name="uni0394" unicode="&#x394;" horiz-adv-x="672" 
d="M395 714h117l115 -714h-650zM156 104h339l-66 477z" />
    <glyph glyph-name="Epsilon" unicode="&#x395;" horiz-adv-x="599" 
d="M292 610l-40 -190h334l-22 -105h-334l-45 -211h375l-36 -104h-481l151 714h474l-21 -104h-355z" />
    <glyph glyph-name="Zeta" unicode="&#x396;" horiz-adv-x="586" 
d="M523 0h-528l18 90l486 520h-370l22 104h520l-19 -91l-484 -518h391z" />
    <glyph glyph-name="Eta" unicode="&#x397;" horiz-adv-x="715" 
d="M485 0l66 313h-321l-66 -313h-121l151 714h121l-61 -289h321l61 289h121l-151 -714h-121z" />
    <glyph glyph-name="Theta" unicode="&#x398;" horiz-adv-x="772" 
d="M560 315h-281l21 103h281zM482 732q66 0 119 -21.5t89.5 -60.5t56.5 -94t20 -122q0 -86 -25 -167.5t-74.5 -144.5t-123 -101.5t-169.5 -38.5q-66 0 -119.5 21.5t-91 60.5t-57.5 94t-20 122q0 85 26 166.5t76.5 145t124 102t168.5 38.5zM473 628q-65 0 -114 -30t-81.5 -79
t-49 -110t-16.5 -123q0 -91 42.5 -145.5t127.5 -54.5q64 0 113 30t81.5 79t49 110t16.5 124q0 45 -10.5 81.5t-32 62.5t-53 40.5t-73.5 14.5z" />
    <glyph glyph-name="Iota" unicode="&#x399;" horiz-adv-x="272" 
d="M43 0l151 714h121l-151 -714h-121z" />
    <glyph glyph-name="Kappa" unicode="&#x39a;" horiz-adv-x="662" 
d="M349 370l-129 -107l-56 -263h-121l151 714h121l-65 -307l359 307h139l-304 -273l179 -441h-131z" />
    <glyph glyph-name="Lambda" unicode="&#x39b;" horiz-adv-x="680" 
d="M399 714h117l120 -714h-129l-81 550l-316 -550h-133z" />
    <glyph glyph-name="Mu" unicode="&#x39c;" horiz-adv-x="853" 
d="M194 714h143l85 -568l327 568h146l-151 -714h-111l110 519l-303 -519h-95l-83 518l-110 -518h-109z" />
    <glyph glyph-name="Nu" unicode="&#x39d;" horiz-adv-x="710" 
d="M500 0l-230 518l-110 -518h-117l151 714h102l228 -520l110 520h118l-151 -714h-101z" />
    <glyph glyph-name="Xi" unicode="&#x39e;" horiz-adv-x="567" 
d="M128 423h436l-23 -110h-436zM170 714h476l-23 -110h-476zM530 110l-38 -110h-478l23 110h493z" />
    <glyph glyph-name="Omicron" unicode="&#x39f;" horiz-adv-x="772" 
d="M482 732q66 0 119 -21.5t89.5 -60.5t56.5 -94t20 -122q0 -86 -25 -167.5t-74.5 -144.5t-123 -101.5t-169.5 -38.5q-66 0 -119.5 21.5t-91 60.5t-57.5 94t-20 122q0 85 26 166.5t76.5 145t124 102t168.5 38.5zM473 628q-65 0 -114 -30t-81.5 -79t-49 -110t-16.5 -123
q0 -91 42.5 -145.5t127.5 -54.5q64 0 113 30t81.5 79t49 110t16.5 124q0 45 -10.5 81.5t-32 62.5t-53 40.5t-73.5 14.5z" />
    <glyph glyph-name="Pi" unicode="&#x3a0;" horiz-adv-x="700" 
d="M599 609h-306l-129 -609h-121l151 714h548l-151 -714h-121z" />
    <glyph glyph-name="Rho" unicode="&#x3a1;" horiz-adv-x="633" 
d="M667 524q0 -68 -22 -116.5t-63.5 -80t-100 -46.5t-131.5 -15h-132l-56 -266h-119l151 714h239q65 0 109.5 -17.5t72.5 -45t40 -61.5t12 -66zM363 367q40 0 74 7t58.5 24t38 46t13.5 73q0 20 -7 38t-23 31t-41 20.5t-62 7.5h-123l-52 -247h124z" />
    <glyph glyph-name="Sigma" unicode="&#x3a3;" horiz-adv-x="581" 
d="M161 105h396l-36 -105h-524l18 90l274 281l-161 253l18 90h514l-21 -105h-376l156 -248z" />
    <glyph glyph-name="Tau" unicode="&#x3a4;" horiz-adv-x="610" 
d="M462 609l-129 -609h-121l129 609h-226l22 105h572l-22 -105h-225z" />
    <glyph glyph-name="Upsilon" unicode="&#x3a5;" horiz-adv-x="635" 
d="M129 714h130l108 -310l240 310h134l-332 -417l-62 -297h-121l63 297z" />
    <glyph glyph-name="Phi" unicode="&#x3a6;" horiz-adv-x="844" 
d="M331 0l19 92q-57 7 -104 25.5t-81 49.5t-53 74.5t-19 99.5q0 83 31 145.5t83.5 105.5t122 66t146.5 28l17 78h117l-17 -82q57 -7 104 -26t81 -50t53 -75t19 -102q0 -80 -31 -142.5t-84 -105.5t-122.5 -67t-147.5 -27l-18 -87h-116zM730 433q0 66 -40 106t-118 50
l-85 -405q118 11 180.5 75.5t62.5 173.5zM213 342q0 -70 41 -109.5t116 -47.5l85 404q-118 -10 -180 -74t-62 -173z" />
    <glyph glyph-name="Chi" unicode="&#x3a7;" horiz-adv-x="661" 
d="M441 370l180 -370h-133l-132 284l-243 -284h-138l330 379l-162 335h132l113 -251l219 251h136z" />
    <glyph glyph-name="Psi" unicode="&#x3a8;" horiz-adv-x="833" 
d="M326 0l40 187q-54 5 -99 21.5t-78 45t-51 69.5t-18 96q0 20 2 41.5t7 45.5l44 208h119l-45 -204q-5 -21 -7.5 -40.5t-2.5 -37.5q0 -65 34.5 -102t115.5 -43l90 427h121l-91 -428q43 3 79.5 15.5t65 39t50 69t35.5 105.5l45 199h119l-45 -208q-18 -85 -50 -144t-78 -97
t-106.5 -57t-136.5 -23l-38 -185h-121z" />
    <glyph glyph-name="uni03A9" unicode="&#x3a9;" horiz-adv-x="740" 
d="M429 94q46 30 81.5 70t59.5 87.5t36.5 100t12.5 108.5q0 78 -38 125t-110 47q-70 0 -118.5 -30t-78.5 -77.5t-43.5 -107.5t-13.5 -120q0 -28 6 -57t17 -55.5t25.5 -50t32.5 -40.5l-20 -94h-263l20 99h141q-32 38 -54.5 92t-22.5 113q0 84 25 161.5t73.5 136.5t120 94.5
t164.5 35.5q58 0 106 -19t82 -54t52.5 -84t18.5 -109q0 -69 -14.5 -124t-39.5 -99.5t-58 -79.5t-69 -64h146l-33 -99h-264z" />
    <glyph glyph-name="Iotadieresis" unicode="&#x3aa;" horiz-adv-x="272" 
d="M43 0l151 714h121l-151 -714h-121zM109 786l24 116h113l-25 -116h-112zM303 786l24 116h113l-25 -116h-112z" />
    <glyph glyph-name="Upsilondieresis" unicode="&#x3ab;" horiz-adv-x="635" 
d="M129 714h130l108 -310l240 310h134l-332 -417l-62 -297h-121l63 297zM286 786l24 116h113l-25 -116h-112zM480 786l24 116h113l-25 -116h-112z" />
    <glyph glyph-name="alphatonos" unicode="&#x3ac;" horiz-adv-x="689" 
d="M544 239l16 -86q7 -34 17.5 -55t36.5 -21q11 0 22 2t17 4l13 -80q-9 -5 -31 -11.5t-48 -6.5q-85 0 -106 94l-13 64q-27 -42 -53 -72.5t-53.5 -49.5t-58 -28t-66.5 -9q-81 0 -129.5 55.5t-48.5 154.5q0 63 17 124t51 109.5t84.5 78.5t117.5 30q43 0 73.5 -12.5t52 -35.5
t35 -56.5t22.5 -76.5l86 165h112zM260 76q24 0 46 10.5t44 32t45 54.5t49 78q-6 48 -14 84t-20.5 60t-31.5 36.5t-46 12.5q-41 0 -70 -23.5t-48 -59t-28 -78.5t-9 -82q0 -63 22.5 -94t60.5 -31zM408 754h119l-133 -161h-96z" />
    <glyph glyph-name="epsilontonos" unicode="&#x3ad;" horiz-adv-x="545" 
d="M512 160q-7 -38 -23 -70t-45 -55.5t-73 -37t-107 -13.5q-57 0 -98 11.5t-68 31.5t-40 47t-13 59q0 57 31 93.5t89 51.5q-31 17 -46 43.5t-15 58.5q0 33 13.5 61.5t42 49.5t72 33t103.5 12q49 0 86 -12t62 -33t39 -49.5t18 -61.5l-100 -15q-3 16 -9 31t-18.5 26.5
t-32 18.5t-48.5 7q-24 0 -46 -3.5t-38 -12t-25.5 -22.5t-9.5 -35q0 -29 18.5 -47.5t61.5 -18.5h91l-14 -87h-96q-59 0 -87 -18t-28 -58q0 -42 33 -57.5t85 -15.5q60 0 90.5 22t39.5 65h105zM381 754h119l-133 -161h-96z" />
    <glyph glyph-name="etatonos" unicode="&#x3ae;" horiz-adv-x="582" 
d="M332 -194l108 504q3 13 4.5 26t1.5 24q0 38 -18 59t-55 21q-51 0 -100 -38q-22 -17 -39.5 -40.5t-23.5 -51.5l-65 -310h-114l110 520h111l-16 -75q42 49 87 70t91 21q73 0 111.5 -39.5t38.5 -109.5q0 -30 -7 -61l-111 -520h-114zM428 754h119l-133 -161h-96z" />
    <glyph glyph-name="iotatonos" unicode="&#x3af;" horiz-adv-x="301" 
d="M145 521h112l-75 -353q-3 -13 -5 -24.5t-2 -18.5q0 -19 9 -31.5t37 -12.5q12 0 25.5 2t24.5 5l9 -84q-16 -6 -41.5 -10.5t-57.5 -4.5q-68 0 -94.5 32.5t-26.5 82.5q0 26 6.5 53t12.5 58zM251 754h119l-133 -161h-96z" />
    <glyph glyph-name="upsilondieresistonos" unicode="&#x3b0;" horiz-adv-x="560" 
d="M130 520h113l-59 -279q-4 -18 -7 -38.5t-3 -36.5q0 -42 21.5 -64.5t69.5 -22.5q37 0 61.5 14t40 38.5t25.5 58t18 72.5l55 258h114l-64 -300q-13 -60 -32 -104.5t-48.5 -74t-72 -43.5t-101.5 -14q-103 0 -151.5 45t-48.5 126q0 20 3 45t8 48zM178 620l20 96h92l-19 -96
h-93zM479 620l20 96h93l-20 -96h-93zM374 746h106l-92 -146h-83z" />
    <glyph glyph-name="alpha" unicode="&#x3b1;" horiz-adv-x="689" 
d="M544 239l16 -86q7 -34 17.5 -55t36.5 -21q11 0 22 2t17 4l13 -80q-9 -5 -31 -11.5t-48 -6.5q-85 0 -106 94l-13 64q-27 -42 -53 -72.5t-53.5 -49.5t-58 -28t-66.5 -9q-81 0 -129.5 55.5t-48.5 154.5q0 63 17 124t51 109.5t84.5 78.5t117.5 30q43 0 73.5 -12.5t52 -35.5
t35 -56.5t22.5 -76.5l86 165h112zM260 76q24 0 46 10.5t44 32t45 54.5t49 78q-6 48 -14 84t-20.5 60t-31.5 36.5t-46 12.5q-41 0 -70 -23.5t-48 -59t-28 -78.5t-9 -82q0 -63 22.5 -94t60.5 -31z" />
    <glyph glyph-name="beta" unicode="&#x3b2;" horiz-adv-x="598" 
d="M567 225q0 -51 -16 -94t-46 -75t-73.5 -50t-98.5 -18q-56 0 -101 23t-72 68l-58 -273h-110l151 709q21 99 82.5 153t171.5 54q36 0 70.5 -10t61.5 -30.5t43.5 -51t16.5 -72.5q0 -63 -36.5 -107.5t-102.5 -64.5q50 -15 83.5 -57t33.5 -104zM456 220q0 52 -30.5 82.5
t-85.5 30.5h-47l19 88h45q24 0 45.5 9t38 26t26.5 41t10 54q0 38 -25 60t-64 22q-33 0 -56.5 -9.5t-40 -27.5t-26.5 -43.5t-17 -56.5l-56 -261q-4 -17 -4 -42q0 -40 26 -72q12 -17 37.5 -31t66.5 -14q67 0 102.5 39t35.5 105z" />
    <glyph glyph-name="gamma" unicode="&#x3b3;" horiz-adv-x="546" 
d="M141 -194l44 210l-103 504h126l59 -376l215 376h131l-314 -504l-45 -210h-113z" />
    <glyph glyph-name="delta" unicode="&#x3b4;" horiz-adv-x="581" 
d="M284 -16q-50 0 -91.5 15.5t-71.5 43t-47 65.5t-17 83q0 54 16.5 97t45 77t67.5 58.5t84 39.5q-35 26 -52 51.5t-17 63.5t17 65t45.5 44.5t65 26t75.5 8.5q87 0 137.5 -38t58.5 -116l-96 -13q-15 81 -101 81q-29 0 -47.5 -5t-29.5 -13t-15 -18.5t-4 -21.5q0 -15 7.5 -26.5
t22 -23.5t36.5 -26t51 -34q70 -48 104 -100.5t34 -127.5q0 -53 -20.5 -99.5t-57.5 -81.5t-88 -55t-112 -20zM290 76q69 0 111 44.5t42 124.5q0 33 -8.5 57.5t-23 43.5t-35 34t-44.5 29q-72 -18 -115.5 -73t-43.5 -134q0 -56 30 -91t87 -35z" />
    <glyph glyph-name="epsilon" unicode="&#x3b5;" horiz-adv-x="545" 
d="M512 160q-7 -38 -23 -70t-45 -55.5t-73 -37t-107 -13.5q-57 0 -98 11.5t-68 31.5t-40 47t-13 59q0 57 31 93.5t89 51.5q-31 17 -46 43.5t-15 58.5q0 33 13.5 61.5t42 49.5t72 33t103.5 12q49 0 86 -12t62 -33t39 -49.5t18 -61.5l-100 -15q-3 16 -9 31t-18.5 26.5
t-32 18.5t-48.5 7q-24 0 -46 -3.5t-38 -12t-25.5 -22.5t-9.5 -35q0 -29 18.5 -47.5t61.5 -18.5h91l-14 -87h-96q-59 0 -87 -18t-28 -58q0 -42 33 -57.5t85 -15.5q60 0 90.5 22t39.5 65h105z" />
    <glyph glyph-name="zeta" unicode="&#x3b6;" horiz-adv-x="488" 
d="M587 636q-40 -24 -86 -52.5t-91 -61t-86 -68.5t-72.5 -75t-50.5 -81.5t-19 -86.5q0 -50 23.5 -76t71.5 -43l70 -24q51 -17 81 -47t30 -81q0 -48 -26 -83.5t-61 -61.5l-63 57q17 14 30.5 31.5t13.5 37.5q0 18 -11.5 32.5t-47.5 26.5l-69 23q-74 25 -117 69.5t-43 120.5
q0 74 32 137t82.5 116.5t113 97t124.5 79.5h-238l20 91h406z" />
    <glyph glyph-name="eta" unicode="&#x3b7;" horiz-adv-x="582" 
d="M332 -194l108 504q3 13 4.5 26t1.5 24q0 38 -18 59t-55 21q-51 0 -100 -38q-22 -17 -39.5 -40.5t-23.5 -51.5l-65 -310h-114l110 520h111l-16 -75q42 49 87 70t91 21q73 0 111.5 -39.5t38.5 -109.5q0 -30 -7 -61l-111 -520h-114z" />
    <glyph glyph-name="theta" unicode="&#x3b8;" horiz-adv-x="597" 
d="M393 722q100 0 156.5 -63.5t56.5 -188.5q0 -51 -7 -106.5t-23 -110t-41.5 -103.5t-62 -86t-85.5 -59t-112 -22q-97 0 -154 64.5t-57 187.5q0 50 7 105t23 109t41.5 103.5t62 87t85 60t110.5 22.5zM281 75q39 0 69.5 17t54.5 48t41 74t28 95h-295q-2 -21 -3 -40t-1 -38
q0 -77 26 -116.5t80 -39.5zM387 629q-38 0 -68.5 -17.5t-54 -48t-40.5 -72t-28 -90.5h294q2 18 3 36t1 35q0 79 -24.5 118t-82.5 39z" />
    <glyph glyph-name="iota" unicode="&#x3b9;" horiz-adv-x="301" 
d="M145 521h112l-75 -353q-3 -13 -5 -24.5t-2 -18.5q0 -19 9 -31.5t37 -12.5q12 0 25.5 2t24.5 5l9 -84q-16 -6 -41.5 -10.5t-57.5 -4.5q-68 0 -94.5 32.5t-26.5 82.5q0 26 6.5 53t12.5 58z" />
    <glyph glyph-name="kappa" unicode="&#x3ba;" horiz-adv-x="552" 
d="M31 0l110 520h112l-47 -222l266 222h135l-229 -198l136 -322h-121l-103 261l-110 -87l-37 -174h-112z" />
    <glyph glyph-name="lambda" unicode="&#x3bb;" horiz-adv-x="545" 
d="M304 568q-6 33 -22.5 47.5t-45.5 14.5q-30 0 -59 -10l-14 89q20 7 46.5 11t51.5 4q67 0 100 -35t46 -105l107 -584h-128l-50 393l-229 -393h-127l331 526z" />
    <glyph glyph-name="uni03BC" unicode="&#x3bc;" horiz-adv-x="574" 
d="M380 75q-32 -42 -67.5 -65t-84.5 -23q-30 0 -49.5 8.5t-33.5 26.5l-47 -216h-113l151 714h114l-68 -319q-5 -25 -5 -42q0 -36 16.5 -57.5t54.5 -21.5q28 0 49 9t44 28q21 16 40 41t25 55l65 307h114l-109 -520h-112z" />
    <glyph glyph-name="nu" unicode="&#x3bd;" horiz-adv-x="544" 
d="M178 0l-96 520h127l53 -392l220 392h129l-316 -520h-117z" />
    <glyph glyph-name="xi" unicode="&#x3be;" horiz-adv-x="520" 
d="M368 69q50 -17 78 -47.5t28 -81.5q0 -48 -26 -83.5t-61 -61.5l-63 57q17 14 30.5 31.5t13.5 37.5q0 19 -13 34.5t-50 27.5l-93 31q-71 23 -112 67t-41 115q0 85 44.5 134t121.5 68q-36 18 -59 50t-23 86q0 46 17.5 82.5t49 62t75 39.5t95.5 14t90.5 -11.5t64.5 -32.5
t40 -51t18 -67l-101 -14q-9 44 -34.5 66t-79.5 22q-26 0 -48.5 -6.5t-39.5 -20t-27 -35.5t-10 -53q0 -21 6 -39.5t18.5 -32.5t31.5 -22t46 -8h102l-15 -90h-108q-75 0 -117.5 -30.5t-42.5 -91.5q0 -48 23 -72t74 -41z" />
    <glyph glyph-name="omicron" unicode="&#x3bf;" horiz-adv-x="603" 
d="M366 536q49 0 89.5 -17t69 -46t44 -69.5t15.5 -86.5q0 -79 -22.5 -141t-62.5 -104.5t-95 -65t-120 -22.5q-50 0 -90.5 17t-69.5 46t-44.5 69t-15.5 87q0 78 23.5 139.5t64 104.5t95.5 66t119 23zM357 444q-37 0 -69 -16.5t-55 -47.5t-36.5 -75.5t-13.5 -99.5
q0 -60 28 -94.5t80 -34.5q37 0 69 16.5t55.5 47t37 74.5t13.5 100q0 60 -28.5 95t-80.5 35z" />
    <glyph glyph-name="pi" unicode="&#x3c0;" horiz-adv-x="622" 
d="M432 428h-158l-90 -428h-114l91 428h-98l19 92h576l-19 -92h-95l-57 -270q-3 -13 -5 -24t-2 -18q0 -16 7.5 -27.5t28.5 -11.5t39 5l12 -83q-15 -5 -39.5 -9.5t-52.5 -4.5q-60 0 -84.5 28t-24.5 72q0 6 0.5 14t2 20t4 28.5t7.5 39.5z" />
    <glyph glyph-name="rho" unicode="&#x3c1;" horiz-adv-x="607" 
d="M88 272q30 140 100 202t175 62q50 0 91.5 -16t71 -46t45.5 -73t16 -96q0 -65 -19.5 -123.5t-54 -102.5t-83.5 -69.5t-107 -25.5q-54 0 -95.5 21t-67.5 69l-58 -268h-113zM302 76q37 0 68 18t53 49t34 73.5t12 90.5q0 27 -6.5 52t-20.5 44t-35 30t-50 11
q-37 0 -63.5 -14.5t-45.5 -39t-31 -57.5t-19 -70q-7 -34 -8.5 -47t-1.5 -21q0 -23 6 -41t20 -37q32 -41 88 -41z" />
    <glyph glyph-name="sigma1" unicode="&#x3c2;" horiz-adv-x="541" 
d="M357 72q50 -16 78.5 -48.5t28.5 -83.5q0 -48 -26 -83.5t-61 -61.5l-63 57q17 14 30.5 31.5t13.5 37.5q0 19 -13.5 36.5t-50.5 28.5l-80 24q-31 9 -58 26.5t-47.5 42.5t-32 58t-11.5 74q0 78 22.5 139t61.5 102t91 62.5t110 21.5q50 0 87 -13.5t61.5 -37.5t38.5 -57
t17 -73l-113 -16q-5 51 -27 78t-75 27q-32 0 -60 -15.5t-49.5 -44.5t-34 -70t-12.5 -93q0 -53 24.5 -81t69.5 -42z" />
    <glyph glyph-name="sigma" unicode="&#x3c3;" horiz-adv-x="607" 
d="M284 -16q-47 0 -87.5 15t-70 43.5t-46 68.5t-16.5 90q0 85 27 145.5t71.5 99t103 56.5t121.5 18h258l-19 -92h-127q29 -29 47 -71t18 -92q0 -67 -21.5 -119.5t-59.5 -88.5t-89 -54.5t-110 -18.5zM295 76q70 0 112.5 54t42.5 148q0 36 -10 77.5t-36 71.5h-23
q-42 0 -78.5 -13t-63.5 -39.5t-42.5 -66t-15.5 -93.5q0 -65 28.5 -102t85.5 -37z" />
    <glyph glyph-name="tau" unicode="&#x3c4;" horiz-adv-x="509" 
d="M331 428l-54 -252q-5 -20 -5 -35q0 -30 16 -46t55 -16q27 0 46 4t35 8l11 -85q-15 -5 -50.5 -12t-76.5 -7q-43 0 -72 11t-46 29t-24.5 41t-7.5 47q0 7 0.5 16t2.5 21.5t5.5 30t8.5 41.5l43 204h-156l19 92h463l-19 -92h-194z" />
    <glyph glyph-name="upsilon" unicode="&#x3c5;" horiz-adv-x="560" 
d="M130 520h113l-59 -279q-4 -18 -7 -38.5t-3 -36.5q0 -42 21.5 -64.5t69.5 -22.5q37 0 61.5 14t40 38.5t25.5 58t18 72.5l55 258h114l-64 -300q-13 -60 -32 -104.5t-48.5 -74t-72 -43.5t-101.5 -14q-103 0 -151.5 45t-48.5 126q0 20 3 45t8 48z" />
    <glyph glyph-name="phi" unicode="&#x3c6;" horiz-adv-x="777" 
d="M263 -194l38 184q-54 6 -97.5 25.5t-74.5 49.5t-48 70.5t-17 88.5q0 72 26.5 129.5t76.5 98t121 62.5t161 22q55 0 110 -13.5t99 -43.5t71.5 -77t27.5 -113q0 -69 -24.5 -124.5t-69.5 -94.5t-108.5 -61t-142.5 -24l-38 -179h-111zM179 232q0 -66 36.5 -108.5t104.5 -46.5
l78 370q-56 -2 -97 -19.5t-68 -46.5t-40.5 -67t-13.5 -82zM430 74q96 6 154 60t58 157q0 63 -36 104.5t-97 48.5z" />
    <glyph glyph-name="chi" unicode="&#x3c7;" horiz-adv-x="550" 
d="M486 520h127l-270 -340l65 -215q13 -42 26.5 -59.5t39.5 -17.5q21 0 47 9l16 -84q-16 -8 -41 -13t-51 -5q-29 0 -50.5 8.5t-36.5 24t-26 37.5t-19 49l-52 177l-213 -285h-126l301 390l-50 172q-11 38 -25 56t-41 18q-21 0 -46 -9l-14 85q17 7 40.5 12t50.5 5q30 0 51 -8
t36 -23t24.5 -36.5t17.5 -48.5l38 -140z" />
    <glyph glyph-name="psi" unicode="&#x3c8;" horiz-adv-x="788" 
d="M258 -194l39 184q-52 6 -94 21.5t-72 42t-46.5 65t-16.5 89.5q0 42 10 89l47 223h112l-48 -228q-9 -42 -9 -75q0 -63 32.5 -97.5t102.5 -41.5l94 442h113l-94 -441q43 4 78 16.5t62 38t46.5 66.5t32.5 101l47 219h112l-47 -220q-17 -78 -44 -134.5t-69 -94t-100 -58
t-137 -25.5l-38 -182h-113z" />
    <glyph glyph-name="omega" unicode="&#x3c9;" horiz-adv-x="807" 
d="M396 90q-14 -24 -29.5 -43.5t-36 -33.5t-47.5 -21.5t-63 -7.5q-81 0 -124 51t-43 137q0 52 13.5 102.5t37 96.5t55 87.5t67.5 76.5l86 -47q-63 -69 -103 -148t-40 -162q0 -42 17 -72t57 -30q30 0 50 13t32.5 34t20 48t13.5 55l30 140h113l-29 -135q-4 -19 -5.5 -37.5
t-1.5 -34.5q0 -37 20 -60t52 -23q37 0 61.5 23t39.5 58.5t21 79t6 84.5q0 57 -12 99t-26 70l95 44q9 -17 19.5 -40t19 -51t14 -59.5t5.5 -65.5q0 -63 -12 -123t-39.5 -107t-73 -75.5t-112.5 -28.5q-65 0 -99 29t-49 77z" />
    <glyph glyph-name="iotadieresis" unicode="&#x3ca;" horiz-adv-x="301" 
d="M145 521h112l-75 -353q-3 -13 -5 -24.5t-2 -18.5q0 -19 9 -31.5t37 -12.5q12 0 25.5 2t24.5 5l9 -84q-16 -6 -41.5 -10.5t-57.5 -4.5q-68 0 -94.5 32.5t-26.5 82.5q0 26 6.5 53t12.5 58zM84 612l23 112h109l-23 -112h-109zM272 612l24 112h109l-23 -112h-110z" />
    <glyph glyph-name="upsilondieresis" unicode="&#x3cb;" horiz-adv-x="560" 
d="M130 520h113l-59 -279q-4 -18 -7 -38.5t-3 -36.5q0 -42 21.5 -64.5t69.5 -22.5q37 0 61.5 14t40 38.5t25.5 58t18 72.5l55 258h114l-64 -300q-13 -60 -32 -104.5t-48.5 -74t-72 -43.5t-101.5 -14q-103 0 -151.5 45t-48.5 126q0 20 3 45t8 48zM224 612l23 112h109
l-23 -112h-109zM412 612l24 112h109l-23 -112h-110z" />
    <glyph glyph-name="omicrontonos" unicode="&#x3cc;" horiz-adv-x="603" 
d="M366 536q49 0 89.5 -17t69 -46t44 -69.5t15.5 -86.5q0 -79 -22.5 -141t-62.5 -104.5t-95 -65t-120 -22.5q-50 0 -90.5 17t-69.5 46t-44.5 69t-15.5 87q0 78 23.5 139.5t64 104.5t95.5 66t119 23zM357 444q-37 0 -69 -16.5t-55 -47.5t-36.5 -75.5t-13.5 -99.5
q0 -60 28 -94.5t80 -34.5q37 0 69 16.5t55.5 47t37 74.5t13.5 100q0 60 -28.5 95t-80.5 35zM420 754h119l-133 -161h-96z" />
    <glyph glyph-name="upsilontonos" unicode="&#x3cd;" horiz-adv-x="560" 
d="M130 520h113l-59 -279q-4 -18 -7 -38.5t-3 -36.5q0 -42 21.5 -64.5t69.5 -22.5q37 0 61.5 14t40 38.5t25.5 58t18 72.5l55 258h114l-64 -300q-13 -60 -32 -104.5t-48.5 -74t-72 -43.5t-101.5 -14q-103 0 -151.5 45t-48.5 126q0 20 3 45t8 48zM408 754h119l-133 -161h-96z
" />
    <glyph glyph-name="omegatonos" unicode="&#x3ce;" horiz-adv-x="807" 
d="M396 90q-14 -24 -29.5 -43.5t-36 -33.5t-47.5 -21.5t-63 -7.5q-81 0 -124 51t-43 137q0 52 13.5 102.5t37 96.5t55 87.5t67.5 76.5l86 -47q-63 -69 -103 -148t-40 -162q0 -42 17 -72t57 -30q30 0 50 13t32.5 34t20 48t13.5 55l30 140h113l-29 -135q-4 -19 -5.5 -37.5
t-1.5 -34.5q0 -37 20 -60t52 -23q37 0 61.5 23t39.5 58.5t21 79t6 84.5q0 57 -12 99t-26 70l95 44q9 -17 19.5 -40t19 -51t14 -59.5t5.5 -65.5q0 -63 -12 -123t-39.5 -107t-73 -75.5t-112.5 -28.5q-65 0 -99 29t-49 77zM518 754h119l-133 -161h-96z" />
    <glyph glyph-name="theta1" unicode="&#x3d1;" horiz-adv-x="616" 
d="M292 -17q-85 0 -134.5 45t-49.5 123q1 19 4.5 39.5t3.5 38.5q0 37 -38 37q-18 0 -35 -6l-12 83q39 14 80 14q53 0 81.5 -25t28.5 -72q0 -8 -0.5 -15.5t-2.5 -15.5l-5 -30q-3 -19 -3 -35q0 -43 22.5 -65.5t66.5 -22.5q62 0 99.5 66t67.5 226h-52q-115 0 -175.5 43
t-60.5 125q0 54 25 96t71 66t106 24q92 0 144.5 -52.5t60.5 -152.5q1 -10 1.5 -21t0.5 -22v-16h79l-19 -90h-69q-30 -196 -100 -290.5t-186 -94.5zM284 540q0 -42 34 -62t108 -20h53q1 9 1 18.5v18.5q0 135 -101 135q-44 0 -69.5 -24t-25.5 -66z" />
    <glyph glyph-name="Upsilon1" unicode="&#x3d2;" horiz-adv-x="689" 
d="M226 0l62 297l-159 417h130l107 -310l144 201q48 68 86 93.5t94 25.5q67 0 111 -46l-62 -86q-15 13 -27 18t-28 5q-24 0 -42 -13.5t-47 -52.5l-186 -253l-62 -296h-121z" />
    <glyph glyph-name="phi1" unicode="&#x3d5;" horiz-adv-x="765" 
d="M177 234q0 -63 32 -102.5t94 -52.5q13 61 26 121l26 120q25 113 75.5 164.5t136.5 51.5q85 0 134.5 -55t49.5 -148q0 -98 -43 -174.5t-124.5 -122.5t-188.5 -52l-38 -178h-112l40 185q-105 18 -164.5 83t-59.5 163q0 183 180 304l65 -76q-129 -96 -129 -231zM563 443
q-34 0 -57.5 -25t-34.5 -74l-57 -269q69 9 120 43.5t78 91t27 134.5q0 48 -19.5 73.5t-56.5 25.5z" />
    <glyph glyph-name="omega1" unicode="&#x3d6;" horiz-adv-x="800" 
d="M726 427q21 -34 32.5 -76.5t11.5 -85.5q0 -79 -26 -144.5t-75.5 -101t-121.5 -35.5q-58 0 -95.5 27t-52.5 78q-55 -105 -178 -105q-74 0 -115.5 45.5t-41.5 126.5q0 72 31.5 141t92.5 130h-131l20 93h785l-20 -93h-116zM655 279q0 84 -30 148h-329q-114 -128 -114 -263
q0 -88 72 -88q41 0 67.5 30.5t40.5 92.5l28 130h104l-25 -122q-6 -31 -6 -52q0 -37 20 -58t55 -21q34 0 60 25t41.5 73.5t15.5 104.5z" />
    <glyph glyph-name="uni03D7" unicode="&#x3d7;" horiz-adv-x="601" 
d="M29 0l110 520h112l-47 -222l266 222h135l-228 -197l82 -222q6 -18 18 -26t34 -8q17 0 38 3l-19 -91q-19 -89 -59 -127t-113 -38q-55 0 -106 21l33 85q33 -13 69 -13q21 0 34.5 7t22.5 23t20 53q-27 5 -43 20.5t-28 47.5l-73 202l-109 -86l-37 -174h-112z" />
    <glyph glyph-name="uni03DA" unicode="&#x3da;" horiz-adv-x="693" 
d="M112 408q0 87 41.5 161.5t117 118.5t174.5 44q124 0 198 -63t88 -180l-120 -17q-21 156 -168 156q-57 0 -103 -26.5t-73.5 -76.5t-27.5 -113q0 -86 49 -131t141 -45h65l-18 -87l-94 -149h-127l90 145q-108 15 -170.5 85t-62.5 178z" />
    <glyph glyph-name="uni03DB" unicode="&#x3db;" horiz-adv-x="514" 
d="M354 436q-81 0 -126 -58t-45 -161q0 -48 19 -75.5t64 -43.5l62 -22q56 -20 81 -52.5t25 -83.5q0 -83 -88 -145l-62 58q44 36 44 72q0 22 -14 36.5t-44 24.5l-65 22q-69 24 -104.5 75t-35.5 127q0 95 34.5 168.5t99 115.5t151.5 42h50q38 0 60 14t41 49l82 -44
q-29 -68 -68.5 -93.5t-111.5 -25.5h-49z" />
    <glyph glyph-name="uni03DC" unicode="&#x3dc;" horiz-adv-x="574" 
d="M292 610l-43 -202h316l-23 -105h-315l-64 -303h-120l151 714h456l-22 -104h-336z" />
    <glyph glyph-name="uni03DD" unicode="&#x3dd;" horiz-adv-x="422" 
d="M92 311q24 110 88.5 167.5t163.5 57.5q38 0 76 -9.5t69 -25.5l-33 -87q-55 26 -106 26q-117 0 -145 -134l-17 -79h215l-19 -90h-215l-70 -331h-114z" />
    <glyph glyph-name="uni03DE" unicode="&#x3de;" horiz-adv-x="588" 
d="M252 714h127l-155 -302h395l-200 -412h-127l148 307h-397z" />
    <glyph glyph-name="uni03DF" unicode="&#x3df;" horiz-adv-x="529" 
d="M297 714h119l-208 -403h326l-248 -505h-119l201 408h-327z" />
    <glyph glyph-name="uni03E0" unicode="&#x3e0;" horiz-adv-x="655" 
d="M523 422q0 58 -19 99l-324 -194l-45 77l314 187q-50 38 -119 38q-82 0 -171 -46l-38 96q49 25 104 38.5t107 13.5q90 0 158.5 -37.5t107.5 -107.5t39 -164q0 -104 -47.5 -212.5t-137.5 -209.5h-138q78 87 124.5 161.5t67.5 146.5l-242 -144l-45 77z" />
    <glyph glyph-name="uni03E1" unicode="&#x3e1;" horiz-adv-x="576" 
d="M463 400q0 15 -2 39l-301 -127l-37 88l315 134q-22 48 -63.5 72.5t-98.5 24.5q-64 0 -134 -25l-24 94q35 12 78 19.5t79 7.5q139 0 218 -84t79 -231q0 -126 -65 -287.5t-176 -319.5h-120q146 213 207 380l-194 -81l-38 88l267 112q10 53 10 96z" />
    <glyph glyph-name="uni0400" unicode="&#x400;" horiz-adv-x="599" 
d="M292 610l-40 -190h334l-22 -105h-334l-45 -211h375l-36 -104h-481l151 714h474l-21 -104h-355zM429 773l-120 139h130l95 -139h-105z" />
    <glyph glyph-name="afii10023" unicode="&#x401;" horiz-adv-x="599" 
d="M292 610l-40 -190h334l-22 -105h-334l-45 -211h375l-36 -104h-481l151 714h474l-21 -104h-355zM289 786l24 116h113l-25 -116h-112zM483 786l24 116h113l-25 -116h-112z" />
    <glyph glyph-name="afii10051" unicode="&#x402;" horiz-adv-x="803" 
d="M390 419q33 10 77 17t86 7q49 0 91.5 -12t73.5 -36.5t48.5 -62t17.5 -87.5q0 -116 -80.5 -180.5t-246.5 -64.5h-52l21 102h27q97 0 150 36t53 108q0 51 -38 74t-100 23q-50 0 -85.5 -7.5t-63.5 -17.5l-70 -318h-121l132 609h-200l22 105h572l-22 -105h-251z" />
    <glyph glyph-name="afii10052" unicode="&#x403;" horiz-adv-x="534" 
d="M193 714h443l-23 -105h-322l-128 -609h-120zM315 773l150 139h140l-177 -139h-113z" />
    <glyph glyph-name="afii10053" unicode="&#x404;" horiz-adv-x="722" 
d="M523 315h-304q-1 -8 -1 -13v-8q0 -41 9.5 -79t30 -66.5t53 -45.5t77.5 -17q75 0 118 33.5t63 96.5h125q-31 -118 -107 -176t-210 -58q-67 0 -120 22.5t-90 63.5t-56.5 98.5t-19.5 128.5q0 84 25 163t73.5 140t119 97.5t161.5 36.5q115 0 182 -53.5t83 -156.5l-121 -18
q-12 63 -47.5 93.5t-101.5 30.5q-78 0 -141 -51t-92 -158h312z" />
    <glyph glyph-name="afii10054" unicode="&#x405;" horiz-adv-x="644" 
d="M607 221q0 -62 -20 -107t-57 -74t-89.5 -43.5t-117.5 -14.5q-53 0 -103.5 11t-90.5 38t-64.5 72.5t-26.5 114.5h122q6 -69 45.5 -101.5t126.5 -32.5q40 0 68.5 9.5t46.5 26t26 39t8 49.5q0 30 -20 56.5t-72 37.5l-86 18q-94 19 -138.5 66t-44.5 119q0 58 20 101t56.5 71
t89 41.5t117.5 13.5q117 0 183 -52.5t75 -154.5l-116 -16q-8 63 -42.5 93t-106.5 30q-44 0 -73.5 -9t-47 -24t-25 -34t-7.5 -38q0 -42 22.5 -65t73.5 -34l86 -19q51 -12 86 -30.5t56.5 -42.5t30.5 -53t9 -62z" />
    <glyph glyph-name="afii10055" unicode="&#x406;" horiz-adv-x="272" 
d="M43 0l151 714h121l-151 -714h-121z" />
    <glyph glyph-name="afii10056" unicode="&#x407;" horiz-adv-x="272" 
d="M43 0l151 714h121l-151 -714h-121zM110 786l24 116h113l-25 -116h-112zM304 786l24 116h113l-25 -116h-112z" />
    <glyph glyph-name="afii10057" unicode="&#x408;" horiz-adv-x="617" 
d="M564 229q-14 -65 -38 -112t-59.5 -77t-82.5 -44t-107 -14q-51 0 -94 13t-73.5 38.5t-48 64.5t-17.5 90q0 10 0.5 20.5t2.5 21.5h119q-1 -7 -1 -12.5v-11.5q0 -26 5.5 -47.5t19 -38t37 -25.5t58.5 -9q37 0 64 11.5t45.5 33t31 52t21.5 69.5l98 462h121z" />
    <glyph glyph-name="afii10058" unicode="&#x409;" horiz-adv-x="1070" 
d="M360 334q-29 -94 -62 -159t-72.5 -105.5t-89 -58.5t-111.5 -18h-32l21 104h15q34 0 63.5 12.5t57 45.5t54 89.5t53.5 143.5l101 326h403l-54 -256h95q114 0 180 -49.5t66 -151.5q0 -133 -80 -195t-242 -62h-237l129 612h-172zM685 357l-54 -257h119q89 0 133.5 35.5
t44.5 116.5q0 105 -135 105h-108z" />
    <glyph glyph-name="afii10059" unicode="&#x40a;" horiz-adv-x="1040" 
d="M530 331h-296l-70 -331h-121l151 714h121l-59 -278h297l59 278h121l-58 -278h93q57 0 103 -13t78.5 -37.5t50 -60.5t17.5 -82q0 -126 -78 -184.5t-234 -58.5h-244zM652 332l-49 -232h117q89 0 133 32t44 107q0 42 -32.5 67.5t-100.5 25.5h-112z" />
    <glyph glyph-name="afii10060" unicode="&#x40b;" horiz-adv-x="764" 
d="M575 0l35 167q8 35 8 66q0 53 -33.5 77.5t-88.5 24.5q-35 0 -72.5 -7.5t-66.5 -19.5l-66 -308h-121l130 609h-195l22 105h567l-22 -105h-252l-44 -208q37 14 79 22t85 8t80 -11.5t64 -34t42.5 -57.5t15.5 -81q0 -14 -2 -29t-5 -31l-40 -187h-120z" />
    <glyph glyph-name="afii10061" unicode="&#x40c;" horiz-adv-x="661" 
d="M252 415h32q49 0 85 30.5t71 77.5l51 69q23 30 44.5 53t44.5 38.5t48.5 23t57.5 7.5q20 0 37.5 -2.5t28.5 -6.5l-29 -98q-18 5 -38 5q-33 0 -54.5 -18.5t-47.5 -53.5l-58 -79q-23 -31 -50 -54t-65 -37q34 -14 52.5 -42t40.5 -75l117 -253h-128l-106 235q-19 42 -42.5 61
t-65.5 19h-47l-67 -315h-121l151 714h121zM389 773l150 139h140l-177 -139h-113z" />
    <glyph glyph-name="uni040D" unicode="&#x40d;" horiz-adv-x="701" 
d="M472 0l110 512l-428 -512h-111l150 714h120l-110 -514l427 514h113l-152 -714h-119zM445 773l-120 139h130l95 -139h-105z" />
    <glyph glyph-name="afii10062" unicode="&#x40e;" horiz-adv-x="604" 
d="M48 94q15 -6 36.5 -11t43.5 -5q38 0 66 18t56 63l29 46l-152 509h124l105 -399l242 399h126l-346 -549q-31 -49 -58.5 -84t-56 -57t-61 -32t-72.5 -10q-36 0 -68.5 6.5t-48.5 14.5zM367 921q-1 -6 -1 -9.5v-8.5q0 -11 3.5 -21.5t12 -18.5t23.5 -13t38 -5q39 0 64.5 17.5
t36.5 58.5h83q-14 -67 -60 -107.5t-132 -40.5q-33 0 -61 7t-48.5 21.5t-32 37t-11.5 53.5q0 10 1 17t2 12h82z" />
    <glyph glyph-name="afii10145" unicode="&#x40f;" horiz-adv-x="698" 
d="M186 105h304l129 609h121l-151 -714h-217l-37 -173h-107l37 173h-222l151 714h121z" />
    <glyph glyph-name="afii10017" unicode="&#x410;" horiz-adv-x="686" 
d="M521 714l121 -714h-124l-28 182h-278l-105 -182h-130l424 714h120zM266 283h211l-44 294z" />
    <glyph glyph-name="afii10018" unicode="&#x411;" horiz-adv-x="632" 
d="M194 714h430l-22 -105h-309l-34 -162h106q114 0 180 -48.5t66 -145.5q0 -129 -80.5 -191t-238.5 -62h-249zM237 347l-52 -247h127q89 0 134 35t45 113q0 46 -32.5 72.5t-101.5 26.5h-120z" />
    <glyph glyph-name="afii10019" unicode="&#x412;" horiz-adv-x="640" 
d="M662 552q0 -74 -36.5 -116t-102.5 -65q48 -23 71 -59.5t23 -82.5q0 -52 -18 -94t-55.5 -72t-95.5 -46.5t-137 -16.5h-268l151 714h238q65 0 109 -13.5t71 -36t38.5 -52t11.5 -60.5zM390 421q29 0 56.5 5t48.5 18t33.5 35t12.5 56q0 37 -27 60t-98 23h-126l-41 -197h141z
M179 97h141q95 0 136 33t41 98q0 45 -30 69.5t-97 24.5h-142z" />
    <glyph glyph-name="afii10020" unicode="&#x413;" horiz-adv-x="534" 
d="M193 714h443l-23 -105h-322l-128 -609h-120z" />
    <glyph glyph-name="afii10021" unicode="&#x414;" horiz-adv-x="739" 
d="M84 0l-38 -173h-107l60 278h71q38 28 70.5 72.5t61 102t54.5 128t51 150.5l49 156h413l-130 -609h73l-59 -278h-107l37 173h-499zM410 513q-22 -70 -43.5 -130.5t-45.5 -111.5t-51 -92.5t-60 -73.5h307l110 507h-186z" />
    <glyph glyph-name="afii10022" unicode="&#x415;" horiz-adv-x="599" 
d="M292 610l-40 -190h334l-22 -105h-334l-45 -211h375l-36 -104h-481l151 714h474l-21 -104h-355z" />
    <glyph glyph-name="afii10024" unicode="&#x416;" horiz-adv-x="1031" 
d="M496 315h-41q-18 0 -32.5 -4.5t-29 -15t-30 -28t-36.5 -42.5l-189 -225h-150l248 292q31 36 57 55t55 27q-27 13 -44 37.5t-28 61.5l-22 77q-10 33 -26 49.5t-51 16.5q-12 0 -22.5 -1t-15.5 -2l16 93q16 4 31 6t34 2q52 0 81 -24.5t46 -77.5l24 -77q9 -29 19.5 -51.5
t24 -38t31.5 -23.5t43 -8h28l63 300h120l-64 -300h25q21 0 40.5 6t38.5 20.5t38.5 37.5t42.5 58l50 75q39 59 82 81t99 22q17 0 34.5 -2t32.5 -7l-28 -97l-10 2t-11.5 1.5t-13.5 0.5q-17 0 -30 -3t-24.5 -11.5t-24 -23t-27.5 -38.5l-46 -71q-26 -39 -51.5 -61t-58.5 -34
q24 -11 42 -37.5t33 -61.5l120 -271h-136l-102 244q-15 36 -34.5 53.5t-61.5 17.5h-39l-67 -315h-120z" />
    <glyph glyph-name="afii10025" unicode="&#x417;" horiz-adv-x="630" 
d="M167 206q4 -37 15 -61t29 -38.5t45 -20.5t65 -6q71 0 113 32t42 109q0 99 -140 99h-78l21 98h82q37 0 68.5 7t54 22t35 39t12.5 59q0 42 -33.5 65.5t-86.5 23.5q-38 0 -66.5 -5.5t-49.5 -18t-36 -33t-26 -50.5l-110 15q15 46 39 81.5t59.5 59.5t84 36.5t112.5 12.5
q50 0 92 -12.5t72 -35.5t47 -56t17 -74q0 -38 -10.5 -67.5t-29 -51.5t-44.5 -38t-56 -26q44 -24 66.5 -62.5t22.5 -84.5q0 -58 -20 -103t-56.5 -76t-87.5 -47t-113 -16q-126 0 -192.5 55t-71.5 169h113z" />
    <glyph glyph-name="afii10026" unicode="&#x418;" horiz-adv-x="701" 
d="M472 0l110 512l-428 -512h-111l150 714h120l-110 -514l427 514h113l-152 -714h-119z" />
    <glyph glyph-name="afii10027" unicode="&#x419;" horiz-adv-x="701" 
d="M472 0l110 512l-428 -512h-111l150 714h120l-110 -514l427 514h113l-152 -714h-119zM416 921q-1 -6 -1 -9.5v-8.5q0 -11 3.5 -21.5t12 -18.5t23.5 -13t38 -5q39 0 64.5 17.5t36.5 58.5h83q-14 -67 -60 -107.5t-132 -40.5q-33 0 -61 7t-48.5 21.5t-32 37t-11.5 53.5
q0 10 1 17t2 12h82z" />
    <glyph glyph-name="afii10028" unicode="&#x41a;" horiz-adv-x="661" 
d="M252 415h32q49 0 85 30.5t71 77.5l51 69q23 30 44.5 53t44.5 38.5t48.5 23t57.5 7.5q20 0 37.5 -2.5t28.5 -6.5l-29 -98q-18 5 -38 5q-33 0 -54.5 -18.5t-47.5 -53.5l-58 -79q-23 -31 -50 -54t-65 -37q34 -14 52.5 -42t40.5 -75l117 -253h-128l-106 235q-19 42 -42.5 61
t-65.5 19h-47l-67 -315h-121l151 714h121z" />
    <glyph glyph-name="afii10029" unicode="&#x41b;" horiz-adv-x="742" 
d="M642 612h-196l-86 -278q-29 -94 -62 -159t-72.5 -105.5t-89 -58.5t-111.5 -18h-32l21 104h15q34 0 63.5 12.5t57 45.5t54 89.5t53.5 143.5l101 326h426l-151 -714h-121z" />
    <glyph glyph-name="afii10030" unicode="&#x41c;" horiz-adv-x="853" 
d="M194 714h143l85 -568l327 568h146l-151 -714h-111l110 519l-303 -519h-95l-83 518l-110 -518h-109z" />
    <glyph glyph-name="afii10031" unicode="&#x41d;" horiz-adv-x="715" 
d="M485 0l66 313h-321l-66 -313h-121l151 714h121l-61 -289h321l61 289h121l-151 -714h-121z" />
    <glyph glyph-name="afii10032" unicode="&#x41e;" horiz-adv-x="772" 
d="M482 732q66 0 119 -21.5t89.5 -60.5t56.5 -94t20 -122q0 -86 -25 -167.5t-74.5 -144.5t-123 -101.5t-169.5 -38.5q-66 0 -119.5 21.5t-91 60.5t-57.5 94t-20 122q0 85 26 166.5t76.5 145t124 102t168.5 38.5zM473 628q-65 0 -114 -30t-81.5 -79t-49 -110t-16.5 -123
q0 -91 42.5 -145.5t127.5 -54.5q64 0 113 30t81.5 79t49 110t16.5 124q0 45 -10.5 81.5t-32 62.5t-53 40.5t-73.5 14.5z" />
    <glyph glyph-name="afii10033" unicode="&#x41f;" horiz-adv-x="700" 
d="M599 609h-306l-129 -609h-121l151 714h548l-151 -714h-121z" />
    <glyph glyph-name="afii10034" unicode="&#x420;" horiz-adv-x="633" 
d="M667 524q0 -68 -22 -116.5t-63.5 -80t-100 -46.5t-131.5 -15h-132l-56 -266h-119l151 714h239q65 0 109.5 -17.5t72.5 -45t40 -61.5t12 -66zM363 367q40 0 74 7t58.5 24t38 46t13.5 73q0 20 -7 38t-23 31t-41 20.5t-62 7.5h-123l-52 -247h124z" />
    <glyph glyph-name="afii10035" unicode="&#x421;" horiz-adv-x="712" 
d="M610 473q-10 76 -44 115.5t-110 39.5q-57 0 -102 -26t-76.5 -70.5t-48.5 -103.5t-17 -125q0 -45 9.5 -84.5t30 -69t53 -46.5t78.5 -17q83 0 126.5 40.5t57.5 111.5h131q-12 -57 -36 -104.5t-62.5 -81t-94 -52t-130.5 -18.5q-72 0 -126 23.5t-90.5 65.5t-54.5 99t-18 125
q0 86 26 165t74.5 139.5t118 96.5t156.5 36q66 0 114.5 -17t81.5 -48.5t50.5 -76.5t22.5 -100z" />
    <glyph glyph-name="afii10036" unicode="&#x422;" horiz-adv-x="610" 
d="M462 609l-129 -609h-121l129 609h-226l22 105h572l-22 -105h-225z" />
    <glyph glyph-name="afii10037" unicode="&#x423;" horiz-adv-x="604" 
d="M48 94q15 -6 36.5 -11t43.5 -5q38 0 66 18t56 63l29 46l-152 509h124l105 -399l242 399h126l-346 -549q-31 -49 -58.5 -84t-56 -57t-61 -32t-72.5 -10q-36 0 -68.5 6.5t-48.5 14.5z" />
    <glyph glyph-name="afii10038" unicode="&#x424;" horiz-adv-x="844" 
d="M331 0l19 92q-57 7 -104 25.5t-81 49.5t-53 74.5t-19 99.5q0 83 31 145.5t83.5 105.5t122 66t146.5 28l17 78h117l-17 -82q57 -7 104 -26t81 -50t53 -75t19 -102q0 -80 -31 -142.5t-84 -105.5t-122.5 -67t-147.5 -27l-18 -87h-116zM730 433q0 66 -40 106t-118 50
l-85 -405q118 11 180.5 75.5t62.5 173.5zM213 342q0 -70 41 -109.5t116 -47.5l85 404q-118 -10 -180 -74t-62 -173z" />
    <glyph glyph-name="afii10039" unicode="&#x425;" horiz-adv-x="661" 
d="M441 370l180 -370h-133l-132 284l-243 -284h-138l330 379l-162 335h132l113 -251l219 251h136z" />
    <glyph glyph-name="afii10040" unicode="&#x426;" horiz-adv-x="709" 
d="M43 0l151 714h121l-129 -609h294l129 609h121l-129 -609h76l-59 -278h-107l37 173h-505z" />
    <glyph glyph-name="afii10041" unicode="&#x427;" horiz-adv-x="660" 
d="M492 302q-35 -14 -78.5 -22.5t-85.5 -8.5q-46 0 -84.5 11.5t-66 34t-42.5 56.5t-15 80q0 19 2 36.5t4 28.5l42 196h121l-37 -175q-3 -15 -5 -32t-2 -36q0 -49 27.5 -76t95.5 -27q37 0 76 8t69 19l68 319h121l-154 -714h-121z" />
    <glyph glyph-name="afii10042" unicode="&#x428;" horiz-adv-x="991" 
d="M545 105h238l129 609h121l-151 -714h-839l151 714h121l-129 -609h238l129 609h121z" />
    <glyph glyph-name="afii10043" unicode="&#x429;" horiz-adv-x="1012" 
d="M43 0l151 714h121l-129 -609h238l129 609h121l-129 -609h238l129 609h121l-129 -609h76l-59 -278h-107l37 173h-808z" />
    <glyph glyph-name="afii10044" unicode="&#x42a;" horiz-adv-x="722" 
d="M388 714l-54 -256h120q114 0 180 -49.5t66 -151.5q0 -133 -80 -195t-242 -62h-262l128 609h-150l23 105h271zM312 357l-54 -257h144q89 0 133.5 35.5t44.5 116.5q0 105 -135 105h-133z" />
    <glyph glyph-name="afii10045" unicode="&#x42b;" horiz-adv-x="895" 
d="M315 714l-54 -256h103q114 0 180 -49.5t66 -151.5q0 -133 -80 -195t-242 -62h-245l151 714h121zM239 357l-54 -257h127q89 0 133.5 35.5t44.5 116.5q0 105 -135 105h-116zM665 0l151 714h121l-151 -714h-121z" />
    <glyph glyph-name="afii10046" unicode="&#x42c;" horiz-adv-x="651" 
d="M315 714l-54 -256h122q114 0 180 -49.5t66 -151.5q0 -133 -80 -195t-242 -62h-264l151 714h121zM239 357l-54 -257h146q89 0 133.5 35.5t44.5 116.5q0 105 -135 105h-135z" />
    <glyph glyph-name="afii10047" unicode="&#x42d;" horiz-adv-x="710" 
d="M581 419v7q0 3 0.5 7t0.5 8q0 88 -45 137.5t-122 49.5q-70 0 -117.5 -30.5t-76.5 -97.5l-112 23q41 106 118.5 157.5t190.5 51.5q71 0 125 -22.5t90 -64t54 -99.5t18 -128q0 -87 -22 -166t-67 -139t-114 -95.5t-163 -35.5q-54 0 -102 14.5t-84.5 44t-60 73t-28.5 102.5
h118q14 -73 58 -101.5t109 -28.5q50 0 88 17.5t65 48t44 72.5t26 91h-315l22 104h302z" />
    <glyph glyph-name="afii10048" unicode="&#x42e;" horiz-adv-x="1055" 
d="M773 732q64 0 115 -21.5t87 -60.5t55.5 -94t19.5 -122q0 -86 -25 -167.5t-73.5 -144.5t-120 -101.5t-165.5 -38.5q-64 0 -115 21.5t-87 60.5t-55 94t-19 122v18t1 18h-160l-67 -316h-121l151 714h121l-62 -295h154q16 64 48 121t78.5 99.5t106.5 67.5t133 25zM765 628
q-62 0 -109.5 -30t-79.5 -79t-48.5 -110t-16.5 -123q0 -91 41.5 -145.5t120.5 -54.5q62 0 109.5 30t79 79t47.5 110t16 124q0 45 -10.5 81.5t-30.5 62.5t-50 40.5t-69 14.5z" />
    <glyph glyph-name="afii10049" unicode="&#x42f;" horiz-adv-x="673" 
d="M564 0h-121l60 282h-92q-29 0 -50 -6t-38 -17.5t-31 -28t-27 -36.5l-126 -194h-142l137 207q28 41 53 67t65 42q-51 23 -79.5 65t-28.5 104q0 113 79 171t233 58h259zM525 383l48 230h-131q-91 0 -133 -29.5t-42 -103.5q0 -42 30.5 -69.5t88.5 -27.5h139z" />
    <glyph glyph-name="afii10065" unicode="&#x430;" horiz-adv-x="550" 
d="M182 -13q-69 0 -110 36.5t-41 105.5q0 58 24 94.5t64 58t92 30.5t108 11l95 4l3 16q2 9 2.5 18.5t0.5 17.5q0 38 -21.5 57t-68.5 19q-53 0 -81.5 -14t-43.5 -57l-103 11q25 82 84 114.5t156 32.5q91 0 139 -40.5t49 -117.5q0 -14 -2 -30t-5 -32l-68 -322h-108l14 68
q-18 -18 -36.5 -33t-39.5 -25.5t-46.5 -16.5t-56.5 -6zM397 251l-77 -4q-50 -3 -84 -10.5t-54 -21t-28.5 -33t-8.5 -44.5q0 -26 18 -44.5t55 -18.5q62 0 109 35t60 95z" />
    <glyph glyph-name="afii10066" unicode="&#x431;" horiz-adv-x="599" 
d="M289 -17q-57 0 -99.5 17.5t-70.5 49.5t-41.5 76.5t-13.5 98.5q0 48 7 97t23 96t40.5 90t59.5 79q46 47 114.5 78t172.5 48l115 18l-6 -96l-91 -15q-44 -8 -78 -16.5t-61 -19t-47.5 -24t-38.5 -30.5q-23 -23 -41 -52.5t-31 -63.5q33 35 79 58t101 23q47 0 83 -16.5
t60.5 -44t37 -64t12.5 -76.5q0 -72 -19.5 -130t-56.5 -98t-90 -61.5t-120 -21.5zM352 403q-26 0 -53.5 -8.5t-52.5 -27.5q-34 -26 -50.5 -66.5t-16.5 -85.5q0 -30 6.5 -55.5t21 -44t36.5 -29.5t53 -11q39 0 69 17t50.5 45.5t31 65.5t10.5 77q0 57 -28 90t-77 33z" />
    <glyph glyph-name="afii10067" unicode="&#x432;" horiz-adv-x="557" 
d="M551 407q0 -52 -24 -86t-78 -51q38 -16 55.5 -46t17.5 -66q0 -73 -51.5 -115.5t-166.5 -42.5h-273l111 526h243q45 0 77 -10.5t51.5 -27.5t28.5 -38.5t9 -42.5zM339 307q19 0 37.5 3.5t32.5 12.5t23 23.5t9 36.5q0 23 -17 38.5t-60 15.5h-130l-28 -130h133zM160 89h133
q63 0 88.5 19t25.5 59q0 27 -19 44t-60 17h-138z" />
    <glyph glyph-name="afii10068" unicode="&#x433;" horiz-adv-x="436" 
d="M500 526l-20 -96h-244l-91 -430h-114l112 526h357z" />
    </font>
</defs>
</svg>
