<?xml version="1.0" standalone="no"?>
<!DOCTYPE svg PUBLIC "-//W3C//DTD SVG 1.1//EN" "http://www.w3.org/Graphics/SVG/1.1/DTD/svg11.dtd" >
<svg xmlns="http://www.w3.org/2000/svg" xmlns:xlink="http://www.w3.org/1999/xlink" version="1.1">
<metadata>
Created by FontForge 20170731 at Thu Jul  2 18:17:55 2015
 By Aleksey,,,
Copyright 2015 Dalton Maag Ltd. All rights reserved. This font may not be altered in any way without prior permission of Dalton Maag Ltd.
</metadata>
<defs>
<font id="AktivGroteskTrial-XBoldItalic" horiz-adv-x="412" >
  <font-face 
    font-family="Aktiv Grotesk Trial XBold"
    font-weight="800"
    font-style="italic"
    font-stretch="normal"
    units-per-em="1000"
    panose-1="2 11 8 4 2 2 2 9 2 4"
    ascent="714"
    descent="-286"
    x-height="525"
    cap-height="714"
    bbox="-223 -236 1422 994"
    underline-thickness="68"
    underline-position="-201"
    slope="-11.94"
    unicode-range="U+0008-FEFF"
  />
<missing-glyph horiz-adv-x="500" 
d="M50 0v750h400v-750h-400zM400 700h-300v-650h300v650z" />
    <glyph glyph-name="f_i" unicode="fi" horiz-adv-x="718" 
d="M69 0l77 364h-85l30 141h85l6 28q20 95 75 142t146 47q35 0 73 -7.5t62 -19.5l-48 -122q-25 11 -57 11q-31 0 -48 -14t-24 -47l-4 -18h114l-30 -141h-114l-77 -364h-181zM452 0l111 525h181l-111 -525h-181zM572 583l28 131h183l-28 -131h-183z" />
    <glyph glyph-name="f_l" unicode="fl" horiz-adv-x="703" 
d="M69 0l77 364h-85l30 141h85l6 28q20 95 75 142t146 47q35 0 73 -7.5t62 -19.5l-48 -122q-25 11 -57 11q-31 0 -48 -14t-24 -47l-4 -18h114l-30 -141h-114l-77 -364h-181zM437 0l151 714h181l-151 -714h-181z" />
    <glyph glyph-name="f_f" unicode="ff" horiz-adv-x="849" 
d="M69 0l77 364h-85l30 141h85l6 28q20 95 75 142t146 47q35 0 73 -7.5t62 -19.5l-48 -122q-25 11 -57 11q-31 0 -48 -14t-24 -47l-4 -18h114l-30 -141h-114l-77 -364h-181zM506 0l77 364h-85l30 141h85l6 28q20 95 75 142t146 47q35 0 73 -7.5t62 -19.5l-48 -122
q-25 11 -57 11q-31 0 -48 -14t-24 -47l-4 -18h114l-30 -141h-114l-77 -364h-181z" />
    <glyph glyph-name="f_f_i" unicode="ffi" horiz-adv-x="1155" 
d="M69 0l77 364h-85l30 141h85l6 28q20 95 75 142t146 47q35 0 73 -7.5t62 -19.5l-48 -122q-25 11 -57 11q-31 0 -48 -14t-24 -47l-4 -18h114l-30 -141h-114l-77 -364h-181zM889 0l111 525h181l-111 -525h-181zM1009 583l28 131h183l-28 -131h-183zM506 0l77 364h-85l30 141
h85l6 28q20 95 75 142t146 47q35 0 73 -7.5t62 -19.5l-48 -122q-25 11 -57 11q-31 0 -48 -14t-24 -47l-4 -18h114l-30 -141h-114l-77 -364h-181z" />
    <glyph glyph-name="f_f_l" unicode="ffl" horiz-adv-x="1140" 
d="M69 0l77 364h-85l30 141h85l6 28q20 95 75 142t146 47q35 0 73 -7.5t62 -19.5l-48 -122q-25 11 -57 11q-31 0 -48 -14t-24 -47l-4 -18h114l-30 -141h-114l-77 -364h-181zM506 0l77 364h-85l30 141h85l6 28q20 95 75 142t146 47q35 0 73 -7.5t62 -19.5l-48 -122
q-25 11 -57 11q-31 0 -48 -14t-24 -47l-4 -18h114l-30 -141h-114l-77 -364h-181zM874 0l151 714h181l-151 -714h-181z" />
    <glyph glyph-name=".notdef" horiz-adv-x="500" 
d="M50 0v750h400v-750h-400zM400 700h-300v-650h300v650z" />
    <glyph glyph-name=".null" horiz-adv-x="0" 
 />
    <glyph glyph-name=".null" horiz-adv-x="0" 
 />
    <glyph glyph-name=".null" horiz-adv-x="0" 
 />
    <glyph glyph-name="nonmarkingreturn" unicode="&#x9;" horiz-adv-x="215" 
 />
    <glyph glyph-name="nonmarkingreturn" unicode="&#xd;" horiz-adv-x="215" 
 />
    <glyph glyph-name="space" unicode=" " horiz-adv-x="215" 
 />
    <glyph glyph-name="exclam" unicode="!" horiz-adv-x="308" 
d="M91 229l85 485h197l-121 -485h-161zM43 0l35 173h169l-36 -173h-168z" />
    <glyph glyph-name="quotedbl" unicode="&#x22;" horiz-adv-x="440" 
d="M88 428l53 286h168l-69 -286h-152zM312 428l53 286h168l-69 -286h-152z" />
    <glyph glyph-name="numbersign" unicode="#" horiz-adv-x="592" 
d="M257 0l55 150h-83l-55 -150h-143l55 150h-66l27 128h86l46 125h-74l27 128h94l54 147h143l-54 -147h83l54 147h143l-54 -147h53l-27 -128h-73l-46 -125h61l-27 -128h-81l-55 -150h-143zM405 403h-83l-46 -125h83z" />
    <glyph glyph-name="dollar" unicode="$" horiz-adv-x="592" 
d="M219 -124l23 112q-95 17 -146 79.5t-51 162.5h171q4 -81 56 -105l33 159l-18 5q-86 23 -127.5 71t-41.5 123q0 67 32 117.5t92.5 78.5t143.5 28h9l21 98h60l-22 -104q89 -15 138 -70t49 -140l-169 -16q-5 66 -47 89l-31 -145l31 -8q169 -45 169 -197q0 -69 -33 -121.5
t-96 -82t-148 -29.5h-16l-22 -105h-60zM330 116q41 2 64 23.5t23 57.5q0 52 -55 71zM367 575q-36 -2 -57 -22t-21 -53q0 -47 48 -65z" />
    <glyph glyph-name="percent" unicode="%" horiz-adv-x="1000" 
d="M220 0l470 691h175l-470 -691h-175zM775 -13q-74 0 -118.5 45.5t-44.5 121.5q0 71 28 133t78.5 97t121.5 35q74 0 118.5 -45.5t44.5 -121.5q0 -71 -28 -133t-78.5 -97t-121.5 -35zM788 106q24 0 41 25t27 74q6 29 6 50t-9 33t-26 12q-47 0 -68 -99q-6 -28 -6 -50
q0 -21 9 -33t26 -12zM247 276q-74 0 -118.5 45.5t-44.5 121.5q0 71 28 133t78.5 97t121.5 35q74 0 118.5 -45.5t44.5 -121.5q0 -71 -28 -133t-78.5 -97t-121.5 -35zM260 395q24 0 41 25t27 74q6 29 6 50t-9 33t-26 12q-47 0 -68 -99q-6 -28 -6 -50q0 -21 9 -33t26 -12z" />
    <glyph glyph-name="ampersand" unicode="&#x26;" horiz-adv-x="703" 
d="M504 0l-20 26q-85 -42 -187 -42q-77 0 -134.5 24t-89.5 70t-32 109q0 71 41.5 122t132.5 90q-39 68 -39 132q0 86 61 140t160 54q90 0 143.5 -44t53.5 -118q0 -129 -168 -203l86 -122q30 57 33 129h151q-5 -147 -97 -252l82 -115h-177zM283 302q-32 -16 -49.5 -41
t-17.5 -55q0 -41 30 -64.5t82 -23.5q42 0 78 15zM362 453q78 34 78 96q0 24 -12 36.5t-34 12.5q-27 0 -44 -18t-17 -46q0 -33 29 -81z" />
    <glyph glyph-name="quotesingle" unicode="'" horiz-adv-x="231" 
d="M95 428l53 286h168l-69 -286h-152z" />
    <glyph glyph-name="parenleft" unicode="(" horiz-adv-x="343" 
d="M108 -124q-25 56 -39 130t-14 148q0 152 60 304.5t168 275.5h184q-113 -147 -168.5 -296.5t-55.5 -309.5q0 -141 41 -252h-176z" />
    <glyph glyph-name="parenright" unicode=")" horiz-adv-x="343" 
d="M-54 -124q113 147 168.5 296.5t55.5 309.5q0 141 -41 252h176q25 -56 39 -130t14 -148q0 -152 -60 -304.5t-168 -275.5h-184z" />
    <glyph glyph-name="asterisk" unicode="*" horiz-adv-x="430" 
d="M328 321l-46 112l-86 -114l-102 87l115 91l-116 29l66 132l98 -68l4 124h146l-48 -122l110 60l40 -128l-144 -29l85 -103z" />
    <glyph glyph-name="plus" unicode="+" horiz-adv-x="592" 
d="M202 85l38 177h-164l33 157h164l38 177h163l-38 -177h164l-33 -157h-164l-38 -177h-163z" />
    <glyph glyph-name="comma" unicode="," horiz-adv-x="269" 
d="M-20 -94l95 285h174l-129 -285h-140z" />
    <glyph glyph-name="hyphen" unicode="-" horiz-adv-x="410" 
d="M55 217l36 167h331l-36 -167h-331z" />
    <glyph glyph-name="period" unicode="." horiz-adv-x="269" 
d="M18 0l41 191h174l-41 -191h-174z" />
    <glyph glyph-name="slash" unicode="/" horiz-adv-x="428" 
d="M-26 0l389 734h187l-389 -734h-187z" />
    <glyph glyph-name="zero" unicode="0" horiz-adv-x="592" 
d="M291 -18q-107 0 -166 70t-59 196q0 130 39.5 234.5t112.5 166t168 61.5q107 0 166 -70t59 -196q0 -130 -39.5 -234.5t-112.5 -166t-168 -61.5zM305 139q36 0 61.5 50.5t45.5 164.5q11 62 11 109q0 90 -51 90q-36 0 -61.5 -50.5t-45.5 -164.5q-11 -62 -11 -109
q0 -90 51 -90z" />
    <glyph glyph-name="one" unicode="1" horiz-adv-x="592" 
d="M228 0l102 483l-125 -67l-71 134l264 141h160l-146 -691h-184z" />
    <glyph glyph-name="two" unicode="2" horiz-adv-x="592" 
d="M15 0l29 136l195 140q85 61 125 96.5t55 62.5t15 57q0 64 -68 64q-37 0 -60 -21.5t-36 -67.5l-172 17q22 106 98 166t188 60q108 0 170.5 -53.5t62.5 -146.5q0 -50 -18 -91t-58.5 -84t-112.5 -102q-29 -25 -109 -82h243l-44 -151h-503z" />
    <glyph glyph-name="three" unicode="3" horiz-adv-x="592" 
d="M265 281l30 147h56q40 0 63.5 19.5t23.5 51.5q0 59 -70 59q-37 0 -59 -19.5t-34 -63.5l-166 18q17 101 89.5 159t184.5 58q108 0 173.5 -52.5t65.5 -138.5q0 -59 -32 -103t-91 -67q39 -22 60 -60t21 -88q0 -64 -32.5 -113.5t-94.5 -77.5t-144 -28q-122 0 -190 63t-68 176
v15h176q0 -49 22.5 -76t63.5 -27q39 0 61.5 21t22.5 58q0 34 -20 51.5t-58 17.5h-54z" />
    <glyph glyph-name="four" unicode="4" horiz-adv-x="592" 
d="M299 0l28 137h-296l31 145l367 409h189l-89 -417h77l-41 -137h-65l-28 -137h-173zM399 472l-176 -198h134z" />
    <glyph glyph-name="five" unicode="5" horiz-adv-x="592" 
d="M238 206q3 -36 22 -55t51 -19q40 0 64 28.5t24 75.5q0 80 -74 80q-23 0 -42 -8.5t-37 -27.5h-155l119 411h414l-31 -151h-266l-31 -106q22 13 42 18t46 5q88 0 141.5 -58.5t53.5 -154.5q0 -76 -33.5 -135.5t-96.5 -93t-146 -33.5q-112 0 -177 58.5t-65 158.5v7h177z" />
    <glyph glyph-name="six" unicode="6" horiz-adv-x="592" 
d="M460 498q-8 65 -60 65q-44 0 -75 -40t-47 -116q22 19 54 29.5t67 10.5q85 0 136.5 -58t51.5 -154q0 -73 -33 -130t-95 -90t-144 -33q-118 0 -181.5 68.5t-63.5 194.5q0 51 11 109q31 173 115 264.5t209 91.5q63 0 112 -22.5t78.5 -66.5t34.5 -103zM320 124
q42 0 66.5 28.5t24.5 77.5q0 84 -76 84q-43 0 -68 -27.5t-25 -76.5q0 -42 20 -64t58 -22z" />
    <glyph glyph-name="seven" unicode="7" horiz-adv-x="592" 
d="M94 0q136 279 323 535h-302l33 156h507l-29 -135q-194 -260 -334 -556h-198z" />
    <glyph glyph-name="eight" unicode="8" horiz-adv-x="592" 
d="M510 350q35 -20 55.5 -58.5t20.5 -86.5q0 -64 -36 -114.5t-102.5 -79.5t-154.5 -29q-117 0 -185.5 52.5t-68.5 142.5q0 65 39 115.5t106 72.5q-62 46 -62 127q0 62 33 111.5t94.5 78t143.5 28.5q109 0 173.5 -50.5t64.5 -135.5q0 -59 -32.5 -106t-88.5 -68zM413 212
q0 73 -89 73q-51 0 -80 -24t-29 -66q0 -35 23 -53t66 -18q50 0 79.5 23.5t29.5 64.5zM462 502q0 68 -80 68q-44 0 -69.5 -22.5t-25.5 -60.5q0 -32 20.5 -49t58.5 -17q44 0 70 22t26 59z" />
    <glyph glyph-name="nine" unicode="9" horiz-adv-x="592" 
d="M219 189q5 -30 21 -45t45 -15q44 0 71.5 37t43.5 117q-22 -19 -54 -29.5t-67 -10.5q-84 0 -136 59t-52 155q0 71 32.5 128.5t93 91t137.5 33.5q124 0 188 -67t64 -196q0 -49 -7 -92q-54 -373 -317 -373q-104 0 -167 55.5t-68 151.5h172zM436 482q0 42 -20.5 64t-57.5 22
q-42 0 -66.5 -28.5t-24.5 -77.5q0 -84 76 -84q43 0 68 28t25 76z" />
    <glyph glyph-name="colon" unicode=":" horiz-adv-x="269" 
d="M17 0l41 191h174l-41 -191h-174zM86 334l41 191h174l-41 -191h-174z" />
    <glyph glyph-name="semicolon" unicode=";" horiz-adv-x="269" 
d="M-29 -94l95 285h174l-129 -285h-140zM88 334l41 191h174l-41 -191h-174z" />
    <glyph glyph-name="less" unicode="&#x3c;" horiz-adv-x="592" 
d="M92 265l32 148l505 191l-35 -166l-287 -101l244 -103l-35 -159z" />
    <glyph glyph-name="equal" unicode="=" horiz-adv-x="592" 
d="M78 152l32 151h442l-32 -151h-442zM124 380l32 151h442l-32 -151h-442z" />
    <glyph glyph-name="greater" unicode="&#x3e;" horiz-adv-x="592" 
d="M47 75l35 166l287 101l-244 103l35 159l424 -190l-32 -148z" />
    <glyph glyph-name="question" unicode="?" horiz-adv-x="538" 
d="M205 229l4 20q9 44 22.5 70.5t37.5 50.5t67 55q43 32 58.5 52t15.5 45q0 55 -62 55q-36 0 -58.5 -20.5t-33.5 -64.5l-164 17q22 107 92 162t183 55q108 0 169.5 -46.5t61.5 -128.5q0 -58 -30 -104t-100 -96q-50 -35 -71 -59.5t-25 -50.5l-2 -12h-165zM157 0l37 173h169
l-37 -173h-169z" />
    <glyph glyph-name="at" unicode="@" horiz-adv-x="1018" 
d="M853 -49q-50 -82 -148.5 -130t-219.5 -48q-125 0 -219.5 49.5t-146.5 144t-52 223.5q0 145 67 263t190 188t280 70q118 0 209 -46.5t142.5 -133.5t51.5 -203q0 -95 -32.5 -169.5t-93 -117t-140.5 -42.5q-111 0 -140 79q-29 -42 -64.5 -62t-80.5 -20q-72 0 -113.5 50
t-41.5 139q0 77 29.5 143t83 106.5t118.5 40.5q71 0 105 -55l9 45h151l-60 -296q-3 -15 -3 -22q0 -19 8 -27.5t25 -8.5q47 0 79 61.5t32 152.5q0 131 -73 201.5t-209 70.5q-113 0 -202.5 -49.5t-142 -141.5t-52.5 -213q0 -145 78.5 -225.5t219.5 -80.5q62 0 108 15.5
t84 48.5h164zM597 266q3 15 3 31q0 55 -44 55q-41 0 -66 -43t-25 -112q0 -68 47 -68q60 0 78 97z" />
    <glyph glyph-name="A" unicode="A" horiz-adv-x="744" 
d="M503 0l-13 137h-239l-69 -137h-195l397 714h218l97 -714h-196zM454 536l-125 -246h147z" />
    <glyph glyph-name="B" unicode="B" horiz-adv-x="672" 
d="M36 0l151 714h269q115 0 177.5 -44t62.5 -126q0 -63 -32 -108t-93 -68q87 -45 87 -141q0 -108 -83 -167.5t-233 -59.5h-306zM359 144q114 0 114 90q0 34 -21 50t-64 16h-110l-34 -156h115zM419 440q94 0 94 73q0 57 -79 57h-98l-29 -130h112z" />
    <glyph glyph-name="C" unicode="C" horiz-adv-x="728" 
d="M732 261q-22 -132 -111.5 -205.5t-226.5 -73.5q-145 0 -225.5 84.5t-80.5 237.5q0 120 48.5 217t137 154t202.5 57q124 0 198.5 -67t81.5 -184l-191 -25q-9 111 -103 111q-49 0 -88 -32t-62 -91.5t-23 -136.5q0 -160 120 -160q49 0 80 28t46 86h197z" />
    <glyph glyph-name="D" unicode="D" horiz-adv-x="753" 
d="M36 0l151 714h254q148 0 231 -83t83 -230q0 -118 -52 -208.5t-150.5 -141.5t-230.5 -51h-286zM340 162q98 0 157.5 65t59.5 172q0 76 -34.5 114.5t-102.5 38.5h-78l-83 -390h81z" />
    <glyph glyph-name="E" unicode="E" horiz-adv-x="622" 
d="M36 0l151 714h511l-33 -158h-322l-24 -114h301l-34 -158h-301l-26 -126h340l-46 -158h-517z" />
    <glyph glyph-name="F" unicode="F" horiz-adv-x="593" 
d="M280 260l-55 -260h-189l151 714h489l-34 -160h-300l-28 -134h282l-34 -160h-282z" />
    <glyph glyph-name="G" unicode="G" horiz-adv-x="751" 
d="M546 253h-114l33 155h291l-72 -337q-57 -41 -133.5 -65t-152.5 -24q-147 0 -228.5 85t-81.5 238q0 119 49 216t139.5 154t207.5 57q123 0 196 -61.5t79 -170.5l-191 -22q-12 92 -101 92q-80 0 -130.5 -71t-50.5 -186q0 -83 36 -126t105 -43q29 0 55.5 6.5t44.5 17.5z" />
    <glyph glyph-name="H" unicode="H" horiz-adv-x="748" 
d="M460 0l59 282h-232l-59 -282h-192l151 714h192l-55 -259h232l55 259h192l-151 -714h-192z" />
    <glyph glyph-name="I" unicode="I" horiz-adv-x="324" 
d="M36 0l151 714h192l-151 -714h-192z" />
    <glyph glyph-name="J" unicode="J" horiz-adv-x="664" 
d="M534 714h192l-97 -462q-29 -136 -107 -203t-207 -67q-123 0 -192.5 66.5t-69.5 183.5q0 21 1 34h191v-21q0 -98 83 -98q44 0 70.5 29.5t40.5 95.5z" />
    <glyph glyph-name="K" unicode="K" horiz-adv-x="716" 
d="M477 0l-108 306l-94 -87l-47 -219h-192l151 714h192l-53 -253l264 253h215l-291 -282l166 -432h-203z" />
    <glyph glyph-name="L" unicode="L" horiz-adv-x="596" 
d="M36 0l151 714h192l-116 -551h314l-49 -163h-492z" />
    <glyph glyph-name="M" unicode="M" horiz-adv-x="884" 
d="M612 0l86 409l-216 -409h-140l-48 408l-86 -408h-172l151 714h215l56 -478l253 478h228l-151 -714h-176z" />
    <glyph glyph-name="N" unicode="N" horiz-adv-x="739" 
d="M479 0l-173 421l-89 -421h-181l151 714h164l173 -421l89 421h181l-151 -714h-164z" />
    <glyph glyph-name="O" unicode="O" horiz-adv-x="793" 
d="M397 -18q-94 0 -163.5 37.5t-107.5 109t-38 170.5q0 118 49.5 216.5t141 157.5t207.5 59q94 0 163.5 -37.5t107.5 -109t38 -170.5q0 -118 -49.5 -216.5t-141 -157.5t-207.5 -59zM409 147q52 0 94 33.5t67 94t25 138.5q0 74 -31.5 114t-89.5 40q-52 0 -94 -33.5t-67 -94
t-25 -138.5q0 -74 31.5 -114t89.5 -40z" />
    <glyph glyph-name="P" unicode="P" horiz-adv-x="654" 
d="M36 0l151 714h247q124 0 190 -56t66 -163q0 -122 -84 -192.5t-229 -70.5h-106l-49 -232h-186zM384 385q62 0 94 25t32 74q0 40 -23 59t-71 19h-75l-38 -177h81z" />
    <glyph glyph-name="Q" unicode="Q" horiz-adv-x="793" 
d="M592 -99l-61 103q-62 -22 -135 -22q-92 0 -161.5 37t-108 108t-38.5 168q0 122 49.5 221t141 157.5t209.5 58.5q92 0 161 -37.5t107.5 -108.5t38.5 -167q0 -105 -38.5 -195.5t-108.5 -151.5l60 -102zM385 259l112 69l53 -91q21 38 33 83.5t12 91.5q0 74 -31.5 114.5
t-90.5 40.5q-52 0 -94 -33t-66.5 -93.5t-24.5 -139.5q0 -74 31.5 -114t89.5 -40q22 0 38 6z" />
    <glyph glyph-name="R" unicode="R" horiz-adv-x="681" 
d="M449 0l-71 246h-107l-52 -246h-183l151 714h271q122 0 187 -54.5t65 -155.5q0 -79 -42 -138t-119 -89l94 -277h-194zM403 395q58 0 88.5 24t30.5 70q0 77 -95 77h-88l-36 -171h100z" />
    <glyph glyph-name="S" unicode="S" horiz-adv-x="670" 
d="M314 292q-103 23 -153 74.5t-50 132.5q0 70 36 122.5t104.5 81.5t161.5 29q131 0 204 -56t81 -162l-187 -21q-7 46 -32.5 66.5t-75.5 20.5q-47 0 -72.5 -17t-25.5 -48q0 -25 17.5 -40.5t53.5 -23.5l79 -18q103 -23 151 -72t48 -132q0 -114 -83.5 -180.5t-226.5 -66.5
q-95 0 -162.5 29t-103.5 86t-38 138h191q3 -48 35 -73.5t88 -25.5q50 0 78 19t28 54q0 26 -17.5 42t-53.5 24z" />
    <glyph glyph-name="T" unicode="T" horiz-adv-x="650" 
d="M199 0l117 551h-206l34 163h605l-34 -163h-206l-118 -551h-192z" />
    <glyph glyph-name="U" unicode="U" horiz-adv-x="718" 
d="M589 714h192l-92 -439q-31 -149 -113.5 -221t-224.5 -72q-131 0 -200.5 60.5t-69.5 175.5q0 44 11 95l84 401h193l-89 -420q-7 -36 -7 -57q0 -90 93 -90q55 0 86 33.5t48 113.5z" />
    <glyph glyph-name="V" unicode="V" horiz-adv-x="729" 
d="M225 0l-89 714h204l40 -487l246 487h208l-388 -714h-221z" />
    <glyph glyph-name="W" unicode="W" horiz-adv-x="1002" 
d="M575 0l-8 457l-196 -457h-193l-41 714h207l-8 -462l194 457h182l4 -467l191 472h200l-335 -714h-197z" />
    <glyph glyph-name="X" unicode="X" horiz-adv-x="725" 
d="M485 0l-102 237l-190 -237h-213l321 377l-154 337h205l83 -203l166 203h211l-295 -348l173 -366h-205z" />
    <glyph glyph-name="Y" unicode="Y" horiz-adv-x="690" 
d="M220 0l58 277l-147 437h199l73 -273l188 273h210l-330 -437l-59 -277h-192z" />
    <glyph glyph-name="Z" unicode="Z" horiz-adv-x="625" 
d="M6 0l29 138l398 418h-309l34 158h544l-30 -139l-397 -417h332l-46 -158h-555z" />
    <glyph glyph-name="bracketleft" unicode="[" horiz-adv-x="382" 
d="M9 -124l182 858h296l-33 -154h-114l-117 -550h114l-33 -154h-295z" />
    <glyph glyph-name="backslash" unicode="\" horiz-adv-x="428" 
d="M212 0l-76 734h175l76 -734h-175z" />
    <glyph glyph-name="bracketright" unicode="]" horiz-adv-x="382" 
d="M-35 -124l33 154h114l117 550h-114l33 154h295l-182 -858h-296z" />
    <glyph glyph-name="asciicircum" unicode="^" horiz-adv-x="592" 
d="M422 291l-43 221l-137 -221h-185l285 426h153l104 -426h-177z" />
    <glyph glyph-name="underscore" unicode="_" horiz-adv-x="500" 
d="M-60 -175l11 52h499l-11 -52h-499z" />
    <glyph glyph-name="grave" unicode="`" horiz-adv-x="610" 
d="M360 586l-126 165h192l90 -165h-156z" />
    <glyph glyph-name="a" unicode="a" horiz-adv-x="585" 
d="M339 0l12 58q-35 -37 -73.5 -54.5t-84.5 -17.5q-71 0 -112.5 39t-41.5 106q0 87 72 134.5t214 55.5l78 4l3 16q2 13 2 19q0 26 -16 40t-46 14q-58 0 -75 -52l-160 13q11 51 44 88t86.5 57.5t122.5 20.5q103 0 157.5 -44.5t54.5 -129.5q0 -37 -7 -66l-64 -301h-166z
M381 222l-55 -3q-61 -4 -89 -19.5t-28 -46.5q0 -43 52 -43q38 0 68 21q37 24 47 69z" />
    <glyph glyph-name="b" unicode="b" horiz-adv-x="634" 
d="M25 0l151 714h181l-51 -242q27 33 65.5 51t81.5 18q81 0 125 -57t44 -161q0 -92 -33 -169t-92.5 -123.5t-133.5 -46.5q-51 0 -89.5 21.5t-59.5 62.5l-14 -68h-175zM256 245q-3 -18 -3 -33q0 -40 18.5 -62t51.5 -22q49 0 81 49t32 125q0 93 -68 93q-37 0 -64.5 -28.5
t-38.5 -79.5z" />
    <glyph glyph-name="c" unicode="c" horiz-adv-x="577" 
d="M567 201q-18 -102 -89 -159.5t-179 -57.5q-113 0 -174 61t-61 175q0 91 37 163.5t106 115t159 42.5q98 0 155.5 -51.5t61.5 -142.5l-173 -22q-4 73 -56 73q-29 0 -53.5 -22t-39 -62.5t-14.5 -91.5q0 -49 16.5 -72t50.5 -23q31 0 50 18t29 56h174z" />
    <glyph glyph-name="d" unicode="d" horiz-adv-x="634" 
d="M373 0l12 61q-29 -37 -68 -57t-85 -20q-81 0 -125 57t-44 161q0 92 33 169t92.5 123.5t133.5 46.5q50 0 87 -19.5t58 -56.5l52 249h181l-151 -714h-176zM429 280q3 18 3 33q0 40 -18.5 62t-51.5 22q-49 0 -81 -49t-32 -125q0 -93 68 -93q37 0 64.5 28.5t38.5 79.5z" />
    <glyph glyph-name="e" unicode="e" horiz-adv-x="595" 
d="M564 169q-19 -88 -87 -136.5t-172 -48.5q-117 0 -179 61t-62 176q0 91 36.5 163.5t104.5 114.5t156 42q104 0 163.5 -59.5t59.5 -163.5q0 -31 -6 -64l-6 -34h-336q0 -56 19 -81t62 -25q32 0 50.5 13.5t26.5 41.5h170zM419 323q3 14 3 25q0 31 -18.5 48t-50.5 17
q-74 0 -100 -90h166z" />
    <glyph glyph-name="f" unicode="f" 
d="M69 0l77 364h-85l30 141h85l6 28q20 95 75 142t146 47q35 0 73 -7.5t62 -19.5l-48 -122q-25 11 -57 11q-31 0 -48 -14t-24 -47l-4 -18h114l-30 -141h-114l-77 -364h-181z" />
    <glyph glyph-name="g" unicode="g" horiz-adv-x="634" 
d="M387 87q-58 -66 -146 -66q-84 0 -130.5 55.5t-46.5 153.5q0 83 32.5 153.5t91.5 114t132 43.5q52 0 91.5 -22t60.5 -62l14 69h175l-101 -471q-29 -138 -97 -199t-190 -61q-117 0 -182.5 48.5t-65.5 136.5h176q3 -28 20.5 -41t51.5 -13q45 0 68.5 28t38.5 99zM431 280
q4 16 4 33q0 37 -21.5 60.5t-55.5 23.5q-44 0 -75 -41.5t-31 -102.5q0 -85 72 -85q39 0 65.5 24.5t37.5 70.5z" />
    <glyph glyph-name="h" unicode="h" horiz-adv-x="610" 
d="M349 0l66 311q4 16 4 31q0 50 -48 50q-32 0 -62 -22q-29 -23 -38 -62l-65 -308h-181l151 714h181l-52 -244q65 71 153 71q69 0 108 -41t39 -114q0 -28 -6 -58l-69 -328h-181z" />
    <glyph glyph-name="i" unicode="i" horiz-adv-x="291" 
d="M25 0l111 525h181l-111 -525h-181zM145 583l28 131h183l-28 -131h-183z" />
    <glyph glyph-name="j" unicode="j" horiz-adv-x="296" 
d="M141 525h181l-111 -526q-20 -95 -69 -139t-137 -44q-74 0 -130 25l45 125q27 -9 51 -9q28 0 42 13.5t20 42.5zM150 583l28 131h183l-28 -131h-183z" />
    <glyph glyph-name="k" unicode="k" horiz-adv-x="615" 
d="M398 0l-88 232l-74 -58l-37 -174h-174l151 714h174l-73 -348l194 159h209l-234 -191l138 -334h-186z" />
    <glyph glyph-name="l" unicode="l" horiz-adv-x="291" 
d="M25 0l151 714h181l-151 -714h-181z" />
    <glyph glyph-name="m" unicode="m" horiz-adv-x="890" 
d="M629 0l67 320q4 20 4 29q0 43 -40 43q-29 0 -53 -20t-32 -55l-67 -317h-181l67 320q4 20 4 29q0 43 -40 43q-29 0 -53 -20t-32 -55l-67 -317h-181l111 525h176l-12 -60q66 76 146 76q95 0 123 -82q39 42 81.5 62t94.5 20q67 0 104.5 -39t37.5 -109q0 -24 -8 -64l-69 -329
h-181z" />
    <glyph glyph-name="n" unicode="n" horiz-adv-x="610" 
d="M349 0l66 311q4 16 4 31q0 50 -48 50q-32 0 -62 -22q-29 -23 -38 -62l-65 -308h-181l111 525h176l-13 -62q66 78 159 78q69 0 108 -41t39 -114q0 -28 -6 -58l-69 -328h-181z" />
    <glyph glyph-name="o" unicode="o" horiz-adv-x="622" 
d="M301 -16q-107 0 -172 63t-65 168q0 94 37.5 167.5t108 116t163.5 42.5q107 0 172 -63t65 -168q0 -94 -37.5 -167.5t-108 -116t-163.5 -42.5zM313 127q49 0 82 52t33 131q0 42 -17.5 65t-49.5 23q-49 0 -82 -52t-33 -131q0 -42 17.5 -65t49.5 -23z" />
    <glyph glyph-name="p" unicode="p" horiz-adv-x="634" 
d="M-17 -194l153 720h176l-12 -61q61 76 153 76q81 0 125 -57t44 -161q0 -92 -33 -169t-92.5 -123.5t-133.5 -46.5q-49 0 -86 19.5t-59 57.5l-54 -255h-181zM256 245q-3 -18 -3 -33q0 -40 18.5 -62t51.5 -22q49 0 81 49t32 125q0 93 -68 93q-38 0 -66 -29t-37 -79z" />
    <glyph glyph-name="q" unicode="q" horiz-adv-x="634" 
d="M327 -194l53 248q-29 -34 -66.5 -52t-80.5 -18q-81 0 -125 57t-44 161q0 92 33 169t92.5 123.5t133.5 46.5q52 0 90 -21t59 -62l14 68h175l-153 -720h-181zM430 280q3 18 3 33q0 40 -18.5 62t-51.5 22q-49 0 -81 -49t-32 -125q0 -93 68 -93q38 0 66 29t37 79z" />
    <glyph glyph-name="r" unicode="r" horiz-adv-x="443" 
d="M25 0l111 525h176l-14 -65q65 75 153 75q24 0 53 -7l-45 -155q-28 7 -56 7q-118 0 -143 -124l-54 -256h-181z" />
    <glyph glyph-name="s" unicode="s" horiz-adv-x="549" 
d="M388 363q-4 55 -67 55q-62 0 -62 -41q0 -17 12.5 -27t43.5 -16l45 -9q84 -16 124 -55t40 -104q0 -86 -66 -134t-186 -48q-116 0 -178 47t-65 137h171q4 -29 22 -41.5t53 -12.5q34 0 49.5 10.5t15.5 32.5q0 16 -10.5 26t-33.5 15l-55 12q-80 17 -118.5 54.5t-38.5 97.5
q0 82 65 130.5t176 48.5q105 0 164 -41.5t64 -120.5z" />
    <glyph glyph-name="t" unicode="t" horiz-adv-x="423" 
d="M404 10q-55 -19 -131 -19q-172 0 -172 141q0 28 7 62l40 190h-84l30 141h84l29 138h181l-29 -138h114l-30 -141h-114l-38 -179q-4 -17 -4 -28q0 -21 11 -31t35 -10q22 0 51 7z" />
    <glyph glyph-name="u" unicode="u" horiz-adv-x="605" 
d="M344 0l13 62q-64 -78 -156 -78q-68 0 -106.5 41t-38.5 114q0 28 6 58l69 328h181l-66 -311q-4 -16 -4 -31q0 -50 46 -50q16 0 32 6t28 16q28 22 37 62l65 308h181l-111 -525h-176z" />
    <glyph glyph-name="v" unicode="v" horiz-adv-x="587" 
d="M171 0l-81 525h192l21 -334l163 334h193l-299 -525h-189z" />
    <glyph glyph-name="w" unicode="w" horiz-adv-x="811" 
d="M455 0l-15 303l-145 -303h-165l-40 525h182l-3 -304l142 300h144l20 -305l130 309h178l-259 -525h-169z" />
    <glyph glyph-name="x" unicode="x" horiz-adv-x="579" 
d="M354 0l-61 144l-116 -144h-199l246 273l-118 252h195l48 -127l103 127h190l-223 -258l125 -267h-190z" />
    <glyph glyph-name="y" unicode="y" horiz-adv-x="596" 
d="M204 44l-112 481h190l40 -293l152 293h194l-323 -537q-45 -76 -80.5 -114t-73 -53t-88.5 -15q-60 0 -116 24l50 130q27 -12 60 -12q28 0 46.5 12t36.5 43z" />
    <glyph glyph-name="z" unicode="z" horiz-adv-x="523" 
d="M4 0l24 115l280 272h-220l30 138h449l-24 -115l-280 -272h238l-41 -138h-456z" />
    <glyph glyph-name="braceleft" unicode="{" horiz-adv-x="387" 
d="M215 -124q-70 0 -109 34.5t-39 95.5q0 22 5 44l22 105q3 15 3 27q0 49 -50 49h-10l32 148h10q63 0 78 70l23 111q18 91 69.5 132.5t145.5 41.5h100l-33 -153h-55q-28 0 -42 -12t-20 -41l-25 -115q-18 -84 -90 -110q47 -21 47 -78q0 -8 -0.5 -16t-2.5 -16l-22 -102
q-4 -15 -4 -28q0 -34 38 -34h59l-33 -153h-97z" />
    <glyph glyph-name="bar" unicode="|" horiz-adv-x="301" 
d="M10 -124l182 858h171l-183 -858h-170z" />
    <glyph glyph-name="braceright" unicode="}" horiz-adv-x="387" 
d="M-38 -124l33 153h55q28 0 42 12t20 41l25 115q18 84 90 110q-47 21 -47 78q0 8 1 16l2 16l22 102q4 15 4 28q0 34 -38 34h-59l33 153h97q70 0 109 -34.5t39 -95.5q0 -21 -5 -44l-22 -105q-3 -15 -3 -27q0 -49 50 -49h10l-32 -148h-10q-63 0 -78 -70l-23 -111
q-18 -91 -69.5 -132.5t-145.5 -41.5h-100z" />
    <glyph glyph-name="asciitilde" unicode="~" horiz-adv-x="592" 
d="M633 452q-13 -117 -63.5 -179t-132.5 -62q-33 0 -59.5 9.5t-63.5 34.5q-24 16 -36 21t-25 5q-24 0 -37 -16t-18 -51h-156q13 117 63.5 179t132.5 62q33 0 59.5 -9.5t63.5 -34.5q24 -16 36 -21t25 -5q24 0 37 16t18 51h156z" />
    <glyph glyph-name="uni00A0" unicode="&#xa0;" horiz-adv-x="215" 
 />
    <glyph glyph-name="exclamdown" unicode="&#xa1;" horiz-adv-x="297" 
d="M-19 -189l121 485h161l-85 -485h-197zM107 352l36 173h168l-35 -173h-169z" />
    <glyph glyph-name="cent" unicode="&#xa2;" horiz-adv-x="592" 
d="M239 -11l21 98q-87 14 -133.5 73t-46.5 157q0 90 36.5 161.5t104 114t156.5 44.5l19 91h59l-20 -95q77 -14 121 -63t48 -125l-167 -22q-4 53 -32 68l-57 -268q29 5 45.5 23.5t25.5 54.5h169q-19 -106 -88.5 -162t-181.5 -56l-20 -94h-59zM346 494q-40 -12 -65 -60.5
t-25 -114.5q0 -36 8 -57t26 -31z" />
    <glyph glyph-name="sterling" unicode="&#xa3;" horiz-adv-x="592" 
d="M41 0l28 121q43 36 64 72.5t25 81.5h-88l27 134h54q-3 24 -3 53q0 116 67 182t186 66q102 0 157.5 -51t61.5 -150l-159 -18q-5 35 -21 51.5t-47 16.5q-40 0 -60.5 -25t-20.5 -73q0 -32 3 -52h205l-28 -134h-172q-11 -75 -64 -127h320l-49 -148h-486z" />
    <glyph glyph-name="currency" unicode="&#xa4;" horiz-adv-x="592" 
d="M458 39l-48 65q-48 -19 -99 -19q-61 0 -107 25l-73 -67l-96 107l73 65q-13 29 -13 76q0 50 15.5 97.5t44.5 85.5l-47 64l119 86l47 -64q45 16 91 16q59 0 103 -22l72 66l97 -107l-71 -62q16 -33 16 -82q0 -47 -14.5 -93t-41.5 -84l51 -67zM315 202q54 0 89.5 45.5
t35.5 115.5q0 96 -78 96q-54 0 -89.5 -45t-35.5 -115q0 -97 78 -97z" />
    <glyph glyph-name="yen" unicode="&#xa5;" horiz-adv-x="592" 
d="M382 127l-27 -127h-177l26 127h-155l20 93h155l13 62h-156l20 93h110l-88 316h178l54 -254l159 254h187l-220 -316h108l-20 -93h-155l-13 -62h156l-20 -93h-155z" />
    <glyph glyph-name="brokenbar" unicode="&#xa6;" horiz-adv-x="301" 
d="M9 -124l74 353h171l-75 -353h-170zM119 398l72 336h171l-72 -336h-171z" />
    <glyph glyph-name="section" unicode="&#xa7;" horiz-adv-x="582" 
d="M232 134q-80 21 -119 60.5t-39 99.5q0 51 26.5 87t77.5 55q-25 20 -37 46.5t-12 62.5q0 87 67 137t185 50q110 0 175 -44.5t74 -126.5l-169 -23q-6 35 -26 52t-57 17q-36 0 -56 -15t-20 -41q0 -37 52 -50l68 -17q82 -20 121.5 -59.5t39.5 -99.5q0 -50 -27 -87.5
t-77 -55.5q50 -43 50 -113q0 -89 -68.5 -139.5t-188.5 -50.5t-186.5 52.5t-68.5 149.5h175q2 -72 91 -72q73 0 73 55q0 21 -11.5 33t-40.5 19zM323 243q23 -5 32 -5q34 0 54.5 18t20.5 47q0 46 -52 60l-52 13q-17 4 -27 4q-33 0 -53.5 -18.5t-20.5 -48.5q0 -47 51 -59z" />
    <glyph glyph-name="dieresis" unicode="&#xa8;" horiz-adv-x="610" 
d="M425 583l29 133h160l-29 -133h-160zM205 583l29 133h160l-29 -133h-160z" />
    <glyph glyph-name="copyright" unicode="&#xa9;" horiz-adv-x="780" 
d="M432 82q74 0 131 33.5t89.5 96t32.5 145.5q0 80 -30.5 142t-88 97.5t-134.5 35.5q-74 0 -131.5 -33t-90 -95.5t-32.5 -146.5q0 -80 30.5 -142t88.5 -97.5t135 -35.5zM430 0q-98 0 -175.5 43.5t-122.5 124.5t-45 187q0 102 43 183t122.5 128.5t182.5 47.5q97 0 174 -43.5
t122 -124.5t45 -187q0 -102 -42.5 -183t-121.5 -128.5t-182 -47.5zM617 314q-5 -76 -52 -117t-128 -41q-91 0 -141 51.5t-50 145.5q0 96 51.5 150.5t142.5 54.5q74 0 119.5 -37t53.5 -105l-121 -16q-10 53 -56 53q-65 0 -65 -95q0 -96 68 -96q50 0 56 52h122z" />
    <glyph glyph-name="ordfeminine" unicode="&#xaa;" horiz-adv-x="435" 
d="M311 335l9 42q-25 -27 -52.5 -39.5t-61.5 -12.5q-54 0 -84 29t-30 80q0 67 53 101.5t163 39.5l50 2l1 5q1 5 1.5 10t0.5 10q0 35 -41 35q-22 0 -35 -8.5t-19 -27.5l-120 10q15 60 62.5 90.5t123.5 30.5t117 -32.5t41 -92.5q0 -19 -5 -44l-49 -228h-125zM342 498l-38 -1
q-43 -1 -63.5 -13t-20.5 -35q0 -32 36 -32q29 0 52 18.5t30 47.5z" />
    <glyph glyph-name="guillemotleft" unicode="&#xab;" horiz-adv-x="612" 
d="M123 28l-73 229l166 228h191l-162 -239l59 -218h-181zM382 28l-73 229l166 228h191l-162 -239l59 -218h-181z" />
    <glyph glyph-name="logicalnot" unicode="&#xac;" horiz-adv-x="592" 
d="M349 157l29 135h-281l34 157h444l-63 -292h-163z" />
    <glyph glyph-name="uni00AD" unicode="&#xad;" horiz-adv-x="410" 
d="M55 217l36 167h331l-36 -167h-331z" />
    <glyph glyph-name="registered" unicode="&#xae;" horiz-adv-x="500" 
d="M327 286q-63 0 -112.5 27t-78 77.5t-28.5 117.5q0 64 27 115t77.5 80t116.5 29q97 0 158 -62t61 -161t-61.5 -161t-159.5 -62zM328 342q75 0 116 44t41 123t-41 123t-116 44t-116 -44t-41 -123t41 -123t116 -44zM361 404l-31 69h-30v-69h-63v215h92q90 0 90 -71
q0 -39 -29 -59l41 -85h-70zM325 522q16 0 23 5.5t7 18.5q0 23 -33 23h-22v-47h25z" />
    <glyph glyph-name="macron" unicode="&#xaf;" horiz-adv-x="610" 
d="M234 594l27 129h315l-27 -129h-315z" />
    <glyph glyph-name="degree" unicode="&#xb0;" horiz-adv-x="377" 
d="M425 550q0 -44 -20 -80.5t-57 -58t-84 -21.5q-69 0 -115.5 46t-46.5 114q0 44 20 80.5t57 58t84 21.5q69 0 115.5 -46t46.5 -114zM316 550q0 25 -14 40.5t-38 15.5t-38.5 -15.5t-14.5 -40.5t14.5 -40.5t38.5 -15.5t38 15.5t14 40.5z" />
    <glyph glyph-name="plusminus" unicode="&#xb1;" horiz-adv-x="592" 
d="M41 0l32 151h143l27 128h-161l32 151h161l36 169h165l-36 -169h161l-32 -151h-161l-27 -128h143l-32 -151h-451z" />
    <glyph glyph-name="uni00B2" unicode="&#xb2;" 
d="M77 289l21 93l121 83q54 37 72 52.5t25 28t7 25.5q0 30 -32 30q-39 0 -51 -48l-121 13q14 67 62 104.5t121 37.5q69 0 109.5 -33t40.5 -90q0 -40 -21.5 -73.5t-86.5 -80.5q-15 -10 -29.5 -20t-26.5 -18h135l-30 -104h-316z" />
    <glyph glyph-name="uni00B3" unicode="&#xb3;" 
d="M234 451l19 90h29q22 0 34 11t12 29q0 32 -36 32q-21 0 -33 -11t-19 -35l-115 12q14 64 58.5 97t116.5 33q70 0 111.5 -32t41.5 -86q0 -68 -66 -97q21 -13 33 -36t12 -50q0 -58 -48 -95t-125 -37q-80 0 -124 40t-44 113h120v-8q0 -23 12.5 -36.5t34.5 -13.5
q21 0 33.5 11.5t12.5 31.5q0 37 -40 37h-30z" />
    <glyph glyph-name="acute" unicode="&#xb4;" horiz-adv-x="610" 
d="M406 586h-171l159 165h207z" />
    <glyph glyph-name="mu" unicode="&#xb5;" horiz-adv-x="610" 
d="M349 0l13 61q-46 -67 -113 -67q-26 0 -43 13l-43 -201h-180l153 719h181l-67 -313q-3 -15 -3 -28q0 -51 44 -51q32 0 62 23q29 21 38 64l64 305h181l-111 -525h-176z" />
    <glyph glyph-name="paragraph" unicode="&#xb6;" horiz-adv-x="698" 
d="M415 -139l151 714h-72l-151 -714h-161l79 374q-89 9 -136 60.5t-47 141.5q0 85 41.5 147.5t122.5 96t194 33.5h321l-181 -853h-161z" />
    <glyph glyph-name="periodcentered" unicode="&#xb7;" horiz-adv-x="269" 
d="M76 278l41 191h174l-41 -191h-174z" />
    <glyph glyph-name="cedilla" unicode="&#xb8;" horiz-adv-x="610" 
d="M198 -138q40 -5 63 -5q26 0 37.5 5.5t11.5 18.5t-11.5 18.5t-38.5 5.5h-34l57 101l87 -6l-25 -46q81 -13 81 -79q0 -48 -42 -73.5t-121 -25.5q-48 0 -80 7z" />
    <glyph glyph-name="uni00B9" unicode="&#xb9;" 
d="M199 289l58 273l-87 -42l-44 93l165 82h124l-86 -406h-130z" />
    <glyph glyph-name="ordmasculine" unicode="&#xba;" horiz-adv-x="440" 
d="M274 314q-81 0 -130.5 48t-49.5 126q0 69 28.5 124t81.5 87.5t122 32.5q81 0 130.5 -48t49.5 -126q0 -69 -28.5 -124t-81.5 -87.5t-122 -32.5zM284 428q36 0 58.5 36t22.5 92q0 30 -12.5 46t-36.5 16q-36 0 -58.5 -36t-22.5 -92q0 -30 13 -46t36 -16z" />
    <glyph glyph-name="guillemotright" unicode="&#xbb;" horiz-adv-x="612" 
d="M-1 28l162 239l-59 218h181l73 -229l-166 -228h-191zM258 28l162 239l-59 218h181l73 -229l-166 -228h-191z" />
    <glyph glyph-name="onequarter" unicode="&#xbc;" horiz-adv-x="1001" 
d="M207 0l470 691h175l-470 -691h-175zM777 0l16 74h-186l19 93l225 239h134l-50 -237h51l-29 -95h-42l-16 -74h-122zM834 272l-94 -103h73zM179 289l58 273l-87 -42l-44 93l165 82h124l-86 -406h-130z" />
    <glyph glyph-name="onehalf" unicode="&#xbd;" horiz-adv-x="1001" 
d="M182 0l470 691h175l-470 -691h-175zM613 0l21 93l121 83q54 37 72 52.5t25 28t7 25.5q0 30 -32 30q-39 0 -51 -48l-121 13q14 67 62 104.5t121 37.5q69 0 109.5 -33t40.5 -90q0 -40 -21.5 -73.5t-86.5 -80.5q-15 -10 -29.5 -20t-26.5 -18h135l-30 -104h-316zM179 289
l58 273l-87 -42l-44 93l165 82h124l-86 -406h-130z" />
    <glyph glyph-name="threequarters" unicode="&#xbe;" horiz-adv-x="1001" 
d="M248 0l470 691h175l-470 -691h-175zM777 0l16 74h-186l19 93l225 239h134l-50 -237h51l-29 -95h-42l-16 -74h-122zM834 272l-94 -103h73zM235 451l19 90h29q22 0 34 11t12 29q0 32 -36 32q-21 0 -33 -11t-19 -35l-115 12q14 64 58.5 97t116.5 33q70 0 111.5 -32t41.5 -86
q0 -68 -66 -97q21 -13 33 -36t12 -50q0 -58 -48 -95t-125 -37q-80 0 -124 40t-44 113h120v-8q0 -23 12.5 -36.5t34.5 -13.5q21 0 33.5 11.5t12.5 31.5q0 37 -40 37h-30z" />
    <glyph glyph-name="questiondown" unicode="&#xbf;" horiz-adv-x="521" 
d="M493 16q-22 -107 -92 -162t-183 -55q-108 0 -169.5 46.5t-61.5 128.5q0 58 30 104t100 96q50 35 71 59.5t25 50.5l2 12h165l-4 -20q-9 -44 -22.5 -70.5t-37.5 -50.5t-67 -55q-43 -32 -58.5 -52t-15.5 -45q0 -55 62 -55q36 0 58.5 20.5t33.5 64.5zM222 352l37 173h169
l-37 -173h-169z" />
    <glyph glyph-name="Agrave" unicode="&#xc0;" horiz-adv-x="744" 
d="M503 0l-13 137h-239l-69 -137h-195l397 714h218l97 -714h-196zM454 536l-125 -246h147zM455 772l-132 155h198l95 -155h-161z" />
    <glyph glyph-name="Aacute" unicode="&#xc1;" horiz-adv-x="744" 
d="M503 0l-13 137h-239l-69 -137h-195l397 714h218l97 -714h-196zM454 536l-125 -246h147zM564 772h-178l161 155h215z" />
    <glyph glyph-name="Acircumflex" unicode="&#xc2;" horiz-adv-x="744" 
d="M503 0l-13 137h-239l-69 -137h-195l397 714h218l97 -714h-196zM454 536l-125 -246h147zM568 772l-45 69l-76 -69h-156l158 155h175l95 -155h-151z" />
    <glyph glyph-name="Atilde" unicode="&#xc3;" horiz-adv-x="744" 
d="M503 0l-13 137h-239l-69 -137h-195l397 714h218l97 -714h-196zM454 536l-125 -246h147zM743 930q-9 -78 -47.5 -119.5t-101.5 -41.5q-19 0 -36 5t-42 18q-35 18 -51 18q-39 0 -45 -41h-116q9 78 47.5 119.5t101.5 41.5q19 0 36 -5t42 -18q37 -18 51 -18q39 0 45 41h116z
" />
    <glyph glyph-name="Adieresis" unicode="&#xc4;" horiz-adv-x="744" 
d="M503 0l-13 137h-239l-69 -137h-195l397 714h218l97 -714h-196zM454 536l-125 -246h147zM307 775l31 144h168l-31 -144h-168zM536 775l31 144h168l-31 -144h-168z" />
    <glyph glyph-name="Aring" unicode="&#xc5;" horiz-adv-x="744" 
d="M503 0l-13 137h-239l-70 -137h-195l399 715q-21 29 -21 70q0 55 36.5 90t94.5 35q59 0 96 -34.5t37 -90.5q0 -46 -26 -75l97 -710h-196zM454 536l-125 -246h147zM495 739q43 0 43 43q0 44 -43 44q-41 0 -41 -44q0 -43 41 -43z" />
    <glyph glyph-name="AE" unicode="&#xc6;" horiz-adv-x="1083" 
d="M530 0l41 192h-235l-139 -192h-210l533 714h639l-33 -158h-297l-24 -114h276l-34 -158h-276l-26 -126h315l-46 -158h-484zM649 560h-54l-153 -215h161z" />
    <glyph glyph-name="Ccedilla" unicode="&#xc7;" horiz-adv-x="728" 
d="M732 261q-22 -132 -111.5 -205.5t-226.5 -73.5q-145 0 -225.5 84.5t-80.5 237.5q0 120 48.5 217t137 154t202.5 57q124 0 198.5 -67t81.5 -184l-191 -25q-9 111 -103 111q-49 0 -88 -32t-62 -91.5t-23 -136.5q0 -160 120 -160q49 0 80 28t46 86h197zM273 -144
q40 -4 65 -4q26 0 37.5 6.5t11.5 20.5q0 13 -12.5 18.5t-38.5 5.5h-34l59 106l86 -9l-26 -46q43 -7 65 -28t22 -53q0 -50 -43.5 -76.5t-125.5 -26.5q-36 0 -81 8z" />
    <glyph glyph-name="Egrave" unicode="&#xc8;" horiz-adv-x="622" 
d="M36 0l151 714h511l-33 -158h-322l-24 -114h301l-34 -158h-301l-26 -126h340l-46 -158h-517zM421 772l-132 155h198l95 -155h-161z" />
    <glyph glyph-name="Eacute" unicode="&#xc9;" horiz-adv-x="622" 
d="M36 0l151 714h511l-33 -158h-322l-24 -114h301l-34 -158h-301l-26 -126h340l-46 -158h-517zM530 772h-178l161 155h215z" />
    <glyph glyph-name="Ecircumflex" unicode="&#xca;" horiz-adv-x="622" 
d="M36 0l151 714h511l-33 -158h-322l-24 -114h301l-34 -158h-301l-26 -126h340l-46 -158h-517zM534 772l-45 69l-76 -69h-156l158 155h175l95 -155h-151z" />
    <glyph glyph-name="Edieresis" unicode="&#xcb;" horiz-adv-x="622" 
d="M36 0l151 714h511l-33 -158h-322l-24 -114h301l-34 -158h-301l-26 -126h340l-46 -158h-517zM273 775l31 144h168l-31 -144h-168zM502 775l31 144h168l-31 -144h-168z" />
    <glyph glyph-name="Igrave" unicode="&#xcc;" horiz-adv-x="324" 
d="M36 0l151 714h192l-151 -714h-192zM245 772l-132 155h198l95 -155h-161z" />
    <glyph glyph-name="Iacute" unicode="&#xcd;" horiz-adv-x="324" 
d="M36 0l151 714h192l-151 -714h-192zM354 772h-178l161 155h215z" />
    <glyph glyph-name="Icircumflex" unicode="&#xce;" horiz-adv-x="324" 
d="M36 0l151 714h192l-151 -714h-192zM358 772l-45 69l-76 -69h-156l158 155h175l95 -155h-151z" />
    <glyph glyph-name="Idieresis" unicode="&#xcf;" horiz-adv-x="324" 
d="M36 0l151 714h192l-151 -714h-192zM97 775l31 144h168l-31 -144h-168zM326 775l31 144h168l-31 -144h-168z" />
    <glyph glyph-name="Eth" unicode="&#xd0;" horiz-adv-x="778" 
d="M61 0l60 286h-78l32 152h78l59 276h254q148 0 231 -83t83 -230q0 -118 -52.5 -208.5t-150.5 -141.5t-230 -51h-286zM365 162q98 0 157.5 65t59.5 172q0 76 -34.5 114.5t-102.5 38.5h-83l-24 -114h123l-32 -152h-124l-26 -124h86z" />
    <glyph glyph-name="Ntilde" unicode="&#xd1;" horiz-adv-x="739" 
d="M479 0l-173 421l-89 -421h-181l151 714h164l173 -421l89 421h181l-151 -714h-164zM740 930q-9 -78 -47.5 -119.5t-101.5 -41.5q-19 0 -36 5t-42 18q-35 18 -51 18q-39 0 -45 -41h-116q9 78 47.5 119.5t101.5 41.5q19 0 36 -5t42 -18q37 -18 51 -18q39 0 45 41h116z" />
    <glyph glyph-name="Ograve" unicode="&#xd2;" horiz-adv-x="793" 
d="M397 -18q-94 0 -163.5 37.5t-107.5 109t-38 170.5q0 118 49.5 216.5t141 157.5t207.5 59q94 0 163.5 -37.5t107.5 -109t38 -170.5q0 -118 -49.5 -216.5t-141 -157.5t-207.5 -59zM409 147q52 0 94 33.5t67 94t25 138.5q0 74 -31.5 114t-89.5 40q-52 0 -94 -33.5t-67 -94
t-25 -138.5q0 -74 31.5 -114t89.5 -40zM444 772l-132 155h198l95 -155h-161z" />
    <glyph glyph-name="Oacute" unicode="&#xd3;" horiz-adv-x="793" 
d="M397 -18q-94 0 -163.5 37.5t-107.5 109t-38 170.5q0 118 49.5 216.5t141 157.5t207.5 59q94 0 163.5 -37.5t107.5 -109t38 -170.5q0 -118 -49.5 -216.5t-141 -157.5t-207.5 -59zM409 147q52 0 94 33.5t67 94t25 138.5q0 74 -31.5 114t-89.5 40q-52 0 -94 -33.5t-67 -94
t-25 -138.5q0 -74 31.5 -114t89.5 -40zM553 772h-178l161 155h215z" />
    <glyph glyph-name="Ocircumflex" unicode="&#xd4;" horiz-adv-x="793" 
d="M397 -18q-94 0 -163.5 37.5t-107.5 109t-38 170.5q0 118 49.5 216.5t141 157.5t207.5 59q94 0 163.5 -37.5t107.5 -109t38 -170.5q0 -118 -49.5 -216.5t-141 -157.5t-207.5 -59zM409 147q52 0 94 33.5t67 94t25 138.5q0 74 -31.5 114t-89.5 40q-52 0 -94 -33.5t-67 -94
t-25 -138.5q0 -74 31.5 -114t89.5 -40zM557 772l-45 69l-76 -69h-156l158 155h175l95 -155h-151z" />
    <glyph glyph-name="Otilde" unicode="&#xd5;" horiz-adv-x="793" 
d="M397 -18q-94 0 -163.5 37.5t-107.5 109t-38 170.5q0 118 49.5 216.5t141 157.5t207.5 59q94 0 163.5 -37.5t107.5 -109t38 -170.5q0 -118 -49.5 -216.5t-141 -157.5t-207.5 -59zM409 147q52 0 94 33.5t67 94t25 138.5q0 74 -31.5 114t-89.5 40q-52 0 -94 -33.5t-67 -94
t-25 -138.5q0 -74 31.5 -114t89.5 -40zM732 930q-9 -78 -47.5 -119.5t-101.5 -41.5q-19 0 -36 5t-42 18q-35 18 -51 18q-39 0 -45 -41h-116q9 78 47.5 119.5t101.5 41.5q19 0 36 -5t42 -18q37 -18 51 -18q39 0 45 41h116z" />
    <glyph glyph-name="Odieresis" unicode="&#xd6;" horiz-adv-x="793" 
d="M397 -18q-94 0 -163.5 37.5t-107.5 109t-38 170.5q0 118 49.5 216.5t141 157.5t207.5 59q94 0 163.5 -37.5t107.5 -109t38 -170.5q0 -118 -49.5 -216.5t-141 -157.5t-207.5 -59zM409 147q52 0 94 33.5t67 94t25 138.5q0 74 -31.5 114t-89.5 40q-52 0 -94 -33.5t-67 -94
t-25 -138.5q0 -74 31.5 -114t89.5 -40zM296 775l31 144h168l-31 -144h-168zM525 775l31 144h168l-31 -144h-168z" />
    <glyph glyph-name="multiply" unicode="&#xd7;" horiz-adv-x="592" 
d="M325 232l-158 -128l-92 114l160 131l-102 131l128 98l99 -128l155 126l88 -117l-154 -125l104 -134l-128 -98z" />
    <glyph glyph-name="Oslash" unicode="&#xd8;" horiz-adv-x="793" 
d="M67 3l80 91q-59 80 -59 205q0 118 49.5 216.5t141 157.5t207.5 59q105 0 181 -48l76 87l68 -60l-78 -88q62 -82 62 -208q0 -118 -49.5 -216.5t-141 -157.5t-207.5 -59q-110 0 -184 49l-77 -88zM547 549q-28 21 -72 21q-53 0 -96 -33.5t-69 -95.5t-26 -141q0 -29 4 -46z
M333 167q29 -23 75 -23q53 0 96.5 33.5t69 95t25.5 141.5q0 31 -4 51z" />
    <glyph glyph-name="Ugrave" unicode="&#xd9;" horiz-adv-x="718" 
d="M589 714h192l-92 -439q-31 -149 -113.5 -221t-224.5 -72q-131 0 -200.5 60.5t-69.5 175.5q0 44 11 95l84 401h193l-89 -420q-7 -36 -7 -57q0 -90 93 -90q55 0 86 33.5t48 113.5zM440 772l-132 155h198l95 -155h-161z" />
    <glyph glyph-name="Uacute" unicode="&#xda;" horiz-adv-x="718" 
d="M589 714h192l-92 -439q-31 -149 -113.5 -221t-224.5 -72q-131 0 -200.5 60.5t-69.5 175.5q0 44 11 95l84 401h193l-89 -420q-7 -36 -7 -57q0 -90 93 -90q55 0 86 33.5t48 113.5zM549 772h-178l161 155h215z" />
    <glyph glyph-name="Ucircumflex" unicode="&#xdb;" horiz-adv-x="718" 
d="M589 714h192l-92 -439q-31 -149 -113.5 -221t-224.5 -72q-131 0 -200.5 60.5t-69.5 175.5q0 44 11 95l84 401h193l-89 -420q-7 -36 -7 -57q0 -90 93 -90q55 0 86 33.5t48 113.5zM553 772l-45 69l-76 -69h-156l158 155h175l95 -155h-151z" />
    <glyph glyph-name="Udieresis" unicode="&#xdc;" horiz-adv-x="718" 
d="M589 714h192l-92 -439q-31 -149 -113.5 -221t-224.5 -72q-131 0 -200.5 60.5t-69.5 175.5q0 44 11 95l84 401h193l-89 -420q-7 -36 -7 -57q0 -90 93 -90q55 0 86 33.5t48 113.5zM292 775l31 144h168l-31 -144h-168zM521 775l31 144h168l-31 -144h-168z" />
    <glyph glyph-name="Yacute" unicode="&#xdd;" horiz-adv-x="690" 
d="M220 0l58 277l-147 437h199l73 -273l188 273h210l-330 -437l-59 -277h-192zM537 772h-178l161 155h215z" />
    <glyph glyph-name="Thorn" unicode="&#xde;" horiz-adv-x="651" 
d="M247 120l-25 -120h-186l151 714h186l-24 -112h61q124 0 190 -56t66 -163q0 -122 -84 -192.5t-229 -70.5h-106zM357 273q129 0 129 99q0 40 -23 59t-73 19h-73l-38 -177h78z" />
    <glyph glyph-name="germandbls" unicode="&#xdf;" horiz-adv-x="634" 
d="M293 140q31 -8 54 -8q45 0 70 24t25 68q0 79 -94 79h-30l28 135h26q40 0 63 21.5t23 59.5q0 64 -64 64q-70 0 -90 -93l-104 -490h-175l105 496q23 110 93 168t182 58q104 0 165.5 -48.5t61.5 -131.5q0 -55 -27.5 -96.5t-77.5 -61.5q92 -48 92 -164q0 -67 -31.5 -118
t-90 -80.5t-137.5 -29.5q-56 0 -113 17z" />
    <glyph glyph-name="agrave" unicode="&#xe0;" horiz-adv-x="585" 
d="M339 0l12 58q-35 -37 -73.5 -54.5t-84.5 -17.5q-71 0 -112.5 39t-41.5 106q0 87 72 134.5t214 55.5l78 4l3 16q2 13 2 19q0 26 -16 40t-46 14q-58 0 -75 -52l-160 13q11 51 44 88t86.5 57.5t122.5 20.5q103 0 157.5 -44.5t54.5 -129.5q0 -37 -7 -66l-64 -301h-166z
M381 222l-55 -3q-61 -4 -89 -19.5t-28 -46.5q0 -43 52 -43q38 0 68 21q37 24 47 69zM341 586l-126 165h192l90 -165h-156z" />
    <glyph glyph-name="aacute" unicode="&#xe1;" horiz-adv-x="585" 
d="M339 0l12 58q-35 -37 -73.5 -54.5t-84.5 -17.5q-71 0 -112.5 39t-41.5 106q0 87 72 134.5t214 55.5l78 4l3 16q2 13 2 19q0 26 -16 40t-46 14q-58 0 -75 -52l-160 13q11 51 44 88t86.5 57.5t122.5 20.5q103 0 157.5 -44.5t54.5 -129.5q0 -37 -7 -66l-64 -301h-166z
M381 222l-55 -3q-61 -4 -89 -19.5t-28 -46.5q0 -43 52 -43q38 0 68 21q37 24 47 69zM444 586h-171l159 165h207z" />
    <glyph glyph-name="acircumflex" unicode="&#xe2;" horiz-adv-x="585" 
d="M339 0l12 58q-35 -37 -73.5 -54.5t-84.5 -17.5q-71 0 -112.5 39t-41.5 106q0 87 72 134.5t214 55.5l78 4l3 16q2 13 2 19q0 26 -16 40t-46 14q-58 0 -75 -52l-160 13q11 51 44 88t86.5 57.5t122.5 20.5q103 0 157.5 -44.5t54.5 -129.5q0 -37 -7 -66l-64 -301h-166z
M381 222l-55 -3q-61 -4 -89 -19.5t-28 -46.5q0 -43 52 -43q38 0 68 21q37 24 47 69zM451 586l-44 77l-76 -77h-152l159 165h166l93 -165h-146z" />
    <glyph glyph-name="atilde" unicode="&#xe3;" horiz-adv-x="585" 
d="M339 0l12 58q-35 -37 -73.5 -54.5t-84.5 -17.5q-71 0 -112.5 39t-41.5 106q0 87 72 134.5t214 55.5l78 4l3 16q2 13 2 19q0 26 -16 40t-46 14q-58 0 -75 -52l-160 13q11 51 44 88t86.5 57.5t122.5 20.5q103 0 157.5 -44.5t54.5 -129.5q0 -37 -7 -66l-64 -301h-166z
M381 222l-55 -3q-61 -4 -89 -19.5t-28 -46.5q0 -43 52 -43q38 0 68 21q37 24 47 69zM622 751q-8 -77 -46 -119t-99 -42q-34 0 -77 23q-22 11 -31.5 14.5t-17.5 3.5q-21 0 -31.5 -10t-13.5 -32h-113q8 77 46 119t99 42q34 0 77 -23q22 -11 31.5 -14.5t17.5 -3.5q21 0 31.5 10
t13.5 32h113z" />
    <glyph glyph-name="adieresis" unicode="&#xe4;" horiz-adv-x="585" 
d="M339 0l12 58q-35 -37 -73.5 -54.5t-84.5 -17.5q-71 0 -112.5 39t-41.5 106q0 87 72 134.5t214 55.5l78 4l3 16q2 13 2 19q0 26 -16 40t-46 14q-58 0 -75 -52l-160 13q11 51 44 88t86.5 57.5t122.5 20.5q103 0 157.5 -44.5t54.5 -129.5q0 -37 -7 -66l-64 -301h-166z
M381 222l-55 -3q-61 -4 -89 -19.5t-28 -46.5q0 -43 52 -43q38 0 68 21q37 24 47 69zM418 583l29 133h160l-29 -133h-160zM198 583l29 133h160l-29 -133h-160z" />
    <glyph glyph-name="aring" unicode="&#xe5;" horiz-adv-x="585" 
d="M339 0l12 58q-35 -37 -73.5 -54.5t-84.5 -17.5q-71 0 -112.5 39t-41.5 106q0 87 72 134.5t214 55.5l78 4l3 16q2 13 2 19q0 26 -16 40t-46 14q-58 0 -75 -52l-160 13q11 51 44 88t86.5 57.5t122.5 20.5q103 0 157.5 -44.5t54.5 -129.5q0 -37 -7 -66l-64 -301h-166z
M381 222l-55 -3q-61 -4 -89 -19.5t-28 -46.5q0 -43 52 -43q38 0 68 21q37 24 47 69zM514 699q0 -55 -34.5 -88t-91.5 -33t-91.5 33t-34.5 88t34.5 88.5t91.5 33.5t91.5 -33.5t34.5 -88.5zM428 699q0 42 -41 42q-39 0 -39 -42q0 -20 10.5 -30.5t28.5 -10.5q20 0 30.5 11
t10.5 30z" />
    <glyph glyph-name="ae" unicode="&#xe6;" horiz-adv-x="903" 
d="M870 169q-17 -85 -84.5 -135t-166.5 -50q-139 0 -188 103q-75 -101 -219 -101q-85 0 -129 37t-44 108q0 87 72 134.5t214 55.5l78 4l3 16q2 13 2 19q0 26 -16 40t-46 14q-58 0 -75 -52l-160 13q15 75 82 120.5t162 45.5q108 0 154 -61q71 61 171 61q97 0 153.5 -59.5
t56.5 -161.5q0 -33 -6 -66l-6 -34h-331q0 -56 18.5 -81t59.5 -25q31 0 49 13t26 42h170zM381 222l-55 -3q-61 -4 -89 -19.5t-28 -46.5q0 -43 52 -43q38 0 68 21q37 24 47 69zM725 323q3 14 3 25q0 31 -17.5 48t-49.5 17q-36 0 -61 -23t-36 -67h161z" />
    <glyph glyph-name="ccedilla" unicode="&#xe7;" horiz-adv-x="577" 
d="M567 201q-18 -102 -89 -159.5t-179 -57.5q-113 0 -174 61t-61 175q0 91 37 163.5t106 115t159 42.5q98 0 155.5 -51.5t61.5 -142.5l-173 -22q-4 73 -56 73q-29 0 -53.5 -22t-39 -62.5t-14.5 -91.5q0 -49 16.5 -72t50.5 -23q31 0 50 18t29 56h174zM173 -138q40 -5 63 -5
q26 0 37.5 5.5t11.5 18.5t-11.5 18.5t-38.5 5.5h-34l57 101l87 -6l-25 -46q81 -13 81 -79q0 -48 -42 -73.5t-121 -25.5q-48 0 -80 7z" />
    <glyph glyph-name="egrave" unicode="&#xe8;" horiz-adv-x="595" 
d="M564 169q-19 -88 -87 -136.5t-172 -48.5q-117 0 -179 61t-62 176q0 91 36.5 163.5t104.5 114.5t156 42q104 0 163.5 -59.5t59.5 -163.5q0 -31 -6 -64l-6 -34h-336q0 -56 19 -81t62 -25q32 0 50.5 13.5t26.5 41.5h170zM419 323q3 14 3 25q0 31 -18.5 48t-50.5 17
q-74 0 -100 -90h166zM322 586l-126 165h192l90 -165h-156z" />
    <glyph glyph-name="eacute" unicode="&#xe9;" horiz-adv-x="595" 
d="M564 169q-19 -88 -87 -136.5t-172 -48.5q-117 0 -179 61t-62 176q0 91 36.5 163.5t104.5 114.5t156 42q104 0 163.5 -59.5t59.5 -163.5q0 -31 -6 -64l-6 -34h-336q0 -56 19 -81t62 -25q32 0 50.5 13.5t26.5 41.5h170zM419 323q3 14 3 25q0 31 -18.5 48t-50.5 17
q-74 0 -100 -90h166zM425 586h-171l159 165h207z" />
    <glyph glyph-name="ecircumflex" unicode="&#xea;" horiz-adv-x="595" 
d="M564 169q-19 -88 -87 -136.5t-172 -48.5q-117 0 -179 61t-62 176q0 91 36.5 163.5t104.5 114.5t156 42q104 0 163.5 -59.5t59.5 -163.5q0 -31 -6 -64l-6 -34h-336q0 -56 19 -81t62 -25q32 0 50.5 13.5t26.5 41.5h170zM419 323q3 14 3 25q0 31 -18.5 48t-50.5 17
q-74 0 -100 -90h166zM432 586l-44 77l-76 -77h-152l159 165h166l93 -165h-146z" />
    <glyph glyph-name="edieresis" unicode="&#xeb;" horiz-adv-x="595" 
d="M564 169q-19 -88 -87 -136.5t-172 -48.5q-117 0 -179 61t-62 176q0 91 36.5 163.5t104.5 114.5t156 42q104 0 163.5 -59.5t59.5 -163.5q0 -31 -6 -64l-6 -34h-336q0 -56 19 -81t62 -25q32 0 50.5 13.5t26.5 41.5h170zM419 323q3 14 3 25q0 31 -18.5 48t-50.5 17
q-74 0 -100 -90h166zM399 583l29 133h160l-29 -133h-160zM179 583l29 133h160l-29 -133h-160z" />
    <glyph glyph-name="igrave" unicode="&#xec;" horiz-adv-x="291" 
d="M25 0l111 525h181l-111 -525h-181zM191 586l-126 165h192l90 -165h-156z" />
    <glyph glyph-name="iacute" unicode="&#xed;" horiz-adv-x="291" 
d="M25 0l111 525h181l-111 -525h-181zM294 586h-171l159 165h207z" />
    <glyph glyph-name="icircumflex" unicode="&#xee;" horiz-adv-x="291" 
d="M25 0l111 525h181l-111 -525h-181zM301 586l-44 77l-76 -77h-152l159 165h166l93 -165h-146z" />
    <glyph glyph-name="idieresis" unicode="&#xef;" horiz-adv-x="291" 
d="M25 0l111 525h181l-111 -525h-181zM268 583l29 133h160l-29 -133h-160zM48 583l29 133h160l-29 -133h-160z" />
    <glyph glyph-name="eth" unicode="&#xf0;" horiz-adv-x="624" 
d="M518 663q108 -90 108 -279q0 -116 -39.5 -206.5t-113.5 -142t-174 -51.5q-110 0 -176 62.5t-66 167.5q0 72 32.5 132.5t92.5 97.5t134 37q44 0 81 -14t62 -40v7q0 79 -59 131l-70 -59l-45 55l48 41q-38 13 -84 17l31 128q103 -9 174 -43l81 68l46 -56zM419 256
q0 42 -20 65t-56 23q-47 0 -76 -36t-29 -95q0 -44 19 -67t56 -23q47 0 76.5 37t29.5 96z" />
    <glyph glyph-name="ntilde" unicode="&#xf1;" horiz-adv-x="610" 
d="M349 0l66 311q4 16 4 31q0 50 -48 50q-32 0 -62 -22q-29 -23 -38 -62l-65 -308h-181l111 525h176l-13 -62q66 78 159 78q69 0 108 -41t39 -114q0 -28 -6 -58l-69 -328h-181zM634 751q-8 -77 -46 -119t-99 -42q-34 0 -77 23q-22 11 -31.5 14.5t-17.5 3.5q-21 0 -31.5 -10
t-13.5 -32h-113q8 77 46 119t99 42q34 0 77 -23q22 -11 31.5 -14.5t17.5 -3.5q21 0 31.5 10t13.5 32h113z" />
    <glyph glyph-name="ograve" unicode="&#xf2;" horiz-adv-x="622" 
d="M301 -16q-107 0 -172 63t-65 168q0 94 37.5 167.5t108 116t163.5 42.5q107 0 172 -63t65 -168q0 -94 -37.5 -167.5t-108 -116t-163.5 -42.5zM313 127q49 0 82 52t33 131q0 42 -17.5 65t-49.5 23q-49 0 -82 -52t-33 -131q0 -42 17.5 -65t49.5 -23zM334 586l-126 165h192
l90 -165h-156z" />
    <glyph glyph-name="oacute" unicode="&#xf3;" horiz-adv-x="622" 
d="M301 -16q-107 0 -172 63t-65 168q0 94 37.5 167.5t108 116t163.5 42.5q107 0 172 -63t65 -168q0 -94 -37.5 -167.5t-108 -116t-163.5 -42.5zM313 127q49 0 82 52t33 131q0 42 -17.5 65t-49.5 23q-49 0 -82 -52t-33 -131q0 -42 17.5 -65t49.5 -23zM437 586h-171l159 165
h207z" />
    <glyph glyph-name="ocircumflex" unicode="&#xf4;" horiz-adv-x="622" 
d="M301 -16q-107 0 -172 63t-65 168q0 94 37.5 167.5t108 116t163.5 42.5q107 0 172 -63t65 -168q0 -94 -37.5 -167.5t-108 -116t-163.5 -42.5zM313 127q49 0 82 52t33 131q0 42 -17.5 65t-49.5 23q-49 0 -82 -52t-33 -131q0 -42 17.5 -65t49.5 -23zM444 586l-44 77l-76 -77
h-152l159 165h166l93 -165h-146z" />
    <glyph glyph-name="otilde" unicode="&#xf5;" horiz-adv-x="622" 
d="M301 -16q-107 0 -172 63t-65 168q0 94 37.5 167.5t108 116t163.5 42.5q107 0 172 -63t65 -168q0 -94 -37.5 -167.5t-108 -116t-163.5 -42.5zM313 127q49 0 82 52t33 131q0 42 -17.5 65t-49.5 23q-49 0 -82 -52t-33 -131q0 -42 17.5 -65t49.5 -23zM615 751
q-8 -77 -46 -119t-99 -42q-34 0 -77 23q-22 11 -31.5 14.5t-17.5 3.5q-21 0 -31.5 -10t-13.5 -32h-113q8 77 46 119t99 42q34 0 77 -23q22 -11 31.5 -14.5t17.5 -3.5q21 0 31.5 10t13.5 32h113z" />
    <glyph glyph-name="odieresis" unicode="&#xf6;" horiz-adv-x="622" 
d="M301 -16q-107 0 -172 63t-65 168q0 94 37.5 167.5t108 116t163.5 42.5q107 0 172 -63t65 -168q0 -94 -37.5 -167.5t-108 -116t-163.5 -42.5zM313 127q49 0 82 52t33 131q0 42 -17.5 65t-49.5 23q-49 0 -82 -52t-33 -131q0 -42 17.5 -65t49.5 -23zM411 583l29 133h160
l-29 -133h-160zM191 583l29 133h160l-29 -133h-160z" />
    <glyph glyph-name="divide" unicode="&#xf7;" horiz-adv-x="592" 
d="M86 262l34 157h474l-34 -157h-474zM292 471l30 140h152l-30 -140h-152zM206 70l30 140h152l-30 -140h-152z" />
    <glyph glyph-name="oslash" unicode="&#xf8;" horiz-adv-x="622" 
d="M33 -7l73 80q-42 59 -42 150q0 88 38 160t108.5 115t160.5 43q74 0 132 -32l64 70l62 -57l-63 -69q44 -60 44 -152q0 -88 -38.5 -160t-108.5 -114.5t-160 -42.5q-76 0 -135 31l-72 -79zM400 395q-16 9 -38 9q-35 0 -64 -23t-46.5 -65t-17.5 -95v-8zM440 314l-168 -185
q17 -9 40 -9q35 0 64 23t46.5 65t17.5 95v11z" />
    <glyph glyph-name="ugrave" unicode="&#xf9;" horiz-adv-x="605" 
d="M344 0l13 62q-64 -78 -156 -78q-68 0 -106.5 41t-38.5 114q0 28 6 58l69 328h181l-66 -311q-4 -16 -4 -31q0 -50 46 -50q16 0 32 6t28 16q28 22 37 62l65 308h181l-111 -525h-176zM345 586l-126 165h192l90 -165h-156z" />
    <glyph glyph-name="uacute" unicode="&#xfa;" horiz-adv-x="605" 
d="M344 0l13 62q-64 -78 -156 -78q-68 0 -106.5 41t-38.5 114q0 28 6 58l69 328h181l-66 -311q-4 -16 -4 -31q0 -50 46 -50q16 0 32 6t28 16q28 22 37 62l65 308h181l-111 -525h-176zM448 586h-171l159 165h207z" />
    <glyph glyph-name="ucircumflex" unicode="&#xfb;" horiz-adv-x="605" 
d="M344 0l13 62q-64 -78 -156 -78q-68 0 -106.5 41t-38.5 114q0 28 6 58l69 328h181l-66 -311q-4 -16 -4 -31q0 -50 46 -50q16 0 32 6t28 16q28 22 37 62l65 308h181l-111 -525h-176zM455 586l-44 77l-76 -77h-152l159 165h166l93 -165h-146z" />
    <glyph glyph-name="udieresis" unicode="&#xfc;" horiz-adv-x="605" 
d="M344 0l13 62q-64 -78 -156 -78q-68 0 -106.5 41t-38.5 114q0 28 6 58l69 328h181l-66 -311q-4 -16 -4 -31q0 -50 46 -50q16 0 32 6t28 16q28 22 37 62l65 308h181l-111 -525h-176zM422 583l29 133h160l-29 -133h-160zM202 583l29 133h160l-29 -133h-160z" />
    <glyph glyph-name="yacute" unicode="&#xfd;" horiz-adv-x="596" 
d="M204 44l-112 481h190l40 -293l152 293h194l-323 -537q-45 -76 -80.5 -114t-73 -53t-88.5 -15q-60 0 -116 24l50 130q27 -12 60 -12q28 0 46.5 12t36.5 43zM448 586h-171l159 165h207z" />
    <glyph glyph-name="thorn" unicode="&#xfe;" horiz-adv-x="634" 
d="M-16 -194l193 908h181l-51 -242q27 33 65.5 51t81.5 18q81 0 125 -57t44 -161q0 -92 -33 -169t-92.5 -123.5t-133.5 -46.5q-49 0 -86 19.5t-59 57.5l-54 -255h-181zM257 245q-3 -18 -3 -33q0 -40 18.5 -62t51.5 -22q49 0 81 49t32 125q0 93 -68 93q-38 0 -66 -29t-37 -79
z" />
    <glyph glyph-name="ydieresis" unicode="&#xff;" horiz-adv-x="596" 
d="M204 44l-112 481h190l40 -293l152 293h194l-323 -537q-45 -76 -80.5 -114t-73 -53t-88.5 -15q-60 0 -116 24l50 130q27 -12 60 -12q28 0 46.5 12t36.5 43zM422 583l29 133h160l-29 -133h-160zM202 583l29 133h160l-29 -133h-160z" />
    <glyph glyph-name="Amacron" unicode="&#x100;" horiz-adv-x="744" 
d="M503 0l-13 137h-239l-69 -137h-195l397 714h218l97 -714h-196zM454 536l-125 -246h147zM343 784l29 132h329l-29 -132h-329z" />
    <glyph glyph-name="amacron" unicode="&#x101;" horiz-adv-x="585" 
d="M339 0l12 58q-35 -37 -73.5 -54.5t-84.5 -17.5q-71 0 -112.5 39t-41.5 106q0 87 72 134.5t214 55.5l78 4l3 16q2 13 2 19q0 26 -16 40t-46 14q-58 0 -75 -52l-160 13q11 51 44 88t86.5 57.5t122.5 20.5q103 0 157.5 -44.5t54.5 -129.5q0 -37 -7 -66l-64 -301h-166z
M381 222l-55 -3q-61 -4 -89 -19.5t-28 -46.5q0 -43 52 -43q38 0 68 21q37 24 47 69zM233 594l27 129h315l-27 -129h-315z" />
    <glyph glyph-name="Abreve" unicode="&#x102;" horiz-adv-x="744" 
d="M503 0l-13 137h-239l-69 -137h-195l397 714h218l97 -714h-196zM454 536l-125 -246h147zM704 931q-12 -80 -62.5 -121t-138.5 -41q-75 0 -119 35t-44 94q0 22 4 33h127q-1 -6 -1 -15q0 -42 44 -42q27 0 42 14t20 43h128z" />
    <glyph glyph-name="abreve" unicode="&#x103;" horiz-adv-x="585" 
d="M339 0l12 58q-35 -37 -73.5 -54.5t-84.5 -17.5q-71 0 -112.5 39t-41.5 106q0 87 72 134.5t214 55.5l78 4l3 16q2 13 2 19q0 26 -16 40t-46 14q-58 0 -75 -52l-160 13q11 51 44 88t86.5 57.5t122.5 20.5q103 0 157.5 -44.5t54.5 -129.5q0 -37 -7 -66l-64 -301h-166z
M381 222l-55 -3q-61 -4 -89 -19.5t-28 -46.5q0 -43 52 -43q38 0 68 21q37 24 47 69zM587 749q-24 -167 -196 -167q-75 0 -118 35.5t-43 96.5q0 20 3 35h124q-2 -12 -2 -18q2 -44 45 -44q52 0 61 62h126z" />
    <glyph glyph-name="Aogonek" unicode="&#x104;" horiz-adv-x="744" 
d="M503 0l-13 137h-239l-69 -137h-195l397 714h218l97 -714h-196zM454 536l-125 -246h147zM653 -204q-26 -5 -67 -5q-62 0 -96.5 22t-34.5 62q0 39 29.5 71t91.5 60l123 -6q-92 -44 -92 -79q0 -25 39 -25q4 0 11.5 0.5t17.5 1.5z" />
    <glyph glyph-name="aogonek" unicode="&#x105;" horiz-adv-x="585" 
d="M339 0l12 58q-35 -37 -73.5 -54.5t-84.5 -17.5q-71 0 -112.5 39t-41.5 106q0 87 72 134.5t214 55.5l78 4l3 16q2 13 2 19q0 26 -16 40t-46 14q-58 0 -75 -52l-160 13q11 51 44 88t86.5 57.5t122.5 20.5q103 0 157.5 -44.5t54.5 -129.5q0 -37 -7 -66l-64 -301h-166z
M381 222l-55 -3q-61 -4 -89 -19.5t-28 -46.5q0 -43 52 -43q38 0 68 21q37 24 47 69zM459 -201q-28 -5 -64 -5q-61 0 -93 21t-32 61q0 39 27 70t87 60l121 -6q-47 -22 -68 -40.5t-21 -37.5q0 -24 38 -24q18 0 27 1z" />
    <glyph glyph-name="Cacute" unicode="&#x106;" horiz-adv-x="728" 
d="M732 261q-22 -132 -111.5 -205.5t-226.5 -73.5q-145 0 -225.5 84.5t-80.5 237.5q0 120 48.5 217t137 154t202.5 57q124 0 198.5 -67t81.5 -184l-191 -25q-9 111 -103 111q-49 0 -88 -32t-62 -91.5t-23 -136.5q0 -160 120 -160q49 0 80 28t46 86h197zM543 772h-178
l161 155h215z" />
    <glyph glyph-name="cacute" unicode="&#x107;" horiz-adv-x="577" 
d="M567 201q-18 -102 -89 -159.5t-179 -57.5q-113 0 -174 61t-61 175q0 91 37 163.5t106 115t159 42.5q98 0 155.5 -51.5t61.5 -142.5l-173 -22q-4 73 -56 73q-29 0 -53.5 -22t-39 -62.5t-14.5 -91.5q0 -49 16.5 -72t50.5 -23q31 0 50 18t29 56h174zM430 586h-171l159 165
h207z" />
    <glyph glyph-name="Ccircumflex" unicode="&#x108;" horiz-adv-x="728" 
d="M732 261q-22 -132 -111.5 -205.5t-226.5 -73.5q-145 0 -225.5 84.5t-80.5 237.5q0 120 48.5 217t137 154t202.5 57q124 0 198.5 -67t81.5 -184l-191 -25q-9 111 -103 111q-49 0 -88 -32t-62 -91.5t-23 -136.5q0 -160 120 -160q49 0 80 28t46 86h197zM547 772l-45 69
l-76 -69h-156l158 155h175l95 -155h-151z" />
    <glyph glyph-name="ccircumflex" unicode="&#x109;" horiz-adv-x="577" 
d="M567 201q-18 -102 -89 -159.5t-179 -57.5q-113 0 -174 61t-61 175q0 91 37 163.5t106 115t159 42.5q98 0 155.5 -51.5t61.5 -142.5l-173 -22q-4 73 -56 73q-29 0 -53.5 -22t-39 -62.5t-14.5 -91.5q0 -49 16.5 -72t50.5 -23q31 0 50 18t29 56h174zM437 586l-44 77l-76 -77
h-152l159 165h166l93 -165h-146z" />
    <glyph glyph-name="Cdotaccent" unicode="&#x10a;" horiz-adv-x="728" 
d="M732 261q-22 -132 -111.5 -205.5t-226.5 -73.5q-145 0 -225.5 84.5t-80.5 237.5q0 120 48.5 217t137 154t202.5 57q124 0 198.5 -67t81.5 -184l-191 -25q-9 111 -103 111q-49 0 -88 -32t-62 -91.5t-23 -136.5q0 -160 120 -160q49 0 80 28t46 86h197zM392 775l31 147h184
l-31 -147h-184z" />
    <glyph glyph-name="cdotaccent" unicode="&#x10b;" horiz-adv-x="577" 
d="M567 201q-18 -102 -89 -159.5t-179 -57.5q-113 0 -174 61t-61 175q0 91 37 163.5t106 115t159 42.5q98 0 155.5 -51.5t61.5 -142.5l-173 -22q-4 73 -56 73q-29 0 -53.5 -22t-39 -62.5t-14.5 -91.5q0 -49 16.5 -72t50.5 -23q31 0 50 18t29 56h174zM282 583l28 131h183
l-28 -131h-183z" />
    <glyph glyph-name="Ccaron" unicode="&#x10c;" horiz-adv-x="728" 
d="M732 261q-22 -132 -111.5 -205.5t-226.5 -73.5q-145 0 -225.5 84.5t-80.5 237.5q0 120 48.5 217t137 154t202.5 57q124 0 198.5 -67t81.5 -184l-191 -25q-9 111 -103 111q-49 0 -88 -32t-62 -91.5t-23 -136.5q0 -160 120 -160q49 0 80 28t46 86h197zM570 772h-175
l-95 155h151l45 -69l76 69h156z" />
    <glyph glyph-name="ccaron" unicode="&#x10d;" horiz-adv-x="577" 
d="M567 201q-18 -102 -89 -159.5t-179 -57.5q-113 0 -174 61t-61 175q0 91 37 163.5t106 115t159 42.5q98 0 155.5 -51.5t61.5 -142.5l-173 -22q-4 73 -56 73q-29 0 -53.5 -22t-39 -62.5t-14.5 -91.5q0 -49 16.5 -72t50.5 -23q31 0 50 18t29 56h174zM291 586l-93 165h146
l44 -77l76 77h152l-159 -165h-166z" />
    <glyph glyph-name="Dcaron" unicode="&#x10e;" horiz-adv-x="753" 
d="M36 0l151 714h254q148 0 231 -83t83 -230q0 -118 -52 -208.5t-150.5 -141.5t-230.5 -51h-286zM340 162q98 0 157.5 65t59.5 172q0 76 -34.5 114.5t-102.5 38.5h-78l-83 -390h81zM547 772h-175l-95 155h151l45 -69l76 69h156z" />
    <glyph glyph-name="dcaron" unicode="&#x10f;" horiz-adv-x="634" 
d="M373 0l12 61q-29 -37 -68 -57t-85 -20q-81 0 -125 57t-44 161q0 92 33 169t92.5 123.5t133.5 46.5q50 0 87 -19.5t58 -56.5l52 249h181l-151 -714h-176zM429 280q3 18 3 33q0 40 -18.5 62t-51.5 22q-49 0 -81 -49t-32 -125q0 -93 68 -93q37 0 64.5 28.5t38.5 79.5z
M705 442l89 272h168l-123 -272h-134z" />
    <glyph glyph-name="Dcroat" unicode="&#x110;" horiz-adv-x="778" 
d="M61 0l60 286h-78l32 152h78l59 276h254q148 0 231 -83t83 -230q0 -118 -52.5 -208.5t-150.5 -141.5t-230 -51h-286zM365 162q98 0 157.5 65t59.5 172q0 76 -34.5 114.5t-102.5 38.5h-83l-24 -114h123l-32 -152h-124l-26 -124h86z" />
    <glyph glyph-name="dcroat" unicode="&#x111;" horiz-adv-x="637" 
d="M374 0l11 57q-27 -36 -65.5 -54.5t-84.5 -18.5q-82 0 -128 55t-46 153q0 84 32.5 155.5t92 115t133.5 43.5q94 0 140 -75l26 121h-146l21 101h146l13 61h182l-13 -61h64l-21 -101h-65l-117 -552h-175zM425 255q2 7 2.5 13.5t0.5 13.5q0 37 -19.5 58.5t-53.5 21.5
q-46 0 -77 -42.5t-31 -105.5q0 -41 17.5 -62.5t51.5 -21.5q39 0 66.5 25.5t36.5 69.5z" />
    <glyph glyph-name="Emacron" unicode="&#x112;" horiz-adv-x="622" 
d="M36 0l151 714h511l-33 -158h-322l-24 -114h301l-34 -158h-301l-26 -126h340l-46 -158h-517zM309 784l29 132h329l-29 -132h-329z" />
    <glyph glyph-name="emacron" unicode="&#x113;" horiz-adv-x="595" 
d="M564 169q-19 -88 -87 -136.5t-172 -48.5q-117 0 -179 61t-62 176q0 91 36.5 163.5t104.5 114.5t156 42q104 0 163.5 -59.5t59.5 -163.5q0 -31 -6 -64l-6 -34h-336q0 -56 19 -81t62 -25q32 0 50.5 13.5t26.5 41.5h170zM419 323q3 14 3 25q0 31 -18.5 48t-50.5 17
q-74 0 -100 -90h166zM214 594l27 129h315l-27 -129h-315z" />
    <glyph glyph-name="Ebreve" unicode="&#x114;" horiz-adv-x="622" 
d="M36 0l151 714h511l-33 -158h-322l-24 -114h301l-34 -158h-301l-26 -126h340l-46 -158h-517zM670 931q-12 -80 -62.5 -121t-138.5 -41q-75 0 -119 35t-44 94q0 22 4 33h127q-1 -6 -1 -15q0 -42 44 -42q27 0 42 14t20 43h128z" />
    <glyph glyph-name="ebreve" unicode="&#x115;" horiz-adv-x="595" 
d="M564 169q-19 -88 -87 -136.5t-172 -48.5q-117 0 -179 61t-62 176q0 91 36.5 163.5t104.5 114.5t156 42q104 0 163.5 -59.5t59.5 -163.5q0 -31 -6 -64l-6 -34h-336q0 -56 19 -81t62 -25q32 0 50.5 13.5t26.5 41.5h170zM419 323q3 14 3 25q0 31 -18.5 48t-50.5 17
q-74 0 -100 -90h166zM568 749q-24 -167 -196 -167q-75 0 -118 35.5t-43 96.5q0 20 3 35h124q-2 -12 -2 -18q2 -44 45 -44q52 0 61 62h126z" />
    <glyph glyph-name="Edotaccent" unicode="&#x116;" horiz-adv-x="622" 
d="M36 0l151 714h511l-33 -158h-322l-24 -114h301l-34 -158h-301l-26 -126h340l-46 -158h-517zM379 775l31 147h184l-31 -147h-184z" />
    <glyph glyph-name="edotaccent" unicode="&#x117;" horiz-adv-x="595" 
d="M564 169q-19 -88 -87 -136.5t-172 -48.5q-117 0 -179 61t-62 176q0 91 36.5 163.5t104.5 114.5t156 42q104 0 163.5 -59.5t59.5 -163.5q0 -31 -6 -64l-6 -34h-336q0 -56 19 -81t62 -25q32 0 50.5 13.5t26.5 41.5h170zM419 323q3 14 3 25q0 31 -18.5 48t-50.5 17
q-74 0 -100 -90h166zM277 583l28 131h183l-28 -131h-183z" />
    <glyph glyph-name="Eogonek" unicode="&#x118;" horiz-adv-x="622" 
d="M36 0l151 714h511l-33 -158h-322l-24 -114h301l-34 -158h-301l-26 -126h340l-46 -158h-517zM507 -204q-26 -5 -67 -5q-62 0 -96.5 22t-34.5 62q0 39 29.5 71t91.5 60l123 -6q-92 -44 -92 -79q0 -25 39 -25q4 0 11.5 0.5t17.5 1.5z" />
    <glyph glyph-name="eogonek" unicode="&#x119;" horiz-adv-x="595" 
d="M564 169q-19 -88 -87 -136.5t-172 -48.5q-117 0 -179 61t-62 176q0 91 36.5 163.5t104.5 114.5t156 42q104 0 163.5 -59.5t59.5 -163.5q0 -31 -6 -64l-6 -34h-336q0 -56 19 -81t62 -25q32 0 50.5 13.5t26.5 41.5h170zM419 323q3 14 3 25q0 31 -18.5 48t-50.5 17
q-74 0 -100 -90h166zM366 -201q-30 -5 -64 -5q-61 0 -93 21t-32 61q0 39 27 70t87 60l121 -6q-47 -22 -68 -40.5t-21 -37.5q0 -24 38 -24q17 0 27 1z" />
    <glyph glyph-name="Ecaron" unicode="&#x11a;" horiz-adv-x="622" 
d="M36 0l151 714h511l-33 -158h-322l-24 -114h301l-34 -158h-301l-26 -126h340l-46 -158h-517zM557 772h-175l-95 155h151l45 -69l76 69h156z" />
    <glyph glyph-name="ecaron" unicode="&#x11b;" horiz-adv-x="595" 
d="M564 169q-19 -88 -87 -136.5t-172 -48.5q-117 0 -179 61t-62 176q0 91 36.5 163.5t104.5 114.5t156 42q104 0 163.5 -59.5t59.5 -163.5q0 -31 -6 -64l-6 -34h-336q0 -56 19 -81t62 -25q32 0 50.5 13.5t26.5 41.5h170zM419 323q3 14 3 25q0 31 -18.5 48t-50.5 17
q-74 0 -100 -90h166zM286 586l-93 165h146l44 -77l76 77h152l-159 -165h-166z" />
    <glyph glyph-name="Gcircumflex" unicode="&#x11c;" horiz-adv-x="751" 
d="M546 253h-114l33 155h291l-72 -337q-57 -41 -133.5 -65t-152.5 -24q-147 0 -228.5 85t-81.5 238q0 119 49 216t139.5 154t207.5 57q123 0 196 -61.5t79 -170.5l-191 -22q-12 92 -101 92q-80 0 -130.5 -71t-50.5 -186q0 -83 36 -126t105 -43q29 0 55.5 6.5t44.5 17.5z
M555 772l-45 69l-76 -69h-156l158 155h175l95 -155h-151z" />
    <glyph glyph-name="gcircumflex" unicode="&#x11d;" horiz-adv-x="634" 
d="M387 87q-58 -66 -146 -66q-84 0 -130.5 55.5t-46.5 153.5q0 83 32.5 153.5t91.5 114t132 43.5q52 0 91.5 -22t60.5 -62l14 69h175l-101 -471q-29 -138 -97 -199t-190 -61q-117 0 -182.5 48.5t-65.5 136.5h176q3 -28 20.5 -41t51.5 -13q45 0 68.5 28t38.5 99zM431 280
q4 16 4 33q0 37 -21.5 60.5t-55.5 23.5q-44 0 -75 -41.5t-31 -102.5q0 -85 72 -85q39 0 65.5 24.5t37.5 70.5zM466 586l-44 77l-76 -77h-152l159 165h166l93 -165h-146z" />
    <glyph glyph-name="Gbreve" unicode="&#x11e;" horiz-adv-x="751" 
d="M546 253h-114l33 155h291l-72 -337q-57 -41 -133.5 -65t-152.5 -24q-147 0 -228.5 85t-81.5 238q0 119 49 216t139.5 154t207.5 57q123 0 196 -61.5t79 -170.5l-191 -22q-12 92 -101 92q-80 0 -130.5 -71t-50.5 -186q0 -83 36 -126t105 -43q29 0 55.5 6.5t44.5 17.5z
M691 931q-12 -80 -62.5 -121t-138.5 -41q-75 0 -119 35t-44 94q0 22 4 33h127q-1 -6 -1 -15q0 -42 44 -42q27 0 42 14t20 43h128z" />
    <glyph glyph-name="gbreve" unicode="&#x11f;" horiz-adv-x="634" 
d="M387 87q-58 -66 -146 -66q-84 0 -130.5 55.5t-46.5 153.5q0 83 32.5 153.5t91.5 114t132 43.5q52 0 91.5 -22t60.5 -62l14 69h175l-101 -471q-29 -138 -97 -199t-190 -61q-117 0 -182.5 48.5t-65.5 136.5h176q3 -28 20.5 -41t51.5 -13q45 0 68.5 28t38.5 99zM431 280
q4 16 4 33q0 37 -21.5 60.5t-55.5 23.5q-44 0 -75 -41.5t-31 -102.5q0 -85 72 -85q39 0 65.5 24.5t37.5 70.5zM602 749q-24 -167 -196 -167q-75 0 -118 35.5t-43 96.5q0 20 3 35h124q-2 -12 -2 -18q2 -44 45 -44q52 0 61 62h126z" />
    <glyph glyph-name="Gdotaccent" unicode="&#x120;" horiz-adv-x="751" 
d="M546 253h-114l33 155h291l-72 -337q-57 -41 -133.5 -65t-152.5 -24q-147 0 -228.5 85t-81.5 238q0 119 49 216t139.5 154t207.5 57q123 0 196 -61.5t79 -170.5l-191 -22q-12 92 -101 92q-80 0 -130.5 -71t-50.5 -186q0 -83 36 -126t105 -43q29 0 55.5 6.5t44.5 17.5z
M400 775l31 147h184l-31 -147h-184z" />
    <glyph glyph-name="gdotaccent" unicode="&#x121;" horiz-adv-x="634" 
d="M387 87q-58 -66 -146 -66q-84 0 -130.5 55.5t-46.5 153.5q0 83 32.5 153.5t91.5 114t132 43.5q52 0 91.5 -22t60.5 -62l14 69h175l-101 -471q-29 -138 -97 -199t-190 -61q-117 0 -182.5 48.5t-65.5 136.5h176q3 -28 20.5 -41t51.5 -13q45 0 68.5 28t38.5 99zM431 280
q4 16 4 33q0 37 -21.5 60.5t-55.5 23.5q-44 0 -75 -41.5t-31 -102.5q0 -85 72 -85q39 0 65.5 24.5t37.5 70.5zM311 583l28 131h183l-28 -131h-183z" />
    <glyph glyph-name="uni0122" unicode="&#x122;" horiz-adv-x="751" 
d="M546 253h-114l33 155h291l-72 -337q-57 -41 -133.5 -65t-152.5 -24q-147 0 -228.5 85t-81.5 238q0 119 49 216t139.5 154t207.5 57q123 0 196 -61.5t79 -170.5l-191 -22q-12 92 -101 92q-80 0 -130.5 -71t-50.5 -186q0 -83 36 -126t105 -43q29 0 55.5 6.5t44.5 17.5z
M165 -236l121 170h204l-156 -170h-169z" />
    <glyph glyph-name="uni0123" unicode="&#x123;" horiz-adv-x="634" 
d="M387 87q-58 -66 -146 -66q-84 0 -130.5 55.5t-46.5 153.5q0 83 32.5 153.5t91.5 114t132 43.5q52 0 91.5 -22t60.5 -62l14 69h175l-101 -471q-29 -138 -97 -199t-190 -61q-117 0 -182.5 48.5t-65.5 136.5h176q3 -28 20.5 -41t51.5 -13q45 0 68.5 28t38.5 99zM431 280
q4 16 4 33q0 37 -21.5 60.5t-55.5 23.5q-44 0 -75 -41.5t-31 -102.5q0 -85 72 -85q39 0 65.5 24.5t37.5 70.5zM303 586l151 167h167l-115 -167h-203z" />
    <glyph glyph-name="Hcircumflex" unicode="&#x124;" horiz-adv-x="748" 
d="M460 0l59 282h-232l-59 -282h-192l151 714h192l-55 -259h232l55 259h192l-151 -714h-192zM570 772l-45 69l-76 -69h-156l158 155h175l95 -155h-151z" />
    <glyph glyph-name="hcircumflex" unicode="&#x125;" horiz-adv-x="610" 
d="M349 0l66 311q4 16 4 31q0 50 -48 50q-32 0 -62 -22q-29 -23 -38 -62l-65 -308h-181l151 714h181l-52 -244q65 71 153 71q69 0 108 -41t39 -114q0 -28 -6 -58l-69 -328h-181zM467 772l-45 69l-76 -69h-156l158 155h175l95 -155h-151z" />
    <glyph glyph-name="Hbar" unicode="&#x126;" horiz-adv-x="798" 
d="M485 0l54 256h-232l-54 -256h-192l108 513h-79l27 127h79l16 74h192l-16 -74h232l16 74h192l-16 -74h80l-27 -127h-80l-108 -513h-192zM593 513h-232l-18 -89h232z" />
    <glyph glyph-name="hbar" unicode="&#x127;" horiz-adv-x="610" 
d="M349 0l59 276q4 16 4 31q0 50 -48 50q-32 0 -62 -22q-29 -23 -38 -62l-58 -273h-181l116 552h-60l22 101h60l13 61h181l-13 -61h151l-21 -101h-151l-25 -117q65 71 153 71q69 0 108 -41t39 -114q0 -28 -6 -58l-62 -293h-181z" />
    <glyph glyph-name="Itilde" unicode="&#x128;" horiz-adv-x="324" 
d="M36 0l151 714h192l-151 -714h-192zM533 930q-9 -78 -47.5 -119.5t-101.5 -41.5q-19 0 -36 5t-42 18q-35 18 -51 18q-39 0 -45 -41h-116q9 78 47.5 119.5t101.5 41.5q19 0 36 -5t42 -18q37 -18 51 -18q39 0 45 41h116z" />
    <glyph glyph-name="itilde" unicode="&#x129;" horiz-adv-x="291" 
d="M25 0l111 525h181l-111 -525h-181zM472 751q-8 -77 -46 -119t-99 -42q-34 0 -77 23q-22 11 -31.5 14.5t-17.5 3.5q-21 0 -31.5 -10t-13.5 -32h-113q8 77 46 119t99 42q34 0 77 -23q22 -11 31.5 -14.5t17.5 -3.5q21 0 31.5 10t13.5 32h113z" />
    <glyph glyph-name="Imacron" unicode="&#x12a;" horiz-adv-x="324" 
d="M36 0l151 714h192l-151 -714h-192zM133 784l29 132h329l-29 -132h-329z" />
    <glyph glyph-name="imacron" unicode="&#x12b;" horiz-adv-x="291" 
d="M25 0l111 525h181l-111 -525h-181zM83 594l27 129h315l-27 -129h-315z" />
    <glyph glyph-name="Ibreve" unicode="&#x12c;" horiz-adv-x="324" 
d="M36 0l151 714h192l-151 -714h-192zM494 931q-12 -80 -62.5 -121t-138.5 -41q-75 0 -119 35t-44 94q0 22 4 33h127q-1 -6 -1 -15q0 -42 44 -42q27 0 42 14t20 43h128z" />
    <glyph glyph-name="ibreve" unicode="&#x12d;" horiz-adv-x="291" 
d="M25 0l111 525h181l-111 -525h-181zM437 749q-24 -167 -196 -167q-75 0 -118 35.5t-43 96.5q0 20 3 35h124q-2 -12 -2 -18q2 -44 45 -44q52 0 61 62h126z" />
    <glyph glyph-name="Iogonek" unicode="&#x12e;" horiz-adv-x="324" 
d="M36 0l151 714h192l-151 -714h-192zM182 -204q-26 -5 -67 -5q-62 0 -96.5 22t-34.5 62q0 39 29.5 71t91.5 60l123 -6q-92 -44 -92 -79q0 -25 39 -25q4 0 11.5 0.5t17.5 1.5z" />
    <glyph glyph-name="iogonek" unicode="&#x12f;" horiz-adv-x="291" 
d="M25 0l111 525h181l-111 -525h-181zM145 583l28 131h183l-28 -131h-183zM160 -201q-28 -5 -64 -5q-61 0 -93 21t-32 61q0 39 27 70t87 60l121 -6q-47 -22 -68 -40.5t-21 -37.5q0 -24 38 -24q18 0 27 1z" />
    <glyph glyph-name="Idotaccent" unicode="&#x130;" horiz-adv-x="324" 
d="M36 0l151 714h192l-151 -714h-192zM203 775l31 147h184l-31 -147h-184z" />
    <glyph glyph-name="dotlessi" unicode="&#x131;" horiz-adv-x="291" 
d="M25 0l111 525h181l-111 -525h-181z" />
    <glyph glyph-name="IJ" unicode="&#x132;" horiz-adv-x="988" 
d="M36 0l151 714h192l-151 -714h-192zM858 714h192l-97 -462q-29 -136 -107 -203t-207 -67q-123 0 -192.5 66.5t-69.5 183.5q0 21 1 34h191v-21q0 -98 83 -98q44 0 70.5 29.5t40.5 95.5z" />
    <glyph glyph-name="ij" unicode="&#x133;" horiz-adv-x="587" 
d="M25 0l111 525h181l-111 -525h-181zM145 583l28 131h183l-28 -131h-183zM432 525h181l-111 -526q-20 -95 -69 -139t-137 -44q-74 0 -130 25l45 125q27 -9 51 -9q28 0 42 13.5t20 42.5zM441 583l28 131h183l-28 -131h-183z" />
    <glyph glyph-name="Jcircumflex" unicode="&#x134;" horiz-adv-x="664" 
d="M534 714h192l-97 -462q-29 -136 -107 -203t-207 -67q-123 0 -192.5 66.5t-69.5 183.5q0 21 1 34h191v-21q0 -98 83 -98q44 0 70.5 29.5t40.5 95.5zM705 772l-45 69l-76 -69h-156l158 155h175l95 -155h-151z" />
    <glyph glyph-name="jcircumflex" unicode="&#x135;" horiz-adv-x="296" 
d="M141 525h181l-111 -526q-20 -95 -69 -139t-137 -44q-74 0 -130 25l45 125q27 -9 51 -9q28 0 42 13.5t20 42.5zM306 586l-44 77l-76 -77h-152l159 165h166l93 -165h-146z" />
    <glyph glyph-name="uni0136" unicode="&#x136;" horiz-adv-x="716" 
d="M477 0l-108 306l-94 -87l-47 -219h-192l151 714h192l-53 -253l264 253h215l-291 -282l166 -432h-203zM121 -236l121 170h204l-156 -170h-169z" />
    <glyph glyph-name="uni0137" unicode="&#x137;" horiz-adv-x="615" 
d="M398 0l-88 232l-74 -58l-37 -174h-174l151 714h174l-73 -348l194 159h209l-234 -191l138 -334h-186zM70 -233l118 167h203l-153 -167h-168z" />
    <glyph glyph-name="kgreenlandic" unicode="&#x138;" horiz-adv-x="615" 
d="M397 0l-85 218l-81 -67l-32 -151h-174l111 525h175l-39 -177l203 177h205l-234 -202l139 -323h-188z" />
    <glyph glyph-name="Lacute" unicode="&#x139;" horiz-adv-x="596" 
d="M36 0l151 714h192l-116 -551h314l-49 -163h-492zM354 772h-178l161 155h215z" />
    <glyph glyph-name="lacute" unicode="&#x13a;" horiz-adv-x="291" 
d="M25 0l151 714h181l-151 -714h-181zM338 772h-178l161 155h215z" />
    <glyph glyph-name="uni013B" unicode="&#x13b;" horiz-adv-x="596" 
d="M36 0l151 714h192l-116 -551h314l-49 -163h-492zM52 -236l121 170h204l-156 -170h-169z" />
    <glyph glyph-name="uni013C" unicode="&#x13c;" horiz-adv-x="291" 
d="M25 0l151 714h181l-151 -714h-181zM-118 -233l118 167h203l-153 -167h-168z" />
    <glyph glyph-name="Lcaron" unicode="&#x13d;" horiz-adv-x="602" 
d="M36 0l151 714h192l-116 -551h314l-49 -163h-492zM417 442l89 272h168l-123 -272h-134z" />
    <glyph glyph-name="lcaron" unicode="&#x13e;" horiz-adv-x="291" 
d="M25 0l151 714h181l-151 -714h-181zM362 442l89 272h168l-123 -272h-134z" />
    <glyph glyph-name="Ldot" unicode="&#x13f;" horiz-adv-x="596" 
d="M36 0l151 714h192l-116 -551h314l-49 -163h-492zM415 340l41 191h174l-41 -191h-174z" />
    <glyph glyph-name="ldot" unicode="&#x140;" horiz-adv-x="507" 
d="M25 0l151 714h181l-151 -714h-181zM340 278l41 191h174l-41 -191h-174z" />
    <glyph glyph-name="Lslash" unicode="&#x141;" horiz-adv-x="620" 
d="M59 0l44 204l-91 -49l36 172l91 49l71 338h192l-47 -224l170 93l-36 -171l-170 -93l-33 -156h314l-49 -163h-492z" />
    <glyph glyph-name="lslash" unicode="&#x142;" horiz-adv-x="381" 
d="M70 0l56 264l-101 -49l32 152l100 48l64 299h181l-44 -207l100 49l-32 -151l-100 -49l-75 -356h-181z" />
    <glyph glyph-name="Nacute" unicode="&#x143;" horiz-adv-x="739" 
d="M479 0l-173 421l-89 -421h-181l151 714h164l173 -421l89 421h181l-151 -714h-164zM561 772h-178l161 155h215z" />
    <glyph glyph-name="nacute" unicode="&#x144;" horiz-adv-x="610" 
d="M349 0l66 311q4 16 4 31q0 50 -48 50q-32 0 -62 -22q-29 -23 -38 -62l-65 -308h-181l111 525h176l-13 -62q66 78 159 78q69 0 108 -41t39 -114q0 -28 -6 -58l-69 -328h-181zM456 586h-171l159 165h207z" />
    <glyph glyph-name="uni0145" unicode="&#x145;" horiz-adv-x="739" 
d="M479 0l-173 421l-89 -421h-181l151 714h164l173 -421l89 421h181l-151 -714h-164zM100 -236l121 170h204l-156 -170h-169z" />
    <glyph glyph-name="uni0146" unicode="&#x146;" horiz-adv-x="610" 
d="M349 0l66 311q4 16 4 31q0 50 -48 50q-32 0 -62 -22q-29 -23 -38 -62l-65 -308h-181l111 525h176l-13 -62q66 78 159 78q69 0 108 -41t39 -114q0 -28 -6 -58l-69 -328h-181zM44 -233l118 167h203l-153 -167h-168z" />
    <glyph glyph-name="Ncaron" unicode="&#x147;" horiz-adv-x="739" 
d="M479 0l-173 421l-89 -421h-181l151 714h164l173 -421l89 421h181l-151 -714h-164zM588 772h-175l-95 155h151l45 -69l76 69h156z" />
    <glyph glyph-name="ncaron" unicode="&#x148;" horiz-adv-x="610" 
d="M349 0l66 311q4 16 4 31q0 50 -48 50q-32 0 -62 -22q-29 -23 -38 -62l-65 -308h-181l111 525h176l-13 -62q66 78 159 78q69 0 108 -41t39 -114q0 -28 -6 -58l-69 -328h-181zM317 586l-93 165h146l44 -77l76 77h152l-159 -165h-166z" />
    <glyph glyph-name="napostrophe" unicode="&#x149;" horiz-adv-x="776" 
d="M515 0l66 311q4 16 4 31q0 50 -48 50q-32 0 -62 -22q-29 -23 -38 -62l-65 -308h-181l111 525h176l-13 -62q66 78 159 78q69 0 108 -41t39 -114q0 -28 -6 -58l-69 -328h-181zM65 429l95 285h174l-129 -285h-140z" />
    <glyph glyph-name="Eng" unicode="&#x14a;" horiz-adv-x="739" 
d="M306 419l-89 -419h-181l151 714h164l173 -421l89 421h181l-144 -683q-28 -130 -90 -185.5t-179 -55.5q-75 0 -149 24l52 146q45 -13 87 -13q41 0 63.5 19t33.5 63z" />
    <glyph glyph-name="eng" unicode="&#x14b;" horiz-adv-x="610" 
d="M415 311q4 16 4 31q0 50 -48 50q-32 0 -62 -22q-29 -23 -38 -62l-65 -308h-181l111 525h176l-13 -62q66 78 159 78q69 0 108 -41t39 -114q0 -28 -6 -58l-69 -330q-19 -96 -66 -139t-131 -43q-64 0 -126 24l45 126q23 -9 46 -9q25 0 36.5 12t18.5 44z" />
    <glyph glyph-name="Omacron" unicode="&#x14c;" horiz-adv-x="793" 
d="M397 -18q-94 0 -163.5 37.5t-107.5 109t-38 170.5q0 118 49.5 216.5t141 157.5t207.5 59q94 0 163.5 -37.5t107.5 -109t38 -170.5q0 -118 -49.5 -216.5t-141 -157.5t-207.5 -59zM409 147q52 0 94 33.5t67 94t25 138.5q0 74 -31.5 114t-89.5 40q-52 0 -94 -33.5t-67 -94
t-25 -138.5q0 -74 31.5 -114t89.5 -40zM332 784l29 132h329l-29 -132h-329z" />
    <glyph glyph-name="omacron" unicode="&#x14d;" horiz-adv-x="622" 
d="M301 -16q-107 0 -172 63t-65 168q0 94 37.5 167.5t108 116t163.5 42.5q107 0 172 -63t65 -168q0 -94 -37.5 -167.5t-108 -116t-163.5 -42.5zM313 127q49 0 82 52t33 131q0 42 -17.5 65t-49.5 23q-49 0 -82 -52t-33 -131q0 -42 17.5 -65t49.5 -23zM226 594l27 129h315
l-27 -129h-315z" />
    <glyph glyph-name="Obreve" unicode="&#x14e;" horiz-adv-x="793" 
d="M397 -18q-94 0 -163.5 37.5t-107.5 109t-38 170.5q0 118 49.5 216.5t141 157.5t207.5 59q94 0 163.5 -37.5t107.5 -109t38 -170.5q0 -118 -49.5 -216.5t-141 -157.5t-207.5 -59zM409 147q52 0 94 33.5t67 94t25 138.5q0 74 -31.5 114t-89.5 40q-52 0 -94 -33.5t-67 -94
t-25 -138.5q0 -74 31.5 -114t89.5 -40zM693 931q-12 -80 -62.5 -121t-138.5 -41q-75 0 -119 35t-44 94q0 22 4 33h127q-1 -6 -1 -15q0 -42 44 -42q27 0 42 14t20 43h128z" />
    <glyph glyph-name="obreve" unicode="&#x14f;" horiz-adv-x="622" 
d="M301 -16q-107 0 -172 63t-65 168q0 94 37.5 167.5t108 116t163.5 42.5q107 0 172 -63t65 -168q0 -94 -37.5 -167.5t-108 -116t-163.5 -42.5zM313 127q49 0 82 52t33 131q0 42 -17.5 65t-49.5 23q-49 0 -82 -52t-33 -131q0 -42 17.5 -65t49.5 -23zM580 749
q-24 -167 -196 -167q-75 0 -118 35.5t-43 96.5q0 20 3 35h124q-2 -12 -2 -18q2 -44 45 -44q52 0 61 62h126z" />
    <glyph glyph-name="Ohungarumlaut" unicode="&#x150;" horiz-adv-x="793" 
d="M397 -18q-94 0 -163.5 37.5t-107.5 109t-38 170.5q0 118 49.5 216.5t141 157.5t207.5 59q94 0 163.5 -37.5t107.5 -109t38 -170.5q0 -118 -49.5 -216.5t-141 -157.5t-207.5 -59zM409 147q52 0 94 33.5t67 94t25 138.5q0 74 -31.5 114t-89.5 40q-52 0 -94 -33.5t-67 -94
t-25 -138.5q0 -74 31.5 -114t89.5 -40zM452 772h-154l149 155h186zM690 772h-154l149 155h186z" />
    <glyph glyph-name="ohungarumlaut" unicode="&#x151;" horiz-adv-x="622" 
d="M301 -16q-107 0 -172 63t-65 168q0 94 37.5 167.5t108 116t163.5 42.5q107 0 172 -63t65 -168q0 -94 -37.5 -167.5t-108 -116t-163.5 -42.5zM313 127q49 0 82 52t33 131q0 42 -17.5 65t-49.5 23q-49 0 -82 -52t-33 -131q0 -42 17.5 -65t49.5 -23zM340 583h-147l148 165
h179zM569 583h-147l148 165h179z" />
    <glyph glyph-name="OE" unicode="&#x152;" horiz-adv-x="1060" 
d="M492 0l10 46q-33 -33 -71 -48.5t-87 -15.5q-75 0 -133 37t-90.5 106.5t-32.5 163.5q0 117 47 218t132.5 163t190.5 62q113 0 173 -80l13 62h492l-33 -158h-304l-24 -114h283l-34 -158h-282l-27 -126h322l-46 -158h-499zM396 147q48 0 89 33.5t65.5 94.5t24.5 137
q0 155 -110 155q-48 0 -88.5 -34t-65.5 -95.5t-25 -138.5q0 -73 28.5 -112.5t81.5 -39.5z" />
    <glyph glyph-name="oe" unicode="&#x153;" horiz-adv-x="944" 
d="M911 169q-17 -85 -84.5 -135t-166.5 -50q-120 0 -175 79q-73 -79 -190 -79q-106 0 -168.5 65t-62.5 174q0 86 37.5 158.5t106 116t153.5 43.5q55 0 98 -20.5t70 -60.5q75 81 192 81q97 0 153.5 -59.5t56.5 -161.5q0 -33 -6 -66l-6 -34h-331q0 -56 18.5 -81t59.5 -25
q31 0 49 13t26 42h170zM310 127q47 0 80 51t33 125q0 46 -16.5 70.5t-47.5 24.5q-47 0 -80 -51.5t-33 -125.5q0 -46 16.5 -70t47.5 -24zM766 323q3 14 3 25q0 31 -17.5 48t-49.5 17q-36 0 -61 -23t-36 -67h161z" />
    <glyph glyph-name="Racute" unicode="&#x154;" horiz-adv-x="681" 
d="M449 0l-71 246h-107l-52 -246h-183l151 714h271q122 0 187 -54.5t65 -155.5q0 -79 -42 -138t-119 -89l94 -277h-194zM403 395q58 0 88.5 24t30.5 70q0 77 -95 77h-88l-36 -171h100zM512 772h-178l161 155h215z" />
    <glyph glyph-name="racute" unicode="&#x155;" horiz-adv-x="443" 
d="M25 0l111 525h176l-14 -65q65 75 153 75q24 0 53 -7l-45 -155q-28 7 -56 7q-118 0 -143 -124l-54 -256h-181zM393 586h-171l159 165h207z" />
    <glyph glyph-name="Rcommaaccent" unicode="&#x156;" horiz-adv-x="681" 
d="M449 0l-71 246h-107l-52 -246h-183l151 714h271q122 0 187 -54.5t65 -155.5q0 -79 -42 -138t-119 -89l94 -277h-194zM403 395q58 0 88.5 24t30.5 70q0 77 -95 77h-88l-36 -171h100zM104 -236l121 170h204l-156 -170h-169z" />
    <glyph glyph-name="rcommaaccent" unicode="&#x157;" horiz-adv-x="443" 
d="M25 0l111 525h176l-14 -65q65 75 153 75q24 0 53 -7l-45 -155q-28 7 -56 7q-118 0 -143 -124l-54 -256h-181zM-118 -233l118 167h203l-153 -167h-168z" />
    <glyph glyph-name="Rcaron" unicode="&#x158;" horiz-adv-x="681" 
d="M449 0l-71 246h-107l-52 -246h-183l151 714h271q122 0 187 -54.5t65 -155.5q0 -79 -42 -138t-119 -89l94 -277h-194zM403 395q58 0 88.5 24t30.5 70q0 77 -95 77h-88l-36 -171h100zM539 772h-175l-95 155h151l45 -69l76 69h156z" />
    <glyph glyph-name="rcaron" unicode="&#x159;" horiz-adv-x="443" 
d="M25 0l111 525h176l-14 -65q65 75 153 75q24 0 53 -7l-45 -155q-28 7 -56 7q-118 0 -143 -124l-54 -256h-181zM254 586l-93 165h146l44 -77l76 77h152l-159 -165h-166z" />
    <glyph glyph-name="Sacute" unicode="&#x15a;" horiz-adv-x="670" 
d="M314 292q-103 23 -153 74.5t-50 132.5q0 70 36 122.5t104.5 81.5t161.5 29q131 0 204 -56t81 -162l-187 -21q-7 46 -32.5 66.5t-75.5 20.5q-47 0 -72.5 -17t-25.5 -48q0 -25 17.5 -40.5t53.5 -23.5l79 -18q103 -23 151 -72t48 -132q0 -114 -83.5 -180.5t-226.5 -66.5
q-95 0 -162.5 29t-103.5 86t-38 138h191q3 -48 35 -73.5t88 -25.5q50 0 78 19t28 54q0 26 -17.5 42t-53.5 24zM480 772h-178l161 155h215z" />
    <glyph glyph-name="sacute" unicode="&#x15b;" horiz-adv-x="549" 
d="M388 363q-4 55 -67 55q-62 0 -62 -41q0 -17 12.5 -27t43.5 -16l45 -9q84 -16 124 -55t40 -104q0 -86 -66 -134t-186 -48q-116 0 -178 47t-65 137h171q4 -29 22 -41.5t53 -12.5q34 0 49.5 10.5t15.5 32.5q0 16 -10.5 26t-33.5 15l-55 12q-80 17 -118.5 54.5t-38.5 97.5
q0 82 65 130.5t176 48.5q105 0 164 -41.5t64 -120.5zM389 586h-171l159 165h207z" />
    <glyph glyph-name="Scircumflex" unicode="&#x15c;" horiz-adv-x="670" 
d="M314 292q-103 23 -153 74.5t-50 132.5q0 70 36 122.5t104.5 81.5t161.5 29q131 0 204 -56t81 -162l-187 -21q-7 46 -32.5 66.5t-75.5 20.5q-47 0 -72.5 -17t-25.5 -48q0 -25 17.5 -40.5t53.5 -23.5l79 -18q103 -23 151 -72t48 -132q0 -114 -83.5 -180.5t-226.5 -66.5
q-95 0 -162.5 29t-103.5 86t-38 138h191q3 -48 35 -73.5t88 -25.5q50 0 78 19t28 54q0 26 -17.5 42t-53.5 24zM484 772l-45 69l-76 -69h-156l158 155h175l95 -155h-151z" />
    <glyph glyph-name="scircumflex" unicode="&#x15d;" horiz-adv-x="549" 
d="M388 363q-4 55 -67 55q-62 0 -62 -41q0 -17 12.5 -27t43.5 -16l45 -9q84 -16 124 -55t40 -104q0 -86 -66 -134t-186 -48q-116 0 -178 47t-65 137h171q4 -29 22 -41.5t53 -12.5q34 0 49.5 10.5t15.5 32.5q0 16 -10.5 26t-33.5 15l-55 12q-80 17 -118.5 54.5t-38.5 97.5
q0 82 65 130.5t176 48.5q105 0 164 -41.5t64 -120.5zM396 586l-44 77l-76 -77h-152l159 165h166l93 -165h-146z" />
    <glyph glyph-name="Scedilla" unicode="&#x15e;" horiz-adv-x="670" 
d="M314 292q-103 23 -153 74.5t-50 132.5q0 70 36 122.5t104.5 81.5t161.5 29q131 0 204 -56t81 -162l-187 -21q-7 46 -32.5 66.5t-75.5 20.5q-47 0 -72.5 -17t-25.5 -48q0 -25 17.5 -40.5t53.5 -23.5l79 -18q103 -23 151 -72t48 -132q0 -114 -83.5 -180.5t-226.5 -66.5
q-95 0 -162.5 29t-103.5 86t-38 138h191q3 -48 35 -73.5t88 -25.5q50 0 78 19t28 54q0 26 -17.5 42t-53.5 24zM222 -144q40 -4 65 -4q26 0 37.5 6.5t11.5 20.5q0 13 -12.5 18.5t-38.5 5.5h-34l59 106l86 -9l-26 -46q43 -7 65 -28t22 -53q0 -50 -43.5 -76.5t-125.5 -26.5
q-36 0 -81 8z" />
    <glyph glyph-name="scedilla" unicode="&#x15f;" horiz-adv-x="549" 
d="M388 363q-4 55 -67 55q-62 0 -62 -41q0 -17 12.5 -27t43.5 -16l45 -9q84 -16 124 -55t40 -104q0 -86 -66 -134t-186 -48q-116 0 -178 47t-65 137h171q4 -29 22 -41.5t53 -12.5q34 0 49.5 10.5t15.5 32.5q0 16 -10.5 26t-33.5 15l-55 12q-80 17 -118.5 54.5t-38.5 97.5
q0 82 65 130.5t176 48.5q105 0 164 -41.5t64 -120.5zM144 -138q40 -5 63 -5q26 0 37.5 5.5t11.5 18.5t-11.5 18.5t-38.5 5.5h-34l57 101l87 -6l-25 -46q81 -13 81 -79q0 -48 -42 -73.5t-121 -25.5q-48 0 -80 7z" />
    <glyph glyph-name="Scaron" unicode="&#x160;" horiz-adv-x="670" 
d="M314 292q-103 23 -153 74.5t-50 132.5q0 70 36 122.5t104.5 81.5t161.5 29q131 0 204 -56t81 -162l-187 -21q-7 46 -32.5 66.5t-75.5 20.5q-47 0 -72.5 -17t-25.5 -48q0 -25 17.5 -40.5t53.5 -23.5l79 -18q103 -23 151 -72t48 -132q0 -114 -83.5 -180.5t-226.5 -66.5
q-95 0 -162.5 29t-103.5 86t-38 138h191q3 -48 35 -73.5t88 -25.5q50 0 78 19t28 54q0 26 -17.5 42t-53.5 24zM507 772h-175l-95 155h151l45 -69l76 69h156z" />
    <glyph glyph-name="scaron" unicode="&#x161;" horiz-adv-x="549" 
d="M388 363q-4 55 -67 55q-62 0 -62 -41q0 -17 12.5 -27t43.5 -16l45 -9q84 -16 124 -55t40 -104q0 -86 -66 -134t-186 -48q-116 0 -178 47t-65 137h171q4 -29 22 -41.5t53 -12.5q34 0 49.5 10.5t15.5 32.5q0 16 -10.5 26t-33.5 15l-55 12q-80 17 -118.5 54.5t-38.5 97.5
q0 82 65 130.5t176 48.5q105 0 164 -41.5t64 -120.5zM250 586l-93 165h146l44 -77l76 77h152l-159 -165h-166z" />
    <glyph glyph-name="uni0162" unicode="&#x162;" horiz-adv-x="650" 
d="M199 0l117 551h-206l34 163h605l-34 -163h-206l-118 -551h-192zM169 -144q40 -4 65 -4q26 0 37.5 6.5t11.5 20.5q0 13 -12.5 18.5t-38.5 5.5h-34l59 106l86 -9l-26 -46q43 -7 65 -28t22 -53q0 -50 -43.5 -76.5t-125.5 -26.5q-36 0 -81 8z" />
    <glyph glyph-name="uni0163" unicode="&#x163;" horiz-adv-x="423" 
d="M404 10q-55 -19 -131 -19q-172 0 -172 141q0 28 7 62l40 190h-84l30 141h84l29 138h181l-29 -138h114l-30 -141h-114l-38 -179q-4 -17 -4 -28q0 -21 11 -31t35 -10q22 0 51 7zM105 -138q40 -5 63 -5q26 0 37.5 5.5t11.5 18.5t-11.5 18.5t-38.5 5.5h-34l57 101l87 -6
l-25 -46q81 -13 81 -79q0 -48 -42 -73.5t-121 -25.5q-48 0 -80 7z" />
    <glyph glyph-name="Tcaron" unicode="&#x164;" horiz-adv-x="650" 
d="M199 0l117 551h-206l34 163h605l-34 -163h-206l-118 -551h-192zM544 772h-175l-95 155h151l45 -69l76 69h156z" />
    <glyph glyph-name="tcaron" unicode="&#x165;" horiz-adv-x="423" 
d="M404 10q-55 -19 -131 -19q-172 0 -172 141q0 28 7 62l40 190h-84l30 141h84l29 138h181l-29 -138h114l-30 -141h-114l-38 -179q-4 -17 -4 -28q0 -21 11 -31t35 -10q22 0 51 7zM417 579l60 184h145l-92 -184h-113z" />
    <glyph glyph-name="Tbar" unicode="&#x166;" horiz-adv-x="650" 
d="M199 0l50 236h-128l33 152h127l35 163h-206l34 163h605l-34 -163h-206l-35 -163h127l-33 -152h-127l-50 -236h-192z" />
    <glyph glyph-name="tbar" unicode="&#x167;" horiz-adv-x="437" 
d="M413 10q-55 -19 -131 -19q-172 0 -172 141q0 28 7 62l5 23h-85l24 111h85l14 67h-84l27 130h84l29 138h181l-29 -138h114l-27 -130h-114l-14 -67h113l-24 -111h-114l-2 -10q-4 -17 -4 -30q0 -21 11 -31t35 -10q22 0 51 7z" />
    <glyph glyph-name="Utilde" unicode="&#x168;" horiz-adv-x="718" 
d="M589 714h192l-92 -439q-31 -149 -113.5 -221t-224.5 -72q-131 0 -200.5 60.5t-69.5 175.5q0 44 11 95l84 401h193l-89 -420q-7 -36 -7 -57q0 -90 93 -90q55 0 86 33.5t48 113.5zM728 930q-9 -78 -47.5 -119.5t-101.5 -41.5q-19 0 -36 5t-42 18q-35 18 -51 18
q-39 0 -45 -41h-116q9 78 47.5 119.5t101.5 41.5q19 0 36 -5t42 -18q37 -18 51 -18q39 0 45 41h116z" />
    <glyph glyph-name="utilde" unicode="&#x169;" horiz-adv-x="605" 
d="M344 0l13 62q-64 -78 -156 -78q-68 0 -106.5 41t-38.5 114q0 28 6 58l69 328h181l-66 -311q-4 -16 -4 -31q0 -50 46 -50q16 0 32 6t28 16q28 22 37 62l65 308h181l-111 -525h-176zM626 751q-8 -77 -46 -119t-99 -42q-34 0 -77 23q-22 11 -31.5 14.5t-17.5 3.5
q-21 0 -31.5 -10t-13.5 -32h-113q8 77 46 119t99 42q34 0 77 -23q22 -11 31.5 -14.5t17.5 -3.5q21 0 31.5 10t13.5 32h113z" />
    <glyph glyph-name="Umacron" unicode="&#x16a;" horiz-adv-x="718" 
d="M589 714h192l-92 -439q-31 -149 -113.5 -221t-224.5 -72q-131 0 -200.5 60.5t-69.5 175.5q0 44 11 95l84 401h193l-89 -420q-7 -36 -7 -57q0 -90 93 -90q55 0 86 33.5t48 113.5zM328 784l29 132h329l-29 -132h-329z" />
    <glyph glyph-name="umacron" unicode="&#x16b;" horiz-adv-x="605" 
d="M344 0l13 62q-64 -78 -156 -78q-68 0 -106.5 41t-38.5 114q0 28 6 58l69 328h181l-66 -311q-4 -16 -4 -31q0 -50 46 -50q16 0 32 6t28 16q28 22 37 62l65 308h181l-111 -525h-176zM237 594l27 129h315l-27 -129h-315z" />
    <glyph glyph-name="Ubreve" unicode="&#x16c;" horiz-adv-x="718" 
d="M589 714h192l-92 -439q-31 -149 -113.5 -221t-224.5 -72q-131 0 -200.5 60.5t-69.5 175.5q0 44 11 95l84 401h193l-89 -420q-7 -36 -7 -57q0 -90 93 -90q55 0 86 33.5t48 113.5zM689 931q-12 -80 -62.5 -121t-138.5 -41q-75 0 -119 35t-44 94q0 22 4 33h127q-1 -6 -1 -15
q0 -42 44 -42q27 0 42 14t20 43h128z" />
    <glyph glyph-name="ubreve" unicode="&#x16d;" horiz-adv-x="605" 
d="M344 0l13 62q-64 -78 -156 -78q-68 0 -106.5 41t-38.5 114q0 28 6 58l69 328h181l-66 -311q-4 -16 -4 -31q0 -50 46 -50q16 0 32 6t28 16q28 22 37 62l65 308h181l-111 -525h-176zM591 749q-24 -167 -196 -167q-75 0 -118 35.5t-43 96.5q0 20 3 35h124q-2 -12 -2 -18
q2 -44 45 -44q52 0 61 62h126z" />
    <glyph glyph-name="Uring" unicode="&#x16e;" horiz-adv-x="718" 
d="M589 714h192l-92 -439q-31 -149 -113.5 -221t-224.5 -72q-131 0 -200.5 60.5t-69.5 175.5q0 44 11 95l84 401h193l-89 -420q-7 -36 -7 -57q0 -90 93 -90q55 0 86 33.5t48 113.5zM615 866q0 -58 -35.5 -92.5t-96.5 -34.5t-96.5 34.5t-35.5 92.5t36 93t96 35t96 -35t36 -93
zM526 866q0 44 -43 44q-41 0 -41 -44q0 -43 41 -43q43 0 43 43z" />
    <glyph glyph-name="uring" unicode="&#x16f;" horiz-adv-x="605" 
d="M344 0l13 62q-64 -78 -156 -78q-68 0 -106.5 41t-38.5 114q0 28 6 58l69 328h181l-66 -311q-4 -16 -4 -31q0 -50 46 -50q16 0 32 6t28 16q28 22 37 62l65 308h181l-111 -525h-176zM518 699q0 -55 -34.5 -88t-91.5 -33t-91.5 33t-34.5 88t34.5 88.5t91.5 33.5t91.5 -33.5
t34.5 -88.5zM432 699q0 42 -41 42q-39 0 -39 -42q0 -20 10.5 -30.5t28.5 -10.5q20 0 30.5 11t10.5 30z" />
    <glyph glyph-name="Uhungarumlaut" unicode="&#x170;" horiz-adv-x="718" 
d="M589 714h192l-92 -439q-31 -149 -113.5 -221t-224.5 -72q-131 0 -200.5 60.5t-69.5 175.5q0 44 11 95l84 401h193l-89 -420q-7 -36 -7 -57q0 -90 93 -90q55 0 86 33.5t48 113.5zM448 772h-154l149 155h186zM686 772h-154l149 155h186z" />
    <glyph glyph-name="uhungarumlaut" unicode="&#x171;" horiz-adv-x="605" 
d="M344 0l13 62q-64 -78 -156 -78q-68 0 -106.5 41t-38.5 114q0 28 6 58l69 328h181l-66 -311q-4 -16 -4 -31q0 -50 46 -50q16 0 32 6t28 16q28 22 37 62l65 308h181l-111 -525h-176zM351 583h-147l148 165h179zM580 583h-147l148 165h179z" />
    <glyph glyph-name="Uogonek" unicode="&#x172;" horiz-adv-x="718" 
d="M589 714h192l-92 -439q-31 -149 -113.5 -221t-224.5 -72q-131 0 -200.5 60.5t-69.5 175.5q0 44 11 95l84 401h193l-89 -420q-7 -36 -7 -57q0 -90 93 -90q55 0 86 33.5t48 113.5zM434 -204q-30 -5 -67 -5q-62 0 -96.5 22t-34.5 62q0 39 29.5 71t91.5 60l123 -6
q-92 -44 -92 -79q0 -25 39 -25q9 0 29 2z" />
    <glyph glyph-name="uogonek" unicode="&#x173;" horiz-adv-x="605" 
d="M344 0l13 62q-64 -78 -156 -78q-68 0 -106.5 41t-38.5 114q0 28 6 58l69 328h181l-66 -311q-4 -16 -4 -31q0 -50 46 -50q16 0 32 6t28 16q28 22 37 62l65 308h181l-111 -525h-176zM474 -201q-28 -5 -64 -5q-61 0 -93 21t-32 61q0 39 27 70t87 60l121 -6
q-47 -22 -68 -40.5t-21 -37.5q0 -24 38 -24q18 0 27 1z" />
    <glyph glyph-name="Wcircumflex" unicode="&#x174;" horiz-adv-x="1002" 
d="M575 0l-8 457l-196 -457h-193l-41 714h207l-8 -462l194 457h182l4 -467l191 472h200l-335 -714h-197zM698 772l-45 69l-76 -69h-156l158 155h175l95 -155h-151z" />
    <glyph glyph-name="wcircumflex" unicode="&#x175;" horiz-adv-x="811" 
d="M455 0l-15 303l-145 -303h-165l-40 525h182l-3 -304l142 300h144l20 -305l130 309h178l-259 -525h-169zM561 586l-44 77l-76 -77h-152l159 165h166l93 -165h-146z" />
    <glyph glyph-name="Ycircumflex" unicode="&#x176;" horiz-adv-x="690" 
d="M220 0l58 277l-147 437h199l73 -273l188 273h210l-330 -437l-59 -277h-192zM541 772l-45 69l-76 -69h-156l158 155h175l95 -155h-151z" />
    <glyph glyph-name="ycircumflex" unicode="&#x177;" horiz-adv-x="596" 
d="M204 44l-112 481h190l40 -293l152 293h194l-323 -537q-45 -76 -80.5 -114t-73 -53t-88.5 -15q-60 0 -116 24l50 130q27 -12 60 -12q28 0 46.5 12t36.5 43zM455 586l-44 77l-76 -77h-152l159 165h166l93 -165h-146z" />
    <glyph glyph-name="Ydieresis" unicode="&#x178;" horiz-adv-x="690" 
d="M220 0l58 277l-147 437h199l73 -273l188 273h210l-330 -437l-59 -277h-192zM280 775l31 144h168l-31 -144h-168zM509 775l31 144h168l-31 -144h-168z" />
    <glyph glyph-name="Zacute" unicode="&#x179;" horiz-adv-x="625" 
d="M6 0l29 138l398 418h-309l34 158h544l-30 -139l-397 -417h332l-46 -158h-555zM501 772h-178l161 155h215z" />
    <glyph glyph-name="zacute" unicode="&#x17a;" horiz-adv-x="523" 
d="M4 0l24 115l280 272h-220l30 138h449l-24 -115l-280 -272h238l-41 -138h-456zM409 586h-171l159 165h207z" />
    <glyph glyph-name="Zdotaccent" unicode="&#x17b;" horiz-adv-x="625" 
d="M6 0l29 138l398 418h-309l34 158h544l-30 -139l-397 -417h332l-46 -158h-555zM350 775l31 147h184l-31 -147h-184z" />
    <glyph glyph-name="zdotaccent" unicode="&#x17c;" horiz-adv-x="523" 
d="M4 0l24 115l280 272h-220l30 138h449l-24 -115l-280 -272h238l-41 -138h-456zM261 583l28 131h183l-28 -131h-183z" />
    <glyph glyph-name="Zcaron" unicode="&#x17d;" horiz-adv-x="625" 
d="M6 0l29 138l398 418h-309l34 158h544l-30 -139l-397 -417h332l-46 -158h-555zM528 772h-175l-95 155h151l45 -69l76 69h156z" />
    <glyph glyph-name="zcaron" unicode="&#x17e;" horiz-adv-x="523" 
d="M4 0l24 115l280 272h-220l30 138h449l-24 -115l-280 -272h238l-41 -138h-456zM270 586l-93 165h146l44 -77l76 77h152l-159 -165h-166z" />
    <glyph glyph-name="longs" unicode="&#x17f;" horiz-adv-x="301" 
d="M26 0l113 533q20 95 75 142t146 47q35 0 73 -7.5t62 -19.5l-48 -122q-25 11 -57 11q-31 0 -48 -14t-24 -47l-111 -523h-181z" />
    <glyph glyph-name="florin" unicode="&#x192;" 
d="M146 364h-85l30 141h85l6 28q20 95 75 142t146 47q35 0 73 -7.5t62 -19.5l-48 -122q-25 11 -57 11q-31 0 -48 -14t-24 -47l-4 -18h114l-30 -141h-114l-77 -365q-20 -95 -69.5 -139t-136.5 -44q-74 0 -130 25l45 125q27 -9 51 -9q28 0 42 13.5t20 42.5z" />
    <glyph glyph-name="uni0218" unicode="&#x218;" horiz-adv-x="670" 
d="M314 292q-103 23 -153 74.5t-50 132.5q0 70 36 122.5t104.5 81.5t161.5 29q131 0 204 -56t81 -162l-187 -21q-7 46 -32.5 66.5t-75.5 20.5q-47 0 -72.5 -17t-25.5 -48q0 -25 17.5 -40.5t53.5 -23.5l79 -18q103 -23 151 -72t48 -132q0 -114 -83.5 -180.5t-226.5 -66.5
q-95 0 -162.5 29t-103.5 86t-38 138h191q3 -48 35 -73.5t88 -25.5q50 0 78 19t28 54q0 26 -17.5 42t-53.5 24zM110 -236l121 170h204l-156 -170h-169z" />
    <glyph glyph-name="uni0219" unicode="&#x219;" horiz-adv-x="549" 
d="M388 363q-4 55 -67 55q-62 0 -62 -41q0 -17 12.5 -27t43.5 -16l45 -9q84 -16 124 -55t40 -104q0 -86 -66 -134t-186 -48q-116 0 -178 47t-65 137h171q4 -29 22 -41.5t53 -12.5q34 0 49.5 10.5t15.5 32.5q0 16 -10.5 26t-33.5 15l-55 12q-80 17 -118.5 54.5t-38.5 97.5
q0 82 65 130.5t176 48.5q105 0 164 -41.5t64 -120.5zM41 -233l118 167h203l-153 -167h-168z" />
    <glyph glyph-name="uni021A" unicode="&#x21a;" horiz-adv-x="650" 
d="M199 0l117 551h-206l34 163h605l-34 -163h-206l-118 -551h-192zM57 -236l121 170h204l-156 -170h-169z" />
    <glyph glyph-name="uni021B" unicode="&#x21b;" horiz-adv-x="423" 
d="M404 10q-55 -19 -131 -19q-172 0 -172 141q0 28 7 62l40 190h-84l30 141h84l29 138h181l-29 -138h114l-30 -141h-114l-38 -179q-4 -17 -4 -28q0 -21 11 -31t35 -10q22 0 51 7zM2 -233l118 167h203l-153 -167h-168z" />
    <glyph glyph-name="uni0237" unicode="&#x237;" horiz-adv-x="296" 
d="M141 525h181l-111 -526q-20 -95 -69 -139t-137 -44q-74 0 -130 25l45 125q27 -9 51 -9q28 0 42 13.5t20 42.5z" />
    <glyph glyph-name="uni02BC" unicode="&#x2bc;" horiz-adv-x="610" 
d="M262 429l95 285h174l-129 -285h-140z" />
    <glyph glyph-name="circumflex" unicode="&#x2c6;" horiz-adv-x="610" 
d="M456 586l-44 77l-76 -77h-152l159 165h166l93 -165h-146z" />
    <glyph glyph-name="caron" unicode="&#x2c7;" horiz-adv-x="610" 
d="M301 586l-93 165h146l44 -77l76 77h152l-159 -165h-166z" />
    <glyph glyph-name="uni02C9" unicode="&#x2c9;" horiz-adv-x="610" 
d="M234 594l27 129h315l-27 -129h-315z" />
    <glyph glyph-name="uni02CB" unicode="&#x2cb;" horiz-adv-x="610" 
d="M360 586l-126 165h192l90 -165h-156z" />
    <glyph glyph-name="breve" unicode="&#x2d8;" horiz-adv-x="610" 
d="M588 749q-24 -167 -196 -167q-75 0 -118 35.5t-43 96.5q0 20 3 35h124q-2 -12 -2 -18q2 -44 45 -44q52 0 61 62h126z" />
    <glyph glyph-name="dotaccent" unicode="&#x2d9;" horiz-adv-x="610" 
d="M299 583l28 131h183l-28 -131h-183z" />
    <glyph glyph-name="ring" unicode="&#x2da;" horiz-adv-x="610" 
d="M536 699q0 -55 -34.5 -88t-91.5 -33t-91.5 33t-34.5 88t34.5 88.5t91.5 33.5t91.5 -33.5t34.5 -88.5zM450 699q0 42 -41 42q-39 0 -39 -42q0 -20 10.5 -30.5t28.5 -10.5q20 0 30.5 11t10.5 30z" />
    <glyph glyph-name="ogonek" unicode="&#x2db;" horiz-adv-x="610" 
d="M376 -201q-28 -5 -64 -5q-61 0 -93 21t-32 61q0 39 27 70t87 60l121 -6q-47 -22 -68 -40.5t-21 -37.5q0 -24 38 -24q18 0 27 1z" />
    <glyph glyph-name="tilde" unicode="&#x2dc;" horiz-adv-x="610" 
d="M628 751q-8 -77 -46 -119t-99 -42q-34 0 -77 23q-22 11 -31.5 14.5t-17.5 3.5q-21 0 -31.5 -10t-13.5 -32h-113q8 77 46 119t99 42q34 0 77 -23q22 -11 31.5 -14.5t17.5 -3.5q21 0 31.5 10t13.5 32h113z" />
    <glyph glyph-name="hungarumlaut" unicode="&#x2dd;" horiz-adv-x="610" 
d="M281 583h-147l148 165h179zM510 583h-147l148 165h179z" />
    <glyph glyph-name="gravecomb" unicode="&#x300;" horiz-adv-x="0" 
d="M-48 586l-126 165h192l90 -165h-156z" />
    <glyph glyph-name="acutecomb" unicode="&#x301;" horiz-adv-x="0" 
d="M55 586h-171l159 165h207z" />
    <glyph glyph-name="uni0302" unicode="&#x302;" horiz-adv-x="0" 
d="M63 586l-44 77l-76 -77h-152l159 165h166l93 -165h-146z" />
    <glyph glyph-name="tildecomb" unicode="&#x303;" horiz-adv-x="0" 
d="M215 751q-8 -77 -46 -119t-99 -42q-34 0 -77 23q-22 11 -31.5 14.5t-17.5 3.5q-21 0 -31.5 -10t-13.5 -32h-113q8 77 46 119t99 42q34 0 77 -23q22 -11 31.5 -14.5t17.5 -3.5q21 0 31.5 10t13.5 32h113z" />
    <glyph glyph-name="uni0304" unicode="&#x304;" horiz-adv-x="0" 
d="M-158 594l27 129h315l-27 -129h-315z" />
    <glyph glyph-name="uni0306" unicode="&#x306;" horiz-adv-x="0" 
d="M179 749q-24 -167 -196 -167q-75 0 -118 35.5t-43 96.5q0 20 3 35h124q-2 -12 -2 -18q2 -44 45 -44q52 0 61 62h126z" />
    <glyph glyph-name="uni0307" unicode="&#x307;" horiz-adv-x="0" 
d="M-95 583l28 131h183l-28 -131h-183z" />
    <glyph glyph-name="uni0308" unicode="&#x308;" horiz-adv-x="0" 
d="M28 583l29 133h160l-29 -133h-160zM-192 583l29 133h160l-29 -133h-160z" />
    <glyph glyph-name="uni030A" unicode="&#x30a;" horiz-adv-x="0" 
d="M126 699q0 -55 -34.5 -88t-91.5 -33t-91.5 33t-34.5 88t34.5 88.5t91.5 33.5t91.5 -33.5t34.5 -88.5zM40 699q0 42 -41 42q-39 0 -39 -42q0 -20 10.5 -30.5t28.5 -10.5q20 0 30.5 11t10.5 30z" />
    <glyph glyph-name="uni030B" unicode="&#x30b;" horiz-adv-x="0" 
d="M-42 583h-147l148 165h179zM187 583h-147l148 165h179z" />
    <glyph glyph-name="uni030C" unicode="&#x30c;" horiz-adv-x="0" 
d="M-83 586l-93 165h146l44 -77l76 77h152l-159 -165h-166z" />
    <glyph glyph-name="uni0312" unicode="&#x312;" horiz-adv-x="0" 
d="M-102 586l151 167h167l-115 -167h-203z" />
    <glyph glyph-name="uni0315" unicode="&#x315;" horiz-adv-x="0" 
d="M-67 442l89 272h168l-123 -272h-134z" />
    <glyph glyph-name="uni0326" unicode="&#x326;" horiz-adv-x="0" 
d="M-219 -233l118 167h203l-153 -167h-168z" />
    <glyph glyph-name="uni0327" unicode="&#x327;" horiz-adv-x="0" 
d="M-132 -138q40 -5 63 -5q26 0 37.5 5.5t11.5 18.5t-11.5 18.5t-38.5 5.5h-34l57 101l87 -6l-25 -46q81 -13 81 -79q0 -48 -42 -73.5t-121 -25.5q-48 0 -80 7z" />
    <glyph glyph-name="uni0328" unicode="&#x328;" horiz-adv-x="0" 
d="M21 -201q-28 -5 -64 -5q-61 0 -93 21t-32 61q0 39 27 70t87 60l121 -6q-47 -22 -68 -40.5t-21 -37.5q0 -24 38 -24q18 0 27 1z" />
    <glyph glyph-name="uni0394" unicode="&#x394;" horiz-adv-x="727" 
d="M-14 0l391 714h218l87 -714h-696zM448 527l-193 -370h227z" />
    <glyph glyph-name="uni03A9" unicode="&#x3a9;" horiz-adv-x="773" 
d="M408 0l30 147q69 49 109 125.5t40 159.5q0 139 -119 139q-52 0 -93 -30t-64.5 -86.5t-23.5 -131.5q0 -101 55 -176l-30 -147h-305l32 152h123q-32 40 -49 92.5t-17 112.5q0 103 48.5 188t137 136t200.5 51q90 0 159 -34t107.5 -98t38.5 -151t-39.5 -165.5t-109.5 -131.5
h120l-47 -152h-303z" />
    <glyph glyph-name="uni03BC" unicode="&#x3bc;" horiz-adv-x="610" 
d="M349 0l13 61q-46 -67 -113 -67q-26 0 -43 13l-43 -201h-180l153 719h181l-67 -313q-3 -15 -3 -28q0 -51 44 -51q32 0 62 23q29 21 38 64l64 305h181l-111 -525h-176z" />
    <glyph glyph-name="pi" unicode="&#x3c0;" horiz-adv-x="684" 
d="M633 -2q-45 -16 -111 -16q-70 0 -106.5 32t-36.5 93q0 33 8 66l44 210h-103l-81 -383h-181l81 383h-83l30 142h632l-30 -142h-85l-44 -210q-2 -8 -2 -15q0 -15 9.5 -23.5t25.5 -8.5q19 0 31 3z" />
    <glyph glyph-name="Wgrave" unicode="&#x1e80;" horiz-adv-x="1002" 
d="M575 0l-8 457l-196 -457h-193l-41 714h207l-8 -462l194 457h182l4 -467l191 472h200l-335 -714h-197zM585 772l-132 155h198l95 -155h-161z" />
    <glyph glyph-name="wgrave" unicode="&#x1e81;" horiz-adv-x="811" 
d="M455 0l-15 303l-145 -303h-165l-40 525h182l-3 -304l142 300h144l20 -305l130 309h178l-259 -525h-169zM451 586l-126 165h192l90 -165h-156z" />
    <glyph glyph-name="Wacute" unicode="&#x1e82;" horiz-adv-x="1002" 
d="M575 0l-8 457l-196 -457h-193l-41 714h207l-8 -462l194 457h182l4 -467l191 472h200l-335 -714h-197zM694 772h-178l161 155h215z" />
    <glyph glyph-name="wacute" unicode="&#x1e83;" horiz-adv-x="811" 
d="M455 0l-15 303l-145 -303h-165l-40 525h182l-3 -304l142 300h144l20 -305l130 309h178l-259 -525h-169zM554 586h-171l159 165h207z" />
    <glyph glyph-name="Wdieresis" unicode="&#x1e84;" horiz-adv-x="1002" 
d="M575 0l-8 457l-196 -457h-193l-41 714h207l-8 -462l194 457h182l4 -467l191 472h200l-335 -714h-197zM437 775l31 144h168l-31 -144h-168zM666 775l31 144h168l-31 -144h-168z" />
    <glyph glyph-name="wdieresis" unicode="&#x1e85;" horiz-adv-x="811" 
d="M455 0l-15 303l-145 -303h-165l-40 525h182l-3 -304l142 300h144l20 -305l130 309h178l-259 -525h-169zM528 583l29 133h160l-29 -133h-160zM308 583l29 133h160l-29 -133h-160z" />
    <glyph glyph-name="uni1E9E" unicode="&#x1e9e;" horiz-adv-x="831" 
d="M507 278q-71 22 -103.5 53t-32.5 80q0 50 30.5 90t96.5 74h-77q-34 0 -56 -14.5t-36.5 -47.5t-26.5 -88l-90 -425h-183l99 465q28 133 99.5 191t208.5 58h340l-23 -114l-18 -10q-56 -31 -91.5 -50.5t-55 -33t-27 -24t-7.5 -23.5q0 -16 12.5 -25.5t68.5 -26.5l23 -7
q89 -27 126.5 -69t37.5 -115q0 -115 -68.5 -174.5t-202.5 -59.5q-125 0 -187.5 54t-69.5 168h178q5 -40 24 -56.5t59 -16.5q79 0 79 61q0 20 -9 33t-29.5 23t-65.5 23z" />
    <glyph glyph-name="Ygrave" unicode="&#x1ef2;" horiz-adv-x="690" 
d="M220 0l58 277l-147 437h199l73 -273l188 273h210l-330 -437l-59 -277h-192zM428 772l-132 155h198l95 -155h-161z" />
    <glyph glyph-name="ygrave" unicode="&#x1ef3;" horiz-adv-x="596" 
d="M204 44l-112 481h190l40 -293l152 293h194l-323 -537q-45 -76 -80.5 -114t-73 -53t-88.5 -15q-60 0 -116 24l50 130q27 -12 60 -12q28 0 46.5 12t36.5 43zM345 586l-126 165h192l90 -165h-156z" />
    <glyph glyph-name="uni2000" unicode="&#x2000;" horiz-adv-x="500" 
 />
    <glyph glyph-name="uni2001" unicode="&#x2001;" horiz-adv-x="1000" 
 />
    <glyph glyph-name="uni2002" unicode="&#x2002;" horiz-adv-x="500" 
 />
    <glyph glyph-name="uni2003" unicode="&#x2003;" horiz-adv-x="1000" 
 />
    <glyph glyph-name="uni2004" unicode="&#x2004;" horiz-adv-x="333" 
 />
    <glyph glyph-name="uni2005" unicode="&#x2005;" horiz-adv-x="250" 
 />
    <glyph glyph-name="uni2006" unicode="&#x2006;" horiz-adv-x="166" 
 />
    <glyph glyph-name="uni2007" unicode="&#x2007;" horiz-adv-x="592" 
 />
    <glyph glyph-name="uni2008" unicode="&#x2008;" horiz-adv-x="269" 
 />
    <glyph glyph-name="uni2009" unicode="&#x2009;" horiz-adv-x="200" 
 />
    <glyph glyph-name="uni200A" unicode="&#x200a;" horiz-adv-x="50" 
 />
    <glyph glyph-name="uni200B" unicode="&#x200b;" horiz-adv-x="0" 
 />
    <glyph glyph-name="uni2010" unicode="&#x2010;" horiz-adv-x="410" 
d="M55 217l36 167h331l-36 -167h-331z" />
    <glyph glyph-name="uni2012" unicode="&#x2012;" horiz-adv-x="592" 
d="M68 265l34 160h500l-35 -160h-499z" />
    <glyph glyph-name="endash" unicode="&#x2013;" horiz-adv-x="500" 
d="M17 220l34 160h500l-35 -160h-499z" />
    <glyph glyph-name="emdash" unicode="&#x2014;" horiz-adv-x="1000" 
d="M17 220l34 160h1000l-35 -160h-999z" />
    <glyph glyph-name="uni2015" unicode="&#x2015;" horiz-adv-x="1000" 
d="M17 220l34 160h1000l-35 -160h-999z" />
    <glyph glyph-name="quoteleft" unicode="&#x2018;" horiz-adv-x="267" 
d="M91 429l129 285h140l-95 -285h-174z" />
    <glyph glyph-name="quoteright" unicode="&#x2019;" horiz-adv-x="267" 
d="M91 429l95 285h174l-129 -285h-140z" />
    <glyph glyph-name="quotesinglbase" unicode="&#x201a;" horiz-adv-x="267" 
d="M-20 -94l95 285h174l-129 -285h-140z" />
    <glyph glyph-name="quotedblleft" unicode="&#x201c;" horiz-adv-x="495" 
d="M91 429l129 285h140l-95 -285h-174zM319 429l129 285h140l-95 -285h-174z" />
    <glyph glyph-name="quotedblright" unicode="&#x201d;" horiz-adv-x="495" 
d="M91 429l95 285h174l-129 -285h-140zM319 429l95 285h174l-129 -285h-140z" />
    <glyph glyph-name="quotedblbase" unicode="&#x201e;" horiz-adv-x="495" 
d="M-20 -94l95 285h174l-129 -285h-140zM208 -94l95 285h174l-129 -285h-140z" />
    <glyph glyph-name="dagger" unicode="&#x2020;" horiz-adv-x="506" 
d="M114 -87l99 465h-145l34 161h145l38 175h180l-38 -175h145l-34 -161h-145l-99 -465h-180z" />
    <glyph glyph-name="daggerdbl" unicode="&#x2021;" horiz-adv-x="517" 
d="M119 -87l37 172h-144l33 158h145l31 149h-145l34 158h145l35 164h180l-35 -164h145l-34 -158h-145l-31 -149h145l-34 -158h-145l-37 -172h-180z" />
    <glyph glyph-name="bullet" unicode="&#x2022;" horiz-adv-x="409" 
d="M405 362q0 -70 -44.5 -115t-115.5 -45q-70 0 -115 45t-45 115q0 71 45 115.5t115 44.5q45 0 81.5 -19.5t57.5 -56t21 -84.5z" />
    <glyph glyph-name="ellipsis" unicode="&#x2026;" horiz-adv-x="1065" 
d="M18 0l41 191h174l-41 -191h-174zM415 0l41 191h174l-41 -191h-174zM814 0l41 191h174l-41 -191h-174z" />
    <glyph glyph-name="perthousand" unicode="&#x2030;" horiz-adv-x="1419" 
d="M220 0l470 691h175l-470 -691h-175zM775 -13q-74 0 -118.5 45.5t-44.5 121.5q0 71 28 133t78.5 97t121.5 35q74 0 118.5 -45.5t44.5 -121.5q0 -71 -28 -133t-78.5 -97t-121.5 -35zM788 106q24 0 41 25t27 74q6 29 6 50t-9 33t-26 12q-47 0 -68 -99q-6 -28 -6 -50
q0 -21 9 -33t26 -12zM1194 -13q-74 0 -118.5 45.5t-44.5 121.5q0 71 28 133t78.5 97t121.5 35q74 0 118.5 -45.5t44.5 -121.5q0 -71 -28 -133t-78.5 -97t-121.5 -35zM1207 106q24 0 41 25t27 74q6 29 6 50t-9 33t-26 12q-47 0 -68 -99q-6 -28 -6 -50q0 -21 9 -33t26 -12z
M247 276q-74 0 -118.5 45.5t-44.5 121.5q0 71 28 133t78.5 97t121.5 35q74 0 118.5 -45.5t44.5 -121.5q0 -71 -28 -133t-78.5 -97t-121.5 -35zM260 395q24 0 41 25t27 74q6 29 6 50t-9 33t-26 12q-47 0 -68 -99q-6 -28 -6 -50q0 -21 9 -33t26 -12z" />
    <glyph glyph-name="minute" unicode="&#x2032;" horiz-adv-x="273" 
d="M92 443l92 271h173l-127 -271h-138z" />
    <glyph glyph-name="second" unicode="&#x2033;" horiz-adv-x="525" 
d="M92 443l92 271h173l-127 -271h-138zM344 443l92 271h173l-127 -271h-138z" />
    <glyph glyph-name="guilsinglleft" unicode="&#x2039;" horiz-adv-x="360" 
d="M126 28l-73 229l166 228h191l-162 -239l59 -218h-181z" />
    <glyph glyph-name="guilsinglright" unicode="&#x203a;" horiz-adv-x="361" 
d="M2 28l162 239l-59 218h181l73 -229l-166 -228h-191z" />
    <glyph glyph-name="fraction" unicode="&#x2044;" horiz-adv-x="144" 
d="M-207 0l470 691h175l-470 -691h-175z" />
    <glyph glyph-name="uni2070" unicode="&#x2070;" 
d="M248 276q-74 0 -118.5 45.5t-44.5 121.5q0 71 28 133t78.5 97t121.5 35q74 0 118.5 -45.5t44.5 -121.5q0 -71 -28 -133t-78.5 -97t-121.5 -35zM261 395q24 0 41 25t27 74q6 29 6 50t-9 33t-26 12q-47 0 -68 -99q-6 -28 -6 -50q0 -21 9 -33t26 -12z" />
    <glyph glyph-name="uni2074" unicode="&#x2074;" 
d="M248 289l16 74h-186l19 93l225 239h134l-50 -237h51l-29 -95h-42l-16 -74h-122zM305 561l-94 -103h73z" />
    <glyph glyph-name="uni2075" unicode="&#x2075;" 
d="M215 409q5 -37 40 -37q22 0 35 14.5t13 40.5q0 17 -11 27t-29 10q-12 0 -21.5 -3.5t-21.5 -12.5h-107l74 247h266l-22 -100h-165l-15 -50q27 10 54 10q54 0 88 -33t34 -86q0 -75 -46.5 -117.5t-129.5 -42.5q-74 0 -113.5 34t-40.5 99h118z" />
    <glyph glyph-name="uni2076" unicode="&#x2076;" 
d="M337 575q-4 20 -12 28t-23 8q-50 0 -68 -82q32 20 74 20q57 0 90 -31.5t33 -87.5q0 -69 -48 -111.5t-128 -42.5q-78 0 -118 41.5t-40 122.5q0 74 26.5 134.5t74.5 97t110 36.5q65 0 105.5 -33.5t43.5 -89.5zM312 421q0 43 -42 43q-25 0 -40 -14.5t-15 -38.5q0 -42 44 -42
q25 0 39 14t14 38z" />
    <glyph glyph-name="uni2077" unicode="&#x2077;" 
d="M131 289q78 157 179 297h-176l23 109h325l-19 -91q-117 -155 -192 -315h-140z" />
    <glyph glyph-name="uni2078" unicode="&#x2078;" 
d="M392 496q19 -12 31 -35t12 -49q0 -40 -22.5 -70.5t-65 -48t-99.5 -17.5q-74 0 -117.5 30.5t-43.5 82.5q0 81 83 111q-16 11 -25.5 32.5t-9.5 45.5q0 58 48 94t126 36q69 0 108.5 -29t39.5 -80q0 -69 -65 -103zM309 413q0 17 -11.5 26.5t-31.5 9.5q-26 0 -40.5 -11.5
t-14.5 -32.5q0 -16 12 -26.5t32 -10.5q25 0 39.5 12t14.5 33zM337 585q0 15 -10 23.5t-27 8.5q-23 0 -35.5 -11t-12.5 -31q0 -15 10.5 -24t28.5 -9q22 0 34 11.5t12 31.5z" />
    <glyph glyph-name="uni2079" unicode="&#x2079;" 
d="M209 403q4 -31 38 -31q28 0 43 19t21 62q-28 -19 -70 -19q-60 0 -93.5 32t-33.5 89q0 69 47.5 111t127.5 42q79 0 119 -44t40 -130q0 -75 -25.5 -133t-72.5 -91.5t-110 -33.5q-69 0 -109 34t-42 93h120zM329 569q0 22 -11.5 33.5t-32.5 11.5q-25 0 -38 -13.5t-13 -38.5
q0 -43 42 -43q24 0 38.5 13.5t14.5 36.5z" />
    <glyph glyph-name="uni2080" unicode="&#x2080;" 
d="M186 -13q-74 0 -118.5 45.5t-44.5 121.5q0 71 28 133t78.5 97t121.5 35q74 0 118.5 -45.5t44.5 -121.5q0 -71 -28 -133t-78.5 -97t-121.5 -35zM199 106q24 0 41 25t27 74q6 29 6 50t-9 33t-26 12q-47 0 -68 -99q-6 -28 -6 -50q0 -21 9 -33t26 -12z" />
    <glyph glyph-name="uni2081" unicode="&#x2081;" 
d="M137 0l58 273l-87 -42l-44 93l165 82h124l-86 -406h-130z" />
    <glyph glyph-name="uni2082" unicode="&#x2082;" 
d="M15 0l21 93l121 83q54 37 72 52.5t25 28t7 25.5q0 30 -32 30q-39 0 -51 -48l-121 13q14 67 62 104.5t121 37.5q69 0 109.5 -33t40.5 -90q0 -40 -21.5 -73.5t-86.5 -80.5q-15 -10 -29.5 -20t-26.5 -18h135l-30 -104h-316z" />
    <glyph glyph-name="uni2083" unicode="&#x2083;" 
d="M172 162l19 90h29q22 0 34 11t12 29q0 32 -36 32q-21 0 -33 -11t-19 -35l-115 12q14 64 58.5 97t116.5 33q70 0 111.5 -32t41.5 -86q0 -68 -66 -97q21 -13 33 -36t12 -50q0 -58 -48 -95t-125 -37q-80 0 -124 40t-44 113h120v-8q0 -23 12.5 -36.5t34.5 -13.5
q21 0 33.5 11.5t12.5 31.5q0 37 -40 37h-30z" />
    <glyph glyph-name="uni2084" unicode="&#x2084;" 
d="M186 0l16 74h-186l19 93l225 239h134l-50 -237h51l-29 -95h-42l-16 -74h-122zM243 272l-94 -103h73z" />
    <glyph glyph-name="uni2085" unicode="&#x2085;" 
d="M153 120q5 -37 40 -37q22 0 35 14.5t13 40.5q0 17 -11 27t-29 10q-12 0 -21.5 -3.5t-21.5 -12.5h-107l74 247h266l-22 -100h-165l-15 -50q27 10 54 10q54 0 88 -33t34 -86q0 -75 -46.5 -117.5t-129.5 -42.5q-74 0 -113.5 34t-40.5 99h118z" />
    <glyph glyph-name="uni2086" unicode="&#x2086;" 
d="M275 286q-4 20 -12 28t-23 8q-50 0 -68 -82q32 20 74 20q57 0 90 -31.5t33 -87.5q0 -69 -48 -111.5t-128 -42.5q-78 0 -118 41.5t-40 122.5q0 74 26.5 134.5t74.5 97t110 36.5q65 0 105.5 -33.5t43.5 -89.5zM250 132q0 43 -42 43q-25 0 -40 -14.5t-15 -38.5q0 -42 44 -42
q25 0 39 14t14 38z" />
    <glyph glyph-name="uni2087" unicode="&#x2087;" 
d="M69 0q78 157 179 297h-176l23 109h325l-19 -91q-117 -155 -192 -315h-140z" />
    <glyph glyph-name="uni2088" unicode="&#x2088;" 
d="M330 207q19 -12 31 -35t12 -49q0 -40 -22.5 -70.5t-65 -48t-99.5 -17.5q-74 0 -117.5 30.5t-43.5 82.5q0 81 83 111q-16 11 -25.5 32.5t-9.5 45.5q0 58 48 94t126 36q69 0 108.5 -29t39.5 -80q0 -69 -65 -103zM247 124q0 17 -11.5 26.5t-31.5 9.5q-26 0 -40.5 -11.5
t-14.5 -32.5q0 -16 12 -26.5t32 -10.5q25 0 39.5 12t14.5 33zM275 296q0 15 -10 23.5t-27 8.5q-23 0 -35.5 -11t-12.5 -31q0 -15 10.5 -24t28.5 -9q22 0 34 11.5t12 31.5z" />
    <glyph glyph-name="uni2089" unicode="&#x2089;" 
d="M147 114q4 -31 38 -31q28 0 43 19t21 62q-28 -19 -70 -19q-60 0 -93.5 32t-33.5 89q0 69 47.5 111t127.5 42q79 0 119 -44t40 -130q0 -75 -25.5 -133t-72.5 -91.5t-110 -33.5q-69 0 -109 34t-42 93h120zM267 280q0 22 -11.5 33.5t-32.5 11.5q-25 0 -38 -13.5t-13 -38.5
q0 -43 42 -43q24 0 38.5 13.5t14.5 36.5z" />
    <glyph glyph-name="Euro" unicode="&#x20ac;" horiz-adv-x="592" 
d="M601 204q-10 -64 -46 -114.5t-93.5 -79t-128.5 -28.5q-110 0 -169 64t-62 186h-77l33 88h48l8 52h-63l33 88h52q40 123 115 186.5t180 63.5q94 0 152 -52t67 -146l-171 -21q-3 36 -17.5 52.5t-42.5 16.5q-68 0 -104 -100h168l-33 -88h-159q-3 -14 -9 -52h152l-33 -88
h-125q4 -100 71 -100q29 0 51 19t30 53h173z" />
    <glyph glyph-name="uni20B9" unicode="&#x20b9;" horiz-adv-x="592" 
d="M302 0l-229 230l22 104h119q111 0 142 67h-246l23 109h231q-6 31 -34.5 47.5t-75.5 16.5h-108l25 117h498l-32 -109h-135q26 -30 33 -72h86l-33 -109h-54q-16 -77 -77.5 -123.5t-158.5 -54.5l220 -223h-216z" />
    <glyph glyph-name="uni20BA" unicode="&#x20ba;" horiz-adv-x="592" 
d="M591 305q-20 -148 -107.5 -226.5t-230.5 -78.5h-193l55 262l-43 -15l-29 85l94 33l11 48l-47 -16l-29 85l98 34l37 175h175l-23 -108l118 42l29 -85l-169 -60l-10 -48l121 43l29 -85l-172 -61l-37 -174h10q116 0 144 150h169z" />
    <glyph glyph-name="afii61289" unicode="&#x2113;" horiz-adv-x="552" 
d="M550 77q-80 -95 -212 -95q-78 0 -130 34t-68 96l-57 -37l-47 91l85 58q-1 11 -1 43v204q0 122 57.5 191t160.5 69q85 0 133.5 -49.5t48.5 -136.5q0 -88 -53.5 -171t-161.5 -165q3 -46 20.5 -67t52.5 -21q50 0 98 47zM303 343q48 47 73 98t25 100q0 32 -11.5 49.5
t-32.5 17.5q-54 0 -54 -120v-145z" />
    <glyph glyph-name="trademark" unicode="&#x2122;" horiz-adv-x="946" 
d="M175 314l63 294h-119l22 106h359l-22 -106h-121l-62 -294h-120zM819 314l48 223l-120 -223h-100l-24 222l-48 -222h-107l85 400h143l29 -264l139 264h150l-85 -400h-110z" />
    <glyph glyph-name="uni2126" unicode="&#x2126;" horiz-adv-x="773" 
d="M408 0l30 147q69 49 109 125.5t40 159.5q0 139 -119 139q-52 0 -93 -30t-64.5 -86.5t-23.5 -131.5q0 -101 55 -176l-30 -147h-305l32 152h123q-32 40 -49 92.5t-17 112.5q0 103 48.5 188t137 136t200.5 51q90 0 159 -34t107.5 -98t38.5 -151t-39.5 -165.5t-109.5 -131.5
h120l-47 -152h-303z" />
    <glyph glyph-name="estimated" unicode="&#x212e;" horiz-adv-x="911" 
d="M820 129q-54 -66 -139 -103t-182 -37q-107 0 -198.5 46.5t-148.5 130t-57 186.5q0 95 51.5 178t145 135t207.5 52q106 0 198.5 -46.5t150.5 -131t58 -187.5v-10h-657q-5 0 -5 -4v-199q0 -13 9 -22q49 -53 112.5 -80.5t135.5 -27.5q75 0 142 31t119 89h58zM756 568
q0 14 -9 24q-50 50 -113.5 76.5t-132.5 26.5q-68 0 -131.5 -27.5t-115.5 -79.5q-10 -7 -10 -24v-195q0 -7 5 -7h503q4 0 4 7v199z" />
    <glyph glyph-name="oneseventh" unicode="&#x2150;" horiz-adv-x="1001" 
d="M182 0l470 691h175l-470 -691h-175zM667 0q78 157 179 297h-176l23 109h325l-19 -91q-117 -155 -192 -315h-140zM179 289l58 273l-87 -42l-44 93l165 82h124l-86 -406h-130z" />
    <glyph glyph-name="oneninth" unicode="&#x2151;" horiz-adv-x="1001" 
d="M186 0l470 691h175l-470 -691h-175zM754 114q4 -31 38 -31q28 0 43 19t21 62q-28 -19 -70 -19q-60 0 -93.5 32t-33.5 89q0 69 47.5 111t127.5 42q79 0 119 -44t40 -130q0 -75 -25.5 -133t-72.5 -91.5t-110 -33.5q-69 0 -109 34t-42 93h120zM874 280q0 22 -11.5 33.5
t-32.5 11.5q-25 0 -38 -13.5t-13 -38.5q0 -43 42 -43q24 0 38.5 13.5t14.5 36.5zM179 289l58 273l-87 -42l-44 93l165 82h124l-86 -406h-130z" />
    <glyph glyph-name="onethird" unicode="&#x2153;" horiz-adv-x="1001" 
d="M189 0l470 691h175l-470 -691h-175zM773 162l19 90h29q22 0 34 11t12 29q0 32 -36 32q-21 0 -33 -11t-19 -35l-115 12q14 64 58.5 97t116.5 33q70 0 111.5 -32t41.5 -86q0 -68 -66 -97q21 -13 33 -36t12 -50q0 -58 -48 -95t-125 -37q-80 0 -124 40t-44 113h120v-8
q0 -23 12.5 -36.5t34.5 -13.5q21 0 33.5 11.5t12.5 31.5q0 37 -40 37h-30zM179 289l58 273l-87 -42l-44 93l165 82h124l-86 -406h-130z" />
    <glyph glyph-name="twothirds" unicode="&#x2154;" horiz-adv-x="1001" 
d="M222 0l470 691h175l-470 -691h-175zM773 162l19 90h29q22 0 34 11t12 29q0 32 -36 32q-21 0 -33 -11t-19 -35l-115 12q14 64 58.5 97t116.5 33q70 0 111.5 -32t41.5 -86q0 -68 -66 -97q21 -13 33 -36t12 -50q0 -58 -48 -95t-125 -37q-80 0 -124 40t-44 113h120v-8
q0 -23 12.5 -36.5t34.5 -13.5q21 0 33.5 11.5t12.5 31.5q0 37 -40 37h-30zM67 289l21 93l121 83q54 37 72 52.5t25 28t7 25.5q0 30 -32 30q-39 0 -51 -48l-121 13q14 67 62 104.5t121 37.5q69 0 109.5 -33t40.5 -90q0 -40 -21.5 -73.5t-86.5 -80.5q-15 -10 -29.5 -20
t-26.5 -18h135l-30 -104h-316z" />
    <glyph glyph-name="onefifth" unicode="&#x2155;" horiz-adv-x="1001" 
d="M194 0l470 691h175l-470 -691h-175zM762 120q5 -37 40 -37q22 0 35 14.5t13 40.5q0 17 -11 27t-29 10q-12 0 -21.5 -3.5t-21.5 -12.5h-107l74 247h266l-22 -100h-165l-15 -50q27 10 54 10q54 0 88 -33t34 -86q0 -75 -46.5 -117.5t-129.5 -42.5q-74 0 -113.5 34t-40.5 99
h118zM179 289l58 273l-87 -42l-44 93l165 82h124l-86 -406h-130z" />
    <glyph glyph-name="twofifths" unicode="&#x2156;" horiz-adv-x="1001" 
d="M231 0l470 691h175l-470 -691h-175zM762 120q5 -37 40 -37q22 0 35 14.5t13 40.5q0 17 -11 27t-29 10q-12 0 -21.5 -3.5t-21.5 -12.5h-107l74 247h266l-22 -100h-165l-15 -50q27 10 54 10q54 0 88 -33t34 -86q0 -75 -46.5 -117.5t-129.5 -42.5q-74 0 -113.5 34t-40.5 99
h118zM67 289l21 93l121 83q54 37 72 52.5t25 28t7 25.5q0 30 -32 30q-39 0 -51 -48l-121 13q14 67 62 104.5t121 37.5q69 0 109.5 -33t40.5 -90q0 -40 -21.5 -73.5t-86.5 -80.5q-15 -10 -29.5 -20t-26.5 -18h135l-30 -104h-316z" />
    <glyph glyph-name="threefifths" unicode="&#x2157;" horiz-adv-x="1001" 
d="M231 0l470 691h175l-470 -691h-175zM762 120q5 -37 40 -37q22 0 35 14.5t13 40.5q0 17 -11 27t-29 10q-12 0 -21.5 -3.5t-21.5 -12.5h-107l74 247h266l-22 -100h-165l-15 -50q27 10 54 10q54 0 88 -33t34 -86q0 -75 -46.5 -117.5t-129.5 -42.5q-74 0 -113.5 34t-40.5 99
h118zM235 451l19 90h29q22 0 34 11t12 29q0 32 -36 32q-21 0 -33 -11t-19 -35l-115 12q14 64 58.5 97t116.5 33q70 0 111.5 -32t41.5 -86q0 -68 -66 -97q21 -13 33 -36t12 -50q0 -58 -48 -95t-125 -37q-80 0 -124 40t-44 113h120v-8q0 -23 12.5 -36.5t34.5 -13.5
q21 0 33.5 11.5t12.5 31.5q0 37 -40 37h-30z" />
    <glyph glyph-name="fourfifths" unicode="&#x2158;" horiz-adv-x="1001" 
d="M229 0l470 691h175l-470 -691h-175zM762 120q5 -37 40 -37q22 0 35 14.5t13 40.5q0 17 -11 27t-29 10q-12 0 -21.5 -3.5t-21.5 -12.5h-107l74 247h266l-22 -100h-165l-15 -50q27 10 54 10q54 0 88 -33t34 -86q0 -75 -46.5 -117.5t-129.5 -42.5q-74 0 -113.5 34t-40.5 99
h118zM239 289l16 74h-186l19 93l225 239h134l-50 -237h51l-29 -95h-42l-16 -74h-122zM296 561l-94 -103h73z" />
    <glyph glyph-name="onesixth" unicode="&#x2159;" horiz-adv-x="1001" 
d="M192 0l470 691h175l-470 -691h-175zM884 286q-4 20 -12 28t-23 8q-50 0 -68 -82q32 20 74 20q57 0 90 -31.5t33 -87.5q0 -69 -48 -111.5t-128 -42.5q-78 0 -118 41.5t-40 122.5q0 74 26.5 134.5t74.5 97t110 36.5q65 0 105.5 -33.5t43.5 -89.5zM859 132q0 43 -42 43
q-25 0 -40 -14.5t-15 -38.5q0 -42 44 -42q25 0 39 14t14 38zM179 289l58 273l-87 -42l-44 93l165 82h124l-86 -406h-130z" />
    <glyph glyph-name="fivesixths" unicode="&#x215a;" horiz-adv-x="1001" 
d="M223 0l470 691h175l-470 -691h-175zM884 286q-4 20 -12 28t-23 8q-50 0 -68 -82q32 20 74 20q57 0 90 -31.5t33 -87.5q0 -69 -48 -111.5t-128 -42.5q-78 0 -118 41.5t-40 122.5q0 74 26.5 134.5t74.5 97t110 36.5q65 0 105.5 -33.5t43.5 -89.5zM859 132q0 43 -42 43
q-25 0 -40 -14.5t-15 -38.5q0 -42 44 -42q25 0 39 14t14 38zM208 409q5 -37 40 -37q22 0 35 14.5t13 40.5q0 17 -11 27t-29 10q-12 0 -21.5 -3.5t-21.5 -12.5h-107l74 247h266l-22 -100h-165l-15 -50q27 10 54 10q54 0 88 -33t34 -86q0 -75 -46.5 -117.5t-129.5 -42.5
q-74 0 -113.5 34t-40.5 99h118z" />
    <glyph glyph-name="oneeighth" unicode="&#x215b;" horiz-adv-x="1001" 
d="M194 0l470 691h175l-470 -691h-175zM933 207q19 -12 31 -35t12 -49q0 -40 -22.5 -70.5t-65 -48t-99.5 -17.5q-74 0 -117.5 30.5t-43.5 82.5q0 81 83 111q-16 11 -25.5 32.5t-9.5 45.5q0 58 48 94t126 36q69 0 108.5 -29t39.5 -80q0 -69 -65 -103zM850 124
q0 17 -11.5 26.5t-31.5 9.5q-26 0 -40.5 -11.5t-14.5 -32.5q0 -16 12 -26.5t32 -10.5q25 0 39.5 12t14.5 33zM878 296q0 15 -10 23.5t-27 8.5q-23 0 -35.5 -11t-12.5 -31q0 -15 10.5 -24t28.5 -9q22 0 34 11.5t12 31.5zM179 289l58 273l-87 -42l-44 93l165 82h124l-86 -406
h-130z" />
    <glyph glyph-name="threeeighths" unicode="&#x215c;" horiz-adv-x="1001" 
d="M229 0l470 691h175l-470 -691h-175zM933 207q19 -12 31 -35t12 -49q0 -40 -22.5 -70.5t-65 -48t-99.5 -17.5q-74 0 -117.5 30.5t-43.5 82.5q0 81 83 111q-16 11 -25.5 32.5t-9.5 45.5q0 58 48 94t126 36q69 0 108.5 -29t39.5 -80q0 -69 -65 -103zM850 124
q0 17 -11.5 26.5t-31.5 9.5q-26 0 -40.5 -11.5t-14.5 -32.5q0 -16 12 -26.5t32 -10.5q25 0 39.5 12t14.5 33zM878 296q0 15 -10 23.5t-27 8.5q-23 0 -35.5 -11t-12.5 -31q0 -15 10.5 -24t28.5 -9q22 0 34 11.5t12 31.5zM235 451l19 90h29q22 0 34 11t12 29q0 32 -36 32
q-21 0 -33 -11t-19 -35l-115 12q14 64 58.5 97t116.5 33q70 0 111.5 -32t41.5 -86q0 -68 -66 -97q21 -13 33 -36t12 -50q0 -58 -48 -95t-125 -37q-80 0 -124 40t-44 113h120v-8q0 -23 12.5 -36.5t34.5 -13.5q21 0 33.5 11.5t12.5 31.5q0 37 -40 37h-30z" />
    <glyph glyph-name="fiveeighths" unicode="&#x215d;" horiz-adv-x="1001" 
d="M219 0l470 691h175l-470 -691h-175zM933 207q19 -12 31 -35t12 -49q0 -40 -22.5 -70.5t-65 -48t-99.5 -17.5q-74 0 -117.5 30.5t-43.5 82.5q0 81 83 111q-16 11 -25.5 32.5t-9.5 45.5q0 58 48 94t126 36q69 0 108.5 -29t39.5 -80q0 -69 -65 -103zM850 124
q0 17 -11.5 26.5t-31.5 9.5q-26 0 -40.5 -11.5t-14.5 -32.5q0 -16 12 -26.5t32 -10.5q25 0 39.5 12t14.5 33zM878 296q0 15 -10 23.5t-27 8.5q-23 0 -35.5 -11t-12.5 -31q0 -15 10.5 -24t28.5 -9q22 0 34 11.5t12 31.5zM208 409q5 -37 40 -37q22 0 35 14.5t13 40.5
q0 17 -11 27t-29 10q-12 0 -21.5 -3.5t-21.5 -12.5h-107l74 247h266l-22 -100h-165l-15 -50q27 10 54 10q54 0 88 -33t34 -86q0 -75 -46.5 -117.5t-129.5 -42.5q-74 0 -113.5 34t-40.5 99h118z" />
    <glyph glyph-name="seveneighths" unicode="&#x215e;" horiz-adv-x="1001" 
d="M187 0l470 691h175l-470 -691h-175zM933 207q19 -12 31 -35t12 -49q0 -40 -22.5 -70.5t-65 -48t-99.5 -17.5q-74 0 -117.5 30.5t-43.5 82.5q0 81 83 111q-16 11 -25.5 32.5t-9.5 45.5q0 58 48 94t126 36q69 0 108.5 -29t39.5 -80q0 -69 -65 -103zM850 124
q0 17 -11.5 26.5t-31.5 9.5q-26 0 -40.5 -11.5t-14.5 -32.5q0 -16 12 -26.5t32 -10.5q25 0 39.5 12t14.5 33zM878 296q0 15 -10 23.5t-27 8.5q-23 0 -35.5 -11t-12.5 -31q0 -15 10.5 -24t28.5 -9q22 0 34 11.5t12 31.5zM120 289q78 157 179 297h-176l23 109h325l-19 -91
q-117 -155 -192 -315h-140z" />
    <glyph glyph-name="partialdiff" unicode="&#x2202;" horiz-adv-x="601" 
d="M145 531q26 91 85.5 135t156.5 44q110 0 170.5 -68t60.5 -193q0 -137 -41 -242.5t-118 -165t-181 -59.5q-103 0 -166.5 60.5t-63.5 157.5q0 70 31.5 127t89 91t130.5 34q92 0 146 -65q8 37 8 74q0 99 -77 99q-29 0 -47 -12t-28 -38zM292 123q46 0 75.5 32.5t29.5 83.5
q0 36 -22.5 58t-60.5 22q-46 0 -74.5 -30.5t-28.5 -80.5q0 -38 22.5 -61.5t58.5 -23.5z" />
    <glyph glyph-name="uni2206" unicode="&#x2206;" horiz-adv-x="727" 
d="M-14 0l391 714h218l87 -714h-696zM448 527l-193 -370h227z" />
    <glyph glyph-name="product" unicode="&#x220f;" horiz-adv-x="741" 
d="M453 0l117 551h-225l-117 -551h-191l150 714h609l-151 -714h-192z" />
    <glyph glyph-name="summation" unicode="&#x2211;" horiz-adv-x="623" 
d="M-25 -102l23 110l264 303l-138 291l24 112h571l-33 -156h-347l122 -262l-213 -242h341l-46 -156h-568z" />
    <glyph glyph-name="minus" unicode="&#x2212;" horiz-adv-x="592" 
d="M104 261l33 159h436l-33 -159h-436z" />
    <glyph glyph-name="uni2215" unicode="&#x2215;" horiz-adv-x="144" 
d="M-207 0l470 691h175l-470 -691h-175z" />
    <glyph glyph-name="uni2219" unicode="&#x2219;" horiz-adv-x="269" 
d="M74 278l41 191h174l-41 -191h-174z" />
    <glyph glyph-name="radical" unicode="&#x221a;" horiz-adv-x="656" 
d="M196 0l-50 273h-89l33 158h210l22 -209l265 509h194l-410 -731h-175z" />
    <glyph glyph-name="infinity" unicode="&#x221e;" horiz-adv-x="596" 
d="M287 341q-4 28 -17 44.5t-31 16.5q-26 0 -42 -22t-16 -57q0 -20 10.5 -32t26.5 -12q20 0 38 16.5t31 45.5zM322 229q-29 -38 -62 -56t-74 -18q-59 0 -95 41t-36 108q0 61 22.5 111.5t64.5 81t95 30.5q38 0 68.5 -19.5t48.5 -54.5q54 74 136 74q59 0 95 -41t36 -108
q0 -61 -22.5 -111.5t-64.5 -81t-95 -30.5q-78 0 -117 74zM389 341q4 -28 17 -44.5t31 -16.5q26 0 42 21.5t16 57.5q0 20 -10.5 32t-26.5 12q-19 0 -37.5 -16.5t-31.5 -45.5z" />
    <glyph glyph-name="integral" unicode="&#x222b;" horiz-adv-x="363" 
d="M148 513q7 101 58 155t141 54q67 0 121 -26l-47 -123q-23 11 -43 11q-28 0 -41.5 -18t-16.5 -60l-30 -416q-7 -102 -59 -156t-143 -54q-33 0 -66 7.5t-57 19.5l47 122q28 -11 45 -11q29 0 43.5 18.5t17.5 59.5z" />
    <glyph glyph-name="approxequal" unicode="&#x2248;" horiz-adv-x="592" 
d="M602 322q-13 -117 -63.5 -179t-132.5 -62q-33 0 -59.5 9.5t-63.5 34.5q-24 16 -36 21t-25 5q-24 0 -37 -16t-18 -51h-156q13 117 63.5 179t132.5 62q33 0 59.5 -9.5t63.5 -34.5q24 -16 36 -21t25 -5q24 0 37 16t18 51h156zM660 600q-13 -117 -63.5 -179t-132.5 -62
q-33 0 -59.5 9.5t-63.5 34.5q-24 16 -36 21t-25 5q-24 0 -37 -16t-18 -51h-156q13 117 63.5 179t132.5 62q33 0 59.5 -9.5t63.5 -34.5q24 -16 36 -21t25 -5q24 0 37 16t18 51h156z" />
    <glyph glyph-name="notequal" unicode="&#x2260;" horiz-adv-x="592" 
d="M286 152l-69 -105h-145l69 105h-62l32 151h130l50 77h-166l32 151h234l69 105h145l-69 -105h62l-32 -151h-130l-50 -77h166l-32 -151h-234z" />
    <glyph glyph-name="lessequal" unicode="&#x2264;" horiz-adv-x="592" 
d="M36 0l31 145h465l-31 -145h-465zM109 343l31 149l499 160l-34 -160l-297 -75l264 -78l-32 -155z" />
    <glyph glyph-name="greaterequal" unicode="&#x2265;" horiz-adv-x="592" 
d="M36 0l31 145h465l-31 -145h-465zM75 184l34 160l297 75l-264 78l32 155l431 -159l-31 -149z" />
    <glyph glyph-name="lozenge" unicode="&#x25ca;" horiz-adv-x="625" 
d="M203 0l-128 357l280 357h158l128 -357l-280 -357h-158zM456 367l-56 163l-140 -183l56 -163z" />
    <glyph glyph-name="twosevenths" unicode="&#xf507;" horiz-adv-x="1001" 
d="M216 0l470 691h175l-470 -691h-175zM671 0q78 157 179 297h-176l23 109h325l-19 -91q-117 -155 -192 -315h-140zM67 289l21 93l121 83q54 37 72 52.5t25 28t7 25.5q0 30 -32 30q-39 0 -51 -48l-121 13q14 67 62 104.5t121 37.5q69 0 109.5 -33t40.5 -90
q0 -40 -21.5 -73.5t-86.5 -80.5q-15 -10 -29.5 -20t-26.5 -18h135l-30 -104h-316z" />
    <glyph glyph-name="threesevenths" unicode="&#xf508;" horiz-adv-x="1001" 
d="M217 0l470 691h175l-470 -691h-175zM671 0q78 157 179 297h-176l23 109h325l-19 -91q-117 -155 -192 -315h-140zM235 451l19 90h29q22 0 34 11t12 29q0 32 -36 32q-21 0 -33 -11t-19 -35l-115 12q14 64 58.5 97t116.5 33q70 0 111.5 -32t41.5 -86q0 -68 -66 -97
q21 -13 33 -36t12 -50q0 -58 -48 -95t-125 -37q-80 0 -124 40t-44 113h120v-8q0 -23 12.5 -36.5t34.5 -13.5q21 0 33.5 11.5t12.5 31.5q0 37 -40 37h-30z" />
    <glyph glyph-name="foursevenths" unicode="&#xf509;" horiz-adv-x="1001" 
d="M213 0l470 691h175l-470 -691h-175zM671 0q78 157 179 297h-176l23 109h325l-19 -91q-117 -155 -192 -315h-140zM239 289l16 74h-186l19 93l225 239h134l-50 -237h51l-29 -95h-42l-16 -74h-122zM296 561l-94 -103h73z" />
    <glyph glyph-name="fivesevenths" unicode="&#xf50a;" horiz-adv-x="1001" 
d="M208 0l470 691h175l-470 -691h-175zM671 0q78 157 179 297h-176l23 109h325l-19 -91q-117 -155 -192 -315h-140zM208 409q5 -37 40 -37q22 0 35 14.5t13 40.5q0 17 -11 27t-29 10q-12 0 -21.5 -3.5t-21.5 -12.5h-107l74 247h266l-22 -100h-165l-15 -50q27 10 54 10
q54 0 88 -33t34 -86q0 -75 -46.5 -117.5t-129.5 -42.5q-74 0 -113.5 34t-40.5 99h118z" />
    <glyph glyph-name="sixsevenths" unicode="&#xf50b;" horiz-adv-x="1001" 
d="M209 0l470 691h175l-470 -691h-175zM671 0q78 157 179 297h-176l23 109h325l-19 -91q-117 -155 -192 -315h-140zM332 575q-4 20 -12 28t-23 8q-50 0 -68 -82q32 20 74 20q57 0 90 -31.5t33 -87.5q0 -69 -48 -111.5t-128 -42.5q-78 0 -118 41.5t-40 122.5q0 74 26.5 134.5
t74.5 97t110 36.5q65 0 105.5 -33.5t43.5 -89.5zM307 421q0 43 -42 43q-25 0 -40 -14.5t-15 -38.5q0 -42 44 -42q25 0 39 14t14 38z" />
    <glyph glyph-name="twoninths" unicode="&#xf50d;" horiz-adv-x="1001" 
d="M220 0l470 691h175l-470 -691h-175zM754 114q4 -31 38 -31q28 0 43 19t21 62q-28 -19 -70 -19q-60 0 -93.5 32t-33.5 89q0 69 47.5 111t127.5 42q79 0 119 -44t40 -130q0 -75 -25.5 -133t-72.5 -91.5t-110 -33.5q-69 0 -109 34t-42 93h120zM874 280q0 22 -11.5 33.5
t-32.5 11.5q-25 0 -38 -13.5t-13 -38.5q0 -43 42 -43q24 0 38.5 13.5t14.5 36.5zM67 289l21 93l121 83q54 37 72 52.5t25 28t7 25.5q0 30 -32 30q-39 0 -51 -48l-121 13q14 67 62 104.5t121 37.5q69 0 109.5 -33t40.5 -90q0 -40 -21.5 -73.5t-86.5 -80.5q-15 -10 -29.5 -20
t-26.5 -18h135l-30 -104h-316z" />
    <glyph glyph-name="fourninths" unicode="&#xf50e;" horiz-adv-x="1001" 
d="M220 0l470 691h175l-470 -691h-175zM754 114q4 -31 38 -31q28 0 43 19t21 62q-28 -19 -70 -19q-60 0 -93.5 32t-33.5 89q0 69 47.5 111t127.5 42q79 0 119 -44t40 -130q0 -75 -25.5 -133t-72.5 -91.5t-110 -33.5q-69 0 -109 34t-42 93h120zM874 280q0 22 -11.5 33.5
t-32.5 11.5q-25 0 -38 -13.5t-13 -38.5q0 -43 42 -43q24 0 38.5 13.5t14.5 36.5zM239 289l16 74h-186l19 93l225 239h134l-50 -237h51l-29 -95h-42l-16 -74h-122zM296 561l-94 -103h73z" />
    <glyph glyph-name="fiveninths" unicode="&#xf50f;" horiz-adv-x="1001" 
d="M213 0l470 691h175l-470 -691h-175zM754 114q4 -31 38 -31q28 0 43 19t21 62q-28 -19 -70 -19q-60 0 -93.5 32t-33.5 89q0 69 47.5 111t127.5 42q79 0 119 -44t40 -130q0 -75 -25.5 -133t-72.5 -91.5t-110 -33.5q-69 0 -109 34t-42 93h120zM874 280q0 22 -11.5 33.5
t-32.5 11.5q-25 0 -38 -13.5t-13 -38.5q0 -43 42 -43q24 0 38.5 13.5t14.5 36.5zM208 409q5 -37 40 -37q22 0 35 14.5t13 40.5q0 17 -11 27t-29 10q-12 0 -21.5 -3.5t-21.5 -12.5h-107l74 247h266l-22 -100h-165l-15 -50q27 10 54 10q54 0 88 -33t34 -86q0 -75 -46.5 -117.5
t-129.5 -42.5q-74 0 -113.5 34t-40.5 99h118z" />
    <glyph glyph-name="sevenninths" unicode="&#xf510;" horiz-adv-x="1001" 
d="M185 0l470 691h175l-470 -691h-175zM754 114q4 -31 38 -31q28 0 43 19t21 62q-28 -19 -70 -19q-60 0 -93.5 32t-33.5 89q0 69 47.5 111t127.5 42q79 0 119 -44t40 -130q0 -75 -25.5 -133t-72.5 -91.5t-110 -33.5q-69 0 -109 34t-42 93h120zM874 280q0 22 -11.5 33.5
t-32.5 11.5q-25 0 -38 -13.5t-13 -38.5q0 -43 42 -43q24 0 38.5 13.5t14.5 36.5zM120 289q78 157 179 297h-176l23 109h325l-19 -91q-117 -155 -192 -315h-140z" />
    <glyph glyph-name="eightninths" unicode="&#xf511;" horiz-adv-x="1001" 
d="M220 0l470 691h175l-470 -691h-175zM754 114q4 -31 38 -31q28 0 43 19t21 62q-28 -19 -70 -19q-60 0 -93.5 32t-33.5 89q0 69 47.5 111t127.5 42q79 0 119 -44t40 -130q0 -75 -25.5 -133t-72.5 -91.5t-110 -33.5q-69 0 -109 34t-42 93h120zM874 280q0 22 -11.5 33.5
t-32.5 11.5q-25 0 -38 -13.5t-13 -38.5q0 -43 42 -43q24 0 38.5 13.5t14.5 36.5zM386 496q19 -12 31 -35t12 -49q0 -40 -22.5 -70.5t-65 -48t-99.5 -17.5q-74 0 -117.5 30.5t-43.5 82.5q0 81 83 111q-16 11 -25.5 32.5t-9.5 45.5q0 58 48 94t126 36q69 0 108.5 -29t39.5 -80
q0 -69 -65 -103zM303 413q0 17 -11.5 26.5t-31.5 9.5q-26 0 -40.5 -11.5t-14.5 -32.5q0 -16 12 -26.5t32 -10.5q25 0 39.5 12t14.5 33zM331 585q0 15 -10 23.5t-27 8.5q-23 0 -35.5 -11t-12.5 -31q0 -15 10.5 -24t28.5 -9q22 0 34 11.5t12 31.5z" />
    <glyph glyph-name="zero.numr" unicode="&#xf80a;" 
d="M273 396q-74 0 -118.5 45.5t-44.5 121.5q0 71 28 133t78.5 97t121.5 35q74 0 118.5 -45.5t44.5 -121.5q0 -71 -28 -133t-78.5 -97t-121.5 -35zM286 515q24 0 41 25t27 74q6 29 6 50t-9 33t-26 12q-47 0 -68 -99q-6 -28 -6 -50q0 -21 9 -33t26 -12z" />
    <glyph glyph-name="one.numr" unicode="&#xf80b;" 
d="M223 405l58 273l-87 -42l-44 93l165 82h124l-86 -406h-130z" />
    <glyph glyph-name="two.numr" unicode="&#xf80c;" 
d="M102 409l21 93l121 83q54 37 72 52.5t25 28t7 25.5q0 30 -32 30q-39 0 -51 -48l-121 13q14 67 62 104.5t121 37.5q69 0 109.5 -33t40.5 -90q0 -40 -21.5 -73.5t-86.5 -80.5q-15 -10 -29.5 -20t-26.5 -18h135l-30 -104h-316z" />
    <glyph glyph-name="three.numr" unicode="&#xf80d;" 
d="M259 571l19 90h29q22 0 34 11t12 29q0 32 -36 32q-21 0 -33 -11t-19 -35l-115 12q14 64 58.5 97t116.5 33q70 0 111.5 -32t41.5 -86q0 -68 -66 -97q21 -13 33 -36t12 -50q0 -58 -48 -95t-125 -37q-80 0 -124 40t-44 113h120v-8q0 -23 12.5 -36.5t34.5 -13.5
q21 0 33.5 11.5t12.5 31.5q0 37 -40 37h-30z" />
    <glyph glyph-name="four.numr" unicode="&#xf80e;" 
d="M272 405l16 74h-186l19 93l225 239h134l-50 -237h51l-29 -95h-42l-16 -74h-122zM329 677l-94 -103h73z" />
    <glyph glyph-name="five.numr" unicode="&#xf80f;" 
d="M239 525q5 -37 40 -37q22 0 35 14.5t13 40.5q0 17 -11 27t-29 10q-12 0 -21.5 -3.5t-21.5 -12.5h-107l74 247h266l-22 -100h-165l-15 -50q27 10 54 10q54 0 88 -33t34 -86q0 -75 -46.5 -117.5t-129.5 -42.5q-74 0 -113.5 34t-40.5 99h118z" />
    <glyph glyph-name="six.numr" unicode="&#xf810;" 
d="M362 694q-4 20 -12 28t-23 8q-50 0 -68 -82q32 20 74 20q57 0 90 -31.5t33 -87.5q0 -69 -48 -111.5t-128 -42.5q-78 0 -118 41.5t-40 122.5q0 74 26.5 134.5t74.5 97t110 36.5q65 0 105.5 -33.5t43.5 -89.5zM337 540q0 43 -42 43q-25 0 -40 -14.5t-15 -38.5q0 -42 44 -42
q25 0 39 14t14 38z" />
    <glyph glyph-name="seven.numr" unicode="&#xf811;" 
d="M155 405q78 157 179 297h-176l23 109h325l-19 -91q-117 -155 -192 -315h-140z" />
    <glyph glyph-name="eight.numr" unicode="&#xf812;" 
d="M417 616q19 -12 31 -35t12 -49q0 -40 -22.5 -70.5t-65 -48t-99.5 -17.5q-74 0 -117.5 30.5t-43.5 82.5q0 81 83 111q-16 11 -25.5 32.5t-9.5 45.5q0 58 48 94t126 36q69 0 108.5 -29t39.5 -80q0 -69 -65 -103zM334 533q0 17 -11.5 26.5t-31.5 9.5q-26 0 -40.5 -11.5
t-14.5 -32.5q0 -16 12 -26.5t32 -10.5q25 0 39.5 12t14.5 33zM362 705q0 15 -10 23.5t-27 8.5q-23 0 -35.5 -11t-12.5 -31q0 -15 10.5 -24t28.5 -9q22 0 34 11.5t12 31.5z" />
    <glyph glyph-name="nine.numr" unicode="&#xf813;" 
d="M234 522q4 -31 38 -31q28 0 43 19t21 62q-28 -19 -70 -19q-60 0 -93.5 32t-33.5 89q0 69 47.5 111t127.5 42q79 0 119 -44t40 -130q0 -75 -25.5 -133t-72.5 -91.5t-110 -33.5q-69 0 -109 34t-42 93h120zM354 688q0 22 -11.5 33.5t-32.5 11.5q-25 0 -38 -13.5t-13 -38.5
q0 -43 42 -43q24 0 38.5 13.5t14.5 36.5z" />
    <glyph glyph-name="zero.dnom" unicode="&#xf814;" 
d="M161 -137q-74 0 -118.5 45.5t-44.5 121.5q0 71 28 133t78.5 97t121.5 35q74 0 118.5 -45.5t44.5 -121.5q0 -71 -28 -133t-78.5 -97t-121.5 -35zM174 -18q24 0 41 25t27 74q6 29 6 50t-9 33t-26 12q-47 0 -68 -99q-6 -28 -6 -50q0 -21 9 -33t26 -12z" />
    <glyph glyph-name="one.dnom" unicode="&#xf815;" 
d="M112 -120l58 273l-87 -42l-44 93l165 82h124l-86 -406h-130z" />
    <glyph glyph-name="two.dnom" unicode="&#xf816;" 
d="M-10 -120l21 93l121 83q54 37 72 52.5t25 28t7 25.5q0 30 -32 30q-39 0 -51 -48l-121 13q14 67 62 104.5t121 37.5q69 0 109.5 -33t40.5 -90q0 -40 -21.5 -73.5t-86.5 -80.5q-15 -10 -29.5 -20t-26.5 -18h135l-30 -104h-316z" />
    <glyph glyph-name="three.dnom" unicode="&#xf817;" 
d="M147 38l19 90h29q22 0 34 11t12 29q0 32 -36 32q-21 0 -33 -11t-19 -35l-115 12q14 64 58.5 97t116.5 33q70 0 111.5 -32t41.5 -86q0 -68 -66 -97q21 -13 33 -36t12 -50q0 -58 -48 -95t-125 -37q-80 0 -124 40t-44 113h120v-8q0 -23 12.5 -36.5t34.5 -13.5
q21 0 33.5 11.5t12.5 31.5q0 37 -40 37h-30z" />
    <glyph glyph-name="four.dnom" unicode="&#xf818;" 
d="M161 -120l16 74h-186l19 93l225 239h134l-50 -237h51l-29 -95h-42l-16 -74h-122zM218 152l-94 -103h73z" />
    <glyph glyph-name="five.dnom" unicode="&#xf819;" 
d="M128 -4q5 -37 40 -37q22 0 35 14.5t13 40.5q0 17 -11 27t-29 10q-12 0 -21.5 -3.5t-21.5 -12.5h-107l74 247h266l-22 -100h-165l-15 -50q27 10 54 10q54 0 88 -33t34 -86q0 -75 -46.5 -117.5t-129.5 -42.5q-74 0 -113.5 34t-40.5 99h118z" />
    <glyph glyph-name="six.dnom" unicode="&#xf81a;" 
d="M250 162q-4 20 -12 28t-23 8q-50 0 -68 -82q32 20 74 20q57 0 90 -31.5t33 -87.5q0 -69 -48 -111.5t-128 -42.5q-78 0 -118 41.5t-40 122.5q0 74 26.5 134.5t74.5 97t110 36.5q65 0 105.5 -33.5t43.5 -89.5zM225 8q0 43 -42 43q-25 0 -40 -14.5t-15 -38.5q0 -42 44 -42
q25 0 39 14t14 38z" />
    <glyph glyph-name="seven.dnom" unicode="&#xf81b;" 
d="M44 -120q78 157 179 297h-176l23 109h325l-19 -91q-117 -155 -192 -315h-140z" />
    <glyph glyph-name="eight.dnom" unicode="&#xf81c;" 
d="M305 83q19 -12 31 -35t12 -49q0 -40 -22.5 -70.5t-65 -48t-99.5 -17.5q-74 0 -117.5 30.5t-43.5 82.5q0 81 83 111q-16 11 -25.5 32.5t-9.5 45.5q0 58 48 94t126 36q69 0 108.5 -29t39.5 -80q0 -69 -65 -103zM222 0q0 17 -11.5 26.5t-31.5 9.5q-26 0 -40.5 -11.5
t-14.5 -32.5q0 -16 12 -26.5t32 -10.5q25 0 39.5 12t14.5 33zM250 172q0 15 -10 23.5t-27 8.5q-23 0 -35.5 -11t-12.5 -31q0 -15 10.5 -24t28.5 -9q22 0 34 11.5t12 31.5z" />
    <glyph glyph-name="nine.dnom" unicode="&#xf81d;" 
d="M122 -10q4 -31 38 -31q28 0 43 19t21 62q-28 -19 -70 -19q-60 0 -93.5 32t-33.5 89q0 69 47.5 111t127.5 42q79 0 119 -44t40 -130q0 -75 -25.5 -133t-72.5 -91.5t-110 -33.5q-69 0 -109 34t-42 93h120zM242 156q0 22 -11.5 33.5t-32.5 11.5q-25 0 -38 -13.5t-13 -38.5
q0 -43 42 -43q24 0 38.5 13.5t14.5 36.5z" />
    <glyph glyph-name="fi" unicode="&#xfb01;" horiz-adv-x="718" 
d="M69 0l77 364h-85l30 141h85l6 28q20 95 75 142t146 47q35 0 73 -7.5t62 -19.5l-48 -122q-25 11 -57 11q-31 0 -48 -14t-24 -47l-4 -18h114l-30 -141h-114l-77 -364h-181zM452 0l111 525h181l-111 -525h-181zM572 583l28 131h183l-28 -131h-183z" />
    <glyph glyph-name="fl" unicode="&#xfb02;" horiz-adv-x="703" 
d="M69 0l77 364h-85l30 141h85l6 28q20 95 75 142t146 47q35 0 73 -7.5t62 -19.5l-48 -122q-25 11 -57 11q-31 0 -48 -14t-24 -47l-4 -18h114l-30 -141h-114l-77 -364h-181zM437 0l151 714h181l-151 -714h-181z" />
    <glyph glyph-name="uniFEFF" unicode="&#xfeff;" horiz-adv-x="0" 
 />
    <glyph glyph-name="zero.pnum" horiz-adv-x="633" 
d="M312 -18q-107 0 -166 70t-59 196q0 130 39.5 234.5t112.5 166t168 61.5q107 0 166 -70t59 -196q0 -130 -39.5 -234.5t-112.5 -166t-168 -61.5zM326 139q36 0 61.5 50.5t45.5 164.5q11 62 11 109q0 90 -51 90q-36 0 -61.5 -50.5t-45.5 -164.5q-11 -62 -11 -109
q0 -90 51 -90z" />
    <glyph glyph-name="one.pnum" horiz-adv-x="484" 
d="M184 0l102 483l-125 -67l-71 134l264 141h160l-146 -691h-184z" />
    <glyph glyph-name="two.pnum" horiz-adv-x="589" 
d="M17 0l29 136l195 140q85 61 125 96.5t55 62.5t15 57q0 64 -68 64q-37 0 -60 -21.5t-36 -67.5l-172 17q22 106 98 166t188 60q108 0 170.5 -53.5t62.5 -146.5q0 -50 -18 -91t-58.5 -84t-112.5 -102q-29 -25 -109 -82h243l-44 -151h-503z" />
    <glyph glyph-name="three.pnum" horiz-adv-x="594" 
d="M264 281l30 147h56q40 0 63.5 19.5t23.5 51.5q0 59 -70 59q-37 0 -59 -19.5t-34 -63.5l-166 18q17 101 89.5 159t184.5 58q108 0 173.5 -52.5t65.5 -138.5q0 -59 -32 -103t-91 -67q39 -22 60 -60t21 -88q0 -64 -32.5 -113.5t-94.5 -77.5t-144 -28q-122 0 -190 63t-68 176
v15h176q0 -49 22.5 -76t63.5 -27q39 0 61.5 21t22.5 58q0 34 -20 51.5t-58 17.5h-54z" />
    <glyph glyph-name="four.pnum" horiz-adv-x="601" 
d="M300 0l28 137h-296l31 145l367 409h189l-89 -417h77l-41 -137h-65l-28 -137h-173zM400 472l-176 -198h134z" />
    <glyph glyph-name="five.pnum" horiz-adv-x="584" 
d="M230 206q3 -36 22 -55t51 -19q40 0 64 28.5t24 75.5q0 80 -74 80q-23 0 -42 -8.5t-37 -27.5h-155l119 411h414l-31 -151h-266l-31 -106q22 13 42 18t46 5q88 0 141.5 -58.5t53.5 -154.5q0 -76 -33.5 -135.5t-96.5 -93t-146 -33.5q-112 0 -177 58.5t-65 158.5v7h177z" />
    <glyph glyph-name="six.pnum" horiz-adv-x="600" 
d="M475 498q-8 65 -60 65q-44 0 -75 -40t-47 -116q22 19 54 29.5t67 10.5q85 0 136.5 -58t51.5 -154q0 -73 -33 -130t-95 -90t-144 -33q-118 0 -181.5 68.5t-63.5 194.5q0 51 11 109q31 173 115 264.5t209 91.5q63 0 112 -22.5t78.5 -66.5t34.5 -103zM335 124
q42 0 66.5 28.5t24.5 77.5q0 84 -76 84q-43 0 -68 -27.5t-25 -76.5q0 -42 20 -64t58 -22z" />
    <glyph glyph-name="seven.pnum" horiz-adv-x="580" 
d="M93 0q136 279 323 535h-302l33 156h507l-29 -135q-194 -260 -334 -556h-198z" />
    <glyph glyph-name="eight.pnum" horiz-adv-x="603" 
d="M514 350q35 -20 55.5 -58.5t20.5 -86.5q0 -64 -36 -114.5t-102.5 -79.5t-154.5 -29q-117 0 -185.5 52.5t-68.5 142.5q0 65 39 115.5t106 72.5q-62 46 -62 127q0 62 33 111.5t94.5 78t143.5 28.5q109 0 173.5 -50.5t64.5 -135.5q0 -59 -32.5 -106t-88.5 -68zM417 212
q0 73 -89 73q-51 0 -80 -24t-29 -66q0 -35 23 -53t66 -18q50 0 79.5 23.5t29.5 64.5zM466 502q0 68 -80 68q-44 0 -69.5 -22.5t-25.5 -60.5q0 -32 20.5 -49t58.5 -17q44 0 70 22t26 59z" />
    <glyph glyph-name="nine.pnum" horiz-adv-x="601" 
d="M215 189q5 -30 21 -45t45 -15q44 0 71.5 37t43.5 117q-22 -19 -54 -29.5t-67 -10.5q-84 0 -136 59t-52 155q0 71 32.5 128.5t93 91t137.5 33.5q124 0 188 -67t64 -196q0 -49 -7 -92q-54 -373 -317 -373q-104 0 -167 55.5t-68 151.5h172zM432 482q0 42 -20.5 64t-57.5 22
q-42 0 -66.5 -28.5t-24.5 -77.5q0 -84 76 -84q43 0 68 28t25 76z" />
    <glyph glyph-name="hyphen.case" horiz-adv-x="410" 
d="M67 274l36 167h331l-36 -167h-331z" />
    <glyph glyph-name="endash.case" horiz-adv-x="500" 
d="M28 277l34 160h500l-35 -160h-499z" />
    <glyph glyph-name="emdash.case" horiz-adv-x="1000" 
d="M28 277l34 160h1000l-35 -160h-999z" />
    <glyph glyph-name="parenleft.case" horiz-adv-x="343" 
d="M119 -72q-25 56 -39 130t-14 148q0 152 60 304.5t168 275.5h184q-113 -147 -168.5 -296.5t-55.5 -309.5q0 -141 41 -252h-176z" />
    <glyph glyph-name="parenright.case" horiz-adv-x="343" 
d="M-43 -72q113 147 168.5 296.5t55.5 309.5q0 141 -41 252h176q25 -56 39 -130t14 -148q0 -152 -60 -304.5t-168 -275.5h-184z" />
    <glyph glyph-name="slash.case" horiz-adv-x="428" 
d="M-28 -9l389 734h187l-389 -734h-187z" />
    <glyph glyph-name="backslash.case" horiz-adv-x="428" 
d="M211 -9l-76 734h175l76 -734h-175z" />
    <glyph glyph-name="bracketleft.case" horiz-adv-x="382" 
d="M20 -72l182 858h296l-33 -154h-114l-117 -550h114l-33 -154h-295z" />
    <glyph glyph-name="bracketright.case" horiz-adv-x="382" 
d="M-24 -72l33 154h114l117 550h-114l33 154h295l-182 -858h-296z" />
    <glyph glyph-name="braceleft.case" horiz-adv-x="387" 
d="M226 -72q-70 0 -109 34.5t-39 95.5q0 22 5 44l22 105q3 15 3 27q0 49 -50 49h-10l32 148h10q63 0 78 70l23 111q18 91 69.5 132.5t145.5 41.5h100l-33 -153h-55q-28 0 -42 -12t-20 -41l-25 -115q-18 -84 -90 -110q47 -21 47 -78q0 -8 -0.5 -16t-2.5 -16l-22 -102
q-4 -15 -4 -28q0 -34 38 -34h59l-33 -153h-97z" />
    <glyph glyph-name="braceright.case" horiz-adv-x="387" 
d="M-27 -72l33 153h55q28 0 42 12t20 41l25 115q18 84 90 110q-47 21 -47 78q0 8 1 16l2 16l22 102q4 15 4 28q0 34 -38 34h-59l33 153h97q70 0 109 -34.5t39 -95.5q0 -21 -5 -44l-22 -105q-3 -15 -3 -27q0 -49 50 -49h10l-32 -148h-10q-63 0 -78 -70l-23 -111
q-18 -91 -69.5 -132.5t-145.5 -41.5h-100z" />
    <glyph glyph-name="bullet.case" horiz-adv-x="409" 
d="M405 358q0 -70 -44.5 -115t-115.5 -45q-70 0 -115 45t-45 115q0 71 45 115.5t115 44.5q45 0 81.5 -19.5t57.5 -56t21 -84.5z" />
    <glyph glyph-name="guilsinglleft.case" horiz-adv-x="361" 
d="M148 128l-73 229l166 228h191l-162 -239l59 -218h-181z" />
    <glyph glyph-name="guilsinglright.case" horiz-adv-x="361" 
d="M24 128l162 239l-59 218h181l73 -229l-166 -228h-191z" />
    <glyph glyph-name="guillemotleft.case" horiz-adv-x="621" 
d="M148 128l-73 229l166 228h191l-162 -239l59 -218h-181zM408 128l-73 229l166 228h191l-162 -239l59 -218h-181z" />
    <glyph glyph-name="guillemotright.case" horiz-adv-x="621" 
d="M24 128l162 239l-59 218h181l73 -229l-166 -228h-191zM284 128l162 239l-59 218h181l73 -229l-166 -228h-191z" />
    <glyph glyph-name="at.case" horiz-adv-x="1018" 
d="M874 65q-50 -82 -148.5 -130t-219.5 -48q-125 0 -219.5 49.5t-146.5 144t-52 223.5q0 145 67 263t190 188t280 70q118 0 209 -46.5t142.5 -133.5t51.5 -203q0 -95 -32.5 -169.5t-93 -117t-140.5 -42.5q-111 0 -140 79q-29 -42 -64.5 -62t-80.5 -20q-72 0 -113.5 50
t-41.5 139q0 77 29.5 143t83 106.5t118.5 40.5q71 0 105 -55l9 45h151l-60 -296q-3 -15 -3 -22q0 -19 8 -27.5t25 -8.5q47 0 79 61.5t32 152.5q0 131 -73 201.5t-209 70.5q-113 0 -202.5 -49.5t-142 -141.5t-52.5 -213q0 -145 78.5 -225.5t219.5 -80.5q62 0 108 15.5
t84 48.5h164zM618 380q3 15 3 31q0 55 -44 55q-41 0 -66 -43t-25 -112q0 -68 47 -68q60 0 78 97z" />
    <glyph glyph-name="periodcentered.case" horiz-adv-x="269" 
d="M73 261l41 191h174l-41 -191h-174z" />
    <glyph glyph-name="questiondown.case" horiz-adv-x="532" 
d="M538 205q-22 -107 -92 -162t-183 -55q-108 0 -169.5 46.5t-61.5 128.5q0 58 30 104t100 96q50 35 71 59.5t25 50.5l2 12h165l-4 -20q-9 -44 -22.5 -70.5t-37.5 -50.5t-67 -55q-43 -32 -58.5 -52t-15.5 -45q0 -55 62 -55q36 0 58.5 20.5t33.5 64.5zM267 541l37 173h169
l-37 -173h-169z" />
    <glyph glyph-name="exclamdown.case" horiz-adv-x="308" 
d="M26 0l121 485h161l-85 -485h-197zM152 541l36 173h168l-35 -173h-169z" />
    <glyph glyph-name="periodcentered.loclCAT" horiz-adv-x="269" 
d="M77 278l41 191h174l-41 -191h-174z" />
    <glyph glyph-name="periodcentered.loclCAT.cap" horiz-adv-x="269" 
d="M90 340l41 191h174l-41 -191h-174z" />
    <glyph glyph-name="i.locl" horiz-adv-x="291" 
d="M25 0l111 525h181l-111 -525h-181zM145 583l28 131h183l-28 -131h-183z" />
    <glyph glyph-name="Eng.locl" horiz-adv-x="739" 
d="M545 441q6 29 6 47q0 38 -19 58.5t-57 20.5q-47 0 -93 -35q-48 -37 -61 -98l-93 -434h-192l151 714h178l-17 -77q48 46 106.5 70.5t121.5 24.5q85 0 132 -44.5t47 -125.5q0 -35 -9 -76l-96 -455q-27 -129 -89 -185t-178 -56q-77 0 -151 24l52 146q45 -13 82 -13
q42 0 62 18t30 67z" />
    <glyph glyph-name="uni0327.cap" horiz-adv-x="0" 
d="M-127 -144q40 -4 65 -4q26 0 37.5 6.5t11.5 20.5q0 13 -12.5 18.5t-38.5 5.5h-34l59 106l86 -9l-26 -46q43 -7 65 -28t22 -53q0 -50 -43.5 -76.5t-125.5 -26.5q-36 0 -81 8z" />
    <glyph glyph-name="uni0326.cap" horiz-adv-x="0" 
d="M-223 -236l121 170h204l-156 -170h-169z" />
    <glyph glyph-name="uni0328.cap" horiz-adv-x="0" 
d="M22 -204q-26 -5 -67 -5q-62 0 -96.5 22t-34.5 62q0 39 29.5 71t91.5 60l123 -6q-92 -44 -92 -79q0 -25 39 -25q4 0 11.5 0.5t17.5 1.5z" />
    <glyph glyph-name="uni0328.round" horiz-adv-x="0" 
d="M21 -201q-30 -5 -64 -5q-61 0 -93 21t-32 61q0 39 27 70t87 60l121 -6q-47 -22 -68 -40.5t-21 -37.5q0 -24 38 -24q17 0 27 1z" />
    <glyph glyph-name="uni0328.round.cap" horiz-adv-x="0" 
d="M22 -204q-30 -5 -67 -5q-62 0 -96.5 22t-34.5 62q0 39 29.5 71t91.5 60l123 -6q-92 -44 -92 -79q0 -25 39 -25q9 0 29 2z" />
    <glyph glyph-name="iogonek.dotless" horiz-adv-x="291" 
d="M25 0l111 525h181l-111 -525h-181zM160 -201q-28 -5 -64 -5q-61 0 -93 21t-32 61q0 39 27 70t87 60l121 -6q-47 -22 -68 -40.5t-21 -37.5q0 -24 38 -24q18 0 27 1z" />
    <glyph glyph-name="acutecomb.cap" horiz-adv-x="0" 
d="M59 772h-178l161 155h215z" />
    <glyph glyph-name="uni030B.cap" horiz-adv-x="0" 
d="M-42 772h-154l149 155h186zM196 772h-154l149 155h186z" />
    <glyph glyph-name="gravecomb.cap" horiz-adv-x="0" 
d="M-50 772l-132 155h198l95 -155h-161z" />
    <glyph glyph-name="uni0302.cap" horiz-adv-x="0" 
d="M63 772l-45 69l-76 -69h-156l158 155h175l95 -155h-151z" />
    <glyph glyph-name="tildecomb.cap" horiz-adv-x="0" 
d="M220 930q-9 -78 -47.5 -119.5t-101.5 -41.5q-19 0 -36 5t-42 18q-35 18 -51 18q-39 0 -45 -41h-116q9 78 47.5 119.5t101.5 41.5q19 0 36 -5t42 -18q37 -18 51 -18q39 0 45 41h116z" />
    <glyph glyph-name="uni030C.cap" horiz-adv-x="0" 
d="M86 772h-175l-95 155h151l45 -69l76 69h156z" />
    <glyph glyph-name="uni0315.short" horiz-adv-x="0" 
d="M-57 579l60 184h145l-92 -184h-113z" />
    <glyph glyph-name="uni0304.cap" horiz-adv-x="0" 
d="M-165 784l29 132h329l-29 -132h-329z" />
    <glyph glyph-name="uni0308.cap" horiz-adv-x="0" 
d="M-199 775l31 144h168l-31 -144h-168zM30 775l31 144h168l-31 -144h-168z" />
    <glyph glyph-name="uni0306.cap" horiz-adv-x="0" 
d="M182 931q-12 -80 -62.5 -121t-138.5 -41q-75 0 -119 35t-44 94q0 22 4 33h127q-1 -6 -1 -15q0 -42 44 -42q27 0 42 14t20 43h128z" />
    <glyph glyph-name="uni0307.cap" horiz-adv-x="0" 
d="M-92 775l31 147h184l-31 -147h-184z" />
    <glyph glyph-name="uni030A.cap" horiz-adv-x="0" 
d="M132 866q0 -58 -35.5 -92.5t-96.5 -34.5t-96.5 34.5t-35.5 92.5t36 93t96 35t96 -35t36 -93zM43 866q0 44 -43 44q-41 0 -41 -44q0 -43 41 -43q43 0 43 43z" />
    </font>
</defs>
</svg>
