<?xml version="1.0" standalone="no"?>
<!DOCTYPE svg PUBLIC "-//W3C//DTD SVG 1.1//EN" "http://www.w3.org/Graphics/SVG/1.1/DTD/svg11.dtd" >
<svg xmlns="http://www.w3.org/2000/svg" xmlns:xlink="http://www.w3.org/1999/xlink" version="1.1">
<metadata>
Created by FontForge 20170731 at Thu Jul  2 18:18:02 2015
 By Aleksey,,,
Copyright 2015 Dalton Maag Ltd. All rights reserved. This font may not be altered in any way without prior permission of Dalton Maag Ltd.
</metadata>
<defs>
<font id="AktivGroteskTrial-ThinItalic" horiz-adv-x="412" >
  <font-face 
    font-family="Aktiv Grotesk Trial Thin"
    font-weight="275"
    font-style="italic"
    font-stretch="normal"
    units-per-em="1000"
    panose-1="2 11 4 4 2 2 2 9 2 4"
    ascent="714"
    descent="-286"
    x-height="513"
    cap-height="714"
    bbox="-208 -213 1240 914"
    underline-thickness="68"
    underline-position="-201"
    slope="-11.94"
    unicode-range="U+0008-FEFF"
  />
<missing-glyph horiz-adv-x="500" 
d="M50 0v750h400v-750h-400zM400 700h-300v-650h300v650z" />
    <glyph glyph-name="f_i" unicode="fi" horiz-adv-x="497" 
d="M60 0l102 479h-80l7 34h80l15 69q16 73 53 106.5t99 33.5q40 0 70 -13l-12 -32q-24 11 -59 11q-48 0 -74.5 -25t-38.5 -80l-15 -70h149l-7 -34h-149l-102 -479h-38zM347 0l109 513h38l-109 -513h-38zM477 622l20 92h40l-20 -92h-40z" />
    <glyph glyph-name="f_l" unicode="fl" horiz-adv-x="487" 
d="M60 0l102 479h-80l7 34h80l15 69q16 73 53 106.5t99 33.5q40 0 70 -13l-12 -32q-24 11 -59 11q-48 0 -74.5 -25t-38.5 -80l-15 -70h149l-7 -34h-149l-102 -479h-38zM337 0l152 714h38l-152 -714h-38z" />
    <glyph glyph-name="f_f" unicode="ff" horiz-adv-x="630" 
d="M60 0l102 479h-80l7 34h80l15 69q16 73 53 106.5t99 33.5q40 0 70 -13l-12 -32q-24 11 -59 11q-48 0 -74.5 -25t-38.5 -80l-15 -70h149l-7 -34h-149l-102 -479h-38zM385 0l102 479h-80l7 34h80l15 69q16 73 53 106.5t99 33.5q40 0 70 -13l-12 -32q-24 11 -59 11
q-48 0 -74.5 -25t-38.5 -80l-15 -70h149l-7 -34h-149l-102 -479h-38z" />
    <glyph glyph-name="f_f_i" unicode="ffi" horiz-adv-x="822" 
d="M60 0l102 479h-80l7 34h80l15 69q16 73 53 106.5t99 33.5q40 0 70 -13l-12 -32q-24 11 -59 11q-48 0 -74.5 -25t-38.5 -80l-15 -70h149l-7 -34h-149l-102 -479h-38zM672 0l109 513h38l-109 -513h-38zM802 622l20 92h40l-20 -92h-40zM385 0l102 479h-80l7 34h80l15 69
q16 73 53 106.5t99 33.5q40 0 70 -13l-12 -32q-24 11 -59 11q-48 0 -74.5 -25t-38.5 -80l-15 -70h149l-7 -34h-149l-102 -479h-38z" />
    <glyph glyph-name="f_f_l" unicode="ffl" horiz-adv-x="812" 
d="M60 0l102 479h-80l7 34h80l15 69q16 73 53 106.5t99 33.5q40 0 70 -13l-12 -32q-24 11 -59 11q-48 0 -74.5 -25t-38.5 -80l-15 -70h149l-7 -34h-149l-102 -479h-38zM385 0l102 479h-80l7 34h80l15 69q16 73 53 106.5t99 33.5q40 0 70 -13l-12 -32q-24 11 -59 11
q-48 0 -74.5 -25t-38.5 -80l-15 -70h149l-7 -34h-149l-102 -479h-38zM662 0l152 714h38l-152 -714h-38z" />
    <glyph glyph-name=".notdef" horiz-adv-x="500" 
d="M50 0v750h400v-750h-400zM400 700h-300v-650h300v650z" />
    <glyph glyph-name=".null" horiz-adv-x="0" 
 />
    <glyph glyph-name=".null" horiz-adv-x="0" 
 />
    <glyph glyph-name=".null" horiz-adv-x="0" 
 />
    <glyph glyph-name="nonmarkingreturn" unicode="&#x9;" horiz-adv-x="225" 
 />
    <glyph glyph-name="nonmarkingreturn" unicode="&#xd;" horiz-adv-x="225" 
 />
    <glyph glyph-name="space" unicode=" " horiz-adv-x="225" 
 />
    <glyph glyph-name="exclam" unicode="!" horiz-adv-x="198" 
d="M81 185l110 529h39l-114 -529h-35zM40 0l22 102h42l-22 -102h-42z" />
    <glyph glyph-name="quotedbl" unicode="&#x22;" horiz-adv-x="273" 
d="M100 480l45 234h40l-53 -234h-32zM245 480l45 234h40l-53 -234h-32z" />
    <glyph glyph-name="numbersign" unicode="#" horiz-adv-x="592" 
d="M302 0l70 190h-206l-70 -190h-37l70 190h-114l7 31h119l93 248h-118l7 31h122l66 178h37l-66 -178h206l66 178h37l-66 -178h116l-7 -31h-120l-93 -248h119l-7 -31h-124l-70 -190h-37zM477 469h-206l-93 -248h206z" />
    <glyph glyph-name="dollar" unicode="$" horiz-adv-x="592" 
d="M211 -106l19 90q-174 20 -180 185h37q3 -67 40 -104t111 -45l69 323q-95 24 -134 62t-39 108q0 91 62.5 144t169.5 53h19l16 75h33l-17 -79q69 -10 114 -53.5t59 -111.5l-36 -8q-15 62 -50 95.5t-94 43.5l-65 -302q67 -15 106.5 -38t57 -57.5t17.5 -83.5
q0 -98 -66.5 -153.5t-183.5 -55.5h-13l-19 -88h-33zM270 18h5q101 0 156 45t55 128q0 61 -32 92t-116 52zM377 675h-14q-90 0 -141 -42.5t-51 -117.5q0 -56 32.5 -87t110.5 -50z" />
    <glyph glyph-name="percent" unicode="%" horiz-adv-x="870" 
d="M197 0l498 691h44l-498 -691h-44zM642 -23q-66 0 -104 43t-38 117q0 71 26 131.5t73 97.5t104 37q66 0 104 -42.5t38 -117.5q0 -71 -26 -131.5t-73 -97.5t-104 -37zM643 9q44 0 81.5 29.5t60 83.5t22.5 121q0 61 -27.5 94.5t-77.5 33.5q-44 0 -81.5 -29.5t-60 -83.5
t-22.5 -121q0 -61 27.5 -94.5t77.5 -33.5zM231 281q-66 0 -104 43t-38 117q0 71 26 131.5t73 97.5t104 37q66 0 104 -42.5t38 -117.5q0 -71 -26 -131.5t-73 -97.5t-104 -37zM232 313q44 0 81.5 29.5t60 83.5t22.5 121q0 61 -27.5 94.5t-77.5 33.5q-44 0 -81.5 -29.5
t-60 -83.5t-22.5 -121q0 -61 27.5 -94.5t77.5 -33.5z" />
    <glyph glyph-name="ampersand" unicode="&#x26;" horiz-adv-x="612" 
d="M519 0l-42 65q-88 -81 -221 -81q-100 0 -157.5 47t-57.5 130q0 72 50 127.5t167 113.5q-29 49 -42 85.5t-13 71.5q0 69 44.5 112t115.5 43q61 0 95.5 -34.5t34.5 -93.5q0 -42 -17 -71t-56 -57.5t-112 -66.5l175 -268q56 77 68 200h37q-11 -137 -85 -230l60 -93h-44z
M275 375q-81 -43 -121.5 -75t-56.5 -63.5t-16 -72.5q0 -69 46.5 -107.5t132.5 -38.5q122 0 198 76zM290 419q66 32 101 57.5t50 51.5t15 60q0 45 -25.5 69.5t-71.5 24.5q-54 0 -85.5 -33t-31.5 -90q0 -60 48 -140z" />
    <glyph glyph-name="quotesingle" unicode="'" horiz-adv-x="128" 
d="M100 480l45 234h40l-53 -234h-32z" />
    <glyph glyph-name="parenleft" unicode="(" horiz-adv-x="229" 
d="M110 -124q-21 52 -32.5 116.5t-11.5 132.5q0 158 60 321t165 288h37q-109 -142 -165 -299.5t-56 -323.5q0 -121 38 -235h-35z" />
    <glyph glyph-name="parenright" unicode=")" horiz-adv-x="228" 
d="M-49 -124q109 142 165 299.5t56 323.5q0 121 -38 235h35q21 -52 32.5 -116.5t11.5 -132.5q0 -158 -60 -321t-165 -288h-37z" />
    <glyph glyph-name="asterisk" unicode="*" horiz-adv-x="355" 
d="M307 423l-54 111l-100 -112l-27 24l108 107l-111 45l14 32l109 -51l24 135h37l-32 -136l119 49l12 -32l-130 -44l65 -111z" />
    <glyph glyph-name="plus" unicode="+" horiz-adv-x="592" 
d="M260 101l47 222h-207l7 35h207l47 220h36l-47 -220h207l-7 -35h-207l-47 -222h-36z" />
    <glyph glyph-name="comma" unicode="," horiz-adv-x="179" 
d="M-9 -87l71 189h45l-82 -189h-34z" />
    <glyph glyph-name="hyphen" unicode="-" horiz-adv-x="389" 
d="M67 269l9 38h289l-9 -38h-289z" />
    <glyph glyph-name="period" unicode="." horiz-adv-x="179" 
d="M28 0l22 102h42l-22 -102h-42z" />
    <glyph glyph-name="slash" unicode="/" horiz-adv-x="287" 
d="M-29 0l380 734h41l-380 -734h-41z" />
    <glyph glyph-name="zero" unicode="0" horiz-adv-x="592" 
d="M263 -18q-91 0 -140 63t-49 179q0 129 41 239.5t115.5 178.5t165.5 68t140 -63t49 -179q0 -128 -41 -238.5t-115.5 -179t-165.5 -68.5zM265 18q55 0 104.5 31.5t88.5 91t62 143.5t23 182q0 103 -37.5 155.5t-111.5 52.5q-55 0 -104.5 -31.5t-88.5 -91t-62 -143.5
t-23 -182q0 -103 37.5 -155.5t111.5 -52.5z" />
    <glyph glyph-name="one" unicode="1" horiz-adv-x="592" 
d="M276 0l138 649l-200 -107l-16 31l221 118h43l-147 -691h-39z" />
    <glyph glyph-name="two" unicode="2" horiz-adv-x="592" 
d="M35 0l8 37l223 167q117 88 171 140t74 93.5t20 90.5q0 70 -41 108t-116 38q-150 0 -197 -148l-35 7q21 83 83 130t151 47q92 0 144 -48t52 -133q0 -61 -25.5 -109.5t-84.5 -103.5t-167 -135l-195 -144h385l-16 -37h-434z" />
    <glyph glyph-name="three" unicode="3" horiz-adv-x="592" 
d="M253 344l8 36h79q90 0 140.5 42t50.5 117q0 66 -40.5 100.5t-117.5 34.5q-153 0 -197 -141l-36 7q21 81 82.5 125.5t152.5 44.5q92 0 144 -45t52 -125q0 -66 -39.5 -114t-107.5 -64q47 -16 72 -57t25 -101q0 -63 -29 -113.5t-83 -79.5t-125 -29q-100 0 -157.5 52.5
t-59.5 144.5h37q2 -75 51 -118t132 -43q90 0 142 50.5t52 136.5q0 67 -32.5 103t-93.5 36h-102z" />
    <glyph glyph-name="four" unicode="4" horiz-adv-x="592" 
d="M359 0l40 189h-347l6 34l443 468h43l-100 -468h102l-14 -34h-95l-40 -189h-38zM493 636l-391 -413h304z" />
    <glyph glyph-name="five" unicode="5" horiz-adv-x="592" 
d="M108 167q2 -71 46 -110t122 -39q98 0 155 60t57 163q0 80 -39.5 121t-115.5 41q-44 0 -86 -18t-90 -57h-37l101 363h356l-8 -36h-323l-79 -286q82 68 172 68q89 0 139 -51t50 -143q0 -75 -31 -134t-88.5 -93t-133.5 -34q-94 0 -149 50t-55 135h37z" />
    <glyph glyph-name="six" unicode="6" horiz-adv-x="592" 
d="M555 557q-11 59 -45 88t-95 29q-110 0 -182.5 -93t-103.5 -273q71 129 215 129q92 0 143.5 -52t51.5 -146q0 -72 -30 -130.5t-86 -92.5t-128 -34q-45 0 -86 15q-63 24 -93.5 78t-30.5 142q0 131 42 243t118.5 181t171.5 69q74 0 119 -38t54 -109zM296 18q59 0 104.5 26
t71.5 75.5t26 116.5q0 81 -40 123t-115 42q-60 0 -109.5 -26.5t-79 -75t-29.5 -110.5q0 -79 46 -125t125 -46z" />
    <glyph glyph-name="seven" unicode="7" horiz-adv-x="592" 
d="M149 0q178 358 408 655h-412l7 36h455l-7 -37q-244 -320 -406 -654h-45z" />
    <glyph glyph-name="eight" unicode="8" horiz-adv-x="592" 
d="M416 348q61 -15 93.5 -55.5t32.5 -102.5q0 -96 -72.5 -152t-196.5 -56q-109 0 -168.5 46t-59.5 130q0 78 53 131.5t141 64.5q-52 18 -79.5 57t-27.5 95q0 91 68.5 147.5t179.5 56.5q97 0 152 -45.5t55 -126.5q0 -73 -46.5 -124.5t-124.5 -65.5zM501 189q0 71 -48 107.5
t-141 36.5q-107 0 -166.5 -45.5t-59.5 -127.5q0 -71 47.5 -107.5t139.5 -36.5q106 0 167 46.5t61 126.5zM548 535q0 69 -44 105t-126 36q-95 0 -151 -46.5t-56 -125.5q0 -66 43 -101t125 -35q97 0 153 45t56 122z" />
    <glyph glyph-name="nine" unicode="9" horiz-adv-x="592" 
d="M109 139q7 -59 45.5 -90t104.5 -31q227 0 267 369q-65 -133 -217 -133q-92 0 -143.5 53t-51.5 146q0 72 30 130.5t86 92.5t128 34q83 0 138 -44q37 -30 54 -80.5t17 -131.5q0 -139 -37.5 -245.5t-108 -166.5t-165.5 -60q-81 0 -129.5 41.5t-55.5 115.5h38zM527 501
q0 80 -45.5 126.5t-124.5 46.5q-59 0 -105 -26.5t-72 -76t-26 -116.5q0 -80 40 -122.5t116 -42.5q61 0 110 26t78 74t29 111z" />
    <glyph glyph-name="colon" unicode=":" horiz-adv-x="179" 
d="M29 0l22 102h42l-22 -102h-42zM116 411l22 102h42l-22 -102h-42z" />
    <glyph glyph-name="semicolon" unicode=";" horiz-adv-x="179" 
d="M-11 -87l71 189h45l-82 -189h-34zM116 411l22 102h42l-22 -102h-42z" />
    <glyph glyph-name="less" unicode="&#x3c;" horiz-adv-x="592" 
d="M107 324l6 29l487 221l-9 -41l-435 -196l353 -195l-9 -38z" />
    <glyph glyph-name="equal" unicode="=" horiz-adv-x="592" 
d="M86 210l7 36h428l-7 -36h-428zM136 435l7 36h428l-7 -36h-428z" />
    <glyph glyph-name="greater" unicode="&#x3e;" horiz-adv-x="592" 
d="M55 104l9 41l435 196l-353 195l9 38l393 -220l-6 -29z" />
    <glyph glyph-name="question" unicode="?" horiz-adv-x="492" 
d="M208 185l2 8q11 47 25.5 72.5t42 51.5t85.5 71q60 47 87 89.5t27 91.5q0 59 -37.5 90.5t-109.5 31.5t-117 -35t-71 -111l-35 7q54 174 228 174q85 0 133 -41.5t48 -114.5q0 -57 -29.5 -104t-100.5 -103q-77 -60 -102.5 -91.5t-34.5 -76.5l-2 -10h-39zM171 0l22 102h42
l-22 -102h-42z" />
    <glyph glyph-name="at" unicode="@" horiz-adv-x="913" 
d="M765 -63q-52 -75 -130.5 -111t-187.5 -36q-188 0 -289.5 99.5t-101.5 283.5q0 136 57 247.5t161.5 177.5t238.5 66q109 0 193 -44t131.5 -126.5t47.5 -193.5q0 -83 -26 -152t-73.5 -110.5t-108.5 -41.5q-46 0 -73.5 21.5t-27.5 57.5q0 7 1 12q-33 -50 -73 -73.5
t-92 -23.5q-77 0 -119.5 47t-42.5 133q0 73 30 136.5t84.5 102.5t121.5 39q54 0 90 -26t51 -76q8 45 19 90h36l-70 -329q-3 -15 -3 -25q0 -26 17.5 -40.5t48.5 -14.5q48 0 87 33t62 94t23 140q0 100 -40.5 176t-117 118t-181.5 42q-116 0 -209.5 -56t-148.5 -160.5
t-55 -240.5q0 -169 91.5 -259t263.5 -90q93 0 159.5 27.5t114.5 85.5h41zM602 237q6 30 6 48q0 60 -33.5 95.5t-88.5 35.5q-53 0 -97.5 -31t-71.5 -87.5t-27 -126.5q0 -73 31.5 -111t92.5 -38q69 0 115.5 48t66.5 140z" />
    <glyph glyph-name="A" unicode="A" horiz-adv-x="650" 
d="M548 0l-41 228h-345l-137 -228h-44l432 714h45l132 -714h-42zM427 670l-243 -405h316z" />
    <glyph glyph-name="B" unicode="B" horiz-adv-x="617" 
d="M44 0l151 714h220q97 0 147.5 -39.5t50.5 -115.5q0 -72 -44.5 -120.5t-126.5 -64.5q61 -14 94 -56.5t33 -107.5q0 -101 -74.5 -155.5t-213.5 -54.5h-237zM286 36q119 0 180 43.5t61 129.5q0 147 -176 147h-193l-68 -320h196zM345 393q110 0 169 42t59 122q0 63 -41 92.5
t-128 29.5h-177l-61 -286h179z" />
    <glyph glyph-name="C" unicode="C" horiz-adv-x="696" 
d="M661 231q-28 -119 -107.5 -183.5t-198.5 -64.5q-127 0 -200 79t-73 216q0 125 46 228t130.5 164.5t192.5 61.5q107 0 171 -59t75 -169l-38 -7q-24 199 -210 199q-91 0 -164.5 -51.5t-117 -145.5t-43.5 -216q0 -126 61.5 -195t171.5 -69q102 0 170 54.5t95 157.5h39z" />
    <glyph glyph-name="D" unicode="D" horiz-adv-x="701" 
d="M44 0l151 714h209q132 0 206 -78.5t74 -218.5q0 -122 -50.5 -216t-144.5 -147.5t-220 -53.5h-225zM276 36q108 0 190.5 45.5t129 131t46.5 201.5q0 129 -62 196.5t-181 67.5h-172l-136 -642h185z" />
    <glyph glyph-name="E" unicode="E" horiz-adv-x="580" 
d="M44 0l151 714h441l-7 -37h-401l-62 -290h380l-7 -37h-381l-67 -313h415l-18 -37h-444z" />
    <glyph glyph-name="F" unicode="F" horiz-adv-x="545" 
d="M156 341l-72 -341h-40l151 714h418l-7 -37h-378l-64 -299h355l-7 -37h-356z" />
    <glyph glyph-name="G" unicode="G" horiz-adv-x="696" 
d="M618 305h-210l8 36h250l-58 -272q-45 -40 -111.5 -63t-134.5 -23q-131 0 -205.5 81t-74.5 223q0 122 46.5 223t131 161.5t191.5 60.5q98 0 159 -49.5t80 -145.5l-38 -6q-16 80 -68 122.5t-135 42.5q-90 0 -163.5 -50.5t-117.5 -143t-44 -211.5q0 -130 63.5 -201
t179.5 -71q58 0 111.5 18t93.5 50z" />
    <glyph glyph-name="H" unicode="H" horiz-adv-x="680" 
d="M516 0l74 351h-432l-74 -351h-40l151 714h40l-69 -326h432l69 326h40l-151 -714h-40z" />
    <glyph glyph-name="I" unicode="I" horiz-adv-x="208" 
d="M44 0l152 714h40l-152 -714h-40z" />
    <glyph glyph-name="J" unicode="J" horiz-adv-x="570" 
d="M562 714h40l-105 -493q-26 -122 -88.5 -180t-168.5 -58q-101 0 -155 49t-54 140q0 17 1 25h37v-13q0 -84 41.5 -124.5t127.5 -40.5q93 0 145 50t76 162z" />
    <glyph glyph-name="K" unicode="K" horiz-adv-x="629" 
d="M522 0l-194 420l-186 -149l-58 -271h-40l151 714h40l-83 -393l490 393h51l-334 -268l208 -446h-45z" />
    <glyph glyph-name="L" unicode="L" horiz-adv-x="548" 
d="M44 0l151 714h40l-144 -677h399l-16 -37h-430z" />
    <glyph glyph-name="M" unicode="M" horiz-adv-x="823" 
d="M662 0l136 644l-408 -644h-37l-135 648l-137 -648h-37l151 714h48l138 -664l421 664h48l-151 -714h-37z" />
    <glyph glyph-name="N" unicode="N" horiz-adv-x="683" 
d="M515 0l-292 654l-139 -654h-40l151 714h43l293 -657l140 657h40l-152 -714h-44z" />
    <glyph glyph-name="O" unicode="O" horiz-adv-x="745" 
d="M353 -17q-81 0 -142 35.5t-95 103t-34 158.5q0 120 48.5 222.5t136.5 166t197 63.5q81 0 142 -35.5t95 -103t34 -158.5q0 -120 -48.5 -222.5t-136.5 -166t-197 -63.5zM355 19q90 0 167 52.5t124 148.5t47 215q0 123 -61.5 192t-169.5 69q-90 0 -167 -52.5t-124 -148.5
t-47 -215q0 -123 61.5 -192t169.5 -69z" />
    <glyph glyph-name="P" unicode="P" horiz-adv-x="607" 
d="M44 0l151 714h210q105 0 162 -46.5t57 -132.5q0 -113 -77 -175.5t-216 -62.5h-185l-63 -297h-39zM337 333q121 0 183.5 51.5t62.5 150.5q0 71 -46.5 107.5t-137.5 36.5h-172l-74 -346h184z" />
    <glyph glyph-name="Q" unicode="Q" horiz-adv-x="745" 
d="M597 -70l-65 104q-82 -51 -179 -51q-81 0 -142 35.5t-95 103t-34 158.5q0 120 48.5 222.5t136.5 166t197 63.5q81 0 142 -35.5t95 -103t34 -158.5q0 -117 -46 -217.5t-127 -162.5l66 -105zM437 189l31 19l75 -121q70 57 110 149t40 199q0 123 -61.5 192t-169.5 69
q-90 0 -167 -52.5t-124 -148.5t-47 -215q0 -123 61.5 -192t169.5 -69q83 0 158 46z" />
    <glyph glyph-name="R" unicode="R" horiz-adv-x="617" 
d="M485 0l-79 326q-24 -4 -60 -4h-195l-68 -322h-39l151 714h218q104 0 158 -45t54 -131q0 -81 -46 -133.5t-134 -72.5l84 -332h-44zM356 358q111 0 169.5 46t58.5 133q0 72 -43.5 106.5t-134.5 34.5h-179l-68 -320h197z" />
    <glyph glyph-name="S" unicode="S" horiz-adv-x="621" 
d="M303 358q-164 35 -164 172q0 94 65.5 148t180.5 54q205 0 236 -177l-38 -8q-16 79 -63 114t-136 35q-99 0 -152 -42t-53 -121q0 -57 31 -89t101 -48l94 -21q81 -18 119.5 -60.5t38.5 -114.5q0 -102 -70.5 -159.5t-196.5 -57.5q-116 0 -178.5 49t-64.5 143h38
q10 -156 206 -156q109 0 166 46t57 134q0 58 -29 91t-93 47z" />
    <glyph glyph-name="T" unicode="T" horiz-adv-x="578" 
d="M229 0l144 677h-251l7 37h542l-7 -37h-251l-144 -677h-40z" />
    <glyph glyph-name="U" unicode="U" horiz-adv-x="665" 
d="M660 714h40l-94 -441q-23 -107 -60 -170t-93.5 -91.5t-139.5 -28.5q-113 0 -168.5 50t-55.5 152q0 48 13 111l89 418h40l-91 -428q-12 -52 -12 -98q0 -169 187 -169q106 0 164 57.5t88 201.5z" />
    <glyph glyph-name="V" unicode="V" horiz-adv-x="630" 
d="M254 0l-122 714h43l109 -668l392 668h46l-424 -714h-44z" />
    <glyph glyph-name="W" unicode="W" horiz-adv-x="887" 
d="M584 0l-40 660l-318 -660h-46l-46 714h41l37 -662l320 659h45l40 -659l316 662h44l-347 -714h-46z" />
    <glyph glyph-name="X" unicode="X" horiz-adv-x="605" 
d="M502 0l-169 342l-308 -342h-48l339 377l-168 337h45l151 -311l281 311h47l-310 -343l186 -371h-46z" />
    <glyph glyph-name="Y" unicode="Y" horiz-adv-x="570" 
d="M228 0l65 309l-161 405h44l142 -368l298 368h46l-329 -404l-66 -310h-39z" />
    <glyph glyph-name="Z" unicode="Z" horiz-adv-x="582" 
d="M1 0l7 34l579 643h-441l8 37h490l-7 -34l-579 -643h457l-17 -37h-497z" />
    <glyph glyph-name="bracketleft" unicode="[" horiz-adv-x="253" 
d="M13 -124l182 858h161l-8 -33h-123l-168 -792h123l-7 -33h-160z" />
    <glyph glyph-name="backslash" unicode="\" horiz-adv-x="287" 
d="M197 0l-69 734h38l69 -734h-38z" />
    <glyph glyph-name="bracketright" unicode="]" horiz-adv-x="253" 
d="M-53 -124l8 33h123l168 792h-123l7 33h160l-182 -858h-161z" />
    <glyph glyph-name="asciicircum" unicode="^" horiz-adv-x="592" 
d="M507 309l-108 356l-258 -356h-41l289 396h35l121 -396h-38z" />
    <glyph glyph-name="underscore" unicode="_" horiz-adv-x="500" 
d="M-72 -157l6 34h500l-7 -34h-499z" />
    <glyph glyph-name="grave" unicode="`" horiz-adv-x="549" 
d="M381 588l-97 131h47l88 -131h-38z" />
    <glyph glyph-name="a" unicode="a" horiz-adv-x="516" 
d="M370 0l19 88q-81 -100 -204 -100q-74 0 -114 35.5t-40 101.5q0 179 295 188l110 4l3 13q7 27 7 58q0 55 -34 81t-107 26q-68 0 -108 -22t-59 -71l-34 6q22 62 71.5 91.5t131.5 29.5q176 0 176 -140q0 -32 -7 -64l-69 -325h-37zM430 286l-105 -4q-134 -6 -193.5 -42.5
t-59.5 -112.5q0 -53 28.5 -78.5t88.5 -25.5q54 0 100 21t78 60.5t44 92.5z" />
    <glyph glyph-name="b" unicode="b" horiz-adv-x="574" 
d="M32 0l152 714h38l-65 -303q77 118 201 118q86 0 134 -56t48 -156q0 -88 -35.5 -163.5t-99.5 -122.5t-143 -47q-64 0 -108 30.5t-62 86.5l-22 -101h-38zM119 235q-9 -46 -9 -70q0 -67 41.5 -107t112.5 -40q63 0 116.5 38t86.5 107t33 154q0 86 -38 132t-107 46
q-53 0 -99.5 -26.5t-80 -75.5t-47.5 -115z" />
    <glyph glyph-name="c" unicode="c" horiz-adv-x="543" 
d="M493 168q-26 -91 -84 -137.5t-145 -46.5q-95 0 -149 57.5t-54 159.5q0 90 34.5 164.5t98 119t143.5 44.5q79 0 126.5 -44t55.5 -125l-36 -5q-17 140 -147 140q-66 0 -119 -36.5t-84.5 -103t-31.5 -152.5q0 -89 43.5 -137t122.5 -48q143 0 188 150h38z" />
    <glyph glyph-name="d" unicode="d" horiz-adv-x="574" 
d="M424 0l22 101q-40 -60 -89.5 -88.5t-111.5 -28.5q-86 0 -134 56t-48 156q0 88 35.5 163.5t99.5 122.5t143 47q64 0 108 -31t62 -87l65 303h38l-152 -714h-38zM484 277q9 46 9 70q0 68 -42 108t-112 40q-63 0 -116.5 -38t-86.5 -107t-33 -154q0 -86 37.5 -132t107.5 -46
q82 0 144.5 59.5t82.5 156.5z" />
    <glyph glyph-name="e" unicode="e" horiz-adv-x="545" 
d="M481 128q-29 -75 -79.5 -109.5t-132.5 -34.5q-99 0 -153.5 58t-54.5 163q0 90 33.5 163.5t95.5 117t141 43.5q88 0 138 -55.5t50 -152.5q0 -31 -5 -58l-3 -16h-410q-2 -25 -2 -43q0 -90 45 -138t128 -48q66 0 107.5 26t64.5 84h37zM479 280q3 21 3 43q0 81 -41 126.5
t-113 45.5q-83 0 -144 -59t-78 -156h373z" />
    <glyph glyph-name="f" unicode="f" horiz-adv-x="305" 
d="M60 0l102 479h-80l7 34h80l15 69q16 73 53 106.5t99 33.5q40 0 70 -13l-12 -32q-24 11 -59 11q-48 0 -74.5 -25t-38.5 -80l-15 -70h149l-7 -34h-149l-102 -479h-38z" />
    <glyph glyph-name="g" unicode="g" horiz-adv-x="573" 
d="M450 127q-79 -119 -203 -119q-85 0 -134 53.5t-49 147.5q0 85 34.5 157.5t98 117.5t142.5 45q64 0 108.5 -31t62.5 -88l22 103h38l-107 -502q-25 -114 -84 -165t-166 -51q-92 0 -140 36.5t-50 107.5h35q5 -59 41.5 -84.5t114.5 -25.5q92 0 141.5 43.5t70.5 142.5z
M483 279q9 48 9 71q0 53 -26 87q-42 58 -129 58q-62 0 -115 -36t-85.5 -101.5t-32.5 -147.5q0 -80 38.5 -124t108.5 -44q78 0 143 59q29 25 51.5 67t33.5 91z" />
    <glyph glyph-name="h" unicode="h" horiz-adv-x="549" 
d="M402 0l71 334q5 25 5 47q0 55 -29 84t-84 29q-75 0 -148 -55q-36 -27 -53.5 -56.5t-29.5 -83.5l-64 -299h-38l152 714h38l-62 -289q45 50 99.5 77t112.5 27q68 0 106 -38.5t38 -106.5q0 -23 -7 -59l-69 -325h-38z" />
    <glyph glyph-name="i" unicode="i" horiz-adv-x="182" 
d="M32 0l109 513h38l-109 -513h-38zM162 622l20 92h40l-20 -92h-40z" />
    <glyph glyph-name="j" unicode="j" horiz-adv-x="182" 
d="M141 513h38l-118 -552q-17 -81 -47.5 -114t-89.5 -33q-46 0 -86 20l14 31q34 -17 70 -17q43 0 66 27.5t37 93.5zM162 622l20 92h40l-20 -92h-40z" />
    <glyph glyph-name="k" unicode="k" horiz-adv-x="484" 
d="M394 0l-128 319l-153 -115l-43 -204h-38l152 714h38l-99 -465l349 264h51l-226 -173l139 -340h-42z" />
    <glyph glyph-name="l" unicode="l" horiz-adv-x="182" 
d="M32 0l152 714h38l-152 -714h-38z" />
    <glyph glyph-name="m" unicode="m" horiz-adv-x="847" 
d="M699 0l67 313q9 44 9 78q0 50 -25.5 76.5t-73.5 26.5q-75 0 -137 -56q-31 -27 -45 -53.5t-25 -76.5l-66 -308h-38l66 311q10 52 10 76q0 53 -24.5 80t-71.5 27q-71 0 -136 -57q-33 -29 -48.5 -58t-26.5 -81l-64 -298h-38l109 513h38l-19 -88q43 51 91.5 77.5t98.5 26.5
q55 0 87.5 -31t38.5 -87q40 55 95 86.5t111 31.5q61 0 96 -36.5t35 -101.5q0 -36 -8 -73l-68 -318h-38z" />
    <glyph glyph-name="n" unicode="n" horiz-adv-x="549" 
d="M402 0l71 334q5 25 5 47q0 55 -29 84t-84 29q-75 0 -148 -55q-36 -27 -53.5 -56.5t-29.5 -83.5l-64 -299h-38l109 513h38l-19 -88q96 104 212 104q68 0 106 -38.5t38 -106.5q0 -23 -7 -59l-69 -325h-38z" />
    <glyph glyph-name="o" unicode="o" horiz-adv-x="578" 
d="M262 -16q-94 0 -147.5 59.5t-53.5 164.5q0 87 36 160t101 117t147 44q94 0 147.5 -59.5t53.5 -164.5q0 -87 -36 -160t-101 -117t-147 -44zM264 18q67 0 122 36t87.5 102t32.5 150q0 91 -42.5 140t-120.5 49q-66 0 -121 -36t-88 -102t-33 -150q0 -91 42.5 -140t120.5 -49z
" />
    <glyph glyph-name="p" unicode="p" horiz-adv-x="574" 
d="M-9 -194l150 707h38l-22 -101q78 117 201 117q86 0 134 -56t48 -156q0 -88 -35.5 -163.5t-99.5 -122.5t-143 -47q-64 0 -108 31t-62 87l-63 -296h-38zM119 236q-9 -46 -9 -70q0 -68 42 -108t112 -40q63 0 116.5 38t86.5 107t33 154q0 86 -38 132t-107 46
q-82 0 -144.5 -59.5t-82.5 -156.5z" />
    <glyph glyph-name="q" unicode="q" horiz-adv-x="574" 
d="M383 -194l63 296q-79 -118 -201 -118q-86 0 -134 56t-48 156q0 88 35.5 163.5t99.5 122.5t143 47q64 0 108 -30.5t62 -86.5l22 101h38l-150 -707h-38zM484 278q9 46 9 70q0 68 -41.5 107.5t-112.5 39.5q-63 0 -116.5 -38t-86.5 -107t-33 -154q0 -86 38 -132t107 -46
q53 0 99.5 26.5t80 75.5t47.5 115z" />
    <glyph glyph-name="r" unicode="r" horiz-adv-x="333" 
d="M32 0l109 513h38l-19 -88q89 96 182 96q21 0 44 -5l-11 -36q-15 4 -37 4q-55 0 -114 -41q-40 -29 -60 -60t-30 -82l-64 -301h-38z" />
    <glyph glyph-name="s" unicode="s" horiz-adv-x="505" 
d="M445 395q-11 52 -47 76t-102 24q-76 0 -117.5 -29.5t-41.5 -83.5q0 -40 26 -62.5t83 -33.5l66 -13q126 -24 126 -133q0 -70 -55.5 -113t-147.5 -43q-93 0 -145.5 40.5t-52.5 112.5h36q3 -58 45 -88.5t119 -30.5t119.5 32.5t42.5 89.5q0 41 -23.5 65t-74.5 34l-61 12
q-74 15 -107 45.5t-33 83.5q0 69 53.5 109t145.5 40q155 0 181 -128z" />
    <glyph glyph-name="t" unicode="t" horiz-adv-x="323" 
d="M275 6q-45 -17 -86 -17q-106 0 -106 100q0 23 6 51l72 339h-80l7 34h80l30 143h38l-30 -143h160l-6 -34h-161l-73 -345q-5 -23 -5 -40q0 -71 76 -71q34 0 70 15z" />
    <glyph glyph-name="u" unicode="u" horiz-adv-x="538" 
d="M388 0l19 88q-92 -104 -205 -104q-66 0 -103 38t-37 106q0 31 7 60l69 325h38l-71 -334q-5 -23 -5 -48q0 -55 28 -83.5t81 -28.5q73 0 144 55q35 27 52 57t28 83l64 299h38l-109 -513h-38z" />
    <glyph glyph-name="v" unicode="v" horiz-adv-x="480" 
d="M177 0l-100 513h40l89 -469l292 469h43l-321 -513h-43z" />
    <glyph glyph-name="w" unicode="w" horiz-adv-x="693" 
d="M446 0l-41 469l-240 -469h-44l-41 513h40l32 -470l240 467h44l41 -467l231 470h41l-259 -513h-44z" />
    <glyph glyph-name="x" unicode="x" horiz-adv-x="458" 
d="M371 0l-128 243l-226 -243h-46l255 273l-129 240h41l114 -217l202 217h45l-229 -246l141 -267h-40z" />
    <glyph glyph-name="y" unicode="y" horiz-adv-x="481" 
d="M192 9l-115 504h41l101 -462l279 462h44l-365 -594q-31 -51 -51 -74t-39 -31t-45 -8q-31 0 -66 13l12 31q31 -10 53 -10q29 0 49.5 17.5t53.5 72.5z" />
    <glyph glyph-name="z" unicode="z" horiz-adv-x="444" 
d="M-11 0l6 30l419 450h-323l7 33h371l-6 -30l-419 -450h346l-12 -33h-389z" />
    <glyph glyph-name="braceleft" unicode="{" horiz-adv-x="261" 
d="M133 -124q-79 0 -79 65q0 23 6 47l48 227q2 10 2.5 15.5t0.5 9.5q0 48 -56 48h-4l7 34h5q37 0 56.5 17t27.5 56l51 240q11 53 38.5 76t79.5 23h51l-8 -33h-54q-28 0 -44.5 -14.5t-23.5 -46.5l-54 -251q-8 -38 -25 -58.5t-45 -26.5q37 -13 37 -58q0 -16 -4 -35l-50 -236
q-3 -14 -3 -24q0 -42 43 -42h54l-8 -33h-49z" />
    <glyph glyph-name="bar" unicode="|" horiz-adv-x="197" 
d="M14 -124l182 858h39l-183 -858h-38z" />
    <glyph glyph-name="braceright" unicode="}" horiz-adv-x="261" 
d="M-57 -124l8 33h54q28 0 44.5 14.5t23.5 46.5l54 251q8 38 25 58.5t45 26.5q-37 13 -37 58q0 16 4 35l50 236q3 14 3 24q0 42 -43 42h-54l8 33h49q79 0 79 -65q0 -23 -6 -47l-48 -227q-1 -10 -2 -15.5t-1 -9.5q0 -48 56 -48h4l-7 -34h-5q-37 0 -56.5 -17t-27.5 -56
l-51 -240q-11 -53 -38.5 -76t-79.5 -23h-51z" />
    <glyph glyph-name="asciitilde" unicode="~" horiz-adv-x="592" 
d="M576 404q-24 -147 -132 -147q-36 0 -63.5 15t-70.5 58q-34 34 -54 45t-47 11q-40 0 -64 -28t-34 -86h-35q23 147 132 147q36 0 63.5 -15t70.5 -58q34 -34 54 -45t47 -11q40 0 64 28t34 86h35z" />
    <glyph glyph-name="uni00A0" unicode="&#xa0;" horiz-adv-x="225" 
 />
    <glyph glyph-name="exclamdown" unicode="&#xa1;" horiz-adv-x="198" 
d="M-3 -201l114 529h35l-110 -529h-39zM123 411l22 102h42l-22 -102h-42z" />
    <glyph glyph-name="cent" unicode="&#xa2;" horiz-adv-x="592" 
d="M250 -9l17 81q-80 11 -122.5 67.5t-42.5 151.5q0 88 35 160.5t99.5 116.5t146.5 46l17 81h33l-17 -83q66 -9 107.5 -53t47.5 -113l-36 -7q-5 59 -38 95.5t-89 43.5l-100 -476h5q73 0 123.5 39.5t69.5 113.5h39q-22 -89 -83.5 -137.5t-152.5 -48.5h-9l-16 -78h-34z
M375 580q-65 -2 -118 -38.5t-84 -101.5t-31 -149q0 -163 132 -186z" />
    <glyph glyph-name="sterling" unicode="&#xa3;" horiz-adv-x="592" 
d="M51 0l7 37q82 70 115 128.5t33 134.5q0 15 -1 27h-92l7 34h82q0 8 -6 47q-6 45 -6 75q0 107 56.5 167t157.5 60q78 0 121.5 -37t60.5 -117l-37 -10q-11 49 -29.5 77t-46.5 40t-69 12q-85 0 -129.5 -48t-44.5 -138q0 -25 4 -57q3 -23 5 -40t3 -31h226l-7 -34h-216v-19
q0 -81 -33 -144.5t-108 -127.5h401l-13 -36h-441z" />
    <glyph glyph-name="currency" unicode="&#xa4;" horiz-adv-x="592" 
d="M468 93l-41 60q-61 -41 -134 -41q-84 0 -131 51l-67 -61l-23 27l68 61q-26 48 -26 111t21.5 118.5t61.5 94.5l-39 59l29 21l37 -57q62 42 137 42q89 0 135 -57l72 64l22 -27l-74 -66q23 -43 23 -105q0 -63 -21.5 -118.5t-61.5 -93.5l41 -61zM295 147q57 0 103 29.5
t73.5 84t27.5 125.5q0 76 -36 117t-105 41q-57 0 -103.5 -29.5t-74 -84.5t-27.5 -125q0 -76 36.5 -117t105.5 -41z" />
    <glyph glyph-name="yen" unicode="&#xa5;" horiz-adv-x="592" 
d="M310 179l-38 -179h-39l38 179h-192l7 34h192l20 92l-15 35h-172l7 34h151l-130 317h43l140 -352l292 352h44l-264 -317h154l-7 -34h-176l-28 -34l-20 -93h199l-7 -34h-199z" />
    <glyph glyph-name="brokenbar" unicode="&#xa6;" horiz-adv-x="197" 
d="M14 -124l75 353h38l-75 -353h-38zM124 398l72 336h39l-72 -336h-39z" />
    <glyph glyph-name="section" unicode="&#xa7;" horiz-adv-x="498" 
d="M211 168q-70 22 -102.5 56.5t-32.5 86.5q0 59 35.5 99.5t96.5 48.5q-42 20 -61.5 49.5t-19.5 70.5q0 73 51.5 113t144.5 40q87 0 138 -36t65 -107l-36 -7q-12 60 -53 88t-116 28q-77 0 -116.5 -29.5t-39.5 -86.5q0 -39 21.5 -64.5t67.5 -40.5l81 -26q71 -23 102.5 -56.5
t31.5 -85.5q0 -39 -15 -70t-44 -51.5t-70 -27.5q43 -19 62.5 -49t19.5 -77q0 -74 -52 -114.5t-149 -40.5q-185 0 -202 153h36q9 -62 48.5 -91t115.5 -29q80 0 122 32t42 93q0 77 -86 104zM249 191q24 -9 54 -9q56 0 91.5 35t35.5 91q0 41 -23 64.5t-84 45.5l-28 10
q-29 9 -57 9q-54 0 -88.5 -35t-34.5 -90q0 -41 23.5 -66t82.5 -45z" />
    <glyph glyph-name="dieresis" unicode="&#xa8;" horiz-adv-x="549" 
d="M268 622l20 92h40l-20 -92h-40zM420 622l20 92h40l-20 -92h-40z" />
    <glyph glyph-name="copyright" unicode="&#xa9;" horiz-adv-x="776" 
d="M419 33q86 0 154.5 40t108.5 114t40 171q0 92 -36.5 164.5t-105 115t-158.5 42.5q-87 0 -155.5 -40t-108.5 -113.5t-40 -170.5q0 -93 37 -166t105.5 -115t158.5 -42zM418 0q-96 0 -172.5 43.5t-121 124.5t-44.5 187q0 102 42.5 183t121 128.5t180.5 47.5q96 0 172 -43
t120 -124t44 -188q0 -102 -42 -183t-120 -128.5t-180 -47.5zM586 289q-11 -67 -53.5 -103t-108.5 -36q-84 0 -132 55t-48 150q0 97 49 153t134 56q61 0 100 -32t53 -93l-34 -7q-12 51 -41.5 75.5t-78.5 24.5q-69 0 -106.5 -45.5t-37.5 -129.5t37 -130t105 -46
q52 0 84.5 27.5t41.5 80.5h36z" />
    <glyph glyph-name="ordfeminine" unicode="&#xaa;" horiz-adv-x="416" 
d="M351 343l12 57q-63 -65 -146 -65q-55 0 -84 26.5t-29 76.5q0 67 54 100.5t165 37.5l77 3l3 12q5 23 5 39q0 73 -102 73q-48 0 -76 -16t-42 -52l-31 5q16 47 53.5 69.5t99.5 22.5q132 0 132 -100q0 -21 -4 -41l-52 -248h-35zM395 551l-73 -3q-95 -4 -138.5 -30t-43.5 -80
q0 -37 19.5 -54.5t62.5 -17.5q68 0 116 43q20 17 29.5 34t15.5 48z" />
    <glyph glyph-name="guillemotleft" unicode="&#xab;" horiz-adv-x="449" 
d="M153 34l-95 222l190 222h41l-189 -224l91 -220h-38zM333 34l-95 222l190 222h41l-189 -224l91 -220h-38z" />
    <glyph glyph-name="logicalnot" unicode="&#xac;" horiz-adv-x="592" 
d="M466 161l48 226h-413l7 36h448l-55 -262h-35z" />
    <glyph glyph-name="uni00AD" unicode="&#xad;" horiz-adv-x="389" 
d="M67 269l9 38h289l-9 -38h-289z" />
    <glyph glyph-name="registered" unicode="&#xae;" horiz-adv-x="474" 
d="M305 309q-89 0 -143.5 57.5t-54.5 151.5q0 91 55.5 149.5t142.5 58.5q91 0 145 -56t54 -152q0 -58 -24.5 -105.5t-70 -75.5t-104.5 -28zM305 338q75 0 121 49t46 131q0 83 -45 131t-122 48q-75 0 -120.5 -49t-45.5 -130q0 -83 44.5 -131.5t121.5 -48.5zM362 421l-41 81
h-59v-81h-30v202h82q36 0 55 -15t19 -44q0 -40 -38 -55l45 -88h-33zM314 529q44 0 44 36q0 33 -46 33h-50v-69h52z" />
    <glyph glyph-name="macron" unicode="&#xaf;" horiz-adv-x="549" 
d="M244 630l7 34h238l-7 -34h-238z" />
    <glyph glyph-name="degree" unicode="&#xb0;" horiz-adv-x="311" 
d="M322 581q0 43 -27 70.5t-70 27.5t-70 -27.5t-27 -71.5q0 -43 27.5 -70.5t70.5 -27.5q42 0 69 27.5t27 71.5zM355 581q0 -56 -37 -93t-92 -37q-56 0 -93.5 37t-37.5 93q0 55 37.5 92t93.5 37t92.5 -36.5t36.5 -92.5z" />
    <glyph glyph-name="plusminus" unicode="&#xb1;" horiz-adv-x="592" 
d="M29 0l8 35h452l-8 -35h-452zM259 101l47 222h-207l7 35h207l47 220h36l-47 -220h207l-7 -35h-207l-47 -222h-36z" />
    <glyph glyph-name="uni00B2" unicode="&#xb2;" 
d="M93 295l7 32l143 103q61 43 88 68.5t37 46.5t10 49q0 39 -22 60t-62 21q-81 0 -111 -81l-32 7q13 49 52 77.5t93 28.5q56 0 87.5 -29t31.5 -81q0 -35 -14.5 -62.5t-48 -58t-96.5 -76.5l-100 -72h211l-14 -33h-260z" />
    <glyph glyph-name="uni00B3" unicode="&#xb3;" 
d="M217 488l6 29h50q50 0 77.5 23t27.5 64q0 35 -22.5 54t-64.5 19q-43 0 -70 -19t-42 -60l-32 6q14 49 52.5 76t94.5 27q55 0 87 -27t32 -74q0 -37 -21.5 -65t-59.5 -39q53 -22 53 -89q0 -59 -39.5 -95.5t-104.5 -36.5q-62 0 -98.5 31.5t-36.5 86.5h32q3 -42 30 -65t73 -23
q50 0 79 27t29 75q0 36 -17.5 55.5t-51.5 19.5h-63z" />
    <glyph glyph-name="acute" unicode="&#xb4;" horiz-adv-x="549" 
d="M290 588h-44l136 130h54z" />
    <glyph glyph-name="mu" unicode="&#xb5;" horiz-adv-x="541" 
d="M391 0l19 88q-44 -51 -96.5 -77.5t-108.5 -26.5q-48 0 -79 21t-43 61l-55 -260h-38l150 707h38l-70 -334q-5 -23 -5 -48q0 -55 28 -83.5t81 -28.5q73 0 144 55q35 27 52 57t28 83l63 299h38l-108 -513h-38z" />
    <glyph glyph-name="paragraph" unicode="&#xb6;" horiz-adv-x="544" 
d="M358 -139l174 819h-137l-174 -819h-39l99 467h-7q-86 0 -133.5 42.5t-47.5 120.5q0 108 79 165.5t226 57.5h180l-181 -853h-39z" />
    <glyph glyph-name="periodcentered" unicode="&#xb7;" horiz-adv-x="179" 
d="M105 322l22 102h42l-22 -102h-42z" />
    <glyph glyph-name="cedilla" unicode="&#xb8;" horiz-adv-x="549" 
d="M192 -155q31 -6 55 -6q42 0 60.5 10t18.5 32q0 40 -78 40h-13l46 82l29 -3l-30 -54q40 -3 61.5 -19.5t21.5 -44.5q0 -38 -28.5 -55.5t-87.5 -17.5q-29 0 -62 7z" />
    <glyph glyph-name="uni00B9" unicode="&#xb9;" 
d="M225 294l76 358l-111 -51l-13 30l131 63h37l-85 -400h-35z" />
    <glyph glyph-name="ordmasculine" unicode="&#xba;" horiz-adv-x="434" 
d="M255 334q-71 0 -110.5 43t-39.5 120q0 63 27 116.5t76 86t110 32.5q71 0 110.5 -43t39.5 -120q0 -63 -27 -116.5t-76 -86t-110 -32.5zM258 365q48 0 87.5 25.5t63 71.5t23.5 106q0 65 -30 99t-87 34q-48 0 -87.5 -25.5t-63 -71.5t-23.5 -106q0 -65 30 -99t87 -34z" />
    <glyph glyph-name="guillemotright" unicode="&#xbb;" horiz-adv-x="449" 
d="M8 34l189 224l-91 220h38l95 -222l-190 -222h-41zM188 34l189 224l-91 220h38l95 -222l-190 -222h-41z" />
    <glyph glyph-name="onequarter" unicode="&#xbc;" horiz-adv-x="887" 
d="M190 0l498 691h44l-498 -691h-44zM707 0l23 108h-208l5 25l263 267h36l-56 -262h50l-13 -30h-43l-23 -108h-34zM781 350l-210 -212h165zM182 292l76 358l-111 -51l-13 30l131 63h37l-85 -400h-35z" />
    <glyph glyph-name="onehalf" unicode="&#xbd;" horiz-adv-x="887" 
d="M157 0l498 691h44l-498 -691h-44zM518 0l7 32l143 103q61 43 88 68.5t37 46.5t10 49q0 39 -22 60t-62 21q-81 0 -111 -81l-32 7q13 49 52 77.5t93 28.5q56 0 87.5 -29t31.5 -81q0 -35 -14.5 -62.5t-48 -58t-96.5 -76.5l-100 -72h211l-14 -33h-260zM182 292l76 358
l-111 -51l-13 30l131 63h37l-85 -400h-35z" />
    <glyph glyph-name="threequarters" unicode="&#xbe;" horiz-adv-x="887" 
d="M236 0l498 691h44l-498 -691h-44zM707 0l23 108h-208l5 25l263 267h36l-56 -262h50l-13 -30h-43l-23 -108h-34zM781 350l-210 -212h165zM210 486l6 29h50q50 0 77.5 23t27.5 64q0 35 -22.5 54t-64.5 19q-43 0 -70 -19t-42 -60l-32 6q14 49 52.5 76t94.5 27q55 0 87 -27
t32 -74q0 -37 -21.5 -65t-59.5 -39q53 -22 53 -89q0 -59 -39.5 -95.5t-104.5 -36.5q-62 0 -98.5 31.5t-36.5 86.5h32q3 -42 30 -65t73 -23q50 0 79 27t29 75q0 36 -17.5 55.5t-51.5 19.5h-63z" />
    <glyph glyph-name="questiondown" unicode="&#xbf;" horiz-adv-x="492" 
d="M425 -39q-54 -174 -228 -174q-85 0 -133 41.5t-48 114.5q0 57 29.5 104t100.5 103q77 60 102.5 91.5t34.5 76.5l2 10h39l-2 -8q-11 -47 -25.5 -72.5t-42 -51.5t-85.5 -71q-60 -47 -87 -89.5t-27 -91.5q0 -59 37.5 -90.5t109.5 -31.5t117 35t71 111zM297 411l22 102h42
l-22 -102h-42z" />
    <glyph glyph-name="Agrave" unicode="&#xc0;" horiz-adv-x="650" 
d="M548 0l-41 228h-345l-137 -228h-44l432 714h45l132 -714h-42zM427 670l-243 -405h316zM458 774l-94 126h48l85 -126h-39z" />
    <glyph glyph-name="Aacute" unicode="&#xc1;" horiz-adv-x="650" 
d="M548 0l-41 228h-345l-137 -228h-44l432 714h45l132 -714h-42zM427 670l-243 -405h316zM439 774h-44l139 126h53z" />
    <glyph glyph-name="Acircumflex" unicode="&#xc2;" horiz-adv-x="650" 
d="M548 0l-41 228h-345l-137 -228h-44l432 714h45l132 -714h-42zM427 670l-243 -405h316zM538 774l-67 95l-110 -95h-43l138 126h38l84 -126h-40z" />
    <glyph glyph-name="Atilde" unicode="&#xc3;" horiz-adv-x="650" 
d="M548 0l-41 228h-345l-137 -228h-44l432 714h45l132 -714h-42zM427 670l-243 -405h316zM629 875q-8 -46 -32.5 -70t-63.5 -24q-35 0 -78 31q-25 19 -38.5 25t-30.5 6q-50 0 -62 -61h-34q8 46 32.5 70t63.5 24q35 0 78 -31q25 -19 38.5 -25t30.5 -6q50 0 62 61h34z" />
    <glyph glyph-name="Adieresis" unicode="&#xc4;" horiz-adv-x="650" 
d="M548 0l-41 228h-345l-137 -228h-44l432 714h45l132 -714h-42zM427 670l-243 -405h316zM349 793l19 89h42l-19 -89h-42zM511 793l19 89h42l-19 -89h-42z" />
    <glyph glyph-name="Aring" unicode="&#xc5;" horiz-adv-x="650" 
d="M548 0l-41 228h-345l-137 -228h-44l420 694q-20 8 -32.5 29.5t-12.5 49.5q0 42 24 66t64 24t64 -24t24 -66q0 -34 -18 -57t-51 -31l127 -685h-42zM427 670l-243 -405h316zM444 713q28 0 42.5 15.5t14.5 44.5q0 61 -57 61t-57 -61q0 -29 14.5 -44.5t42.5 -15.5z" />
    <glyph glyph-name="AE" unicode="&#xc6;" horiz-adv-x="1010" 
d="M503 0l54 259h-321l-207 -259h-48l575 714h510l-7 -37h-374l-62 -290h354l-8 -37h-354l-66 -313h387l-15 -37h-418zM647 677h-74l-307 -381h299z" />
    <glyph glyph-name="Ccedilla" unicode="&#xc7;" horiz-adv-x="696" 
d="M661 231q-28 -119 -107.5 -183.5t-198.5 -64.5q-127 0 -200 79t-73 216q0 125 46 228t130.5 164.5t192.5 61.5q107 0 171 -59t75 -169l-38 -7q-24 199 -210 199q-91 0 -164.5 -51.5t-117 -145.5t-43.5 -216q0 -126 61.5 -195t171.5 -69q102 0 170 54.5t95 157.5h39z
M252 -169q30 -5 57 -5q82 0 82 41q0 22 -20.5 32.5t-65.5 10.5h-13l52 93l31 -3l-35 -63q89 -10 89 -71q0 -35 -30.5 -53.5t-88.5 -18.5q-34 0 -66 7z" />
    <glyph glyph-name="Egrave" unicode="&#xc8;" horiz-adv-x="580" 
d="M44 0l151 714h441l-7 -37h-401l-62 -290h380l-7 -37h-381l-67 -313h415l-18 -37h-444zM442 774l-94 126h48l85 -126h-39z" />
    <glyph glyph-name="Eacute" unicode="&#xc9;" horiz-adv-x="580" 
d="M44 0l151 714h441l-7 -37h-401l-62 -290h380l-7 -37h-381l-67 -313h415l-18 -37h-444zM423 774h-44l139 126h53z" />
    <glyph glyph-name="Ecircumflex" unicode="&#xca;" horiz-adv-x="580" 
d="M44 0l151 714h441l-7 -37h-401l-62 -290h380l-7 -37h-381l-67 -313h415l-18 -37h-444zM522 774l-67 95l-110 -95h-43l138 126h38l84 -126h-40z" />
    <glyph glyph-name="Edieresis" unicode="&#xcb;" horiz-adv-x="580" 
d="M44 0l151 714h441l-7 -37h-401l-62 -290h380l-7 -37h-381l-67 -313h415l-18 -37h-444zM333 793l19 89h42l-19 -89h-42zM495 793l19 89h42l-19 -89h-42z" />
    <glyph glyph-name="Igrave" unicode="&#xcc;" horiz-adv-x="208" 
d="M44 0l152 714h40l-152 -714h-40zM239 774l-94 126h48l85 -126h-39z" />
    <glyph glyph-name="Iacute" unicode="&#xcd;" horiz-adv-x="208" 
d="M44 0l152 714h40l-152 -714h-40zM220 774h-44l139 126h53z" />
    <glyph glyph-name="Icircumflex" unicode="&#xce;" horiz-adv-x="208" 
d="M44 0l152 714h40l-152 -714h-40zM319 774l-67 95l-110 -95h-43l138 126h38l84 -126h-40z" />
    <glyph glyph-name="Idieresis" unicode="&#xcf;" horiz-adv-x="208" 
d="M44 0l152 714h40l-152 -714h-40zM130 793l19 89h42l-19 -89h-42zM292 793l19 89h42l-19 -89h-42z" />
    <glyph glyph-name="Eth" unicode="&#xd0;" horiz-adv-x="702" 
d="M52 0l74 351h-82l8 36h81l70 327h205q132 0 206 -78.5t74 -218.5q0 -122 -50.5 -216t-144.5 -147.5t-220 -53.5h-221zM280 36q108 0 190.5 45.5t129 131t46.5 201.5q0 129 -62 196.5t-181 67.5h-168l-62 -291h214l-7 -36h-214l-67 -315h181z" />
    <glyph glyph-name="Ntilde" unicode="&#xd1;" horiz-adv-x="683" 
d="M515 0l-292 654l-139 -654h-40l151 714h43l293 -657l140 657h40l-152 -714h-44zM647 875q-8 -46 -32.5 -70t-63.5 -24q-35 0 -78 31q-25 19 -38.5 25t-30.5 6q-50 0 -62 -61h-34q8 46 32.5 70t63.5 24q35 0 78 -31q25 -19 38.5 -25t30.5 -6q50 0 62 61h34z" />
    <glyph glyph-name="Ograve" unicode="&#xd2;" horiz-adv-x="745" 
d="M353 -17q-81 0 -142 35.5t-95 103t-34 158.5q0 120 48.5 222.5t136.5 166t197 63.5q81 0 142 -35.5t95 -103t34 -158.5q0 -120 -48.5 -222.5t-136.5 -166t-197 -63.5zM355 19q90 0 167 52.5t124 148.5t47 215q0 123 -61.5 192t-169.5 69q-90 0 -167 -52.5t-124 -148.5
t-47 -215q0 -123 61.5 -192t169.5 -69zM483 774l-94 126h48l85 -126h-39z" />
    <glyph glyph-name="Oacute" unicode="&#xd3;" horiz-adv-x="745" 
d="M353 -17q-81 0 -142 35.5t-95 103t-34 158.5q0 120 48.5 222.5t136.5 166t197 63.5q81 0 142 -35.5t95 -103t34 -158.5q0 -120 -48.5 -222.5t-136.5 -166t-197 -63.5zM355 19q90 0 167 52.5t124 148.5t47 215q0 123 -61.5 192t-169.5 69q-90 0 -167 -52.5t-124 -148.5
t-47 -215q0 -123 61.5 -192t169.5 -69zM464 774h-44l139 126h53z" />
    <glyph glyph-name="Ocircumflex" unicode="&#xd4;" horiz-adv-x="745" 
d="M353 -17q-81 0 -142 35.5t-95 103t-34 158.5q0 120 48.5 222.5t136.5 166t197 63.5q81 0 142 -35.5t95 -103t34 -158.5q0 -120 -48.5 -222.5t-136.5 -166t-197 -63.5zM355 19q90 0 167 52.5t124 148.5t47 215q0 123 -61.5 192t-169.5 69q-90 0 -167 -52.5t-124 -148.5
t-47 -215q0 -123 61.5 -192t169.5 -69zM563 774l-67 95l-110 -95h-43l138 126h38l84 -126h-40z" />
    <glyph glyph-name="Otilde" unicode="&#xd5;" horiz-adv-x="745" 
d="M353 -17q-81 0 -142 35.5t-95 103t-34 158.5q0 120 48.5 222.5t136.5 166t197 63.5q81 0 142 -35.5t95 -103t34 -158.5q0 -120 -48.5 -222.5t-136.5 -166t-197 -63.5zM355 19q90 0 167 52.5t124 148.5t47 215q0 123 -61.5 192t-169.5 69q-90 0 -167 -52.5t-124 -148.5
t-47 -215q0 -123 61.5 -192t169.5 -69zM654 875q-8 -46 -32.5 -70t-63.5 -24q-35 0 -78 31q-25 19 -38.5 25t-30.5 6q-50 0 -62 -61h-34q8 46 32.5 70t63.5 24q35 0 78 -31q25 -19 38.5 -25t30.5 -6q50 0 62 61h34z" />
    <glyph glyph-name="Odieresis" unicode="&#xd6;" horiz-adv-x="745" 
d="M353 -17q-81 0 -142 35.5t-95 103t-34 158.5q0 120 48.5 222.5t136.5 166t197 63.5q81 0 142 -35.5t95 -103t34 -158.5q0 -120 -48.5 -222.5t-136.5 -166t-197 -63.5zM355 19q90 0 167 52.5t124 148.5t47 215q0 123 -61.5 192t-169.5 69q-90 0 -167 -52.5t-124 -148.5
t-47 -215q0 -123 61.5 -192t169.5 -69zM374 793l19 89h42l-19 -89h-42zM536 793l19 89h42l-19 -89h-42z" />
    <glyph glyph-name="multiply" unicode="&#xd7;" horiz-adv-x="592" 
d="M327 314l-208 -173l-22 27l208 173l-138 175l27 23l138 -176l216 180l22 -27l-216 -180l135 -170l-27 -23z" />
    <glyph glyph-name="Oslash" unicode="&#xd8;" horiz-adv-x="745" 
d="M68 -12l76 88q-27 34 -43 80q-19 53 -19 124q0 120 48.5 222.5t136.5 166t197 63.5q62 0 111 -21q40 -14 74 -47l73 85l27 -23l-76 -88q25 -33 42 -79q20 -58 20 -124q0 -120 -48.5 -222.5t-136.5 -166t-197 -63.5q-61 0 -112 20q-41 17 -73 47l-73 -85zM623 634
q-60 62 -161 62q-90 0 -167 -52.5t-124 -148t-47 -214.5q0 -107 46 -174zM193 79q60 -60 162 -60q90 0 167 52.5t124 148t47 214.5q0 102 -47 172z" />
    <glyph glyph-name="Ugrave" unicode="&#xd9;" horiz-adv-x="665" 
d="M660 714h40l-94 -441q-23 -107 -60 -170t-93.5 -91.5t-139.5 -28.5q-113 0 -168.5 50t-55.5 152q0 48 13 111l89 418h40l-91 -428q-12 -52 -12 -98q0 -169 187 -169q106 0 164 57.5t88 201.5zM467 774l-94 126h48l85 -126h-39z" />
    <glyph glyph-name="Uacute" unicode="&#xda;" horiz-adv-x="665" 
d="M660 714h40l-94 -441q-23 -107 -60 -170t-93.5 -91.5t-139.5 -28.5q-113 0 -168.5 50t-55.5 152q0 48 13 111l89 418h40l-91 -428q-12 -52 -12 -98q0 -169 187 -169q106 0 164 57.5t88 201.5zM448 774h-44l139 126h53z" />
    <glyph glyph-name="Ucircumflex" unicode="&#xdb;" horiz-adv-x="665" 
d="M660 714h40l-94 -441q-23 -107 -60 -170t-93.5 -91.5t-139.5 -28.5q-113 0 -168.5 50t-55.5 152q0 48 13 111l89 418h40l-91 -428q-12 -52 -12 -98q0 -169 187 -169q106 0 164 57.5t88 201.5zM547 774l-67 95l-110 -95h-43l138 126h38l84 -126h-40z" />
    <glyph glyph-name="Udieresis" unicode="&#xdc;" horiz-adv-x="665" 
d="M660 714h40l-94 -441q-23 -107 -60 -170t-93.5 -91.5t-139.5 -28.5q-113 0 -168.5 50t-55.5 152q0 48 13 111l89 418h40l-91 -428q-12 -52 -12 -98q0 -169 187 -169q106 0 164 57.5t88 201.5zM358 793l19 89h42l-19 -89h-42zM520 793l19 89h42l-19 -89h-42z" />
    <glyph glyph-name="Yacute" unicode="&#xdd;" horiz-adv-x="570" 
d="M228 0l65 309l-161 405h44l142 -368l298 368h46l-329 -404l-66 -310h-39zM400 774h-44l139 126h53z" />
    <glyph glyph-name="Thorn" unicode="&#xde;" horiz-adv-x="608" 
d="M116 154l-32 -154h-39l151 714h39l-31 -143h171q105 0 162 -46.5t57 -132.5q0 -113 -77 -175.5t-216 -62.5h-185zM307 190q121 0 183.5 51.5t62.5 150.5q0 71 -46.5 107.5t-137.5 36.5h-172l-74 -346h184z" />
    <glyph glyph-name="germandbls" unicode="&#xdf;" horiz-adv-x="556" 
d="M162 49q56 -28 123 -28q88 0 140 51t52 138q0 76 -45 116t-130 40h-62l8 34h42q93 0 147 44.5t54 121.5q0 60 -34.5 91.5t-98.5 31.5q-73 0 -116.5 -40.5t-61.5 -124.5l-111 -524h-37l114 536q39 186 213 186q81 0 126 -40.5t45 -114.5q0 -68 -38 -115t-109 -68
q63 -13 98.5 -58.5t35.5 -115.5q0 -101 -63.5 -162t-169.5 -61q-81 0 -137 31z" />
    <glyph glyph-name="agrave" unicode="&#xe0;" horiz-adv-x="516" 
d="M370 0l19 88q-81 -100 -204 -100q-74 0 -114 35.5t-40 101.5q0 179 295 188l110 4l3 13q7 27 7 58q0 55 -34 81t-107 26q-68 0 -108 -22t-59 -71l-34 6q22 62 71.5 91.5t131.5 29.5q176 0 176 -140q0 -32 -7 -64l-69 -325h-37zM430 286l-105 -4q-134 -6 -193.5 -42.5
t-59.5 -112.5q0 -53 28.5 -78.5t88.5 -25.5q54 0 100 21t78 60.5t44 92.5zM346 588l-97 131h47l88 -131h-38z" />
    <glyph glyph-name="aacute" unicode="&#xe1;" horiz-adv-x="516" 
d="M370 0l19 88q-81 -100 -204 -100q-74 0 -114 35.5t-40 101.5q0 179 295 188l110 4l3 13q7 27 7 58q0 55 -34 81t-107 26q-68 0 -108 -22t-59 -71l-34 6q22 62 71.5 91.5t131.5 29.5q176 0 176 -140q0 -32 -7 -64l-69 -325h-37zM430 286l-105 -4q-134 -6 -193.5 -42.5
t-59.5 -112.5q0 -53 28.5 -78.5t88.5 -25.5q54 0 100 21t78 60.5t44 92.5zM326 588h-44l136 130h54z" />
    <glyph glyph-name="acircumflex" unicode="&#xe2;" horiz-adv-x="516" 
d="M370 0l19 88q-81 -100 -204 -100q-74 0 -114 35.5t-40 101.5q0 179 295 188l110 4l3 13q7 27 7 58q0 55 -34 81t-107 26q-68 0 -108 -22t-59 -71l-34 6q22 62 71.5 91.5t131.5 29.5q176 0 176 -140q0 -32 -7 -64l-69 -325h-37zM430 286l-105 -4q-134 -6 -193.5 -42.5
t-59.5 -112.5q0 -53 28.5 -78.5t88.5 -25.5q54 0 100 21t78 60.5t44 92.5zM427 588l-68 100l-112 -100h-42l139 130h37l84 -130h-38z" />
    <glyph glyph-name="atilde" unicode="&#xe3;" horiz-adv-x="516" 
d="M370 0l19 88q-81 -100 -204 -100q-74 0 -114 35.5t-40 101.5q0 179 295 188l110 4l3 13q7 27 7 58q0 55 -34 81t-107 26q-68 0 -108 -22t-59 -71l-34 6q22 62 71.5 91.5t131.5 29.5q176 0 176 -140q0 -32 -7 -64l-69 -325h-37zM430 286l-105 -4q-134 -6 -193.5 -42.5
t-59.5 -112.5q0 -53 28.5 -78.5t88.5 -25.5q54 0 100 21t78 60.5t44 92.5zM513 698q-17 -94 -93 -94q-21 0 -37.5 7t-39.5 25q-39 31 -65 31q-25 0 -40.5 -16t-19.5 -45h-33q17 94 93 94q21 0 37.5 -7t39.5 -25q39 -31 65 -31q25 0 40.5 16t19.5 45h33z" />
    <glyph glyph-name="adieresis" unicode="&#xe4;" horiz-adv-x="516" 
d="M370 0l19 88q-81 -100 -204 -100q-74 0 -114 35.5t-40 101.5q0 179 295 188l110 4l3 13q7 27 7 58q0 55 -34 81t-107 26q-68 0 -108 -22t-59 -71l-34 6q22 62 71.5 91.5t131.5 29.5q176 0 176 -140q0 -32 -7 -64l-69 -325h-37zM430 286l-105 -4q-134 -6 -193.5 -42.5
t-59.5 -112.5q0 -53 28.5 -78.5t88.5 -25.5q54 0 100 21t78 60.5t44 92.5zM246 622l20 92h40l-20 -92h-40zM398 622l20 92h40l-20 -92h-40z" />
    <glyph glyph-name="aring" unicode="&#xe5;" horiz-adv-x="516" 
d="M370 0l19 88q-81 -100 -204 -100q-74 0 -114 35.5t-40 101.5q0 179 295 188l110 4l3 13q7 27 7 58q0 55 -34 81t-107 26q-68 0 -108 -22t-59 -71l-34 6q22 62 71.5 91.5t131.5 29.5q176 0 176 -140q0 -32 -7 -64l-69 -325h-37zM430 286l-105 -4q-134 -6 -193.5 -42.5
t-59.5 -112.5q0 -53 28.5 -78.5t88.5 -25.5q54 0 100 21t78 60.5t44 92.5zM423 679q0 -41 -24 -65t-64 -24t-64 24t-24 65t24 65t64 24t64 -24t24 -65zM392 679q0 29 -15 45t-42 16t-42 -16t-15 -45t15 -45t42 -16t42 16t15 45z" />
    <glyph glyph-name="ae" unicode="&#xe6;" horiz-adv-x="880" 
d="M815 128q-22 -71 -73 -107.5t-128 -36.5q-85 0 -135.5 45t-61.5 130q-25 -79 -89 -125t-149 -46q-72 0 -110 35t-38 102q0 179 282 188l109 4l3 13q7 28 7 59q0 107 -135 107q-64 0 -102.5 -22.5t-56.5 -71.5l-34 6q23 62 70.5 91.5t122.5 29.5q158 0 165 -126
q36 60 90.5 93t119.5 33q83 0 132.5 -55t49.5 -148q0 -31 -6 -63l-3 -16h-396q-2 -25 -2 -43q0 -91 43 -139t125 -48q62 0 100.5 26.5t62.5 84.5h37zM416 286l-104 -4q-127 -5 -183.5 -41.5t-56.5 -113.5q0 -53 27.5 -78.5t85.5 -25.5q80 0 137 47t75 127zM813 280
q2 11 2.5 22t0.5 22q0 81 -39 126.5t-109 45.5q-80 0 -139.5 -60t-74.5 -156h359z" />
    <glyph glyph-name="ccedilla" unicode="&#xe7;" horiz-adv-x="543" 
d="M493 168q-26 -91 -84 -137.5t-145 -46.5q-95 0 -149 57.5t-54 159.5q0 90 34.5 164.5t98 119t143.5 44.5q79 0 126.5 -44t55.5 -125l-36 -5q-17 140 -147 140q-66 0 -119 -36.5t-84.5 -103t-31.5 -152.5q0 -89 43.5 -137t122.5 -48q143 0 188 150h38zM160 -155
q31 -6 55 -6q42 0 60.5 10t18.5 32q0 40 -78 40h-13l46 82l29 -3l-30 -54q40 -3 61.5 -19.5t21.5 -44.5q0 -38 -28.5 -55.5t-87.5 -17.5q-29 0 -62 7z" />
    <glyph glyph-name="egrave" unicode="&#xe8;" horiz-adv-x="545" 
d="M481 128q-29 -75 -79.5 -109.5t-132.5 -34.5q-99 0 -153.5 58t-54.5 163q0 90 33.5 163.5t95.5 117t141 43.5q88 0 138 -55.5t50 -152.5q0 -31 -5 -58l-3 -16h-410q-2 -25 -2 -43q0 -90 45 -138t128 -48q66 0 107.5 26t64.5 84h37zM479 280q3 21 3 43q0 81 -41 126.5
t-113 45.5q-83 0 -144 -59t-78 -156h373zM355 588l-97 131h47l88 -131h-38z" />
    <glyph glyph-name="eacute" unicode="&#xe9;" horiz-adv-x="545" 
d="M481 128q-29 -75 -79.5 -109.5t-132.5 -34.5q-99 0 -153.5 58t-54.5 163q0 90 33.5 163.5t95.5 117t141 43.5q88 0 138 -55.5t50 -152.5q0 -31 -5 -58l-3 -16h-410q-2 -25 -2 -43q0 -90 45 -138t128 -48q66 0 107.5 26t64.5 84h37zM479 280q3 21 3 43q0 81 -41 126.5
t-113 45.5q-83 0 -144 -59t-78 -156h373zM335 588h-44l136 130h54z" />
    <glyph glyph-name="ecircumflex" unicode="&#xea;" horiz-adv-x="545" 
d="M481 128q-29 -75 -79.5 -109.5t-132.5 -34.5q-99 0 -153.5 58t-54.5 163q0 90 33.5 163.5t95.5 117t141 43.5q88 0 138 -55.5t50 -152.5q0 -31 -5 -58l-3 -16h-410q-2 -25 -2 -43q0 -90 45 -138t128 -48q66 0 107.5 26t64.5 84h37zM479 280q3 21 3 43q0 81 -41 126.5
t-113 45.5q-83 0 -144 -59t-78 -156h373zM436 588l-68 100l-112 -100h-42l139 130h37l84 -130h-38z" />
    <glyph glyph-name="edieresis" unicode="&#xeb;" horiz-adv-x="545" 
d="M481 128q-29 -75 -79.5 -109.5t-132.5 -34.5q-99 0 -153.5 58t-54.5 163q0 90 33.5 163.5t95.5 117t141 43.5q88 0 138 -55.5t50 -152.5q0 -31 -5 -58l-3 -16h-410q-2 -25 -2 -43q0 -90 45 -138t128 -48q66 0 107.5 26t64.5 84h37zM479 280q3 21 3 43q0 81 -41 126.5
t-113 45.5q-83 0 -144 -59t-78 -156h373zM255 622l20 92h40l-20 -92h-40zM407 622l20 92h40l-20 -92h-40z" />
    <glyph glyph-name="igrave" unicode="&#xec;" horiz-adv-x="182" 
d="M32 0l109 513h38l-109 -513h-38zM188 588l-97 131h47l88 -131h-38z" />
    <glyph glyph-name="iacute" unicode="&#xed;" horiz-adv-x="182" 
d="M32 0l109 513h38l-109 -513h-38zM168 588h-44l136 130h54z" />
    <glyph glyph-name="icircumflex" unicode="&#xee;" horiz-adv-x="182" 
d="M32 0l109 513h38l-109 -513h-38zM269 588l-68 100l-112 -100h-42l139 130h37l84 -130h-38z" />
    <glyph glyph-name="idieresis" unicode="&#xef;" horiz-adv-x="182" 
d="M32 0l109 513h38l-109 -513h-38zM88 622l20 92h40l-20 -92h-40zM240 622l20 92h40l-20 -92h-40z" />
    <glyph glyph-name="eth" unicode="&#xf0;" horiz-adv-x="578" 
d="M414 653q132 -106 132 -338q0 -96 -33.5 -170.5t-97 -117.5t-148.5 -43q-60 0 -106.5 24.5t-73.5 71t-27 108.5q0 79 35 147.5t98 111t141 42.5q58 0 101 -22.5t67 -65.5q-17 157 -114 228l-83 -72l-22 25l76 66q-56 31 -134 40l4 32q95 -10 157 -48l85 74l22 -25z
M507 286q0 78 -47 123.5t-126 45.5q-63 0 -116 -33t-85.5 -94t-32.5 -137q0 -79 46 -126t124 -47q65 0 118.5 33.5t86 95t32.5 139.5z" />
    <glyph glyph-name="ntilde" unicode="&#xf1;" horiz-adv-x="549" 
d="M402 0l71 334q5 25 5 47q0 55 -29 84t-84 29q-75 0 -148 -55q-36 -27 -53.5 -56.5t-29.5 -83.5l-64 -299h-38l109 513h38l-19 -88q96 104 212 104q68 0 106 -38.5t38 -106.5q0 -23 -7 -59l-69 -325h-38zM562 698q-17 -94 -93 -94q-21 0 -37.5 7t-39.5 25q-39 31 -65 31
q-25 0 -40.5 -16t-19.5 -45h-33q17 94 93 94q21 0 37.5 -7t39.5 -25q39 -31 65 -31q25 0 40.5 16t19.5 45h33z" />
    <glyph glyph-name="ograve" unicode="&#xf2;" horiz-adv-x="578" 
d="M262 -16q-94 0 -147.5 59.5t-53.5 164.5q0 87 36 160t101 117t147 44q94 0 147.5 -59.5t53.5 -164.5q0 -87 -36 -160t-101 -117t-147 -44zM264 18q67 0 122 36t87.5 102t32.5 150q0 91 -42.5 140t-120.5 49q-66 0 -121 -36t-88 -102t-33 -150q0 -91 42.5 -140t120.5 -49z
M369 588l-97 131h47l88 -131h-38z" />
    <glyph glyph-name="oacute" unicode="&#xf3;" horiz-adv-x="578" 
d="M262 -16q-94 0 -147.5 59.5t-53.5 164.5q0 87 36 160t101 117t147 44q94 0 147.5 -59.5t53.5 -164.5q0 -87 -36 -160t-101 -117t-147 -44zM264 18q67 0 122 36t87.5 102t32.5 150q0 91 -42.5 140t-120.5 49q-66 0 -121 -36t-88 -102t-33 -150q0 -91 42.5 -140t120.5 -49z
M349 588h-44l136 130h54z" />
    <glyph glyph-name="ocircumflex" unicode="&#xf4;" horiz-adv-x="578" 
d="M262 -16q-94 0 -147.5 59.5t-53.5 164.5q0 87 36 160t101 117t147 44q94 0 147.5 -59.5t53.5 -164.5q0 -87 -36 -160t-101 -117t-147 -44zM264 18q67 0 122 36t87.5 102t32.5 150q0 91 -42.5 140t-120.5 49q-66 0 -121 -36t-88 -102t-33 -150q0 -91 42.5 -140t120.5 -49z
M450 588l-68 100l-112 -100h-42l139 130h37l84 -130h-38z" />
    <glyph glyph-name="otilde" unicode="&#xf5;" horiz-adv-x="578" 
d="M262 -16q-94 0 -147.5 59.5t-53.5 164.5q0 87 36 160t101 117t147 44q94 0 147.5 -59.5t53.5 -164.5q0 -87 -36 -160t-101 -117t-147 -44zM264 18q67 0 122 36t87.5 102t32.5 150q0 91 -42.5 140t-120.5 49q-66 0 -121 -36t-88 -102t-33 -150q0 -91 42.5 -140t120.5 -49z
M536 698q-17 -94 -93 -94q-21 0 -37.5 7t-39.5 25q-39 31 -65 31q-25 0 -40.5 -16t-19.5 -45h-33q17 94 93 94q21 0 37.5 -7t39.5 -25q39 -31 65 -31q25 0 40.5 16t19.5 45h33z" />
    <glyph glyph-name="odieresis" unicode="&#xf6;" horiz-adv-x="578" 
d="M262 -16q-94 0 -147.5 59.5t-53.5 164.5q0 87 36 160t101 117t147 44q94 0 147.5 -59.5t53.5 -164.5q0 -87 -36 -160t-101 -117t-147 -44zM264 18q67 0 122 36t87.5 102t32.5 150q0 91 -42.5 140t-120.5 49q-66 0 -121 -36t-88 -102t-33 -150q0 -91 42.5 -140t120.5 -49z
M269 622l20 92h40l-20 -92h-40zM421 622l20 92h40l-20 -92h-40z" />
    <glyph glyph-name="divide" unicode="&#xf7;" horiz-adv-x="592" 
d="M110 322l7 36h428l-7 -36h-428zM334 476l21 93h44l-21 -93h-44zM256 111l21 93h44l-21 -93h-44z" />
    <glyph glyph-name="oslash" unicode="&#xf8;" horiz-adv-x="578" 
d="M44 -20l63 72q-46 58 -46 156q0 87 36 160t101 117t147 44q85 0 137 -48l62 71l25 -21l-65 -75q42 -57 42 -151q0 -87 -36 -160t-101 -117t-147 -44q-80 0 -133 44l-60 -69zM457 453q-42 42 -114 42q-66 0 -121 -36t-88 -102t-33 -150q0 -80 31 -126zM154 56
q41 -38 110 -38q67 0 122 36t87.5 102t32.5 150q0 74 -28 121z" />
    <glyph glyph-name="ugrave" unicode="&#xf9;" horiz-adv-x="538" 
d="M388 0l19 88q-92 -104 -205 -104q-66 0 -103 38t-37 106q0 31 7 60l69 325h38l-71 -334q-5 -23 -5 -48q0 -55 28 -83.5t81 -28.5q73 0 144 55q35 27 52 57t28 83l64 299h38l-109 -513h-38zM363 588l-97 131h47l88 -131h-38z" />
    <glyph glyph-name="uacute" unicode="&#xfa;" horiz-adv-x="538" 
d="M388 0l19 88q-92 -104 -205 -104q-66 0 -103 38t-37 106q0 31 7 60l69 325h38l-71 -334q-5 -23 -5 -48q0 -55 28 -83.5t81 -28.5q73 0 144 55q35 27 52 57t28 83l64 299h38l-109 -513h-38zM343 588h-44l136 130h54z" />
    <glyph glyph-name="ucircumflex" unicode="&#xfb;" horiz-adv-x="538" 
d="M388 0l19 88q-92 -104 -205 -104q-66 0 -103 38t-37 106q0 31 7 60l69 325h38l-71 -334q-5 -23 -5 -48q0 -55 28 -83.5t81 -28.5q73 0 144 55q35 27 52 57t28 83l64 299h38l-109 -513h-38zM444 588l-68 100l-112 -100h-42l139 130h37l84 -130h-38z" />
    <glyph glyph-name="udieresis" unicode="&#xfc;" horiz-adv-x="538" 
d="M388 0l19 88q-92 -104 -205 -104q-66 0 -103 38t-37 106q0 31 7 60l69 325h38l-71 -334q-5 -23 -5 -48q0 -55 28 -83.5t81 -28.5q73 0 144 55q35 27 52 57t28 83l64 299h38l-109 -513h-38zM263 622l20 92h40l-20 -92h-40zM415 622l20 92h40l-20 -92h-40z" />
    <glyph glyph-name="yacute" unicode="&#xfd;" horiz-adv-x="481" 
d="M192 9l-115 504h41l101 -462l279 462h44l-365 -594q-31 -51 -51 -74t-39 -31t-45 -8q-31 0 -66 13l12 31q31 -10 53 -10q29 0 49.5 17.5t53.5 72.5zM316 588h-44l136 130h54z" />
    <glyph glyph-name="thorn" unicode="&#xfe;" horiz-adv-x="574" 
d="M-9 -194l192 908h38l-64 -302q78 117 201 117q86 0 134 -56t48 -156q0 -88 -35.5 -163.5t-99.5 -122.5t-143 -47q-63 0 -108 31t-62 87l-63 -296h-38zM119 236q-9 -46 -9 -70q0 -68 41.5 -108t112.5 -40q63 0 116.5 38t86.5 107t33 154q0 86 -38 132t-107 46
q-82 0 -144.5 -59.5t-82.5 -156.5z" />
    <glyph glyph-name="ydieresis" unicode="&#xff;" horiz-adv-x="481" 
d="M192 9l-115 504h41l101 -462l279 462h44l-365 -594q-31 -51 -51 -74t-39 -31t-45 -8q-31 0 -66 13l12 31q31 -10 53 -10q29 0 49.5 17.5t53.5 72.5zM236 622l20 92h40l-20 -92h-40zM388 622l20 92h40l-20 -92h-40z" />
    <glyph glyph-name="Amacron" unicode="&#x100;" horiz-adv-x="650" 
d="M548 0l-41 228h-345l-137 -228h-44l432 714h45l132 -714h-42zM427 670l-243 -405h316zM316 798l7 35h274l-7 -35h-274z" />
    <glyph glyph-name="amacron" unicode="&#x101;" horiz-adv-x="516" 
d="M370 0l19 88q-81 -100 -204 -100q-74 0 -114 35.5t-40 101.5q0 179 295 188l110 4l3 13q7 27 7 58q0 55 -34 81t-107 26q-68 0 -108 -22t-59 -71l-34 6q22 62 71.5 91.5t131.5 29.5q176 0 176 -140q0 -32 -7 -64l-69 -325h-37zM430 286l-105 -4q-134 -6 -193.5 -42.5
t-59.5 -112.5q0 -53 28.5 -78.5t88.5 -25.5q54 0 100 21t78 60.5t44 92.5zM225 630l7 34h238l-7 -34h-238z" />
    <glyph glyph-name="Abreve" unicode="&#x102;" horiz-adv-x="650" 
d="M548 0l-41 228h-345l-137 -228h-44l432 714h45l132 -714h-42zM427 670l-243 -405h316zM582 891q-11 -59 -44 -88t-90 -29q-50 0 -78 23.5t-28 65.5q0 13 3 28h34q-2 -12 -2 -23q0 -63 72 -63q83 0 99 86h34z" />
    <glyph glyph-name="abreve" unicode="&#x103;" horiz-adv-x="516" 
d="M370 0l19 88q-81 -100 -204 -100q-74 0 -114 35.5t-40 101.5q0 179 295 188l110 4l3 13q7 27 7 58q0 55 -34 81t-107 26q-68 0 -108 -22t-59 -71l-34 6q22 62 71.5 91.5t131.5 29.5q176 0 176 -140q0 -32 -7 -64l-69 -325h-37zM430 286l-105 -4q-134 -6 -193.5 -42.5
t-59.5 -112.5q0 -53 28.5 -78.5t88.5 -25.5q54 0 100 21t78 60.5t44 92.5zM467 713q-22 -121 -131 -121q-50 0 -79 24.5t-29 67.5q0 14 3 29h33q-3 -13 -3 -25q0 -32 19.5 -49t55.5 -17q82 0 98 91h33z" />
    <glyph glyph-name="Aogonek" unicode="&#x104;" horiz-adv-x="650" 
d="M548 0l-41 228h-345l-137 -228h-44l432 714h45l132 -714h-42zM427 670l-243 -405h316zM569 -170q-16 -2 -27 -2q-35 0 -55 17.5t-20 48.5q0 61 86 111l37 -5q-44 -28 -64.5 -51.5t-20.5 -48.5q0 -39 46 -39q13 0 25 2z" />
    <glyph glyph-name="aogonek" unicode="&#x105;" horiz-adv-x="516" 
d="M370 0l19 88q-81 -100 -204 -100q-74 0 -114 35.5t-40 101.5q0 179 295 188l110 4l3 13q7 27 7 58q0 55 -34 81t-107 26q-68 0 -108 -22t-59 -71l-34 6q22 62 71.5 91.5t131.5 29.5q176 0 176 -140q0 -32 -7 -64l-69 -325h-37zM430 286l-105 -4q-134 -6 -193.5 -42.5
t-59.5 -112.5q0 -53 28.5 -78.5t88.5 -25.5q54 0 100 21t78 60.5t44 92.5zM387 -165q-14 -2 -26 -2q-34 0 -53.5 17t-19.5 46q0 58 84 108l35 -4q-44 -27 -63 -49.5t-19 -47.5q0 -38 44 -38q11 0 25 2z" />
    <glyph glyph-name="Cacute" unicode="&#x106;" horiz-adv-x="696" 
d="M661 231q-28 -119 -107.5 -183.5t-198.5 -64.5q-127 0 -200 79t-73 216q0 125 46 228t130.5 164.5t192.5 61.5q107 0 171 -59t75 -169l-38 -7q-24 199 -210 199q-91 0 -164.5 -51.5t-117 -145.5t-43.5 -216q0 -126 61.5 -195t171.5 -69q102 0 170 54.5t95 157.5h39z
M451 774h-44l139 126h53z" />
    <glyph glyph-name="cacute" unicode="&#x107;" horiz-adv-x="543" 
d="M493 168q-26 -91 -84 -137.5t-145 -46.5q-95 0 -149 57.5t-54 159.5q0 90 34.5 164.5t98 119t143.5 44.5q79 0 126.5 -44t55.5 -125l-36 -5q-17 140 -147 140q-66 0 -119 -36.5t-84.5 -103t-31.5 -152.5q0 -89 43.5 -137t122.5 -48q143 0 188 150h38zM340 588h-44
l136 130h54z" />
    <glyph glyph-name="Ccircumflex" unicode="&#x108;" horiz-adv-x="696" 
d="M661 231q-28 -119 -107.5 -183.5t-198.5 -64.5q-127 0 -200 79t-73 216q0 125 46 228t130.5 164.5t192.5 61.5q107 0 171 -59t75 -169l-38 -7q-24 199 -210 199q-91 0 -164.5 -51.5t-117 -145.5t-43.5 -216q0 -126 61.5 -195t171.5 -69q102 0 170 54.5t95 157.5h39z
M550 774l-67 95l-110 -95h-43l138 126h38l84 -126h-40z" />
    <glyph glyph-name="ccircumflex" unicode="&#x109;" horiz-adv-x="543" 
d="M493 168q-26 -91 -84 -137.5t-145 -46.5q-95 0 -149 57.5t-54 159.5q0 90 34.5 164.5t98 119t143.5 44.5q79 0 126.5 -44t55.5 -125l-36 -5q-17 140 -147 140q-66 0 -119 -36.5t-84.5 -103t-31.5 -152.5q0 -89 43.5 -137t122.5 -48q143 0 188 150h38zM441 588l-68 100
l-112 -100h-42l139 130h37l84 -130h-38z" />
    <glyph glyph-name="Cdotaccent" unicode="&#x10a;" horiz-adv-x="696" 
d="M661 231q-28 -119 -107.5 -183.5t-198.5 -64.5q-127 0 -200 79t-73 216q0 125 46 228t130.5 164.5t192.5 61.5q107 0 171 -59t75 -169l-38 -7q-24 199 -210 199q-91 0 -164.5 -51.5t-117 -145.5t-43.5 -216q0 -126 61.5 -195t171.5 -69q102 0 170 54.5t95 157.5h39z
M442 793l19 92h42l-19 -92h-42z" />
    <glyph glyph-name="cdotaccent" unicode="&#x10b;" horiz-adv-x="543" 
d="M493 168q-26 -91 -84 -137.5t-145 -46.5q-95 0 -149 57.5t-54 159.5q0 90 34.5 164.5t98 119t143.5 44.5q79 0 126.5 -44t55.5 -125l-36 -5q-17 140 -147 140q-66 0 -119 -36.5t-84.5 -103t-31.5 -152.5q0 -89 43.5 -137t122.5 -48q143 0 188 150h38zM336 622l20 92h40
l-20 -92h-40z" />
    <glyph glyph-name="Ccaron" unicode="&#x10c;" horiz-adv-x="696" 
d="M661 231q-28 -119 -107.5 -183.5t-198.5 -64.5q-127 0 -200 79t-73 216q0 125 46 228t130.5 164.5t192.5 61.5q107 0 171 -59t75 -169l-38 -7q-24 199 -210 199q-91 0 -164.5 -51.5t-117 -145.5t-43.5 -216q0 -126 61.5 -195t171.5 -69q102 0 170 54.5t95 157.5h39z
M478 774h-38l-84 126h40l67 -95l110 95h43z" />
    <glyph glyph-name="ccaron" unicode="&#x10d;" horiz-adv-x="543" 
d="M493 168q-26 -91 -84 -137.5t-145 -46.5q-95 0 -149 57.5t-54 159.5q0 90 34.5 164.5t98 119t143.5 44.5q79 0 126.5 -44t55.5 -125l-36 -5q-17 140 -147 140q-66 0 -119 -36.5t-84.5 -103t-31.5 -152.5q0 -89 43.5 -137t122.5 -48q143 0 188 150h38zM367 588h-37
l-84 130h38l68 -100l112 100h42z" />
    <glyph glyph-name="Dcaron" unicode="&#x10e;" horiz-adv-x="701" 
d="M44 0l151 714h209q132 0 206 -78.5t74 -218.5q0 -122 -50.5 -216t-144.5 -147.5t-220 -53.5h-225zM276 36q108 0 190.5 45.5t129 131t46.5 201.5q0 129 -62 196.5t-181 67.5h-172l-136 -642h185zM445 774h-38l-84 126h40l67 -95l110 95h43z" />
    <glyph glyph-name="dcaron" unicode="&#x10f;" horiz-adv-x="574" 
d="M424 0l22 101q-40 -60 -89.5 -88.5t-111.5 -28.5q-86 0 -134 56t-48 156q0 88 35.5 163.5t99.5 122.5t143 47q64 0 108 -31t62 -87l65 303h38l-152 -714h-38zM484 277q9 46 9 70q0 68 -42 108t-112 40q-63 0 -116.5 -38t-86.5 -107t-33 -154q0 -86 37.5 -132t107.5 -46
q82 0 144.5 59.5t82.5 156.5zM645 547l60 167h39l-68 -167h-31z" />
    <glyph glyph-name="Dcroat" unicode="&#x110;" horiz-adv-x="702" 
d="M52 0l74 351h-82l8 36h81l70 327h205q132 0 206 -78.5t74 -218.5q0 -122 -50.5 -216t-144.5 -147.5t-220 -53.5h-221zM280 36q108 0 190.5 45.5t129 131t46.5 201.5q0 129 -62 196.5t-181 67.5h-168l-62 -291h214l-7 -36h-214l-67 -315h181z" />
    <glyph glyph-name="dcroat" unicode="&#x111;" horiz-adv-x="574" 
d="M425 0l22 102q-81 -118 -204 -118q-86 0 -134.5 54t-48.5 151q0 85 35.5 158.5t100 119t143.5 45.5q64 0 108 -29.5t63 -83.5l42 199h-180l7 33h180l18 83h38l-18 -83h72l-7 -33h-72l-127 -598h-38zM485 269q9 39 9 67q0 66 -42 104t-114 38q-46 0 -88.5 -20t-76 -58.5
t-53.5 -92.5t-20 -117q0 -83 37.5 -127.5t108.5 -44.5q83 0 146.5 58t83.5 151z" />
    <glyph glyph-name="Emacron" unicode="&#x112;" horiz-adv-x="580" 
d="M44 0l151 714h441l-7 -37h-401l-62 -290h380l-7 -37h-381l-67 -313h415l-18 -37h-444zM300 798l7 35h274l-7 -35h-274z" />
    <glyph glyph-name="emacron" unicode="&#x113;" horiz-adv-x="545" 
d="M481 128q-29 -75 -79.5 -109.5t-132.5 -34.5q-99 0 -153.5 58t-54.5 163q0 90 33.5 163.5t95.5 117t141 43.5q88 0 138 -55.5t50 -152.5q0 -31 -5 -58l-3 -16h-410q-2 -25 -2 -43q0 -90 45 -138t128 -48q66 0 107.5 26t64.5 84h37zM479 280q3 21 3 43q0 81 -41 126.5
t-113 45.5q-83 0 -144 -59t-78 -156h373zM234 630l7 34h238l-7 -34h-238z" />
    <glyph glyph-name="Ebreve" unicode="&#x114;" horiz-adv-x="580" 
d="M44 0l151 714h441l-7 -37h-401l-62 -290h380l-7 -37h-381l-67 -313h415l-18 -37h-444zM566 891q-11 -59 -44 -88t-90 -29q-50 0 -78 23.5t-28 65.5q0 13 3 28h34q-2 -12 -2 -23q0 -63 72 -63q83 0 99 86h34z" />
    <glyph glyph-name="ebreve" unicode="&#x115;" horiz-adv-x="545" 
d="M481 128q-29 -75 -79.5 -109.5t-132.5 -34.5q-99 0 -153.5 58t-54.5 163q0 90 33.5 163.5t95.5 117t141 43.5q88 0 138 -55.5t50 -152.5q0 -31 -5 -58l-3 -16h-410q-2 -25 -2 -43q0 -90 45 -138t128 -48q66 0 107.5 26t64.5 84h37zM479 280q3 21 3 43q0 81 -41 126.5
t-113 45.5q-83 0 -144 -59t-78 -156h373zM476 713q-22 -121 -131 -121q-50 0 -79 24.5t-29 67.5q0 14 3 29h33q-3 -13 -3 -25q0 -32 19.5 -49t55.5 -17q82 0 98 91h33z" />
    <glyph glyph-name="Edotaccent" unicode="&#x116;" horiz-adv-x="580" 
d="M44 0l151 714h441l-7 -37h-401l-62 -290h380l-7 -37h-381l-67 -313h415l-18 -37h-444zM414 793l19 92h42l-19 -92h-42z" />
    <glyph glyph-name="edotaccent" unicode="&#x117;" horiz-adv-x="545" 
d="M481 128q-29 -75 -79.5 -109.5t-132.5 -34.5q-99 0 -153.5 58t-54.5 163q0 90 33.5 163.5t95.5 117t141 43.5q88 0 138 -55.5t50 -152.5q0 -31 -5 -58l-3 -16h-410q-2 -25 -2 -43q0 -90 45 -138t128 -48q66 0 107.5 26t64.5 84h37zM479 280q3 21 3 43q0 81 -41 126.5
t-113 45.5q-83 0 -144 -59t-78 -156h373zM331 622l20 92h40l-20 -92h-40z" />
    <glyph glyph-name="Eogonek" unicode="&#x118;" horiz-adv-x="580" 
d="M44 0l151 714h441l-7 -37h-401l-62 -290h380l-7 -37h-381l-67 -313h415l-18 -37h-444zM467 -170q-16 -2 -27 -2q-35 0 -55 17.5t-20 48.5q0 61 86 111l37 -5q-44 -28 -64.5 -51.5t-20.5 -48.5q0 -39 46 -39q13 0 25 2z" />
    <glyph glyph-name="eogonek" unicode="&#x119;" horiz-adv-x="545" 
d="M481 128q-29 -75 -79.5 -109.5t-132.5 -34.5q-99 0 -153.5 58t-54.5 163q0 90 33.5 163.5t95.5 117t141 43.5q88 0 138 -55.5t50 -152.5q0 -31 -5 -58l-3 -16h-410q-2 -25 -2 -43q0 -90 45 -138t128 -48q66 0 107.5 26t64.5 84h37zM479 280q3 21 3 43q0 81 -41 126.5
t-113 45.5q-83 0 -144 -59t-78 -156h373zM350 -165q-10 -2 -21 -2q-37 0 -57.5 16.5t-20.5 47.5q0 27 16.5 52t54.5 55l40 -4q-39 -26 -56.5 -48.5t-17.5 -46.5q0 -40 44 -40q13 0 25 2z" />
    <glyph glyph-name="Ecaron" unicode="&#x11a;" horiz-adv-x="580" 
d="M44 0l151 714h441l-7 -37h-401l-62 -290h380l-7 -37h-381l-67 -313h415l-18 -37h-444zM450 774h-38l-84 126h40l67 -95l110 95h43z" />
    <glyph glyph-name="ecaron" unicode="&#x11b;" horiz-adv-x="545" 
d="M481 128q-29 -75 -79.5 -109.5t-132.5 -34.5q-99 0 -153.5 58t-54.5 163q0 90 33.5 163.5t95.5 117t141 43.5q88 0 138 -55.5t50 -152.5q0 -31 -5 -58l-3 -16h-410q-2 -25 -2 -43q0 -90 45 -138t128 -48q66 0 107.5 26t64.5 84h37zM479 280q3 21 3 43q0 81 -41 126.5
t-113 45.5q-83 0 -144 -59t-78 -156h373zM362 588h-37l-84 130h38l68 -100l112 100h42z" />
    <glyph glyph-name="Gcircumflex" unicode="&#x11c;" horiz-adv-x="696" 
d="M618 305h-210l8 36h250l-58 -272q-45 -40 -111.5 -63t-134.5 -23q-131 0 -205.5 81t-74.5 223q0 122 46.5 223t131 161.5t191.5 60.5q98 0 159 -49.5t80 -145.5l-38 -6q-16 80 -68 122.5t-135 42.5q-90 0 -163.5 -50.5t-117.5 -143t-44 -211.5q0 -130 63.5 -201
t179.5 -71q58 0 111.5 18t93.5 50zM551 774l-67 95l-110 -95h-43l138 126h38l84 -126h-40z" />
    <glyph glyph-name="gcircumflex" unicode="&#x11d;" horiz-adv-x="573" 
d="M450 127q-79 -119 -203 -119q-85 0 -134 53.5t-49 147.5q0 85 34.5 157.5t98 117.5t142.5 45q64 0 108.5 -31t62.5 -88l22 103h38l-107 -502q-25 -114 -84 -165t-166 -51q-92 0 -140 36.5t-50 107.5h35q5 -59 41.5 -84.5t114.5 -25.5q92 0 141.5 43.5t70.5 142.5z
M483 279q9 48 9 71q0 53 -26 87q-42 58 -129 58q-62 0 -115 -36t-85.5 -101.5t-32.5 -147.5q0 -80 38.5 -124t108.5 -44q78 0 143 59q29 25 51.5 67t33.5 91zM453 588l-68 100l-112 -100h-42l139 130h37l84 -130h-38z" />
    <glyph glyph-name="Gbreve" unicode="&#x11e;" horiz-adv-x="696" 
d="M618 305h-210l8 36h250l-58 -272q-45 -40 -111.5 -63t-134.5 -23q-131 0 -205.5 81t-74.5 223q0 122 46.5 223t131 161.5t191.5 60.5q98 0 159 -49.5t80 -145.5l-38 -6q-16 80 -68 122.5t-135 42.5q-90 0 -163.5 -50.5t-117.5 -143t-44 -211.5q0 -130 63.5 -201
t179.5 -71q58 0 111.5 18t93.5 50zM595 891q-11 -59 -44 -88t-90 -29q-50 0 -78 23.5t-28 65.5q0 13 3 28h34q-2 -12 -2 -23q0 -63 72 -63q83 0 99 86h34z" />
    <glyph glyph-name="gbreve" unicode="&#x11f;" horiz-adv-x="573" 
d="M450 127q-79 -119 -203 -119q-85 0 -134 53.5t-49 147.5q0 85 34.5 157.5t98 117.5t142.5 45q64 0 108.5 -31t62.5 -88l22 103h38l-107 -502q-25 -114 -84 -165t-166 -51q-92 0 -140 36.5t-50 107.5h35q5 -59 41.5 -84.5t114.5 -25.5q92 0 141.5 43.5t70.5 142.5z
M483 279q9 48 9 71q0 53 -26 87q-42 58 -129 58q-62 0 -115 -36t-85.5 -101.5t-32.5 -147.5q0 -80 38.5 -124t108.5 -44q78 0 143 59q29 25 51.5 67t33.5 91zM493 713q-22 -121 -131 -121q-50 0 -79 24.5t-29 67.5q0 14 3 29h33q-3 -13 -3 -25q0 -32 19.5 -49t55.5 -17
q82 0 98 91h33z" />
    <glyph glyph-name="Gdotaccent" unicode="&#x120;" horiz-adv-x="696" 
d="M618 305h-210l8 36h250l-58 -272q-45 -40 -111.5 -63t-134.5 -23q-131 0 -205.5 81t-74.5 223q0 122 46.5 223t131 161.5t191.5 60.5q98 0 159 -49.5t80 -145.5l-38 -6q-16 80 -68 122.5t-135 42.5q-90 0 -163.5 -50.5t-117.5 -143t-44 -211.5q0 -130 63.5 -201
t179.5 -71q58 0 111.5 18t93.5 50zM443 793l19 92h42l-19 -92h-42z" />
    <glyph glyph-name="gdotaccent" unicode="&#x121;" horiz-adv-x="573" 
d="M450 127q-79 -119 -203 -119q-85 0 -134 53.5t-49 147.5q0 85 34.5 157.5t98 117.5t142.5 45q64 0 108.5 -31t62.5 -88l22 103h38l-107 -502q-25 -114 -84 -165t-166 -51q-92 0 -140 36.5t-50 107.5h35q5 -59 41.5 -84.5t114.5 -25.5q92 0 141.5 43.5t70.5 142.5z
M483 279q9 48 9 71q0 53 -26 87q-42 58 -129 58q-62 0 -115 -36t-85.5 -101.5t-32.5 -147.5q0 -80 38.5 -124t108.5 -44q78 0 143 59q29 25 51.5 67t33.5 91zM348 622l20 92h40l-20 -92h-40z" />
    <glyph glyph-name="uni0122" unicode="&#x122;" horiz-adv-x="696" 
d="M618 305h-210l8 36h250l-58 -272q-45 -40 -111.5 -63t-134.5 -23q-131 0 -205.5 81t-74.5 223q0 122 46.5 223t131 161.5t191.5 60.5q98 0 159 -49.5t80 -145.5l-38 -6q-16 80 -68 122.5t-135 42.5q-90 0 -163.5 -50.5t-117.5 -143t-44 -211.5q0 -130 63.5 -201
t179.5 -71q58 0 111.5 18t93.5 50zM227 -205l99 134h48l-109 -134h-38z" />
    <glyph glyph-name="uni0123" unicode="&#x123;" horiz-adv-x="573" 
d="M450 127q-79 -119 -203 -119q-85 0 -134 53.5t-49 147.5q0 85 34.5 157.5t98 117.5t142.5 45q64 0 108.5 -31t62.5 -88l22 103h38l-107 -502q-25 -114 -84 -165t-166 -51q-92 0 -140 36.5t-50 107.5h35q5 -59 41.5 -84.5t114.5 -25.5q92 0 141.5 43.5t70.5 142.5z
M483 279q9 48 9 71q0 53 -26 87q-42 58 -129 58q-62 0 -115 -36t-85.5 -101.5t-32.5 -147.5q0 -80 38.5 -124t108.5 -44q78 0 143 59q29 25 51.5 67t33.5 91zM336 584l106 135h37l-96 -135h-47z" />
    <glyph glyph-name="Hcircumflex" unicode="&#x124;" horiz-adv-x="680" 
d="M516 0l74 351h-432l-74 -351h-40l151 714h40l-69 -326h432l69 326h40l-151 -714h-40zM554 774l-67 95l-110 -95h-43l138 126h38l84 -126h-40z" />
    <glyph glyph-name="hcircumflex" unicode="&#x125;" horiz-adv-x="549" 
d="M402 0l71 334q5 25 5 47q0 55 -29 84t-84 29q-75 0 -148 -55q-36 -27 -53.5 -56.5t-29.5 -83.5l-64 -299h-38l152 714h38l-62 -289q45 50 99.5 77t112.5 27q68 0 106 -38.5t38 -106.5q0 -23 -7 -59l-69 -325h-38zM411 774l-67 95l-110 -95h-43l138 126h38l84 -126h-40z
" />
    <glyph glyph-name="Hbar" unicode="&#x126;" horiz-adv-x="696" 
d="M524 0l73 345h-432l-73 -345h-40l113 533h-82l8 36h82l30 145h40l-30 -145h432l30 145h40l-30 -145h82l-8 -36h-82l-113 -533h-40zM637 533h-432l-32 -151h432z" />
    <glyph glyph-name="hbar" unicode="&#x127;" horiz-adv-x="549" 
d="M402 0l67 317q5 25 5 47q0 55 -29 84t-84 29q-75 0 -148 -55q-36 -27 -53.5 -56.5t-29.5 -83.5l-60 -282h-38l127 598h-72l7 33h72l17 83h38l-17 -83h180l-7 -33h-180l-41 -190q45 50 99.5 77t112.5 27q68 0 106 -38.5t38 -106.5q0 -23 -7 -59l-65 -308h-38z" />
    <glyph glyph-name="Itilde" unicode="&#x128;" horiz-adv-x="208" 
d="M44 0l152 714h40l-152 -714h-40zM410 875q-8 -46 -32.5 -70t-63.5 -24q-35 0 -78 31q-25 19 -38.5 25t-30.5 6q-50 0 -62 -61h-34q8 46 32.5 70t63.5 24q35 0 78 -31q25 -19 38.5 -25t30.5 -6q50 0 62 61h34z" />
    <glyph glyph-name="itilde" unicode="&#x129;" horiz-adv-x="182" 
d="M32 0l109 513h38l-109 -513h-38zM355 698q-17 -94 -93 -94q-21 0 -37.5 7t-39.5 25q-39 31 -65 31q-25 0 -40.5 -16t-19.5 -45h-33q17 94 93 94q21 0 37.5 -7t39.5 -25q39 -31 65 -31q25 0 40.5 16t19.5 45h33z" />
    <glyph glyph-name="Imacron" unicode="&#x12a;" horiz-adv-x="208" 
d="M44 0l152 714h40l-152 -714h-40zM97 798l7 35h274l-7 -35h-274z" />
    <glyph glyph-name="imacron" unicode="&#x12b;" horiz-adv-x="182" 
d="M32 0l109 513h38l-109 -513h-38zM67 630l7 34h238l-7 -34h-238z" />
    <glyph glyph-name="Ibreve" unicode="&#x12c;" horiz-adv-x="208" 
d="M44 0l152 714h40l-152 -714h-40zM363 891q-11 -59 -44 -88t-90 -29q-50 0 -78 23.5t-28 65.5q0 13 3 28h34q-2 -12 -2 -23q0 -63 72 -63q83 0 99 86h34z" />
    <glyph glyph-name="ibreve" unicode="&#x12d;" horiz-adv-x="182" 
d="M32 0l109 513h38l-109 -513h-38zM309 713q-22 -121 -131 -121q-50 0 -79 24.5t-29 67.5q0 14 3 29h33q-3 -13 -3 -25q0 -32 19.5 -49t55.5 -17q82 0 98 91h33z" />
    <glyph glyph-name="Iogonek" unicode="&#x12e;" horiz-adv-x="208" 
d="M44 0l152 714h40l-152 -714h-40zM63 -170q-16 -2 -27 -2q-35 0 -55 17.5t-20 48.5q0 61 86 111l37 -5q-44 -28 -64.5 -51.5t-20.5 -48.5q0 -39 46 -39q13 0 25 2z" />
    <glyph glyph-name="iogonek" unicode="&#x12f;" horiz-adv-x="182" 
d="M32 0l109 513h38l-109 -513h-38zM162 622l20 92h40l-20 -92h-40zM50 -165q-14 -2 -26 -2q-34 0 -53.5 17t-19.5 46q0 58 84 108l35 -4q-44 -27 -63 -49.5t-19 -47.5q0 -38 44 -38q11 0 25 2z" />
    <glyph glyph-name="Idotaccent" unicode="&#x130;" horiz-adv-x="208" 
d="M44 0l152 714h40l-152 -714h-40zM211 793l19 92h42l-19 -92h-42z" />
    <glyph glyph-name="dotlessi" unicode="&#x131;" horiz-adv-x="182" 
d="M32 0l109 513h38l-109 -513h-38z" />
    <glyph glyph-name="IJ" unicode="&#x132;" horiz-adv-x="778" 
d="M44 0l152 714h40l-152 -714h-40zM770 714h40l-105 -493q-26 -122 -88.5 -180t-168.5 -58q-101 0 -155 49t-54 140q0 17 1 25h37v-13q0 -84 41.5 -124.5t127.5 -40.5q93 0 145 50t76 162z" />
    <glyph glyph-name="ij" unicode="&#x133;" horiz-adv-x="364" 
d="M32 0l109 513h38l-109 -513h-38zM162 622l20 92h40l-20 -92h-40zM323 513h38l-118 -552q-17 -81 -47.5 -114t-89.5 -33q-46 0 -86 20l14 31q34 -17 70 -17q43 0 66 27.5t37 93.5zM344 622l20 92h40l-20 -92h-40z" />
    <glyph glyph-name="Jcircumflex" unicode="&#x134;" horiz-adv-x="570" 
d="M562 714h40l-105 -493q-26 -122 -88.5 -180t-168.5 -58q-101 0 -155 49t-54 140q0 17 1 25h37v-13q0 -84 41.5 -124.5t127.5 -40.5q93 0 145 50t76 162zM685 774l-67 95l-110 -95h-43l138 126h38l84 -126h-40z" />
    <glyph glyph-name="jcircumflex" unicode="&#x135;" horiz-adv-x="182" 
d="M141 513h38l-118 -552q-17 -81 -47.5 -114t-89.5 -33q-46 0 -86 20l14 31q32 -16 70 -16q43 0 66 27t37 93zM269 588l-68 100l-112 -100h-42l139 130h37l84 -130h-38z" />
    <glyph glyph-name="uni0136" unicode="&#x136;" horiz-adv-x="629" 
d="M522 0l-194 420l-186 -149l-58 -271h-40l151 714h40l-83 -393l490 393h51l-334 -268l208 -446h-45zM167 -205l99 134h48l-109 -134h-38z" />
    <glyph glyph-name="uni0137" unicode="&#x137;" horiz-adv-x="484" 
d="M394 0l-128 319l-153 -115l-43 -204h-38l152 714h38l-99 -465l349 264h51l-226 -173l139 -340h-42zM94 -209l101 138h49l-111 -138h-39z" />
    <glyph glyph-name="kgreenlandic" unicode="&#x138;" horiz-adv-x="484" 
d="M394 0l-129 303l-158 -128l-37 -175h-38l109 513h38l-62 -291l355 291h51l-227 -188l141 -325h-43z" />
    <glyph glyph-name="Lacute" unicode="&#x139;" horiz-adv-x="548" 
d="M44 0l151 714h40l-144 -677h399l-16 -37h-430zM219 774h-44l139 126h53z" />
    <glyph glyph-name="lacute" unicode="&#x13a;" horiz-adv-x="182" 
d="M32 0l152 714h38l-152 -714h-38zM207 774h-44l139 126h53z" />
    <glyph glyph-name="uni013B" unicode="&#x13b;" horiz-adv-x="548" 
d="M44 0l151 714h40l-144 -677h399l-16 -37h-430zM125 -205l99 134h48l-109 -134h-38z" />
    <glyph glyph-name="uni013C" unicode="&#x13c;" horiz-adv-x="182" 
d="M32 0l152 714h38l-152 -714h-38zM-89 -209l101 138h49l-111 -138h-39z" />
    <glyph glyph-name="Lcaron" unicode="&#x13d;" horiz-adv-x="548" 
d="M44 0l151 714h40l-144 -677h399l-16 -37h-430zM409 547l60 167h39l-68 -167h-31z" />
    <glyph glyph-name="lcaron" unicode="&#x13e;" horiz-adv-x="182" 
d="M32 0l152 714h38l-152 -714h-38zM253 547l60 167h39l-68 -167h-31z" />
    <glyph glyph-name="Ldot" unicode="&#x13f;" horiz-adv-x="548" 
d="M44 0l151 714h40l-144 -677h399l-16 -37h-430zM387 346l22 102h42l-22 -102h-42z" />
    <glyph glyph-name="ldot" unicode="&#x140;" horiz-adv-x="263" 
d="M32 0l152 714h38l-152 -714h-38zM230 326l22 102h42l-22 -102h-42z" />
    <glyph glyph-name="Lslash" unicode="&#x141;" horiz-adv-x="555" 
d="M52 0l56 267l-93 -58l8 44l95 59l85 402h40l-80 -374l274 171l-10 -45l-273 -170l-55 -259h399l-16 -37h-430z" />
    <glyph glyph-name="lslash" unicode="&#x142;" horiz-adv-x="213" 
d="M47 0l75 354l-97 -61l8 41l98 63l68 317h38l-62 -289l100 64l-8 -43l-101 -64l-81 -382h-38z" />
    <glyph glyph-name="Nacute" unicode="&#x143;" horiz-adv-x="683" 
d="M515 0l-292 654l-139 -654h-40l151 714h43l293 -657l140 657h40l-152 -714h-44zM457 774h-44l139 126h53z" />
    <glyph glyph-name="nacute" unicode="&#x144;" horiz-adv-x="549" 
d="M402 0l71 334q5 25 5 47q0 55 -29 84t-84 29q-75 0 -148 -55q-36 -27 -53.5 -56.5t-29.5 -83.5l-64 -299h-38l109 513h38l-19 -88q96 104 212 104q68 0 106 -38.5t38 -106.5q0 -23 -7 -59l-69 -325h-38zM375 588h-44l136 130h54z" />
    <glyph glyph-name="uni0145" unicode="&#x145;" horiz-adv-x="683" 
d="M515 0l-292 654l-139 -654h-40l151 714h43l293 -657l140 657h40l-152 -714h-44zM163 -205l99 134h48l-109 -134h-38z" />
    <glyph glyph-name="uni0146" unicode="&#x146;" horiz-adv-x="549" 
d="M402 0l71 334q5 25 5 47q0 55 -29 84t-84 29q-75 0 -148 -55q-36 -27 -53.5 -56.5t-29.5 -83.5l-64 -299h-38l109 513h38l-19 -88q96 104 212 104q68 0 106 -38.5t38 -106.5q0 -23 -7 -59l-69 -325h-38zM97 -209l101 138h49l-111 -138h-39z" />
    <glyph glyph-name="Ncaron" unicode="&#x147;" horiz-adv-x="683" 
d="M515 0l-292 654l-139 -654h-40l151 714h43l293 -657l140 657h40l-152 -714h-44zM484 774h-38l-84 126h40l67 -95l110 95h43z" />
    <glyph glyph-name="ncaron" unicode="&#x148;" horiz-adv-x="549" 
d="M402 0l71 334q5 25 5 47q0 55 -29 84t-84 29q-75 0 -148 -55q-36 -27 -53.5 -56.5t-29.5 -83.5l-64 -299h-38l109 513h38l-19 -88q96 104 212 104q68 0 106 -38.5t38 -106.5q0 -23 -7 -59l-69 -325h-38zM402 588h-37l-84 130h38l68 -100l112 100h42z" />
    <glyph glyph-name="napostrophe" unicode="&#x149;" horiz-adv-x="549" 
d="M402 0l71 334q5 25 5 47q0 55 -29 84t-84 29q-75 0 -148 -55q-36 -27 -53.5 -56.5t-29.5 -83.5l-64 -299h-38l109 513h38l-19 -88q96 104 212 104q68 0 106 -38.5t38 -106.5q0 -23 -7 -59l-69 -325h-38zM55 530l71 189h45l-82 -189h-34z" />
    <glyph glyph-name="Eng" unicode="&#x14a;" horiz-adv-x="683" 
d="M223 654l-139 -654h-40l151 714h43l294 -652l139 652h40l-152 -714q-24 -112 -76.5 -158.5t-155.5 -46.5q-87 0 -156 32l17 34q65 -30 142 -30q83 0 126 38.5t63 129.5z" />
    <glyph glyph-name="eng" unicode="&#x14b;" horiz-adv-x="549" 
d="M473 334q5 25 5 47q0 55 -29 84t-84 29q-75 0 -148 -55q-36 -27 -53.5 -56.5t-29.5 -83.5l-64 -299h-38l109 513h38l-19 -88q96 104 212 104q68 0 106 -38.5t38 -106.5q0 -23 -7 -59l-77 -364q-17 -81 -47.5 -114t-89.5 -33q-46 0 -86 20l14 31q32 -16 70 -16q43 0 66 27
t37 93z" />
    <glyph glyph-name="Omacron" unicode="&#x14c;" horiz-adv-x="745" 
d="M353 -17q-81 0 -142 35.5t-95 103t-34 158.5q0 120 48.5 222.5t136.5 166t197 63.5q81 0 142 -35.5t95 -103t34 -158.5q0 -120 -48.5 -222.5t-136.5 -166t-197 -63.5zM355 19q90 0 167 52.5t124 148.5t47 215q0 123 -61.5 192t-169.5 69q-90 0 -167 -52.5t-124 -148.5
t-47 -215q0 -123 61.5 -192t169.5 -69zM341 798l7 35h274l-7 -35h-274z" />
    <glyph glyph-name="omacron" unicode="&#x14d;" horiz-adv-x="578" 
d="M262 -16q-94 0 -147.5 59.5t-53.5 164.5q0 87 36 160t101 117t147 44q94 0 147.5 -59.5t53.5 -164.5q0 -87 -36 -160t-101 -117t-147 -44zM264 18q67 0 122 36t87.5 102t32.5 150q0 91 -42.5 140t-120.5 49q-66 0 -121 -36t-88 -102t-33 -150q0 -91 42.5 -140t120.5 -49z
M248 630l7 34h238l-7 -34h-238z" />
    <glyph glyph-name="Obreve" unicode="&#x14e;" horiz-adv-x="745" 
d="M353 -17q-81 0 -142 35.5t-95 103t-34 158.5q0 120 48.5 222.5t136.5 166t197 63.5q81 0 142 -35.5t95 -103t34 -158.5q0 -120 -48.5 -222.5t-136.5 -166t-197 -63.5zM355 19q90 0 167 52.5t124 148.5t47 215q0 123 -61.5 192t-169.5 69q-90 0 -167 -52.5t-124 -148.5
t-47 -215q0 -123 61.5 -192t169.5 -69zM607 891q-11 -59 -44 -88t-90 -29q-50 0 -78 23.5t-28 65.5q0 13 3 28h34q-2 -12 -2 -23q0 -63 72 -63q83 0 99 86h34z" />
    <glyph glyph-name="obreve" unicode="&#x14f;" horiz-adv-x="578" 
d="M262 -16q-94 0 -147.5 59.5t-53.5 164.5q0 87 36 160t101 117t147 44q94 0 147.5 -59.5t53.5 -164.5q0 -87 -36 -160t-101 -117t-147 -44zM264 18q67 0 122 36t87.5 102t32.5 150q0 91 -42.5 140t-120.5 49q-66 0 -121 -36t-88 -102t-33 -150q0 -91 42.5 -140t120.5 -49z
M490 713q-22 -121 -131 -121q-50 0 -79 24.5t-29 67.5q0 14 3 29h33q-3 -13 -3 -25q0 -32 19.5 -49t55.5 -17q82 0 98 91h33z" />
    <glyph glyph-name="Ohungarumlaut" unicode="&#x150;" horiz-adv-x="745" 
d="M353 -17q-81 0 -142 35.5t-95 103t-34 158.5q0 120 48.5 222.5t136.5 166t197 63.5q81 0 142 -35.5t95 -103t34 -158.5q0 -120 -48.5 -222.5t-136.5 -166t-197 -63.5zM355 19q90 0 167 52.5t124 148.5t47 215q0 123 -61.5 192t-169.5 69q-90 0 -167 -52.5t-124 -148.5
t-47 -215q0 -123 61.5 -192t169.5 -69zM418 774h-41l125 126h50zM567 774h-41l125 126h50z" />
    <glyph glyph-name="ohungarumlaut" unicode="&#x151;" horiz-adv-x="578" 
d="M262 -16q-94 0 -147.5 59.5t-53.5 164.5q0 87 36 160t101 117t147 44q94 0 147.5 -59.5t53.5 -164.5q0 -87 -36 -160t-101 -117t-147 -44zM264 18q67 0 122 36t87.5 102t32.5 150q0 91 -42.5 140t-120.5 49q-66 0 -121 -36t-88 -102t-33 -150q0 -91 42.5 -140t120.5 -49z
M305 588h-39l129 130h48zM450 588h-39l129 130h48z" />
    <glyph glyph-name="OE" unicode="&#x152;" horiz-adv-x="1085" 
d="M578 0l32 147q-48 -79 -118 -121.5t-153 -42.5q-77 0 -135 35.5t-90 103t-32 160.5q0 118 46.5 220.5t130 166t186.5 63.5q99 0 162 -60t78 -169l44 211h412l-7 -37h-373l-62 -290h353l-8 -37h-352l-67 -313h385l-15 -37h-417zM342 19q86 0 157.5 51.5t115 146.5
t43.5 215q0 125 -56 194.5t-157 69.5q-86 0 -159 -52.5t-117.5 -147t-44.5 -213.5q0 -125 57.5 -194.5t160.5 -69.5z" />
    <glyph glyph-name="oe" unicode="&#x153;" horiz-adv-x="969" 
d="M905 128q-52 -144 -204 -144q-85 0 -136 43t-65 127q-79 -170 -239 -170q-95 0 -147.5 58.5t-52.5 164.5q0 87 35.5 160t100 117.5t145.5 44.5q78 0 125.5 -42.5t60.5 -123.5q32 77 93 121.5t136 44.5q85 0 135.5 -56.5t50.5 -152.5q0 -31 -8 -73h-401q-2 -25 -2 -43
q0 -92 43.5 -139.5t126.5 -47.5q126 0 165 111h38zM263 18q66 0 119.5 36t85 101.5t31.5 151.5q0 91 -40.5 139.5t-118.5 48.5q-65 0 -119.5 -36t-87 -102.5t-32.5 -150.5q0 -91 42 -139.5t120 -48.5zM903 280q3 17 3 47q0 79 -40.5 124t-110.5 45q-82 0 -139.5 -57.5
t-76.5 -158.5h364z" />
    <glyph glyph-name="Racute" unicode="&#x154;" horiz-adv-x="617" 
d="M485 0l-79 326q-24 -4 -60 -4h-195l-68 -322h-39l151 714h218q104 0 158 -45t54 -131q0 -81 -46 -133.5t-134 -72.5l84 -332h-44zM356 358q111 0 169.5 46t58.5 133q0 72 -43.5 106.5t-134.5 34.5h-179l-68 -320h197zM403 774h-44l139 126h53z" />
    <glyph glyph-name="racute" unicode="&#x155;" horiz-adv-x="333" 
d="M32 0l109 513h38l-19 -88q89 96 182 96q21 0 44 -5l-11 -36q-15 4 -37 4q-55 0 -114 -41q-40 -29 -60 -60t-30 -82l-64 -301h-38zM259 588h-44l136 130h54z" />
    <glyph glyph-name="Rcommaaccent" unicode="&#x156;" horiz-adv-x="617" 
d="M485 0l-79 326q-24 -4 -60 -4h-195l-68 -322h-39l151 714h218q104 0 158 -45t54 -131q0 -81 -46 -133.5t-134 -72.5l84 -332h-44zM356 358q111 0 169.5 46t58.5 133q0 72 -43.5 106.5t-134.5 34.5h-179l-68 -320h197zM161 -205l99 134h48l-109 -134h-38z" />
    <glyph glyph-name="rcommaaccent" unicode="&#x157;" horiz-adv-x="333" 
d="M32 0l109 513h38l-19 -88q89 96 182 96q21 0 44 -5l-11 -36q-15 4 -37 4q-55 0 -114 -41q-40 -29 -60 -60t-30 -82l-64 -301h-38zM-89 -209l101 138h49l-111 -138h-39z" />
    <glyph glyph-name="Rcaron" unicode="&#x158;" horiz-adv-x="617" 
d="M485 0l-79 326q-24 -4 -60 -4h-195l-68 -322h-39l151 714h218q104 0 158 -45t54 -131q0 -81 -46 -133.5t-134 -72.5l84 -332h-44zM356 358q111 0 169.5 46t58.5 133q0 72 -43.5 106.5t-134.5 34.5h-179l-68 -320h197zM430 774h-38l-84 126h40l67 -95l110 95h43z" />
    <glyph glyph-name="rcaron" unicode="&#x159;" horiz-adv-x="333" 
d="M32 0l109 513h38l-19 -88q89 96 182 96q21 0 44 -5l-11 -36q-15 4 -37 4q-55 0 -114 -41q-40 -29 -60 -60t-30 -82l-64 -301h-38zM286 588h-37l-84 130h38l68 -100l112 100h42z" />
    <glyph glyph-name="Sacute" unicode="&#x15a;" horiz-adv-x="621" 
d="M303 358q-164 35 -164 172q0 94 65.5 148t180.5 54q205 0 236 -177l-38 -8q-16 79 -63 114t-136 35q-99 0 -152 -42t-53 -121q0 -57 31 -89t101 -48l94 -21q81 -18 119.5 -60.5t38.5 -114.5q0 -102 -70.5 -159.5t-196.5 -57.5q-116 0 -178.5 49t-64.5 143h38
q10 -156 206 -156q109 0 166 46t57 134q0 58 -29 91t-93 47zM385 774h-44l139 126h53z" />
    <glyph glyph-name="sacute" unicode="&#x15b;" horiz-adv-x="505" 
d="M445 395q-11 52 -47 76t-102 24q-76 0 -117.5 -29.5t-41.5 -83.5q0 -40 26 -62.5t83 -33.5l66 -13q126 -24 126 -133q0 -70 -55.5 -113t-147.5 -43q-93 0 -145.5 40.5t-52.5 112.5h36q3 -58 45 -88.5t119 -30.5t119.5 32.5t42.5 89.5q0 41 -23.5 65t-74.5 34l-61 12
q-74 15 -107 45.5t-33 83.5q0 69 53.5 109t145.5 40q155 0 181 -128zM302 588h-44l136 130h54z" />
    <glyph glyph-name="Scircumflex" unicode="&#x15c;" horiz-adv-x="621" 
d="M303 358q-164 35 -164 172q0 94 65.5 148t180.5 54q205 0 236 -177l-38 -8q-16 79 -63 114t-136 35q-99 0 -152 -42t-53 -121q0 -57 31 -89t101 -48l94 -21q81 -18 119.5 -60.5t38.5 -114.5q0 -102 -70.5 -159.5t-196.5 -57.5q-116 0 -178.5 49t-64.5 143h38
q10 -156 206 -156q109 0 166 46t57 134q0 58 -29 91t-93 47zM484 774l-67 95l-110 -95h-43l138 126h38l84 -126h-40z" />
    <glyph glyph-name="scircumflex" unicode="&#x15d;" horiz-adv-x="505" 
d="M445 395q-11 52 -47 76t-102 24q-76 0 -117.5 -29.5t-41.5 -83.5q0 -40 26 -62.5t83 -33.5l66 -13q126 -24 126 -133q0 -70 -55.5 -113t-147.5 -43q-93 0 -145.5 40.5t-52.5 112.5h36q3 -58 45 -88.5t119 -30.5t119.5 32.5t42.5 89.5q0 41 -23.5 65t-74.5 34l-61 12
q-74 15 -107 45.5t-33 83.5q0 69 53.5 109t145.5 40q155 0 181 -128zM403 588l-68 100l-112 -100h-42l139 130h37l84 -130h-38z" />
    <glyph glyph-name="Scedilla" unicode="&#x15e;" horiz-adv-x="621" 
d="M303 358q-164 35 -164 172q0 94 65.5 148t180.5 54q205 0 236 -177l-38 -8q-16 79 -63 114t-136 35q-99 0 -152 -42t-53 -121q0 -57 31 -89t101 -48l94 -21q81 -18 119.5 -60.5t38.5 -114.5q0 -102 -70.5 -159.5t-196.5 -57.5q-116 0 -178.5 49t-64.5 143h38
q10 -156 206 -156q109 0 166 46t57 134q0 58 -29 91t-93 47zM194 -169q30 -5 57 -5q82 0 82 41q0 22 -20.5 32.5t-65.5 10.5h-13l52 93l31 -3l-35 -63q89 -10 89 -71q0 -35 -30.5 -53.5t-88.5 -18.5q-34 0 -66 7z" />
    <glyph glyph-name="scedilla" unicode="&#x15f;" horiz-adv-x="505" 
d="M445 395q-11 52 -47 76t-102 24q-76 0 -117.5 -29.5t-41.5 -83.5q0 -40 26 -62.5t83 -33.5l66 -13q126 -24 126 -133q0 -70 -55.5 -113t-147.5 -43q-93 0 -145.5 40.5t-52.5 112.5h36q3 -58 45 -88.5t119 -30.5t119.5 32.5t42.5 89.5q0 41 -23.5 65t-74.5 34l-61 12
q-74 15 -107 45.5t-33 83.5q0 69 53.5 109t145.5 40q155 0 181 -128zM131 -155q31 -6 55 -6q42 0 60.5 10t18.5 32q0 40 -78 40h-13l46 82l29 -3l-30 -54q40 -3 61.5 -19.5t21.5 -44.5q0 -38 -28.5 -55.5t-87.5 -17.5q-29 0 -62 7z" />
    <glyph glyph-name="Scaron" unicode="&#x160;" horiz-adv-x="621" 
d="M303 358q-164 35 -164 172q0 94 65.5 148t180.5 54q205 0 236 -177l-38 -8q-16 79 -63 114t-136 35q-99 0 -152 -42t-53 -121q0 -57 31 -89t101 -48l94 -21q81 -18 119.5 -60.5t38.5 -114.5q0 -102 -70.5 -159.5t-196.5 -57.5q-116 0 -178.5 49t-64.5 143h38
q10 -156 206 -156q109 0 166 46t57 134q0 58 -29 91t-93 47zM412 774h-38l-84 126h40l67 -95l110 95h43z" />
    <glyph glyph-name="scaron" unicode="&#x161;" horiz-adv-x="505" 
d="M445 395q-11 52 -47 76t-102 24q-76 0 -117.5 -29.5t-41.5 -83.5q0 -40 26 -62.5t83 -33.5l66 -13q126 -24 126 -133q0 -70 -55.5 -113t-147.5 -43q-93 0 -145.5 40.5t-52.5 112.5h36q3 -58 45 -88.5t119 -30.5t119.5 32.5t42.5 89.5q0 41 -23.5 65t-74.5 34l-61 12
q-74 15 -107 45.5t-33 83.5q0 69 53.5 109t145.5 40q155 0 181 -128zM329 588h-37l-84 130h38l68 -100l112 100h42z" />
    <glyph glyph-name="uni0162" unicode="&#x162;" horiz-adv-x="578" 
d="M229 0l144 677h-251l7 37h542l-7 -37h-251l-144 -677h-40zM143 -169q30 -5 57 -5q82 0 82 41q0 22 -20.5 32.5t-65.5 10.5h-13l52 93l31 -3l-35 -63q89 -10 89 -71q0 -35 -30.5 -53.5t-88.5 -18.5q-34 0 -66 7z" />
    <glyph glyph-name="uni0163" unicode="&#x163;" horiz-adv-x="323" 
d="M275 6q-45 -17 -86 -17q-106 0 -106 100q0 23 6 51l72 339h-80l7 34h80l30 143h38l-30 -143h160l-6 -34h-161l-73 -345q-5 -23 -5 -40q0 -71 76 -71q34 0 70 15zM64 -155q31 -6 55 -6q42 0 60.5 10t18.5 32q0 40 -78 40h-13l46 82l29 -3l-30 -54q40 -3 61.5 -19.5
t21.5 -44.5q0 -38 -28.5 -55.5t-87.5 -17.5q-29 0 -62 7z" />
    <glyph glyph-name="Tcaron" unicode="&#x164;" horiz-adv-x="578" 
d="M229 0l144 677h-251l7 37h542l-7 -37h-251l-144 -677h-40zM431 774h-38l-84 126h40l67 -95l110 95h43z" />
    <glyph glyph-name="tcaron" unicode="&#x165;" horiz-adv-x="323" 
d="M275 6q-45 -17 -86 -17q-106 0 -106 100q0 23 6 51l72 339h-80l7 34h80l30 143h38l-30 -143h160l-6 -34h-161l-73 -345q-5 -23 -5 -40q0 -71 76 -71q34 0 70 15zM300 583l53 141h39l-60 -141h-32z" />
    <glyph glyph-name="Tbar" unicode="&#x166;" horiz-adv-x="578" 
d="M229 0l72 340h-167l8 36h167l64 301h-251l7 37h542l-7 -37h-251l-64 -301h167l-8 -36h-167l-72 -340h-40z" />
    <glyph glyph-name="tbar" unicode="&#x167;" horiz-adv-x="344" 
d="M276 6q-45 -17 -86 -17q-106 0 -106 100q0 23 6 51l25 120h-80l7 34h80l40 185h-80l7 34h80l30 143h38l-30 -143h160l-7 -34h-160l-39 -185h159l-7 -34h-159l-27 -126q-5 -23 -5 -40q0 -70 76 -70q36 0 70 14z" />
    <glyph glyph-name="Utilde" unicode="&#x168;" horiz-adv-x="665" 
d="M660 714h40l-94 -441q-23 -107 -60 -170t-93.5 -91.5t-139.5 -28.5q-113 0 -168.5 50t-55.5 152q0 48 13 111l89 418h40l-91 -428q-12 -52 -12 -98q0 -169 187 -169q106 0 164 57.5t88 201.5zM638 875q-8 -46 -32.5 -70t-63.5 -24q-35 0 -78 31q-25 19 -38.5 25t-30.5 6
q-50 0 -62 -61h-34q8 46 32.5 70t63.5 24q35 0 78 -31q25 -19 38.5 -25t30.5 -6q50 0 62 61h34z" />
    <glyph glyph-name="utilde" unicode="&#x169;" horiz-adv-x="538" 
d="M388 0l19 88q-92 -104 -205 -104q-66 0 -103 38t-37 106q0 31 7 60l69 325h38l-71 -334q-5 -23 -5 -48q0 -55 28 -83.5t81 -28.5q73 0 144 55q35 27 52 57t28 83l64 299h38l-109 -513h-38zM530 698q-17 -94 -93 -94q-21 0 -37.5 7t-39.5 25q-39 31 -65 31
q-25 0 -40.5 -16t-19.5 -45h-33q17 94 93 94q21 0 37.5 -7t39.5 -25q39 -31 65 -31q25 0 40.5 16t19.5 45h33z" />
    <glyph glyph-name="Umacron" unicode="&#x16a;" horiz-adv-x="665" 
d="M660 714h40l-94 -441q-23 -107 -60 -170t-93.5 -91.5t-139.5 -28.5q-113 0 -168.5 50t-55.5 152q0 48 13 111l89 418h40l-91 -428q-12 -52 -12 -98q0 -169 187 -169q106 0 164 57.5t88 201.5zM325 798l7 35h274l-7 -35h-274z" />
    <glyph glyph-name="umacron" unicode="&#x16b;" horiz-adv-x="538" 
d="M388 0l19 88q-92 -104 -205 -104q-66 0 -103 38t-37 106q0 31 7 60l69 325h38l-71 -334q-5 -23 -5 -48q0 -55 28 -83.5t81 -28.5q73 0 144 55q35 27 52 57t28 83l64 299h38l-109 -513h-38zM242 630l7 34h238l-7 -34h-238z" />
    <glyph glyph-name="Ubreve" unicode="&#x16c;" horiz-adv-x="665" 
d="M660 714h40l-94 -441q-23 -107 -60 -170t-93.5 -91.5t-139.5 -28.5q-113 0 -168.5 50t-55.5 152q0 48 13 111l89 418h40l-91 -428q-12 -52 -12 -98q0 -169 187 -169q106 0 164 57.5t88 201.5zM591 891q-11 -59 -44 -88t-90 -29q-50 0 -78 23.5t-28 65.5q0 13 3 28h34
q-2 -12 -2 -23q0 -63 72 -63q83 0 99 86h34z" />
    <glyph glyph-name="ubreve" unicode="&#x16d;" horiz-adv-x="538" 
d="M388 0l19 88q-92 -104 -205 -104q-66 0 -103 38t-37 106q0 31 7 60l69 325h38l-71 -334q-5 -23 -5 -48q0 -55 28 -83.5t81 -28.5q73 0 144 55q35 27 52 57t28 83l64 299h38l-109 -513h-38zM484 713q-22 -121 -131 -121q-50 0 -79 24.5t-29 67.5q0 14 3 29h33
q-3 -13 -3 -25q0 -32 19.5 -49t55.5 -17q82 0 98 91h33z" />
    <glyph glyph-name="Uring" unicode="&#x16e;" horiz-adv-x="665" 
d="M660 714h40l-94 -441q-23 -107 -60 -170t-93.5 -91.5t-139.5 -28.5q-113 0 -168.5 50t-55.5 152q0 48 13 111l89 418h40l-91 -428q-12 -52 -12 -98q0 -169 187 -169q106 0 164 57.5t88 201.5zM537 824q0 -41 -24 -65t-64 -24t-64 24t-24 65q0 42 24 66t64 24t64 -24
t24 -66zM506 824q0 29 -14.5 45t-42.5 16t-42.5 -16t-14.5 -45t15 -44.5t42 -15.5t42 15.5t15 44.5z" />
    <glyph glyph-name="uring" unicode="&#x16f;" horiz-adv-x="538" 
d="M388 0l19 88q-92 -104 -205 -104q-66 0 -103 38t-37 106q0 31 7 60l69 325h38l-71 -334q-5 -23 -5 -48q0 -55 28 -83.5t81 -28.5q73 0 144 55q35 27 52 57t28 83l64 299h38l-109 -513h-38zM440 679q0 -41 -24 -65t-64 -24t-64 24t-24 65t24 65t64 24t64 -24t24 -65z
M409 679q0 29 -15 45t-42 16t-42 -16t-15 -45t15 -45t42 -16t42 16t15 45z" />
    <glyph glyph-name="Uhungarumlaut" unicode="&#x170;" horiz-adv-x="665" 
d="M660 714h40l-94 -441q-23 -107 -60 -170t-93.5 -91.5t-139.5 -28.5q-113 0 -168.5 50t-55.5 152q0 48 13 111l89 418h40l-91 -428q-12 -52 -12 -98q0 -169 187 -169q106 0 164 57.5t88 201.5zM402 774h-41l125 126h50zM551 774h-41l125 126h50z" />
    <glyph glyph-name="uhungarumlaut" unicode="&#x171;" horiz-adv-x="538" 
d="M388 0l19 88q-92 -104 -205 -104q-66 0 -103 38t-37 106q0 31 7 60l69 325h38l-71 -334q-5 -23 -5 -48q0 -55 28 -83.5t81 -28.5q73 0 144 55q35 27 52 57t28 83l64 299h38l-109 -513h-38zM299 588h-39l129 130h48zM444 588h-39l129 130h48z" />
    <glyph glyph-name="Uogonek" unicode="&#x172;" horiz-adv-x="665" 
d="M660 714h40l-94 -441q-23 -107 -60 -170t-93.5 -91.5t-139.5 -28.5q-113 0 -168.5 50t-55.5 152q0 48 13 111l89 418h40l-91 -428q-12 -52 -12 -98q0 -169 187 -169q106 0 164 57.5t88 201.5zM403 -170q-16 -2 -27 -2q-35 0 -55 17.5t-20 48.5q0 61 86 111l37 -5
q-44 -28 -64.5 -51.5t-20.5 -48.5q0 -39 46 -39q13 0 25 2z" />
    <glyph glyph-name="uogonek" unicode="&#x173;" horiz-adv-x="538" 
d="M388 0l19 88q-92 -104 -205 -104q-66 0 -103 38t-37 106q0 31 7 60l69 325h38l-71 -334q-5 -23 -5 -48q0 -55 28 -83.5t81 -28.5q73 0 144 55q35 27 52 57t28 83l64 299h38l-109 -513h-38zM406 -165q-14 -2 -26 -2q-34 0 -53.5 17t-19.5 46q0 58 84 108l35 -4
q-44 -27 -63 -49.5t-19 -47.5q0 -38 44 -38q11 0 25 2z" />
    <glyph glyph-name="Wcircumflex" unicode="&#x174;" horiz-adv-x="887" 
d="M584 0l-40 660l-318 -660h-46l-46 714h41l37 -662l320 659h45l40 -659l316 662h44l-347 -714h-46zM659 774l-67 95l-110 -95h-43l138 126h38l84 -126h-40z" />
    <glyph glyph-name="wcircumflex" unicode="&#x175;" horiz-adv-x="693" 
d="M446 0l-41 469l-240 -469h-44l-41 513h40l32 -470l240 467h44l41 -467l231 470h41l-259 -513h-44zM522 588l-68 100l-112 -100h-42l139 130h37l84 -130h-38z" />
    <glyph glyph-name="Ycircumflex" unicode="&#x176;" horiz-adv-x="570" 
d="M228 0l65 309l-161 405h44l142 -368l298 368h46l-329 -404l-66 -310h-39zM499 774l-67 95l-110 -95h-43l138 126h38l84 -126h-40z" />
    <glyph glyph-name="ycircumflex" unicode="&#x177;" horiz-adv-x="481" 
d="M192 9l-115 504h41l101 -462l279 462h44l-365 -594q-31 -51 -51 -74t-39 -31t-45 -8q-31 0 -66 13l12 31q31 -10 53 -10q29 0 49.5 17.5t53.5 72.5zM417 588l-68 100l-112 -100h-42l139 130h37l84 -130h-38z" />
    <glyph glyph-name="Ydieresis" unicode="&#x178;" horiz-adv-x="570" 
d="M228 0l65 309l-161 405h44l142 -368l298 368h46l-329 -404l-66 -310h-39zM310 793l19 89h42l-19 -89h-42zM472 793l19 89h42l-19 -89h-42z" />
    <glyph glyph-name="Zacute" unicode="&#x179;" horiz-adv-x="582" 
d="M1 0l7 34l579 643h-441l8 37h490l-7 -34l-579 -643h457l-17 -37h-497zM417 774h-44l139 126h53z" />
    <glyph glyph-name="zacute" unicode="&#x17a;" horiz-adv-x="444" 
d="M-11 0l6 30l419 450h-323l7 33h371l-6 -30l-419 -450h346l-12 -33h-389zM290 588h-44l136 130h54z" />
    <glyph glyph-name="Zdotaccent" unicode="&#x17b;" horiz-adv-x="582" 
d="M1 0l7 34l579 643h-441l8 37h490l-7 -34l-579 -643h457l-17 -37h-497zM408 793l19 92h42l-19 -92h-42z" />
    <glyph glyph-name="zdotaccent" unicode="&#x17c;" horiz-adv-x="444" 
d="M-11 0l6 30l419 450h-323l7 33h371l-6 -30l-419 -450h346l-12 -33h-389zM286 622l20 92h40l-20 -92h-40z" />
    <glyph glyph-name="Zcaron" unicode="&#x17d;" horiz-adv-x="582" 
d="M1 0l7 34l579 643h-441l8 37h490l-7 -34l-579 -643h457l-17 -37h-497zM444 774h-38l-84 126h40l67 -95l110 95h43z" />
    <glyph glyph-name="zcaron" unicode="&#x17e;" horiz-adv-x="444" 
d="M-11 0l6 30l419 450h-323l7 33h371l-6 -30l-419 -450h346l-12 -33h-389zM317 588h-37l-84 130h38l68 -100l112 100h42z" />
    <glyph glyph-name="longs" unicode="&#x17f;" horiz-adv-x="184" 
d="M32 0l124 582q15 72 52 106t100 34q40 0 70 -13l-12 -32q-24 11 -59 11q-48 0 -74.5 -25t-38.5 -80l-124 -583h-38z" />
    <glyph glyph-name="florin" unicode="&#x192;" horiz-adv-x="305" 
d="M162 479h-80l7 34h80l15 69q16 73 53 106.5t99 33.5q38 0 70 -13l-12 -32q-24 11 -59 11q-48 0 -74.5 -25t-38.5 -80l-15 -70h148l-6 -34h-149l-110 -518q-17 -81 -47.5 -114t-89.5 -33q-46 0 -86 20l14 31q32 -16 70 -16q43 0 66 27t37 93z" />
    <glyph glyph-name="uni0218" unicode="&#x218;" horiz-adv-x="621" 
d="M303 358q-164 35 -164 172q0 94 65.5 148t180.5 54q205 0 236 -177l-38 -8q-16 79 -63 114t-136 35q-99 0 -152 -42t-53 -121q0 -57 31 -89t101 -48l94 -21q81 -18 119.5 -60.5t38.5 -114.5q0 -102 -70.5 -159.5t-196.5 -57.5q-116 0 -178.5 49t-64.5 143h38
q10 -156 206 -156q109 0 166 46t57 134q0 58 -29 91t-93 47zM162 -205l99 134h48l-109 -134h-38z" />
    <glyph glyph-name="uni0219" unicode="&#x219;" horiz-adv-x="505" 
d="M445 395q-11 52 -47 76t-102 24q-76 0 -117.5 -29.5t-41.5 -83.5q0 -40 26 -62.5t83 -33.5l66 -13q126 -24 126 -133q0 -70 -55.5 -113t-147.5 -43q-93 0 -145.5 40.5t-52.5 112.5h36q3 -58 45 -88.5t119 -30.5t119.5 32.5t42.5 89.5q0 41 -23.5 65t-74.5 34l-61 12
q-74 15 -107 45.5t-33 83.5q0 69 53.5 109t145.5 40q155 0 181 -128zM98 -209l101 138h49l-111 -138h-39z" />
    <glyph glyph-name="uni021A" unicode="&#x21a;" horiz-adv-x="578" 
d="M229 0l144 677h-251l7 37h542l-7 -37h-251l-144 -677h-40zM111 -205l99 134h48l-109 -134h-38z" />
    <glyph glyph-name="uni021B" unicode="&#x21b;" horiz-adv-x="323" 
d="M275 6q-45 -17 -86 -17q-106 0 -106 100q0 23 6 51l72 339h-80l7 34h80l30 143h38l-30 -143h160l-6 -34h-161l-73 -345q-5 -23 -5 -40q0 -71 76 -71q34 0 70 15zM31 -209l101 138h49l-111 -138h-39z" />
    <glyph glyph-name="uni0237" unicode="&#x237;" horiz-adv-x="182" 
d="M141 513h38l-118 -552q-17 -81 -47.5 -114t-89.5 -33q-46 0 -86 20l14 31q32 -16 70 -16q43 0 66 27t37 93z" />
    <glyph glyph-name="uni02BC" unicode="&#x2bc;" horiz-adv-x="549" 
d="M310 530l71 189h45l-82 -189h-34z" />
    <glyph glyph-name="circumflex" unicode="&#x2c6;" horiz-adv-x="549" 
d="M448 588l-68 100l-112 -100h-42l139 130h37l84 -130h-38z" />
    <glyph glyph-name="caron" unicode="&#x2c7;" horiz-adv-x="549" 
d="M366 588h-37l-84 130h38l68 -100l112 100h42z" />
    <glyph glyph-name="uni02C9" unicode="&#x2c9;" horiz-adv-x="549" 
d="M244 630l7 34h238l-7 -34h-238z" />
    <glyph glyph-name="uni02CB" unicode="&#x2cb;" horiz-adv-x="549" 
d="M381 588l-97 131h47l88 -131h-38z" />
    <glyph glyph-name="breve" unicode="&#x2d8;" horiz-adv-x="549" 
d="M484 713q-22 -121 -131 -121q-50 0 -79 24.5t-29 67.5q0 14 3 29h33q-3 -13 -3 -25q0 -32 19.5 -49t55.5 -17q82 0 98 91h33z" />
    <glyph glyph-name="dotaccent" unicode="&#x2d9;" horiz-adv-x="549" 
d="M333 622l20 92h40l-20 -92h-40z" />
    <glyph glyph-name="ring" unicode="&#x2da;" horiz-adv-x="549" 
d="M447 679q0 -41 -24 -65t-64 -24t-64 24t-24 65t24 65t64 24t64 -24t24 -65zM416 679q0 29 -15 45t-42 16t-42 -16t-15 -45t15 -45t42 -16t42 16t15 45z" />
    <glyph glyph-name="ogonek" unicode="&#x2db;" horiz-adv-x="549" 
d="M314 -165q-14 -2 -26 -2q-34 0 -53.5 17t-19.5 46q0 58 84 108l35 -4q-44 -27 -63 -49.5t-19 -47.5q0 -38 44 -38q11 0 25 2z" />
    <glyph glyph-name="tilde" unicode="&#x2dc;" horiz-adv-x="549" 
d="M535 698q-17 -94 -93 -94q-21 0 -37.5 7t-39.5 25q-39 31 -65 31q-25 0 -40.5 -16t-19.5 -45h-33q17 94 93 94q21 0 37.5 -7t39.5 -25q39 -31 65 -31q25 0 40.5 16t19.5 45h33z" />
    <glyph glyph-name="hungarumlaut" unicode="&#x2dd;" horiz-adv-x="549" 
d="M255 588h-39l129 130h48zM400 588h-39l129 130h48z" />
    <glyph glyph-name="gravecomb" unicode="&#x300;" horiz-adv-x="0" 
d="M11 588l-97 131h47l88 -131h-38z" />
    <glyph glyph-name="acutecomb" unicode="&#x301;" horiz-adv-x="0" 
d="M-8 588h-44l136 130h54z" />
    <glyph glyph-name="uni0302" unicode="&#x302;" horiz-adv-x="0" 
d="M92 588l-68 100l-112 -100h-42l139 130h37l84 -130h-38z" />
    <glyph glyph-name="tildecomb" unicode="&#x303;" horiz-adv-x="0" 
d="M165 698q-17 -94 -93 -94q-21 0 -37.5 7t-39.5 25q-39 31 -65 31q-25 0 -40.5 -16t-19.5 -45h-33q17 94 93 94q21 0 37.5 -7t39.5 -25q39 -31 65 -31q25 0 40.5 16t19.5 45h33z" />
    <glyph glyph-name="uni0304" unicode="&#x304;" horiz-adv-x="0" 
d="M-122 630l7 34h238l-7 -34h-238z" />
    <glyph glyph-name="uni0306" unicode="&#x306;" horiz-adv-x="0" 
d="M131 713q-22 -121 -131 -121q-50 0 -79 24.5t-29 67.5q0 14 3 29h33q-3 -13 -3 -25q0 -32 19.5 -49t55.5 -17q82 0 98 91h33z" />
    <glyph glyph-name="uni0307" unicode="&#x307;" horiz-adv-x="0" 
d="M-20 622l20 92h40l-20 -92h-40z" />
    <glyph glyph-name="uni0308" unicode="&#x308;" horiz-adv-x="0" 
d="M-96 622l20 92h40l-20 -92h-40zM56 622l20 92h40l-20 -92h-40z" />
    <glyph glyph-name="uni030A" unicode="&#x30a;" horiz-adv-x="0" 
d="M88 679q0 -41 -24 -65t-64 -24t-64 24t-24 65t24 65t64 24t64 -24t24 -65zM57 679q0 29 -15 45t-42 16t-42 -16t-15 -45t15 -45t42 -16t42 16t15 45z" />
    <glyph glyph-name="uni030B" unicode="&#x30b;" horiz-adv-x="0" 
d="M-52 588h-39l129 130h48zM93 588h-39l129 130h48z" />
    <glyph glyph-name="uni030C" unicode="&#x30c;" horiz-adv-x="0" 
d="M18 588h-37l-84 130h38l68 -100l112 100h42z" />
    <glyph glyph-name="uni0312" unicode="&#x312;" horiz-adv-x="0" 
d="M-24 584l106 135h37l-96 -135h-47z" />
    <glyph glyph-name="uni0315" unicode="&#x315;" horiz-adv-x="0" 
d="M-16 547l60 167h39l-68 -167h-31z" />
    <glyph glyph-name="uni0326" unicode="&#x326;" horiz-adv-x="0" 
d="M-125 -209l101 138h49l-111 -138h-39z" />
    <glyph glyph-name="uni0327" unicode="&#x327;" horiz-adv-x="0" 
d="M-107 -155q31 -6 55 -6q42 0 60.5 10t18.5 32q0 40 -78 40h-13l46 82l29 -3l-30 -54q40 -3 61.5 -19.5t21.5 -44.5q0 -38 -28.5 -55.5t-87.5 -17.5q-29 0 -62 7z" />
    <glyph glyph-name="uni0328" unicode="&#x328;" horiz-adv-x="0" 
d="M-2 -165q-14 -2 -26 -2q-34 0 -53.5 17t-19.5 46q0 58 84 108l35 -4q-44 -27 -63 -49.5t-19 -47.5q0 -38 44 -38q11 0 25 2z" />
    <glyph glyph-name="uni0394" unicode="&#x394;" horiz-adv-x="637" 
d="M-20 0l428 714h44l126 -714h-598zM422 670l-375 -633h483z" />
    <glyph glyph-name="uni03A9" unicode="&#x3a9;" horiz-adv-x="731" 
d="M411 0l8 33q120 66 187.5 179t67.5 248q0 116 -54.5 176t-159.5 60q-91 0 -165 -48t-117 -137t-43 -205q0 -181 123 -271l-8 -35h-239l7 36h186q-53 46 -82 116.5t-29 154.5q0 116 46 212.5t130.5 154.5t190.5 58q122 0 189 -72t67 -203q0 -127 -62.5 -238.5
t-172.5 -182.5h185l-15 -36h-240z" />
    <glyph glyph-name="uni03BC" unicode="&#x3bc;" horiz-adv-x="541" 
d="M391 0l19 88q-44 -51 -96.5 -77.5t-108.5 -26.5q-48 0 -79 21t-43 61l-55 -260h-38l150 707h38l-70 -334q-5 -23 -5 -48q0 -55 28 -83.5t81 -28.5q73 0 144 55q35 27 52 57t28 83l63 299h38l-108 -513h-38z" />
    <glyph glyph-name="pi" unicode="&#x3c0;" horiz-adv-x="561" 
d="M499 -3q-21 -8 -50 -8q-37 0 -56 20t-19 58q0 13 6 46l77 366h-238l-102 -479h-38l102 479h-104l7 34h519l-7 -34h-101l-76 -355q-7 -32 -7 -52q0 -49 45 -49q14 0 36 5z" />
    <glyph glyph-name="Wgrave" unicode="&#x1e80;" horiz-adv-x="887" 
d="M584 0l-40 660l-318 -660h-46l-46 714h41l37 -662l320 659h45l40 -659l316 662h44l-347 -714h-46zM579 774l-94 126h48l85 -126h-39z" />
    <glyph glyph-name="wgrave" unicode="&#x1e81;" horiz-adv-x="693" 
d="M446 0l-41 469l-240 -469h-44l-41 513h40l32 -470l240 467h44l41 -467l231 470h41l-259 -513h-44zM441 588l-97 131h47l88 -131h-38z" />
    <glyph glyph-name="Wacute" unicode="&#x1e82;" horiz-adv-x="887" 
d="M584 0l-40 660l-318 -660h-46l-46 714h41l37 -662l320 659h45l40 -659l316 662h44l-347 -714h-46zM560 774h-44l139 126h53z" />
    <glyph glyph-name="wacute" unicode="&#x1e83;" horiz-adv-x="693" 
d="M446 0l-41 469l-240 -469h-44l-41 513h40l32 -470l240 467h44l41 -467l231 470h41l-259 -513h-44zM421 588h-44l136 130h54z" />
    <glyph glyph-name="Wdieresis" unicode="&#x1e84;" horiz-adv-x="887" 
d="M584 0l-40 660l-318 -660h-46l-46 714h41l37 -662l320 659h45l40 -659l316 662h44l-347 -714h-46zM470 793l19 89h42l-19 -89h-42zM632 793l19 89h42l-19 -89h-42z" />
    <glyph glyph-name="wdieresis" unicode="&#x1e85;" horiz-adv-x="693" 
d="M446 0l-41 469l-240 -469h-44l-41 513h40l32 -470l240 467h44l41 -467l231 470h41l-259 -513h-44zM341 622l20 92h40l-20 -92h-40zM493 622l20 92h40l-20 -92h-40z" />
    <glyph glyph-name="uni1E9E" unicode="&#x1e9e;" horiz-adv-x="748" 
d="M503 321q-77 20 -108.5 48t-31.5 75q0 41 23 75t74.5 72.5t134.5 85.5h-177q-200 0 -244 -207l-100 -470h-40l100 470q27 126 96.5 185t191.5 59h245l-8 -37l-20 -12q-98 -59 -137 -87t-60 -50t-30 -42.5t-9 -41.5q0 -34 25.5 -53.5t92.5 -35.5l25 -6q82 -20 121 -59
t39 -102q0 -91 -67 -148t-177 -57q-103 0 -160 50t-57 142h38q0 -76 47.5 -116t137.5 -40q89 0 142 47t53 123q0 35 -14 58t-44.5 39.5t-78.5 28.5z" />
    <glyph glyph-name="Ygrave" unicode="&#x1ef2;" horiz-adv-x="570" 
d="M228 0l65 309l-161 405h44l142 -368l298 368h46l-329 -404l-66 -310h-39zM419 774l-94 126h48l85 -126h-39z" />
    <glyph glyph-name="ygrave" unicode="&#x1ef3;" horiz-adv-x="481" 
d="M192 9l-115 504h41l101 -462l279 462h44l-365 -594q-31 -51 -51 -74t-39 -31t-45 -8q-31 0 -66 13l12 31q31 -10 53 -10q29 0 49.5 17.5t53.5 72.5zM336 588l-97 131h47l88 -131h-38z" />
    <glyph glyph-name="uni2000" unicode="&#x2000;" horiz-adv-x="500" 
 />
    <glyph glyph-name="uni2001" unicode="&#x2001;" horiz-adv-x="1000" 
 />
    <glyph glyph-name="uni2002" unicode="&#x2002;" horiz-adv-x="500" 
 />
    <glyph glyph-name="uni2003" unicode="&#x2003;" horiz-adv-x="1000" 
 />
    <glyph glyph-name="uni2004" unicode="&#x2004;" horiz-adv-x="333" 
 />
    <glyph glyph-name="uni2005" unicode="&#x2005;" horiz-adv-x="250" 
 />
    <glyph glyph-name="uni2006" unicode="&#x2006;" horiz-adv-x="166" 
 />
    <glyph glyph-name="uni2007" unicode="&#x2007;" horiz-adv-x="592" 
 />
    <glyph glyph-name="uni2008" unicode="&#x2008;" horiz-adv-x="179" 
 />
    <glyph glyph-name="uni2009" unicode="&#x2009;" horiz-adv-x="200" 
 />
    <glyph glyph-name="uni200A" unicode="&#x200a;" horiz-adv-x="50" 
 />
    <glyph glyph-name="uni200B" unicode="&#x200b;" horiz-adv-x="0" 
 />
    <glyph glyph-name="uni2010" unicode="&#x2010;" horiz-adv-x="389" 
d="M67 269l9 38h289l-9 -38h-289z" />
    <glyph glyph-name="uni2012" unicode="&#x2012;" horiz-adv-x="592" 
d="M76 324l8 38h500l-9 -38h-499z" />
    <glyph glyph-name="endash" unicode="&#x2013;" horiz-adv-x="500" 
d="M18 269l8 38h500l-9 -38h-499z" />
    <glyph glyph-name="emdash" unicode="&#x2014;" horiz-adv-x="1000" 
d="M17 269l8 38h1000l-9 -38h-999z" />
    <glyph glyph-name="uni2015" unicode="&#x2015;" horiz-adv-x="1000" 
d="M17 269l8 38h1000l-9 -38h-999z" />
    <glyph glyph-name="quoteleft" unicode="&#x2018;" horiz-adv-x="172" 
d="M120 525l82 189h34l-71 -189h-45z" />
    <glyph glyph-name="quoteright" unicode="&#x2019;" horiz-adv-x="172" 
d="M118 525l71 189h45l-82 -189h-34z" />
    <glyph glyph-name="quotesinglbase" unicode="&#x201a;" horiz-adv-x="179" 
d="M-9 -87l71 189h45l-82 -189h-34z" />
    <glyph glyph-name="quotedblleft" unicode="&#x201c;" horiz-adv-x="296" 
d="M120 525l82 189h34l-71 -189h-45zM244 525l82 189h34l-71 -189h-45z" />
    <glyph glyph-name="quotedblright" unicode="&#x201d;" horiz-adv-x="296" 
d="M119 530l71 189h45l-82 -189h-34zM243 530l71 189h45l-82 -189h-34z" />
    <glyph glyph-name="quotedblbase" unicode="&#x201e;" horiz-adv-x="298" 
d="M-10 -87l71 189h45l-82 -189h-34zM113 -87l71 189h45l-82 -189h-34z" />
    <glyph glyph-name="dagger" unicode="&#x2020;" horiz-adv-x="453" 
d="M149 -87l120 559h-185l7 34h185l44 208h38l-44 -208h184l-7 -34h-184l-120 -559h-38z" />
    <glyph glyph-name="daggerdbl" unicode="&#x2021;" horiz-adv-x="453" 
d="M149 -87l44 208h-184l7 34h184l69 317h-185l7 34h185l44 208h38l-44 -208h184l-7 -34h-184l-69 -317h184l-7 -34h-184l-44 -208h-38z" />
    <glyph glyph-name="bullet" unicode="&#x2022;" horiz-adv-x="311" 
d="M302 365q0 -48 -31.5 -80t-80.5 -32t-81 31.5t-32 80.5q0 48 32 79.5t81 31.5q48 0 80 -31.5t32 -79.5z" />
    <glyph glyph-name="ellipsis" unicode="&#x2026;" horiz-adv-x="723" 
d="M28 0l22 102h42l-22 -102h-42zM300 0l22 102h42l-22 -102h-42zM572 0l22 102h42l-22 -102h-42z" />
    <glyph glyph-name="perthousand" unicode="&#x2030;" horiz-adv-x="1265" 
d="M197 0l498 691h44l-498 -691h-44zM642 -23q-66 0 -104 43t-38 117q0 71 26 131.5t73 97.5t104 37q66 0 104 -42.5t38 -117.5q0 -71 -26 -131.5t-73 -97.5t-104 -37zM643 9q44 0 81.5 29.5t60 83.5t22.5 121q0 61 -27.5 94.5t-77.5 33.5q-44 0 -81.5 -29.5t-60 -83.5
t-22.5 -121q0 -61 27.5 -94.5t77.5 -33.5zM1037 -23q-66 0 -104 43t-38 117q0 71 26 131.5t73 97.5t104 37q66 0 104 -42.5t38 -117.5q0 -71 -26 -131.5t-73 -97.5t-104 -37zM1038 9q44 0 81.5 29.5t60 83.5t22.5 121q0 61 -27.5 94.5t-77.5 33.5q-44 0 -81.5 -29.5
t-60 -83.5t-22.5 -121q0 -61 27.5 -94.5t77.5 -33.5zM231 281q-66 0 -104 43t-38 117q0 71 26 131.5t73 97.5t104 37q66 0 104 -42.5t38 -117.5q0 -71 -26 -131.5t-73 -97.5t-104 -37zM232 313q44 0 81.5 29.5t60 83.5t22.5 121q0 61 -27.5 94.5t-77.5 33.5
q-44 0 -81.5 -29.5t-60 -83.5t-22.5 -121q0 -61 27.5 -94.5t77.5 -33.5z" />
    <glyph glyph-name="minute" unicode="&#x2032;" horiz-adv-x="218" 
d="M120 472l96 242h44l-107 -242h-33z" />
    <glyph glyph-name="second" unicode="&#x2033;" horiz-adv-x="375" 
d="M120 472l96 242h44l-107 -242h-33zM277 472l96 242h44l-107 -242h-33z" />
    <glyph glyph-name="guilsinglleft" unicode="&#x2039;" horiz-adv-x="269" 
d="M153 34l-95 222l190 222h41l-189 -224l91 -220h-38z" />
    <glyph glyph-name="guilsinglright" unicode="&#x203a;" horiz-adv-x="269" 
d="M8 34l189 224l-91 220h38l95 -222l-190 -222h-41z" />
    <glyph glyph-name="fraction" unicode="&#x2044;" horiz-adv-x="59" 
d="M-208 0l498 691h44l-498 -691h-44z" />
    <glyph glyph-name="uni2070" unicode="&#x2070;" 
d="M236 281q-66 0 -104 43t-38 117q0 71 26 131.5t73 97.5t104 37q66 0 104 -42.5t38 -117.5q0 -71 -26 -131.5t-73 -97.5t-104 -37zM237 313q44 0 81.5 29.5t60 83.5t22.5 121q0 61 -27.5 94.5t-77.5 33.5q-44 0 -81.5 -29.5t-60 -83.5t-22.5 -121q0 -61 27.5 -94.5
t77.5 -33.5z" />
    <glyph glyph-name="uni2074" unicode="&#x2074;" 
d="M284 294l23 108h-208l5 25l263 267h36l-56 -262h50l-13 -30h-43l-23 -108h-34zM358 644l-210 -212h165z" />
    <glyph glyph-name="uni2075" unicode="&#x2075;" 
d="M149 389q3 -37 27.5 -57.5t66.5 -20.5q53 0 84 33t31 88q0 86 -82 86q-50 0 -101 -40h-30l58 216h216l-7 -32h-187l-39 -145q41 31 94 31t83 -30t30 -85q0 -68 -41.5 -110t-110.5 -42q-58 0 -90 28t-34 80h32z" />
    <glyph glyph-name="uni2076" unicode="&#x2076;" 
d="M398 610q-8 35 -26.5 50.5t-51.5 15.5q-59 0 -99 -47t-59 -139q19 28 50 43.5t68 15.5q54 0 84.5 -31.5t30.5 -87.5q0 -67 -41 -108t-108 -41q-61 0 -93 36t-32 104q0 75 25.5 140t71.5 105t103 40q46 0 74 -23.5t33 -66.5zM248 312q50 0 80.5 32t30.5 86q0 43 -21.5 66
t-62.5 23q-52 0 -86 -33t-34 -83q0 -42 25 -66.5t68 -24.5z" />
    <glyph glyph-name="uni2077" unicode="&#x2077;" 
d="M162 294q56 111 108 195t120 171h-236l7 33h278l-6 -28q-142 -181 -232 -371h-39z" />
    <glyph glyph-name="uni2078" unicode="&#x2078;" 
d="M200 500q-51 29 -51 86q0 55 40 88t107 33q58 0 91 -27t33 -75q0 -40 -23.5 -69.5t-64.5 -41.5q63 -26 63 -91q0 -57 -42.5 -89.5t-117.5 -32.5q-67 0 -102 26.5t-35 77.5q0 43 27 73.5t75 41.5zM359 405q0 76 -102 76q-59 0 -91 -24.5t-32 -68.5q0 -77 101 -77
q58 0 91 25t33 69zM385 603q0 74 -91 74q-51 0 -80.5 -24.5t-29.5 -67.5q0 -74 88 -74q53 0 83 24.5t30 67.5z" />
    <glyph glyph-name="uni2079" unicode="&#x2079;" 
d="M137 380q11 -68 88 -68q64 0 99 46.5t44 143.5q-38 -64 -119 -64q-55 0 -86 32t-31 88q0 66 41.5 107t107.5 41q62 0 94 -37t32 -107q0 -133 -48 -207t-134 -74q-52 0 -84.5 26.5t-35.5 72.5h32zM372 581q0 44 -25.5 69.5t-68.5 25.5q-50 0 -80.5 -32.5t-30.5 -85.5
q0 -44 22 -67t64 -23q53 0 86 31.5t33 81.5z" />
    <glyph glyph-name="uni2080" unicode="&#x2080;" 
d="M173 -13q-66 0 -104 43t-38 117q0 71 26 131.5t73 97.5t104 37q66 0 104 -42.5t38 -117.5q0 -71 -26 -131.5t-73 -97.5t-104 -37zM174 19q44 0 81.5 29.5t60 83.5t22.5 121q0 61 -27.5 94.5t-77.5 33.5q-44 0 -81.5 -29.5t-60 -83.5t-22.5 -121q0 -61 27.5 -94.5
t77.5 -33.5z" />
    <glyph glyph-name="uni2081" unicode="&#x2081;" 
d="M162 0l76 358l-111 -51l-13 30l131 63h37l-85 -400h-35z" />
    <glyph glyph-name="uni2082" unicode="&#x2082;" 
d="M30 0l7 32l143 103q61 43 88 68.5t37 46.5t10 49q0 39 -22 60t-62 21q-81 0 -111 -81l-32 7q13 49 52 77.5t93 28.5q56 0 87.5 -29t31.5 -81q0 -35 -14.5 -62.5t-48 -58t-96.5 -76.5l-100 -72h211l-14 -33h-260z" />
    <glyph glyph-name="uni2083" unicode="&#x2083;" 
d="M154 194l6 29h50q50 0 77.5 23t27.5 64q0 35 -22.5 54t-64.5 19q-43 0 -70 -19t-42 -60l-32 6q14 49 52.5 76t94.5 27q55 0 87 -27t32 -74q0 -37 -21.5 -65t-59.5 -39q53 -22 53 -89q0 -59 -39.5 -95.5t-104.5 -36.5q-62 0 -98.5 31.5t-36.5 86.5h32q3 -42 30 -65t73 -23
q50 0 79 27t29 75q0 36 -17.5 55.5t-51.5 19.5h-63z" />
    <glyph glyph-name="uni2084" unicode="&#x2084;" 
d="M221 0l23 108h-208l5 25l263 267h36l-56 -262h50l-13 -30h-43l-23 -108h-34zM295 350l-210 -212h165z" />
    <glyph glyph-name="uni2085" unicode="&#x2085;" 
d="M86 95q3 -37 27.5 -57.5t66.5 -20.5q53 0 84 33t31 88q0 86 -82 86q-50 0 -101 -40h-30l58 216h216l-7 -32h-187l-39 -145q41 31 94 31t83 -30t30 -85q0 -68 -41.5 -110t-110.5 -42q-58 0 -90 28t-34 80h32z" />
    <glyph glyph-name="uni2086" unicode="&#x2086;" 
d="M335 316q-8 35 -26.5 50.5t-51.5 15.5q-59 0 -99 -47t-59 -139q19 28 50 43.5t68 15.5q54 0 84.5 -31.5t30.5 -87.5q0 -67 -41 -108t-108 -41q-61 0 -93 36t-32 104q0 75 25.5 140t71.5 105t103 40q46 0 74 -23.5t33 -66.5zM185 18q50 0 80.5 32t30.5 86q0 43 -21.5 66
t-62.5 23q-52 0 -86 -33t-34 -83q0 -42 25 -66.5t68 -24.5z" />
    <glyph glyph-name="uni2087" unicode="&#x2087;" 
d="M99 0q56 111 108 195t120 171h-236l7 33h278l-6 -28q-142 -181 -232 -371h-39z" />
    <glyph glyph-name="uni2088" unicode="&#x2088;" 
d="M137 206q-51 29 -51 86q0 55 40 88t107 33q58 0 91 -27t33 -75q0 -40 -23.5 -69.5t-64.5 -41.5q63 -26 63 -91q0 -57 -42.5 -89.5t-117.5 -32.5q-67 0 -102 26.5t-35 77.5q0 43 27 73.5t75 41.5zM296 111q0 76 -102 76q-59 0 -91 -24.5t-32 -68.5q0 -77 101 -77
q58 0 91 25t33 69zM322 309q0 74 -91 74q-51 0 -80.5 -24.5t-29.5 -67.5q0 -74 88 -74q53 0 83 24.5t30 67.5z" />
    <glyph glyph-name="uni2089" unicode="&#x2089;" 
d="M74 86q11 -68 88 -68q64 0 99 46.5t44 143.5q-38 -64 -119 -64q-55 0 -86 32t-31 88q0 66 41.5 107t107.5 41q62 0 94 -37t32 -107q0 -133 -48 -207t-134 -74q-52 0 -84.5 26.5t-35.5 72.5h32zM309 287q0 44 -25.5 69.5t-68.5 25.5q-50 0 -80.5 -32.5t-30.5 -85.5
q0 -44 22 -67t64 -23q53 0 86 31.5t33 81.5z" />
    <glyph glyph-name="Euro" unicode="&#x20ac;" horiz-adv-x="592" 
d="M566 194q-24 -108 -81 -160t-151 -52q-108 0 -166 68.5t-59 198.5h-76l12 34h64q6 74 19 128h-65l11 34h63q40 129 114 197t175 68q84 0 133.5 -46.5t60.5 -135.5l-37 -7q-10 79 -48.5 116.5t-106.5 37.5q-87 0 -151 -59t-99 -171h283l-11 -34h-281q-13 -51 -19 -128h252
l-12 -34h-240q2 -232 186 -232q79 0 124.5 42t68.5 135h37z" />
    <glyph glyph-name="uni20B9" unicode="&#x20b9;" horiz-adv-x="592" 
d="M421 0l-303 296l7 33h110q63 0 110.5 17t76 49.5t35.5 80.5h-300l9 34h294v5q0 74 -42.5 108t-134.5 34h-88l9 34h413l-9 -34h-185q75 -44 75 -143v-4h70l-9 -34h-63q-12 -84 -81 -132t-176 -48h-69l303 -296h-52z" />
    <glyph glyph-name="uni20BA" unicode="&#x20ba;" horiz-adv-x="592" 
d="M530 277q-30 -145 -112.5 -211t-233.5 -66h-78l57 270l-81 -34l-12 28l101 42l26 121l-82 -34l-12 28l101 42l49 228h38l-45 -210l208 87l12 -28l-228 -95l-25 -121l208 87l12 -28l-228 -96l-53 -251h44q126 0 198 58.5t99 182.5h37z" />
    <glyph glyph-name="afii61289" unicode="&#x2113;" horiz-adv-x="317" 
d="M307 34q-37 -50 -92 -50q-46 0 -71 28t-25 81v145l-52 -58l-20 20l72 82v311q0 62 25 96.5t70 34.5q82 0 82 -124q0 -83 -36.5 -167.5t-105.5 -163.5v-172q0 -40 16.5 -60.5t48.5 -20.5q38 0 70 38zM154 317q52 61 80.5 135t28.5 145q0 95 -52 95q-28 0 -42.5 -24.5
t-14.5 -70.5v-280z" />
    <glyph glyph-name="trademark" unicode="&#x2122;" horiz-adv-x="884" 
d="M185 314l78 368h-141l7 32h317l-7 -32h-141l-78 -368h-35zM799 314l74 349l-230 -349h-29l-81 349l-74 -349h-32l85 400h41l83 -360l236 360h44l-85 -400h-32z" />
    <glyph glyph-name="uni2126" unicode="&#x2126;" horiz-adv-x="731" 
d="M411 0l8 33q120 66 187.5 179t67.5 248q0 116 -54.5 176t-159.5 60q-91 0 -165 -48t-117 -137t-43 -205q0 -181 123 -271l-8 -35h-239l7 36h186q-53 46 -82 116.5t-29 154.5q0 116 46 212.5t130.5 154.5t190.5 58q122 0 189 -72t67 -203q0 -127 -62.5 -238.5
t-172.5 -182.5h185l-15 -36h-240z" />
    <glyph glyph-name="estimated" unicode="&#x212e;" horiz-adv-x="911" 
d="M809 129q-54 -66 -139 -103t-182 -37q-107 0 -198.5 46.5t-148.5 130t-57 186.5q0 95 51.5 178t145 135t207.5 52q106 0 198.5 -46.5t150.5 -131t58 -187.5v-10h-657q-5 0 -5 -4v-199q0 -13 9 -22q49 -53 112.5 -80.5t135.5 -27.5q75 0 142 31t119 89h58zM745 568
q0 14 -9 24q-50 50 -113.5 76.5t-132.5 26.5q-68 0 -131.5 -27.5t-115.5 -79.5q-10 -7 -10 -24v-195q0 -7 5 -7h503q4 0 4 7v199z" />
    <glyph glyph-name="oneseventh" unicode="&#x2150;" horiz-adv-x="887" 
d="M137 0l498 691h44l-498 -691h-44zM581 0q56 111 108 195t120 171h-236l7 33h278l-6 -28q-142 -181 -232 -371h-39zM182 292l76 358l-111 -51l-13 30l131 63h37l-85 -400h-35z" />
    <glyph glyph-name="oneninth" unicode="&#x2151;" horiz-adv-x="887" 
d="M148 0l498 691h44l-498 -691h-44zM568 86q11 -68 88 -68q64 0 99 46.5t44 143.5q-38 -64 -119 -64q-55 0 -86 32t-31 88q0 66 41.5 107t107.5 41q62 0 94 -37t32 -107q0 -133 -48 -207t-134 -74q-52 0 -84.5 26.5t-35.5 72.5h32zM803 287q0 44 -25.5 69.5t-68.5 25.5
q-50 0 -80.5 -32.5t-30.5 -85.5q0 -44 22 -67t64 -23q53 0 86 31.5t33 81.5zM182 292l76 358l-111 -51l-13 30l131 63h37l-85 -400h-35z" />
    <glyph glyph-name="onethird" unicode="&#x2153;" horiz-adv-x="887" 
d="M147 0l498 691h44l-498 -691h-44zM641 194l6 29h50q50 0 77.5 23t27.5 64q0 35 -22.5 54t-64.5 19q-43 0 -70 -19t-42 -60l-32 6q14 49 52.5 76t94.5 27q55 0 87 -27t32 -74q0 -37 -21.5 -65t-59.5 -39q53 -22 53 -89q0 -59 -39.5 -95.5t-104.5 -36.5q-62 0 -98.5 31.5
t-36.5 86.5h32q3 -42 30 -65t73 -23q50 0 79 27t29 75q0 36 -17.5 55.5t-51.5 19.5h-63zM182 292l76 358l-111 -51l-13 30l131 63h37l-85 -400h-35z" />
    <glyph glyph-name="twothirds" unicode="&#x2154;" horiz-adv-x="887" 
d="M213 0l498 691h44l-498 -691h-44zM641 194l6 29h50q50 0 77.5 23t27.5 64q0 35 -22.5 54t-64.5 19q-43 0 -70 -19t-42 -60l-32 6q14 49 52.5 76t94.5 27q55 0 87 -27t32 -74q0 -37 -21.5 -65t-59.5 -39q53 -22 53 -89q0 -59 -39.5 -95.5t-104.5 -36.5q-62 0 -98.5 31.5
t-36.5 86.5h32q3 -42 30 -65t73 -23q50 0 79 27t29 75q0 36 -17.5 55.5t-51.5 19.5h-63zM91 293l7 32l143 103q61 43 88 68.5t37 46.5t10 49q0 39 -22 60t-62 21q-81 0 -111 -81l-32 7q13 49 52 77.5t93 28.5q56 0 87.5 -29t31.5 -81q0 -35 -14.5 -62.5t-48 -58t-96.5 -76.5
l-100 -72h211l-14 -33h-260z" />
    <glyph glyph-name="onefifth" unicode="&#x2155;" horiz-adv-x="887" 
d="M152 0l498 691h44l-498 -691h-44zM569 95q3 -37 27.5 -57.5t66.5 -20.5q53 0 84 33t31 88q0 86 -82 86q-50 0 -101 -40h-30l58 216h216l-7 -32h-187l-39 -145q41 31 94 31t83 -30t30 -85q0 -68 -41.5 -110t-110.5 -42q-58 0 -90 28t-34 80h32zM182 292l76 358l-111 -51
l-13 30l131 63h37l-85 -400h-35z" />
    <glyph glyph-name="twofifths" unicode="&#x2156;" horiz-adv-x="887" 
d="M210 0l498 691h44l-498 -691h-44zM569 95q3 -37 27.5 -57.5t66.5 -20.5q53 0 84 33t31 88q0 86 -82 86q-50 0 -101 -40h-30l58 216h216l-7 -32h-187l-39 -145q41 31 94 31t83 -30t30 -85q0 -68 -41.5 -110t-110.5 -42q-58 0 -90 28t-34 80h32zM91 293l7 32l143 103
q61 43 88 68.5t37 46.5t10 49q0 39 -22 60t-62 21q-81 0 -111 -81l-32 7q13 49 52 77.5t93 28.5q56 0 87.5 -29t31.5 -81q0 -35 -14.5 -62.5t-48 -58t-96.5 -76.5l-100 -72h211l-14 -33h-260z" />
    <glyph glyph-name="threefifths" unicode="&#x2157;" horiz-adv-x="887" 
d="M202 0l498 691h44l-498 -691h-44zM569 95q3 -37 27.5 -57.5t66.5 -20.5q53 0 84 33t31 88q0 86 -82 86q-50 0 -101 -40h-30l58 216h216l-7 -32h-187l-39 -145q41 31 94 31t83 -30t30 -85q0 -68 -41.5 -110t-110.5 -42q-58 0 -90 28t-34 80h32zM210 486l6 29h50
q50 0 77.5 23t27.5 64q0 35 -22.5 54t-64.5 19q-43 0 -70 -19t-42 -60l-32 6q14 49 52.5 76t94.5 27q55 0 87 -27t32 -74q0 -37 -21.5 -65t-59.5 -39q53 -22 53 -89q0 -59 -39.5 -95.5t-104.5 -36.5q-62 0 -98.5 31.5t-36.5 86.5h32q3 -42 30 -65t73 -23q50 0 79 27t29 75
q0 36 -17.5 55.5t-51.5 19.5h-63z" />
    <glyph glyph-name="fourfifths" unicode="&#x2158;" horiz-adv-x="887" 
d="M203 0l498 691h44l-498 -691h-44zM569 95q3 -37 27.5 -57.5t66.5 -20.5q53 0 84 33t31 88q0 86 -82 86q-50 0 -101 -40h-30l58 216h216l-7 -32h-187l-39 -145q41 31 94 31t83 -30t30 -85q0 -68 -41.5 -110t-110.5 -42q-58 0 -90 28t-34 80h32zM286 292l23 108h-208l5 25
l263 267h36l-56 -262h50l-13 -30h-43l-23 -108h-34zM360 642l-210 -212h165z" />
    <glyph glyph-name="onesixth" unicode="&#x2159;" horiz-adv-x="887" 
d="M156 0l498 691h44l-498 -691h-44zM817 316q-8 35 -26.5 50.5t-51.5 15.5q-59 0 -99 -47t-59 -139q19 28 50 43.5t68 15.5q54 0 84.5 -31.5t30.5 -87.5q0 -67 -41 -108t-108 -41q-61 0 -93 36t-32 104q0 75 25.5 140t71.5 105t103 40q46 0 74 -23.5t33 -66.5zM667 18
q50 0 80.5 32t30.5 86q0 43 -21.5 66t-62.5 23q-52 0 -86 -33t-34 -83q0 -42 25 -66.5t68 -24.5zM182 292l76 358l-111 -51l-13 30l131 63h37l-85 -400h-35z" />
    <glyph glyph-name="fivesixths" unicode="&#x215a;" horiz-adv-x="887" 
d="M212 0l498 691h44l-498 -691h-44zM817 316q-8 35 -26.5 50.5t-51.5 15.5q-59 0 -99 -47t-59 -139q19 28 50 43.5t68 15.5q54 0 84.5 -31.5t30.5 -87.5q0 -67 -41 -108t-108 -41q-61 0 -93 36t-32 104q0 75 25.5 140t71.5 105t103 40q46 0 74 -23.5t33 -66.5zM667 18
q50 0 80.5 32t30.5 86q0 43 -21.5 66t-62.5 23q-52 0 -86 -33t-34 -83q0 -42 25 -66.5t68 -24.5zM145 387q3 -37 27.5 -57.5t66.5 -20.5q53 0 84 33t31 88q0 86 -82 86q-50 0 -101 -40h-30l58 216h216l-7 -32h-187l-39 -145q41 31 94 31t83 -30t30 -85q0 -68 -41.5 -110
t-110.5 -42q-58 0 -90 28t-34 80h32z" />
    <glyph glyph-name="oneeighth" unicode="&#x215b;" horiz-adv-x="887" 
d="M145 0l498 691h44l-498 -691h-44zM620 206q-51 29 -51 86q0 55 40 88t107 33q58 0 91 -27t33 -75q0 -40 -23.5 -69.5t-64.5 -41.5q63 -26 63 -91q0 -57 -42.5 -89.5t-117.5 -32.5q-67 0 -102 26.5t-35 77.5q0 43 27 73.5t75 41.5zM779 111q0 76 -102 76q-59 0 -91 -24.5
t-32 -68.5q0 -77 101 -77q58 0 91 25t33 69zM805 309q0 74 -91 74q-51 0 -80.5 -24.5t-29.5 -67.5q0 -74 88 -74q53 0 83 24.5t30 67.5zM182 292l76 358l-111 -51l-13 30l131 63h37l-85 -400h-35z" />
    <glyph glyph-name="threeeighths" unicode="&#x215c;" horiz-adv-x="887" 
d="M199 0l498 691h44l-498 -691h-44zM620 206q-51 29 -51 86q0 55 40 88t107 33q58 0 91 -27t33 -75q0 -40 -23.5 -69.5t-64.5 -41.5q63 -26 63 -91q0 -57 -42.5 -89.5t-117.5 -32.5q-67 0 -102 26.5t-35 77.5q0 43 27 73.5t75 41.5zM779 111q0 76 -102 76q-59 0 -91 -24.5
t-32 -68.5q0 -77 101 -77q58 0 91 25t33 69zM805 309q0 74 -91 74q-51 0 -80.5 -24.5t-29.5 -67.5q0 -74 88 -74q53 0 83 24.5t30 67.5zM210 486l6 29h50q50 0 77.5 23t27.5 64q0 35 -22.5 54t-64.5 19q-43 0 -70 -19t-42 -60l-32 6q14 49 52.5 76t94.5 27q55 0 87 -27
t32 -74q0 -37 -21.5 -65t-59.5 -39q53 -22 53 -89q0 -59 -39.5 -95.5t-104.5 -36.5q-62 0 -98.5 31.5t-36.5 86.5h32q3 -42 30 -65t73 -23q50 0 79 27t29 75q0 36 -17.5 55.5t-51.5 19.5h-63z" />
    <glyph glyph-name="fiveeighths" unicode="&#x215d;" horiz-adv-x="887" 
d="M203 0l498 691h44l-498 -691h-44zM620 206q-51 29 -51 86q0 55 40 88t107 33q58 0 91 -27t33 -75q0 -40 -23.5 -69.5t-64.5 -41.5q63 -26 63 -91q0 -57 -42.5 -89.5t-117.5 -32.5q-67 0 -102 26.5t-35 77.5q0 43 27 73.5t75 41.5zM779 111q0 76 -102 76q-59 0 -91 -24.5
t-32 -68.5q0 -77 101 -77q58 0 91 25t33 69zM805 309q0 74 -91 74q-51 0 -80.5 -24.5t-29.5 -67.5q0 -74 88 -74q53 0 83 24.5t30 67.5zM145 387q3 -37 27.5 -57.5t66.5 -20.5q53 0 84 33t31 88q0 86 -82 86q-50 0 -101 -40h-30l58 216h216l-7 -32h-187l-39 -145
q41 31 94 31t83 -30t30 -85q0 -68 -41.5 -110t-110.5 -42q-58 0 -90 28t-34 80h32z" />
    <glyph glyph-name="seveneighths" unicode="&#x215e;" horiz-adv-x="887" 
d="M151 0l498 691h44l-498 -691h-44zM620 206q-51 29 -51 86q0 55 40 88t107 33q58 0 91 -27t33 -75q0 -40 -23.5 -69.5t-64.5 -41.5q63 -26 63 -91q0 -57 -42.5 -89.5t-117.5 -32.5q-67 0 -102 26.5t-35 77.5q0 43 27 73.5t75 41.5zM779 111q0 76 -102 76q-59 0 -91 -24.5
t-32 -68.5q0 -77 101 -77q58 0 91 25t33 69zM805 309q0 74 -91 74q-51 0 -80.5 -24.5t-29.5 -67.5q0 -74 88 -74q53 0 83 24.5t30 67.5zM153 292q56 111 108 195t120 171h-236l7 33h278l-6 -28q-142 -181 -232 -371h-39z" />
    <glyph glyph-name="partialdiff" unicode="&#x2202;" horiz-adv-x="575" 
d="M185 559q53 151 199 151q88 0 132.5 -55t44.5 -163q0 -92 -21 -188t-57 -165q-83 -157 -235 -157q-58 0 -103 24t-71 68.5t-26 104.5q0 68 31 125.5t87 92t127 34.5q56 0 99.5 -20.5t69.5 -59.5t30 -93q14 48 23.5 114.5t9.5 120.5q0 93 -36 138t-111 45q-60 0 -99 -30.5
t-62 -95.5zM250 16q57 0 105.5 28.5t78.5 80.5t30 116q0 70 -47 113t-125 43q-56 0 -102.5 -27t-74.5 -76t-28 -112q0 -76 44.5 -121t118.5 -45z" />
    <glyph glyph-name="uni2206" unicode="&#x2206;" horiz-adv-x="637" 
d="M-20 0l428 714h44l126 -714h-598zM422 670l-375 -633h483z" />
    <glyph glyph-name="product" unicode="&#x220f;" horiz-adv-x="659" 
d="M496 0l144 677h-413l-144 -677h-39l151 714h491l-151 -714h-39z" />
    <glyph glyph-name="summation" unicode="&#x2211;" horiz-adv-x="559" 
d="M-26 -102l7 33l323 380l-163 368l7 35h488l-7 -35h-447l164 -373l-319 -372h455l-17 -36h-491z" />
    <glyph glyph-name="minus" unicode="&#x2212;" horiz-adv-x="592" 
d="M111 322l7 36h428l-7 -36h-428z" />
    <glyph glyph-name="uni2215" unicode="&#x2215;" horiz-adv-x="59" 
d="M-208 0l498 691h44l-498 -691h-44z" />
    <glyph glyph-name="uni2219" unicode="&#x2219;" horiz-adv-x="179" 
d="M95 311l22 102h42l-22 -102h-42z" />
    <glyph glyph-name="radical" unicode="&#x221a;" horiz-adv-x="552" 
d="M205 0l-68 328h-79l7 35h104l64 -323l392 691h42l-417 -731h-45z" />
    <glyph glyph-name="infinity" unicode="&#x221e;" horiz-adv-x="594" 
d="M313 343q-3 59 -28.5 91.5t-69.5 32.5q-52 0 -86 -43.5t-34 -109.5q0 -47 20 -72t58 -25q82 0 140 126zM321 298q-62 -113 -152 -113q-52 0 -81 33.5t-29 94.5q0 51 20 93t56 67.5t82 25.5q47 0 78.5 -30t41.5 -83q62 113 152 113q52 0 81 -33.5t29 -94.5q0 -51 -20 -93
t-56 -67.5t-82 -25.5q-47 0 -78.5 30t-41.5 83zM345 341q2 -58 28 -91t70 -33q52 0 86 43.5t34 109.5q0 47 -20.5 72t-57.5 25q-81 0 -140 -126z" />
    <glyph glyph-name="integral" unicode="&#x222b;" horiz-adv-x="296" 
d="M177 583q10 139 122 139q37 0 65 -16l-13 -29q-27 12 -51 12q-40 0 -60.5 -25t-24.5 -79l-43 -567q-10 -138 -120 -138q-35 0 -64 16l14 28q23 -11 50 -11q39 0 58.5 24.5t23.5 79.5z" />
    <glyph glyph-name="approxequal" unicode="&#x2248;" horiz-adv-x="592" 
d="M551 279q-24 -147 -132 -147q-36 0 -63.5 15t-70.5 58q-34 34 -54 45t-47 11q-40 0 -64 -28t-34 -86h-35q23 147 132 147q36 0 63.5 -15t70.5 -58q34 -34 54 -45t47 -11q40 0 64 28t34 86h35zM599 513q-24 -147 -132 -147q-36 0 -63.5 15t-70.5 58q-34 34 -54 45t-47 11
q-40 0 -64 -28t-34 -86h-35q23 147 132 147q36 0 63.5 -15t70.5 -58q34 -34 54 -45t47 -11q40 0 64 28t34 86h35z" />
    <glyph glyph-name="notequal" unicode="&#x2260;" horiz-adv-x="592" 
d="M244 210l-90 -111h-42l90 111h-116l7 36h138l153 189h-248l7 36h270l90 111h42l-90 -111h116l-7 -36h-138l-153 -189h248l-7 -36h-270z" />
    <glyph glyph-name="lessequal" unicode="&#x2264;" horiz-adv-x="592" 
d="M38 0l7 35h440l-7 -35h-440zM107 324l6 29l487 221l-9 -41l-435 -196l353 -195l-9 -38z" />
    <glyph glyph-name="greaterequal" unicode="&#x2265;" horiz-adv-x="592" 
d="M38 0l7 35h440l-7 -35h-440zM60 104l9 41l435 196l-353 195l9 38l393 -220l-6 -29z" />
    <glyph glyph-name="lozenge" unicode="&#x25ca;" horiz-adv-x="590" 
d="M239 0l-156 357l304 357h41l156 -357l-304 -357h-41zM540 362l-137 316l-276 -326l137 -316z" />
    <glyph glyph-name="twosevenths" unicode="&#xf507;" horiz-adv-x="887" 
d="M196 0l498 691h44l-498 -691h-44zM581 0q56 111 108 195t120 171h-236l7 33h278l-6 -28q-142 -181 -232 -371h-39zM91 293l7 32l143 103q61 43 88 68.5t37 46.5t10 49q0 39 -22 60t-62 21q-81 0 -111 -81l-32 7q13 49 52 77.5t93 28.5q56 0 87.5 -29t31.5 -81
q0 -35 -14.5 -62.5t-48 -58t-96.5 -76.5l-100 -72h211l-14 -33h-260z" />
    <glyph glyph-name="threesevenths" unicode="&#xf508;" horiz-adv-x="887" 
d="M185 0l498 691h44l-498 -691h-44zM581 0q56 111 108 195t120 171h-236l7 33h278l-6 -28q-142 -181 -232 -371h-39zM210 486l6 29h50q50 0 77.5 23t27.5 64q0 35 -22.5 54t-64.5 19q-43 0 -70 -19t-42 -60l-32 6q14 49 52.5 76t94.5 27q55 0 87 -27t32 -74
q0 -37 -21.5 -65t-59.5 -39q53 -22 53 -89q0 -59 -39.5 -95.5t-104.5 -36.5q-62 0 -98.5 31.5t-36.5 86.5h32q3 -42 30 -65t73 -23q50 0 79 27t29 75q0 36 -17.5 55.5t-51.5 19.5h-63z" />
    <glyph glyph-name="foursevenths" unicode="&#xf509;" horiz-adv-x="887" 
d="M186 0l498 691h44l-498 -691h-44zM581 0q56 111 108 195t120 171h-236l7 33h278l-6 -28q-142 -181 -232 -371h-39zM286 292l23 108h-208l5 25l263 267h36l-56 -262h50l-13 -30h-43l-23 -108h-34zM360 642l-210 -212h165z" />
    <glyph glyph-name="fivesevenths" unicode="&#xf50a;" horiz-adv-x="887" 
d="M187 0l498 691h44l-498 -691h-44zM581 0q56 111 108 195t120 171h-236l7 33h278l-6 -28q-142 -181 -232 -371h-39zM145 387q3 -37 27.5 -57.5t66.5 -20.5q53 0 84 33t31 88q0 86 -82 86q-50 0 -101 -40h-30l58 216h216l-7 -32h-187l-39 -145q41 31 94 31t83 -30t30 -85
q0 -68 -41.5 -110t-110.5 -42q-58 0 -90 28t-34 80h32z" />
    <glyph glyph-name="sixsevenths" unicode="&#xf50b;" horiz-adv-x="887" 
d="M188 0l498 691h44l-498 -691h-44zM581 0q56 111 108 195t120 171h-236l7 33h278l-6 -28q-142 -181 -232 -371h-39zM394 608q-8 35 -26.5 50.5t-51.5 15.5q-59 0 -99 -47t-59 -139q19 28 50 43.5t68 15.5q54 0 84.5 -31.5t30.5 -87.5q0 -67 -41 -108t-108 -41
q-61 0 -93 36t-32 104q0 75 25.5 140t71.5 105t103 40q46 0 74 -23.5t33 -66.5zM244 310q50 0 80.5 32t30.5 86q0 43 -21.5 66t-62.5 23q-52 0 -86 -33t-34 -83q0 -42 25 -66.5t68 -24.5z" />
    <glyph glyph-name="twoninths" unicode="&#xf50d;" horiz-adv-x="887" 
d="M216 0l498 691h44l-498 -691h-44zM568 86q11 -68 88 -68q64 0 99 46.5t44 143.5q-38 -64 -119 -64q-55 0 -86 32t-31 88q0 66 41.5 107t107.5 41q62 0 94 -37t32 -107q0 -133 -48 -207t-134 -74q-52 0 -84.5 26.5t-35.5 72.5h32zM803 287q0 44 -25.5 69.5t-68.5 25.5
q-50 0 -80.5 -32.5t-30.5 -85.5q0 -44 22 -67t64 -23q53 0 86 31.5t33 81.5zM91 293l7 32l143 103q61 43 88 68.5t37 46.5t10 49q0 39 -22 60t-62 21q-81 0 -111 -81l-32 7q13 49 52 77.5t93 28.5q56 0 87.5 -29t31.5 -81q0 -35 -14.5 -62.5t-48 -58t-96.5 -76.5l-100 -72
h211l-14 -33h-260z" />
    <glyph glyph-name="fourninths" unicode="&#xf50e;" horiz-adv-x="887" 
d="M205 0l498 691h44l-498 -691h-44zM568 86q11 -68 88 -68q64 0 99 46.5t44 143.5q-38 -64 -119 -64q-55 0 -86 32t-31 88q0 66 41.5 107t107.5 41q62 0 94 -37t32 -107q0 -133 -48 -207t-134 -74q-52 0 -84.5 26.5t-35.5 72.5h32zM803 287q0 44 -25.5 69.5t-68.5 25.5
q-50 0 -80.5 -32.5t-30.5 -85.5q0 -44 22 -67t64 -23q53 0 86 31.5t33 81.5zM286 293l23 108h-208l5 25l263 267h36l-56 -262h50l-13 -30h-43l-23 -108h-34zM360 643l-210 -212h165z" />
    <glyph glyph-name="fiveninths" unicode="&#xf50f;" horiz-adv-x="887" 
d="M204 0l498 691h44l-498 -691h-44zM568 86q11 -68 88 -68q64 0 99 46.5t44 143.5q-38 -64 -119 -64q-55 0 -86 32t-31 88q0 66 41.5 107t107.5 41q62 0 94 -37t32 -107q0 -133 -48 -207t-134 -74q-52 0 -84.5 26.5t-35.5 72.5h32zM803 287q0 44 -25.5 69.5t-68.5 25.5
q-50 0 -80.5 -32.5t-30.5 -85.5q0 -44 22 -67t64 -23q53 0 86 31.5t33 81.5zM145 387q3 -37 27.5 -57.5t66.5 -20.5q53 0 84 33t31 88q0 86 -82 86q-50 0 -101 -40h-30l58 216h216l-7 -32h-187l-39 -145q41 31 94 31t83 -30t30 -85q0 -68 -41.5 -110t-110.5 -42
q-58 0 -90 28t-34 80h32z" />
    <glyph glyph-name="sevenninths" unicode="&#xf510;" horiz-adv-x="887" 
d="M152 0l498 691h44l-498 -691h-44zM568 86q11 -68 88 -68q64 0 99 46.5t44 143.5q-38 -64 -119 -64q-55 0 -86 32t-31 88q0 66 41.5 107t107.5 41q62 0 94 -37t32 -107q0 -133 -48 -207t-134 -74q-52 0 -84.5 26.5t-35.5 72.5h32zM803 287q0 44 -25.5 69.5t-68.5 25.5
q-50 0 -80.5 -32.5t-30.5 -85.5q0 -44 22 -67t64 -23q53 0 86 31.5t33 81.5zM153 292q56 111 108 195t120 171h-236l7 33h278l-6 -28q-142 -181 -232 -371h-39z" />
    <glyph glyph-name="eightninths" unicode="&#xf511;" horiz-adv-x="887" 
d="M208 0l498 691h44l-498 -691h-44zM568 86q11 -68 88 -68q64 0 99 46.5t44 143.5q-38 -64 -119 -64q-55 0 -86 32t-31 88q0 66 41.5 107t107.5 41q62 0 94 -37t32 -107q0 -133 -48 -207t-134 -74q-52 0 -84.5 26.5t-35.5 72.5h32zM803 287q0 44 -25.5 69.5t-68.5 25.5
q-50 0 -80.5 -32.5t-30.5 -85.5q0 -44 22 -67t64 -23q53 0 86 31.5t33 81.5zM198 498q-51 29 -51 86q0 55 40 88t107 33q58 0 91 -27t33 -75q0 -40 -23.5 -69.5t-64.5 -41.5q63 -26 63 -91q0 -57 -42.5 -89.5t-117.5 -32.5q-67 0 -102 26.5t-35 77.5q0 43 27 73.5t75 41.5z
M357 403q0 76 -102 76q-59 0 -91 -24.5t-32 -68.5q0 -77 101 -77q58 0 91 25t33 69zM383 601q0 74 -91 74q-51 0 -80.5 -24.5t-29.5 -67.5q0 -74 88 -74q53 0 83 24.5t30 67.5z" />
    <glyph glyph-name="zero.numr" unicode="&#xf80a;" 
d="M261 402q-66 0 -104 43t-38 117q0 71 26 131.5t73 97.5t104 37q66 0 104 -42.5t38 -117.5q0 -71 -26 -131.5t-73 -97.5t-104 -37zM262 434q44 0 81.5 29.5t60 83.5t22.5 121q0 61 -27.5 94.5t-77.5 33.5q-44 0 -81.5 -29.5t-60 -83.5t-22.5 -121q0 -61 27.5 -94.5
t77.5 -33.5z" />
    <glyph glyph-name="one.numr" unicode="&#xf80b;" 
d="M250 415l76 358l-111 -51l-13 30l131 63h37l-85 -400h-35z" />
    <glyph glyph-name="two.numr" unicode="&#xf80c;" 
d="M118 416l7 32l143 103q61 43 88 68.5t37 46.5t10 49q0 39 -22 60t-62 21q-81 0 -111 -81l-32 7q13 49 52 77.5t93 28.5q56 0 87.5 -29t31.5 -81q0 -35 -14.5 -62.5t-48 -58t-96.5 -76.5l-100 -72h211l-14 -33h-260z" />
    <glyph glyph-name="three.numr" unicode="&#xf80d;" 
d="M242 609l6 29h50q50 0 77.5 23t27.5 64q0 35 -22.5 54t-64.5 19q-43 0 -70 -19t-42 -60l-32 6q14 49 52.5 76t94.5 27q55 0 87 -27t32 -74q0 -37 -21.5 -65t-59.5 -39q53 -22 53 -89q0 -59 -39.5 -95.5t-104.5 -36.5q-62 0 -98.5 31.5t-36.5 86.5h32q3 -42 30 -65t73 -23
q50 0 79 27t29 75q0 36 -17.5 55.5t-51.5 19.5h-63z" />
    <glyph glyph-name="four.numr" unicode="&#xf80e;" 
d="M309 415l23 108h-208l5 25l263 267h36l-56 -262h50l-13 -30h-43l-23 -108h-34zM383 765l-210 -212h165z" />
    <glyph glyph-name="five.numr" unicode="&#xf80f;" 
d="M174 510q3 -37 27.5 -57.5t66.5 -20.5q53 0 84 33t31 88q0 86 -82 86q-50 0 -101 -40h-30l58 216h216l-7 -32h-187l-39 -145q41 31 94 31t83 -30t30 -85q0 -68 -41.5 -110t-110.5 -42q-58 0 -90 28t-34 80h32z" />
    <glyph glyph-name="six.numr" unicode="&#xf810;" 
d="M423 731q-8 35 -26.5 50.5t-51.5 15.5q-59 0 -99 -47t-59 -139q19 28 50 43.5t68 15.5q54 0 84.5 -31.5t30.5 -87.5q0 -67 -41 -108t-108 -41q-61 0 -93 36t-32 104q0 75 25.5 140t71.5 105t103 40q46 0 74 -23.5t33 -66.5zM273 433q50 0 80.5 32t30.5 86q0 43 -21.5 66
t-62.5 23q-52 0 -86 -33t-34 -83q0 -42 25 -66.5t68 -24.5z" />
    <glyph glyph-name="seven.numr" unicode="&#xf811;" 
d="M187 415q56 111 108 195t120 171h-236l7 33h278l-6 -28q-142 -181 -232 -371h-39z" />
    <glyph glyph-name="eight.numr" unicode="&#xf812;" 
d="M225 621q-51 29 -51 86q0 55 40 88t107 33q58 0 91 -27t33 -75q0 -40 -23.5 -69.5t-64.5 -41.5q63 -26 63 -91q0 -57 -42.5 -89.5t-117.5 -32.5q-67 0 -102 26.5t-35 77.5q0 43 27 73.5t75 41.5zM384 526q0 76 -102 76q-59 0 -91 -24.5t-32 -68.5q0 -77 101 -77
q58 0 91 25t33 69zM410 724q0 74 -91 74q-51 0 -80.5 -24.5t-29.5 -67.5q0 -74 88 -74q53 0 83 24.5t30 67.5z" />
    <glyph glyph-name="nine.numr" unicode="&#xf813;" 
d="M162 501q11 -68 88 -68q64 0 99 46.5t44 143.5q-38 -64 -119 -64q-55 0 -86 32t-31 88q0 66 41.5 107t107.5 41q62 0 94 -37t32 -107q0 -133 -48 -207t-134 -74q-52 0 -84.5 26.5t-35.5 72.5h32zM397 702q0 44 -25.5 69.5t-68.5 25.5q-50 0 -80.5 -32.5t-30.5 -85.5
q0 -44 22 -67t64 -23q53 0 86 31.5t33 81.5z" />
    <glyph glyph-name="zero.dnom" unicode="&#xf814;" 
d="M148 -134q-66 0 -104 43t-38 117q0 71 26 131.5t73 97.5t104 37q66 0 104 -42.5t38 -117.5q0 -71 -26 -131.5t-73 -97.5t-104 -37zM149 -102q44 0 81.5 29.5t60 83.5t22.5 121q0 61 -27.5 94.5t-77.5 33.5q-44 0 -81.5 -29.5t-60 -83.5t-22.5 -121q0 -61 27.5 -94.5
t77.5 -33.5z" />
    <glyph glyph-name="one.dnom" unicode="&#xf815;" 
d="M137 -121l76 358l-111 -51l-13 30l131 63h37l-85 -400h-35z" />
    <glyph glyph-name="two.dnom" unicode="&#xf816;" 
d="M5 -120l7 32l143 103q61 43 88 68.5t37 46.5t10 49q0 39 -22 60t-62 21q-81 0 -111 -81l-32 7q13 49 52 77.5t93 28.5q56 0 87.5 -29t31.5 -81q0 -35 -14.5 -62.5t-48 -58t-96.5 -76.5l-100 -72h211l-14 -33h-260z" />
    <glyph glyph-name="three.dnom" unicode="&#xf817;" 
d="M129 73l6 29h50q50 0 77.5 23t27.5 64q0 35 -22.5 54t-64.5 19q-43 0 -70 -19t-42 -60l-32 6q14 49 52.5 76t94.5 27q55 0 87 -27t32 -74q0 -37 -21.5 -65t-59.5 -39q53 -22 53 -89q0 -59 -39.5 -95.5t-104.5 -36.5q-62 0 -98.5 31.5t-36.5 86.5h32q3 -42 30 -65t73 -23
q50 0 79 27t29 75q0 36 -17.5 55.5t-51.5 19.5h-63z" />
    <glyph glyph-name="four.dnom" unicode="&#xf818;" 
d="M196 -121l23 108h-208l5 25l263 267h36l-56 -262h50l-13 -30h-43l-23 -108h-34zM270 229l-210 -212h165z" />
    <glyph glyph-name="five.dnom" unicode="&#xf819;" 
d="M61 -26q3 -37 27.5 -57.5t66.5 -20.5q53 0 84 33t31 88q0 86 -82 86q-50 0 -101 -40h-30l58 216h216l-7 -32h-187l-39 -145q41 31 94 31t83 -30t30 -85q0 -68 -41.5 -110t-110.5 -42q-58 0 -90 28t-34 80h32z" />
    <glyph glyph-name="six.dnom" unicode="&#xf81a;" 
d="M310 195q-8 35 -26.5 50.5t-51.5 15.5q-59 0 -99 -47t-59 -139q19 28 50 43.5t68 15.5q54 0 84.5 -31.5t30.5 -87.5q0 -67 -41 -108t-108 -41q-61 0 -93 36t-32 104q0 75 25.5 140t71.5 105t103 40q46 0 74 -23.5t33 -66.5zM160 -103q50 0 80.5 32t30.5 86q0 43 -21.5 66
t-62.5 23q-52 0 -86 -33t-34 -83q0 -42 25 -66.5t68 -24.5z" />
    <glyph glyph-name="seven.dnom" unicode="&#xf81b;" 
d="M74 -121q56 111 108 195t120 171h-236l7 33h278l-6 -28q-142 -181 -232 -371h-39z" />
    <glyph glyph-name="eight.dnom" unicode="&#xf81c;" 
d="M112 85q-51 29 -51 86q0 55 40 88t107 33q58 0 91 -27t33 -75q0 -40 -23.5 -69.5t-64.5 -41.5q63 -26 63 -91q0 -57 -42.5 -89.5t-117.5 -32.5q-67 0 -102 26.5t-35 77.5q0 43 27 73.5t75 41.5zM271 -10q0 76 -102 76q-59 0 -91 -24.5t-32 -68.5q0 -77 101 -77
q58 0 91 25t33 69zM297 188q0 74 -91 74q-51 0 -80.5 -24.5t-29.5 -67.5q0 -74 88 -74q53 0 83 24.5t30 67.5z" />
    <glyph glyph-name="nine.dnom" unicode="&#xf81d;" 
d="M49 -35q11 -68 88 -68q64 0 99 46.5t44 143.5q-38 -64 -119 -64q-55 0 -86 32t-31 88q0 66 41.5 107t107.5 41q62 0 94 -37t32 -107q0 -133 -48 -207t-134 -74q-52 0 -84.5 26.5t-35.5 72.5h32zM284 166q0 44 -25.5 69.5t-68.5 25.5q-50 0 -80.5 -32.5t-30.5 -85.5
q0 -44 22 -67t64 -23q53 0 86 31.5t33 81.5z" />
    <glyph glyph-name="fi" unicode="&#xfb01;" horiz-adv-x="497" 
d="M60 0l102 479h-80l7 34h80l15 69q16 73 53 106.5t99 33.5q40 0 70 -13l-12 -32q-24 11 -59 11q-48 0 -74.5 -25t-38.5 -80l-15 -70h149l-7 -34h-149l-102 -479h-38zM347 0l109 513h38l-109 -513h-38zM477 622l20 92h40l-20 -92h-40z" />
    <glyph glyph-name="fl" unicode="&#xfb02;" horiz-adv-x="487" 
d="M60 0l102 479h-80l7 34h80l15 69q16 73 53 106.5t99 33.5q40 0 70 -13l-12 -32q-24 11 -59 11q-48 0 -74.5 -25t-38.5 -80l-15 -70h149l-7 -34h-149l-102 -479h-38zM337 0l152 714h38l-152 -714h-38z" />
    <glyph glyph-name="uniFEFF" unicode="&#xfeff;" horiz-adv-x="0" 
 />
    <glyph glyph-name="zero.pnum" horiz-adv-x="599" 
d="M266 -18q-91 0 -140 63t-49 179q0 129 41 239.5t115.5 178.5t165.5 68t140 -63t49 -179q0 -128 -41 -238.5t-115.5 -179t-165.5 -68.5zM268 18q55 0 104.5 31.5t88.5 91t62 143.5t23 182q0 103 -37.5 155.5t-111.5 52.5q-55 0 -104.5 -31.5t-88.5 -91t-62 -143.5
t-23 -182q0 -103 37.5 -155.5t111.5 -52.5z" />
    <glyph glyph-name="one.pnum" horiz-adv-x="394" 
d="M185 0l138 649l-200 -107l-16 31l221 118h43l-147 -691h-39z" />
    <glyph glyph-name="two.pnum" horiz-adv-x="544" 
d="M13 0l8 37l223 167q117 88 171 140t74 93.5t20 90.5q0 70 -41 108t-116 38q-150 0 -197 -148l-35 7q21 83 83 130t151 47q92 0 144 -48t52 -133q0 -61 -25.5 -109.5t-84.5 -103.5t-167 -135l-195 -144h385l-16 -37h-434z" />
    <glyph glyph-name="three.pnum" horiz-adv-x="561" 
d="M242 344l8 36h79q90 0 140.5 42t50.5 117q0 66 -40.5 100.5t-117.5 34.5q-153 0 -197 -141l-36 7q21 81 82.5 125.5t152.5 44.5q92 0 144 -45t52 -125q0 -66 -39.5 -114t-107.5 -64q47 -16 72 -57t25 -101q0 -63 -29 -113.5t-83 -79.5t-125 -29q-100 0 -157.5 52.5
t-59.5 144.5h37q2 -75 51 -118t132 -43q90 0 142 50.5t52 136.5q0 67 -32.5 103t-93.5 36h-102z" />
    <glyph glyph-name="four.pnum" horiz-adv-x="564" 
d="M348 0l40 189h-347l6 34l443 468h43l-100 -468h102l-14 -34h-95l-40 -189h-38zM482 636l-391 -413h304z" />
    <glyph glyph-name="five.pnum" horiz-adv-x="545" 
d="M89 167q2 -71 46 -110t122 -39q98 0 155 60t57 163q0 80 -39.5 121t-115.5 41q-44 0 -86 -18t-90 -57h-37l101 363h356l-8 -36h-323l-79 -286q82 68 172 68q89 0 139 -51t50 -143q0 -75 -31 -134t-88.5 -93t-133.5 -34q-94 0 -149 50t-55 135h37z" />
    <glyph glyph-name="six.pnum" horiz-adv-x="577" 
d="M548 557q-11 59 -45 88t-95 29q-110 0 -182.5 -93t-103.5 -273q71 129 215 129q92 0 143.5 -52t51.5 -146q0 -72 -30 -130.5t-86 -92.5t-128 -34q-45 0 -86 15q-63 24 -93.5 78t-30.5 142q0 131 42 243t118.5 181t171.5 69q74 0 119 -38t54 -109zM289 18q59 0 104.5 26
t71.5 75.5t26 116.5q0 81 -40 123t-115 42q-60 0 -109.5 -26.5t-79 -75t-29.5 -110.5q0 -79 46 -125t125 -46z" />
    <glyph glyph-name="seven.pnum" horiz-adv-x="531" 
d="M116 0q178 358 408 655h-412l7 36h455l-7 -37q-244 -320 -406 -654h-45z" />
    <glyph glyph-name="eight.pnum" horiz-adv-x="590" 
d="M420 348q61 -15 93.5 -55.5t32.5 -102.5q0 -96 -72.5 -152t-196.5 -56q-109 0 -168.5 46t-59.5 130q0 78 53 131.5t141 64.5q-52 18 -79.5 57t-27.5 95q0 91 68.5 147.5t179.5 56.5q97 0 152 -45.5t55 -126.5q0 -73 -46.5 -124.5t-124.5 -65.5zM505 189q0 71 -48 107.5
t-141 36.5q-107 0 -166.5 -45.5t-59.5 -127.5q0 -71 47.5 -107.5t139.5 -36.5q106 0 167 46.5t61 126.5zM552 535q0 69 -44 105t-126 36q-95 0 -151 -46.5t-56 -125.5q0 -66 43 -101t125 -35q97 0 153 45t56 122z" />
    <glyph glyph-name="nine.pnum" horiz-adv-x="568" 
d="M100 139q7 -59 45.5 -90t104.5 -31q227 0 267 369q-65 -133 -217 -133q-92 0 -143.5 53t-51.5 146q0 72 30 130.5t86 92.5t128 34q83 0 138 -44q37 -30 54 -80.5t17 -131.5q0 -139 -37.5 -245.5t-108 -166.5t-165.5 -60q-81 0 -129.5 41.5t-55.5 115.5h38zM518 501
q0 80 -45.5 126.5t-124.5 46.5q-59 0 -105 -26.5t-72 -76t-26 -116.5q0 -80 40 -122.5t116 -42.5q61 0 110 26t78 74t29 111z" />
    <glyph glyph-name="hyphen.case" horiz-adv-x="389" 
d="M82 339l9 38h289l-9 -38h-289z" />
    <glyph glyph-name="endash.case" horiz-adv-x="500" 
d="M33 339l8 38h500l-9 -38h-499z" />
    <glyph glyph-name="emdash.case" horiz-adv-x="1000" 
d="M32 339l8 38h1000l-9 -38h-999z" />
    <glyph glyph-name="parenleft.case" horiz-adv-x="229" 
d="M121 -71q-21 52 -32.5 116.5t-11.5 132.5q0 158 60 321t165 288h37q-109 -142 -165 -299.5t-56 -323.5q0 -121 38 -235h-35z" />
    <glyph glyph-name="parenright.case" horiz-adv-x="229" 
d="M-38 -72q109 142 165 299.5t56 323.5q0 121 -38 235h35q21 -52 32.5 -116.5t11.5 -132.5q0 -158 -60 -321t-165 -288h-37z" />
    <glyph glyph-name="slash.case" horiz-adv-x="287" 
d="M-29 -9l380 734h41l-380 -734h-41z" />
    <glyph glyph-name="backslash.case" horiz-adv-x="287" 
d="M197 -9l-69 734h38l69 -734h-38z" />
    <glyph glyph-name="bracketleft.case" horiz-adv-x="253" 
d="M24 -71l182 858h161l-8 -33h-123l-168 -792h123l-7 -33h-160z" />
    <glyph glyph-name="bracketright.case" horiz-adv-x="253" 
d="M-42 -71l8 33h123l168 792h-123l7 33h160l-182 -858h-161z" />
    <glyph glyph-name="braceleft.case" horiz-adv-x="261" 
d="M144 -71q-79 0 -79 65q0 23 6 47l48 227q2 10 2.5 15.5t0.5 9.5q0 48 -56 48h-4l7 34h5q37 0 56.5 17t27.5 56l51 240q11 53 38.5 76t79.5 23h51l-8 -33h-54q-28 0 -44.5 -14.5t-23.5 -46.5l-54 -251q-8 -38 -25 -58.5t-45 -26.5q37 -13 37 -58q0 -16 -4 -35l-50 -236
q-3 -14 -3 -24q0 -42 43 -42h54l-8 -33h-49z" />
    <glyph glyph-name="braceright.case" horiz-adv-x="261" 
d="M-45 -71l8 33h54q28 0 44.5 14.5t23.5 46.5l54 251q8 38 25 58.5t45 26.5q-37 13 -37 58q0 16 4 35l50 236q3 14 3 24q0 42 -43 42h-54l8 33h49q79 0 79 -65q0 -23 -6 -47l-48 -227q-1 -10 -2 -15.5t-1 -9.5q0 -48 56 -48h4l-7 -34h-5q-37 0 -56.5 -17t-27.5 -56
l-51 -240q-11 -53 -38.5 -76t-79.5 -23h-51z" />
    <glyph glyph-name="bullet.case" horiz-adv-x="311" 
d="M302 358q0 -48 -31.5 -80t-80.5 -32t-81 31.5t-32 80.5q0 48 32 79.5t81 31.5q48 0 80 -31.5t32 -79.5z" />
    <glyph glyph-name="guilsinglleft.case" horiz-adv-x="269" 
d="M175 135l-95 222l190 222h41l-189 -224l91 -220h-38z" />
    <glyph glyph-name="guilsinglright.case" horiz-adv-x="269" 
d="M24 135l189 224l-91 220h38l95 -222l-190 -222h-41z" />
    <glyph glyph-name="guillemotleft.case" horiz-adv-x="442" 
d="M175 135l-95 222l190 222h41l-189 -224l91 -220h-38zM348 135l-95 222l190 222h41l-189 -224l91 -220h-38z" />
    <glyph glyph-name="guillemotright.case" horiz-adv-x="442" 
d="M24 135l189 224l-91 220h38l95 -222l-190 -222h-41zM197 135l189 224l-91 220h38l95 -222l-190 -222h-41z" />
    <glyph glyph-name="at.case" horiz-adv-x="913" 
d="M793 67q-52 -75 -130.5 -111t-187.5 -36q-188 0 -289.5 99.5t-101.5 283.5q0 136 57 247.5t161.5 177.5t238.5 66q109 0 193 -44t131.5 -126.5t47.5 -193.5q0 -83 -26 -152t-73.5 -110.5t-108.5 -41.5q-46 0 -73.5 21.5t-27.5 57.5q0 7 1 12q-33 -50 -73 -73.5t-92 -23.5
q-77 0 -119.5 47t-42.5 133q0 73 30 136.5t84.5 102.5t121.5 39q54 0 90 -26t51 -76q8 45 19 90h36l-70 -329q-3 -15 -3 -25q0 -26 17.5 -40.5t48.5 -14.5q48 0 87 33t62 94t23 140q0 100 -40.5 176t-117 118t-181.5 42q-116 0 -209.5 -56t-148.5 -160.5t-55 -240.5
q0 -169 91.5 -259t263.5 -90q93 0 159.5 27.5t114.5 85.5h41zM630 367q6 30 6 48q0 60 -33.5 95.5t-88.5 35.5q-53 0 -97.5 -31t-71.5 -87.5t-27 -126.5q0 -73 31.5 -111t92.5 -38q69 0 115.5 48t66.5 140z" />
    <glyph glyph-name="periodcentered.case" horiz-adv-x="179" 
d="M101 305l22 102h42l-22 -102h-42z" />
    <glyph glyph-name="questiondown.case" horiz-adv-x="492" 
d="M461 162q-54 -174 -228 -174q-85 0 -133 41.5t-48 114.5q0 57 29.5 104t100.5 103q77 60 102.5 91.5t34.5 76.5l2 10h39l-2 -8q-11 -47 -25.5 -72.5t-42 -51.5t-85.5 -71q-60 -47 -87 -89.5t-27 -91.5q0 -59 37.5 -90.5t109.5 -31.5t117 35t71 111zM333 612l22 102h42
l-22 -102h-42z" />
    <glyph glyph-name="exclamdown.case" horiz-adv-x="198" 
d="M41 0l114 529h35l-110 -529h-39zM167 612l22 102h42l-22 -102h-42z" />
    <glyph glyph-name="periodcentered.loclCAT" horiz-adv-x="179" 
d="M97 326l22 102h42l-22 -102h-42z" />
    <glyph glyph-name="periodcentered.loclCAT.cap" horiz-adv-x="179" 
d="M102 346l22 102h42l-22 -102h-42z" />
    <glyph glyph-name="i.locl" horiz-adv-x="182" 
d="M32 0l109 513h38l-109 -513h-38zM162 622l20 92h40l-20 -92h-40z" />
    <glyph glyph-name="Eng.locl" horiz-adv-x="683" 
d="M623 489q7 34 7 65q0 69 -38.5 105.5t-113.5 36.5q-98 0 -195 -75q-45 -35 -68.5 -72.5t-34.5 -92.5l-96 -456h-40l151 714h40l-26 -119q58 67 129.5 102t150.5 35q88 0 135 -45t47 -128q0 -32 -8 -70l-104 -489q-24 -112 -76.5 -158.5t-155.5 -46.5q-87 0 -156 32l17 34
q65 -30 142 -30q83 0 126.5 39t62.5 130z" />
    <glyph glyph-name="uni0327.cap" horiz-adv-x="0" 
d="M-107 -169q30 -5 57 -5q82 0 82 41q0 22 -20.5 32.5t-65.5 10.5h-13l52 93l31 -3l-35 -63q89 -10 89 -71q0 -35 -30.5 -53.5t-88.5 -18.5q-34 0 -66 7z" />
    <glyph glyph-name="uni0326.cap" horiz-adv-x="0" 
d="M-123 -205l99 134h48l-109 -134h-38z" />
    <glyph glyph-name="uni0328.cap" horiz-adv-x="0" 
d="M-2 -170q-16 -2 -27 -2q-35 0 -55 17.5t-20 48.5q0 61 86 111l37 -5q-44 -28 -64.5 -51.5t-20.5 -48.5q0 -39 46 -39q13 0 25 2z" />
    <glyph glyph-name="uni0328.round" horiz-adv-x="0" 
d="M-2 -165q-10 -2 -21 -2q-37 0 -57.5 16.5t-20.5 47.5q0 27 16.5 52t54.5 55l40 -4q-39 -26 -56.5 -48.5t-17.5 -46.5q0 -40 44 -40q13 0 25 2z" />
    <glyph glyph-name="uni0328.round.cap" horiz-adv-x="0" 
d="M-2 -170q-16 -2 -27 -2q-35 0 -55 17.5t-20 48.5q0 61 86 111l37 -5q-44 -28 -64.5 -51.5t-20.5 -48.5q0 -39 46 -39q13 0 25 2z" />
    <glyph glyph-name="iogonek.dotless" horiz-adv-x="182" 
d="M32 0l109 513h38l-109 -513h-38zM50 -165q-14 -2 -26 -2q-34 0 -53.5 17t-19.5 46q0 58 84 108l35 -4q-44 -27 -63 -49.5t-19 -47.5q0 -38 44 -38q11 0 25 2z" />
    <glyph glyph-name="acutecomb.cap" horiz-adv-x="0" 
d="M-8 774h-44l139 126h53z" />
    <glyph glyph-name="uni030B.cap" horiz-adv-x="0" 
d="M-54 774h-41l125 126h50zM95 774h-41l125 126h50z" />
    <glyph glyph-name="gravecomb.cap" horiz-adv-x="0" 
d="M11 774l-94 126h48l85 -126h-39z" />
    <glyph glyph-name="uni0302.cap" horiz-adv-x="0" 
d="M91 774l-67 95l-110 -95h-43l138 126h38l84 -126h-40z" />
    <glyph glyph-name="tildecomb.cap" horiz-adv-x="0" 
d="M170 875q-8 -46 -32.5 -70t-63.5 -24q-35 0 -78 31q-25 19 -38.5 25t-30.5 6q-50 0 -62 -61h-34q8 46 32.5 70t63.5 24q35 0 78 -31q25 -19 38.5 -25t30.5 -6q50 0 62 61h34z" />
    <glyph glyph-name="uni030C.cap" horiz-adv-x="0" 
d="M19 774h-38l-84 126h40l67 -95l110 95h43z" />
    <glyph glyph-name="uni0315.short" horiz-adv-x="0" 
d="M-16 583l53 141h39l-60 -141h-32z" />
    <glyph glyph-name="uni0304.cap" horiz-adv-x="0" 
d="M-140 798l7 35h274l-7 -35h-274z" />
    <glyph glyph-name="uni0308.cap" horiz-adv-x="0" 
d="M-103 793l19 89h42l-19 -89h-42zM59 793l19 89h42l-19 -89h-42z" />
    <glyph glyph-name="uni0306.cap" horiz-adv-x="0" 
d="M134 891q-11 -59 -44 -88t-90 -29q-50 0 -78 23.5t-28 65.5q0 13 3 28h34q-2 -12 -2 -23q0 -63 72 -63q83 0 99 86h34z" />
    <glyph glyph-name="uni0307.cap" horiz-adv-x="0" 
d="M-22 793l19 92h42l-19 -92h-42z" />
    <glyph glyph-name="uni030A.cap" horiz-adv-x="0" 
d="M88 824q0 -41 -24 -65t-64 -24t-64 24t-24 65q0 42 24 66t64 24t64 -24t24 -66zM57 824q0 29 -14.5 45t-42.5 16t-42.5 -16t-14.5 -45t15 -44.5t42 -15.5t42 15.5t15 44.5z" />
    </font>
</defs>
</svg>
