<?xml version="1.0" encoding="utf-8"?>
<!-- Generator: Adobe Illustrator 22.0.1, SVG Export Plug-In . SVG Version: 6.00 Build 0)  -->
<svg version="1.1" id="Layer_1" xmlns="http://www.w3.org/2000/svg" xmlns:xlink="http://www.w3.org/1999/xlink" x="0px" y="0px"
	 viewBox="0 0 322.5 292.5" style="enable-background:new 0 0 322.5 292.5;" xml:space="preserve">
<style type="text/css">
	.st0{fill:#231F20;}
	.st1{fill:#F2A5DC;}
</style>
<title>Artboard 3</title>
<path class="st0" d="M57.3,58.4c2.2,6.1,2.2,12.7-0.2,18.7c-2,5.7-6.3,10.3-11.8,12.7c-3.3,1.4-5,2.2-8.3,3.7l2.6,7l5.2,9.9
	c-7.9,3.6-11.8,5.4-19.7,9.4C18.8,102.4,12.4,84.9,6,67.5c-2.1-3.9-3.2-5.8-5.3-9.6c9.2-5,18.6-9.7,28.2-14
	c4.8-2.3,10.3-2.4,15.1-0.3c5.2,2.2,9.4,6.1,11.8,11.2C56.4,55.9,56.9,57.1,57.3,58.4z M39.8,65.8c-0.4-1.3-1.3-2.4-2.5-3
	s-2.6-0.6-3.7-0.1c-2.6,1.2-3.8,1.8-6.4,3l3.6,10.2c2.6-1.2,3.9-1.8,6.5-3c1.2-0.6,2.1-1.6,2.4-2.9C40.2,68.7,40.3,67.2,39.8,65.8z
	 M72.2,49.1c-3.1,1.2-4.7,1.8-7.8,3c-3.9-7.7-5.9-11.5-9.9-19.2c11.7-4.6,23.5-8.9,35.4-13c3.9,7.8,5.9,11.7,9.8,19.5
	c-3.5,1.2-5.3,1.8-8.8,3c2.7,7.9,5.4,15.8,8.1,23.8c3.2-1.1,4.8-1.6,7.9-2.7c3.9,7.8,5.8,11.6,9.7,19.4c-11.8,4-23.5,8.2-35.2,12.6
	c-3.9-7.7-5.8-11.5-9.8-19.2c3.5-1.4,5.3-2,8.8-3.3C77.7,64.9,74.9,57,72.2,49.1L72.2,49.1z M134.5,17.6l-5.1-10.3
	c7.4-2.2,11.1-3.3,18.5-5.4c7.2,21.3,14.4,42.6,21.5,64l-10.7,3.4c-7.9-6.5-15.9-13-23.8-19.6l4.6,13.9l5.1,10.2
	c-7.3,2.3-11,3.5-18.2,5.9c-6.1-17.9-12.2-35.8-18.3-53.7L103,15.6c4.9-1.6,7.4-2.4,12.3-3.9c8,6.6,16,13.2,24,19.9L134.5,17.6z
	 M67.1,142.5c2.2,6.1,2.1,12.7-0.2,18.7c-2,5.7-6.2,10.3-11.6,12.8c-3.3,1.5-4.9,2.3-8.1,3.8l2.5,6.9l5.1,9.8
	c-7.8,3.6-11.7,5.6-19.4,9.5c-6.2-17.4-12.5-34.7-18.8-52.1l-5.2-9.6c9.1-5,18.4-9.7,27.8-14.1c4.7-2.3,10.1-2.4,14.9-0.4
	c5.1,2.1,9.2,6,11.6,11C66.2,140,66.7,141.2,67.1,142.5z M49.9,150.1c-0.4-1.3-1.3-2.4-2.5-3s-2.5-0.6-3.7,0c-2.5,1.2-3.8,1.8-6.3,3
	l3.5,10.1c2.6-1.2,3.8-1.8,6.4-3c1.2-0.6,2-1.6,2.4-2.9C50.3,152.9,50.4,151.4,49.9,150.1z M96,176.9c-6.4,2.5-9.5,3.8-15.9,6.4
	c0.1-24.6,0.2-49.3,0.3-73.9c4.4-1.7,6.6-2.5,11-4.2c14.9,18.9,29.8,37.8,44.5,56.8c-6.4,2.3-9.6,3.4-16,5.8l-3.5-4.7
	c-8.2,3-12.3,4.6-20.4,7.7L96,176.9z M95.6,135.9l0.2,17.5c4.1-1.6,6.1-2.3,10.2-3.9C101.8,144.2,99.7,141.4,95.6,135.9L95.6,135.9z
	 M118.3,119.5c-3.8-7.7-5.8-11.6-9.6-19.3c16.1-5.6,32.3-10.9,48.6-16.1l9.5,19.2l-16,5.2c3.7,10.9,7.3,21.9,10.9,32.8l4.9,10
	c-8,2.8-12,4.2-19.9,6.9c-4.8-14.5-9.7-29-14.6-43.5C126.6,116.6,123.8,117.6,118.3,119.5L118.3,119.5z M197.7,93.6
	c-2.7,0.8-4.8,2.8-5.8,5.5c-1,2.3-1.1,4.9-0.4,7.3c0.8,2.2,1.2,3.4,1.4,3.8c2.8,5.6,6.9,7.4,12.2,5.5c1.8-0.5,3.4-1.4,4.9-2.5
	c1.6-1.6,3.2-3.2,4.6-4.9l6.2,18.7c-1.3,2.5-2.9,4.8-4.9,6.8c-2,1.8-4.4,3.2-7,4.1c-6.3,2.4-13.4,1.9-19.3-1.4
	c-6.6-3.5-11.8-9.1-14.9-15.9c-1.7-3.7-3.1-7.5-4.3-11.4c-1.8-5.5-1.4-12.3,1.5-20.2c2.4-7.5,8.3-13.3,15.8-15.5
	c2.5-0.9,5.1-1.2,7.7-1c2.8,0.4,5.5,1.1,8.1,2.2l6.4,19c-2.3-0.3-4.4-0.6-6.3-0.8C201.6,92.6,199.6,92.9,197.7,93.6L197.7,93.6z
	 M255,74l-3.6-10.3l-4.9-9.4c8.2-3.1,12.3-4.7,20.6-8.1c5.6,16.2,11.2,32.5,16.8,48.7l4.8,8.8c-8.2,3.9-12.3,5.8-20.4,9.4l-6.9-20.3
	c-6,2.5-9,3.7-15.1,6.1l3.6,10.7l4.8,9.3c-8.1,3.4-12.2,5-20.3,8.1l-17.2-50.9l-4.9-9.8c8.2-2.8,12.2-4.2,20.4-7.1l7.1,20.6
	C245.9,77.6,248.9,76.5,255,74L255,74z M78.9,271.5c-2.7-7.9-5.4-15.8-8.1-23.8c-0.9,6-1.3,9-2.1,15l-5.3,2.5
	c-4.1-3.6-6.2-5.5-10.3-9.1l4.5,13.2l5,9.8c-7,3.4-10.4,5.1-17.3,8.8c-6.1-17.3-12.2-34.6-18.4-51.9l-5.1-9.5
	c6.2-3.5,9.3-5.1,15.5-8.4c6.1,5.2,12.2,10.4,18.3,15.7c1.2-8.8,2.4-17.6,3.7-26.4c5.6-2.6,8.5-3.9,14.1-6.4
	c6.1,17.6,12.1,35.1,18.1,52.7l4.9,9.9C89.4,266.8,85.9,268.3,78.9,271.5z M90.7,216.7c-3.8-7.6-5.7-11.4-9.5-18.9
	c15.7-6.5,31.5-12.7,47.5-18.5l9.4,19c-6.2,2.3-9.4,3.5-15.6,5.8c3.6,10.9,7.3,21.8,10.9,32.8l4.9,9.9c-7.8,3-11.7,4.5-19.4,7.7
	c-4.8-14.4-9.6-28.9-14.5-43.3C98.9,213.3,96.2,214.5,90.7,216.7z M170.6,212.3c7.4-2.8,11.1-4.1,18.5-6.9l9.2,18.5
	c-13.1,5.1-26.2,10-39.3,15c-5.8-17.5-11.6-35-17.5-52.4l-4.9-10c7.9-2.8,11.9-4.2,19.8-7C161.1,183.7,165.9,198,170.6,212.3
	L170.6,212.3z"/>
<g>
	<path class="st1" d="M233.1,170.6c-2.1-0.5-3.6-1.4-4.5-2.6c-1-1.2-1.4-2.7-1.4-4.8c0-2.2,0.7-4,2.2-5.3c1.5-1.3,3.5-2,6-2
		c2.4,0,4.3,0.6,5.6,1.8c1.3,1.2,2.1,3,2.4,5.5l-6.2,0.6c-0.2-1-0.4-1.7-0.6-2.1c-0.3-0.4-0.7-0.6-1.3-0.6c-0.5,0-1,0.2-1.3,0.5
		c-0.3,0.3-0.4,0.8-0.4,1.4c0,0.6,0.1,1,0.4,1.4c0.3,0.3,0.7,0.5,1.3,0.7l2.4,0.7c2.2,0.6,3.8,1.5,4.8,2.6c1,1.1,1.4,2.7,1.4,4.6
		c0,2.4-0.7,4.3-2.2,5.7c-1.5,1.3-3.5,2-6.2,2c-5.4,0-8.3-2.8-8.5-8.3h6.3c0.1,1.1,0.3,1.9,0.7,2.4c0.4,0.5,0.9,0.7,1.6,0.7
		c0.6,0,1.1-0.2,1.4-0.5c0.3-0.4,0.5-0.9,0.5-1.5c0-0.6-0.1-1-0.4-1.4c-0.3-0.3-0.7-0.6-1.4-0.8L233.1,170.6z"/>
	<path class="st1" d="M245.6,186.5v-23.8h5.9v1.9c0.6-0.8,1.2-1.4,1.8-1.8c0.6-0.4,1.3-0.6,2-0.6c3.4,0,5,3,5,8.9
		c0,6.3-1.7,9.5-5.2,9.5c-0.6,0-1.2-0.2-1.9-0.5c-0.6-0.3-1.1-0.8-1.5-1.3v7.7H245.6z M251.7,171.7c0,1.3,0,2.3,0.1,2.9
		s0.2,1,0.4,1.3c0.2,0.2,0.4,0.3,0.8,0.3c0.4,0,0.6-0.1,0.8-0.4s0.3-0.8,0.3-1.5c0.1-0.7,0.1-1.7,0.1-2.9c0-1.4,0-2.5-0.1-3.1
		c-0.1-0.7-0.2-1.1-0.4-1.4c-0.2-0.2-0.4-0.4-0.7-0.4c-0.4,0-0.6,0.1-0.8,0.4c-0.2,0.3-0.3,0.7-0.3,1.4c-0.1,0.6-0.1,1.6-0.1,2.8
		V171.7z"/>
	<path class="st1" d="M262.2,180.1v-17.4h5.9v2.2c0.5-0.8,1-1.5,1.6-1.9c0.6-0.4,1.3-0.6,2.1-0.6c0.4,0,0.8,0.1,1.2,0.2l-0.6,5.5
		c-0.5-0.1-1-0.2-1.5-0.2c-0.8,0-1.5,0.3-1.9,0.8s-0.7,1.3-0.7,2.3v9.1H262.2z"/>
	<path class="st1" d="M274.5,160.8v-4.2h6.1v4.2H274.5z M274.5,180.1v-17.4h6.1v17.4H274.5z"/>
	<path class="st1" d="M291.3,180.1v-12.6c0-0.3-0.1-0.5-0.2-0.7c-0.2-0.2-0.4-0.3-0.6-0.3c-0.4,0-0.7,0.1-1,0.3
		c-0.2,0.2-0.4,0.5-0.4,0.9v12.4H283v-17.4h5.9v1.7c1.3-1.5,2.7-2.2,4.2-2.2c1.4,0,2.4,0.4,3.2,1.3c0.8,0.8,1.1,2,1.1,3.6v13.1
		H291.3z"/>
	<path class="st1" d="M307.9,177.4c-1,1.2-2.2,1.8-3.5,1.8c-1.6,0-2.9-0.7-3.8-2.2c-0.9-1.4-1.3-3.5-1.3-6.2c0-2.7,0.5-4.9,1.4-6.4
		c0.9-1.5,2.2-2.3,3.9-2.3c0.7,0,1.4,0.2,1.9,0.5c0.5,0.3,1.1,0.8,1.6,1.5v-1.5h5.9v15.5c0,2.8-0.6,4.9-1.9,6.4
		c-1.3,1.5-3.1,2.2-5.5,2.2c-2.2,0-3.9-0.5-5-1.5c-1.1-1-1.7-2.6-1.9-4.8h5.8c0,0.6,0.2,1,0.3,1.3c0.2,0.3,0.5,0.4,0.8,0.4
		c0.5,0,0.8-0.3,1-0.8c0.2-0.5,0.3-1.4,0.3-2.6V177.4z M307.9,170.3c0-1.4-0.1-2.4-0.3-3c-0.2-0.5-0.5-0.8-0.9-0.8
		c-0.5,0-0.8,0.3-1,0.9c-0.2,0.6-0.3,1.7-0.3,3.3c0,1.6,0.1,2.7,0.3,3.3c0.2,0.6,0.5,0.9,1,0.9c0.5,0,0.8-0.3,0.9-0.8
		c0.2-0.5,0.2-1.5,0.2-2.9V170.3z"/>
	<path class="st1" d="M227.3,217v-4.6c1.9-1.8,3.5-3.5,4.9-5.1c1.2-1.3,2-2.5,2.5-3.3c0.5-0.9,0.7-1.8,0.7-2.7
		c0-1.5-0.4-2.2-1.3-2.2c-0.5,0-0.8,0.2-1.1,0.6c-0.2,0.4-0.4,1.1-0.5,2.2l-5.6-0.6c0.2-2.4,1-4.3,2.3-5.6c1.3-1.3,3.1-2,5.3-2
		c2.1,0,3.8,0.6,5,1.9c1.2,1.3,1.8,3,1.8,5.1c0,1.3-0.2,2.6-0.7,3.7c-0.5,1.2-1.3,2.4-2.4,3.8c-1,1.3-2,2.4-3,3.4h6.6l-0.5,5.5
		H227.3z"/>
	<path class="st1" d="M250.8,217.5c-2.6,0-4.5-0.9-5.7-2.8c-1.2-1.9-1.8-4.9-1.8-9c0-4.2,0.6-7.3,1.8-9.2c1.2-1.9,3.2-2.9,5.8-2.9
		c2.6,0,4.5,0.9,5.7,2.8c1.2,1.9,1.8,4.9,1.8,9c0,4.2-0.6,7.3-1.8,9.2C255.5,216.6,253.5,217.5,250.8,217.5z M250.9,212
		c0.4,0,0.8-0.2,1-0.6c0.2-0.4,0.4-1.1,0.4-2c0.1-0.9,0.1-2.2,0.1-3.9c0-1.8,0-3.2-0.1-4.1s-0.3-1.5-0.5-1.9
		c-0.2-0.3-0.5-0.5-0.9-0.5c-0.4,0-0.8,0.2-1,0.6c-0.2,0.4-0.4,1.1-0.4,2c-0.1,0.9-0.1,2.2-0.1,3.9c0,1.8,0,3.2,0.1,4.1
		c0.1,0.9,0.3,1.5,0.5,1.9C250.2,211.8,250.5,212,250.9,212z"/>
	<path class="st1" d="M266.4,217v-15.8l-3.2,2.4l-3-4.6l7.1-4.7h5.1V217H266.4z"/>
	<path class="st1" d="M288.2,205.2c2.2,1.1,3.3,3,3.3,5.7c0,2.1-0.7,3.7-2,4.9c-1.4,1.2-3.2,1.7-5.7,1.7c-2.4,0-4.3-0.6-5.6-1.7
		c-1.3-1.2-2-2.8-2-4.9c0-2.7,1.1-4.7,3.3-5.7c-1.8-1.1-2.8-2.9-2.8-5.2c0-2,0.7-3.5,2-4.7c1.3-1.2,3.1-1.8,5.3-1.8
		c2.2,0,3.9,0.6,5.2,1.7c1.3,1.2,1.9,2.7,1.9,4.7C291,202.3,290.1,204.1,288.2,205.2z M283.8,212.6c0.6,0,1.1-0.2,1.4-0.6
		s0.5-1,0.5-1.8c0-0.8-0.2-1.4-0.5-1.9c-0.3-0.4-0.8-0.6-1.4-0.6c-0.6,0-1.1,0.2-1.4,0.7c-0.3,0.4-0.5,1.1-0.5,1.8
		C282,211.8,282.6,212.6,283.8,212.6z M283.8,203c1.2,0,1.7-0.8,1.7-2.3s-0.6-2.3-1.7-2.3c-0.6,0-1,0.2-1.3,0.6
		c-0.3,0.4-0.4,1-0.4,1.7c0,0.8,0.1,1.4,0.4,1.7C282.8,202.8,283.2,203,283.8,203z"/>
	<path class="st1" d="M228.1,253.8v-23.5h14.3v5.5h-7.9v3.5h7.4v5.5h-7.4v3.7h8.4l-0.5,5.5H228.1z"/>
	<path class="st1" d="M253.3,253.8v-1.9c-0.6,0.8-1.2,1.5-1.8,1.8c-0.6,0.4-1.3,0.6-2,0.6c-3.4,0-5-3-5-8.9c0-6.3,1.7-9.5,5.2-9.5
		c0.6,0,1.2,0.2,1.9,0.5c0.6,0.3,1.1,0.8,1.5,1.3v-7.4h6.1v23.5H253.3z M253.1,244.8c0-1.3,0-2.3-0.1-2.9s-0.2-1-0.4-1.3
		c-0.2-0.2-0.4-0.3-0.8-0.3c-0.4,0-0.6,0.1-0.8,0.4c-0.2,0.3-0.3,0.8-0.3,1.5c-0.1,0.7-0.1,1.7-0.1,2.9c0,1.4,0,2.5,0.1,3.1
		c0.1,0.7,0.2,1.1,0.4,1.4c0.2,0.2,0.4,0.4,0.7,0.4c0.4,0,0.6-0.1,0.8-0.4c0.2-0.3,0.3-0.7,0.3-1.4c0.1-0.6,0.1-1.6,0.1-2.8V244.8z"
		/>
	<path class="st1" d="M261.5,234.6v-4.2h6.1v4.2H261.5z M261.5,253.8v-17.4h6.1v17.4H261.5z"/>
	<path class="st1" d="M280.6,253.5c-1.5,0.4-2.8,0.7-4,0.7c-1.9,0-3.3-0.5-4.1-1.4c-0.9-0.9-1.3-2.4-1.3-4.3v-7.5h-2.2v-4.4h2.2
		v-4.5h6.1v4.5h3.1v4.4h-3.1v7.1c0,1,0.4,1.5,1.3,1.5c0.4,0,0.9-0.1,1.4-0.2L280.6,253.5z"/>
	<path class="st1" d="M282.6,234.6v-4.2h6.1v4.2H282.6z M282.6,253.8v-17.4h6.1v17.4H282.6z"/>
	<path class="st1" d="M297.9,254.4c-2.5,0-4.4-0.7-5.6-2.2c-1.2-1.5-1.8-3.8-1.8-6.9c0-3.1,0.6-5.5,1.8-7c1.2-1.5,3.1-2.3,5.6-2.3
		s4.4,0.7,5.6,2.2c1.2,1.5,1.8,3.8,1.8,6.9s-0.6,5.5-1.8,7C302.3,253.6,300.5,254.4,297.9,254.4z M298,250c0.4,0,0.6-0.1,0.8-0.4
		c0.2-0.3,0.3-0.8,0.4-1.5c0.1-0.7,0.1-1.7,0.1-2.9c0-2-0.1-3.2-0.2-3.9c-0.2-0.6-0.5-0.9-1-0.9c-0.4,0-0.6,0.1-0.8,0.4
		c-0.2,0.3-0.3,0.8-0.4,1.5c-0.1,0.7-0.1,1.7-0.1,2.9c0,2,0.1,3.2,0.2,3.9C297.1,249.7,297.5,250,298,250z"/>
	<path class="st1" d="M315.6,253.8v-12.6c0-0.3-0.1-0.5-0.2-0.7c-0.2-0.2-0.4-0.3-0.6-0.3c-0.4,0-0.7,0.1-1,0.3
		c-0.2,0.2-0.4,0.5-0.4,0.9v12.4h-6.1v-17.4h5.9v1.7c1.3-1.5,2.7-2.2,4.2-2.2c1.4,0,2.4,0.4,3.2,1.3c0.8,0.8,1.1,2,1.1,3.6v13.1
		H315.6z"/>
</g>
</svg>
