<?xml version="1.0" encoding="utf-8"?>
<!-- Generator: Adobe Illustrator 22.0.1, SVG Export Plug-In . SVG Version: 6.00 Build 0)  -->
<svg version="1.1" id="Layer_1" xmlns="http://www.w3.org/2000/svg" xmlns:xlink="http://www.w3.org/1999/xlink" x="0px" y="0px"
	 viewBox="0 0 42.5 21.6" style="enable-background:new 0 0 42.5 21.6;" xml:space="preserve">
<g>
	<path d="M6.8,14.5c0-0.3,0-0.5,0-0.8c9.6,0,19.2,0,28.8,0c0,0.3,0,0.5,0,0.8C26,14.5,16.4,14.5,6.8,14.5z"/>
	<path d="M29.5,9.9c-1.2,0-2.3,0-3.5,0c0,0.5,0.3,0.8,0.7,1c0.6,0.2,1.1,0,1.7-0.6c0.3,0.1,0.7,0.2,1,0.3c-0.3,0.6-0.7,1-1.3,1.2
		c-0.6,0.2-1.2,0.2-1.8,0c-0.6-0.2-1.1-0.6-1.4-1.2c-0.3-0.7-0.3-1.4-0.1-2.1c0.4-1,1.3-1.6,2.5-1.5c1.3,0.1,2.2,1,2.2,2.4
		C29.5,9.6,29.5,9.8,29.5,9.9z M26.1,9c0.7,0,1.4,0,2.1,0c0-0.5-0.4-0.9-1-0.9C26.6,8.1,26.1,8.5,26.1,9z"/>
	<path d="M8.5,8.6C8.2,8.6,7.8,8.5,7.5,8.4c0.1-0.5,0.4-0.8,0.8-1C9,7,9.9,7,10.7,7.4c0.5,0.2,0.7,0.7,0.8,1.2c0,0.2,0,0.3,0,0.5
		c0,0.9,0,1.8,0,2.7c0,0,0,0.1,0,0.2c-0.3,0-0.7,0-1,0c0-0.2-0.1-0.3-0.1-0.5c-0.1,0.1-0.1,0.1-0.2,0.1c-0.6,0.5-1.3,0.6-2,0.4
		c-0.5-0.2-0.8-0.6-0.9-1.1c-0.1-0.6,0.1-1,0.6-1.4C8.3,9.1,8.7,9,9.1,9c0.4,0,0.7,0,1.1,0c0.1-0.4,0-0.7-0.4-0.8
		C9.6,8.1,9.3,8.1,9,8.2C8.8,8.3,8.6,8.4,8.5,8.6z M10.3,9.9c-0.3,0-0.7,0-1,0c-0.2,0-0.3,0.1-0.4,0.1c-0.2,0.1-0.3,0.3-0.2,0.6
		C8.7,10.8,8.8,11,9,11c0.2,0,0.4,0,0.6-0.1C10.1,10.7,10.3,10.4,10.3,9.9z"/>
	<path d="M23.4,11.9c-0.4,0-0.8,0-1.3,0c0-0.1,0-0.2,0-0.3c0-0.9,0-1.7,0-2.6c0-0.1,0-0.1,0-0.2c0-0.3,0-0.6-0.3-0.7
		c-0.3-0.1-0.6-0.1-0.9,0.1c-0.3,0.2-0.4,0.5-0.5,0.8c-0.1,0.3-0.1,0.6-0.1,0.9c0,0.5,0,1.1,0,1.6c0,0.1,0,0.2,0,0.3
		c-0.4,0-0.8,0-1.3,0c0-1.6,0-3.1,0-4.7c0.4,0,0.8,0,1.3,0c0,0.2,0,0.4,0,0.7c0.1-0.1,0.2-0.2,0.3-0.3c0.6-0.5,1.3-0.6,2-0.3
		c0.4,0.2,0.6,0.5,0.7,1c0,0.1,0,0.2,0,0.3c0,1.1,0,2.2,0,3.2C23.4,11.8,23.4,11.8,23.4,11.9z"/>
	<path d="M17.5,11.9c-0.4,0-0.8,0-1.3,0c0-0.1,0-0.2,0-0.3c0-0.9,0-1.8,0-2.7c0-0.3-0.1-0.6-0.4-0.7C15.5,8,15.2,8.1,15,8.3
		c-0.4,0.3-0.5,0.8-0.6,1.2c0,0.6,0,1.3,0,1.9c0,0.1,0,0.3,0,0.4c-0.4,0-0.8,0-1.2,0c0-1.6,0-3.1,0-4.7c0.4,0,0.8,0,1.2,0
		c0,0.2,0,0.4,0,0.6c0,0,0,0,0.1,0c0.1-0.1,0.2-0.2,0.3-0.3c0.6-0.5,1.3-0.6,2-0.3c0.5,0.2,0.8,0.6,0.8,1.2c0,0.9,0,1.8,0,2.7
		C17.5,11.4,17.5,11.6,17.5,11.9z"/>
	<path d="M30.5,11.9c0.6-0.9,1.1-1.7,1.7-2.5c-0.5-0.7-1-1.4-1.5-2.2c0.5,0,0.9,0,1.3,0c0.3,0.4,0.5,0.8,0.8,1.2
		c0.3-0.4,0.6-0.8,0.8-1.2c0.4,0,0.9,0,1.3,0c-0.5,0.7-1,1.5-1.5,2.2c0.5,0.8,1.1,1.6,1.7,2.5c-0.5,0-0.9,0-1.3,0
		c-0.3-0.5-0.7-1-1-1.5c-0.3,0.5-0.7,1-1,1.5C31.4,11.9,31,11.9,30.5,11.9z"/>
</g>
</svg>
