<?xml version="1.0" encoding="utf-8"?>
<!-- Generator: Adobe Illustrator 21.1.0, SVG Export Plug-In . SVG Version: 6.00 Build 0)  -->
<svg version="1.1" id="Layer_1" xmlns="http://www.w3.org/2000/svg" xmlns:xlink="http://www.w3.org/1999/xlink" x="0px" y="0px"
	 viewBox="0 0 292.5 292.5" style="enable-background:new 0 0 292.5 292.5;" xml:space="preserve">
<style type="text/css">
	.st0{fill:#231F20;}
</style>
<title>Artboard 3</title>
<path class="st0" d="M57.3,58.4c2.2,6.1,2.2,12.7-0.2,18.7c-2,5.7-6.3,10.3-11.8,12.7c-3.3,1.4-5,2.2-8.3,3.7l2.6,7l5.2,9.9
	c-7.9,3.6-11.8,5.4-19.7,9.4C18.8,102.4,12.4,84.9,6,67.5c-2.1-3.9-3.2-5.8-5.3-9.6c9.2-5,18.6-9.7,28.2-14
	c4.8-2.3,10.3-2.4,15.1-0.3c5.2,2.2,9.4,6.1,11.8,11.2C56.4,55.9,56.9,57.1,57.3,58.4z M39.8,65.8c-0.4-1.3-1.3-2.4-2.5-3
	c-1.2-0.6-2.6-0.6-3.7-0.1c-2.6,1.2-3.8,1.8-6.4,3l3.6,10.2c2.6-1.2,3.9-1.8,6.5-3c1.2-0.6,2.1-1.6,2.4-2.9
	C40.2,68.7,40.3,67.2,39.8,65.8z M72.2,49.1c-3.1,1.2-4.7,1.8-7.8,3c-3.9-7.7-5.9-11.5-9.9-19.2c11.7-4.6,23.5-8.9,35.4-13
	c3.9,7.8,5.9,11.7,9.8,19.5c-3.5,1.2-5.3,1.8-8.8,3c2.7,7.9,5.4,15.8,8.1,23.8c3.2-1.1,4.8-1.6,7.9-2.7c3.9,7.8,5.8,11.6,9.7,19.4
	c-11.8,4-23.5,8.2-35.2,12.6c-3.9-7.7-5.8-11.5-9.8-19.2c3.5-1.4,5.3-2,8.8-3.3C77.7,64.9,74.9,57,72.2,49.1L72.2,49.1z M134.5,17.6
	l-5.1-10.3c7.4-2.2,11.1-3.3,18.5-5.4c7.2,21.3,14.4,42.6,21.5,64l-10.7,3.4c-7.9-6.5-15.9-13-23.8-19.6l4.6,13.9l5.1,10.2
	c-7.3,2.3-11,3.5-18.2,5.9c-6.1-17.9-12.2-35.8-18.3-53.7L103,15.6c4.9-1.6,7.4-2.4,12.3-3.9c8,6.6,16,13.2,24,19.9L134.5,17.6z
	 M67.1,142.5c2.2,6.1,2.1,12.7-0.2,18.7c-2,5.7-6.2,10.3-11.6,12.8c-3.3,1.5-4.9,2.3-8.1,3.8l2.5,6.9l5.1,9.8
	c-7.8,3.6-11.7,5.6-19.4,9.5c-6.2-17.4-12.5-34.7-18.8-52.1l-5.2-9.6c9.1-5,18.4-9.7,27.8-14.1c4.7-2.3,10.1-2.4,14.9-0.4
	c5.1,2.1,9.2,6,11.6,11C66.2,140,66.7,141.2,67.1,142.5z M49.9,150.1c-0.4-1.3-1.3-2.4-2.5-3c-1.2-0.6-2.5-0.6-3.7,0
	c-2.5,1.2-3.8,1.8-6.3,3l3.5,10.1c2.6-1.2,3.8-1.8,6.4-3c1.2-0.6,2-1.6,2.4-2.9C50.3,152.9,50.4,151.4,49.9,150.1z M96,176.9
	c-6.4,2.5-9.5,3.8-15.9,6.4c0.1-24.6,0.2-49.3,0.3-73.9c4.4-1.7,6.6-2.5,11-4.2c14.9,18.9,29.8,37.8,44.5,56.8
	c-6.4,2.3-9.6,3.4-16,5.8l-3.5-4.7c-8.2,3-12.3,4.6-20.4,7.7L96,176.9z M95.6,135.9l0.2,17.5c4.1-1.6,6.1-2.3,10.2-3.9
	C101.8,144.2,99.7,141.4,95.6,135.9L95.6,135.9z M118.3,119.5c-3.8-7.7-5.8-11.6-9.6-19.3c16.1-5.6,32.3-10.9,48.6-16.1l9.5,19.2
	l-16,5.2c3.7,10.9,7.3,21.9,10.9,32.8l4.9,10c-8,2.8-12,4.2-19.9,6.9c-4.8-14.5-9.7-29-14.6-43.5
	C126.6,116.6,123.8,117.6,118.3,119.5L118.3,119.5z M197.7,93.6c-2.7,0.8-4.8,2.8-5.8,5.5c-1,2.3-1.1,4.9-0.4,7.3
	c0.8,2.2,1.2,3.4,1.4,3.8c2.8,5.6,6.9,7.4,12.2,5.5c1.8-0.5,3.4-1.4,4.9-2.5c1.6-1.6,3.2-3.2,4.6-4.9l6.2,18.7
	c-1.3,2.5-2.9,4.8-4.9,6.8c-2,1.8-4.4,3.2-7,4.1c-6.3,2.4-13.4,1.9-19.3-1.4c-6.6-3.5-11.8-9.1-14.9-15.9c-1.7-3.7-3.1-7.5-4.3-11.4
	c-1.8-5.5-1.4-12.3,1.5-20.2c2.4-7.5,8.3-13.3,15.8-15.5c2.5-0.9,5.1-1.2,7.7-1c2.8,0.4,5.5,1.1,8.1,2.2l6.4,19
	c-2.3-0.3-4.4-0.6-6.3-0.8C201.6,92.6,199.6,92.9,197.7,93.6L197.7,93.6z M255,74l-3.6-10.3l-4.9-9.4c8.2-3.1,12.3-4.7,20.6-8.1
	c5.6,16.2,11.2,32.5,16.8,48.7l4.8,8.8c-8.2,3.9-12.3,5.8-20.4,9.4l-6.9-20.3c-6,2.5-9,3.7-15.1,6.1l3.6,10.7l4.8,9.3
	c-8.1,3.4-12.2,5-20.3,8.1l-17.2-50.9l-4.9-9.8c8.2-2.8,12.2-4.2,20.4-7.1l7.1,20.6C245.9,77.6,248.9,76.5,255,74L255,74z
	 M78.9,271.5c-2.7-7.9-5.4-15.8-8.1-23.8c-0.9,6-1.3,9-2.1,15l-5.3,2.5c-4.1-3.6-6.2-5.5-10.3-9.1l4.5,13.2l5,9.8
	c-7,3.4-10.4,5.1-17.3,8.8c-6.1-17.3-12.2-34.6-18.4-51.9l-5.1-9.5c6.2-3.5,9.3-5.1,15.5-8.4c6.1,5.2,12.2,10.4,18.3,15.7
	c1.2-8.8,2.4-17.6,3.7-26.4c5.6-2.6,8.5-3.9,14.1-6.4c6.1,17.6,12.1,35.1,18.1,52.7l4.9,9.9C89.4,266.8,85.9,268.3,78.9,271.5z
	 M90.7,216.7c-3.8-7.6-5.7-11.4-9.5-18.9c15.7-6.5,31.5-12.7,47.5-18.5l9.4,19c-6.2,2.3-9.4,3.5-15.6,5.8
	c3.6,10.9,7.3,21.8,10.9,32.8l4.9,9.9c-7.8,3-11.7,4.5-19.4,7.7c-4.8-14.4-9.6-28.9-14.5-43.3C98.9,213.3,96.2,214.5,90.7,216.7z
	 M170.6,212.3c7.4-2.8,11.1-4.1,18.5-6.9l9.2,18.5c-13.1,5.1-26.2,10-39.3,15c-5.8-17.5-11.6-35-17.5-52.4l-4.9-10
	c7.9-2.8,11.9-4.2,19.8-7C161.1,183.7,165.9,198,170.6,212.3L170.6,212.3z"/>
</svg>
